<svg xmlns="http://www.w3.org/2000/svg" width="40" height="53" viewBox="0 0 40 53"><g fill="none" fill-rule="evenodd"><path fill="#CFDCE5" fill-rule="nonzero" d="M.035 46.982v3.045c0 1.585 1.27 2.87 2.834 2.87h34.262c1.565 0 2.834-1.285 2.834-2.87V2.87c0-1.585-1.27-2.87-2.835-2.87H2.87C1.304 0 .035 1.285.035 2.87v40.853"/><path fill="#BAC6CC" fill-rule="nonzero" d="M.035 10.3h39.929v1.504H.035z"/><ellipse cx="19.999" cy="31.987" fill="#FFF" fill-rule="nonzero" rx="15.252" ry="15.442"/><path fill="#BAC6CC" fill-rule="nonzero" d="M20 48.056c-8.751 0-15.871-7.208-15.871-16.07 0-8.86 7.12-16.069 15.871-16.069 8.752 0 15.872 7.21 15.872 16.07S28.752 48.057 20 48.057zm0-30.885c-8.069 0-14.633 6.646-14.633 14.816 0 8.17 6.564 14.816 14.633 14.816 8.069 0 14.633-6.647 14.633-14.816 0-8.17-6.564-14.816-14.633-14.816z"/><ellipse cx="32.931" cy="5.412" fill="#415E72" fill-rule="nonzero" rx="2.414" ry="2.444"/><path fill="#BAC6CC" fill-rule="nonzero" d="M32.93 8.483c-1.672 0-3.033-1.378-3.033-3.071 0-1.694 1.361-3.072 3.034-3.072 1.672 0 3.033 1.378 3.033 3.072 0 1.693-1.36 3.07-3.033 3.07zm0-4.89c-.99 0-1.795.816-1.795 1.818 0 1.003.806 1.818 1.796 1.818s1.795-.815 1.795-1.818a1.809 1.809 0 0 0-1.795-1.817z"/><path d="M3.587 2.967H9.16v1.88H3.587zm0 3.385H9.16v1.88H3.587zm8.048-3.385h5.572v1.88h-5.572zm0 3.385h5.572v1.88h-5.572z" fill="#415E72" fill-rule="nonzero"/><path fill="#D8D8D8" d="M21.756 34.664a3.299 3.299 0 0 1-3.365.26l-6.91 6.911-1.372-1.37 6.888-6.888a3.296 3.296 0 0 1 .211-3.46l-6.788-6.788L11.75 22l6.874 6.875-.17.169a3.291 3.291 0 0 1 3.032.045l7.107-7.107 1.37 1.37-7.129 7.13a3.29 3.29 0 0 1-.005 2.936l.17-.169 6.874 6.874-1.329 1.33-6.787-6.789z"/></g></svg>