<svg width="41" height="41" viewBox="0 0 41 41" xmlns="http://www.w3.org/2000/svg"><title>A7FB9078-07AA-4785-A6C3-BE33802963CC</title><g fill="none"><path d="M22.175 30.11c-1.474 0-2.832-.285-4.073-.854a9.23 9.23 0 0 1-3.15-2.33 9.225 9.225 0 0 1-1.875-3.363h-1.82c-.28 0-.517-.09-.713-.272a.865.865 0 0 1-.294-.66c0-.258.098-.482.294-.672a.988.988 0 0 1 .714-.285h1.455a9.518 9.518 0 0 1-.028-.854c0-.224.02-.578.056-1.06h-1.483c-.28 0-.518-.091-.714-.272a.865.865 0 0 1-.294-.66c0-.259.098-.479.294-.66.196-.181.434-.272.714-.272h1.931c.616-1.81 1.685-3.324 3.206-4.54 1.52-1.217 3.447-1.825 5.78-1.825 1.493 0 2.856.276 4.087.828.43.19.644.5.644.932 0 .276-.112.517-.336.724-.224.207-.494.31-.811.31-.131 0-.308-.042-.532-.129-.859-.293-1.876-.44-3.052-.44-1.455 0-2.738.38-3.849 1.139a6.904 6.904 0 0 0-2.477 3.001h8.09c.28 0 .518.091.714.272a.865.865 0 0 1 .294.66c0 .241-.098.457-.294.647a.988.988 0 0 1-.714.284h-8.622a6.307 6.307 0 0 0-.084 1.061c0 .19.019.475.056.854h7.25c.28 0 .523.095.728.285.205.19.308.414.308.673 0 .276-.098.5-.294.672-.196.173-.443.259-.742.259h-6.802a6.814 6.814 0 0 0 2.52 3.13c1.156.794 2.463 1.191 3.918 1.191 1.176 0 2.193-.146 3.052-.44.242-.086.42-.13.532-.13.317 0 .587.104.811.311.224.207.336.449.336.725 0 .414-.214.724-.644.931-1.231.552-2.594.828-4.087.828z" stroke="#FFC300" stroke-width=".555" fill="#FFC300"/><path d="M8.053 8.037C14.34 1.744 24.22 1.2 31.126 6.407L29.555 7.98c-.241.243-.105.665.231.73l6.429 1.227a.427.427 0 0 0 .498-.5l-1.248-6.431a.426.426 0 0 0-.72-.22l-1.57 1.573C25.13-1.956 13.43-1.411 6.022 6.004a20.485 20.485 0 0 0-4.966 21.004 1.435 1.435 0 0 0 1.915.858c.7-.29 1.04-1.073.803-1.794A17.611 17.611 0 0 1 8.053 8.037zm31.89 5.957a1.435 1.435 0 0 0-1.915-.859 1.44 1.44 0 0 0-.801 1.795 17.617 17.617 0 0 1-4.28 18.034c-6.286 6.292-16.172 6.83-23.079 1.622l1.568-1.575a.427.427 0 0 0-.221-.72l-6.428-1.228a.427.427 0 0 0-.499.5l1.249 6.431a.426.426 0 0 0 .72.22l1.567-1.574c8.044 6.315 19.747 5.772 27.154-1.643a20.489 20.489 0 0 0 4.965-21.003z" fill="#009DE9"/></g></svg>