<svg xmlns="http://www.w3.org/2000/svg" width="70" height="70" viewBox="0 0 70 70"><g fill="none" fill-rule="evenodd"><path fill="#3BA818" d="M2.726 21.476V67.41h23.245l.185-11.396h18.052V67.41H67.41V21.476L35.068 3.124 2.726 21.476zM.068 19.928l35-19.86 35 19.86v50.14H41.55V58.673H28.772l-.185 11.395H.068v-50.14z"/><path fill="#3BA818" d="M34.908 43.546c2.459 0 5.97-2.211 5.97-7.238 0-5.026-5.97-9.65-5.97-9.65s-5.97 4.624-5.97 9.65c0 5.027 3.512 7.238 5.97 7.238z"/><path fill="#FFF" d="M34.908 42.658c.703 0 1.706-.582 1.706-1.905s-1.706-2.54-1.706-2.54-1.706 1.217-1.706 2.54 1.004 1.905 1.706 1.905z"/></g></svg>