<svg xmlns="http://www.w3.org/2000/svg" width="70" height="70" viewBox="0 0 70 70"><g fill="none" fill-rule="evenodd"><path fill="#F50" d="M2.726 21.476V67.41h23.245l.185-11.396h18.052V67.41H67.41V21.476L35.068 3.124 2.726 21.476zM.068 19.928l35-19.86 35 19.86v50.14H41.55V58.673H28.772l-.185 11.395H.068v-50.14z"/><path fill="#F50" d="M34.813 51.546c5.093 0 12.368-4.306 12.368-14.095 0-9.788-12.368-18.793-12.368-18.793S22.446 27.663 22.446 37.45c0 9.789 7.275 14.095 12.367 14.095z"/><path fill="#FFF" d="M34.387 49.769c1.756 0 4.265-1.514 4.265-4.953s-4.265-6.603-4.265-6.603-4.265 3.164-4.265 6.603c0 3.44 2.509 4.953 4.265 4.953z"/></g></svg>