<svg width="30" height="30" viewBox="0 0 30 30" xmlns="http://www.w3.org/2000/svg" xmlns:xlink="http://www.w3.org/1999/xlink"><title>30E794F8-A747-4000-B95D-930DD30832BA</title><defs><path id="a" d="M0 0h30v30H0z"/></defs><g fill="none" fill-rule="evenodd"><mask id="b" fill="#fff"><use xlink:href="#a"/></mask><path d="M30 15c0-8.285-6.715-15-15-15C6.716 0 0 6.715 0 15c0 8.283 6.716 15 15 15 8.285 0 15-6.717 15-15" fill="#D40C18" mask="url(#b)"/><path d="M18.834 20.536h-7.667a3.714 3.714 0 0 1-3.715-3.714V13.18a3.714 3.714 0 0 1 3.715-3.714h7.667a3.714 3.714 0 0 1 3.715 3.714v3.642a3.714 3.714 0 0 1-3.715 3.714" fill="#FFF"/><path d="M18.068 15.035l-5.041 2.723a.253.253 0 0 1-.373-.222l-.002-5.469c0-.192.205-.313.373-.222l5.044 2.745a.253.253 0 0 1 0 .445" fill="#DB0C0B"/></g></svg>