<svg xmlns="http://www.w3.org/2000/svg" width="56" height="58" viewBox="0 0 56 58"><defs><style>.a{fill:#cecece}</style></defs><title>icon-garantie-electromenager</title><path class="a" d="M28.27 18.1a1.39 1.39 0 1 1 1.39-1.39 1.39 1.39 0 0 1-1.39 1.39zm0-1.9a.51.51 0 1 0 .51.51.51.51 0 0 0-.51-.51zm3.35 1.9A1.39 1.39 0 1 1 33 16.71a1.39 1.39 0 0 1-1.38 1.39zm0-1.9a.51.51 0 1 0 .51.51.51.51 0 0 0-.51-.51zM35 18.09a1.39 1.39 0 1 1 1.39-1.39A1.39 1.39 0 0 1 35 18.09zm0-1.9a.51.51 0 1 0 .51.51.51.51 0 0 0-.51-.51zm-4.15 19.13a5.25 5.25 0 1 1 5.25-5.25 5.09 5.09 0 0 1-.08.86v.1l-.89-.39a4.33 4.33 0 0 1 0-.56 4.26 4.26 0 1 0-4.26 4.26 4.21 4.21 0 0 0 2.45-.78h.05l.7.7-.07.06a5.19 5.19 0 0 1-3.15 1z"/><path class="a" d="M30.88 39.24a9.17 9.17 0 1 1 8.8-11.71 7.26 7.26 0 0 1 .25.94v.07l-1 .23v-.08a8.17 8.17 0 1 0-8 9.56 8.07 8.07 0 0 0 3.29-.7h.07l.45.89h-.08a9 9 0 0 1-3.78.8z"/><path class="a" d="M20.79 42.54a1.88 1.88 0 0 1-1.92-1.84V15.9a1.88 1.88 0 0 1 1.92-1.84H41a1.88 1.88 0 0 1 1.92 1.84v11.93h-1v-8.4h-22v21.28a.89.89 0 0 0 .92.84h20.71v1zM42 18.43V15.9a1 1 0 0 0-1-1H25.31v3.49zm-17.5 0v-3.49h-3.59a.93.93 0 0 0-1 1v2.52zm-6.7 17.8c-.31 0-.47-.2-.48-.6v-.7l-.68.68a.58.58 0 0 1-.41.2.5.5 0 0 1-.25-.07.43.43 0 0 1-.22-.31.58.58 0 0 1 .19-.48l.5-.5c.24-.24.49-.48.72-.73a.63.63 0 0 0 .15-.37v-1.16l-.27.16-1.13.65s-.07.15-.08.2l-.32 1.43c-.1.47-.35.54-.49.54h-.11c-.17 0-.44-.19-.32-.74l.16-.75-.53.3a.72.72 0 0 1-.34.1.41.41 0 0 1-.39-.25.48.48 0 0 1 .25-.67l.65-.38-1.17-.26a.51.51 0 0 1-.33-.22.47.47 0 0 1 0-.36.44.44 0 0 1 .44-.35h.14l1.91.42h.19a.58.58 0 0 0 .32-.1c.26-.17.52-.32.81-.48l.25-.14-.24-.14-.93-.53h-.22l-1.79.38h-.2a.46.46 0 0 1-.49-.36c-.06-.28.11-.5.47-.58l.93-.21-.68-.4a.71.71 0 0 1-.36-.41.42.42 0 0 1 .06-.33.41.41 0 0 1 .37-.22.89.89 0 0 1 .43.14l.72.41v-.22c-.05-.27-.11-.52-.16-.77a.46.46 0 0 1 .35-.62h.13a.46.46 0 0 1 .44.41l.12.56c.08.37.16.75.25 1.12a.38.38 0 0 0 .11.22c.28.18.57.34.88.52l.23.13v-1.1a.45.45 0 0 0-.13-.25q-.6-.63-1.21-1.23c-.17-.17-.36-.42-.09-.73a.42.42 0 0 1 .25-.08.65.65 0 0 1 .45.23l.49.52.23.24V27a.51.51 0 0 1 0-.32c0-.06.24-.34.45-.34h.08v9.9z"/><path class="a" d="M8.72 42.54A1.68 1.68 0 0 1 7 40.9V18.74a1.68 1.68 0 0 1 1.72-1.65h9.17v1h-9a.89.89 0 0 0-.92.85V21h9.9v1H8v18.9a.69.69 0 0 0 .72.65h9.16v1z"/><path class="a" d="M12.34 19.83a.4.4 0 1 1 0-.79h5.55v.79zm28.78 24.96zm0-.06zm-.03-.08zm0 .06zm.79 1.34a2.19 2.19 0 0 1-.48-.05 1.39 1.39 0 0 1-1-1.62.45.45 0 0 1 .44-.43.44.44 0 0 1 .44.44v.22c0 .3.11.51.5.56h.12a.41.41 0 0 0 .46-.33 4.14 4.14 0 0 0 .13-1v-7.3h1v7.49a3.54 3.54 0 0 1-.16 1 1.35 1.35 0 0 1-1.45 1.02z"/><path class="a" d="M38.43 37.12a.46.46 0 0 1-.33-.17 2.08 2.08 0 0 0-1.73-1.08 1.79 1.79 0 0 0-1.39.56.43.43 0 0 1-.31.13.44.44 0 0 1-.2 0 .44.44 0 0 1-.24-.46 9.19 9.19 0 0 1 2.43-4.88 8.2 8.2 0 0 1 6.24-2.66 8.34 8.34 0 0 1 7.14 4A8.48 8.48 0 0 1 51.41 36a.44.44 0 0 1-.71.41 2 2 0 0 0-1.35-.47h-.1a2 2 0 0 0-1.79 1 .44.44 0 0 1-.74 0 2.16 2.16 0 0 0-1.36-.94 2 2 0 0 0-.4 0 1.91 1.91 0 0 0-1.25.47l-.33.32h-.84a2.67 2.67 0 0 0-1.74-.8h-.12a2.12 2.12 0 0 0-1.7.85l-.13.18-.07.07a.5.5 0 0 1-.32.13zm-2-2.24a2.85 2.85 0 0 1 2.06.94 3.08 3.08 0 0 1 2.21-.93h.15a3.06 3.06 0 0 1 2 .91 2 2 0 0 1 .21-.21 2.9 2.9 0 0 1 2.5-.65 3.1 3.1 0 0 1 1.51.8 3 3 0 0 1 2.15-.85h.12a3.27 3.27 0 0 1 .82.1 7.54 7.54 0 0 0-.94-1.92 7.34 7.34 0 0 0-6.34-3.56 7.19 7.19 0 0 0-5.51 2.36A8.15 8.15 0 0 0 35.52 35a2.83 2.83 0 0 1 .77-.1z"/></svg>