<svg xmlns="http://www.w3.org/2000/svg" width="240" height="120" viewBox="0 0 240 120"><defs><style>.cls-1{fill:#a2b1b7}.cls-2{fill:#c4d3d9}.cls-3{fill:#414d53}.cls-4{fill:#748993}.cls-5{fill:#f37c4a}.cls-6{fill:#f7a676}.cls-7{fill:#57676e}.cls-8{fill:none;stroke:#059ce7;stroke-linecap:round;stroke-linejoin:round;stroke-width:8px}</style></defs><title/><g id="Calque_2" data-name="Calque 2"><path class="cls-1" d="M166.86 29.94v17.77l-16 7.1 10.66-24.87z"/><path class="cls-2" d="M161.53 29.94v30.2L86 47.71V29.94z"/><path class="cls-3" d="M166.86 47.71v63.07h-5.33l-8.88-31.53 8.88-31.53z"/><path class="cls-4" d="M86 47.71v63.07h75.51V58.37l-1.78-2.66 1.8-2.71v-5.29z"/><path class="cls-5" d="M156.2 69v31.09h-5.33l-7.11-15.54L150.87 69z"/><path class="cls-4" d="M104.9 35.27a3.55 3.55 0 1 1-3.55 3.55 3.55 3.55 0 0 1 3.55-3.55zm42.11 0a3.55 3.55 0 1 1-3.55 3.55 3.55 3.55 0 0 1 3.54-3.55z"/><path class="cls-3" d="M136.35 35.27v7.1H131l-3.55-3.55 3.55-3.55z"/><path class="cls-6" d="M96.68 69h54.19v31.09H96.68z"/><path class="cls-7" d="M115.56 35.27H131v7.11h-15.44z"/><path class="cls-1" d="M161.53 53v5.33h-5.33l-3.55-2.66L156.2 53z"/><path class="cls-2" d="M91.35 53h64.85v5.33H91.35z"/><path class="cls-5" d="M150.87 80.72H102a1.33 1.33 0 1 1 0-2.67h48.86a1.33 1.33 0 0 1 0 2.67zm0 10.36H102a1.33 1.33 0 1 1 0-2.67h48.86a1.33 1.33 0 0 1 0 2.67z"/><path class="cls-8" d="M217.48 23.83l-17.19 19.14-10.86-9.61"/></g></svg>