<svg xmlns="http://www.w3.org/2000/svg" width="240" height="120" viewBox="0 0 240 120"><defs><style>.cls-1{fill:#afb9d2}.cls-2{fill:#e4eaf6}.cls-3{fill:#d7deed}.cls-4{fill:#c7cfe2}.cls-5{fill:#707487}.cls-6{fill:#fff}.cls-7{fill:#fff08c}.cls-8{fill:#00c8f0}.cls-9{fill:#00afe1}.cls-10{fill:#00ebff}.cls-11{fill:#00dcff}.cls-12{fill:#959cb3}.cls-13{fill:none;stroke:#059ce7;stroke-linecap:round;stroke-linejoin:round;stroke-width:8px}</style></defs><title>LAVE LINGE</title><g id="Calque_3" data-name="Calque 3"><path class="cls-1" d="M93.63 110.68h-3.1a1.55 1.55 0 0 1-1.53-1.54V106h6.2v3.09a1.55 1.55 0 0 1-1.55 1.55zm55.83 0h-3.1a1.55 1.55 0 0 1-1.55-1.54V106H151v3.09a1.55 1.55 0 0 1-1.55 1.55z"/><path class="cls-2" d="M149.47 107.59H90.53a3.1 3.1 0 0 1-3.1-3.09V24.07a3.1 3.1 0 0 1 3.1-3.07h58.93a3.1 3.1 0 0 1 3.1 3.09v80.41a3.1 3.1 0 0 1-3.09 3.09z"/><path class="cls-3" d="M87.43 24.07v15.46h65.14V24.07a3.1 3.1 0 0 0-3.1-3.1H90.53a3.1 3.1 0 0 0-3.1 3.1z"/><path class="cls-1" d="M113.8 21v9.28a6.2 6.2 0 0 0 6.2 6.19 6.2 6.2 0 0 0 6.2-6.19V21z"/><ellipse class="cls-4" cx="120" cy="67.38" rx="23.26" ry="23.2"/><ellipse class="cls-5" cx="120" cy="30.26" rx="3.1" ry="3.09"/><path class="cls-6" d="M132.41 33.35a1.55 1.55 0 0 1-1.55-1.54v-3.1a1.55 1.55 0 0 1 1.55-1.55 1.55 1.55 0 0 1 1.59 1.55v3.09a1.55 1.55 0 0 1-1.55 1.55z"/><path class="cls-7" d="M138.61 33.35a1.55 1.55 0 0 1-1.55-1.55v-3.09a1.55 1.55 0 0 1 3.1 0v3.09a1.55 1.55 0 0 1-1.55 1.55z"/><path class="cls-2" d="M144.81 33.35a1.55 1.55 0 0 1-1.55-1.54v-3.1a1.55 1.55 0 0 1 1.55-1.55 1.55 1.55 0 0 1 1.55 1.54v3.1a1.55 1.55 0 0 1-1.55 1.55z"/><ellipse class="cls-8" cx="120" cy="67.38" rx="15.51" ry="15.47"/><path class="cls-9" d="M120 56.55a15.48 15.48 0 0 1 15.32 13.15 15.51 15.51 0 1 0-30.63 0A15.49 15.49 0 0 1 120 56.55z"/><path class="cls-3" d="M132.41 92.12h15.51a1.55 1.55 0 0 1 1.55 1.54v9.28a1.55 1.55 0 0 1-1.55 1.55h-15.51a1.55 1.55 0 0 1-1.55-1.54v-9.28a1.55 1.55 0 0 1 1.55-1.55z"/><path class="cls-4" d="M107.59 36.44H92.08a1.55 1.55 0 0 1-1.55-1.54v-9.28a1.55 1.55 0 0 1 1.55-1.55h15.51a1.55 1.55 0 0 1 1.55 1.54v9.29a1.55 1.55 0 0 1-1.55 1.55z"/><path class="cls-1" d="M102.94 33.35h-6.2a1.55 1.55 0 0 0-1.55 1.54v1.55h9.3v-1.55a1.55 1.55 0 0 0-1.55-1.55z"/><path class="cls-10" d="M127.76 73.41a1.55 1.55 0 0 1 1.1 2.59 12.37 12.37 0 0 1-3.54 2.52 1.55 1.55 0 0 1-1.32-2.76 9.29 9.29 0 0 0 2.66-1.89 1.55 1.55 0 0 1 1.11-.46z"/><path class="cls-11" d="M110.69 71.41a1.55 1.55 0 0 1 1.33.75 9.27 9.27 0 0 0 6.65 4.41 1.55 1.55 0 1 1-.44 3.06 12.36 12.36 0 0 1-8.87-5.87 1.54 1.54 0 0 1 1.33-2.35z"/><path class="cls-12" d="M120 48.81a18.56 18.56 0 1 0 18.61 18.56A18.59 18.59 0 0 0 120 48.81zm0 34a15.47 15.47 0 1 1 14.82-20 3.1 3.1 0 0 0-2.41 3v3.09a3.1 3.1 0 0 0 2.41 3A15.51 15.51 0 0 1 120 82.84z"/><path class="cls-13" d="M203.33 23.75L186.14 42.9l-10.86-9.61"/></g></svg>