<svg id="Calque_1" xmlns="http://www.w3.org/2000/svg" viewBox="0 0 442 75"><style>.st0{fill:#00aeff}.st0,.st1,.st2{fill-rule:evenodd;clip-rule:evenodd}.st1{fill:#ee8d8d}.st2{fill:#54dda3}.st3{enable-background:new}.st4{fill:#333}.st5{fill:none;stroke:#ffc300;stroke-width:3;stroke-linecap:round}.st6{fill-rule:evenodd;clip-rule:evenodd;fill:#ffc300}.st7{fill:none;stroke:#d2b7d5;stroke-width:3;stroke-linecap:round;stroke-dasharray:5}</style><g id="Page-1"><g id="Graph-légende" transform="translate(-292 -831)"><g id="Group-4" transform="translate(292 831)"><path id="Rectangle" class="st0" d="M3 3h10c1.7 0 3 1.3 3 3v10c0 1.7-1.3 3-3 3H3c-1.7 0-3-1.3-3-3V6c0-1.7 1.3-3 3-3z"/><path id="Rectangle-Copy" class="st1" d="M3 31h10c1.7 0 3 1.3 3 3v10c0 1.7-1.3 3-3 3H3c-1.7 0-3-1.3-3-3V34c0-1.7 1.3-3 3-3z"/><path id="Rectangle-Copy-2" class="st2" d="M3 59h10c1.7 0 3 1.3 3 3v10c0 1.7-1.3 3-3 3H3c-1.7 0-3-1.3-3-3V62c0-1.7 1.3-3 3-3z"/><g class="st3"><path class="st4" d="M32 9.4c.9 0 1.6.2 2 .6s.6 1 .6 1.9V17h-.8l-.2-1.1h-.1c-.2.3-.4.5-.7.7-.2.2-.5.3-.8.4-.3.1-.7.1-1.1.1-.5 0-.9-.1-1.2-.2s-.6-.4-.8-.7-.3-.7-.3-1.2c0-.7.3-1.3.9-1.7s1.5-.6 2.7-.7l1.3-.1V12c0-.6-.1-1.1-.4-1.4s-.7-.4-1.2-.4c-.4 0-.8.1-1.1.2s-.7.2-1 .4l-.3-.8c.3-.2.7-.3 1.2-.4s.8-.2 1.3-.2zm1.5 3.9h-1.1c-.9 0-1.6.2-2 .5s-.6.6-.6 1.1c0 .4.1.7.4 1s.6.3 1 .3c.7 0 1.2-.2 1.6-.6s.6-.9.6-1.7v-.6zm4.6-6.9v4.2h.1c.2-.3.5-.6.9-.9s.9-.3 1.5-.3c.9 0 1.7.3 2.2 1 .6.7.8 1.6.8 2.9 0 .8-.1 1.6-.4 2.1s-.6 1-1.1 1.3-1 .4-1.6.4c-.6 0-1.1-.1-1.5-.3-.4-.2-.7-.5-.9-.8H38l-.2 1H37V6.4h1.1zm2.2 3.9c-.5 0-1 .1-1.3.3-.3.2-.5.5-.7 1-.1.4-.2 1-.2 1.6v.1c0 .9.2 1.7.5 2.2.3.5.9.7 1.7.7.7 0 1.2-.3 1.6-.8s.5-1.2.5-2.2c0-1-.2-1.7-.5-2.2s-.9-.7-1.6-.7zM52 13.2c0 .6-.1 1.2-.2 1.6s-.4.9-.7 1.2-.7.6-1.1.8c-.4.2-.9.3-1.4.3-.5 0-1-.1-1.4-.3-.4-.2-.8-.4-1.1-.8s-.5-.7-.7-1.2-.2-1-.2-1.6c0-.8.1-1.5.4-2.1.3-.6.7-1 1.2-1.3.5-.3 1.1-.5 1.8-.5s1.3.2 1.8.5.9.7 1.2 1.3c.3.6.4 1.3.4 2.1zm-5.7 0c0 .6.1 1.1.2 1.6s.4.8.7 1 .8.4 1.3.4.9-.1 1.3-.4.6-.6.7-1 .2-1 .2-1.6c0-.6-.1-1.1-.2-1.5-.2-.4-.4-.8-.7-1s-.8-.4-1.3-.4c-.8 0-1.4.3-1.7.8s-.5 1.2-.5 2.1zm11.2-3.8c.9 0 1.6.2 2 .7.5.4.7 1.1.7 2.1V17h-1.1v-4.8c0-.6-.1-1.1-.4-1.4s-.7-.5-1.3-.5c-.8 0-1.4.2-1.8.7s-.5 1.2-.5 2v4H54V9.5h.9l.2 1.1h.1c.2-.3.4-.5.6-.7.2-.2.5-.3.8-.4.3-.1.6-.1.9-.1zm8.6 0c.9 0 1.6.2 2 .7.5.4.7 1.1.7 2.1V17h-1.1v-4.8c0-.6-.1-1.1-.4-1.4s-.7-.5-1.3-.5c-.8 0-1.4.2-1.8.7s-.5 1.2-.5 2v4h-1.1V9.5h.9l.2 1.1h.1c.2-.3.4-.5.6-.7.2-.2.5-.3.8-.4.2-.1.6-.1.9-.1zm7.9 0c.6 0 1.2.1 1.6.4s.8.7 1 1.2c.2.5.4 1.1.4 1.8v.7h-5.2c0 .9.2 1.5.7 2s1 .7 1.8.7c.5 0 .9 0 1.3-.1s.7-.2 1.1-.4v1c-.4.2-.8.3-1.1.4s-.8.1-1.3.1c-.7 0-1.3-.1-1.9-.4-.5-.3-1-.7-1.2-1.3s-.4-1.3-.4-2.1.1-1.5.4-2.1c.3-.6.7-1 1.1-1.4s1-.5 1.7-.5zm0 .9c-.6 0-1.1.2-1.4.6s-.6 1-.6 1.7h4c0-.4-.1-.8-.2-1.2-.1-.3-.3-.6-.6-.8-.4-.2-.8-.3-1.2-.3zm13.1-.9c.8 0 1.4.2 1.9.6.4.4.6 1.1.6 2.1V17h-1.1v-4.9c0-.6-.1-1.1-.4-1.4-.3-.3-.7-.5-1.2-.5-.7 0-1.3.2-1.6.6s-.5 1-.5 1.9V17h-1.1v-4.9c0-.4-.1-.7-.2-1s-.3-.5-.5-.6c-.2-.1-.5-.2-.9-.2-.5 0-.9.1-1.2.3s-.5.5-.7.9c-.1.4-.2.9-.2 1.5v4h-1V9.5h.9l.2 1.1h.1c.2-.3.3-.5.6-.7s.5-.3.8-.4.6-.1.9-.1c.6 0 1 .1 1.4.3.4.2.7.5.8 1h.1c.2-.4.6-.8 1-1 .4-.2.8-.3 1.3-.3zm7.7 0c.6 0 1.2.1 1.6.4s.8.7 1 1.2c.2.5.4 1.1.4 1.8v.7h-5.2c0 .9.2 1.5.7 2s1 .7 1.8.7c.5 0 .9 0 1.3-.1s.7-.2 1.1-.4v1c-.4.2-.8.3-1.1.4s-.8.1-1.3.1c-.7 0-1.3-.1-1.9-.4-.5-.3-1-.7-1.2-1.3s-.4-1.3-.4-2.1.1-1.5.4-2.1c.3-.6.7-1 1.1-1.4s1.1-.5 1.7-.5zm0 .9c-.6 0-1.1.2-1.4.6s-.6 1-.6 1.7h4c0-.4-.1-.8-.2-1.2-.1-.3-.3-.6-.6-.8-.4-.2-.7-.3-1.2-.3zm8.6-.9c.9 0 1.6.2 2 .7.5.4.7 1.1.7 2.1V17H105v-4.8c0-.6-.1-1.1-.4-1.4s-.7-.5-1.3-.5c-.8 0-1.4.2-1.8.7s-.5 1.2-.5 2v4h-1.1V9.5h.9l.2 1.1h.1c.2-.3.4-.5.6-.7.2-.2.5-.3.8-.4.2-.1.5-.1.9-.1zm7.4 6.8h.6c.2 0 .4-.1.5-.1v.9c-.1.1-.3.1-.6.2s-.5.1-.7.1c-.4 0-.8-.1-1.1-.2-.3-.1-.6-.4-.8-.7s-.3-.8-.3-1.4v-4.4h-1.1v-.8l1.1-.4.5-1.6h.7v1.7h2.2v.9h-2.2v4.4c0 .5.1.8.3 1.1s.6.3.9.3z"/></g><g class="st3"><path class="st4" d="M254.8 45l-2.8-7.5h1.2l1.6 4.5c.1.3.2.7.3 1s.2.7.2.9c.1-.2.1-.5.3-.9.1-.4.2-.7.3-1l1.6-4.5h1.2l-2.9 7.5h-1zm11.8-3.8c0 .6-.1 1.2-.2 1.6s-.4.9-.7 1.2-.7.6-1.1.8c-.4.2-.9.3-1.4.3-.5 0-1-.1-1.4-.3-.4-.2-.8-.4-1.1-.8-.3-.3-.5-.7-.7-1.2-.2-.5-.2-1-.2-1.6 0-.8.1-1.5.4-2.1.3-.6.7-1 1.2-1.3.5-.3 1.1-.5 1.8-.5s1.3.2 1.8.5.9.7 1.2 1.3c.3.6.4 1.3.4 2.1zm-5.7 0c0 .6.1 1.1.2 1.6s.4.8.7 1 .8.4 1.3.4.9-.1 1.3-.4c.3-.2.6-.6.7-1s.2-1 .2-1.6c0-.6-.1-1.1-.2-1.5-.2-.4-.4-.8-.7-1s-.8-.4-1.3-.4c-.8 0-1.4.3-1.7.8-.3.5-.5 1.2-.5 2.1zm10.1 3h.6c.2 0 .4-.1.5-.1v.9c-.1.1-.3.1-.6.2-.2 0-.5.1-.7.1-.4 0-.8-.1-1.1-.2-.3-.1-.6-.4-.8-.7-.2-.3-.3-.8-.3-1.4v-4.4h-1.1V38l1.1-.4.5-1.6h.7v1.7h2.2v.9h-2.2V43c0 .5.1.8.3 1.1.3 0 .6.1.9.1zm6-6.8h.5c.2 0 .3 0 .4.1l-.1 1.1c-.1 0-.3-.1-.4-.1h-.4c-.3 0-.6.1-.9.2-.3.1-.5.3-.7.5-.2.2-.4.5-.5.8-.1.3-.2.7-.2 1.1v4h-1.1v-7.5h.9l.1 1.4c.2-.3.3-.5.6-.8.2-.2.5-.4.8-.6.3-.2.7-.2 1-.2zm5.2 0c.6 0 1.2.1 1.6.4s.8.7 1 1.2c.2.5.4 1.1.4 1.8v.7H280c0 .9.2 1.5.7 2s1 .7 1.8.7c.5 0 .9 0 1.3-.1s.7-.2 1.1-.4v1c-.4.2-.8.3-1.1.4-.4.1-.8.1-1.3.1-.7 0-1.3-.1-1.9-.4-.5-.3-1-.7-1.2-1.3s-.4-1.3-.4-2.1.1-1.5.4-2.1c.3-.6.7-1 1.1-1.4.5-.4 1-.5 1.7-.5zm0 .9c-.6 0-1.1.2-1.4.6s-.6 1-.6 1.7h4c0-.4-.1-.8-.2-1.2-.1-.3-.3-.6-.6-.8-.4-.2-.8-.3-1.2-.3zm13.5 4.6c0 .5-.1.9-.4 1.2-.2.3-.6.6-1 .7-.4.2-1 .2-1.6.2-.5 0-1 0-1.4-.1s-.7-.2-1-.3v-1c.3.2.7.3 1.1.4s.9.2 1.3.2c.6 0 1.1-.1 1.4-.3s.4-.5.4-.9c0-.2-.1-.4-.2-.5-.1-.2-.3-.3-.6-.5-.3-.1-.7-.3-1.1-.5-.5-.2-.9-.4-1.2-.5-.3-.2-.6-.4-.8-.7-.2-.3-.3-.6-.3-1 0-.6.3-1.1.8-1.5.5-.3 1.2-.5 2-.5.5 0 .9 0 1.3.1s.8.2 1.1.4l-.4.9c-.3-.1-.6-.2-1-.3s-.7-.1-1.1-.1c-.5 0-.9.1-1.2.3-.3.2-.4.4-.4.7 0 .2.1.4.2.6.1.2.3.3.6.4s.7.3 1.1.5c.5.2.9.4 1.2.5.3.2.6.4.8.7.3.2.4.5.4.9zm4.7-5.5c.6 0 1.2.1 1.6.4s.8.7 1 1.2c.2.5.4 1.1.4 1.8v.7h-5.2c0 .9.2 1.5.7 2s1 .7 1.8.7c.5 0 .9 0 1.3-.1s.7-.2 1.1-.4v1c-.4.2-.8.3-1.1.4-.4.1-.8.1-1.3.1-.7 0-1.3-.1-1.9-.4-.5-.3-1-.7-1.2-1.3s-.4-1.3-.4-2.1.1-1.5.4-2.1c.3-.6.7-1 1.1-1.4.4-.4 1-.5 1.7-.5zm0 .9c-.6 0-1.1.2-1.4.6s-.6 1-.6 1.7h4c0-.4-.1-.8-.2-1.2-.1-.3-.3-.6-.6-.8-.5-.2-.8-.3-1.2-.3zm11.1-.8V45h-.9l-.2-1.1h-.1c-.2.3-.4.5-.6.7s-.5.3-.8.4c-.3.1-.6.1-1 .1-.6 0-1.1-.1-1.5-.3s-.7-.5-.9-.9c-.2-.4-.3-.9-.3-1.5v-4.9h1.1v4.8c0 .6.1 1.1.4 1.4.3.3.7.5 1.3.5.6 0 1-.1 1.3-.3.3-.2.6-.5.7-.9.1-.4.2-.9.2-1.5v-3.9h1.3zm3-2.8c.2 0 .3.1.5.2.1.1.2.3.2.6s-.1.4-.2.6c-.1.1-.3.2-.5.2s-.4-.1-.5-.2c-.1-.1-.2-.3-.2-.6s.1-.4.2-.6c.2-.1.3-.2.5-.2zm.6 2.8V45H314v-7.5h1.1zm3.5 7.5h-1.1V34.4h1.1V45zm8.7.1c-.9 0-1.7-.3-2.3-1-.6-.6-.8-1.6-.8-2.9 0-1.3.3-2.3.8-2.9.6-.7 1.3-1 2.3-1 .4 0 .7.1 1 .2s.6.2.8.4c.2.2.4.4.5.6h.1c0-.1 0-.3-.1-.6s0-.4 0-.6v-3h1.1V45h-.9l-.2-1.1c-.1.2-.3.4-.5.6-.2.2-.5.3-.8.4-.2.2-.6.2-1 .2zm.2-.9c.8 0 1.4-.2 1.7-.7s.5-1.1.5-2v-.2c0-1-.2-1.7-.5-2.2-.3-.5-.9-.8-1.7-.8-.7 0-1.2.3-1.6.8-.3.5-.5 1.3-.5 2.2 0 .9.2 1.6.5 2.1.4.5.9.8 1.6.8zm8.6-6.8c.6 0 1.2.1 1.6.4s.8.7 1 1.2c.2.5.4 1.1.4 1.8v.7H334c0 .9.2 1.5.7 2s1 .7 1.8.7c.5 0 .9 0 1.3-.1s.7-.2 1.1-.4v1c-.4.2-.8.3-1.1.4-.4.1-.8.1-1.3.1-.7 0-1.3-.1-1.9-.4-.5-.3-1-.7-1.2-1.3s-.4-1.3-.4-2.1.1-1.5.4-2.1c.3-.6.7-1 1.1-1.4.3-.4.9-.5 1.6-.5zm0 .9c-.6 0-1.1.2-1.4.6s-.6 1-.6 1.7h4c0-.4-.1-.8-.2-1.2-.1-.3-.3-.6-.6-.8-.4-.2-.8-.3-1.2-.3zm11.6 6.8c-.7 0-1.3-.1-1.8-.4s-.9-.7-1.2-1.3-.4-1.3-.4-2.2c0-.9.2-1.6.5-2.2.3-.6.7-1 1.3-1.3s1.1-.4 1.8-.4c.4 0 .7 0 1.1.1l.9.3-.3 1c-.2-.1-.5-.2-.8-.2-.3-.1-.6-.1-.8-.1-.5 0-1 .1-1.3.3-.3.2-.6.6-.8 1-.2.4-.3 1-.3 1.6 0 .6.1 1.1.2 1.6.2.4.4.8.7 1 .3.2.7.3 1.2.3.4 0 .8 0 1.1-.1l.9-.3v1c-.2.1-.5.2-.8.3h-1.2zm10.2-3.9c0 .6-.1 1.2-.2 1.6s-.4.9-.7 1.2-.7.6-1.1.8c-.4.2-.9.3-1.4.3-.5 0-1-.1-1.4-.3-.4-.2-.8-.4-1.1-.8-.3-.3-.5-.7-.7-1.2-.2-.5-.2-1-.2-1.6 0-.8.1-1.5.4-2.1.3-.6.7-1 1.2-1.3.5-.3 1.1-.5 1.8-.5s1.3.2 1.8.5.9.7 1.2 1.3c.2.6.4 1.3.4 2.1zm-5.7 0c0 .6.1 1.1.2 1.6s.4.8.7 1 .8.4 1.3.4.9-.1 1.3-.4c.3-.2.6-.6.7-1s.2-1 .2-1.6c0-.6-.1-1.1-.2-1.5-.2-.4-.4-.8-.7-1s-.8-.4-1.3-.4c-.8 0-1.3.3-1.7.8-.3.5-.5 1.2-.5 2.1zm11.2-3.8c.9 0 1.6.2 2 .7.5.4.7 1.1.7 2.1V45H365v-4.8c0-.6-.1-1.1-.4-1.4-.3-.3-.7-.5-1.3-.5-.8 0-1.4.2-1.8.7s-.5 1.2-.5 2v4h-1.1v-7.5h.9l.2 1.1h.1c.2-.3.4-.5.6-.7.2-.2.5-.3.8-.4.2-.1.5-.1.9-.1zm9.9 5.5c0 .5-.1.9-.4 1.2-.2.3-.6.6-1 .7-.4.2-1 .2-1.6.2-.5 0-1 0-1.4-.1s-.7-.2-1-.3v-1c.3.2.7.3 1.1.4s.9.2 1.3.2c.6 0 1.1-.1 1.4-.3s.4-.5.4-.9c0-.2-.1-.4-.2-.5-.1-.2-.3-.3-.6-.5-.3-.1-.7-.3-1.1-.5-.5-.2-.9-.4-1.2-.5-.3-.2-.6-.4-.8-.7-.2-.3-.3-.6-.3-1 0-.6.3-1.1.8-1.5.5-.3 1.2-.5 2-.5.5 0 .9 0 1.3.1s.8.2 1.1.4l-.4.9c-.3-.1-.6-.2-1-.3s-.7-.1-1.1-.1c-.5 0-.9.1-1.2.3-.3.2-.4.4-.4.7 0 .2.1.4.2.6.1.2.3.3.6.4s.7.3 1.1.5c.5.2.9.4 1.2.5.3.2.6.4.8.7.3.2.4.5.4.9zm8.3-1.7c0 .6-.1 1.2-.2 1.6s-.4.9-.7 1.2-.7.6-1.1.8c-.4.2-.9.3-1.4.3-.5 0-1-.1-1.4-.3-.4-.2-.8-.4-1.1-.8-.3-.3-.5-.7-.7-1.2-.2-.5-.2-1-.2-1.6 0-.8.1-1.5.4-2.1.3-.6.7-1 1.2-1.3.5-.3 1.1-.5 1.8-.5s1.3.2 1.8.5.9.7 1.2 1.3c.2.6.4 1.3.4 2.1zm-5.7 0c0 .6.1 1.1.2 1.6s.4.8.7 1 .8.4 1.3.4.9-.1 1.3-.4c.3-.2.6-.6.7-1s.2-1 .2-1.6c0-.6-.1-1.1-.2-1.5-.2-.4-.4-.8-.7-1s-.8-.4-1.3-.4c-.8 0-1.3.3-1.7.8-.4.5-.5 1.2-.5 2.1zm15.8-3.8c.8 0 1.4.2 1.9.6.4.4.6 1.1.6 2.1V45H393v-4.9c0-.6-.1-1.1-.4-1.4-.3-.3-.7-.5-1.2-.5-.7 0-1.3.2-1.6.6s-.5 1-.5 1.9V45h-1.1v-4.9c0-.4-.1-.7-.2-1-.1-.3-.3-.5-.5-.6-.2-.1-.5-.2-.9-.2-.5 0-.9.1-1.2.3s-.5.5-.7.9c-.1.4-.2.9-.2 1.5v4h-1.1v-7.5h.9l.2 1.1h.1c.2-.3.3-.5.6-.7s.5-.3.8-.4.6-.1.9-.1c.6 0 1 .1 1.4.3.4.2.7.5.8 1h.1c.2-.4.6-.8 1-1 .5-.2.9-.3 1.5-.3zm12.9 0c.8 0 1.4.2 1.9.6.4.4.6 1.1.6 2.1V45H406v-4.9c0-.6-.1-1.1-.4-1.4-.3-.3-.7-.5-1.2-.5-.7 0-1.3.2-1.6.6s-.5 1-.5 1.9V45h-1.1v-4.9c0-.4-.1-.7-.2-1-.1-.3-.3-.5-.5-.6-.2-.1-.5-.2-.9-.2-.5 0-.9.1-1.2.3s-.5.5-.7.9c-.1.4-.2.9-.2 1.5v4h-1.1v-7.5h.9l.2 1.1h.1c.2-.3.3-.5.6-.7s.5-.3.8-.4.6-.1.9-.1c.6 0 1 .1 1.4.3.4.2.7.5.8 1h.1c.2-.4.6-.8 1-1 .4-.2.9-.3 1.4-.3zm7.6 0c.9 0 1.6.2 2 .6s.6 1 .6 1.9V45h-.8l-.2-1.1h-.1c-.2.3-.4.5-.7.7-.2.2-.5.3-.8.4-.3.1-.7.1-1.1.1-.5 0-.9-.1-1.2-.2-.4-.2-.6-.4-.8-.7-.2-.3-.3-.7-.3-1.2 0-.7.3-1.3.9-1.7s1.5-.6 2.7-.7l1.3-.1V40c0-.6-.1-1.1-.4-1.4s-.7-.4-1.2-.4c-.4 0-.8.1-1.1.2s-.7.2-1 .4l-.3-.9c.3-.2.7-.3 1.2-.4s.9-.1 1.3-.1zm1.6 3.9h-1.1c-.9 0-1.6.2-2 .5s-.6.6-.6 1.1c0 .4.1.7.4 1s.6.3 1 .3c.7 0 1.2-.2 1.6-.6s.6-.9.6-1.7v-.6zm5.8 2.9h.6c.2 0 .4-.1.5-.1v.9c-.1.1-.3.1-.5.2-.2 0-.5.1-.7.1-.4 0-.8-.1-1.1-.2-.3-.1-.6-.4-.8-.7-.2-.3-.3-.8-.3-1.4v-4.4h-1.1V38l1.1-.4.5-1.6h.7v1.7h2.2v.9h-2.2V43c0 .5.1.8.3 1.1.2 0 .5.1.8.1zm3.2-9.5c.2 0 .3.1.5.2.1.1.2.3.2.6s-.1.4-.2.6c-.1.1-.3.2-.5.2s-.4-.1-.5-.2c-.1-.1-.2-.3-.2-.6s.1-.4.2-.6c.1-.1.3-.2.5-.2zm.5 2.8V45h-1.1v-7.5h1.1zm8.9 3.7c0 .6-.1 1.2-.2 1.6s-.4.9-.7 1.2-.7.6-1.1.8c-.4.2-.9.3-1.4.3-.5 0-1-.1-1.4-.3-.4-.2-.8-.4-1.1-.8-.3-.3-.5-.7-.7-1.2-.2-.5-.2-1-.2-1.6 0-.8.1-1.5.4-2.1.3-.6.7-1 1.2-1.3.5-.3 1.1-.5 1.8-.5s1.3.2 1.8.5.9.7 1.2 1.3c.3.6.4 1.3.4 2.1zm-5.7 0c0 .6.1 1.1.2 1.6s.4.8.7 1 .8.4 1.3.4.9-.1 1.3-.4c.3-.2.6-.6.7-1s.2-1 .2-1.6c0-.6-.1-1.1-.2-1.5-.2-.4-.4-.8-.7-1s-.8-.4-1.3-.4c-.8 0-1.4.3-1.7.8-.3.5-.5 1.2-.5 2.1zm11.2-3.8c.9 0 1.6.2 2 .7.5.4.7 1.1.7 2.1V45h-1.1v-4.8c0-.6-.1-1.1-.4-1.4-.3-.3-.7-.5-1.3-.5-.8 0-1.4.2-1.8.7s-.5 1.2-.5 2v4h-1.1v-7.5h.9l.2 1.1h.1c.2-.3.4-.5.6-.7.2-.2.5-.3.8-.4.3-.1.6-.1.9-.1z"/></g><g class="st3"><path class="st4" d="M261.3 7.4c.8 0 1.4.2 1.9.6.4.4.6 1.1.6 2.1V15h-1.1v-4.9c0-.6-.1-1.1-.4-1.4-.3-.3-.7-.5-1.2-.5-.7 0-1.3.2-1.6.6s-.5 1-.5 1.9V15h-1.1v-4.9c0-.4-.1-.7-.2-1-.1-.3-.3-.5-.5-.6-.2-.1-.5-.2-.9-.2-.5 0-.9.1-1.2.3s-.5.5-.7.9c-.1.4-.2.9-.2 1.5v4h-1.1V7.5h.9l.2 1.1h.1c.2-.3.3-.5.6-.7s.5-.3.8-.4.6-.1.9-.1c.6 0 1 .1 1.4.3.4.2.7.5.8 1h.1c.2-.4.6-.8 1-1 .5-.2.9-.3 1.4-.3zm7.7 0c.6 0 1.2.1 1.6.4s.8.7 1 1.2c.2.5.4 1.1.4 1.8v.7h-5.2c0 .9.2 1.5.7 2s1 .7 1.8.7c.5 0 .9 0 1.3-.1s.7-.2 1.1-.4v1c-.4.2-.8.3-1.1.4-.4.1-.8.1-1.3.1-.7 0-1.3-.1-1.9-.4-.5-.3-1-.7-1.2-1.3s-.4-1.3-.4-2.1.1-1.5.4-2.1c.3-.6.7-1 1.1-1.4.5-.4 1.1-.5 1.7-.5zm0 .9c-.6 0-1.1.2-1.4.6s-.6 1-.6 1.7h4c0-.4-.1-.8-.2-1.2-.1-.3-.3-.6-.6-.8-.4-.2-.7-.3-1.2-.3zm1.9-4v.1c-.1.1-.2.3-.4.5s-.3.4-.5.6l-.6.6c-.2.2-.4.3-.5.5h-.8v-.2c.1-.2.3-.4.5-.6.2-.2.3-.5.5-.8.2-.3.3-.5.4-.7h1.4zm5.5 9.9h.6c.2 0 .4-.1.5-.1v.9c-.1.1-.3.1-.5.2-.2 0-.5.1-.7.1-.4 0-.8-.1-1.1-.2-.3-.1-.6-.4-.8-.7-.2-.3-.3-.8-.3-1.4V8.4H273v-.6l1.1-.4.5-1.6h.7v1.7h2.2v.9h-2.2v4.4c0 .5.1.8.3 1.1.2.2.5.3.8.3zm5.5-6.8c.6 0 1.2.1 1.6.4s.8.7 1 1.2c.2.5.4 1.1.4 1.8v.7h-5.2c0 .9.2 1.5.7 2s1 .7 1.8.7c.5 0 .9 0 1.3-.1s.7-.2 1.1-.4v1c-.4.2-.8.3-1.1.4-.4.1-.8.1-1.3.1-.7 0-1.3-.1-1.9-.4-.5-.3-1-.7-1.2-1.3s-.4-1.3-.4-2.1.1-1.5.4-2.1c.3-.6.7-1 1.1-1.4.4-.4 1-.5 1.7-.5zm0 .9c-.6 0-1.1.2-1.4.6s-.6 1-.6 1.7h4c0-.4-.1-.8-.2-1.2-.1-.3-.3-.6-.6-.8-.4-.2-.8-.3-1.2-.3zm1.9-4v.1c-.1.1-.2.3-.4.5s-.3.4-.5.6l-.6.6c-.2.2-.4.3-.5.5h-.8v-.2c.1-.2.3-.4.5-.6.2-.2.3-.5.5-.8.2-.3.3-.5.4-.7h1.4zm9.5 6.9c0 .6-.1 1.2-.2 1.6s-.4.9-.7 1.2-.7.6-1.1.8c-.4.2-.9.3-1.4.3-.5 0-1-.1-1.4-.3-.4-.2-.8-.4-1.1-.8-.3-.3-.5-.7-.7-1.2-.2-.5-.2-1-.2-1.6 0-.8.1-1.5.4-2.1.3-.6.7-1 1.2-1.3.5-.3 1.1-.5 1.8-.5s1.3.2 1.8.5.9.7 1.2 1.3c.3.6.4 1.3.4 2.1zm-5.7 0c0 .6.1 1.1.2 1.6s.4.8.7 1 .8.4 1.3.4.9-.1 1.3-.4c.3-.2.6-.6.7-1s.2-1 .2-1.6c0-.6-.1-1.1-.2-1.5-.2-.4-.4-.8-.7-1s-.8-.4-1.3-.4c-.8 0-1.3.3-1.7.8-.3.5-.5 1.2-.5 2.1zm12.5 3.8H299V4.4h1.1V15zm8.8-3.8c0 .6-.1 1.2-.2 1.6s-.4.9-.7 1.2-.7.6-1.1.8c-.4.2-.9.3-1.4.3-.5 0-1-.1-1.4-.3-.4-.2-.8-.4-1.1-.8-.3-.3-.5-.7-.7-1.2-.2-.5-.2-1-.2-1.6 0-.8.1-1.5.4-2.1.3-.6.7-1 1.2-1.3.5-.3 1.1-.5 1.8-.5s1.3.2 1.8.5.9.7 1.2 1.3c.3.6.4 1.3.4 2.1zm-5.7 0c0 .6.1 1.1.2 1.6s.4.8.7 1 .8.4 1.3.4.9-.1 1.3-.4c.3-.2.6-.6.7-1s.2-1 .2-1.6c0-.6-.1-1.1-.2-1.5-.2-.4-.4-.8-.7-1s-.8-.4-1.3-.4c-.8 0-1.4.3-1.7.8-.3.5-.5 1.2-.5 2.1zm10.7 3.9c-.7 0-1.3-.1-1.8-.4s-.9-.7-1.2-1.3-.4-1.3-.4-2.2c0-.9.2-1.6.5-2.2.3-.6.7-1 1.3-1.3s1.1-.4 1.8-.4c.4 0 .7 0 1.1.1l.9.3-.3 1c-.2-.1-.5-.2-.8-.2-.3-.1-.6-.1-.8-.1-.5 0-1 .1-1.3.3-.3.2-.6.6-.8 1-.2.4-.3 1-.3 1.6 0 .6.1 1.1.2 1.6.2.4.4.8.7 1 .3.2.7.3 1.2.3.4 0 .8 0 1.1-.1l.9-.3v1c-.2.1-.5.2-.8.3h-1.2zm6.5-7.7c.9 0 1.6.2 2 .6s.6 1 .6 1.9V15h-.8l-.2-1.1h-.1c-.2.3-.4.5-.7.7-.2.2-.5.3-.8.4-.3.1-.7.1-1.1.1-.5 0-.9-.1-1.2-.2-.4-.2-.6-.4-.8-.7-.2-.3-.3-.7-.3-1.2 0-.7.3-1.3.9-1.7s1.5-.6 2.7-.7l1.3-.1V10c0-.6-.1-1.1-.4-1.4s-.7-.4-1.2-.4c-.4 0-.8.1-1.1.2s-.7.2-1 .4l-.3-.8c.3-.2.7-.3 1.2-.4s.8-.2 1.3-.2zm1.5 3.9h-1.1c-.9 0-1.6.2-2 .5s-.6.6-.6 1.1c0 .4.1.7.4 1s.6.3 1 .3c.7 0 1.2-.2 1.6-.6s.6-.9.6-1.7v-.6zm4.6 3.7h-1.1V4.4h1.1V15zm5.3-7.6c.6 0 1.2.1 1.6.4s.8.7 1 1.2c.2.5.4 1.1.4 1.8v.7h-5.2c0 .9.2 1.5.7 2s1 .7 1.8.7c.5 0 .9 0 1.3-.1s.7-.2 1.1-.4v1c-.4.2-.8.3-1.1.4-.4.1-.8.1-1.3.1-.7 0-1.3-.1-1.9-.4-.5-.3-1-.7-1.2-1.3s-.4-1.3-.4-2.1.1-1.5.4-2.1c.3-.6.7-1 1.1-1.4.4-.4 1-.5 1.7-.5zm0 .9c-.6 0-1.1.2-1.4.6s-.6 1-.6 1.7h4c0-.4-.1-.8-.2-1.2-.1-.3-.3-.6-.6-.8-.4-.2-.8-.3-1.2-.3z"/></g><g id="Group-3" transform="translate(203 7)"><path id="Line-3" class="st5" d="M0 4.5h33.5"/><circle id="Oval" class="st6" cx="17.5" cy="4.5" r="4.5"/></g><g class="st3"><path class="st4" d="M31.6 44.2h.6c.2 0 .4-.1.5-.1v.9c-.1.1-.3.1-.6.2s-.5.1-.7.1c-.4 0-.8-.1-1.1-.2-.3-.1-.6-.4-.8-.7s-.3-.8-.3-1.4v-4.4h-1.1V38l1.1-.4.5-1.6h.7v1.7h2.2v.9h-2.2V43c0 .5.1.8.3 1.1s.6.1.9.1zm5.4-6.8c.9 0 1.6.2 2 .6s.6 1 .6 1.9V45h-.8l-.2-1.1h-.1c-.2.3-.4.5-.7.7-.2.2-.5.3-.8.4-.3.1-.7.1-1.1.1-.5 0-.9-.1-1.2-.2s-.6-.4-.8-.7-.3-.7-.3-1.2c0-.7.3-1.3.9-1.7s1.5-.6 2.7-.7l1.3-.1V40c0-.6-.1-1.1-.4-1.4s-.7-.4-1.2-.4c-.4 0-.8.1-1.1.2s-.7.2-1 .4l-.4-.8c.3-.2.7-.3 1.2-.4s.9-.2 1.4-.2zm1.5 3.9h-1.1c-.9 0-1.6.2-2 .5s-.6.6-.6 1.1c0 .4.1.7.4 1s.6.3 1 .3c.7 0 1.2-.2 1.6-.6s.6-.9.6-1.7v-.6zm5.3-.1l-2.6-3.7h1.3l2 2.9 2-2.9h1.3l-2.6 3.7 2.7 3.8h-1.3l-2.1-3.1-2.2 3.1H41l2.8-3.8zm8.4-3.8c.6 0 1.2.1 1.6.4s.8.7 1 1.2c.2.5.4 1.1.4 1.8v.7H50c0 .9.2 1.5.7 2s1 .7 1.8.7c.5 0 .9 0 1.3-.1s.7-.2 1.1-.4v1c-.4.2-.8.3-1.1.4s-.8.1-1.3.1c-.7 0-1.3-.1-1.9-.4-.5-.3-1-.7-1.2-1.3s-.4-1.3-.4-2.1.1-1.5.4-2.1c.3-.6.7-1 1.1-1.4s1-.5 1.7-.5zm0 .9c-.6 0-1.1.2-1.4.6s-.6 1-.6 1.7h4c0-.4-.1-.8-.2-1.2-.1-.3-.3-.6-.6-.8-.5-.2-.8-.3-1.2-.3zm9.8 4.6c0 .5-.1.9-.4 1.2-.2.3-.6.6-1 .7s-1 .2-1.6.2c-.5 0-1 0-1.4-.1s-.7-.2-1-.3v-1c.3.2.7.3 1.1.4s.9.2 1.3.2c.6 0 1.1-.1 1.4-.3s.4-.5.4-.9c0-.2-.1-.4-.2-.5-.1-.2-.3-.3-.6-.5-.3-.1-.7-.3-1.1-.5-.5-.2-.9-.4-1.2-.5-.3-.2-.6-.4-.8-.7s-.3-.6-.3-1c0-.6.3-1.1.8-1.5.5-.3 1.2-.5 2-.5.5 0 .9 0 1.3.1s.8.2 1.1.4l-.4.9c-.3-.1-.6-.2-1-.3s-.7-.1-1.1-.1c-.5 0-.9.1-1.2.3s-.4.4-.4.7c0 .2.1.4.2.6s.3.3.6.4.7.3 1.1.5c.5.2.9.4 1.2.5.3.2.6.4.8.7.3.2.4.5.4.9z"/></g><g class="st3"><path class="st4" d="M32.2 71.1c-.7 0-1.3-.1-1.8-.4s-.9-.7-1.2-1.3-.4-1.3-.4-2.2c0-.9.2-1.6.5-2.2.3-.6.7-1 1.3-1.3s1.1-.4 1.8-.4c.4 0 .7 0 1.1.1l.9.3-.3 1c-.2-.1-.5-.2-.8-.2s-.6-.1-.8-.1c-.5 0-1 .1-1.3.3s-.6.6-.8 1-.3 1-.3 1.6c0 .6.1 1.1.2 1.6s.4.8.7 1c.3.2.7.3 1.2.3.4 0 .8 0 1.1-.1l.9-.3v1c-.3.1-.5.2-.8.3s-.8 0-1.2 0zm10.2-3.9c0 .6-.1 1.2-.2 1.6s-.4.9-.7 1.2-.7.6-1.1.8c-.4.2-.9.3-1.4.3-.5 0-1-.1-1.4-.3-.4-.2-.8-.4-1.1-.8s-.5-.7-.7-1.2-.2-1-.2-1.6c0-.8.1-1.5.4-2.1.3-.6.7-1 1.2-1.3.5-.3 1.1-.5 1.8-.5s1.3.2 1.8.5.9.7 1.2 1.3c.2.6.4 1.3.4 2.1zm-5.7 0c0 .6.1 1.1.2 1.6s.4.8.7 1 .8.4 1.3.4.9-.1 1.3-.4.6-.6.7-1 .2-1 .2-1.6c0-.6-.1-1.1-.2-1.5-.2-.4-.4-.8-.7-1s-.8-.4-1.3-.4c-.8 0-1.4.3-1.7.8s-.5 1.2-.5 2.1zm11.2-3.8c.9 0 1.6.2 2 .7.5.4.7 1.1.7 2.1V71h-1.1v-4.8c0-.6-.1-1.1-.4-1.4s-.7-.5-1.3-.5c-.8 0-1.4.2-1.8.7s-.5 1.2-.5 2v4h-1.1v-7.5h.9l.2 1.1h.1c.2-.3.4-.5.6-.7.2-.2.5-.3.8-.4.2-.1.5-.1.9-.1zm9.9 5.5c0 .5-.1.9-.4 1.2-.2.3-.6.6-1 .7s-1 .2-1.6.2c-.5 0-1 0-1.4-.1s-.7-.2-1-.3v-1c.3.2.7.3 1.1.4s.9.2 1.3.2c.6 0 1.1-.1 1.4-.3s.4-.5.4-.9c0-.2-.1-.4-.2-.5-.1-.2-.3-.3-.6-.5-.3-.1-.7-.3-1.1-.5-.5-.2-.9-.4-1.2-.5-.3-.2-.6-.4-.8-.7s-.3-.6-.3-1c0-.6.3-1.1.8-1.5.5-.3 1.2-.5 2-.5.5 0 .9 0 1.3.1s.8.2 1.1.4l-.4.9c-.3-.1-.6-.2-1-.3s-.7-.1-1.1-.1c-.5 0-.9.1-1.2.3s-.4.4-.4.7c0 .2.1.4.2.6s.3.3.6.4.7.3 1.1.5c.5.2.9.4 1.2.5.3.2.6.4.8.7.3.2.4.5.4.9zm8.2-1.7c0 .6-.1 1.2-.2 1.6s-.4.9-.7 1.2-.7.6-1.1.8c-.4.2-.9.3-1.4.3-.5 0-1-.1-1.4-.3-.4-.2-.8-.4-1.1-.8s-.5-.7-.7-1.2-.2-1-.2-1.6c0-.8.1-1.5.4-2.1.3-.6.7-1 1.2-1.3.5-.3 1.1-.5 1.8-.5s1.3.2 1.8.5.9.7 1.2 1.3c.3.6.4 1.3.4 2.1zm-5.7 0c0 .6.1 1.1.2 1.6s.4.8.7 1 .8.4 1.3.4.9-.1 1.3-.4.6-.6.7-1 .2-1 .2-1.6c0-.6-.1-1.1-.2-1.5-.2-.4-.4-.8-.7-1s-.8-.4-1.3-.4c-.8 0-1.4.3-1.7.8s-.5 1.2-.5 2.1zm15.8-3.8c.8 0 1.4.2 1.9.6.4.4.6 1.1.6 2.1V71h-1.1v-4.9c0-.6-.1-1.1-.4-1.4-.3-.3-.7-.5-1.2-.5-.7 0-1.3.2-1.6.6s-.5 1-.5 1.9V71h-1.1v-4.9c0-.4-.1-.7-.2-1s-.3-.5-.5-.6c-.2-.1-.5-.2-.9-.2-.5 0-.9.1-1.2.3s-.5.5-.7.9c-.1.4-.2.9-.2 1.5v4h-1v-7.5h.9l.2 1.1h.1c.2-.3.3-.5.6-.7s.5-.3.8-.4.6-.1.9-.1c.6 0 1 .1 1.4.3.4.2.7.5.8 1h.1c.2-.4.6-.8 1-1 .4-.2.8-.3 1.3-.3zm13 0c.8 0 1.4.2 1.9.6.4.4.6 1.1.6 2.1V71h-1.1v-4.9c0-.6-.1-1.1-.4-1.4-.3-.3-.7-.5-1.2-.5-.7 0-1.3.2-1.6.6s-.5 1-.5 1.9V71h-1.1v-4.9c0-.4-.1-.7-.2-1s-.3-.5-.5-.6c-.2-.1-.5-.2-.9-.2-.5 0-.9.1-1.2.3s-.5.5-.7.9c-.1.4-.2.9-.2 1.5v4h-1v-7.5h.9l.2 1.1h.1c.2-.3.3-.5.6-.7s.5-.3.8-.4.6-.1.9-.1c.6 0 1 .1 1.4.3.4.2.7.5.8 1h.1c.2-.4.6-.8 1-1 .3-.2.8-.3 1.3-.3zm7.6 0c.9 0 1.6.2 2 .6s.6 1 .6 1.9V71h-.8l-.2-1.1h-.1c-.2.3-.4.5-.7.7-.2.2-.5.3-.8.4-.3.1-.7.1-1.1.1-.5 0-.9-.1-1.2-.2s-.6-.4-.8-.7-.3-.7-.3-1.2c0-.7.3-1.3.9-1.7s1.5-.6 2.7-.7l1.3-.1V66c0-.6-.1-1.1-.4-1.4s-.7-.4-1.2-.4c-.4 0-.8.1-1.1.2s-.7.2-1 .4l-.3-.8c.3-.2.7-.3 1.2-.4s.8-.2 1.3-.2zm1.5 3.9h-1.1c-.9 0-1.6.2-2 .5s-.6.6-.6 1.1c0 .4.1.7.4 1s.6.3 1 .3c.7 0 1.2-.2 1.6-.6s.6-.9.6-1.7v-.6zm5.9 2.9h.6c.2 0 .4-.1.5-.1v.9c-.1.1-.3.1-.6.2s-.5.1-.7.1c-.4 0-.8-.1-1.1-.2-.3-.1-.6-.4-.8-.7s-.3-.8-.3-1.4v-4.4h-1.1V64l1.1-.4.5-1.6h.7v1.7h2.2v.9h-2.2V69c0 .5.1.8.3 1.1s.6.1.9.1zm3.2-9.5c.2 0 .3.1.5.2.1.1.2.3.2.6s-.1.4-.2.6-.3.2-.5.2-.4-.1-.5-.2-.2-.3-.2-.6.1-.4.2-.6c.1-.1.3-.2.5-.2zm.5 2.8V71h-1.1v-7.5h1.1zm8.9 3.7c0 .6-.1 1.2-.2 1.6s-.4.9-.7 1.2-.7.6-1.1.8c-.4.2-.9.3-1.4.3-.5 0-1-.1-1.4-.3-.4-.2-.8-.4-1.1-.8s-.5-.7-.7-1.2-.2-1-.2-1.6c0-.8.1-1.5.4-2.1.3-.6.7-1 1.2-1.3.5-.3 1.1-.5 1.8-.5s1.3.2 1.8.5.9.7 1.2 1.3c.2.6.4 1.3.4 2.1zm-5.7 0c0 .6.1 1.1.2 1.6s.4.8.7 1 .8.4 1.3.4.9-.1 1.3-.4.6-.6.7-1 .2-1 .2-1.6c0-.6-.1-1.1-.2-1.5-.2-.4-.4-.8-.7-1s-.8-.4-1.3-.4c-.8 0-1.4.3-1.7.8s-.5 1.2-.5 2.1zm11.2-3.8c.9 0 1.6.2 2 .7.5.4.7 1.1.7 2.1V71h-1.1v-4.8c0-.6-.1-1.1-.4-1.4s-.7-.5-1.3-.5c-.8 0-1.4.2-1.8.7s-.5 1.2-.5 2v4h-1.1v-7.5h.9l.2 1.1h.1c.2-.3.4-.5.6-.7.2-.2.5-.3.8-.4.2-.1.6-.1.9-.1z"/></g><path id="Line-3-Copy" class="st7" d="M202.5 41.5h35"/></g></g></g></svg>