<svg id="Calque_1" xmlns="http://www.w3.org/2000/svg" viewBox="0 0 105 105"><style>.st0{fill:url(#SVGID_1_)}.st1{fill:#fff}</style><linearGradient id="SVGID_1_" gradientUnits="userSpaceOnUse" x1="616.413" y1="803.199" x2="690.405" y2="877.191" gradientTransform="matrix(.87 .5 -.5 .87 -95.96 -1004.16)"><stop offset="0" stop-color="#61edb7"/><stop offset="1" stop-color="#59f4e8"/><stop offset="1" stop-color="#fbae17"/></linearGradient><path class="st0" d="M97.6 32.2L46.8 2.8C41.6-.2 35 1.6 32 6.8L2.6 57.6c-3 5.2-1.3 11.8 4 14.8l50.8 29.3c5.2 3 11.8 1.2 14.8-4L101.6 47c2.9-5.2 1.1-11.8-4-14.8zM52.7 72.1h-1.4c-9.9 0-18.9-6.5-23.3-16.8l6.7-2.9c3.4 8 10.3 12.8 17.5 12.4 7-.5 12.4-5.6 14.9-14.3l7 2.1c-3.3 11.6-11.3 19-21.4 19.5z"/><path class="st1" d="M52.4 64.9c-7.2.5-14.2-4.4-17.5-12.4l-6.7 2.9c4.4 10.3 13.5 16.8 23.3 16.8h1.4c10-.6 18.1-7.9 21.5-19.4l-7-2.1c-2.6 8.6-8.1 13.8-15 14.2z"/></svg>