<svg id="Calque_1" xmlns="http://www.w3.org/2000/svg" viewBox="0 0 105 105"><style>.st0{fill:url(#SVGID_1_)}.st1{fill:#fff}</style><linearGradient id="SVGID_1_" gradientUnits="userSpaceOnUse" x1="535.818" y1="-617.627" x2="633.152" y2="-593.136" gradientTransform="rotate(86 -33.644 -564.541)"><stop offset="0" stop-color="#bbf588"/><stop offset=".59" stop-color="#82de7a"/><stop offset="1" stop-color="#57cd6f"/></linearGradient><path class="st0" d="M102.8 49.2L62.4 1.3c-.3-.4-.9-.5-1.2-.3l-58 23.5c-.5.2-.8.7-.7 1.1L7 88.1c.1.5.4.9.9 1l60.7 15.1c.5.1 1-.1 1.2-.5l33.1-53.1c.1-.6.1-1.1-.1-1.4zM74 58.8H53v21h-7.6v-21h-21v-7.6h21v-21H53v21h21v7.6z"/><path class="st1" d="M53 30.2h-7.6v21h-21v7.6h21v21H53v-21h21v-7.6H53z"/></svg>