<svg id="Calque_3" xmlns="http://www.w3.org/2000/svg" viewBox="0 0 190 180"><style>.st0{fill:#bfe6f9}.st1{fill:none}.st2{fill:#ea5e3f}.st3{fill:#ffb18f}.st4{fill:#b5364a}.st5{fill:#f4a989}.st6{fill:#221c54}.st7{fill:#9c2d40}.st8{fill:#d43f56}.st9{fill:#ff9280}.st10{fill:#fff}.st11{fill:#01537c}.st12{fill:#013144}.st13{fill:#76bee2}.st14{fill:#b2b2b2}.st15{fill:#919191}.st16{fill:#cecece}.st17{fill:#a5e2f9}</style><g id="_x32_"><circle class="st0" cx="94.8" cy="90" r="65"/><path class="st1" d="M99.2 146.8l-2.7-24.7zM59.8 130c-1.5 1-2.8 2.1-4.1 3.4l-9.4 9.2c4.9 3.3 10.2 6 15.8 8.2L59.8 130zm50.4-2.7c-.8-.6-1.5-1.1-2.4-1.6l3 27.7c8.3-2.2 16-5.6 23-10.1-3.2-.6-6.2-2-8.8-4.1l-14.8-11.9z"/><path class="st2" d="M86.9 113.3zm0 0z"/><path class="st3" d="M92.3 108.1V90.7H73.5V105l-4.5 6.7c4.9 6.2 24.8 15.2 26-3.3-.4 0-1.4-.2-2.7-.3z"/><path class="st4" d="M101 45.6l2 3-.6.1 6.1 40.5-3.2 8.2c-.3.7-.6 1.4-.9 2-2.5 4.4-6.9 7.5-11.9 8.2-3.4.5-6.8 0-9.9-1.6l-10.5-5.3-4-2L65.9 84c-.5.5-1 .9-1.7 1.2l-5.3-35 42.1-4.6z"/><ellipse transform="rotate(-8.583 104.409 74.385)" class="st5" cx="104.4" cy="74.4" rx="4.9" ry="4.9"/><path class="st3" d="M100.4 47.5l6 39.8-3.3 8.4c-.2.5-.5 1.1-.7 1.6-3.3 5.9-10.7 8.3-16.9 5.2l-2.4-1.2-15.8-8-6-39.8 39.1-6z"/><path class="st6" d="M83.5 77.8L75.7 79c-.3-2.2 1.2-4.2 3.3-4.5 2.2-.3 4.2 1.2 4.5 3.3zm19.5-2.9l-7.8 1.2c-.3-2.2 1.2-4.2 3.3-4.5 2.1-.3 4.1 1.1 4.5 3.3z"/><path class="st7" d="M82.5 68.3l-9.6 2.4.4 2.8L83 72zm10.8-1.7l9.9-.4.4 2.7-9.7 1.5z"/><path class="st8" d="M84 93.1l1.4 9.8-18-9.1L66 84z"/><path class="st9" d="M65.9 84.1l1.4 9.2 15.8 7.9-3-19.2zm33.7-5l2.8 18.2c.3-.5.5-1 .7-1.6l3.3-8.4-1.4-9.1-5.4.9z"/><path transform="rotate(-8.583 69.41 80.94)" class="st3" d="M65.5 78.3h7.8v5.3h-7.8z"/><path transform="rotate(-8.583 104.609 69.435)" class="st4" d="M103.7 56.4h1.8v26.1h-1.8z"/><path class="st8" d="M105.3 80.4l1.1 6.9-1.9 4.9-3.3-1.3z"/><path class="st4" d="M90.1 82.1l-5.2.8c-2.5.4-4.5 2.3-5 4.7l-2.7 12.6 16.7 6.7-3.8-24.8z"/><path class="st4" d="M90.1 82.1l4.8-.7c2.7-.4 5.3 1 6.4 3.5l3.8 8.3c.7 1.6.3 3.4-1 4.6L93.8 107l-3.7-24.9z"/><path class="st10" d="M97.9 86.2l-1.7 5.1c-.4 1.3-1.5 2.2-2.8 2.4l-3.1.5c-1.3.2-2.6-.4-3.4-1.4l-3.1-4.5 14.1-2.1z"/><path class="st4" d="M64 47l8.1 53.6-4-2.1-7.7-51z"/><path class="st4" d="M92.6 43.5l6.8 6.1-36.5 5.5 2.2 14.4c-1.9-.8-3.7-2-5.1-3.4-2.6-2.7-4.3-6.1-4.8-9.8l-1.6-10.4 5.2-.8 33.8-1.6z"/><path class="st4" d="M100.3 48.6l1.7.9c1.4 9.3.2 6.3-9.1 7.7-7.4 1.1-14.6-2.8-17.8-9.2-.8-1.6-1.3-3.3-1.6-5.1l16.9-2.6 6.1 8.7c2.8 2.7 3.3-4.2 3.8-.4zm-38 2.2l2.8 18.7c-1.9-.8-3.7-2-5.1-3.4-2.5-2.5-4.2-5.7-4.8-9.3l-.7-4.8 7.8-1.2z"/><path class="st7" d="M113.4 60.3l-12.2 1.8c-4.7.7-9.2-.2-13-2.4l.6 3.9c-7-.2-13.4-4-16.9-9.9L63 55.1c-2.9.4-5.5-1.5-6-4.4L75.2 48c3.2 6.4 10.4 10.4 17.8 9.2 9.3-1.4 9.3.4 7.9-8.8l5.2-.8c.7 4.4 5.9-1.9 3.4 1.5-.6.8-1.3 1.6-2.1 2.3 3.2 1.9 5.4 5 6 8.9z"/><ellipse transform="rotate(-8.583 62.21 80.492)" class="st5" cx="62.2" cy="80.5" rx="4.9" ry="4.9"/><path transform="rotate(-8.583 67.11 81.14)" class="st4" d="M65.5 75.1h3.2v12.1h-3.2z"/><path class="st11" d="M61.1 67.1c1.6 1.4 29.3-26.8 29.3-26.8s-11-9.7-19-8c-3.9.8-13.8 6.8-17.6 13.3-3.9 6.6-1.6 13.6 7.3 21.5z"/><path class="st9" d="M73.3 101.3l.2 3.6-4.5 6.7s19.8 9.5 23.3-3.6c-.9-.5-5.1-.2-7-.9s-12-5.8-12-5.8z"/><path class="st11" d="M75 56.4l14.5 6.9s15.7-2.6 24.2-15.9c-6.9-2.5-23-7.2-23-7.2L75 56.4z"/><path class="st12" d="M61.1 67.8c-.2 0-.4-.1-.5-.2-.2-.3-.2-.7.1-.9.2-.2 23.6-19.3 29.2-26.7.2-.3.6-.3.9-.1s.3.6.1.9c-5.6 7.5-28.4 26.1-29.4 26.9-.1 0-.2.1-.4.1z"/><path class="st12" d="M89.6 64h-.2c-9.9-4.2-14.6-7-14.7-7-.3-.2-.4-.6-.2-.8.2-.3.6-.4.8-.2 0 0 4.7 2.8 14.3 6.8 14.2-1.1 23.5-15.4 23.6-15.6.2-.3.6-.4.9-.2s.4.6.2.9c-.4.5-9.8 15-24.7 16.1 0-.1 0 0 0 0z"/><path class="st3" d="M47.6 141.9l8-8.6-9.3-9.6s-7.3 4.8-9.1 6.6c3.3 5.2 10.4 11.6 10.4 11.6z"/><path class="st3" d="M151.8 112l-7.7 14.4c-1 1.9-2.7 3.2-4.8 3.7-2.1.4-4.2-.1-5.9-1.4l-12.2-9.4c-5.5-4.4-14.8-9.6-21.8-10.4l-4.6-.5c0 .1-26 3.2-26 3.2h-.1l-4.4 1.4c-6.8 2.1-13 5.8-18.1 10.7l9.3 9.6c1.3-1.2 2.7-2.4 4.1-3.4l2.3 20.7c8.9 3.4 18.6 5.3 28.7 5.3 7 0 13.8-.9 20.2-2.6l-3-27.7c.8.5 5.2 3.7 5.9 4.4l11.3 9.2c2.6 2.1 5.6 3.4 8.8 4.1 1.3.3 2.6.4 3.9.4 1.4 0 2.9-.2 4.3-.5 6-1.3 11.1-5.2 13.9-10.7l5.9-11.4-10-9.1z"/><path class="st13" d="M121.4 119.3c-5.5-4.4-14.8-9.6-21.8-10.4l-4.6-.5c0 .1-26 3.2-26 3.2h-.1l-4.4 1.4c-6.8 2.1-13 5.8-18.1 10.7l9.3 9.6c1.3-1.2 2.7-2.4 4.1-3.4l2.3 20.7c8.9 3.4 18.6 5.3 28.7 5.3 7 0 13.8-.9 20.2-2.6l-3-27.7c.8.5 5.2 3.7 5.9 4.4l7.5-10.7z"/><path class="st11" d="M56.8 113.8l3 16.2 2.3 20.7c10.6 6.8 33.4 8.6 48.9 2.7-1.9-15.9-3.9-42.6-4.7-46-.4-1.3-7.5-.1-6.7 1.5s2.2 9 1 16.8c-.7 5.1-30.3 6.7-32.9.4-2.6-6.4-4.1-12.2-5.2-14.6-.4-.7-6 1.5-5.7 2.3z"/><path class="st12" d="M83.9 131.1c-3.2 0-5.9-.4-7.6-.7-4.5-.9-8.2-2.4-9.2-3.9-2.1-3.2-5.2-14.3-5.3-14.8-.1-.3.1-.7.4-.8.3-.1.7.1.8.4 0 .1 3.1 11.4 5.2 14.4.7 1 3.8 2.5 8.4 3.4 3.3.6 14.6 2.2 23.5-3.7.6-9.1-1-16.3-1-16.3-.1-.3.1-.7.5-.7.3-.1.7.1.7.5 0 .1 1.8 7.6 1.1 17 0 .2-.1.4-.3.5-5.7 3.7-12 4.7-17.2 4.7z"/><path class="st14" d="M143.7 101.2l-5.5 1.4-13.9-7.9 3.5-4.7 8.3 4.7 2.7-3.5-8.3-5.4 4.1-5.4 12.5 9.1 1.3 6.4z"/><path class="st15" d="M141.9 103.2l-3.9 1.4-14.5-7.4.8-2.5 13.9 7.9 5.5-1.4zm-11.4-17.4l1.3 1.9 5.3 3.6-2 2.8 1 .6 2.7-3.5z"/><path class="st16" d="M133.2 82.3l14.4 10.2-.5-3-12.5-9.1z"/><path class="st14" d="M168 113.4l12.2 10.9-18-16c-.2.7-.6 1.4-1.1 2l-.5.5c-1 .9-2.2 1.3-3.5 1.4-.4 0-.9 0-1.3-.1l1 .8 2.2 1.9 16.5 14.7-1.8 2 4.7-5.3-12.2-10.9 1.8-1.9zm-24.3-12.2l6.6 5.9.3.3.2.2c0-.1-.1-.2-.1-.3 0-.1 0-.2-.1-.3-.3-1.6 0-3.2 1-4.6l.3-.3c.5-.6 1.2-1.1 1.9-1.4l-5.4-4.8-4.7 5.3z"/><path class="st9" d="M152.3 111.7l-4-4c-1.4.5-2.1 2.1-1.7 3.6.4 1.2 1.4 2 2.5 2 .3 0 .5 0 .8-.1l2.1-.8.8-.3-.5-.4z"/><path class="st15" d="M158.9 114.8l-2.2-1.9-1-.8c-.9-.2-1.8-.6-2.6-1.3l-.7-.6-.1-.1c-.5-.4-.9-1-1.2-1.5-.2-.3-.3-.6-.4-.9l-.2-.2-.3-.3-6.6-5.9-1.8 2 5.5 4.9 2.8 2.5.3.3 4.9 4.4 2.3 2 16 14.3 1.8-2-16.5-14.9z"/><path class="st3" d="M163 101.5c-.1-.2-.3-.3-.5-.4l-.9-.8c-2.1-1.8-4.9-2.2-7.3-1.1-.8.4-1.6.9-2.2 1.7-.1.1-.2.3-.3.4-1.3 1.6-1.7 3.7-1.3 5.5 0 .1 0 .2.1.3 0 .1.1.2.1.3.1.4.3.7.5 1.1.4.7.8 1.3 1.5 1.9l.2.1.8.7c.9.8 2 1.3 3.1 1.6.5.1 1.1.2 1.6.1 1.5-.1 3-.6 4.2-1.7l.6-.6c.6-.7 1.1-1.6 1.4-2.4.7-2.3.1-4.9-1.6-6.7z"/><path class="st17" d="M48.6 121.7l-3.2 2.6 9.4 10.3 2.8-2.9zm72.8-2.4l-7.6 10.7 2.3 1.8 8.1-10.3z"/><path class="st16" d="M166.1 115.3l12.2 11 1.9-2.1-12.3-10.9z"/></g></svg>