<svg id="Layer_1_copy" xmlns="http://www.w3.org/2000/svg" xmlns:xlink="http://www.w3.org/1999/xlink" viewBox="0 0 190 180"><style>.st0{fill:#bfe6f9}.st1{fill:#ffb18f}.st2{fill:#4e346b}.st3{display:none}.st4{display:inline}.st5{clip-path:url(#SVGID_2_)}.st6{fill:#262763}.st7{fill:#16132a}.st8{fill:#ad4553}.st9{clip-path:url(#SVGID_4_)}.st10{fill:#ff9280}.st11{fill:#70313d}.st12{fill:#221c54}.st13{fill:#f76866}</style><circle class="st0" cx="95" cy="90" r="65"/><path class="st1" d="M153.8 114.6l4.4 8.7c1.5-.8 3.1-1.3 4.7-1.7 1.6-.4 3.3-.6 5-.6h6.5v-4.3h-3.2l4.1-2.1v-4.3h-13l-8.5 4.3z"/><path class="st1" d="M167.5 114.6h-8.8l2.2-7.2c.9-2.9 3.6-4.9 6.6-4.9 3.3 0 6 2.7 6 6 0 3.4-2.7 6.1-6 6.1zm-3-4.3h3c.9 0 1.7-.8 1.7-1.7 0-.9-.8-1.7-1.7-1.7-1.1 0-2.1.7-2.5 1.8l-.5 1.6zm14.3 13.4h-3.7c-.4 0-.8-.1-1.2-.3l-3.6-2.4h-1.8c-1.2 0-2.2-1-2.2-2.2s1-2.2 2.2-2.2h2.4c.4 0 .8.1 1.2.3l3.6 2.4h3.1c1.2 0 2.2 1 2.2 2.2-.1 1.2-1 2.2-2.2 2.2z"/><path class="st1" d="M179.1 118.3h-15.5c-1.2 0-2.2-1-2.2-2.2s1-2.2 2.2-2.2h15l4.5-2.6c1-.6 2.4-.2 2.9.8.6 1 .2 2.4-.8 2.9l-5 2.9c-.4.3-.8.4-1.1.4z"/><path class="st1" d="M175.5 114.9h-7.8c-1.2 0-2.2-1-2.2-2.2s1-2.2 2.2-2.2h6.8l4.1-5.5c.7-.9 2.1-1.1 3-.4s1.1 2.1.4 3l-4.8 6.3c-.4.7-1 1-1.7 1zm-139.3-.3l-4.4 8.7c-1.5-.8-3.1-1.3-4.7-1.7-1.6-.4-3.3-.6-5-.6h-6.5v-4.3h3.2l-4.1-2.1v-4.3h13l8.5 4.3z"/><path class="st1" d="M31.4 114.6h-8.8c-3.3 0-6-2.7-6-6s2.7-6 6-6c3 0 5.7 2 6.6 4.9l2.2 7.1zm-8.9-7.8c-.9 0-1.7.8-1.7 1.7 0 .9.8 1.7 1.7 1.7h3l-.5-1.6c-.3-1-1.3-1.8-2.5-1.8zm-7.6 16.9h-3.7c-1.2 0-2.2-1-2.2-2.2s1-2.2 2.2-2.2h3.1L18 117c.3-.2.8-.3 1.2-.3h2.4c1.2 0 2.2 1 2.2 2.2s-1 2.2-2.2 2.2h-1.8l-3.6 2.4c-.4.1-.8.2-1.3.2z"/><path class="st1" d="M26.5 118.3H10.9c-.4 0-.7-.1-1.1-.3l-5-2.9c-1-.6-1.4-1.9-.8-2.9.6-1 1.9-1.4 2.9-.8l4.5 2.6h15c1.2 0 2.2 1 2.2 2.2s-.9 2.1-2.1 2.1z"/><path class="st1" d="M22.3 114.9h-7.8c-.7 0-1.3-.3-1.7-.9L8 107.7c-.7-.9-.5-2.3.4-3s2.3-.5 3 .4l4.1 5.5h6.8c1.2 0 2.2 1 2.2 2.2 0 1.2-1 2.1-2.2 2.1z"/><path class="st2" d="M39.5 125.3c-3.8 0-7.7-.9-11.2-2.7l5.4-10.6c3.2 1.6 6.8 1.8 10.1.7 3.4-1.2 6-3.6 7.5-6.8l12.1-18.1c2.2-4.6 7.2-8.5 12.1-10l2.4 11.7c-1.7.5-3.1 1.7-3.8 3.3L62 110.9c-2.9 6.2-8 10.8-14.4 13-2.6.9-5.4 1.4-8.1 1.4zm110.6 0c3.8 0 7.7-.9 11.2-2.7L156 112c-3.2 1.6-6.8 1.8-10.1.7-3.4-1.2-6-3.6-7.5-6.8l-12.1-18.1c-2.2-4.6-6.2-8.2-11.1-9.7l-3.5 11.3c1.7.5 3.1 1.7 3.8 3.3l12.1 18.1c2.9 6.2 8 10.8 14.4 13 2.6 1 5.4 1.5 8.1 1.5z"/><path class="st1" d="M107.7 97.9l2.1-21.2c-14.5-7.2-31.6.5-31.6.5l.3 13.4 29.2 7.3z"/><g id="jambes_AVEC_chaussures" class="st3"><g class="st4"><defs><circle id="SVGID_1_" cx="95.1" cy="90" r="65"/></defs><clipPath id="SVGID_2_"><use xlink:href="#SVGID_1_" overflow="visible"/></clipPath><g class="st5"><g id="jambes"><path d="M98.5 149.4l9.2-7c1.9-.6 32.5-7.5 31.8-8s-32.7 11.4-45.6 11.4v-11.9c10.8 0 21.5-2.9 30.9-8.3l2.8-1.6c5.9-3.4 13-3.2 18.7.7 5.6 3.9 5.5 6.9 4.4 13.6-1.6 10.4-20.6 13.1-30.2 12.8-9.4-.5-19.9-2.4-22-1.7z"/><path d="M91.7 149.4l-9.2-7c-1.9-.6-32.5-7.5-31.8-8s32.7 11.4 45.6 11.4v-11.9c-10.8 0-21.5-2.9-30.9-8.3l-2.8-1.6c-5.9-3.4-13-3.2-18.7.7-5.6 3.9-5.5 6.9-4.4 13.6 1.6 10.4 20.6 13.1 30.2 12.8 9.4-.5 19.9-2.4 22-1.7z"/><path d="M124.5 140.9c-10.5 12.1-14.9 14.9-29 14.5-13-.3-22.1-4.3-28.5-17-1.6-3.2 2.6-6.3 5.4-6.1 2.3.1 2.1 1.4 4.4 1.4.3 0 9.5 8 18 8.1 6.6.2 13.8-3.8 19.2-9.4 2.7-1 12.4 6.3 10.5 8.5z"/><path transform="rotate(-29.773 60.178 130.93)" class="st6" d="M45.9 129h28.5v3.8H45.9z"/><path class="st7" d="M56.9 135.1l16.6-9.6z"/><path class="st8" d="M48.8 139.7l24.7-14.2 4.9 8.6-10.3 5.9z"/><path class="st2" d="M82.4 137.7l-.1.1-10.8 6.2-.8-.8 10.8-6.2.4-.2.5.9z"/><path class="st6" d="M62.4 143.9c-.1-.1-.3-.3-.4-.5-.3-.6-.4-1.2-.2-1.9.2-.6.6-1.2 1.2-1.5l3.7-2.1v4.2c0 1.1-.7 2.1-1.8 2.4-1 .3-1.9.1-2.5-.6zm3.2-4.1l-2.1 1.2c-.3.2-.6.5-.6.8-.1.4 0 .7.1 1.1.4.7 1.1.8 1.6.7s1-.6 1-1.3v-2.5z"/><path class="st6" d="M65 138.9l3.7-2.1c.6-.3 1.2-.4 1.9-.2.6.2 1.2.6 1.5 1.2.6 1 .4 2.2-.4 3s-2 .9-3 .4l-3.7-2.3zm5.9-.9c-.2-.2-.4-.3-.6-.4-.4-.1-.7 0-1.1.1l-2.1 1.2 2.1 1.2c.7.4 1.3.2 1.7-.2.4-.4.6-1 .2-1.7-.1 0-.1-.1-.2-.2z"/><path transform="rotate(-56.799 131.522 131.708)" class="st6" d="M129.6 117.5h3.8V146h-3.8z"/><path class="st7" d="M118.6 125.4l16 10.6z"/><path class="st8" d="M142.4 141.1l-23.8-15.6-5.4 8.2 9.9 6.5z"/><path class="st6" d="M120.3 143.2c-.3.2-.6.5-.8.7l-10.4-6.8-.1-.1.6-.9.4.3 10.3 6.8zm8.2 1.3c-.6.6-1.6.8-2.4.5-1.1-.4-1.8-1.4-1.7-2.5l.3-4.2 3.6 2.3c.6.4.9.9 1.1 1.6.1.6 0 1.3-.4 1.9-.2.1-.3.2-.5.4zm-2.9-4.3l-.1 2.4c0 .8.5 1.2.9 1.4.5.2 1.2.1 1.6-.6.2-.3.3-.7.2-1-.1-.4-.3-.7-.6-.9l-2-1.3z"/><path class="st6" d="M126.3 139.3l-3.8 1.9c-1 .5-2.2.3-3-.5s-.9-2-.2-3c.7-1.1 2.3-1.5 3.4-.7l3.6 2.3zm-5.8-1.3c-.1.1-.2.2-.2.3-.4.7-.2 1.3.1 1.7.3.4 1 .7 1.7.3l2.1-1.1-2-1.3c-.3-.2-.7-.3-1-.2-.3 0-.6.2-.7.3z"/></g></g></g></g><g id="jambes_SANS_chaussures"><defs><circle id="SVGID_3_" cx="95.1" cy="90" r="65"/></defs><clipPath id="SVGID_4_"><use xlink:href="#SVGID_3_" overflow="visible"/></clipPath><g class="st9"><g id="jambes_1_"><path d="M67.3 140.5l40.4 1.9c1.9-.6 32.5-7.5 31.8-8-.7-.5-32.7 11.4-45.6 11.4v-11.9c10.8 0 21.5-2.9 30.9-8.3l2.8-1.6c5.9-3.4 13-3.2 18.7.7 5.6 3.9 5.5 6.9 4.4 13.6-1.6 10.4-21.1 9.6-30.2 12.8-36.7 12.4-51.1-11.3-53.2-10.6z"/><path d="M123.5 140.1l-41 2.3c-1.9-.6-32.5-7.5-31.8-8s32.7 11.4 45.6 11.4v-11.9c-10.8 0-21.5-2.9-30.9-8.3l-2.8-1.6c-5.9-3.4-13-3.2-18.7.7-5.6 3.9-5.5 6.9-4.4 13.6 1.6 10.4 20.7 11.1 30.2 12.8 9 1.4 30.4 13.4 53.8-11z"/><path d="M124.5 140.9c-10.5 12.1-14.9 14.9-29 14.5-13-.3-22.1-4.3-28.5-17-1.6-3.2 2.6-6.3 5.4-6.1 2.3.1 2.1 1.4 4.4 1.4.3 0 9.5 8 18 8.1 6.6.2 13.8-3.8 19.2-9.4 2.7-1 12.4 6.3 10.5 8.5z"/><path class="st7" d="M56.9 135.1l16.6-9.6z"/><path class="st2" d="M82.4 137.7l-.1.1-10.8 6.2-.8-.8 10.8-6.2.4-.2.5.9z"/><path class="st7" d="M118.6 125.4l16 10.6z"/><path class="st1" d="M47.6 141.1s13.7-7.3 17.9-14.1c1.2-2 6.4-2.5 7.3.6 1.5 5.2 4 6.1 4 6.1s-6.1 2.1-9.9 6.5c-2.4-.8-9 1.5-13.9 2-2.6.3-5.4-1.1-5.4-1.1zm94.8 0s-13.7-7.3-17.9-14.1c-1.2-2-6.4-2.5-7.3.6-1.5 5.2-4 6.1-4 6.1s6.1 2.1 9.9 6.5c2.4-.8 9 1.5 13.9 2 2.6.3 5.4-1.1 5.4-1.1z"/><path class="st6" d="M120.3 143.2c-.3.2-.6.5-.8.7l-10.4-6.8-.1-.1.6-.9.4.3 10.3 6.8z"/></g></g></g><path class="st2" d="M116.4 78.5v46.7c0 5.2-4.2 9.4-9.4 9.4H83.1c-5.2 0-9.4-4.2-9.4-9.4L75 77.9l7.2-2.2s1.7 12.8 12.7 13.5 12.7-13.5 12.7-13.5l8.8 2.8z"/><path class="st6" d="M106.9 135.7H83.1c-4.2 0-7.9-2.5-9.6-6.3l1-.4c1.5 3.4 4.9 5.6 8.6 5.6h23.8c3.8 0 7.2-2.3 8.7-5.8l1 .4c-1.6 4-5.4 6.5-9.7 6.5z"/><path class="st10" d="M102.8 66.9s-10.4 4.1-15.6 0l-.8 7.9s3.9 2.3 9 2.3c4.4 0 8.5-1.7 8.5-1.7l-1.1-8.5z"/><path class="st1" d="M103.4 59.2c.1-.1.2-.2.3-.2l.1-6.4 4.3.1c1.1 0 2-.8 2-1.9 0-.5-.2-1-.5-1.3l7.9-.6s-.1 3 0 3.2l-.1 6.3-1.9 1.3-11.9 8.1-.2-8.6zm-26.3-9.5v-.6l3.2.8v.6L77 51.9l8.4.9-.2 14.1c-.3-.4-8.3-6.4-8.3-6.4l.2-10.8zm12.2-22c-3.1-.1-6.1-1-8.7-2.8 6.9 4.7 16.3 3.3 21.5-3.2-3.2 3.9-7.9 6.1-12.8 6zm-9 12.9V44z"/><path class="st1" d="M74.8 35.3V46l.8 7 9.7.5-.1 13.4c5.1 4.7 11.1 5.2 15.9 2.5.2-.1.4-.2.6-.4l1-.7 1.2-.8.1-14 5.1.1 4.7-2.6.4-27.8L80.4 26l-5.6 9.3z"/><path class="st1" d="M111 47l.4-2c0-.2.1-.3.1-.5l3.7.1c-.4 1.7 1.1 3 2.1 4.4l-7.8.5-.1-.1c.8-.7 1.4-1.5 1.6-2.4z"/><path class="st11" d="M109.6 38.4l-.1.9-9.5-.1v-2.1zM80.4 38l9.2-1.1v2.2l-9.3-.2z"/><path class="st10" d="M100.2 46.1l7.9.2 1.4-7-9.6-.7zm-19-.3l7.9.2.5-6.9-9.5-.7z"/><path class="st12" d="M104 42.5c2 .1 3.7 1.7 3.7 3.8l-7.5-.1c.1-2.1 1.8-3.7 3.8-3.7zM82.2 44c1.1-1.8 3.4-2.3 5.1-1.2 1.1.7 1.8 1.9 1.8 3.2l-4.3-.1-3.2-.1c.1-.6.2-1.3.6-1.8z"/><path class="st12" d="M109.4 44.4l-3.9.9v1l2.6.1c.5-.6 1.3-2 1.3-2zM80 43.9l3.9 1v1h-2.6c-.6-.6-1.3-2-1.3-2z"/><path class="st13" d="M103.1 53.8l5.8.1c1 0 1.8-.8 1.8-1.7 0-1-.8-1.8-1.7-1.8l-5.8-.1c-1 0-1.8.8-1.8 1.7-.1 1 .7 1.8 1.7 1.8zm-22.6.1l5.8.1c1 0 1.8-.8 1.8-1.7 0-1-.8-1.8-1.7-1.8l-5.8-.1c-1 0-1.8.8-1.8 1.7 0 .9.7 1.7 1.7 1.8z"/><path class="st11" d="M77.8 18c-3.4 3-7.9 12-6.9 17.1 1.8 9.1.7 11.2 1.2 18.8 1.1 15.4 5.8 15.5 5.8 15.5l.2-32.3L89 28c2.8 2.8 6.5 4.6 10.4 5.3l-.1-3.7c3.4 2.6 7.6 3.9 11.9 3.8h1.8l.1 3.8v3.5l-.5 29.6s4.7-6.7 4.9-14.7 2.3-17.2 2.3-17.2c4.7-16.5-19.5-40.4-42-20.4z"/><path class="st13" d="M96.6 57c1.6 0 2.6.4 3.8 1.8l-4.1 1.9-2.4-.4c0-1.8 1.2-3.2 2.7-3.3z"/><path class="st13" d="M92.4 57.1c-1.6 0-2.5.5-3.5 1.9l5.1 1.7 1.4-.5c-.2-1.7-1.5-3.1-3-3.1z"/><path class="st13" d="M85.7 57.4s5.2 4.2 9.2 4.2 8.2-4.8 8.2-4.8-6.5 2.7-8.7 2.7-8.7-2.1-8.7-2.1z"/></svg>