<svg xmlns="http://www.w3.org/2000/svg" width="38" height="53" viewBox="0 0 38 53"><g fill="none"><path d="M3.67 52.159H1.867a.9.9 0 0 1-.902-.9v-1.798h3.607v1.798a.9.9 0 0 1-.902.9zm32.463 0H34.33a.9.9 0 0 1-.902-.9v-1.798h3.607v1.798a.9.9 0 0 1-.902.9z" fill="#AFB9D2"/><path fill="#E4EAF6" d="M36.133 50.36H1.867a1.801 1.801 0 0 1-1.804-1.798V1.799C.063.805.871 0 1.867 0h34.266c.996 0 1.804.805 1.804 1.799v46.763c0 .993-.808 1.798-1.804 1.798z"/><path fill="#D7DEED" d="M.063 1.799v8.992h37.874V1.8c0-.995-.808-1.8-1.804-1.8H1.867A1.8 1.8 0 0 0 .063 1.799z"/><path fill="#AFB9D2" d="M15.393 0v5.396A3.602 3.602 0 0 0 19 8.993a3.602 3.602 0 0 0 3.607-3.597V0h-7.214z"/><ellipse cx="19" cy="26.979" fill="#C7CFE2" rx="13.526" ry="13.489"/><ellipse cx="19" cy="5.396" fill="#707487" rx="1.803" ry="1.799"/><path fill="#FFF" d="M26.214 7.194a.9.9 0 0 1-.902-.899V4.496a.9.9 0 0 1 .902-.899.9.9 0 0 1 .902.9v1.798a.9.9 0 0 1-.902.9z"/><path fill="#FFF08C" d="M29.82 7.194a.9.9 0 0 1-.9-.899V4.496a.9.9 0 0 1 .9-.899.9.9 0 0 1 .903.9v1.798a.9.9 0 0 1-.902.9z"/><path fill="#E4EAF6" d="M33.428 7.194a.9.9 0 0 1-.902-.899V4.496a.9.9 0 0 1 .902-.899.9.9 0 0 1 .902.9v1.798a.9.9 0 0 1-.902.9z"/><ellipse cx="19" cy="26.979" fill="#00C8F0" rx="9.017" ry="8.993"/><path fill="#00AFE1" d="M19 20.684c4.52 0 8.25 3.318 8.905 7.643.067-.44.112-.889.112-1.348 0-4.967-4.037-8.993-9.017-8.993-4.98 0-9.017 4.026-9.017 8.993 0 .46.045.907.112 1.348A9.004 9.004 0 0 1 19 20.684z"/><path fill="#D7DEED" d="M26.214 41.367h9.017a.9.9 0 0 1 .902.9v5.395a.9.9 0 0 1-.902.9h-9.017a.9.9 0 0 1-.902-.9v-5.395a.9.9 0 0 1 .902-.9z"/><path fill="#C7CFE2" d="M11.786 8.993H2.769a.9.9 0 0 1-.902-.9V2.699a.9.9 0 0 1 .902-.9h9.017a.9.9 0 0 1 .902.9v5.396a.9.9 0 0 1-.902.899z"/><path fill="#AFB9D2" d="M9.08 7.194H5.475a.9.9 0 0 0-.902.9v.899h5.41v-.9a.9.9 0 0 0-.901-.899z"/><path fill="#00EBFF" d="M23.51 30.485a.9.9 0 0 1 .643 1.528 7.191 7.191 0 0 1-2.061 1.467.903.903 0 0 1-1.201-.427.898.898 0 0 1 .428-1.198 5.4 5.4 0 0 0 1.546-1.1.9.9 0 0 1 .644-.27z"/><path fill="#00DCFF" d="M13.588 29.322a.9.9 0 0 1 .773.435 5.39 5.39 0 0 0 3.865 2.563.899.899 0 1 1-.255 1.78 7.185 7.185 0 0 1-5.155-3.414.898.898 0 0 1 .772-1.364z"/><path fill="#959CB3" d="M19 16.187c-5.976 0-10.82 4.832-10.82 10.792S13.023 37.77 19 37.77s10.82-4.83 10.82-10.79S24.977 16.187 19 16.187zm0 19.784c-4.98 0-9.017-4.026-9.017-8.992 0-4.967 4.037-8.993 9.017-8.993a9.018 9.018 0 0 1 8.618 6.34 1.8 1.8 0 0 0-1.404 1.753v1.799a1.8 1.8 0 0 0 1.404 1.753A9.018 9.018 0 0 1 19 35.97z"/></g></svg>