<svg width="46" height="46" viewBox="0 0 46 46" xmlns="http://www.w3.org/2000/svg"><title>C26C0AB1-AA63-4CDC-A7F6-2DF417A58881</title><g fill="none" fill-rule="evenodd"><path d="M22.999 12.791c-5.66 0-10.247 4.602-10.247 10.277 0 6.528 5.038 7.332 5.451 13.26.03.443.397.788.841.788h7.908c.444 0 .81-.345.84-.789.414-5.929 5.452-6.76 5.452-13.259.002-5.675-4.586-10.277-10.245-10.277zm.002 3.887c-3.513 0-6.37 2.865-6.37 6.388a.816.816 0 1 1-1.629 0c0-4.423 3.588-8.022 7.999-8.022.45 0 .815.366.815.817a.816.816 0 0 1-.815.817z" fill="#FFC300" fill-rule="nonzero"/><path d="M26.776 38.088h-7.55a.995.995 0 0 0-.994.997c0 .549.444.996.994.996h7.55a.997.997 0 1 0 0-1.993zm0 2.963h-7.55a.995.995 0 0 0-.994.997c0 .55.444.997.994.997h7.55a.998.998 0 0 0 0-1.993zM21.211 46h3.578a1.99 1.99 0 0 0 1.987-1.993h-7.55A1.987 1.987 0 0 0 21.21 46z" fill="#009DE9" fill-rule="nonzero"/><path d="M44.982 22.047h-5.175a1.02 1.02 0 0 0-1.018 1.021 1.02 1.02 0 0 0 1.018 1.022h5.175A1.02 1.02 0 0 0 46 23.068c0-.565-.456-1.02-1.018-1.02zM34.883 12.17c.261 0 .522-.1.721-.298l3.66-3.67a1.024 1.024 0 0 0 0-1.444 1.017 1.017 0 0 0-1.44 0l-3.66 3.67a1.024 1.024 0 0 0 0 1.444c.198.198.459.298.72.298zM22.999 7.234a1.02 1.02 0 0 0 1.018-1.021V1.02A1.02 1.02 0 0 0 23 0a1.02 1.02 0 0 0-1.018 1.021v5.19A1.02 1.02 0 0 0 23 7.234zM8.176 6.756a1.017 1.017 0 0 0-1.44 0 1.024 1.024 0 0 0 0 1.444l3.66 3.67a1.021 1.021 0 0 0 1.442-1.444l-3.662-3.67zm-.963 16.312a1.02 1.02 0 0 0-1.018-1.02H1.018A1.02 1.02 0 0 0 0 23.067a1.02 1.02 0 0 0 1.018 1.022h5.175a1.02 1.02 0 0 0 1.02-1.022zm3.183 11.197l-3.66 3.67a1.024 1.024 0 0 0 0 1.444 1.021 1.021 0 0 0 1.442 0l3.66-3.67a1.024 1.024 0 0 0 0-1.444c-.4-.4-1.043-.4-1.442 0zm25.208 0a1.017 1.017 0 0 0-1.44 0 1.024 1.024 0 0 0 0 1.444l3.66 3.67a1.021 1.021 0 0 0 1.442-1.444l-3.662-3.67z" fill="#FFC300" fill-rule="nonzero"/><path d="M23.001 15.044c-4.41 0-7.999 3.599-7.999 8.022a.816.816 0 1 0 1.63 0c0-3.523 2.856-6.388 6.369-6.388.45 0 .815-.366.815-.817a.816.816 0 0 0-.815-.817z"/></g></svg>