<svg xmlns="http://www.w3.org/2000/svg" viewBox="0 0 56 58"><style>.st0{fill:#e6e7e8}.st1{fill:#1d1e1b}.st2{stroke-linecap:round;stroke-linejoin:round}.st2,.st3,.st4{fill:none;stroke:#000;stroke-miterlimit:10}.st4{stroke-linecap:round;stroke-linejoin:round}.st4,.st5{fill-rule:evenodd;clip-rule:evenodd}.st6{fill:#1d1d1b}.st7{fill:#1d1d1d}.st8{stroke:#000;stroke-width:.2847;stroke-miterlimit:10}.st9{clip-path:url(#SVGID_3_)}.st10{clip-path:url(#SVGID_4_)}.st11{display:none}</style><g id="FILAIRES_1_"><path d="M51 41.5c-.3 0-.5-.3-.4-.6l1.7-12.8c0-.5-.3-.9-.8-.9l-4.2-.5c-.2 0-.3-.1-.4-.3L43.1 19H32.9v18.3c-.1.2-.3.3-.4.3H20.9c-.3 0-.5-.2-.5-.5s.2-.5.5-.5h11V13.5H3.7v23.2h3.4c.3 0 .5.2.5.5s-.2.5-.5.5H3.2c-.3 0-.5-.2-.5-.5V13c0-.3.2-.5.5-.5h29.2c.3 0 .5.2.5.5v5.2h10.5c.2 0 .4.1.4.3l3.8 7.4 4 .4c1 .1 1.8 1 1.7 2l-1.8 12.8c0 .2-.2.4-.5.4z"/><path d="M37 27.2c-.3 0-.5-.2-.5-.5v-4.1c0-.3.2-.5.5-.5h3.7c.2 0 .4.1.4.3l2.1 4.1c.1.2.1.3 0 .5-.1.1-.3.2-.4.2H37zm.5-1h4.4L40.3 23h-2.9v3.2zm-15 15.3c-.3 0-.5-.2-.5-.5s.2-.5.5-.5h12.7c.3 0 .5.2.5.5s-.2.5-.5.5H22.5zm20.6 4c-2.8 0-5.1-2.3-5.1-5.1s2.3-5.1 5.1-5.1 5.1 2.3 5.1 5.1c.1 2.8-2.2 5.1-5.1 5.1zm0-9.2c-2.3 0-4.1 1.8-4.1 4.1s1.8 4.1 4.1 4.1 4.1-1.9 4.1-4.1c.1-2.3-1.8-4.1-4.1-4.1zm-28.8 9.2c-2.8 0-5.1-2.3-5.1-5.1s2.3-5.1 5.1-5.1 5.1 2.3 5.1 5.1-2.3 5.1-5.1 5.1zm0-9.2c-2.3 0-4.1 1.8-4.1 4.1s1.8 4.1 4.1 4.1 4.1-1.9 4.1-4.1c0-2.3-1.9-4.1-4.1-4.1zM23 24.7c-.1 0-.2 0-.3-.1l-.1-.1-1.2-1.2c-.1-.1-.1-.1-.1-.2V23s0-.1.1-.1c.1-.1.1-.1.2-.1h1l-.4-.7c-1-1.7-2.7-2.7-4.7-2.7-2.2 0-4.2 1.3-5 3.4-.1.2-.2.3-.4.3H12c-.2-.1-.3-.3-.2-.5.9-2.3 3.2-3.8 5.7-3.8 2.6 0 5 1.7 5.8 4.2l.3.8.6-.6c.1-.1.2-.2.3-.2.1 0 .2 0 .3.1.1.1.1.2.1.3 0 .1 0 .2-.1.3l-1.8 1zm-5.6 5.9c-2.6 0-5-1.7-5.8-4.2l-.3-.8-.6.6c-.1.1-.2.2-.3.2-.1 0-.2 0-.3-.1-.1-.1-.1-.2-.1-.3 0-.1.1-.2.1-.3l1.5-1.4h.2c.1 0 .2.1.3.1l.1.1 1.2 1.2c.1.1.1.1.1.2v.1c-.1.1-.1.2-.2.2s-.1 0-.2.1l-.9-.1.4.8c1 1.7 2.7 2.7 4.7 2.7 2.2 0 4.2-1.3 5-3.4.1-.2.2-.2.2-.2h.2c.1 0 .2.1.2.2v.3c-.8 2.5-3 4-5.5 4z"/></g></svg>