<svg width="205" height="142" viewBox="0 0 205 142" xmlns="http://www.w3.org/2000/svg" xmlns:xlink="http://www.w3.org/1999/xlink"><title>3898EEC6-ECF4-4D08-9468-2954A79EAB7F</title><defs><path id="a" d="M.056.424h204.713v141.489H.056z"/><path d="M31.489 63.67c5.459 0 8.166-1.297 12.641-3.727 2.976-1.615 6.116-2.399 8.928-4.844 1.915-1.665 2.073-4.225 3.528-6.199 1.339-1.817 3.815-4.52 4.51-6.55 1.087-3.17 2.91-4.792 2.91-8.328 0-2.475-.482-5.027-1.028-7.336-.505-2.137.086-4.855-.835-6.798-.94-1.987-3.078-3.339-4.4-5.07-.871-1.141-1.382-3.508-2.4-4.52a31.878 31.878 0 0 0-12.142-7.535C40.006 1.678 36.941 0 33.376 0c-3.726 0-8.282-.047-11.6 1.134-2.184.778-3.977 2.859-5.908 4.073-2.441 1.535-3.586 2.969-5.512 5.092-1.538 1.696-5.149 4.741-6.288 6.742-.864 1.518-.661 4.716-1.264 6.378C1.6 26.737 0 28.714 0 32.445c0 2.948.91 6.834 2.804 9.906 1.62 2.627 2.904 5.927 4.047 7.99 4.035 7.282 6.409 7.282 11.567 9.602 2.552 1.148 10.133 3.727 13.071 3.727z" id="c"/><path d="M31.489 63.67c5.459 0 8.166-1.297 12.641-3.727 2.976-1.615 6.116-2.399 8.928-4.844 1.915-1.665 2.073-4.225 3.528-6.199 1.339-1.817 3.815-4.52 4.51-6.55 1.087-3.17 2.91-4.792 2.91-8.328 0-2.475-.482-5.027-1.028-7.336-.505-2.137.086-4.855-.835-6.798-.94-1.987-3.078-3.339-4.4-5.07-.871-1.141-1.382-3.508-2.4-4.52a31.878 31.878 0 0 0-12.142-7.535C40.006 1.678 36.941 0 33.376 0c-3.726 0-8.282-.047-11.6 1.134-2.184.778-3.977 2.859-5.908 4.073-2.441 1.535-3.586 2.969-5.512 5.092-1.538 1.696-5.149 4.741-6.288 6.742-.864 1.518-.661 4.716-1.264 6.378C1.6 26.737 0 28.714 0 32.445c0 2.948.91 6.834 2.804 9.906 1.62 2.627 2.904 5.927 4.047 7.99 4.035 7.282 6.409 7.282 11.567 9.602 2.552 1.148 10.133 3.727 13.071 3.727z" id="e"/><circle id="g" cx="51.477" cy="50.567" r="50.532"/></defs><g fill="none" fill-rule="evenodd"><mask id="b" fill="#fff"><use xlink:href="#a"/></mask><g mask="url(#b)"><g transform="rotate(88 52.87 55.188)"><mask id="d" fill="#fff"><use xlink:href="#c"/></mask><use fill="#FFF" xlink:href="#c"/><path d="M31.489 63.67c5.459 0 8.166-1.297 12.641-3.727 2.976-1.615 6.116-2.399 8.928-4.844 1.915-1.665 2.073-4.225 3.528-6.199 1.339-1.817 3.815-4.52 4.51-6.55 1.087-3.17 2.91-4.792 2.91-8.328 0-2.475-.482-5.027-1.028-7.336-.505-2.137.086-4.855-.835-6.798-.94-1.987-3.078-3.339-4.4-5.07-.871-1.141-1.382-3.508-2.4-4.52a31.878 31.878 0 0 0-12.142-7.535C40.006 1.678 36.941 0 33.376 0c-3.726 0-8.282-.047-11.6 1.134-2.184.778-3.977 2.859-5.908 4.073-2.441 1.535-3.586 2.969-5.512 5.092-1.538 1.696-5.149 4.741-6.288 6.742-.864 1.518-.661 4.716-1.264 6.378C1.6 26.737 0 28.714 0 32.445c0 2.948.91 6.834 2.804 9.906 1.62 2.627 2.904 5.927 4.047 7.99 4.035 7.282 6.409 7.282 11.567 9.602 2.552 1.148 10.133 3.727 13.071 3.727z" fill="#F3CD97" mask="url(#d)"/><path d="M31.489 63.67c5.459 0 8.166-1.297 12.641-3.727 2.976-1.615 6.116-2.399 8.928-4.844 1.915-1.665 2.073-4.225 3.528-6.199 1.339-1.817 3.815-4.52 4.51-6.55 1.087-3.17 2.91-4.792 2.91-8.328 0-2.475-.482-5.027-1.028-7.336-.505-2.137.086-4.855-.835-6.798-.94-1.987-3.078-3.339-4.4-5.07-.871-1.141-1.382-3.508-2.4-4.52a31.878 31.878 0 0 0-12.142-7.535C40.006 1.678 36.941 0 33.376 0c-3.726 0-8.282-.047-11.6 1.134-2.184.778-3.977 2.859-5.908 4.073-2.441 1.535-3.586 2.969-5.512 5.092-1.538 1.696-5.149 4.741-6.288 6.742-.864 1.518-.661 4.716-1.264 6.378C1.6 26.737 0 28.714 0 32.445c0 2.948.91 6.834 2.804 9.906 1.62 2.627 2.904 5.927 4.047 7.99 4.035 7.282 6.409 7.282 11.567 9.602 2.552 1.148 10.133 3.727 13.071 3.727z" fill="#E2AA63" mask="url(#d)"/><path d="M28.614 60.233c5.28 0 7.899-1.245 12.229-3.58 2.878-1.55 5.916-2.303 8.636-4.651 1.852-1.599 2.006-4.058 3.412-5.953 1.296-1.745 3.692-4.342 4.364-6.29 1.052-3.044 2.815-4.602 2.815-7.998 0-2.376-.467-4.827-.995-7.045-.488-2.052.083-4.662-.807-6.528-.91-1.908-2.978-3.206-4.257-4.869-.843-1.096-1.337-3.369-2.321-4.34a30.874 30.874 0 0 0-11.746-7.236C36.854.7 33.887-.911 30.439-.911c-3.604 0-8.012-.045-11.22 1.09-2.114.747-3.848 2.745-5.716 3.91-2.362 1.475-3.47 2.851-5.333 4.89-1.488 1.629-4.98 4.553-6.083 6.475-.836 1.458-.639 4.529-1.222 6.125-1.165 3.186-2.713 5.085-2.713 8.667 0 2.831.88 6.564 2.713 9.513 1.567 2.523 2.81 5.693 3.915 7.674 3.903 6.992 6.2 6.992 11.19 9.22 2.468 1.103 9.802 3.58 12.644 3.58z" fill="#F4CD89" mask="url(#d)"/><path d="M48.243 83.955c5.459 0 8.165-1.297 12.641-3.727 2.976-1.616 6.116-2.4 8.928-4.844 1.914-1.665 2.073-4.226 3.527-6.199 1.34-1.817 3.816-4.521 4.511-6.55 1.087-3.17 2.91-4.792 2.91-8.328 0-2.475-.482-5.027-1.028-7.337-.505-2.136.085-4.855-.835-6.798-.94-1.986-3.079-3.338-4.4-5.07-.872-1.14-1.382-3.508-2.4-4.519a31.878 31.878 0 0 0-12.142-7.535c-3.195-1.086-6.26-2.763-9.825-2.763-3.726 0-8.282-.047-11.6 1.134-2.184.778-3.977 2.858-5.908 4.073-2.441 1.535-3.586 2.968-5.512 5.091-1.539 1.696-5.149 4.742-6.288 6.743-.865 1.518-.661 4.716-1.264 6.378-1.204 3.318-2.804 5.295-2.804 9.025 0 2.948.91 6.835 2.804 9.906 1.62 2.627 2.904 5.928 4.047 7.99 4.035 7.282 6.409 7.282 11.567 9.603 2.552 1.148 10.133 3.727 13.07 3.727z" fill-opacity=".6" fill="#E2AA63" style="mix-blend-mode:multiply" mask="url(#d)"/><circle fill="#592509" mask="url(#d)" cx="12.991" cy="24.644" r="4.043"/><ellipse fill="#592509" mask="url(#d)" cx="50.561" cy="25.528" rx="3.032" ry="3.158"/><ellipse fill="#592509" mask="url(#d)" cx="26.114" cy="28.686" rx="4.043" ry="3.158"/><path d="M31.781 13.564c.555 0 .83-.131 1.285-.377.302-.163.62-.243.906-.49.195-.168.211-.427.359-.627.136-.184.47-.638.564-1.376.094-.738.094-1.362 0-1.559-.095-.201-.312-.338-.447-.513-.088-.115-.14-.355-.243-.457a3.24 3.24 0 0 0-1.234-.762c-.324-.11-.636-.28-.998-.28-.378 0-.841-.005-1.178.115-.222.079-.404.289-.6.412-.248.155-.365.3-.56.515-.156.172-.818 1.355-.818 2.179 0 .823.346 1.663.462 1.872.41.736.65.736 1.175.971.259.116 1.03.377 1.327.377zM16.97 41.816c.325 0 .487-.078.755-.222.178-.096.365-.143.533-.289.115-.099.124-.251.211-.369a1.66 1.66 0 0 0 .332-.81c.055-.434.055-.8 0-.916-.056-.119-.184-.2-.263-.302-.052-.068-.082-.209-.143-.27a1.907 1.907 0 0 0-.726-.448c-.19-.064-.374-.164-.587-.164-.223 0-.495-.003-.693.067-.131.047-.238.17-.354.243-.145.091-.214.176-.329.303-.092.1-.481.797-.481 1.282 0 .484.203.978.272 1.101.24.434.383.434.69.572.153.068.607.222.782.222zm22.856 10.846c.638 0 .954-.132 1.477-.377.348-.164.715-.243 1.044-.49.224-.169.242-.428.412-.628.157-.183.542-.638.65-1.376.107-.738.107-1.362 0-1.559-.11-.2-.36-.337-.515-.512-.102-.116-.161-.355-.28-.458a3.854 3.854 0 0 0-1.42-.762c-.373-.11-.731-.28-1.148-.28-.435 0-.968-.004-1.355.115-.256.079-.465.29-.69.412-.286.156-.42.3-.645.515-.18.172-.941 1.355-.941 2.179 0 .824.398 1.663.531 1.872.472.737.75.737 1.352.972.299.116 1.185.377 1.528.377z" fill="#592509" mask="url(#d)"/></g><g transform="rotate(-77 50.522 45.313)"><mask id="f" fill="#fff"><use xlink:href="#e"/></mask><use fill="#FFF" xlink:href="#e"/><path d="M31.489 63.67c5.459 0 8.166-1.297 12.641-3.727 2.976-1.615 6.116-2.399 8.928-4.844 1.915-1.665 2.073-4.225 3.528-6.199 1.339-1.817 3.815-4.52 4.51-6.55 1.087-3.17 2.91-4.792 2.91-8.328 0-2.475-.482-5.027-1.028-7.336-.505-2.137.086-4.855-.835-6.798-.94-1.987-3.078-3.339-4.4-5.07-.871-1.141-1.382-3.508-2.4-4.52a31.878 31.878 0 0 0-12.142-7.535C40.006 1.678 36.941 0 33.376 0c-3.726 0-8.282-.047-11.6 1.134-2.184.778-3.977 2.859-5.908 4.073-2.441 1.535-3.586 2.969-5.512 5.092-1.538 1.696-5.149 4.741-6.288 6.742-.864 1.518-.661 4.716-1.264 6.378C1.6 26.737 0 28.714 0 32.445c0 2.948.91 6.834 2.804 9.906 1.62 2.627 2.904 5.927 4.047 7.99 4.035 7.282 6.409 7.282 11.567 9.602 2.552 1.148 10.133 3.727 13.071 3.727z" fill="#F3CD97" mask="url(#f)"/><path d="M31.489 63.67c5.459 0 8.166-1.297 12.641-3.727 2.976-1.615 6.116-2.399 8.928-4.844 1.915-1.665 2.073-4.225 3.528-6.199 1.339-1.817 3.815-4.52 4.51-6.55 1.087-3.17 2.91-4.792 2.91-8.328 0-2.475-.482-5.027-1.028-7.336-.505-2.137.086-4.855-.835-6.798-.94-1.987-3.078-3.339-4.4-5.07-.871-1.141-1.382-3.508-2.4-4.52a31.878 31.878 0 0 0-12.142-7.535C40.006 1.678 36.941 0 33.376 0c-3.726 0-8.282-.047-11.6 1.134-2.184.778-3.977 2.859-5.908 4.073-2.441 1.535-3.586 2.969-5.512 5.092-1.538 1.696-5.149 4.741-6.288 6.742-.864 1.518-.661 4.716-1.264 6.378C1.6 26.737 0 28.714 0 32.445c0 2.948.91 6.834 2.804 9.906 1.62 2.627 2.904 5.927 4.047 7.99 4.035 7.282 6.409 7.282 11.567 9.602 2.552 1.148 10.133 3.727 13.071 3.727z" fill="#C37D38" mask="url(#f)"/><path d="M33.2 59.88c5.172 0 7.736-1.22 11.976-3.505 2.82-1.519 5.794-2.256 8.458-4.556 1.814-1.565 1.964-3.973 3.342-5.83 1.269-1.708 3.615-4.251 4.274-6.16 1.03-2.98 2.756-4.506 2.756-7.832 0-2.327-.457-4.728-.974-6.9-.478-2.009.081-4.566-.79-6.393-.892-1.868-2.917-3.14-4.17-4.768-.825-1.073-1.309-3.3-2.273-4.25a30.236 30.236 0 0 0-11.503-7.088C41.269 1.578 38.364 0 34.988 0c-3.53 0-7.847-.044-10.99 1.067-2.07.731-3.767 2.688-5.597 3.83-2.313 1.444-3.397 2.792-5.222 4.789-1.458 1.595-4.878 4.459-5.957 6.34-.82 1.428-.626 4.436-1.198 6-1.14 3.12-2.656 4.979-2.656 8.487 0 2.773.862 6.428 2.656 9.317 1.535 2.47 2.752 5.575 3.835 7.515 3.822 6.848 6.071 6.848 10.958 9.03 2.418 1.08 9.6 3.505 12.383 3.505z" fill="#F4CD89" mask="url(#f)"/><ellipse fill="#592509" mask="url(#f)" cx="13.949" cy="24.644" rx="5" ry="4.043"/><ellipse fill="#592509" mask="url(#f)" cx="50.561" cy="25.528" rx="3.032" ry="3.158"/><ellipse fill="#592509" mask="url(#f)" cx="26.114" cy="28.686" rx="4.043" ry="3.158"/><path d="M31.781 13.564c.555 0 .83-.131 1.285-.377.302-.163.62-.243.906-.49.195-.168.211-.427.359-.627.136-.184.47-.638.564-1.376.094-.738.094-1.362 0-1.559-.095-.201-.312-.338-.447-.513-.088-.115-.14-.355-.243-.457a3.24 3.24 0 0 0-1.234-.762c-.324-.11-.636-.28-.998-.28-.378 0-.841-.005-1.178.115-.222.079-.404.289-.6.412-.248.155-.365.3-.56.515-.156.172-.818 1.355-.818 2.179 0 .823.346 1.663.462 1.872.41.736.65.736 1.175.971.259.116 1.03.377 1.327.377zM20.198 43.71c.326 0 .488-.077.755-.221.178-.096.366-.143.534-.289.114-.099.124-.251.21-.369a1.66 1.66 0 0 0 .333-.81c.055-.434.055-.8 0-.917-.056-.118-.184-.198-.263-.301-.052-.068-.083-.21-.143-.27a1.907 1.907 0 0 0-.726-.448c-.191-.064-.374-.164-.587-.164-.223 0-.495-.003-.694.067-.13.047-.237.17-.353.243-.146.091-.214.176-.33.303-.091.1-.48.797-.48 1.282 0 .484.203.978.271 1.101.241.434.383.434.692.572.152.068.605.222.78.222zm23.668 9.093c.638 0 .954-.132 1.477-.377.348-.164.715-.243 1.044-.49.224-.169.242-.428.412-.628.157-.183.542-.638.65-1.376.107-.738.107-1.362 0-1.558-.11-.201-.36-.338-.515-.513-.101-.116-.161-.355-.28-.457a3.854 3.854 0 0 0-1.42-.763c-.373-.11-.73-.28-1.147-.28-.436 0-.968-.004-1.356.115-.255.08-.465.29-.69.412-.286.156-.42.3-.645.516-.18.171-.941 1.354-.941 2.178 0 .824.398 1.664.531 1.872.472.737.75.737 1.352.972.299.116 1.185.377 1.528.377z" fill="#592509" mask="url(#f)"/></g><path d="M.675 43.166c.341-2.43 3.082-4.054 6.122-3.626.18.025.356.057.53.095-2.245-2.445-3.42-5.913-2.908-9.55.885-6.3 6.49-10.72 12.52-9.872 1.457.205 2.806.698 4 1.418.435-2.314 2.538-3.91 4.795-3.593 2.325.327 3.933 2.561 3.592 4.991a4.591 4.591 0 0 1-.669 1.826c1.174.654 1.82 1.784 1.587 3.443-.342 2.43-1.413 1.8-1.413 3.79 0 1.268.599 2.046.307 2.443.091.482.106.989.034 1.505-.342 2.43-1.138 2.635-4.328 4.788l-.033.022c-.341 2.294-.891 3.682-4.261 4.89-.89.32-1.583.308-2.115.073-.827 1.595-2.54 2.575-4.353 2.32-1.146-.161-2.619-.457-3.777-1.007-1.156.977-2.895 1.476-4.744 1.216-3.04-.427-5.228-2.743-4.886-5.172z" fill="#FFF"/><path d="M22.323 34.252c-.166-.603-1.82-2.12-2.113-2.463-.27-.317-2.326-.18-3.459.23-1.132.407-1.3 1.134-1.692 2.371-.391 1.238-.927 2.175-.83 3.597.097 1.422-.154 2.303 1.307 2.64 1.462.337 3.094.068 3.512-.053 1.475-.425 1.574-.853 2.205-1.687.312-.413 1.32-3.727 1.07-4.635zM12.004 20.275c-.117-.423-4.148-.58-5.091.097-.943.677-.65 1.524-.582 2.52.067.997-.109 1.615.916 1.851 1.024.237 2.168.048 2.461-.037 1.034-.298 1.103-.598 1.546-1.182.219-.29.925-2.613.75-3.25z" fill="#F4CD89"/><path d="M16.776 24.985c-.056-.202-1.974-.276-2.422.046-.449.322-.31.725-.277 1.199.032.474-.052.768.436.88a2.785 2.785 0 0 0 1.17-.017c.493-.142.525-.285.736-.563.104-.137.44-1.243.357-1.545zm-4.17 12.807c-.056-.2-1.974-.276-2.422.047-.449.322-.31.725-.277 1.199.032.474-.052.768.436.88a2.785 2.785 0 0 0 1.17-.017c.493-.142.526-.285.736-.563.104-.137.44-1.243.357-1.546z" fill="#592509"/><g transform="rotate(-54 93.4 4.588)"><path fill="#D0D0D0" d="M47.67 102.28h10.612v16.676H47.67z"/><path fill="#323232" d="M41.633 163.598h21.981V119.13h-21.98z"/><path fill="#525252" d="M52.396 156.383h11.117v-37.394H52.396z"/><use stroke="#323232" stroke-width="5.625" fill="#FFF" xlink:href="#g"/></g></g><g mask="url(#b)"><path d="M128.614 46.517L93.938 81.193 82.177 69.432c-1.623-1.42-4.056-1.623-5.678 0-1.42 1.42-1.42 4.46 0 5.678l14.6 14.6c1.622 1.622 4.056 1.622 5.678 0l37.515-37.515c1.42-1.42 1.623-4.056 0-5.678-1.622-1.622-4.258-1.622-5.678 0z" fill="#971ABE" fill-rule="nonzero"/></g></g></svg>