<svg id="Calque_1" xmlns="http://www.w3.org/2000/svg" viewBox="0 0 105 105"><style>.st0{fill:url(#SVGID_1_)}.st1{fill:#fff}</style><linearGradient id="SVGID_1_" gradientUnits="userSpaceOnUse" x1="221.212" y1="1441.639" x2="169.097" y2="1351.375" gradientTransform="translate(-127.67 -1341.82)"><stop offset="0" stop-color="#ff762b"/><stop offset="1" stop-color="#ffb605"/></linearGradient><path class="st0" d="M98.1 63.2L48.5 6c-5.6-6-15-6.4-21-.8-1.9 1.7-3.3 3.9-4 6.4L2.8 84.5c-2.6 7.9 1.6 16.4 9.4 19 2.6.9 5.4 1 8 .4l70.3-15.6c8.1-1.8 13.2-9.8 11.4-17.9-.6-2.8-1.9-5.2-3.8-7.2zM23.4 50.7l41-9 1.7 7.8-41 9.1-1.7-7.9zM30.7 81L29 73.2l41-9.1 1.7 7.8-41 9.1z"/><path transform="rotate(-12.439 44.796 50.104)" class="st1" d="M23.8 46.1h42v8h-42z"/><path transform="rotate(-12.439 50.295 72.608)" class="st1" d="M29.3 68.6h42v8h-42z"/></svg>