<svg xmlns="http://www.w3.org/2000/svg" width="56" height="58" viewBox="0 0 56 58"><defs><style>.cls-1{fill:none;stroke:#000;stroke-linecap:round;stroke-linejoin:round;stroke-width:.96px}</style></defs><title>Planche_PICTOS_20170728</title><g id="GABARIT_SVG" data-name="GABARIT SVG"><path d="M39.26 17.34a11.63 11.63 0 0 0-4.82-6.45 13 13 0 0 0-5.56-1.69 12.15 12.15 0 0 0-8.06 2.19 11.88 11.88 0 0 0-4.17 6.27 12.34 12.34 0 0 0 .67 8.74 20.93 20.93 0 0 0 1.55 2.6 12 12 0 0 1 2 4.1 7.17 7.17 0 0 1 .13 1.4 4.26 4.26 0 0 0 .19 1.43 5.08 5.08 0 0 0 2.89 2.7A9.17 9.17 0 0 0 27 39h2.56a7.31 7.31 0 0 0 2.17-.25 5.22 5.22 0 0 0 3-2.68 5.86 5.86 0 0 0 .3-1.79 9.79 9.79 0 0 1 .12-1.15 10.87 10.87 0 0 1 2-4.14 17.35 17.35 0 0 0 1.67-2.87 12.61 12.61 0 0 0 .44-8.78zm-1.34 8.37a16.62 16.62 0 0 1-1.59 2.71 11.61 11.61 0 0 0-2.14 4.5 10.19 10.19 0 0 0-.14 1.28 5.23 5.23 0 0 1-.22 1.47 4.26 4.26 0 0 1-2.38 2.11 6.47 6.47 0 0 1-1.86.2H27a8.43 8.43 0 0 1-2.61-.27 4.12 4.12 0 0 1-2.29-2.1 3.41 3.41 0 0 1-.13-1.1 8.21 8.21 0 0 0-.14-1.57 12.79 12.79 0 0 0-2.17-4.46A20 20 0 0 1 18.23 26a11.35 11.35 0 0 1-.61-8 10.88 10.88 0 0 1 3.8-5.74 11 11 0 0 1 6.46-2h.93a12 12 0 0 1 5.11 1.55 10.61 10.61 0 0 1 4.39 5.9 11.6 11.6 0 0 1-.39 8z"/><path class="cls-1" d="M31.65 43.4l-6.85-1.12a.5.5 0 0 0-.55.45l-.07.53a.53.53 0 0 0 .41.61L31.43 45a.5.5 0 0 0 .55-.45l.07-.53a.53.53 0 0 0-.4-.62zm.18-1.63L25 40.65a.5.5 0 0 0-.55.45l-.07.53a.53.53 0 0 0 .41.61l6.85 1.13a.5.5 0 0 0 .55-.45l.07-.53a.53.53 0 0 0-.43-.62z"/><path class="cls-1" d="M31.4 45l-.83-.14-4.83-.86-.7-.12a.75.75 0 0 0-.84.67.8.8 0 0 0 .62.91l.39.06h.12v.23a2.9 2.9 0 0 0 2.76 3 2.83 2.83 0 0 0 2.69-2.36l.4.07a.75.75 0 0 0 .84-.67.8.8 0 0 0-.62-.79z"/><path d="M27.65 24.45a5.38 5.38 0 0 1 3.3-3.1 8.09 8.09 0 0 0-2.8 4.39c4.13.2 6.27-3.27 5.81-6.69-4.05-.22-6.68 2.25-6.31 5.4zm-1.41.35a3.2 3.2 0 0 1-1.62-1.64l2.5 1.57c.07-2.47-1.89-4.1-4-3.59-.04 2.3 1.33 3.96 3.12 3.66zm3.85 2.88a.38.38 0 0 0-.45.12l-1.82 2.41L26 27.76a.38.38 0 0 0-.67.3c.51 2.4 1.67 9.48 1.69 9.55a.38.38 0 0 0 .37.31h.06a.37.37 0 0 0 .31-.43c0-.06-.81-4.9-1.37-7.95l1.12 1.51a.38.38 0 0 0 .3.15.35.35 0 0 0 .3-.15l1.2-1.6a70.76 70.76 0 0 0-1 8.09.37.37 0 0 0 .38.37.38.38 0 0 0 .37-.38 94.58 94.58 0 0 1 1.21-9.46.38.38 0 0 0-.18-.39z"/></g></svg>