<svg id="Calque_1" xmlns="http://www.w3.org/2000/svg" viewBox="0 0 186 160.5"><style>.st0{fill:#bfe6f9}.st1{fill:none}.st2{fill:#ffb18f}.st3{fill:#b5364a}.st4{fill:#f4a989}.st5{fill:#221c54}.st6{fill:#9c2d40}.st7{fill:#d43f56}.st8{fill:#ff9280}.st9{fill:#fff}.st10{fill:#01537c}.st11{fill:#013144}.st12{fill:#76bee2}.st13{fill:#b2b2b2}.st14{fill:#919191}.st15{fill:#cecece}.st16{fill:#a5e2f9}</style><circle class="st0" cx="92.7" cy="88.4" r="65.9"/><circle class="st0" cx="92.7" cy="88.4" r="65.9"/><path class="st1" d="M102.4 143.9l-2.7-25 2.7 25zm-39.9-17c-1.5 1-2.8 2.1-4.2 3.4l-9.5 9.3c5 3.3 10.3 6.1 16 8.3l-2.3-21zm51-2.8c-.8-.6-1.5-1.1-2.4-1.6l3 28.1c8.4-2.2 16.2-5.7 23.3-10.2-3.2-.6-6.3-2-8.9-4.2l-15-12.1z"/><g transform="translate(29 13)"><path class="st2" d="M66.4 91.7V74H47.3v14.5l-4.6 6.8c5 6.3 25.1 15.4 26.4-3.3-.4 0-1.4-.2-2.7-.3z"/><path class="st3" d="M75.2 28.3l2 3-.6.1 6.2 41.1-3.2 8.3c-.3.7-.6 1.4-.9 2-2.5 4.5-7 7.6-12.1 8.3-3.4.5-6.9 0-10-1.6L46 84.1l-4.1-2-2.2-14.9c-.5.5-1 .9-1.7 1.2L32.5 33l42.7-4.7z"/><ellipse transform="rotate(-8.583 78.71 57.488)" class="st4" cx="78.7" cy="57.5" rx="5" ry="5"/><path class="st2" d="M74.6 30.3l6.1 40.3-3.3 8.5c-.2.5-.5 1.1-.7 1.6-3.3 6-10.8 8.4-17.1 5.3l-2.4-1.2-16-8.1L35 36.3l39.6-6z"/><path class="st5" d="M57.5 61l-7.9 1.2c-.3-2.2 1.2-4.3 3.3-4.6 2.2-.3 4.3 1.2 4.6 3.4zm19.7-3l-7.9 1.2c-.3-2.2 1.3-4.2 3.4-4.5 2.1-.3 4.1 1.1 4.5 3.3z"/><path class="st6" d="M56.5 51.3l-9.7 2.4.4 2.8L57 55l-.5-3.7zm10.9-1.7l10-.4.4 2.7-9.8 1.6-.6-3.9z"/><path class="st7" d="M58 76.5l1.4 9.9-18.2-9.2-1.4-9.9L58 76.5z"/><path class="st8" d="M39.6 67.4l1.4 9.3 16 8-3-19.5-14.4 2.2zm34.2-5.1l2.8 18.4c.3-.5.5-1 .7-1.6l3.3-8.5-1.4-9.2-5.4.9z"/><path class="st2" d="M38.9 62.1l7.8-1.2.8 5.3-7.8 1.2-.8-5.3z"/><path class="st3" d="M76 39.6l1.8-.3 4 26.2-1.8.3-4-26.2z"/><path class="st7" d="M79.6 63.6l1.1 7-1.9 5-3.3-1.3 4.1-10.7z"/><path class="st3" d="M64.2 65.3l-5.3.8c-2.5.4-4.6 2.3-5.1 4.8l-2.7 12.8L68 90.5l-3.8-25.2zm0 0l4.9-.7c2.7-.4 5.4 1 6.5 3.5l3.9 8.4c.7 1.6.3 3.4-1 4.7l-10.4 9.3-3.9-25.2z"/><path class="st9" d="M72.1 69.5l-1.7 5.2c-.4 1.3-1.5 2.2-2.8 2.4l-3.1.5c-1.3.2-2.6-.4-3.4-1.4L58 71.6l14.1-2.1z"/><path class="st3" d="M37.7 29.7L45.9 84l-4-2-7.8-51.7 3.6-.6z"/><path class="st3" d="M66.7 26.2l6.9 6.2-37 5.6 2.2 14.6c-1.9-.8-3.8-2-5.2-3.4-2.6-2.7-4.4-6.2-4.9-9.9l-1.6-10.5 5.3-.8 34.3-1.8z"/><path class="st3" d="M74.5 31.4l1.7.9c1.4 9.4.2 6.4-9.2 7.8-7.5 1.1-14.8-2.8-18-9.3-.8-1.6-1.3-3.3-1.6-5.2L64.5 23l6.2 8.8c2.8 2.7 3.3-4.3 3.8-.4zM36 33.6l2.8 19c-1.9-.8-3.8-2-5.2-3.4-2.5-2.5-4.3-5.8-4.9-9.4l-.7-4.9 8-1.3z"/><path class="st6" d="M87.8 43.2L75.4 45c-4.8.7-9.3-.2-13.2-2.4l.6 4c-7.1-.2-13.6-4.1-17.1-10l-9 1.4c-2.9.4-5.6-1.5-6.1-4.5L49 30.8c3.2 6.5 10.5 10.5 18 9.3 9.4-1.4 9.4.4 8-8.9l5.3-.8c.7 4.5 6-1.9 3.4 1.5-.6.8-1.3 1.6-2.1 2.3 3.4 1.9 5.6 5.1 6.2 9z"/><ellipse transform="rotate(-8.583 35.91 63.695)" class="st4" cx="35.9" cy="63.7" rx="5" ry="5"/><path class="st3" d="M38.3 58.5l3.2-.5 1.8 12.1-3.2.5-1.8-12.1z"/></g><path class="st10" d="M63.8 63.1C65.4 64.5 93.5 36 93.5 36s-11.2-9.8-19.3-8.1c-4 .8-14 6.9-17.8 13.5-4 6.6-1.6 13.7 7.4 21.7z"/><path class="st8" d="M76.1 97.8l.2 3.6-4.6 6.8s20.1 9.6 23.6-3.6c-.9-.5-5.2-.2-7.1-.9-1.8-.7-12.1-5.9-12.1-5.9z"/><path class="st10" d="M77.9 52.3l14.7 7s15.9-2.6 24.5-16.1c-7-2.5-23.3-7.3-23.3-7.3L77.9 52.3z"/><path class="st11" d="M63.8 63.8c-.2 0-.4-.1-.5-.2-.2-.3-.2-.7.1-.9.2-.2 23.9-19.6 29.6-27.1.2-.3.6-.3.9-.1s.3.6.1.9C88.3 44 65.2 62.9 64.2 63.7c-.1 0-.2.1-.4.1z"/><path class="st11" d="M92.7 60h-.2c-10-4.3-14.8-7.1-14.9-7.1-.3-.2-.4-.6-.2-.8.2-.3.6-.4.8-.2 0 0 4.8 2.8 14.5 6.9 14.4-1.1 23.8-15.6 23.9-15.8.2-.3.6-.4.9-.2s.4.6.2.9c-.4.5-9.9 15.2-25 16.3 0-.1 0 0 0 0z"/><path class="st2" d="M50.1 138.9l8.1-8.7-9.4-9.7s-7.4 4.9-9.2 6.7c3.3 5.3 10.5 11.7 10.5 11.7z"/><path class="st2" d="M155.7 108.6l-7.8 14.6c-1 1.9-2.7 3.2-4.9 3.8-2.1.4-4.3-.1-6-1.4l-12.4-9.5c-5.6-4.5-15-9.7-22.1-10.5l-4.7-.5c0 .1-26.4 3.2-26.4 3.2h-.1l-4.5 1.4c-6.9 2.1-13.2 5.9-18.3 10.8l9.4 9.7c1.3-1.2 2.7-2.4 4.2-3.4l2.3 21c9 3.4 18.9 5.4 29.1 5.4 7.1 0 14-.9 20.5-2.6l-3-28.1c.8.5 5.3 3.8 6 4.5l11.5 9.3c2.6 2.1 5.7 3.4 8.9 4.2 1.3.3 2.6.4 4 .4s2.9-.2 4.4-.5c6.1-1.3 11.3-5.3 14.1-10.8l6-11.6-10.2-9.4z"/><path class="st12" d="M124.9 116c-5.6-4.5-15-9.7-22.1-10.5l-4.7-.5c0 .1-26.4 3.2-26.4 3.2h-.1l-4.5 1.4c-6.9 2.1-13.2 5.9-18.3 10.8l9.4 9.7c1.3-1.2 2.7-2.4 4.2-3.4l2.3 21c9 3.4 18.9 5.4 29.1 5.4 7.1 0 14-.9 20.5-2.6l-3-28.1c.8.5 5.3 3.8 6 4.5l7.6-10.9z"/><path class="st10" d="M59.4 110.5l3 16.4 2.3 21c10.7 6.9 33.9 8.7 49.6 2.7-1.9-16.1-4-43.2-4.8-46.6-.4-1.3-7.6-.1-6.8 1.5s2.2 9.1 1 17c-.7 5.2-30.7 6.8-33.3.4-2.6-6.5-4.2-12.4-5.3-14.8-.3-.7-6 1.5-5.7 2.4z"/><path class="st11" d="M86.9 128c-3.2 0-6-.4-7.7-.7-4.6-.9-8.3-2.4-9.3-4-2.1-3.2-5.3-14.5-5.4-15-.1-.3.1-.7.4-.8.3-.1.7.1.8.4 0 .1 3.1 11.6 5.3 14.6.7 1 3.9 2.5 8.5 3.4 3.3.6 14.8 2.2 23.8-3.8.6-9.2-1-16.5-1-16.5-.1-.3.1-.7.5-.7.3-.1.7.1.7.5 0 .1 1.8 7.7 1.1 17.2 0 .2-.1.4-.3.5-5.8 3.9-12.1 4.9-17.4 4.9z"/><path class="st13" d="M147.5 97.7l-5.6 1.4-14.1-8 3.5-4.8 8.4 4.8 2.7-3.5-8.4-5.5 4.2-5.5 12.7 9.2 1.3 6.5-4.7 5.4z"/><path class="st14" d="M145.7 99.7l-4 1.4-14.7-7.5.8-2.5 14.1 8 5.6-1.4-1.8 2zm-11.6-17.6l1.3 1.9 5.4 3.6-2 2.8 1 .6 2.7-3.5-8.4-5.4z"/><path class="st15" d="M136.9 78.5l14.6 10.3-.5-3-12.7-9.2-1.4 1.9z"/><path class="st13" d="M172.1 110.1l12.4 11-18.2-16.2c-.2.7-.6 1.4-1.1 2l-.5.5c-1 .9-2.2 1.3-3.5 1.4-.4 0-.9 0-1.3-.1l1 .8 2.2 1.9 16.7 14.9-1.8 2 4.8-5.4-12.4-11 1.7-1.8zm-24.6-12.4l6.7 6 .3.3.2.2c0-.1-.1-.2-.1-.3s0-.2-.1-.3c-.3-1.6 0-3.2 1-4.7l.3-.3c.5-.6 1.2-1.1 1.9-1.4l-5.5-4.9-4.7 5.4z"/><path class="st8" d="M156.2 108.3l-4.1-4.1c-1.4.5-2.1 2.1-1.7 3.6.4 1.2 1.4 2 2.5 2 .3 0 .5 0 .8-.1l2.1-.8.8-.3-.4-.3z"/><path class="st14" d="M162.9 111.5l-2.2-1.9-1-.8c-.9-.2-1.8-.6-2.6-1.3l-.7-.6-.1-.1c-.5-.4-.9-1-1.2-1.5-.2-.3-.3-.6-.4-.9l-.2-.2-.3-.3-6.7-6-1.8 2 5.6 5 2.8 2.5.3.3 5 4.5 2.3 2 16.2 14.5 1.8-2-16.8-15.2z"/><path class="st2" d="M167.1 98c-.1-.2-.3-.3-.5-.4l-.9-.8c-2.1-1.8-5-2.2-7.4-1.1-.8.4-1.6.9-2.2 1.7-.1.1-.2.3-.3.4-1.3 1.6-1.7 3.8-1.3 5.6 0 .1 0 .2.1.3 0 .1.1.2.1.3.1.4.3.7.5 1.1.4.7.8 1.3 1.5 1.9l.2.1.8.7c.9.8 2 1.3 3.1 1.6.5.1 1.1.2 1.6.1 1.5-.1 3-.6 4.3-1.7l.6-.6c.6-.7 1.1-1.6 1.4-2.4.7-2.3.1-5-1.6-6.8z"/><path class="st16" d="M51.1 118.5l-3.2 2.6 9.5 10.4 2.8-2.9-9.1-10.1zm73.8-2.5l-7.7 10.8 2.3 1.8 8.2-10.4-2.8-2.2z"/><path class="st15" d="M170.2 112l12.4 11.2 1.9-2.1L172 110l-1.8 2z"/></svg>