<svg xmlns="http://www.w3.org/2000/svg" width="240" height="120" viewBox="0 0 240 120"><defs><style>.cls-1{fill:#5e93cc}.cls-2{fill:#e6e6e6}.cls-3{fill:#fff}.cls-4{fill:none;stroke:#059ce7;stroke-linecap:round;stroke-linejoin:round;stroke-width:8px}</style></defs><title>Plan de travail 3</title><g id="Calque_4" data-name="Calque 4"><path class="cls-1" d="M177.19 48.66H86.3c-3.93 0-7.11 2.33-7.11 5.19v53.5c0 2.87.8 2.95 4.73 2.95h95.65c3.93 0 4.73-.08 4.73-2.95v-53.5c0-2.85-3.18-5.19-7.11-5.19z"/><path class="cls-2" d="M184.3 53v3.21H79.19V53c0-1.37.8-4.36 4.73-4.36h96A4 4 0 0 1 184.3 53z"/><path class="cls-1" d="M113.19 60.1h37.1v7.2h-37.1z"/><path class="cls-3" d="M117.27 55.39h30.37a1.5 1.5 0 0 1 1.5 1.5 1.5 1.5 0 0 1-1.5 1.5h-30.37a1.5 1.5 0 0 1-1.5-1.5 1.5 1.5 0 0 1 1.5-1.5zm29.5 37.12l-3.51-1.95 3-1.73a1.11 1.11 0 0 0 .44-1.5 1.2 1.2 0 0 0-1.61-.4l-4.19 2.37-6.31-3.51 6.31-3.51 4.19 2.37a1.21 1.21 0 0 0 1.61-.4 1.11 1.11 0 0 0-.37-1.53l-3-1.73 3.44-1.99a1.11 1.11 0 0 0 .45-1.5 1.2 1.2 0 0 0-1.61-.42L142.09 79v-3.4a1.16 1.16 0 0 0-1.19-1.12 1.16 1.16 0 0 0-1.17 1.14v4.68l-6.31 3.51v-7l4.23-2.3a1.11 1.11 0 0 0 .47-1.5 1.2 1.2 0 0 0-1.6-.43l-3.07 1.67v-3.9a1.16 1.16 0 0 0-1.18-1.13 1.16 1.16 0 0 0-1.18 1.13v3.9L128 72.51a1.2 1.2 0 0 0-1.6.43 1.11 1.11 0 0 0 .4 1.52l4.23 2.3v7l-6.31-3.51v-4.68a1.16 1.16 0 0 0-1.17-1.14 1.16 1.16 0 0 0-1.18 1.12v3.4L118.91 77a1.2 1.2 0 0 0-1.61.41 1.11 1.11 0 0 0 .39 1.52l3.55 2.07-3 1.73a1.11 1.11 0 0 0-.44 1.5 1.21 1.21 0 0 0 1.61.4l4.19-2.37 6.31 3.51-6.31 3.51-4.19-2.38a1.2 1.2 0 0 0-1.61.4 1.11 1.11 0 0 0 .37 1.52l3 1.72-3.51 1.95a1.11 1.11 0 0 0-.45 1.5 1.21 1.21 0 0 0 1.61.41l3.51-1.95v3.4a1.16 1.16 0 0 0 1.3 1.15 1.16 1.16 0 0 0 1.17-1.14v-4.68l6.31-3.51v7L126.84 97a1.11 1.11 0 0 0-.47 1.5 1.21 1.21 0 0 0 1.63.5l3.07-1.67v3.9a1.18 1.18 0 0 0 2.36 0v-3.9L136.5 99a1.21 1.21 0 0 0 1.6-.43 1.11 1.11 0 0 0-.4-1.52l-4.23-2.3v-7l6.31 3.51v4.68a1.16 1.16 0 0 0 1.09 1.06 1.16 1.16 0 0 0 1.18-1.12v-3.4l3.51 1.95a1.21 1.21 0 0 0 1.61-.42 1.11 1.11 0 0 0-.39-1.52z"/><path class="cls-4" d="M233.47 23.83l-17.19 19.14-10.85-9.61"/></g></svg>