<svg preserveAspectRatio="xMinYMin meet" xmlns="http://www.w3.org/2000/svg" viewBox="0 0 135 40"><path d="M130 40H5c-2.8 0-5-2.3-5-5V5c0-2.7 2.3-5 5-5h125c2.8 0 5 2.3 5 5v30c0 2.7-2.2 5-5 5z"/><path fill="#A6A6A6" d="M130 .8c2.3 0 4.2 1.9 4.2 4.2v30c0 2.3-1.9 4.2-4.2 4.2H5C2.7 39.2.8 37.3.8 35V5C.8 2.7 2.7.8 5 .8h125m0-.8H5C2.3 0 0 2.3 0 5v30c0 2.8 2.3 5 5 5h125c2.8 0 5-2.3 5-5V5c0-2.7-2.2-5-5-5z"/><path fill="#FFF" d="M68.1 21.8c-2.4 0-4.3 1.8-4.3 4.3 0 2.4 1.9 4.3 4.3 4.3s4.3-1.8 4.3-4.3c0-2.6-1.9-4.3-4.3-4.3zm0 6.8c-1.3 0-2.4-1.1-2.4-2.6s1.1-2.6 2.4-2.6c1.3 0 2.4 1 2.4 2.6 0 1.5-1.1 2.6-2.4 2.6zm-9.3-6.8c-2.4 0-4.3 1.8-4.3 4.3 0 2.4 1.9 4.3 4.3 4.3s4.3-1.8 4.3-4.3c0-2.6-1.9-4.3-4.3-4.3zm0 6.8c-1.3 0-2.4-1.1-2.4-2.6s1.1-2.6 2.4-2.6c1.3 0 2.4 1 2.4 2.6 0 1.5-1.1 2.6-2.4 2.6zm-11.1-5.5v1.8H52c-.1 1-.5 1.8-1 2.3-.6.6-1.6 1.3-3.3 1.3-2.7 0-4.7-2.1-4.7-4.8s2.1-4.8 4.7-4.8c1.4 0 2.5.6 3.3 1.3l1.3-1.3c-1.1-1-2.5-1.8-4.5-1.8-3.6 0-6.7 3-6.7 6.6 0 3.6 3.1 6.6 6.7 6.6 2 0 3.4-.6 4.6-1.9 1.2-1.2 1.6-2.9 1.6-4.2 0-.4 0-.8-.1-1.1h-6.2zm45.4 1.4c-.4-1-1.4-2.7-3.6-2.7s-4 1.7-4 4.3c0 2.4 1.8 4.3 4.2 4.3 1.9 0 3.1-1.2 3.5-1.9l-1.4-1c-.5.7-1.1 1.2-2.1 1.2s-1.6-.4-2.1-1.3l5.7-2.4-.2-.5zm-5.8 1.4c0-1.6 1.3-2.5 2.2-2.5.7 0 1.4.4 1.6.9l-3.8 1.6zM82.6 30h1.9V17.5h-1.9V30zm-3-7.3c-.5-.5-1.3-1-2.3-1-2.1 0-4.1 1.9-4.1 4.3s1.9 4.2 4.1 4.2c1 0 1.8-.5 2.2-1h.1v.6c0 1.6-.9 2.5-2.3 2.5-1.1 0-1.9-.8-2.1-1.5l-1.6.7c.5 1.1 1.7 2.5 3.8 2.5 2.2 0 4-1.3 4-4.4V22h-1.8v.7zm-2.2 5.9c-1.3 0-2.4-1.1-2.4-2.6s1.1-2.6 2.4-2.6c1.3 0 2.3 1.1 2.3 2.6s-1 2.6-2.3 2.6zm24.4-11.1h-4.5V30h1.9v-4.7h2.6c2.1 0 4.1-1.5 4.1-3.9s-2-3.9-4.1-3.9zm.1 6h-2.7v-4.3h2.7c1.4 0 2.2 1.2 2.2 2.1-.1 1.1-.9 2.2-2.2 2.2zm11.5-1.8c-1.4 0-2.8.6-3.3 1.9l1.7.7c.4-.7 1-.9 1.7-.9 1 0 1.9.6 2 1.6v.1c-.3-.2-1.1-.5-1.9-.5-1.8 0-3.6 1-3.6 2.8 0 1.7 1.5 2.8 3.1 2.8 1.3 0 1.9-.6 2.4-1.2h.1v1h1.8v-4.8c-.2-2.2-1.9-3.5-4-3.5zm-.2 6.9c-.6 0-1.5-.3-1.5-1.1 0-1 1.1-1.3 2-1.3.8 0 1.2.2 1.7.4-.2 1.2-1.2 2-2.2 2zm10.5-6.6l-2.1 5.4h-.1l-2.2-5.4h-2l3.3 7.6-1.9 4.2h1.9l5.1-11.8h-2zm-16.8 8h1.9V17.5h-1.9V30z"/><linearGradient id="a" x1="21.8" x2="5.02" y1="33.07" y2="16.29" gradientUnits="userSpaceOnUse" gradientTransform="matrix(1 0 0 -1 0 41.78)"><stop offset="0" stop-color="#00a0ff"/><stop offset=".01" stop-color="#00a1ff"/><stop offset=".26" stop-color="#00beff"/><stop offset=".51" stop-color="#00d2ff"/><stop offset=".76" stop-color="#00dfff"/><stop offset="1" stop-color="#00e3ff"/></linearGradient><path fill="url(#a)" d="M10.4 7.5c-.3.3-.4.8-.4 1.4V31c0 .6.2 1.1.5 1.4l.1.1L23 20.1v-.2L10.4 7.5z"/><linearGradient id="b" x1="33.83" x2="9.64" y1="21.78" y2="21.78" gradientUnits="userSpaceOnUse" gradientTransform="matrix(1 0 0 -1 0 41.78)"><stop offset="0" stop-color="#ffe000"/><stop offset=".41" stop-color="#ffbd00"/><stop offset=".78" stop-color="orange"/><stop offset="1" stop-color="#ff9c00"/></linearGradient><path fill="url(#b)" d="M27 24.3l-4.1-4.1v-.3l4.1-4.1.1.1 4.9 2.8c1.4.8 1.4 2.1 0 2.9l-5 2.7z"/><linearGradient id="c" x1="24.83" x2="2.07" y1="19.48" y2="-3.27" gradientUnits="userSpaceOnUse" gradientTransform="matrix(1 0 0 -1 0 41.78)"><stop offset="0" stop-color="#ff3a44"/><stop offset="1" stop-color="#c31162"/></linearGradient><path fill="url(#c)" d="M27.1 24.2L22.9 20 10.4 32.5c.5.5 1.2.5 2.1.1l14.6-8.4"/><linearGradient id="d" x1="7.3" x2="17.46" y1="41.6" y2="31.44" gradientUnits="userSpaceOnUse" gradientTransform="matrix(1 0 0 -1 0 41.78)"><stop offset="0" stop-color="#32a071"/><stop offset=".07" stop-color="#2da771"/><stop offset=".48" stop-color="#15cf74"/><stop offset=".8" stop-color="#06e775"/><stop offset="1" stop-color="#00f076"/></linearGradient><path fill="url(#d)" d="M27.1 15.8L12.5 7.5c-.9-.5-1.6-.4-2.1.1L22.9 20l4.2-4.2z"/><path fill="#FFF" d="M45.4 7.8c-.6-.6-1.3-.9-2.3-.9h-1.9v6.2h1.9c.9 0 1.7-.3 2.3-.9.6-.6.9-1.3.9-2.2s-.3-1.7-.9-2.2zm-.1 2.2c0 .7-.2 1.2-.6 1.6-.4.4-.9.6-1.6.6h-1V7.8h1c.7 0 1.2.2 1.6.6.4.4.6.9.6 1.6zm1.8-3.1h1v6.2h-1zm5.9 3.7c-.1-.2-.3-.4-.5-.6-.2-.2-.4-.3-.6-.4-.2-.1-.4-.2-.8-.3-.4-.1-.6-.3-.8-.4-.2-.1-.3-.3-.3-.5s.1-.4.3-.5c.2-.1.4-.2.7-.2.3 0 .5.1.7.2.2.1.3.3.3.5v.1l1-.4V8c-.1-.3-.3-.6-.7-.9-.3-.2-.7-.3-1.3-.3-.6 0-1 .2-1.4.5-.4.3-.5.7-.5 1.2 0 .4.1.8.4 1.1.3.3.7.5 1.2.7.5.2.9.3 1.1.5.2.2.3.4.3.7 0 .3-.1.5-.3.6-.2.2-.5.2-.8.2-.3 0-.6-.1-.8-.3-.2-.2-.4-.5-.5-.8v-.1l-.9.4v.1c.1.5.4 1 .9 1.3.4.3.9.4 1.3.4.2 0 .5 0 .7-.1.2-.1.5-.2.7-.3.2-.1.4-.3.5-.6s.2-.5.2-.8c.1-.4 0-.7-.1-.9zm4.6-3.2c-.4-.4-.9-.5-1.4-.5h-2.1v6.2h1v-2.4h1.2c.5 0 1-.2 1.4-.5.4-.4.6-.8.6-1.4-.1-.6-.3-1-.7-1.4zm-.4 1.4c0 .2-.1.5-.3.7-.2.2-.4.3-.7.3H55v-2h1.2c.3 0 .5.1.7.3.2.2.3.4.3.7zm6.9-1.1c-.6-.6-1.4-.9-2.3-.9-.9 0-1.7.3-2.3.9-.6.6-.9 1.4-.9 2.3s.3 1.7.9 2.3c.6.6 1.4.9 2.3.9s1.7-.3 2.3-.9c.6-.6.9-1.4.9-2.3 0-.9-.3-1.7-.9-2.3zM64 10c0 .7-.2 1.2-.6 1.7-.4.4-.9.6-1.6.6-.6 0-1.1-.2-1.6-.6-.4-.4-.6-1-.6-1.7s.2-1.2.6-1.7c.4-.4.9-.6 1.6-.6.6 0 1.1.2 1.6.6.4.5.6 1 .6 1.7zm5.7-3.1v4.5l-2.8-4.5h-1.1v6.2h1V8.4l2.9 4.7h1V6.9m1.1 0h1v6.2h-1zm6.2 3.5c-.2-.2-.4-.4-.6-.5.2-.1.3-.3.5-.4.2-.2.2-.5.2-.8 0-.5-.2-.9-.5-1.2-.4-.3-.8-.5-1.3-.5H74v6.2h2.4c.5 0 1-.2 1.3-.5.4-.3.6-.8.6-1.3s-.1-.8-.3-1zm-.7.9c0 .2-.1.4-.3.6-.2.2-.4.3-.6.3H75v-1.8h1.4c.3 0 .5.1.7.3.1.2.2.4.2.6zM75 9.5V7.8h1.3c.3 0 .4.1.6.3.2.2.2.4.2.6 0 .2-.1.4-.2.6-.2.2-.4.3-.6.3H75zm5.1 2.7V6.9h-1v6.2h3.6v-.9m4.5-4.4v-.9h-3.7v6.2h3.7v-.9h-2.7v-1.7h2.4v-1h-2.4V7.8m9.2 2.8c-.1-.2-.3-.4-.5-.6-.2-.2-.4-.3-.6-.4-.2-.1-.4-.2-.8-.3-.3-.1-.6-.2-.8-.3-.2-.1-.3-.3-.3-.5s.1-.4.3-.5c.2-.1.4-.2.7-.2.3 0 .5.1.7.2.2.1.3.3.3.5v.1l.9-.4v-.1c-.1-.3-.3-.6-.7-.9-.3-.3-.8-.4-1.3-.4-.6 0-1 .2-1.4.5-.4.3-.5.7-.5 1.2 0 .4.1.8.4 1.1.3.3.7.5 1.2.7.5.2.9.3 1.1.5.2.2.3.4.3.7 0 .3-.1.5-.3.6-.2.2-.5.2-.8.2-.3 0-.6-.1-.8-.3-.2-.2-.4-.5-.5-.8v-.1l-.9.4v.1c.1.5.4 1 .9 1.3.4.3.9.4 1.3.4.2 0 .5 0 .7-.1.2-.1.5-.2.7-.3.2-.1.4-.3.5-.6s.2-.5.2-.8c.1-.4.1-.7 0-.9zm4.6-3.7v3.9c0 .4-.1.8-.3 1.1-.2.3-.6.4-1 .4s-.8-.1-1-.4c-.2-.3-.3-.6-.3-1.1V6.9h-1v3.9c0 .7.2 1.3.6 1.8.4.5 1 .7 1.7.7s1.3-.2 1.7-.7c.4-.5.6-1 .6-1.8V6.9h-1zm4.7 3.7c.4-.1.7-.3 1-.6.3-.3.4-.7.4-1.2s-.2-1-.6-1.4c-.4-.4-.9-.5-1.4-.5h-2.1v6.2h1v-2.4h.7l1.6 2.4h1.1v-.2l-1.7-2.3zm.4-1.8c0 .3-.1.5-.3.7-.2.2-.4.3-.7.3h-1.1v-2h1.2c.3 0 .5.1.7.3.1.2.2.4.2.7z"/></svg>