<svg id="Calque_1" xmlns="http://www.w3.org/2000/svg" viewBox="0 0 53.3 39.3"><style>.st0{fill:url(#SVGID_1_)}.st1{fill:#fff}</style><title>Plan de travail 2</title><linearGradient id="SVGID_1_" gradientUnits="userSpaceOnUse" x1="-423.46" y1="898.899" x2="-422" y2="898.899" gradientTransform="matrix(0 27.0014 .83 0 -719.453 11433.406)"><stop offset="0" stop-color="#0C022F"/><stop offset=".35" stop-color="#0C022F"/><stop offset=".48" stop-color="#283079"/><stop offset=".55" stop-color="#36479E"/><stop offset=".61" stop-color="#35479A"/><stop offset=".66" stop-color="#33478F"/><stop offset=".71" stop-color="#30477C"/><stop offset=".76" stop-color="#2B4761"/><stop offset=".81" stop-color="#25473E"/><stop offset=".85" stop-color="#1F471D"/><stop offset="1" stop-color="#1F471D"/></linearGradient><path class="st0" d="M0 0h53.3v39.3H0z"/><path class="st1" d="M16.4 18.8h11.4c-.1-2.3-.7-4.6-2.4-6.1-2.1-1.8-5.7-2.5-8.9-2.5s-7.2.8-9.3 2.7C5.4 14.5 5 17.2 5 19.6s.8 5.4 2.7 7.1c2 1.7 5.5 2.3 8.7 2.3s6.6-.5 8.7-2.2c2.1-1.7 2.8-4.5 2.8-7.1H16.4v-.9zm12.2.8v8.9h15.9c2.3-.1 4.2-2 4.2-4.4 0-2.4-1.8-4.3-4.2-4.5H28.6zm19.8-4.9c0-2.2-1.7-4-3.9-4.1H28.6v8.2h16c2.1-.2 3.8-2 3.8-4.1z"/></svg>