<svg id="Calque_1" xmlns="http://www.w3.org/2000/svg" viewBox="0 0 284.9 125.6"><style>.st0{fill:url(#SVGID_1_)}.st1{fill:#fff}</style><linearGradient id="SVGID_1_" gradientUnits="userSpaceOnUse" x1="1.447" y1="-488.426" x2="284.065" y2="-459.588" gradientTransform="matrix(1 0 0 -1 0 -408.2)"><stop offset="0" stop-color="#0c5caf"/><stop offset="1" stop-color="#009de9"/></linearGradient><path class="st0" d="M222.1 0H62.8C28.1 0 0 28.1 0 62.8c0 34.7 28.1 62.8 62.8 62.8h222.1V62.8c0-34.6-28.1-62.8-62.8-62.8z"/><path class="st1" d="M81 84.5c.9 1.1 1.3 2.5 1.3 4.3 0 2.5-1.5 4.7-4.6 6.4-2.8 1.6-6 2.8-9.5 3.8-3.5.9-6.9 1.4-10.1 1.4-9.7 0-17.4-2.8-23-8.4-5.7-5.6-8.5-13.2-8.5-22.9 0-6.2 1.2-11.6 3.7-16.4 2.5-4.8 5.9-8.5 10.4-11.1s9.5-3.9 15.2-3.9c5.4 0 10.1 1.2 14.2 3.6 4 2.4 7.1 5.7 9.4 10.1 2.2 4.4 3.3 9.5 3.3 15.4 0 3.5-1.6 5.3-4.7 5.3H41.8c.5 5.7 2.1 9.8 4.8 12.5 2.7 2.7 6.6 4 11.8 4 2.6 0 4.9-.3 7-1 2-.7 4.3-1.6 6.8-2.7 2.5-1.3 4.3-2 5.4-2 1.4 0 2.5.5 3.4 1.6zm-34.7-32c-2.5 2.6-4 6.4-4.5 11.3h27.8c-.2-5-1.4-8.8-3.7-11.4-2.3-2.6-5.5-3.9-9.6-3.9-4.2 0-7.5 1.4-10 4zm84.9 45.6c-1.2-1.2-1.9-2.9-1.9-4.9V36H110c-4.2 0-6.4-1.9-6.4-5.6 0-3.7 2.1-5.6 6.4-5.6h52.2c4.2 0 6.4 1.9 6.4 5.6 0 3.7-2.1 5.6-6.4 5.6h-19.3v57.2c0 2-.6 3.7-1.9 4.9-1.2 1.2-2.9 1.9-4.9 1.9-2-.1-3.7-.7-4.9-1.9zm47.2 0c-1.2-1.3-1.9-2.9-1.9-5V31c0-2 .6-3.7 1.9-4.9 1.2-1.2 2.9-1.9 4.9-1.9 2.1 0 3.8.6 5 1.9 1.2 1.2 1.9 2.9 1.9 4.9v62.1c0 2-.6 3.7-1.9 5-1.2 1.3-2.9 1.9-5 1.9-2 0-3.6-.6-4.9-1.9zm24.5.1c-1.2-1.2-1.9-2.9-1.9-5V31.3c0-2 .6-3.6 1.7-4.8 1.2-1.1 2.8-1.7 4.8-1.7h26c8 0 14.2 2 18.6 6 4.4 4 6.7 9.6 6.7 16.8s-2.2 12.8-6.7 16.8c-4.4 4-10.7 6-18.6 6h-18.9v22.8c0 2.1-.6 3.8-1.9 5-1.2 1.2-2.9 1.9-5 1.9-1.9-.1-3.5-.7-4.8-1.9zM232 59.9c9.4 0 14.1-4.1 14.1-12.3s-4.7-12.3-14.1-12.3h-17.3v24.6H232zM112.2 72H98.6c-2.2 0-3.9-1.7-3.9-3.9v-.3c0-2.2 1.7-3.9 3.9-3.9h13.6c2.2 0 3.9 1.7 3.9 3.9v.3c0 2.2-1.7 3.9-3.9 3.9z"/></svg>