<svg xmlns="http://www.w3.org/2000/svg" width="134" height="134" viewBox="0 0 134 134"><g fill="none" fill-rule="evenodd"><circle cx="67" cy="67" r="67" fill="#DEF8FB"/><g transform="translate(19 13)"><ellipse cx="47.5" cy="44.551" fill="#FFDF68" fill-rule="nonzero" rx="28.362" ry="28.388"/><rect width="10" height="2" x=".091" y="42.686" fill="#FFF" rx="1" transform="rotate(8 5.09 43.686)"/><rect width="10" height="2" x="83.091" y="42.686" fill="#FFF" rx="1" transform="scale(-1 1) rotate(8 0 -1216.067)"/><rect width="10" height="2" x="6.801" y="23.432" fill="#FFF" rx="1" transform="rotate(31 11.8 24.432)"/><rect width="10" height="2" x="78.199" y="23.432" fill="#FFF" rx="1" transform="scale(-1 1) rotate(31 0 -275.574)"/><rect width="10" height="2" x="21.98" y="9.473" fill="#FFF" rx="1" transform="rotate(50 26.98 10.473)"/><rect width="10" height="2" x="60.657" y="9.473" fill="#FFF" rx="1" transform="scale(1 -1) rotate(50 88.116 0)"/><rect width="10" height="2" x="41.26" y="4.045" fill="#FFF" rx="1" transform="rotate(87 46.26 5.045)"/><path fill="#FFDF68" fill-rule="nonzero" d="M34.732 69.825h25.527v7.097H34.732z"/><path fill="#D7D7D7" fill-rule="nonzero" d="M38.524 94.63v8.08c0 .544.208 1.087.623 1.502a2.116 2.116 0 0 0 3.003 0c.415-.414.623-.958.623-1.503v-8.078h-4.25z"/><path fill="#F9FDFF" fill-rule="nonzero" d="M40.65 103.561a.852.852 0 0 1-.851-.851v-8.08h-.85v8.08a1.7 1.7 0 0 0 1.7 1.7.424.424 0 0 0 0-.849z"/><path fill="#D7D7D7" fill-rule="nonzero" d="M52.225 94.63v8.08c0 .544.209 1.087.624 1.502a2.112 2.112 0 0 0 3.003 0 2.12 2.12 0 0 0 .623-1.503v-8.078h-4.25z"/><path fill="#F9FDFF" fill-rule="nonzero" d="M54.35 103.561a.85.85 0 0 1-.85-.851v-8.08h-.848v8.08a1.696 1.696 0 0 0 1.7 1.7.424.424 0 0 0-.001-.849z"/><path fill="#34495E" fill-rule="nonzero" d="M33.317 76.916h28.36v17.709h-28.36z"/><path fill="#5D6D7E" fill-rule="nonzero" d="M61.68 76.92H33.32l-.977.976h30.312z"/><path fill="#283A4D" fill-rule="nonzero" d="M61.68 78.87H33.32l-.977-.974h30.312z"/><path fill="#5D6D7E" fill-rule="nonzero" d="M61.68 80.073H33.32l-.977.974h30.312z"/><path fill="#283A4D" fill-rule="nonzero" d="M61.68 82.021H33.32l-.977-.974h30.312z"/><path fill="#5D6D7E" fill-rule="nonzero" d="M61.68 83.224H33.32l-.977.976h30.312z"/><path fill="#283A4D" fill-rule="nonzero" d="M61.68 85.176H33.32l-.977-.976h30.312z"/><path fill="#5D6D7E" fill-rule="nonzero" d="M61.68 86.376H33.32l-.977.973h30.312z"/><path fill="#283A4D" fill-rule="nonzero" d="M61.68 88.326H33.32l-.977-.977h30.312z"/><path fill="#5D6D7E" fill-rule="nonzero" d="M61.68 89.527H33.32l-.977.978h30.312z"/><path fill="#283A4D" fill-rule="nonzero" d="M61.68 91.478H33.32l-.977-.973h30.312z"/><path fill="#5D6D7E" fill-rule="nonzero" d="M61.68 92.678H33.32l-.977.976h30.312z"/><path fill="#283A4D" fill-rule="nonzero" d="M61.68 94.63H33.32l-.977-.976h30.312z"/><path d="M40.63 25.633c2.325 2.328 1.518 6.91-1.804 10.235-3.323 3.328-7.902 4.137-10.23 1.807-2.325-2.329-1.517-6.91 1.805-10.24 3.324-3.324 7.903-4.13 10.228-1.802zM65.198 55.24c1.357 1.36.886 4.033-1.052 5.971-1.937 1.941-4.61 2.41-5.967 1.054-1.356-1.36-.884-4.03 1.054-5.97 1.937-1.94 4.609-2.413 5.965-1.054z" fill="#F8ECBD" fill-rule="nonzero"/><g fill="#34495E" fill-rule="nonzero"><path d="M47.077 51.92h1v25.004h-1z"/><path d="M47.5 52.51l-7.33-7.336.594-.593 6.736 6.743 6.736-6.743.594.593z"/></g></g></g></svg>