<svg xmlns="http://www.w3.org/2000/svg" width="90" height="131" viewBox="0 0 90 131"><g fill="none"><path fill="#AFAFAF" d="M89.126 8.415c0-4.25-3.582-7.287-8.126-7.287H11.447c-4.544 0-8.913 3.123-8.913 7.287v113.996c0 4.251 4.369 8.589 8.913 8.589h69.64c4.544 0 8.127-4.425 8.127-8.589V8.415h-.088z" opacity=".17"/><path fill="#CCEE04" d="M86.592 118.16c0 4.685-3.844 8.502-8.563 8.502H9.874c-4.719 0-8.563-3.817-8.563-8.502V8.59C1.31 3.904 5.155.087 9.874.087h68.155c4.719 0 8.563 3.817 8.563 8.502V118.16z"/><path fill="#EDF97D" d="M44.913 1.128h-34.69C5.505 1.128.786 3.21.786 7.895V118.16c0 4.685 4.719 7.288 9.437 7.288h34.69V1.128z"/><path fill="#3C3C3B" d="M68.33 79.12c0 3.557-2.883 6.42-6.466 6.42H26.04c-3.583 0-6.466-2.863-6.466-6.42V33.835c0-3.557 2.883-6.42 6.466-6.42h35.825c3.583 0 6.466 2.863 6.466 6.42v45.287z"/><path fill="#E3E3E3" d="M67.02 78.253c0 3.123-2.535 5.64-5.68 5.64H26.65c-3.145 0-5.68-2.517-5.68-5.64V34.528c0-3.123 2.535-5.639 5.68-5.639h34.602c3.146 0 5.68 2.516 5.68 5.64v43.724h.087z"/><path fill="#95C11F" d="M48.32 102.631a1.56 1.56 0 0 1-1.572 1.562h-5.593a1.56 1.56 0 0 1-1.572-1.562v-1.128a1.56 1.56 0 0 1 1.572-1.561h5.593a1.56 1.56 0 0 1 1.572 1.561v1.128z"/><path fill="#3C3C3B" d="M48.32 103.152a1.56 1.56 0 0 1-1.572 1.561h-5.593a1.56 1.56 0 0 1-1.572-1.561v-1.128h8.737v1.128z"/><path fill="#F6F6F6" d="M63.175 75.737a3.121 3.121 0 0 1-3.146 3.123H27.874a3.121 3.121 0 0 1-3.146-3.123V48.67a3.121 3.121 0 0 1 3.146-3.124h32.243a3.121 3.121 0 0 1 3.145 3.124v27.067h-.087z"/><path fill="#FCFAFA" d="M43.165 30.364h-16.34c-3.145 0-3.932 1.215-3.932 4.338v43.724c0 3.124.787 4.946 3.932 4.946h16.34V30.364z"/><path fill="#3C3C3B" d="M60.379 73.221a2.62 2.62 0 0 1-2.622 2.603H30.233c-1.398 0-2.621-1.128-2.621-2.603V51.185a2.62 2.62 0 0 1 2.621-2.602h27.524c1.398 0 2.622 1.128 2.622 2.602v22.036z"/><path fill="#878787" d="M27.612 57.345h32.767v9.717H27.612z"/><path fill="#9D9D9C" d="M27.612 57.345v9.717h23.242c2.71-2.603 4.719-5.987 5.593-9.717H27.612z"/><path fill="#DEDC00" d="M48.757 10.844c0 .781-.611 1.388-1.398 1.388h-3.32a1.375 1.375 0 0 1-1.398-1.388V8.936c0-.781.611-1.388 1.398-1.388h3.32c.787 0 1.398.607 1.398 1.388v1.908z"/><path fill="#3C3C3B" d="M47.883 10.497c0 .52-.436.955-.96.955h-2.36a.966.966 0 0 1-.961-.955V9.283c0-.52.437-.955.961-.955h2.36c.524 0 .96.434.96.955v1.214z"/><path d="M46.223 19.086v-2.082c0-.347.175-.694.525-.78a1.863 1.863 0 0 1 1.66 0c.437.173.611.52.611.953v1.128c0 .26.088.347.35.174.699-.347 1.398-.781 2.097-1.128.699-.347 1.31-.694 2.01-1.041.35-.174.699-.174 1.048.087.175.086.437.173.612.347.35.26.35.607 0 .954l-.786.52c-.525.26-1.049.521-1.486.868l-.262.26c0 .087.175.26.35.347.524.26 1.048.52 1.485.868.262.173.524.26.699.434.437.347.35.867-.087 1.128a1.905 1.905 0 0 1-1.923 0c-.437-.26-.874-.521-1.31-.695-.525-.347-1.136-.607-1.66-.954-.175-.087-.438-.173-.612-.347-.175-.087-.262 0-.262.174v1.127c0 .521-.263.781-.787.868h-.087c-.35.26-.787.087-1.136 0-.262-.087-.524-.173-.7-.52-.087-.174-.087-.348-.087-.521-.262-.78-.262-1.475-.262-2.169zm-4.281.434v-1.562c0-.607-.088-.78-.7-.867-.524-.087-1.048-.087-1.572.086-.175.174-.35.26-.35.521v3.47c0 .347-.087.52-.437.694-.611.347-1.135.347-1.747.087-.437-.174-.612-.434-.612-.868v-3.21c0-.52.175-.867.525-1.214.35-.26.786-.434 1.223-.607 1.136-.347 2.36-.26 3.582-.174.525 0 1.136.174 1.66.347.787.26 1.224.954 1.224 1.822v3.036c0 .347-.262.781-.612.868a2.441 2.441 0 0 1-1.573 0c-.436-.174-.611-.434-.611-.868V19.52zM23.33 16.136v-2.689c0-.694.175-.954.787-1.128.524-.173 1.135-.087 1.66.174.262.173.437.433.437.694v5.465c0 .52 0 1.041.35 1.475.174.347.523.52.873.607.786.347 1.747.26 2.534.26.35 0 .699 0 .961.087.175 0 .437.174.612.347.087.087.087.174 0 .347a1.26 1.26 0 0 1-.874.348h-3.583c-.786 0-1.572-.26-2.184-.695-.262-.173-.524-.347-.7-.52-.349-.26-.523-.694-.61-1.041-.088-.347-.088-.694-.088-1.041-.175-.868-.175-1.735-.175-2.69zm35.738 4.424c.175-.52-.175-.867-.524-1.214-.7-.607-1.398-1.301-2.097-1.995-.35-.26-.263-.78.087-.954.786-.52 1.748-.434 2.36.173.436.52.96.955 1.485 1.475.174.174.35.174.524 0l1.485-1.475c.525-.52 1.136-.607 1.748-.434.262.087.437.174.612.347.35.26.262.608 0 .868-.874.868-1.748 1.648-2.534 2.516-.175.173-.263.347-.263.52 0 .347 0 .694-.087 1.128 0 .26-.175.347-.35.434a4.127 4.127 0 0 1-.611.26c-.087 0-.262.087-.35.087h-.174a6.048 6.048 0 0 1-.7-.26c-.436-.174-.611-.434-.611-.868v-.607zm-24.029-1.387v1.908c0 .694-.262.955-.874 1.128-.175 0-.262.087-.437.174h-.175l-.786-.26c-.262-.087-.524-.348-.524-.695 0-1.474 0-2.862-.088-4.337 0-.434.175-.694.7-.868.174-.087.436-.173.611-.173h.437c.262.086.612.086.874.347.262.173.262.433.262.78v1.996zm-1.399-5.466c.438-.086.787.174 1.137.26.174.087.262.26.262.521 0 .26-.175.434-.35.52-.611.26-1.31.348-1.922 0-.262-.173-.524-.26-.437-.607 0-.173.087-.347.262-.433.262-.087.612-.347 1.049-.26z" fill="#C4D73A"/></g></svg>