<svg xmlns="http://www.w3.org/2000/svg" xmlns:xlink="http://www.w3.org/1999/xlink" width="116" height="164" viewBox="0 0 116 164"><defs><filter id="a" width="117.9%" height="112.3%" x="-9%" y="-4.9%" filterUnits="objectBoundingBox"><feOffset in="SourceAlpha" result="shadowOffsetOuter1"/><feGaussianBlur in="shadowOffsetOuter1" result="shadowBlurOuter1" stdDeviation="1.5"/><feColorMatrix in="shadowBlurOuter1" result="shadowMatrixOuter1" values="0 0 0 0 0 0 0 0 0 0 0 0 0 0 0 0 0 0 0.0863903986 0"/><feMerge><feMergeNode in="shadowMatrixOuter1"/><feMergeNode in="SourceGraphic"/></feMerge></filter><path id="b" d="M.06 153.999V.591h105.386v153.408H.06z"/><filter id="c" width="116.1%" height="111.1%" x="-8.1%" y="-4.2%" filterUnits="objectBoundingBox"><feOffset dy="2" in="SourceAlpha" result="shadowOffsetOuter1"/><feGaussianBlur in="shadowOffsetOuter1" result="shadowBlurOuter1" stdDeviation="2.5"/><feColorMatrix in="shadowBlurOuter1" values="0 0 0 0 0 0 0 0 0 0 0 0 0 0 0 0 0 0 0.01 0"/></filter></defs><g fill="none" fill-rule="evenodd" filter="url(#a)" transform="translate(5 3)"><mask id="d" fill="#fff"><use xlink:href="#b"/></mask><use fill="#000" filter="url(#c)" xlink:href="#b"/><path fill="#FFFFFE" d="M0 .423L.616 153 105 152.577 104.388 0 0 .423" mask="url(#d)"/><path fill="#4A94C4" d="M21.542 15.116c-.342.003-.519.278-.567.632-.054.379-.247 1.704-.292 2.046-.024.194-.044.412-.231.493-.199.087-.439-.041-.64-.219a3087.17 3087.17 0 0 1-3.227-2.718.95.95 0 0 0-.595-.214c-.46.004-.893.282-.89.968l.017 4.273c0 .332.232.546.515.545.312-.001.509-.209.548-.512 0 0 .331-2.029.365-2.258.047-.262.089-.473.34-.552.234-.071.45.059.785.337.319.288 3.037 2.718 3.037 2.718.212.175.363.246.658.242.262-.001.743-.112.741-.93l-.02-4.243c-.001-.394-.241-.609-.544-.608m19.421 4.465c-2.358.521-5.061-.012-5.069-1.678-.004-1.263 1.166-1.78 2.085-1.864.972-.076 1.719.123 2.114.523.246.248.173.599-.301.627-.442.024-1.266.059-1.949.091-.396.013-.597.223-.6.5.003.223.172.477.617.476.648 0 2.278.007 3.092.004.538-.001.795-.301.795-.917-.006-.977-.898-2.448-3.481-2.437-2.343.011-4.035 1.182-4.026 3.084.01 2.709 3.993 3.518 6.911 2.505.269-.097.524-.303.442-.607-.077-.274-.299-.379-.63-.307m-27.412.114c-2.361.514-5.068-.014-5.074-1.687-.006-1.256 1.163-1.775 2.082-1.857.968-.079 1.728.121 2.123.522.24.249.172.602-.305.628-.43.021-1.262.055-1.951.087-.389.015-.597.226-.592.502-.003.222.172.478.619.477.639-.002 2.275.01 3.083.006.538-.004.795-.304.791-.92-.002-.979-.884-2.445-3.476-2.435-2.345.008-4.036 1.184-4.029 3.083.013 2.707 4.001 3.514 6.91 2.499.284-.096.532-.301.448-.604-.073-.27-.293-.378-.629-.301m18.292-2.68c.051 1.476.203 2.707.24 3.128.055.558.34.71.626.711.276-.003.566-.153.62-.708.035-.475.169-1.933.227-3.377l-.109-.095-1.537.254-.067.087m.853-2.085c-.716.003-.914.556-.909.892.011.062.01.24.019.458l.11.08 1.603-.266.08-.09.005-.183c.003-.329-.201-.895-.908-.891m-2.351 2.357c-.538 0-2.194.024-3.249.026-.513.003-.638.286-.636.508-.003.203.134.456.621.478.725.035 1.65.071 2.078.095.576.027.584.324.394.578-.389.508-1.342.849-2.327.852-1.292.007-2.718-.727-2.722-1.886-.007-1.093 1.208-2.297 4.82-1.805.318.043.632-.014.706-.31.085-.313-.12-.511-.526-.616a9.04 9.04 0 0 0-2.282-.256c-2.432.01-4.377 1.179-4.37 3.045.005 2.006 1.957 2.973 4.376 2.965 2.706-.014 4.014-1.489 4.006-2.77 0-.658-.331-.909-.889-.904"/><path fill="#71716E" d="M75.414 23.386l-19.313.077-.01-1.999 19.313-.077.01 1.999"/><path fill="#D4D4CF" d="M75.426 26.154l-19.314.08-.005-.876 19.316-.079.003.875"/><path fill="#D4D4CF" d="M75.426 26.154l-.001-.099-19.214.079-.004-.677 19.117-.079.002.776h.1l-.001-.099.001.099h.099l-.003-.876v-.099l-19.515.08.006 1.075 19.512-.081v-.099h-.099m.011 3.03l-19.314.078-.002-.874 19.312-.077.004.873"/><path fill="#D4D4CF" d="M75.437 29.184v-.099l-19.215.077-.001-.675 19.113-.076.004.774.099-.001v-.099.099h.1l-.004-.973-19.512.078.003 1.073 19.513-.079v-.099h-.1m.009 2.969l-19.308.08-.003-.874 19.312-.081-.001.875"/><path fill="#D4D4CF" d="M75.446 32.153v-.099l-19.209.079-.003-.675 19.114-.08-.001.775h.099v-.099.099h.1l.001-.975-19.512.082.003.973v.1l19.508-.081v-.099h-.1m23.515 40.518l-41.694.167-.004-.873 41.693-.173.005.879"/><path fill="#D4D4CF" d="M98.961 72.671l-.001-.1-41.594.167-.003-.674 41.494-.172.004.779h.1l-.001-.1.001.1.099-.001-.005-.978-41.893.173.006.973.001.099 41.892-.167-.001-.1-.099.001m.009 3.026l-41.694.167-.003-.874 41.697-.167v.874"/><path fill="#D4D4CF" d="M98.97 75.697v-.099l-41.595.167-.002-.675 41.497-.167.001.775.099-.001v-.099.099h.1l-.001-.874v-.099l-41.896.167.004 1.073 41.893-.167v-.1h-.1m.016 2.974l-41.698.168-.001-.874 41.695-.171.004.877"/><path fill="#D4D4CF" d="M98.986 78.671v-.099l-41.599.167v-.675l41.496-.17.004.778.099-.001v-.099.099h.1l-.004-.878-.001-.099-41.894.172.001 1.073 41.898-.169v-.099h-.1m.007 2.594l-41.693.164-.003-.876 41.695-.166.001.878"/><path fill="#D4D4CF" d="M98.993 81.265v-.099l-41.594.164-.003-.677 41.497-.166.001.778h.099v-.099.099h.099l-.001-.978-41.894.167.003.976.001.099 41.892-.165-.001-.099h-.099m.015 3.024l-41.694.167-.005-.873 41.692-.169.007.875"/><path fill="#D4D4CF" d="M99.008 84.289l-.001-.1-41.594.167-.003-.674 41.492-.168.006.776.1-.001-.001-.1.001.1.099-.001-.007-.974-41.891.17.006.972v.1l41.893-.168-.001-.1-.099.001m-7.504 2.572l-33.791.133-.003-.876 33.786-.133.008.876"/><path fill="#D4D4CF" d="M91.504 86.861l-.001-.099-33.691.132-.002-.677 33.587-.132.007.777.1-.001-.001-.099.001.099.099-.001-.009-.975-33.984.134.003.976.001.099 33.99-.134-.001-.1-.099.001M42.177 64.777l-34.806.14-.002-.873 34.804-.14.004.873"/><path fill="#D4D4CF" d="M42.177 64.777l-.001-.1-34.706.14-.001-.674 34.605-.139.003.773h.1l-.001-.1.001.1.099-.001-.004-.872v-.1l-35.003.141.003 1.072 35.005-.141-.001-.1-.099.001m.009 3.029l-34.804.14-.002-.872 34.803-.142.003.874"/><path fill="#D4D4CF" d="M42.186 67.806v-.099l-34.705.139-.001-.673 34.603-.141.004.775.099-.001v-.099.099h.1l-.004-.875v-.099l-35.001.143.001 1.07 35.004-.14v-.099h-.1m-5.979 2.996l-28.809.118-.003-.874 28.808-.118.004.874"/><path fill="#D4D4CF" d="M36.207 70.802v-.099l-28.71.117-.002-.675 28.609-.117.004.775.099-.001v-.099.099h.1l-.005-.973-29.007.118.004 1.073 29.008-.118v-.1h-.1m56.394 35.984l-34.809.138-.004-.871 34.811-.138.002.871"/><path fill="#D4D4CF" d="M92.601 106.786v-.099l-34.71.137-.003-.672 34.611-.137.003.772.099-.001v-.099.099h.1l-.003-.871v-.1l-35.01.139.004.97.001.1 35.008-.139v-.099h-.1m.01 3.03l-34.803.14-.002-.874 34.803-.14.002.874"/><path fill="#D4D4CF" d="M92.611 109.816v-.1l-34.703.14-.003-.675 34.605-.14.002.775h.099v-.1.1l.1-.001-.002-.973-35.003.141.003.974v.099l35.002-.141v-.1l-.1.001m-5.988 2.997l-28.804.114-.005-.871 28.805-.117.004.874"/><path fill="#D4D4CF" d="M86.623 112.813l-.001-.1-28.704.114-.004-.672 28.606-.116.003.774h.1l-.001-.1.001.1.099-.001-.004-.874v-.099l-29.004.118.006.97v.1l29.003-.115-.001-.1-.099.001m-44.711-23.66l-34.81.143-.003-.878 34.808-.139.005.874"/><path fill="#D4D4CF" d="M41.912 89.153v-.1l-34.71.143-.003-.679 34.609-.138.005.774h.099v-.1.1l.1-.001-.007-.973L7 88.319l.003 1.077 35.01-.144-.001-.1-.1.001m.012 3.031l-34.806.138-.005-.878 34.805-.137.006.877"/><path fill="#D4D4CF" d="M41.924 92.184l-.001-.099-34.706.138-.004-.68 34.606-.136.005.778.1-.001-.001-.099.001.099h.099l-.006-.977-35.004.138.006 1.077 35.005-.139-.001-.099h-.099m.013 3.097l-34.811.139.001-.875 34.804-.138.006.874"/><path fill="#D4D4CF" d="M41.937 95.281v-.099l-34.711.138v-.676l34.606-.137.005.775.1-.001v-.099.099h.099l-.007-.974-35.002.139v1.074l35.01-.14-.001-.099h-.099m.01 3.097l-34.809.139v-.874l34.802-.139.007.874"/><path fill="#D4D4CF" d="M41.947 98.378v-.099l-34.71.138v-.675l34.604-.138.007.775.099-.001v-.099.099l.1-.001-.008-.973-35 .14-.001 1.073 35.009-.14v-.1l-.1.001m.012 3.095l-34.804.143-.008-.875 34.809-.141.003.873"/><path fill="#D4D4CF" d="M41.959 101.473l-.001-.1-34.705.143-.006-.676 34.61-.14.002.773h.1l-.001-.1.001.1h.099l-.002-.973-35.01.142.01 1.074 35.003-.144-.001-.099h-.099m.012 3.102l-34.807.141-.005-.876 34.808-.141.004.876"/><path fill="#D4D4CF" d="M41.971 104.575v-.099l-34.708.14-.004-.677 34.609-.14.003.777.1-.001v-.099.099h.1l-.005-.976-35.007.142.006 1.075 35.006-.142v-.099h-.1m.014 3.094l-34.806.142-.004-.872 34.805-.143.005.873"/><path fill="#D4D4CF" d="M41.985 107.669l-.001-.099-34.706.141-.003-.673 34.606-.142.004.774.1-.001-.001-.099.001.099h.099l-.005-.973-35.004.144.004 1.071 35.006-.143-.001-.099h-.099m.013 3.097l-34.805.141-.005-.874 34.807-.141.003.874"/><path fill="#D4D4CF" d="M41.998 110.766v-.1l-34.706.141-.004-.675 34.608-.14.003.774h.099v-.1.1l.1-.001-.003-.973-35.007.142.006 1.073 35.004-.142v-.1l-.1.001m.015 3.099l-34.81.143-.004-.875 34.805-.139.009.871"/><path fill="#D4D4CF" d="M42.013 113.865v-.099l-34.711.142-.003-.676 34.606-.138.009.772.099-.001v-.099.099l.099-.001-.009-.871-.001-.099-35.003.14.005 1.074 35.01-.144-.002-.1-.099.001m-11.812 3.146l-22.985.09-.004-.871 22.99-.092-.001.873"/><path fill="#D4D4CF" d="M30.201 117.011v-.1l-22.886.09-.003-.672 22.791-.091-.001.773h.099v-.1.1h.1l.001-.973-23.19.093.005 1.07 23.184-.091v-.099h-.1"/><path fill="#71716E" d="M98.943 68.459l-41.691.171-.014-2.003 41.694-.171.011 2.003m-56.401-3.14l-35.487.143-.01-2.003 35.493-.144.004 2.004m.101 24.025l-35.857.144-.003-2 35.849-.145.011 2.001"/><path fill="#1C80AF" d="M105.054 9.176l-49.492.199-.031-8.582 49.485-.204.038 8.587m-3.4 80.229l-.215.001v.011c0 .833-.438 1.598-1.175 2.168-.737.568-1.768.929-2.911.933l-38.622.155h-.027c-1.144 0-2.175-.355-2.911-.919-.738-.565-1.177-1.326-1.181-2.158l-.125-31.003v-.008c0-.831.439-1.596 1.177-2.167.737-.569 1.769-.931 2.915-.937l38.622-.152h.027c1.14 0 2.168.355 2.905.919.737.564 1.177 1.326 1.182 2.157l.124 31.001.215-.001.215-.001-.124-31.001c-.006-.988-.532-1.872-1.351-2.497-.82-.627-1.937-1.006-3.166-1.007h-.029l-38.622.152c-1.235.007-2.355.394-3.176 1.027-.819.631-1.344 1.519-1.344 2.507v.009l.125 31.004c.004.989.53 1.873 1.35 2.498.82.627 1.939 1.007 3.172 1.007h.029l38.621-.155c1.233-.005 2.352-.391 3.172-1.023.819-.63 1.343-1.518 1.343-2.508v-.013l-.215.001m-51.668 28.303l-.215.001v.012c.004 1.989-1.81 3.64-4.09 3.652l-38.62.153H7.04c-2.275-.001-4.09-1.64-4.096-3.625L2.799 81.76v-.018c-.004-1.989 1.81-3.631 4.091-3.644l38.617-.155h.02c2.276.001 4.096 1.637 4.101 3.627l.143 36.139.215-.001.215-.001-.143-36.138c-.014-2.266-2.055-4.058-4.531-4.056h-.021l-38.618.155c-2.481.011-4.515 1.809-4.519 4.074v.02l.145 36.141c.015 2.26 2.049 4.055 4.526 4.053h.023l38.62-.153c2.482-.01 4.514-1.817 4.518-4.082v-.014l-.215.001"/><path fill="#194D89" d="M3.336 69.479l-.215.001a4.04 4.04 0 0 0 4.045 4.019h.009l36.452-.148a4.038 4.038 0 0 0 4.023-4.035V69.3l-.043-10.17a4.036 4.036 0 0 0-4.042-4.016h-.017l-36.445.147h.001a4.03 4.03 0 0 0-4.021 4.022v.024l.038 10.173.215-.001.215-.001-.038-10.173v-.022a3.599 3.599 0 0 1 3.592-3.592l36.445-.147h.015a3.607 3.607 0 0 1 3.612 3.588l.043 10.172v-.003.015a3.61 3.61 0 0 1-3.595 3.605l-36.451.148h.002-.01a3.61 3.61 0 0 1-3.615-3.591l-.215.001"/><path fill="#194D89" d="M47.404 62.141l-.012-3.01a3.822 3.822 0 0 0-3.843-3.802l-36.444.147a3.816 3.816 0 0 0-3.807 3.83l.015 3.13 44.091-.295m54.308 42.178l-.009-3.01c-.008-2.11-1.869-3.812-4.156-3.8l-39.477.158c-2.289.007-4.137 1.729-4.127 3.831l.013 3.13 47.756-.309"/><path fill="#1C80AF" d="M101.545 61.925l-.012-3.011c-.01-2.11-1.701-3.816-3.788-3.804l-39.715.16c-2.081.008-3.765 1.725-3.757 3.835l.012 3.128 47.26-.308M50.291 84.536l-.012-3.006c-.01-2.109-1.704-3.813-3.79-3.806l-39.716.161c-2.078.007-3.761 1.725-3.753 3.833l.012 3.125 47.259-.307"/><path fill="#194D89" d="M54.154 111.673l-.215.001c.012 2.233 1.962 4.015 4.333 4.014h.032l39.329-.158c2.381-.008 4.324-1.802 4.327-4.035v-.013l-.042-10.174c-.011-2.232-1.956-4.015-4.333-4.014h-.029l-39.331.155c-2.375.01-4.322 1.8-4.325 4.029v.022l.039 10.174.215-.001.215-.001-.039-10.176v.001-.019c-.003-1.965 1.733-3.588 3.896-3.599l39.332-.155h.027c2.165.001 3.898 1.616 3.903 3.586l.042 10.172v.013c.002 1.97-1.73 3.595-3.898 3.605l-39.337.158h-.023c-2.159-.001-3.897-1.616-3.903-3.586l-.215.001"/><path fill="#1C80AF" d="M90.167 60.169h-.742l-.628-1.153-.628 1.16-.691.004.921-1.58-.87-1.479.713-.001.578 1.097.56-1.1.701-.004-.872 1.518.958 1.538m-3.189.01l-.735.004-.635-1.156-.616 1.162-.699.002.923-1.579-.867-1.477.713-.001.577 1.098.555-1.106.7.001-.867 1.512.951 1.54m5.877-.022l-.744.004-.631-1.157-.617 1.162-.696.003.921-1.58-.867-1.476.712-.003.576 1.095.561-1.099.695-.004-.867 1.518.957 1.537"/><path fill="#1C80AF" d="M94.498 57.38a.973.973 0 0 0-.589.17c-.096.07-.179.167-.258.287a.9.9 0 0 0-.135.362l1.426-.003-.051.279-1.411.004-.006.086a1.7 1.7 0 0 0 .01.193l1.348-.005-.063.281-1.244.007c.065.314.205.54.429.674.158.093.333.141.521.14.267.002.462-.069.611-.201l.002.425a1.332 1.332 0 0 1-.576.122c-.631.004-1.06-.257-1.288-.776a2.599 2.599 0 0 1-.111-.384l-.324.001.059-.28.221-.002-.004-.19v-.088h-.28l.058-.275.243-.002c.087-.46.311-.785.673-.981.221-.13.475-.187.746-.191a1.22 1.22 0 0 1 .655.165l-.08.393a.882.882 0 0 0-.582-.211"/><text fill="#FFFFFE" font-family="LucidaGrande, Lucida Grande" font-size="6.475" letter-spacing="0"><tspan x="86.182" y="58.567">xx</tspan></text><text fill="#FFFFFE" font-family="LucidaGrande, Lucida Grande" font-size="6.475" letter-spacing="0"><tspan x="92.154" y="58.543">x€</tspan></text><text fill="#1C80AF" font-family="LucidaGrande, Lucida Grande" font-size="18.073"><tspan x="60.831" y="136.256">xxx€</tspan></text><path fill="#71716E" d="M7.101 33.406h32v-2h-32z"/><path fill="#D4D4CF" d="M7.101 36.406h32v-1h-32zm0 3h32v-1h-32zm0 3h32v-1h-32z"/><path fill="#4A94C4" d="M10.003 11.523s14.48-7.036 28.96.71c-14.48-3.816-28.96-.71-28.96-.71z"/></g></svg>