<svg xmlns="http://www.w3.org/2000/svg" xmlns:xlink="http://www.w3.org/1999/xlink" width="136" height="136" viewBox="0 0 136 136"><defs><circle id="a" cx="68" cy="68" r="68"/></defs><g fill="none" fill-rule="evenodd"><mask id="b" fill="#fff"><use xlink:href="#a"/></mask><use fill="#DEF8FB" fill-rule="nonzero" xlink:href="#a"/><g mask="url(#b)"><path fill="#000" fill-opacity=".03" fill-rule="nonzero" d="M144.663 58.763l-32.46-32.437-23.208 42.45-38.35-38.322-17.822 15.984-19.688 15.214 69.817 69.767c34.306-6.964 60.347-36.653 61.711-72.656z"/><g transform="translate(69.305 21.425)"><path fill="#FED8B2" fill-rule="nonzero" d="M35.91 54.498V47.98H24.146v6.518c0 .52-.422.942-.943.942H15.1v22.49h29.858V55.44h-8.105a.942.942 0 0 1-.943-.942z"/><path fill="#FED8B2" fill-rule="nonzero" d="M30.057 53.886h-1.06c-9.797 0-17.74-7.937-17.74-17.727V19.973c0-9.79 7.943-17.727 17.74-17.727h1.06c9.798 0 17.74 7.937 17.74 17.727V36.16c0 9.79-7.943 17.727-17.74 17.727z"/><path fill="#694B4B" fill-rule="nonzero" d="M45.836 8.204C42.352 3.244 36.59 0 30.066 0h-1.151C18.277 0 9.654 8.617 9.654 19.247v15.045h2.828v-7.95h-.002c8.58-.871 17.018-2.554 24.413-6.248 2.662 3.054 5.735 5.78 9.127 7.993v6.205h3.306V19.247c0-4.11-1.294-7.917-3.49-11.043z"/><ellipse cx="10.479" cy="34.325" fill="#FED8B2" fill-rule="nonzero" rx="4.701" ry="4.698"/><ellipse cx="48.575" cy="34.325" fill="#FED8B2" fill-rule="nonzero" rx="4.701" ry="4.698"/><path fill="#000" fill-opacity=".05" fill-rule="nonzero" d="M46.024 9.135C42.528 4.159 36.747.905 30.202.905h-1.154C18.376.904 9.654 9.548 9.654 20.213v1.493l1.756 17.327s1.349 10.495 12.579 14.375c.022.62.043 1.213.065 1.78-.996.379-2.88.377-3.864.377-1.115 7.349 7.08 8.808 15.79-2.84-23.086.97-19.88-20.451-16.24-23.644 3.64-3.192 9.907-2.587 17.326-6.294 2.67 3.064 10.099 9.967 10.099 6.294l2.36-3.942v-4.926a19.21 19.21 0 0 0-3.501-11.08z"/><path fill="#000" fill-opacity=".04" d="M47.513 39.099c-.766 5.096-8.794 17.172-23.527 14.216 0 1.136.432 2.346-1.701 2.346s-3.382-.073-3.382-.073-.767 1.647.711 3.461c1.478 1.815 8.107 10.694 17.303-3.461 0 0-1.39.39-1-2.829 1.668 0 10.219-4.507 11.596-13.66z"/><path fill="#324A5E" fill-rule="nonzero" d="M59.887 82.734V70.122c0-8.11-6.11-14.682-13.647-14.682h-6.26c0 5.913-9.952 11.656-9.952 11.656s-9.953-5.743-9.953-11.656h-6.258C6.281 55.44.171 62.014.171 70.122v45.693c24.402-.661 45.99-13.502 59.716-33.081z"/></g><g transform="translate(5.65 24.139)"><path fill="#694B4B" fill-rule="nonzero" d="M10.132 32.992V59.73l19.933-1.304V31.688zm39.871-2.608l-19.938 1.304v26.738l19.938-1.304z"/><path fill="#FED8B2" fill-rule="nonzero" d="M36.004 54.608V48.07h-11.8v6.538a.945.945 0 0 1-.946.945h-8.132v22.563h29.955V55.553H36.95a.945.945 0 0 1-.946-.945z"/><ellipse cx="10.992" cy="34.371" fill="#FED8B2" fill-rule="nonzero" rx="4.717" ry="4.714"/><ellipse cx="49.218" cy="34.371" fill="#FED8B2" fill-rule="nonzero" rx="4.717" ry="4.714"/><path fill="#FED8B2" fill-rule="nonzero" d="M30.635 53.995h-1.063c-9.83 0-17.798-7.963-17.798-17.785V19.972c0-9.822 7.968-17.784 17.798-17.784h1.063c9.83 0 17.798 7.962 17.798 17.784V36.21c0 9.822-7.969 17.785-17.798 17.785z"/><path fill="#000" fill-opacity=".05" fill-rule="nonzero" d="M46.627 10.34c-3.495-4.975-9.276-8.23-15.822-8.23h-1.154c-10.672 0-19.394 8.645-19.394 19.31v34.716s20.588 12.953 25.83-2.853c-22.754 3.26-17.599-21.297-15.743-22.995 1.856-1.697 9.893-4.312 17.312-8.019 2.67 3.064 5.753 5.8 9.156 8.02v27.958h3.317V21.42a19.21 19.21 0 0 0-3.502-11.08z"/><path fill="#694B4B" fill-rule="nonzero" d="M46.627 8.23C43.132 3.255 37.351 0 30.805 0h-1.154C18.98 0 10.257 8.645 10.257 19.31v38.333h2.908V26.427c8.607-.874 17.072-2.561 24.49-6.268 2.671 3.063 5.754 5.8 9.157 8.019v30.37h3.317V19.31a19.21 19.21 0 0 0-3.502-11.08z"/><path fill="#000" fill-opacity=".04" d="M46.906 44.013c-2.51 3.553-8.085 12.136-22.818 9.18-.47.968.433 2.345-1.7 2.345-2.134 0-3.87-1.107-3.382-.073 0 9.069 1.865 16.422 6.241 16.44 4.376.018 8.983-6.138 11.573-16.367 0 .158-.785-.655-.785-2.345 1.668 0 7.269-2.396 10.871-9.18z"/><path fill="#FFD15D" fill-rule="nonzero" d="M46.367 55.553h-6.279c0 6.21-4.47 19.77-9.985 19.77-5.514 0-9.984-13.56-9.984-19.77h-6.28C6.28 55.553.15 62.455.15 70.968v9.964c11.858 17.703 29.585 30.142 49.926 33.643a56.905 56.905 0 0 0 9.983-5.024V70.968c0-8.513-6.13-15.415-13.691-15.415z"/></g><g transform="translate(48.488 69.591)"><path fill="#694B4B" d="M7.542 15.921h22.626v25.227H7.542z"/><path fill="#FED8B2" fill-rule="nonzero" d="M22.748 38.422v-4.448h-7.484v4.448c0 .355-.268.643-.6.643H9.509v15.352h18.997V39.065h-5.157c-.331 0-.6-.288-.6-.643z"/><path fill="#000" fill-opacity=".04" d="M32.06 26.27c-1.33 2.998-6.346 13.324-17.058 11.018 0 .886.315 1.83-1.236 1.83-1.552 0-2.459-.057-2.459-.057s-.558 1.285.517 2.7c1.075 1.416 6.2 7.644 12.435-2.643 0 .123-1.041-.057-.724-2.126 1.212 0 7.523-3.582 8.524-10.722z"/><path fill="#FF6472" fill-rule="nonzero" d="M29.32 39.065h-3.98c0 3.75-6.332 7.39-6.332 7.39s-6.333-3.64-6.333-7.39H8.693c-4.796 0-8.683 4.168-8.683 9.309v17.09a72.453 72.453 0 0 0 18.996 2.527c6.556 0 12.92-.879 18.998-2.527v-17.09c0-5.141-3.888-9.309-8.683-9.309z"/><ellipse cx="6.566" cy="24.653" fill="#FED8B2" fill-rule="nonzero" rx="2.991" ry="3.206"/><ellipse cx="30.806" cy="24.653" fill="#FED8B2" fill-rule="nonzero" rx="2.991" ry="3.206"/><path fill="#FED8B2" fill-rule="nonzero" d="M19.024 38.004h-.674c-6.234 0-11.288-5.417-11.288-12.1V14.855c0-6.683 5.054-12.1 11.288-12.1h.674c6.234 0 11.288 5.417 11.288 12.1v11.049c0 6.683-5.054 12.1-11.288 12.1z"/><path fill="#000" fill-opacity=".05" fill-rule="nonzero" d="M29.393 6.745C27.072 3.2 24.138.882 19.791.882h-.766C11.938.882 6.749 7.04 6.749 14.639v1.064l.563 12.344s.264 6.962 7.721 9.727c.015.44-.015.863 0 1.267-.661.27-1.591 0-2.245 0 0 1.818 1.544 3.702 2.245 4.302 1.865.42 4.507-1.325 7.762-5.995-15.483.426-11.977-17.598-11.977-17.598s7.883-1.407 12.81-4.047c1.773 2.182 7.428 7.871 7.428 5.254l.06-2.808v-3.51c-.001-2.938-.26-5.66-1.723-7.894z"/><path fill="#694B4B" fill-rule="nonzero" d="M29.227 5.625C27.058 2.241 23.472.027 19.411.027h-.716c-6.622 0-12.033 5.88-12.033 13.135v34.162h1.804v-29.32c5.34-.595 10.592-1.743 15.195-4.264 1.657 2.084 3.57 3.945 5.681 5.455v28.42H31.4V13.164c0-2.806-.806-5.404-2.173-7.538z"/></g></g></g></svg>