<svg xmlns="http://www.w3.org/2000/svg" width="174" height="174" viewBox="0 0 174 174"><g fill="none" fill-rule="evenodd"><circle cx="87" cy="87" r="87" fill="#DEF8FB"/><circle cx="87" cy="87" r="87" fill="#DEF8FB"/><g fill-rule="nonzero"><path fill="#FFA91F" d="M126.805 70.67s1.423 9.08-4.585 12.722c0 0 6.614-27.346-44.547-52.525 2.217 3.771 3.544 8.528 3.544 13.705 0 12.233-7.389 22.15-16.504 22.15-5.789 0-10.878-4.003-13.824-10.055-2.735 3.84-16.509 24.41-13.961 45.8 3.077 25.85 32.292 34.28 50.027 40.727 0 0 29.832-6.32 43.487-25.11 12.81-17.63 5.275-40.08-3.637-47.413z"/><path fill="#FFE670" d="M86.954 70.26s23.35 16.686 17.735 35.984c0 0 9.697-4.71 13.826-13.716 0 0 4.827 33.202-31.56 41.467 0 0-26.645-8.243-25.882-28.845 0 0 6.211 6.376 10.548 7.417 0 0-3.508-6.773.093-15.206 3.867-9.058 10.003-14.455 15.24-27.1z"/></g></g></svg>