<svg id="Layer_2" xmlns="http://www.w3.org/2000/svg" xmlns:xlink="http://www.w3.org/1999/xlink" viewBox="0 0 453.5 453.5"><style>.st0{clip-path:url(#SVGID_2_)}.st1{fill:#c2dbe5}.st2{fill:#11abb8}.st3{fill:#7dbd74}.st4{fill:#d7c8d3}.st5{fill:#aec93e}.st6{fill:none;stroke:#fff;stroke-width:12.4534;stroke-linecap:round;stroke-linejoin:round;stroke-miterlimit:10}.st7{fill:#e01d75}.st8{fill:#e0215b}.st9{fill:#fef4f1}.st10{fill:#fff}.st11{fill:#2c98d4}.st12{fill:#f7f8e2}.st13{fill:#725869}.st14{fill:none;stroke:#aeadad;stroke-width:3.1133;stroke-miterlimit:10;stroke-dasharray:9.34,12.4534}</style><defs><circle id="SVGID_1_" cx="226.8" cy="226.8" r="226.8"/></defs><clipPath id="SVGID_2_"><use xlink:href="#SVGID_1_" overflow="visible"/></clipPath><g class="st0"><path class="st1" d="M-141-307.3h1245.3V938H-141z"/><path class="st2" d="M830.1 473.3l17.4 204.8 256.9-15.6V503s-35.7-6.3-102.6-4.3c-61.2 1.8-171.7-25.4-171.7-25.4z"/><path class="st3" d="M638.5-291.2l96.2-9.4 15 54.5-80 37.5zM289.4 150.3l59.2 126.2h92.6l-26.5-96.6-45.2-80.6z"/><path class="st4" d="M804.1-111.7l34.8 125.6L1074-32.9l-23-107.8-31.6-69.9-227 99.2"/><path class="st5" d="M78.7 115.6l34.7 125.6L281.5 161l-30.2-54.8-50.9-68.5L30.2 69.4"/><g id="Calles_anchas"><path class="st7" d="M121.1-221.1l-3.6.1c0-1.2-.1-2.4-.1-3.6h3.6c0 1.1 0 2.3.1 3.5zm0-11l-3.6-.1c0-.7.1-1.4.1-2.1.1-1.7.2-3.5.3-5.4l3.6.2c-.1 1.9-.2 3.7-.3 5.4 0 .6-.1 1.3-.1 2zm.7-15l-3.6-.1c.1-2.4.2-4.9.3-7.5l3.6.1c-.2 2.6-.2 5.1-.3 7.5zm.5-15l-3.6-.1.3-7.5 3.6.1-.3 7.5z"/><path transform="rotate(-88.192 121.083 -278.958)" class="st7" d="M119.3-280.7h3.6v3.6h-3.6z"/><path class="st7" d="M197.3 22c-.6-1.1-1.2-2.1-1.7-3.1l3.1-1.7c.6 1 1.1 2.1 1.7 3.1l-3.1 1.7zm-5.1-9c-1.1-1.9-2.2-3.7-3.1-5.3l-.3-.5 3.1-1.8.3.5c1 1.7 2 3.4 3.2 5.3l-3.2 1.8zm-6.8-11.6c-1.2-2.2-2.3-4.1-3.2-6.1l3.2-1.6c.9 1.9 1.9 3.8 3.1 5.9l-3.1 1.8zM179.3-11c-.8-2-1.6-4.1-2.4-6.4l3.4-1.2c.8 2.2 1.6 4.3 2.4 6.2l-3.4 1.4zm-4.6-12.8c-.6-2-1.3-4.2-2-6.5l3.4-1c.7 2.3 1.3 4.5 1.9 6.4l-3.3 1.1zm-3.8-13.1c-.6-2.1-1.1-4.2-1.8-6.6l3.5-.9c.6 2.3 1.2 4.5 1.7 6.5l-3.4 1zM167-49.6c-.8-2-1.7-4.1-2.6-6.3l3.3-1.4c.9 2.1 1.8 4.2 2.6 6.3l-3.3 1.4zm-5.2-12.5l-2.6-6.3 3.3-1.4 2.6 6.3-3.3 1.4zm-5.2-12.5c-.8-2.1-1.7-4.2-2.6-6.3l3.3-1.3c.9 2.1 1.7 4.2 2.6 6.3l-3.3 1.3zm-5.1-12.7l-1.3-3.3 3.3-1.3 1.3 3.3zm119.7 247.9l-3.5.4s-.1-1.2-.6-3.4l3.5-.7c.4 2.4.6 3.6.6 3.7zm-5.5-8.9c-.4-1.7-1-3.7-1.6-5.8l3.4-1c.6 2.2 1.2 4.2 1.6 5.9l-3.4.9zm-3.4-11.5c-.4-1.1-.7-2.2-1.1-3.4l3.4-1.2c.4 1.2.8 2.3 1.2 3.4l-3.5 1.2z"/></g><path class="st8" d="M954.7-92.3l-12.6.3-.3-12.6-19 .5.3 12.6-12.6.3.4 19 12.7-.3.3 12.6 18.9-.4-.3-12.7 12.7-.3z"/><path class="st9" d="M1104.3-250.3c-26.1 9.4-53.5 19.3-80.9 29.1l-42.7-86.1h-43c-11.2 5.2-25.2 11.9-41.8 20-26.4 12.8-53.2 26.2-67.1 33.1-.6 0-1.2.1-1.9.3l-46.3 14.6-23.4 4.3c-2.8-8.7-4.9-16.5-6.2-22.8-1.6-7.8-3.3-15.1-5.1-22.2-2.7-11.1-4.7-20-5.6-27.2h-14.4c0 .4.1.7.1 1.1l-30.8 4.3-.1-5.4h-12.5l.2 7.1-28.4 4c-1.1-3.7-2.2-7.3-3.4-11.1h-29.8c2.1 7.3 4.3 14.6 6.5 21.7-1-.8-2.3-1.2-3.7-1.2l-102.1.4c-1.8 0-3.6.8-4.8 2.2a6.08 6.08 0 0 0-1.4 5l8.4 48.6c-10.1 0-21.2.1-32.6.3l-.3-13.1 21.2-1.3c3.4-.2 6.1-3.2 5.8-6.6-.2-3.4-3.2-6.1-6.6-5.8l-37.9 2.4c-3.3.2-5.9 3-5.9 6.3.1 3.3 2.7 6 6.1 6.1l4.8.1.3 12.3c-47.9 1.5-80.8 5.7-98 12.3-.2.1-.5.2-.7.3l-47.4-23.1 22.2-44.5c12.1 2.1 24 3.5 35.3 4.1 79.3 3.7 96.3 2.8 100.9-5.4 1.7-3.1 4.1-11.5 5-21H484c-.6 5.9-1.8 11.4-2.9 14-6.2 2.5-32.7 2.2-58 1.3l1-15.3h-14.3l-1 14.7c-6.4-.3-12.4-.5-17.7-.8-10.2-.5-21-1.8-32-3.6.6-3 1.2-6.6 1.6-10.3H348c-.4 2.6-.8 5.4-1.3 8.1-11.8-2.3-23.5-5.2-34.5-8.1h-42.9c18.3 6.2 45.3 14.3 73.1 20L321.9-246l-66.5-32.5.7-28.9h-8.9l-.7 27.5c-14.1 0-61.2-.1-111-.3.3-8.6.5-17.7.8-27.2h-28.6c-.3 9.4-.5 18.5-.8 27.1-22.1-.1-43.5-.2-61.8-.3l4.8-26.9H37.1l-4.8 26.8c-19.9-.1-34.2-.2-38.4-.3-10.9-.3-21.4 3.5-29.5 7.6-4.1-10.2-10.3-21-19.2-34H-90c14.8 19.6 23.2 33 27.9 44.9 7.4 18.8 5.3 35.5 1.2 68.8-.5 4.4-1.1 9.1-1.7 14-6.2 52.4-.4 90.5 5.3 112.9l-83.8 6.5v12.5l74.6-5.8c0 .5.1.9.3 1.4l10.8 37.3-20.1 3.8c-.1 0-.2 0-.3.1l-33.9 6.5-23.5-38.4c-1.7-2.8-4.9-4.2-7.9-3.8v21.6l20.7 33.7c1.7 2.9 5.1 4.3 8.4 3.7L-79.2 6l13 34.2-28.6 15.1c-3.9 2.1-5.4 6.9-3.4 10.9 2.1 3.9 6.9 5.4 10.9 3.4l34.8-18.4c3.6-1.9 5.2-6.2 3.8-10l-14.4-38L-50.8.9l20.9 72-9.3 2.8c-2.3.7-4.2 2.4-5.1 4.7-.9 2.3-.7 4.8.5 7L59.2 270c-1.9 1.2-3.8 2.4-5.8 3.7-6.1 4-12.4 8.1-19 12.5l-93.9-132c-2.2-3.1-6.2-4.2-9.7-2.7l-55.8 23.6c-5-5.4-10.4-11.3-16-17.7v24.1c1.1 1.2 2.1 2.3 3.2 3.5l-3.2 3.7V213l14.3-16.5c17.2 17.7 30.5 29.5 40.5 38.3 15.2 13.4 20 18 20.1 24.2l.2 8.1c-17.5 4.7-46.9 20.1-75.1 37v33.8c31.3-19.8 68.3-40.5 84-43.6 7 6.1 19.5 17 31.9 30.8-40.1 25.7-83.5 51.6-115.9 63.4v73.7c15.7 42.3 40.2 124.2 49.6 176.4v.1l-20.2 1.9-29.4-155v86.3l13.3 70.2-13.3 1.2v16.1l16.3-1.5 18.2 95.9c.7 3.5 3.6 6.2 7.2 6.5l11.7 1.1c2.7 16.7 7.5 32 15.7 40.8 2.4 2.6 4.8 4.9 7.1 7.1-24.1 4.7-50 14.7-75.6 24.6-.2.1-.3.1-.5.2v30.6l10.8-4.2c51.6-20 100.3-38.8 122.2-12.2 6.1 7.3 12.2 14.5 18.3 21.3C-2.5 901.8-1.9 926.5-.5 938h28.9c-.2-.9-3.6-15.5 2.3-39 1.8 1.8 4.4 2.7 7 2.3.5-.1 1-.2 1.4-.4l.4-.2c14.4 14.7 27.7 27.3 38.6 37.2h43.3c-5.9-4.9-26.7-22.6-52.3-48l20.7-7.6c4.2-1.5 6.3-6.1 4.8-10.3-1.5-4.2-6.1-6.3-10.3-4.8l-27.6 10.1c-4.1-4.2-8.3-8.6-12.5-13.1 2.7-5.1 5.8-10.5 9.4-16 3.5-5.3 7.7-11.1 11.8-16.6 6.5-8.8 12.6-17.1 16.8-24.9.6-1 1.1-2.1 1.6-3.1 20.7-2 46.6-5.7 71.7-11.7L194 938h16.6L171 788c5.1-1.4 10.1-3 15-4.6L232 938h16.8l-47.7-160.1c8.2-3.3 15.7-7 22.3-11 20.7-12.6 46.5-20.7 79.3-27.7l17.1 55.2c0 .1 0 .1.1.2l35.8 115.5c-3.8 1.7-6 2.6-6.1 2.7-.3.1-.7.3-1 .5-18.1 9.7-35.3 17.9-51.6 24.8h66.2c7.4-3.2 32.6-14.3 56.3-25 4.1 12.8 6.9 21.1 7.4 22.8.2.7.5 1.4.9 2.1h34.5c-3.3-3.8-6.2-7.7-8.6-12.2-1-3.1-3.9-12-8-24.8 2.9-1.4 5.6-2.6 8-3.8 29.5-14.1 62.6-21.4 100.4-22l2.7 62.7H676c27.5-4.6 50.3-9.1 55.4-10.7 19.3-6 257.9-42 276.4-39.6 1.3.4 2.6.5 3.9.3 2.5-.4 4.7-2 5.9-4.4 1.9-4 .3-8.8-3.7-10.7-3.3-1.6-9.5-4.7-143.2 15.1-61.7 9.1-134.3 21-144 24-16.8 5.2-125.8 23.2-154 21.1l-2.4-57.7c4 .1 8.1.3 12.2.5 11.9.7 25.2 1 39 1l1.2 40.4c.1 4.4 3.8 7.9 8.3 7.8.4 0 .7 0 1.1-.1 3.9-.7 6.8-4.1 6.7-8.2l-1.2-40c56.9-.9 117.5-5.9 124.8-6.5 26.4-.2 78.7-5.3 129.5-13.2h.3c31.6-5 62.6-11 86.3-17.6 26.6-7.5 71.5-17.5 125.9-20v-28.6c-45.1 1.9-90.6 9-133.6 21-19.3 5.4-44.3 10.5-70.6 14.9-6.4-23.9-20.8-79.3-34.1-139.5 32.3-.9 68.9-3.9 114.6-8.9 33.6-3.7 78.1-5.2 123.7-5.6v-28.6c-46.3.4-91.9 2-126.8 5.8-47.4 5.2-84.7 8.2-117.6 8.8-5.4-25.9-10.2-52-13.9-76.1-4.3-28.3-9.2-61.9-14.2-97.1 10.5-1 32.8-2.1 57.7 3.9 19.7 4.8 65.4 10.5 108.6 13.5 28 2 75.9 4.4 106.2 0v-12.6c-51.1 8.1-176-4.5-211.9-13.1-27.1-6.5-51.1-5.3-62.3-4.2-2.4-17.4-4.9-35-7.4-52.5l14.8-.3c.3 0 .7 0 1-.1 3.3-.6 5.9-3.4 5.9-6.9l.6-40.3c4.3 1.1 9.2 1.3 13.6-1.1 6.4-3.5 9.4-11.1 8.8-22.5-.7-15.6-.9-25-.9-30.2l21.9-3.7c1.9-.3 3.6-1.4 4.7-3s1.5-3.5 1.1-5.4c0-.1-.5-2.4-1.3-6.9 9.3.3 18.6.6 28 1l-2.3 11.5c-.5 2.4 1.1 4.8 3.5 5.2 2.4.5 4.8-1.1 5.2-3.5l2.5-12.9c8.1.4 16.2.8 24.2 1.2l.5 24.9c0 2.5 2.1 4.4 4.5 4.4.2 0 .4 0 .7-.1 2.1-.4 3.8-2.2 3.7-4.5l-.5-24.2c6.7.4 13.3.8 19.9 1.3l.5 23c.1 3.5 2.9 6.2 6.4 6.1.3 0 .6 0 .9-.1 3-.5 5.3-3.2 5.2-6.3l-.5-21.8c4.1.3 8.2.7 12.3 1l-1.1 19.8c-.2 3.4 2.5 6.4 5.9 6.6 3.5.2 6.4-2.5 6.6-5.9l1-19.3c6.1.6 12 1.2 17.8 1.9l-4 16.1c-.5 1.9 0 3.9 1.2 5.4 1.2 1.5 3.1 2.4 5 2.3l17.1-.4-7.5 113.5c-.2 3.4 2.4 6.4 5.8 6.6.5 0 1 0 1.5-.1 2.8-.5 5-2.8 5.2-5.8l7.9-120.3c.1-1.8-.5-3.5-1.7-4.7-1.2-1.3-2.9-2-4.7-1.9l-15.7.4 2.4-9.6c15.8 2 30.4 4.4 43.2 7.1 3.5.8 7 1.5 10.5 2.2V302c-1.4-.3-2.7-.5-4.1-.8 1.1-5.6 2.3-14 3-26 .5-7.9.8-16.6.8-25.8h.3v-12.6h-.4c-.5-26.6-2.8-57.7-6.8-93l-.3-1.5c.1-.5.1-1 .1-1.5l-.7-25.8 8.3.2V99.1l-10.5-.3c-.9-10.3-1.8-20.4-2.8-30.2 3.6.1 8.2.2 13.3.2v-16c-6.4 0-11.5-.1-15-.3-1-9.5-2.1-18.7-3.2-27.7l18.2.4V10.9l-20-.4c-1.6-12.6-3.4-24.8-5.1-36.4 4.5-.2 13.5-.6 25.1-.9v-14.3c-13.4.3-23.3.8-27.3 1-6.5-41-13.3-75.1-19.2-101.3l46.5-20V-175l-49.3 21.3c-5.3-22.4-9.4-37.4-11.4-44.3 20.5-7.4 40.9-14.7 60.8-21.9v-30.4zM-131.8 128.3c2 .7 4.3.6 6.2-.3L-51 92.1c4-1.9 5.7-6.7 3.8-10.7-1.9-4-6.7-5.7-10.7-3.8l-67.2 32.3c-2.7-5.9-6.6-14.3-10.8-23.3l27.4-12.6c2-.9 3.5-2.6 4.2-4.7.7-2.1.5-4.4-.5-6.3L-141-5.2v34.3l17.9 33.8-17.9 8.3V114c1.6 3.5 3.2 6.9 4.6 10 .9 2 2.6 3.5 4.6 4.3zm965.6-371c13.7-6.8 40.9-20.4 67.7-33.4 27.2-13.2 47.3-22.7 59.7-28.1.9-.4 1.7-1 2.3-1.8l44.8 90.3c-22.9 8.2-45.7 16.4-67.4 24.2l-48.2-38.7-24.9-14.5c-2-1.4-4.6-1.6-6.7-.4-12.3 6.7-25.5 10.1-27.7 8.2-.1 0-.8-1.4.4-5.8zm-13.1 6c.3 3.9 1.8 7 4.5 9.3 5.3 4.5 14 4.6 26.7 0 4.6-1.6 8.8-3.6 11.6-5l63.1 46c-57.9 20.8-107.4 38.5-132.7 47.5-8-19.3-16-39.2-23-57.6 13.2-9.8 24.2-19.2 32.9-26.6 6.3-5.3 13.3-11.3 16.9-13.6zM683 440.7h-.2l-30 .7-.9-37.1v-.2l-1-43.4 72.7 12c2.4.4 4.8-.3 6.7-1.9 1.8-1.6 2.8-4 2.7-6.4l-3.3-65.8h19.1l-11.1 141.2c-1.1-.1-2.2-.1-3.1-.2h-.7l-50.9 1.1zm6.2 214.8c-9.4 1.1-19.9 2.3-31.2 3.7l-4.8-201.7 22.4-.5 13.6 198.5zm-518 10.6l3.3 12.5c-1.4.6-2.8 1.1-4.2 1.7-35.2 14.2-53.7 11.8-63.1 7.3-7.5-3.6-10.2-9.3-10.9-11.1 1.5-2.2 9.1-10.7 41.4-18.3 51.4-12.2 140.5-44.8 172.3-56.7 5.8 10.3 11.1 19.9 15.5 28.4-27 7.1-81.5 22.4-136 43l-2.9-10.8c-1.1-4.3-5.5-6.8-9.8-5.7-4.2 1-6.7 5.4-5.6 9.7zM628-25.4c-2.6 1.1-4.2 3.9-3.7 6.8.3 1.9 1.5 3.5 3.2 4.4 1.2.7 2.7.9 4.1.7.4-.1.7-.2 1.1-.3 3.3-1.2 32.7-11.8 47.9-21 3-1.8 3.9-5.6 2.1-8.6-1.8-3-5.6-3.9-8.6-2.1-3.1 1.8-6.8 3.8-10.9 5.7l-8.4-17.5c17.9-7.2 35-13.9 51-19.9 6.6 22.8 13.8 55.7 21.1 92.3l-10.7 1.6c-5 .3-54.1 3.6-89.2 21-20.6 10.2-47.5 12.6-71.6 12.5-1.3-.7-2.9-1-4.5-.9-.9.1-1.8.4-2.5.7-12.5-.3-23.9-1.2-32.9-1.9-4.9-.4-9.2-.7-12.7-.9-13.8-.7-23.4 3.2-29.6 7.4-2.5-8.6-5.4-15.3-8.1-20.4 50.5-31.4 117.2-61.9 178-86.8l8.3 17.3-23.4 9.9zm48.7 300.1l-10.6-107.8 24.3-3.7 22 111.9.3 5-36.6-1.3c.5-1.3.8-2.7.6-4.1zm-12-122.2l-10.8-110c4-1.3 8.1-2.4 12.1-3.4L687.6 149l-22.9 3.5zm41.6 8.3l21.7-3.3h.1c1.9-.3 3.5-1.6 4.6-3.2 1.1-1.6 1.5-3.8 1.1-5.7L713.4 39.9c-.7-3.9-4.5-6.4-8.3-5.7-3.9.7-6.4 4.5-5.7 8.4l19.2 101.5-15 2.3-21.9-110.8c19.6-3.7 35.3-4.6 35.5-4.6.2 0 .5 0 .7-.1l11.7-1.8c9 46.1 17.9 96.6 25.4 139.7 3.2 18 6.1 34.8 8.8 49.5 2.9 16 6.3 37.8 10 62.2-15.7 0-29 0-39.2.1h-4.4l-1.6-.1-.3-6.8c0-.3 0-.5-.1-.8 0-.2-.1-.4-.1-.6l-21.8-111.5zM422.1 438.5c3.3 3 8.4 2.7 11.4-.5l14.9-16.4 6.7 2.9c-.5 1.2-1 2.5-1.5 3.6-1.5 3.6-3 7.1-4.3 10.4-10.3 26.8-1.3 79.4-.5 83.9l.6 5.2-27.3 8.5-23.2-249.2 75.1 2.6c4.6 59.7-3.9 95.4-12.9 120l-11.5-5c-3.2-1.4-6.9-.6-9.2 1.9l-18.8 20.7c-3 3.3-2.8 8.4.5 11.4zm-43.3-214.8c-2.1-3.9-6.9-5.5-10.8-3.4l-28.5 14.9-37.1-76.5c19.7-14.4 41.3-30.8 65.2-49.7l36.1 58.4 18.3 61c0 .1.1.2.1.3l12.5 41.8-79.5-2.8-8.6-17.8 28.9-15.1c3.9-2.3 5.4-7.1 3.4-11.1zm-60.2 5.5l18.2 37.7-65.6-2.3 47.4-35.4zm-67.7 30.5l-23.5-49.8c18.2-11.5 38.5-25.1 61.7-41.7l22.4 46.2-60.6 45.3zm239.2 30.4l54.4 1.9 8.6 113.1-76 7.3c9.1-25.7 17.3-62.6 13-122.3zm-38.6-19.2L440.1 233l37.5-4.2 8.6 43.3-4.3-.2h-.8l-29.6-1zm51.2 1.8l-9-45.7 27.3-3.1h.2l39.5-4.4 5.8 54.9c0 .2.1.4.1.6l-63.9-2.3zm22.6-65.5c-9.4-22.2-43.8-105.1-47.2-129.4-.4-2.7-.8-5.2-1.2-7.7 2.4-2.7 9.9-9.4 25.2-8.6 3.3.2 7.5.5 12.3.9 8.3.7 18.6 1.5 30 1.9l14.7 139.2-33.8 3.7zm-46.8-73.9c10.6 28.8 23.5 60.1 30.1 75.8l-73.2 8.2-16.7-55.7-.3-.9 60.1-27.4zM410 146.9l-29.7-48.1c13.6-10.9 27.9-22.5 43-35 8.4-6.9 17.9-13.9 28.3-20.9 3.7 7.6 8.3 19.7 10.7 37 1.1 8.3 5.3 22.2 10.9 38.1L410 146.9zm54.3 297.4c1.2-3 2.6-6.4 4.1-9.9.7-1.7 1.4-3.4 2.2-5.2l85.2-8.2 5.5 47.8-100.7 10.5c-.4-13.2.4-26.4 3.7-35zm96.3-151.7l32.3 1.1 7.2 106.8-30.4 2.9c-.2-.5-.4-1-.7-1.4l-8.4-109.4zm21.7-17.1c.2-.9.3-1.9.2-2.9l-22-208.1c13.9-.1 28.6-1.2 42.6-4l29.5 216.8-50.3-1.8zm51 19.6l1.3 56.1v.3l1.1 45.5-19.6 1.9-7.1-104.6 24.3.8zm-.7-137.7l-13.7-101c5-1.6 9.9-3.6 14.5-5.8 1.6-.8 3.3-1.6 5-2.3L648.9 155l-16.3 2.4zM463.7 1.7l-32-54.6c22.5-14.8 52.2-35.6 82.7-57.4L556-46.1C523.7-31 491.9-14.9 463.7 1.7zM450 10c-16.8 10.5-32.1 21.2-45 31.8-50 41.3-91.1 73.2-125.8 98.3-5.5-18.3-17.6-48.6-43.6-86.4-3.7-5.4-7.2-10.7-10.4-15.9L398-32.4c.2-.1.3-.1.5-.2 4.6-2.2 11.4-6.2 19.8-11.5L450 10zm-58.3-57.2l-9.8 4-18.5-73.6 29.9-10.8 19.3 68.1c-9.1 5.7-16.2 10-20.9 12.3zm-21.9 8.9L216.7 23.9a420.2 420.2 0 0 1-16.6-32.1l88-29.4 74-25.3 7.7 24.6zm-47.1-24.4c-1.5-2.8-3.8-8-5.5-17.1-1.2-6.1-2.5-12.6-3.8-19.3l30-10.5 8.2-3 9.3 36.8-38.2 13.1zm16.4-58.6l-28.2 9.9c-2.5-12.3-5-25-7.5-37.1l23.9-9.3 19.8 33.6-8 2.9zm-34.2 44c1.7 8.6 3.9 14.6 5.8 18.7l-26.6 9.1L195-19.7c-7.7-18.2-10.7-29.5-10.8-29.7l-.6-1.8c-.3-.7-.6-1.4-.8-2l118.6-41.6c1.2 6 2.4 11.9 3.5 17.5zM178-64.8l-.6-1.5c-5.7-13.7-12.3-29.6-18.6-46.6l132.6-31.6c2.5 12.3 5.1 25 7.6 37.4L178-64.8zm-23.5-60c-10.2-29.1-18.9-60.8-20.7-90.3l143-.1c2 9.6 6.7 32.1 12.1 58.3l-134.4 32.1zM151-55.4c2.1 5 4 9.7 5.8 14.1 1.6 5.7 9.8 33.5 30.5 71.1l-52.9 9.6c-.2 0-.3.1-.5.1L41 56.3C6.6-3.7-19.3-48.4-23.7-56c-.4-1-1.7-4-3.2-8.9l165.7-20.7c4.2 10.8 8.4 21 12.2 30.2zM131.1 56.3l49.5 100c1.6 3.3 5.1 4.9 8.5 4.4.8-.1 1.5-.4 2.2-.7 4-2 5.6-6.8 3.6-10.8l-47.5-95.8 48.3-8.7c4.8 8.1 10.2 16.6 16.2 25.2 30.1 43.8 39.6 76.2 42.3 87.9-50.3 34.9-85.7 54.5-115.6 69.7-30.3-53.6-62-108.9-89.2-156.4l81.7-14.8zm81 163.1l26.9 57c1.4 3 4.4 5 7.8 5.1l30.9 1.1c-.7.2-1.3.4-1.9.8l-78.6 48.2c-13.6-24.6-28.7-51.5-44.3-79.3 17.3-8.8 36.4-19.1 59.2-32.9zM237.2 326l6 9c2.5 3.7 7.5 4.7 11.1 2.2 3.7-2.5 4.7-7.5 2.2-11.1l-5.7-8.5 33.3-20.4c3.8-2.3 5-7.3 2.6-11.1-1-1.6-2.4-2.7-4.1-3.3l55.7 2-115.1 94.6c-5.6-10.4-11.8-21.7-18.4-33.7l32.4-19.7zm-29.9 83.9c9.4 17.6 16.7 31.8 21.1 41.1 18.4 39.4 43.4 83.2 65.5 121.8.6 1.1 1.3 2.3 1.9 3.4-17.5 6.5-47.4 17.4-78.8 28.1l-4.7-17.5 46.6-14.5c2.3-.7 4.1-2.4 5-4.5.9-2.2.8-4.6-.2-6.7l-61.8-123.5c-1-1.9-2.6-3.4-4.7-4-2-.7-4.3-.5-6.2.5-.7.4-8.9 4.6-20 10.7l-6.9-13.4c17-8.9 33.5-16.8 43.2-21.5zm-10.4 181.8l4.8 17.8c-25.7 8.5-51.1 16.3-70.5 20.9-5.3 1.3-10.3 2.6-14.9 4l-2.5-16.8 83.1-25.9zm-85.4 9.8l-3.1-21.1 79.3-23.4 5.1 19.1-81.3 25.4zm87.4-64.6l-20.8-77.7c5.1-2.8 9.6-5.2 13-7.1l38 75.9-30.2 8.9zm37.5 5.7l8.6 17.2-36.9 11.5-5.1-18.9 33.4-9.8zm-52.9-1.2L106 564.3 97.2 504c8.5-2.7 23.6-8.7 40.8-20.5 7.9-5.4 17-11 25.7-16.1l19.8 74zm139.7 25.3c-1.5-2.6-3-5.3-4.6-8-21.8-38.1-46.5-81.3-64.4-119.7-4.8-10.2-12.8-25.8-23.2-45.2l127.6-104.9c1.1-.9 1.9-2.1 2.4-3.4l21.6.8 16.6 178.2-57.7 18.5c-4.2 1.4-6.6 5.9-5.2 10.1 1.4 4.2 5.9 6.6 10.1 5.2l54.3-17.4 5.6 60.1-83.1 25.7zm129.6-10.3l6.4 53.5 6.7 73.9c-11.7 1.7-22.8 3.4-33 5-13.6 2.1-26.6 4.1-39.1 6-4.7.7-9.2 1.4-13.7 2.1-7.2-22.9-12.5-40.1-14.2-46.5-1.2-4.5-3.4-10.2-6.5-16.8-.1-.3-.2-.5-.4-.8-5.1-11.1-12.5-24.8-21.4-40.7l115.2-35.7zm12.3-32.7l-.4-3.4c0-.2 0-.3-.1-.5-1-5.3-2.3-14.3-3.1-24.5L571 483.9c2.1-.2 4.1-1.3 5.4-3 1.3-1.7 2-3.8 1.7-5.9l-6.4-55.6 64.4-6.2.9 36.5v.2l1 42.2c-1.4-.2-2.9-.2-4.4.1l-168.5 31.5zm29 23.6l1.1 76.4c.1 4.4 3.7 8 8.1 7.9.4 0 .8 0 1.2-.1 3.8-.6 6.7-4 6.7-8l-1.1-79.2 36.2-6.8 2.1 42.1c.2 4.4 4 7.9 8.4 7.6.3 0 .6-.1 1-.1 4-.7 6.9-4.2 6.7-8.3l-2.2-44.3 42.1-7.9 9.7 97c.4 4.4 4.4 7.6 8.8 7.2.2 0 .4 0 .5-.1 4.1-.7 7.1-4.5 6.7-8.7l-9.8-98.4 18.5-3.4 3.3 140.7c-49 5.9-109 13.4-160.1 20.5l-6.6-73.2v-.2l-6.7-56.1 25.4-4.6zm140.5-375.7l15.7-2.4 10.5 107c.1.7.3 1.3.5 2l-12.2-.4c0-.2 0-.5-.1-.7l-14.4-105.5zM672 296.5l.4 17.1c.1 3.5 2.9 6.2 6.4 6.1 3.5-.1 6.2-2.9 6.1-6.4l-.4-16.4 28.9 1 2.9 57.3-65.8-10.8-1.2-48.7 22.7.8zm65.8 159.3c14.8.9 44.4 2.6 61.5 3.5 2.9 20.5 5.7 40.8 8.5 60.2l-80.3 5.9-1.6-66.9 11.9-2.7zm12.3-15.3l11.2-142h15.2c3.4 23.1 6.9 47.7 10.2 71.2 2.5 17.9 5.1 36.3 7.7 54.8.9 6.2 1.7 12.4 2.6 18.7-13.4-.8-32.5-1.9-46.9-2.7zm45.1-208.4c-1.1-6.8-2.2-13.2-3.2-18.8-.2-1.1-.4-2.2-.6-3.2l70.5-13.5c1.2 8.2 2.4 16 3.5 23.3-24.6 4.1-53.5 9.2-70.2 12.2zm-6.6-37.8c-1.7-9.6-3.5-19.8-5.4-30.4-2.6-14.6-5.3-30-8.1-45.9l38.8-12.1c3.3-1 5.1-4.5 4.1-7.8s-4.5-5.1-7.8-4.1l-37.3 11.7c-1.6-9.1-3.3-18.2-5-27.4L842.8 65c3.7 23.4 7.6 50.4 12.1 82.8 1.6 11.7 3.2 22.6 4.7 33l-71 13.5zM765.2 63.6c-2.4-13-4.9-26-7.3-38.7l75.6-11.3c2.4 11.2 4.7 23.4 6.9 36.8l-75.2 13.2zm-10.1-52.7c-3.4-17.1-6.8-33.4-10.1-48.4l63.9-29.1c9 21.1 15.7 41.6 21.5 66.3l-75.3 11.2zM742.2-50c-3.3-14-6.5-26.6-9.6-37.2 26-9.5 46.7-16.6 58.7-20.7 4.4 10.4 8.7 20.4 12.6 29.7L742.2-50zm41.1-177.1c.3 0 .5-.1.8-.2l8.6-2.7c-7.3 6.2-16.1 13.7-26.3 21.4-1.8-5-3.5-9.8-5.1-14.4l22-4.1zm-24.5 39.2c6.6 17.3 14 35.6 21.4 53.6-12.5 4.2-32.4 11.1-57.1 20.1-2.9-7.3-6.4-15.8-10.5-25.6-2.5-5.9-5.1-12.2-7.8-18.9 20.3-8.1 38.4-18.5 54-29.2zm-71.3-100.3c.9.3 1.9.4 2.8.2l38-5.8c1.1 5.6 2.5 11.3 3.9 17.1 1.7 7 3.4 14.1 4.9 21.6 1.4 7.1 3.8 15.6 6.9 25.3l-38.6 26.4c-2.8 1.9-3.6 5.8-1.6 8.7 2 2.9 5.8 3.6 8.7 1.6l35.7-24.4c1.9 5.6 4 11.5 6.2 17.5-15.6 10.8-33.8 21.5-54.2 29.6-12.8-31.6-27.8-70.2-41.7-113.8l29-4zm-34.1 76.9c12 32.2 23.6 60.1 32.9 82.5 3.9 9.4 7.3 17.6 10.1 24.6-38.3 14.4-83.8 32.6-128.7 53l-42.9-66.2c6.4-4.6 12.7-9.1 19.1-13.7l27.5 40.7c1.1 1.7 3 2.7 5 2.7 2 .1 3.9-.8 5.1-2.4l41-53 24-14.5 4.3 6.7c1.8 2.9 5.7 3.8 8.6 2 2.9-1.8 3.8-5.6 2-8.6l-7.3-12c-.3-.6-.8-1.1-1.2-1.5l-17.2-27c6.9-5.4 13-9.9 17.7-13.3zm-99.5 72.7c26.6-19.3 51.9-37.7 71.5-52.1l14.3 22.4-24.7 15c-.7.4-1.2.9-1.7 1.5l-36.4 47.1-23-33.9zm-70.8-78.9c.8.3 1.6.5 2.5.5l86.9-.3c3.4 0 6.2-2.7 6.2-6.1.1-3.4-2.6-6.2-6-6.4-.2 0-14.7-.5-35.8-.7l-7.5-43.4 89.6-.4 6.1 32.2c.6 3.4 3.9 5.6 7.3 5 3.4-.6 5.6-3.9 5-7.3l-5.2-27.3c5 15.6 10.2 30.5 15.3 44.7-30.2 22.4-155 114.4-220.9 158.3l-17.5-61.6 45.5-1.1c3.5-.1 6.2-2.9 6.1-6.4-.1-3.5-2.9-6.2-6.4-6.1l-48.7 1.2-18.1-63.9c16.8-5.9 49.6-9.6 95.6-10.9zm-93.3 77.8L359-128.5l-20-33.9 16-6.2c2.5-1 4-3.3 4-6l-.4-18.4 14.1-7 17.1 60.3zm-65.5-87.2l37.5 18.3-12.3 6.1c-2.2 1.1-3.5 3.3-3.5 5.7l.4 18-13.8 5.4-7.3-12.3-10.5-30.3 9.5-10.9zm-27.6-13.5l16 7.8-9.7 11.2c-1.5 1.7-1.9 4-1.2 6.1l11.9 34.3c.1.4.3.8.5 1.1l6.5 11.1-20 7.8c-5.9-28.9-11-53-12.4-59.8l8.4-19.6zm-163 6.8c.4-8.2.8-18.6 1.2-30.5 53.1.2 103.1.3 114 .3l36.6 17.9-7.7 18.2-144.3.1c0-2 .1-4 .2-6zm-91.5-30.8c18.7.1 41.1.2 64.1.3-.4 11.3-.8 21.3-1.2 29.1-.2 5-.3 10.2-.1 15.3L35.2-225l7-39.4zm-76.4 88.2c.6-4.9 1.2-9.5 1.7-13.9 3.7-29.7 5.7-49 1.7-67.6 6.5-3.6 15.4-7.4 24.3-7.1 4.2.1 17.5.2 36 .3L11.4-162.7c-.6 3.3 1.6 6.6 4.9 7.2 3.3.7 6.6-1.4 7.3-4.8l11.7-52.2 70.4 5.4c3.3 37.3 15.5 75.9 28.2 109.4L-30.3-77c-4.7-20-9.3-53.5-3.9-99.2zM-25 88.1l7.3-2.2c4.2-1.3 6.6-5.7 5.4-9.9L-44.4-34.6C-29.5-8.9 20.4 77.5 73.9 171.3L34 192.8-25 88.1zm67 118.7l39.9-21.5c10.4 18.3 20.9 36.8 31.3 55.1-14 7-26.9 13.6-40.3 21.3L42 206.8zm-3.2 110.6c10.6-7 20.6-13.7 30.1-19.8 19.9-12.9 37.9-22.1 58.3-32.3 16.1 28.6 31.6 56.3 45.5 81.4l-52 31.9-9.6-21.1c-1.8-4-6.6-5.8-10.6-4-4 1.8-5.8 6.6-4 10.6l13.4 29.3c1 2.1 2.8 3.7 5 4.3 1.2.4 2.5.4 3.7.2 1-.2 2-.5 2.9-1.1l59.1-36.3c6.9 12.5 13.3 24.3 19.1 35.1-17.9 8.5-56.3 27.2-82 42.9-12.1 7.4-43.6 13-63.6 15.8-6.2-34.6-12.4-65.2-16.5-80.1-4.2-15.1-11.7-29.5-20.7-42.6 7.2-4.5 14.5-9.3 21.9-14.2zm8.9 322.9c-9.6 4.5-35.6 14.8-60.1 18.9-3.9.7-7.4 1.1-10.4 1.3l-7.2.3c-7-.1-10.7-1.3-12.2-2-5.9-2.8-10.6-6.2-14-10.2L48 627.4c.2 6 0 10.2-.3 12.9zM-90 209.8c-6.7-6.2-14.4-13.5-23.1-22.4l44.2-18.7 11.4 16-32.5 25.1zm50.6 61.9l-1.7-1.5c-2.4-2.1-5.4-3.5-8.7-4.2l-.2-7.4c-.3-13.5-9.3-21.4-25.5-35.8-.8-.7-1.5-1.3-2.3-2l29.7-22.9 69 97.1c-6.9 4.6-14.2 9.4-21.7 14.3-14.9-17.1-30.2-30.3-38.6-37.6zm-51 418.9c-.5 7.9-1.5 30.8.6 54.4l-2.1-.2-16.8-88.4 22.3-2c2.8 5.7 6.4 10.9 11 15.6-8.5 4.2-14.8 10.7-15 20.6zm27.1-57.1c-1.9-10.5-4.4-22.4-7.4-34.9l90.3-16c4.4-.8 7.3-4.9 6.5-9.3-.8-4.4-5-7.3-9.3-6.5L-74.5 583c-14.8-59.2-37.1-128.5-49.1-153.5-2.7-5.5-5.7-10.1-8.9-13.8 34.1-12.1 76.6-36.9 125.3-68.2C.4 358.4 6.7 370.1 10 382c2.4 8.7 5.9 24.8 10 45.3l-27.9 8.5-4.1-20.9c-.9-4.4-5.1-7.2-9.4-6.3-4.4.8-7.2 5.1-6.3 9.4l5.8 29.7c.4 2.2 1.8 4.2 3.8 5.4 1.7 1 3.6 1.4 5.5 1 .3-.1.7-.1 1-.2L23 443.2c4.3 23 8.9 49.8 13.1 77.6 6.4 42 9.7 71.1 11.1 90.4l-110.5 22.4v-.1zM42.3 814.7c-4.3 5.9-8.8 12-12.7 18-2 3.1-3.9 6.1-5.6 9.1-3.3-3.9-6.6-7.8-9.9-11.8-3.5-4.3-7.3-7.9-11.4-10.9 16.4-7.7 34.4-14.3 44-13.8.7 0 1.5.1 2.4.1-2.2 3.1-4.4 6.2-6.8 9.3zm22.2-38.1c-6.9.4-12.4.5-16.2.2-23.4-1.3-60 17-75.3 25.3-5.3-3-14.1-9-24.1-19.7-9.1-9.7-12.6-52.3-10.8-87.5 5.2-2.6 17.2-4.7 32.8-5.6 2.6 0 5.3-.1 8.1-.3 14-.4 30.1.3 46.4 2.4 29.5 3.9 41.2 10.4 43.7 12.9 2.5 19.2 5.7 44-4.6 72.3zm5.9-112.1c-1.2 2.6-2 5.1-2.4 7.5-3.8-1.4-7.9-2.7-12.5-3.9 13-5.7 14.8-8.4 16.2-10.6 3.9-6 11.2-17.1-6.6-135.9-2.5-16.8-5.4-34.3-8.3-51.4 19.1-2.6 53.7-8.5 69.1-17.9 7.1-4.3 15.3-9 23.8-13.5l7.1 13.8c-9.4 5.5-19.4 11.6-28.1 17.6-23.2 15.9-42.1 20-42.2 20-4.2.9-7 4.8-6.3 9L100.9 640c-15.7 6.7-25.8 14.8-30.5 24.5zm138.3 78C181.6 759 133 769 95.3 773.7c5.9-22.2 5.4-42.2 3.7-58.6 12.3 4.8 27 5.8 44.1 2.9 11.6-2 24.2-5.7 37.9-11.2 62.6-25.2 130-43.7 156.7-50.7.2.6.3 1.1.5 1.6 1.7 6.3 6.6 22.4 13.3 43.7-62.9 10.2-107.7 19.8-142.8 41.1zm162 161l-33.4-107.6 25.9-15c3.8-2.2 5.1-7.1 2.9-11-2.2-3.8-7.1-5.1-11-2.9l-22.7 13.2-13.6-44c12.8-2.4 26.6-4.7 41.5-7.1 15.7 49.4 36.2 113.1 50.4 156.7-13.9 6.1-28.5 12.7-40 17.7zm70.7-32c-1.4.7-3 1.4-4.6 2.2-13.7-42.2-32.9-101.8-48-149.2 3.1-.5 6.2-.9 9.3-1.4 7.7-1.2 15.6-2.4 23.8-3.7l36.1 145c-5.6 2.2-11.2 4.6-16.6 7.1zm31.9-12.5l-35.4-142c21.5-3.4 47-7 73.9-10.6l8.7 22.6-30.5 4.3c-4.4.7-7.5 4.7-6.8 9.1.6 4.4 4.7 7.5 9.1 6.8l40.3-5.7c.2 0 .3 0 .5-.1L557 740l11.5 60.3-70.7 11.6c-4.4.7-7.3 4.9-6.6 9.2.7 4.4 4.9 7.3 9.2 6.6l34.3-5.6 4.5 25.2c-23.5 1.4-45.4 5.3-65.9 11.7zm363.5-171.4c2.6 12 5.3 23.7 7.9 35.2l-66.9 9.6-48.2 1.1c-4.4.1-7.9 3.8-7.8 8.2.1 4.4 3.8 7.9 8.2 7.8l48.7-1.1c.3 0 .6 0 1-.1l68.8-9.9c9.4 39.9 18.3 74 23.3 92.8-44.1 6.4-87.5 10.5-110.1 10.6-.4 0-.8 0-1.2.1-1.1.1-112.7 9.5-176.3 5.6-9.9-.6-19.4-.8-28.8-.7l-4.8-27.2 28.7-4.7c2.1-.4 4-1.6 5.3-3.3 1.2-1.8 1.7-4 1.3-6.1l-14.5-75.9c-.8-4.2-4.8-7-9-6.4l-25.6 3.6-8.6-22.4c38.8-5.1 79.3-10.1 114.5-14.4l.3 12.2-45.5 1.1c-2.2.1-4.3 1-5.8 2.7-1.5 1.7-2.2 3.9-2 6.1l1.9 19c.4 4.4 4.4 7.6 8.8 7.2.2 0 .4 0 .6-.1 4.1-.7 7.1-4.5 6.7-8.7l-1-10.4 44.9-1.1c2.1-.1 4.2-.9 5.6-2.5 1.5-1.5 2.3-3.6 2.2-5.7l-.5-21.8c40.9-4.9 72-8.4 80-9.3 33.8 5.4 64.2 8.4 97.9 8.9zm-6-28.8c-30.5-.7-58.4-3.6-89.4-8.8-1.3-.2-2.6-.3-3.9-.1-.5.1-12.6 1.4-32.2 3.7l-13.5-197.1 21.6-.5 1.8 76.3c0 1.7.8 3.3 2 4.5 1.3 1.2 3 1.7 4.7 1.6l87.8-6.4c2.8 19.7 5.6 38.4 8.2 55.1 3.4 22.8 7.9 47.3 12.9 71.7zm-.5-252.5l-5.5.1-8-27.8c-.4-2.7-.8-5.3-1.1-8l15.2-1-.6 36.7zm.8-51l-17.4 1.2c-2.8-19.7-5.6-39.3-8.3-57.9 8.5.1 17.4.2 26.5.3l-.8 56.4zm-28.3-74.6c-1.9-12.9-3.8-25.1-5.6-36.3 16.6-3 45.5-8.1 70.1-12.3 3.2 21 5.9 37.4 8 49.7-25.9-.6-50.6-.9-72.5-1.1zm55.5 25.5c-3.3.6-5.7 3.3-5.9 6.6 0 .3-.5 8.6.8 37.4.4 7.8-1.4 9.3-1.5 9.3-.9.5-3.6-.2-6.5-1.5l.9-58.8c10.5.2 21.2.4 32.2.7.2 1 .4 2 .5 2.9l-20.5 3.4zM876 193.9l98.4-18.8c2.6 10.3 7 27.5 11.9 47.5-3.9-.4-7.1-.6-9.2-.7-7.2-.1-15.5-1.9-24.3-3.9-15.1-3.3-32.2-7-50.8-4.2-5.5.8-13.3 2.1-22.4 3.6-1.2-7.3-2.4-15.2-3.6-23.5zm47.6 89.6l-.1-4.4 17.9-.4.1 5.7c-6-.4-11.9-.7-17.9-.9zm65.9 3.5l-.3.2c-12.7-.9-25.7-1.7-38.8-2.4l-.3-10.8c0-1.2-.5-2.3-1.4-3.1-.9-.8-2-1.3-3.2-1.2l-26.8.6c-2.5.1-4.4 2.1-4.4 4.6l.2 8.3c-8.3-.3-16.6-.6-24.8-.9-2.1-12.5-5-29.9-8.5-52.5 9.1-1.5 16.9-2.8 22.4-3.6 16.4-2.4 31.6.9 46.3 4.1 9.5 2.1 18.4 4 26.8 4.1 2.4 0 6.8.4 12.4 1 5.3 26.2 1.8 45.8.4 51.6zm95 11.2c-23.9-4.3-52.2-7.6-82.4-10 1.7-7.9 4.4-26.6.2-51.2 8.6 1.1 18.5 2.4 28.7 3.7 22.9 3 41.7 5.4 57 7.2-.1 26.8-2 42.4-3.5 50.3zm3.3-62.9c-18.7-2.1-39.3-4.9-55.2-7-12.5-1.7-23.8-3.1-33.1-4.3-5.2-21.5-9.9-40.2-12.8-51.4l95.4-18.3c3.6 33.5 5.2 60.1 5.7 81zm-7.1-96.9l-100.2 19.2c-1.3-.6-2.8-.8-4.3-.4-1.2.3-2.3 1-3 1.9l-99.5 19c-1.5-10.1-3-20.8-4.6-32.2-2.3-16.7-4.5-31.9-6.5-46 71.5-12 180.9-29.3 212.2-31.6 2.3 22.1 4.3 45.5 5.9 70.1zm-7.5-86.1c-42.9 3.3-175.8 25.3-212.9 31.5-1.1-7.5-2.2-14.6-3.3-21.4l50.2-8.9c.1 0 .2-.5.3-.5l83.1-19.3c3.2-.6 50-8.9 79.4-9.3 1 9.1 2.1 18.4 3.2 27.9zm-5.1-42.1c-31.6.7-78 9.1-80.3 9.5-.1 0-.2.1-.3.1l-83.1 19.4-49.9 8.7c-2.3-13.3-4.5-25.3-6.9-36.5L921.3.3c.2 0 .3 0 .4-.1 1-.2 95-20.4 141.3-25.1 1.9 11.3 3.5 22.9 5.1 35.1zM1061-39c-46.6 4.9-135.4 23.9-141.9 25.3L844.5-2.5c-6.1-26.1-13.1-47.8-22.8-70.3l-3-6.9c-4.2-9.8-8.9-20.9-13.9-32.7 27.8-9.9 82.1-29.4 144.6-51.8l16 25.1c1.4 2.2 3.9 3.2 6.3 2.8.8-.1 1.6-.4 2.3-.9 2.9-1.9 3.8-5.7 1.9-8.6l-14.5-22.8c21.7-7.8 44.3-15.9 66.9-24 2.1 7.3 6.4 22.7 11.6 45.3l-10.8 4.6-19.2 8.4c-1.5.7-2.7 1.9-3.3 3.5-.6 1.6-.6 3.3.1 4.8l10.5 23.5 2.8 9.4c.9 3.1 4 4.9 7 4.4.2 0 .5-.1.7-.2 3.3-1 5.2-4.5 4.2-7.8l-2.9-9.8c-.1-.3-.2-.5-.3-.8l-8.1-18.1 13.4-5.9 8.6-3.7c5.9 25.2 12.3 57.5 18.4 96z"/><path class="st10" d="M1011.2 861.9c.1.6.3 1.2.4 1.8l2-1.8h-2.4zM353.9 461.2l11.6.1.1-23.2 15.5.1.1-11.6-15.5-.1.1-11.7h-11.6l-.1 11.6-15.5-.1-.1 11.6 15.5.1zm707.4-338.7c-11.5.3-21-9.8-21.2-21.3-.1-5.3 2.4-11.3 5.6-15-8.2 3-14.6 12-14.4 21.2.3 11.5 9.8 20.6 21.4 20.4 6.2-.1 11-1.9 14.8-6.3-2.2.7-3.9 1-6.2 1z"/><path class="st10" d="M1063.4 97.9l.7-5.3-4.6 2.6-4.8-2.4 1 5.3-3.7 3.8 5.3.6 2.5 4.7 2.2-4.8 5.3-.9zM-10 546.4l-11.5.3-.7-30.7c-.2-6.4-5.4-11.4-11.8-11.3l-7.7.2c-6.4.2-11.4 5.4-11.3 11.8l.7 30.7-11.5.3.3 11.5 53.8-1.3-.3-11.5zm-23.5-18.6l.4 15.4-7.7.2-.4-15.4-7.7.2-.2-7.7 7.7-.2-.2-7.7 7.7-.2.2 7.7 7.7-.2.2 7.7-7.7.2z"/><path class="st11" d="M260.3 247.1c.5 21.5-38 79.4-38 79.4s-39.3-56.1-39.8-77.6c-.5-21.5 16.5-39.3 38-39.8s39.3 16.5 39.8 38z"/><circle class="st12" cx="221.4" cy="245.8" r="22.6"/><path class="st13" d="M977.6-238.5c-2.8-10-12.1-17.2-23-16.9-10.9.3-19.8 7.9-22.1 18l-7.3.2.3 11.7 7.3-.2c2.8 10 12.1 17.2 23 16.9 10.9-.3 19.8-7.9 22.1-18l7.3-.2-.3-11.7-7.3.2zm-22.7-6.8c5.2-.1 9.7 2.8 12 7.1l-23.7.6c2.1-4.5 6.5-7.6 11.7-7.7zm.6 26.5c-5.2.1-9.7-2.8-12-7.1l23.7-.6c-2.1 4.4-6.5 7.6-11.7 7.7z"/><path class="st14" d="M-141 404.1S-80.8 380.7-9.7 334s197.1-116 234.5-138.5C316.7 140.3 390.5 64 464.2 18.9 557.7-38.3 721.3-98 859.8-147.5c134.1-48 244.6-86.7 244.6-86.7"/></g></svg>