<svg xmlns="http://www.w3.org/2000/svg" width="63" height="36" viewBox="0 0 63 36"><g fill="none" fill-rule="evenodd"><path fill="#5E93CC" fill-rule="nonzero" d="M57.913.085H5.067C2.784.085.932 1.437.932 3.105V34.21c0 1.668.466 1.713 2.75 1.713h55.616c2.283 0 2.749-.045 2.749-1.713V3.104c0-1.667-1.851-3.019-4.134-3.019z"/><path fill="#E6E6E6" fill-rule="nonzero" d="M62.047 2.62v1.866H.932V2.62c0-.797.467-2.534 2.75-2.534h55.79c2.282 0 2.575 1.737 2.575 2.534z"/><path fill="#5E93CC" fill-rule="nonzero" d="M20.699 6.741h21.573v4.185H20.699z"/><rect width="19.407" height="1.75" x="22.2" y="4" fill="#FFF" rx=".875"/><path fill="#FFF" fill-rule="nonzero" d="M40.226 25.585l-2.039-1.132 1.767-1.003a.645.645 0 0 0 .242-.902.7.7 0 0 0-.938-.233l-2.434 1.38-3.67-2.038 3.67-2.038 2.434 1.38a.702.702 0 0 0 .938-.233.646.646 0 0 0-.242-.902l-1.767-1.003 2.04-1.132a.646.646 0 0 0 .25-.9.7.7 0 0 0-.936-.242l-2.039 1.133-.018-1.974a.672.672 0 0 0-.691-.653.672.672 0 0 0-.68.665l.026 2.719-3.67 2.038V16.44l2.46-1.338a.646.646 0 0 0 .26-.898.7.7 0 0 0-.933-.25l-1.786.972V12.66a.672.672 0 0 0-.685-.659.672.672 0 0 0-.686.66v2.265l-1.786-.972a.7.7 0 0 0-.933.25.646.646 0 0 0 .26.898l2.46 1.338v4.076l-3.67-2.038.025-2.72a.672.672 0 0 0-.679-.664h-.006a.673.673 0 0 0-.685.653l-.018 1.974-2.04-1.133a.7.7 0 0 0-.935.241.646.646 0 0 0 .25.9l2.04 1.133-1.767 1.003a.645.645 0 0 0-.243.902.703.703 0 0 0 .938.233l2.435-1.38 3.67 2.038-3.67 2.039-2.435-1.381a.7.7 0 0 0-.938.233.645.645 0 0 0 .242.902l1.768 1.002-2.04 1.133a.646.646 0 0 0-.25.9.703.703 0 0 0 .936.241l2.039-1.132.018 1.974c.004.362.31.653.685.653h.006a.672.672 0 0 0 .68-.665l-.026-2.72 3.67-2.038v4.077l-2.46 1.338a.646.646 0 0 0-.26.898.703.703 0 0 0 .933.25l1.786-.972v2.266c0 .364.307.659.686.659a.672.672 0 0 0 .685-.66V28.39l1.786.972a.703.703 0 0 0 .933-.25.646.646 0 0 0-.26-.898l-2.46-1.338v-4.077l3.67 2.039-.026 2.719c-.003.364.3.662.679.665h.006a.673.673 0 0 0 .685-.653l.02-1.974 2.038 1.133a.703.703 0 0 0 .936-.242.646.646 0 0 0-.25-.9z"/></g></svg>