<svg xmlns="http://www.w3.org/2000/svg" width="43" height="53" viewBox="0 0 43 53"><g fill="none"><path d="M4.353 51.015c0 .6-.48 1.086-1.072 1.086a1.08 1.08 0 0 1-1.072-1.086c0-.6.48-1.086 1.072-1.086a1.08 1.08 0 0 1 1.072 1.086zm36.436 0c0 .6-.48 1.086-1.07 1.086a1.08 1.08 0 0 1-1.074-1.086c0-.6.48-1.086 1.073-1.086.59 0 1.07.487 1.07 1.086z" fill="#434A54"/><path fill="#E6E9ED" d="M41.86 0H1.137C.546 0 .066.485.066 1.084V49.93c0 .6.48 1.086 1.072 1.086H41.86a1.08 1.08 0 0 0 1.074-1.086V1.084A1.08 1.08 0 0 0 41.86 0z"/><path fill="#5D9CEC" d="M.066 9.822h42.867v34.681H.066z"/><path fill="#434A54" d="M40.789 4.34c0 1.799-1.438 3.257-3.215 3.257s-3.215-1.458-3.215-3.256c0-1.799 1.438-3.257 3.215-3.257s3.215 1.458 3.215 3.257z"/><path fill="#656D78" d="M38.641 3.336a1.074 1.074 0 0 1-1.146 1.001 1.08 1.08 0 0 1-.989-1.162 1.074 1.074 0 0 1 1.146-1.001 1.08 1.08 0 0 1 .99 1.162z"/><path d="M5.424 3.256c-.59 0-1.07.485-1.07 1.085 0 .599.48 1.086 1.07 1.086.593 0 1.072-.487 1.072-1.086 0-.6-.479-1.085-1.072-1.085zm4.287 0c-.592 0-1.072.485-1.072 1.085 0 .599.48 1.086 1.072 1.086a1.08 1.08 0 0 0 1.072-1.086c0-.6-.48-1.085-1.072-1.085zm4.287 0c-.592 0-1.072.485-1.072 1.085 0 .599.48 1.086 1.072 1.086.592 0 1.07-.487 1.07-1.086 0-.6-.478-1.085-1.07-1.085z" fill="#5D9CEC"/><path d="M.066 8.683v2.17h12.86c0 .6.48 1.086 1.072 1.086H29a1.08 1.08 0 0 0 1.074-1.086h12.86v-2.17H.065zm25.719 16.282c0 5.994-4.797 10.855-10.716 10.855-5.918 0-10.716-4.861-10.716-10.855 0-5.995 4.798-10.855 10.716-10.855 5.92 0 10.716 4.86 10.716 10.855z" fill="#CCD1D9"/><path fill="#E6E9ED" d="M25.785 28.221c0 5.994-4.797 10.855-10.716 10.855-5.918 0-10.716-4.86-10.716-10.855 0-5.994 4.798-10.855 10.716-10.855 5.92 0 10.716 4.86 10.716 10.855z"/><path fill="#F5F7FA" d="M25.785 31.477c0 5.995-4.797 10.855-10.716 10.855-5.918 0-10.716-4.86-10.716-10.855 0-5.994 4.798-10.855 10.716-10.855 5.92 0 10.716 4.861 10.716 10.855z"/><path fill="#E6E9ED" d="M20.428 31.477c0 2.998-2.399 5.427-5.36 5.427-2.957 0-5.357-2.43-5.357-5.427 0-2.997 2.4-5.426 5.358-5.426 2.96 0 5.359 2.43 5.359 5.426z"/><path fill="#BDC2C9" d="M27.93 15.196L29 26.05h8.574l1.07-10.855z"/><path fill="#CCD1D9" d="M27.93 20.622L29 31.477h8.574l1.07-10.855z"/><path fill="#E6E9ED" d="M27.93 26.05L29 36.905h8.574l1.07-10.853z"/><path fill="#F5F7FA" d="M27.93 31.477L29 42.332h8.574l1.07-10.855z"/></g></svg>