<svg xmlns="http://www.w3.org/2000/svg" width="54" height="55" viewBox="0 0 54 55"><g fill="none"><path fill="#ED2C39" d="M42.783 31.797a.865.865 0 0 1-.871-.86v-.859c0-.474.39-.86.87-.86.482 0 .872.386.872.86v.86c0 .474-.39.859-.871.859z"/><path fill="#50BEE7" d="M39.299 31.797a.865.865 0 0 1-.87-.86v-.859c0-.474.389-.86.87-.86s.871.386.871.86v.86c0 .474-.39.859-.871.859z"/><path fill="#B1C3D0" d="M47.348 31.797a.865.865 0 0 1-.871-.86V6.017c0-2.37-1.954-4.297-4.355-4.297a4.357 4.357 0 0 0-3.078 1.257.879.879 0 0 1-1.232 0 .85.85 0 0 1 0-1.215A6.1 6.1 0 0 1 42.122 0c3.361 0 6.097 2.699 6.097 6.016v24.922c0 .475-.39.859-.871.859z"/><path fill="#E2E4E6" d="M42.454 51.563H11.546c-2.22 0-4.199-1.385-4.932-3.453L1.742 34.375h50.516L47.386 48.11c-.733 2.068-2.712 3.453-4.932 3.453z"/><path fill="#B1C3D0" d="M42.454 51.563h-2.68l.886 2.622c.151.448.667.815 1.146.815a.868.868 0 0 0 .871-.86v-2.595c-.075.003-.148.017-.223.017zm-30.908 0c-.075 0-.148-.015-.223-.018v2.596c0 .472.392.859.87.859.48 0 .995-.367 1.147-.815l.886-2.623h-2.68z"/><path fill="#E2E4E6" d="M52.258 34.375H1.742A1.73 1.73 0 0 1 0 32.656c0-.949.78-1.718 1.742-1.718h50.516A1.73 1.73 0 0 1 54 32.656c0 .95-.78 1.719-1.742 1.719z"/><path fill="#576D7E" d="M39.061 1.85A3.423 3.423 0 0 0 36.64.86c-.915 0-1.774.35-2.421.99a.836.836 0 0 0 0 1.194l3.632 3.584a.86.86 0 0 0 .605.247.86.86 0 0 0 .605-.247 3.333 3.333 0 0 0 1.004-2.39c0-.902-.357-1.75-1.004-2.389z"/><path fill="#D0D7DA" d="M42.454 51.563c2.22 0 4.199-1.385 4.932-3.453l4.872-13.735H1.742l.61 1.719H37.02c1.783 0 3.043 1.724 2.479 3.393l-2.613 7.735a2.61 2.61 0 0 1-2.479 1.762H7.032a5.232 5.232 0 0 0 4.514 2.578h30.908z"/><ellipse cx="34.839" cy="8.594" fill="#50BEE7" rx="1" ry="1"/><ellipse cx="33.968" cy="12.031" fill="#50BEE7" rx="1" ry="1"/><ellipse cx="31.355" cy="9.453" fill="#50BEE7" rx="1" ry="1"/><ellipse cx="28.742" cy="6.875" fill="#50BEE7" rx="1" ry="1"/><ellipse cx="29.613" cy="16.328" fill="#50BEE7" rx="1" ry="1"/><ellipse cx="32.226" cy="18.906" fill="#50BEE7" rx="1" ry="1"/><ellipse cx="27" cy="13.75" fill="#50BEE7" rx="1" ry="1"/><ellipse cx="24.387" cy="11.172" fill="#50BEE7" rx="1" ry="1"/><ellipse cx="21.774" cy="8.594" fill="#50BEE7" rx="1" ry="1"/><ellipse cx="32.226" cy="6.016" fill="#50BEE7" rx="1" ry="1"/><ellipse cx="30.484" cy="12.891" fill="#50BEE7" rx="1" ry="1"/><ellipse cx="33.097" cy="15.469" fill="#50BEE7" rx="1" ry="1"/><ellipse cx="25.258" cy="7.734" fill="#50BEE7" rx="1" ry="1"/><ellipse cx="27.871" cy="10.313" fill="#50BEE7" rx="1" ry="1"/></g></svg>