<svg xmlns="http://www.w3.org/2000/svg" width="47" height="47" viewBox="0 0 47 47"><g fill="none"><path fill="#A2B1B7" d="M47 0v10.33l-9.297 4.131L43.901 0z"/><path fill="#C4D3D9" d="M43.901 0v17.56L0 10.33V0z"/><path fill="#414D53" d="M47 10.33V47h-3.099l-5.165-18.335 5.165-18.335z"/><path fill="#748993" d="M0 10.33V47h43.901V16.527l-1.033-1.549 1.033-1.55V10.33z"/><path fill="#F37C4A" d="M40.802 22.725v18.077h-3.099l-4.132-9.038 4.132-9.039z"/><path d="M10.98 3.099a2.065 2.065 0 1 1 .002 4.13 2.065 2.065 0 0 1-.002-4.13zm24.482 0a2.065 2.065 0 1 1 0 4.13 2.065 2.065 0 0 1 0-4.13z" fill="#748993"/><path fill="#414D53" d="M29.264 3.099V7.23h-3.099l-2.066-2.066 2.066-2.066z"/><path fill="#F7A676" d="M6.198 22.725h31.506v18.077H6.198z"/><path fill="#57676E" d="M17.178 3.099h8.987v4.132h-8.987z"/><path fill="#A2B1B7" d="M43.901 13.429v3.098h-3.099l-2.066-1.549 2.066-1.55z"/><path fill="#C4D3D9" d="M3.099 13.429h37.703v3.099H3.099z"/><path d="M37.703 29.526H9.297a.775.775 0 1 1 0-1.55h28.406a.775.775 0 1 1 0 1.55zm0 6.025H9.297a.775.775 0 1 1 0-1.55h28.406a.775.775 0 1 1 0 1.55z" fill="#F37C4A"/></g></svg>