<svg xmlns="http://www.w3.org/2000/svg" xmlns:xlink="http://www.w3.org/1999/xlink" width="134" height="134" viewBox="0 0 134 134"><defs><circle id="a" cx="67" cy="67" r="67"/></defs><g fill="none" fill-rule="evenodd"><mask id="b" fill="#fff"><use xlink:href="#a"/></mask><use fill="#DEF8FB" xlink:href="#a"/><g fill-rule="nonzero" mask="url(#b)"><path fill="#ACD7DE" d="M28.149 22.906h77.999v92.446H28.149z"/><path fill="#FFF" d="M26.149 20.906h77.999v92.446H26.149z"/><g fill="#666"><path d="M104.15 99.358v4.466H90.585c-1.315 0-2.383-1-2.383-2.233V81.047H84.3c-1.316 0-2.384-1-2.384-2.233s1.068-2.233 2.384-2.233h3.902V35.049H66.477V45.32c0 1.232-1.065 2.233-2.384 2.233-1.315 0-2.383-1-2.383-2.233V35.049H40.689v12.207c0 1.233-1.068 2.233-2.383 2.233-1.316 0-2.384-1-2.384-2.233V44.13h-9.771v-4.466h9.771v-6.848c0-1.233 1.068-2.234 2.384-2.234h52.28c1.32 0 2.384 1 2.384 2.234v66.542h11.18z"/><path d="M64.094 93.551c-1.316 0-2.383 1-2.383 2.233v3.573H40.688v-18.31H70.48c1.316 0 2.383-1 2.383-2.233s-1.067-2.233-2.383-2.233h-4.002V64.076c0-1.233-1.067-2.233-2.384-2.233-1.316 0-2.383 1-2.383 2.233v12.505H40.688V61.546c0-1.234-1.067-2.233-2.383-2.233-1.317 0-2.384 1-2.384 2.233v3.126h-9.77v4.466h9.77v32.452c0 1.233 1.068 2.233 2.384 2.233h25.79c1.316 0 2.383-1 2.383-2.233v-5.806c0-1.233-1.067-2.233-2.384-2.233zm15.696-5.568c-.93-.872-2.44-.872-3.37 0l-5.481 5.135a2.134 2.134 0 0 0 0 3.158c.931.872 2.44.872 3.37 0l1.413-1.324v7.502c0 1.233 1.067 2.233 2.383 2.233 1.317 0 2.384-1 2.384-2.233v-7.502l1.412 1.324a2.462 2.462 0 0 0 1.685.654c.61 0 1.22-.218 1.686-.654.93-.872.93-2.286 0-3.158l-5.481-5.135z"/></g></g></g></svg>