<svg id="Calque_1" xmlns="http://www.w3.org/2000/svg" viewBox="0 0 186 160.5"><style>.st0{fill:#bfe6f9}.st1{fill:#c22c35}.st2{fill:#ff7573}.st3{fill:#b5364a}.st4{fill:#f4a989}.st5{fill:#ffb18f}.st6{fill:#221c54}.st7{fill:#9c2d40}.st8{fill:#ff9280}.st9{fill:#d43f56}.st10{fill:#fff}.st11{fill:#a5163a}.st12{fill:#4e346b}.st13{fill:#ffe994}.st14{fill:#cdaf3b}.st15{fill:#16a761}.st16{fill:#008462}.st17{fill:#262763}.st18{fill:#e73f43}</style><g transform="translate(-166)"><circle class="st0" cx="258.8" cy="88.3" r="65.9"/><path class="st1" d="M324.2 96.4c-5.9-6.6-14.4-10.7-23.8-10.7h-69.1v62.4c1.3.6 2.7 1.2 4.1 1.7h46.8c22.5-8.4 39-28.8 42-53.4z"/><path class="st1" d="M295 85.8l-102-.1c0 .8-.1 1.7-.1 2.5 0 .7 0 1.4.1 2.1l4.6 9.7c1.2 2.4 0 5.2-2.2 6.3-.6.3-1.3.5-2.1.5H170l-1.4 5.7c-1.8 7.6 2.9 15.1 10.4 16.8l10.2 2.3c4 1 6.6 4.9 5.8 9.1l-1.7 9.1h89.1c4.4-1.7 8.6-3.9 12.6-6.5V85.8z"/><path class="st2" d="M294.4 66.8v16.6L290 87l-13.2-6.9V66.8h17.6z"/><g transform="translate(263.837 10.401)"><path class="st3" d="M39.8 12.6l.7 4.7-.6.1L45.6 55l-3 7.6c-.2.7-.6 1.3-.9 1.8-2.3 4.1-6.4 7-11 7.7-3.1.5-6.3 0-9.2-1.5l-9.7-4.9-3.7-1.8-2-13.7c-.5.5-.9.8-1.6 1.1L-.4 18.6l40.2-6z"/><ellipse transform="rotate(-8.583 41.807 41.294)" class="st4" cx="41.8" cy="41.3" rx="4.6" ry="4.6"/><path class="st5" d="M38 16.3l5.6 37-3.1 7.8c-.2.5-.5 1-.7 1.5-3.1 5.5-10 7.7-15.7 4.8L22 66.3 7.3 58.8l-5.6-37L38 16.3z"/><path class="st6" d="M22.5 44.5l-7.2 1.1c-.3-1.9 1-3.9 3.1-4.1 1.9-.4 3.7.9 4.1 3zm17.9-2.8l-7.2 1.1c-.3-1.9 1-3.9 3.1-4.1 2-.3 3.9 1.1 4.1 3z"/><path class="st7" d="M21.4 35.6l-8.9 2.3.5 2.6 9.1-1.4-.7-3.5zm10.1-1.5l9.2-.5.5 2.6-9.1 1.4-.6-3.5z"/><path class="st8" d="M19.3 48.4L22 66.3 7.3 58.8 6 50.3l13.3-1.9z"/><path class="st9" d="M22.8 58.7l1.4 9.1-16.7-8.5-1.4-9.1 16.7 8.5z"/><path class="st8" d="M42.4 44.8l1.3 8.5-3.1 7.8c-.2.5-.5 1-.7 1.5l-2.5-17 5-.8z"/><path class="st4" d="M5.3 45.5l7.1-1.1.7 4.9L6 50.4l-.7-4.9z"/><path class="st3" d="M39.3 24.8l1.7-.3 3.6 24-1.6.4-3.7-24.1z"/><path class="st9" d="M42.7 46.9l.9 6.4-1.7 4.5-3.1-1.1 3.9-9.8z"/><path class="st3" d="M28.5 48.5l-4.8.7c-2.3.3-4.1 2.1-4.7 4.4l-2.5 11.7 15.6 6.2-3.6-23z"/><path class="st3" d="M28.5 48.5l4.5-.7c2.5-.3 4.9.9 6 3.2l3.6 7.7c.7 1.5.3 3.2-.9 4.2L32 71.5l-3.5-23z"/><path class="st10" d="M35.8 52.2l-1.6 4.7c-.3 1.1-1.4 2.1-2.6 2.2l-2.9.5c-1.3.2-2.4-.3-3.2-1.4l-2.9-4 13.2-2z"/><path class="st3" d="M4.2 15.9l7.6 49.7L8 63.7.9 16.3l3.3-.4z"/><path class="st3" d="M35.8 8.6l1.5 9.6-34 5.2 2.1 13.3C3.6 35.9 2 34.9.6 33.5c-2.4-2.5-4-5.6-4.5-9.1l-1.5-9.6 4.8-.7 36.4-5.5z"/><path class="st3" d="M2.6 19.3l2.6 17.4c-1.8-.8-3.4-1.8-4.8-3.2-2.4-2.3-3.9-5.3-4.5-8.7l-.7-4.5 7.4-1z"/><ellipse transform="rotate(-8.583 2.708 47)" class="st4" cx="2.7" cy="47" rx="4.6" ry="4.6"/><path class="st3" d="M4.8 42.3l2.9-.4L9.4 53l-2.9.4-1.7-11.1z"/></g><path class="st11" d="M302.9 118.6v13.3h-65.2c-3.8 0-6.6-3.4-6-7.2.4-2.1-1-4.1-3-4.5-.2 0-.5-.1-.7-.1h-9c-4.4 0-7.8-4-7-8.4.6-2.9 3.1-4.9 6-4.9h65v11.8h19.9z"/><path class="st12" d="M279.9 96.6c-.5.3-1.1.5-1.7.6l-8.8 1.8c-1.9.5-3.7 1.7-4.6 3.4l-2.6 4.8-1.5 2.8c-1.1 2.1-3.2 3.3-5.5 3.3-1 0-1.9-.2-3-.7-3-1.6-4.1-5.4-2.5-8.4l4-7.6c1.9-3.6 4.8-6.4 8.4-8.1 1.5-.7 3.1-1.3 4.7-1.6l5.5-1.1 3.3-.7c3.3-.7 6.6 1.5 7.3 4.8.6 2.8-.7 5.4-3 6.7zm35.7 10.2c-1 .7-2.2 1-3.4 1-2.1 0-4-1-5.2-2.7l-.2-.3-1.3-1.8c-1.4-2.1-3.4-3.4-5.8-3.9l-3.1-.6-6.2-1.3c-3.3-.7-5.6-3.9-4.9-7.3.7-3.3 3.9-5.6 7.3-4.9l9.3 1.8 1.4.3c1.1.3 2.2.7 3.3 1.1 3.7 1.6 6.9 4.4 9.2 7.8l1.5 2.2c1.8 2.9 1 6.8-1.9 8.6z"/><path class="st13" d="M296.7 85.7v36.8h-24.4V85.7l4.6-5.6 17.5 3.3v2.3h2.3z"/><path class="st14" d="M297.4 99l-5.5-7.7c-.2-.3-.6-.5-.9-.6s-.7 0-.9.2l-10.9 7.7-1.3-1.8 10.9-7.7c.8-.6 1.7-.8 2.6-.6.9.1 1.8.7 2.4 1.5l5.5 7.7-1.9 1.3z"/><path class="st15" d="M286.6 125.4l3.3-27.3-5.2-6.2 3.9-2.8c2.4-1.7 5.6 0 5.6 3v6l4.9 27.3h-12.5z"/><path class="st12" d="M312.8 123.3l-6.9 6.2c-4.4 4-10.1 6.2-16 6.2h-13.6c-3.4 0-6.2-2.7-6.2-6.2 0-3.4 2.7-6.2 6.2-6.2h13.6c2.2 0 4.2-.6 6.1-1.7l16.8 1.7z"/><path class="st16" d="M294.4 98.1H290l-5.2-6.2 3.9-2.8c2.4-1.7 5.6 0 5.6 3v6h.1z"/><path class="st13" d="M296.7 86.6h-2.3v-3.2c1.3 0 2.3 1 2.3 2.3v.9z"/><path class="st12" d="M306.8 133.4V88.2c-1-.5-2.2-.8-3.3-1.1l-6.9-1.4v35.5l-16.8-24.6-7.4-10.9-5.5 1.1c-1.6.3-3.2.9-4.7 1.6v63c0 1 .3 1.8.9 2.5 17.2-1 32.6-8.7 43.7-20.5z"/><g transform="translate(250.28 75.929)"><circle class="st17" cx="46.4" cy="55.6" r="1.4"/><path class="st17" d="M39.6 60.8H11.8v-1.1h27.7c6 0 11.6-2.2 16-6.2l3.2-3 .8.8-3.2 3c-4.6 4.2-10.5 6.5-16.7 6.5zm6.8 2.6c-.8 0-1.4.6-1.4 1.4s.6 1.4 1.4 1.4h.2c.4-.3.7-.5 1.1-.8.1-.2.1-.4.1-.6 0-.8-.6-1.4-1.4-1.4z"/><path class="st17" d="M56.5 54.1v1.1l-28-6.6c-.9-.2-1.7-.3-2.6-.3h-2.5v-1.1h2.5c1 0 1.9.1 3 .3l27.6 6.6zm3.3-11.9l-28.2-6.6c-1.9-.5-3.9-.7-5.8-.7h-2.5v-1.1h2.5c2 0 4.1.2 6.1.7l28.2 6.6-.3 1.1z"/><path class="st5" d="M4.5 56.2c-1.8 0-3.6-.9-4.6-2.6-1.5-2.5-.7-5.8 1.8-7.3l9.3-5.6c4.5-2.6 9.6-4.1 14.9-4.1 3 0 5.4 2.4 5.4 5.4 0 3-2.4 5.4-5.4 5.4-3.3 0-6.5.9-9.3 2.6l-9.3 5.6c-1 .4-1.9.6-2.8.6z"/><path class="st12" d="M67.2 22.4l-10.4 6.9 5.8 8.9c.9 1.3.3 2.4 0 3-.5.5-1.3 1.4-2.9 1l-28.2-6.6c-1.9-.5-3.9-.7-5.8-.7v12.4c1 0 2 .1 3 .3l28.2 6.6c.8.2 1.5.3 2.2.4 6-7.1 10.5-15.5 13-24.7l-4.9-7.5z"/><path class="st13" d="M23.3 34.9h5v12.4h-5V34.9z"/><path class="st5" d="M53.4 40.5c-.7 0-1.4-.3-1.8-.9-.7-1-.5-2.4.5-3.2l3-2.2c.3-.2.8-.5 1.3-.5l5.7-.2c1.3 0 2.3.9 2.3 2.2s-1 2.3-2.3 2.3l-5 .1-2.4 1.7c-.4.6-.8.7-1.3.7z"/><path class="st5" d="M65.8 40.3c-.5 1.7-2.2 2.8-3.9 2.4l-5.6-1.4-.2-.1-6.2-1.5-1.9-.5 2.4-1.6 1.6-1.1 1.9-1.4c.8-.6 1.7-.7 2.6-.5l7.1 1.7c.2 0 .3.1.5.1 1.2.8 2 2.4 1.7 3.9z"/><path class="st12" d="M25.9 59.7H11.2c-6.1 0-11.6-3.1-14.7-8.4s-3.2-11.6-.3-16.8l3.3-6.3c1.6-3 5.4-4.1 8.4-2.5s4.1 5.4 2.5 8.4L7 40.4c-.8 1.4-.8 3.2.1 4.6.5.7 1.6 2.3 4 2.3h14.8c3.4 0 6.2 2.7 6.2 6.2 0 3.4-2.7 6.2-6.2 6.2z"/></g><path class="st3" d="M308.4 17.7c1.3 8.6-4.7 16.7-13.3 18.1-6.9 1-13.5-2.6-16.6-8.6-.7-1.5-1.3-3.1-1.5-4.7l15.7-2.4 10.9-11.6c2.6 2.4 4.2 5.7 4.8 9.2z"/><path class="st7" d="M314 38.6l-11.3 1.7c-4.4.7-8.6-.2-12.1-2.2l.6 3.7c-6.5-.2-12.4-3.8-15.7-9.2l-8.4 1.3c-2.6.5-5.2-1.5-5.6-4.1l17-2.5c3 6 9.6 9.6 16.6 8.6 8.6-1.3 14.7-9.4 13.3-18.1l4.9-.7c.6 4.1-.5 8.1-2.7 11.2-.6.8-1.3 1.5-1.9 2.2 2.7 1.6 4.8 4.5 5.3 8.1z"/><path class="st18" d="M300.5 85.7h-3.8v18.4c8.2-4.6 17.9-5.2 26.5-1.9.4-1.9.8-3.9 1-5.9-5.8-6.5-14.3-10.6-23.7-10.6zm-28.1 0h-50.1c-8.4 0-19.6-1.6-29-4.7-3.6-1.2-6.9-2.6-9.7-4.2l-1.5 6.9c-.9 4.1.6 8.5 3.8 11.3 2 1.9 4.9 3 7.7 3h70.2c5.6 0 11.1 1.3 16.2 3.7l4.9 2.4-12.5-18.4z"/><path class="st17" d="M225.3 98.1h4.7v1.1h-4.7zm86.7 2.2c-1.7 0-3.4.2-5.2.5-3.6.6-7 1.8-10.2 3.6v1.3l.6-.3c3-1.6 6.3-2.7 9.6-3.3 1.7-.3 3.4-.5 5.2-.5 3.8 0 7.5.7 11 2.1l.3-1.2c-3.7-1.6-7.5-2.3-11.3-2.2zm-32 1.5c-5-2.4-10.6-3.7-16.2-3.7h-29.7v1.1H264c5.4 0 10.8 1.3 15.6 3.6l6.6 3.2-1.3-1.8-4.9-2.4z"/></g></svg>