<svg id="Calque_5" xmlns="http://www.w3.org/2000/svg" viewBox="0 0 190 180"><style>.st0{fill:#bfe6f9}.st1{fill:none}.st2{fill:#cfb13c}.st3{fill:#ea5e3f}.st4{fill:#ffb18f}.st5{fill:#4e346b}.st6{fill:#eb3c3d}.st7{fill:#ff5e5f}.st8{fill:#a62d4d}.st9{fill:#ff9280}.st10{fill:#70313d}.st11{fill:#9c2d40}.st12{fill:#221c54}.st13{fill:#f76866}.st14{fill:#fff}.st15,.st16{opacity:.4;fill:#fff;enable-background:new}.st16,.st17{display:none}.st18,.st19{display:inline;fill:#ff9280}.st19{fill:#9c2d40}.st20{display:none;fill:#b5364a}.st21{opacity:.18;enable-background:new}.st22{fill:none;stroke:#fff;stroke-width:4;stroke-miterlimit:10}</style><g id="_x32__1_"><circle class="st0" cx="95" cy="90" r="65"/><path class="st1" d="M101.9 147.6l-2.2-20.1zM133 97l.1.1c11.5-14.6 11.6-34.8.9-49.4-.2.5-.4.9-.6 1.3 10.2 14.2 10.2 33.6-.4 48zm-35.2 18.3c.3.3.6.7.7 1.1l3.8.4c5.7.6 11 2.9 15.5 6.4l12.1 9.7c1.3 1.1 3.1 1.5 4.8 1.1s3.1-1.4 3.9-3l6.3-12.4-1.6.5c-.2.1-.4.1-.6.1-.8 0-1.6-.5-1.9-1.4-.3-1 .2-2.2 1.3-2.5l-6.1-5.5 2-2.2-7.8-7-.3.3c-9 9.3-21.4 13.5-33.4 12.3l.2 1.5c.2.1.7.3 1.1.6zm5.6-6.9c8.2-.7 16.2-4.3 22.4-10.6-6 5.7-13.6 9-21.4 9.7l-1 .9zm-33.5 25.5c-1.2.8-2.3 1.7-3.3 2.7l-7.7 7.4c4 2.7 8.3 4.9 12.8 6.6l-1.8-16.7zm52.3-55.4c1.8 1 2.9 2.9 3 5 2.2-4.5 3.5-9.4 4-14.2l-6.3-.4-.7 9.6zM112 33.6c1.6.5 3.1 1 4.6 1.7l1.1-.8c-13.1-5.8-28.5-4.3-40.3 4.1h.4c10.1-6.7 22.7-8.4 34.2-5zm6.9 55.8c-1.4-.1-2.6-.6-3.6-1.5l-.6 8.8c1.4-1.2 2.8-2.6 4.1-4 1.1-1.3 2.2-2.6 3.1-4-.7.5-1.8.7-3 .7zm10.3-26.8c-.2-2.3-.5-4.5-1-6.8-.8.6-1.6 1.2-2.4 1.7 1.4 1.5 2.6 3.2 3.4 5.1zm.7 38.2l-.3.3.3-.3zm-19 30.9c-.6-.5-1.3-.9-1.9-1.3l2.5 22.5c6.7-1.7 13-4.5 18.7-8.2-2.6-.5-5-1.6-7.1-3.3l-12.2-9.7zm-44-45.8c.6 1.5 1.3 2.9 2.1 4.3l.3-5.3c-.8.5-1.6.9-2.4 1z"/><path class="st1" d="M111.6 38.7c-7.9-2.7-16.6-2.4-24.4.6l7.4.5 14.2.9 2.8-2zM70 72.5l1.4-21.1z"/><path class="st2" d="M94.1 119.6h.2-.2c.1 0 0 0 0 0z"/><path class="st3" d="M92.9 119.8c-.1.1-.3.1-.4.2.2-.1.3-.2.4-.2zm-.5.2c-.2.1-.3.2-.5.3.2-.1.3-.2.5-.3zm-.5.3zm2.9-.6c-.2 0-.3-.1-.5-.1.1 0 .3 0 .5.1zm1.5.9c-.1-.1-.2-.2-.4-.3.2 0 .3.2.4.3zm-2.7-1c-.2 0-.3.1-.5.1.1 0 .3-.1.5-.1zm1.8.3c-.1-.1-.3-.1-.5-.2.1 0 .3.1.5.2zm-1.3-.3h-.4.4zm1.8.6c-.2-.1-.3-.2-.5-.3.2.1.4.2.5.3z"/><path class="st4" d="M105.3 146.1l-4.1-29.2c-20.7-3.6-33.2 7.4-33.2 7.4l3.7 13.6 33.6 8.2z"/><path class="st3" d="M92.5 119.9s-.1 0 0 0c-.1.1 0 .1 0 0zm1.8-.3h-.2.2zm-2.4.7zm4.1-.1s-.1 0 0 0c-.1 0-.1 0 0 0-.1 0 0 0 0 0zm-2.3-.6c-.1 0-.1 0 0 0zm3.1 1.6c-.1-.2-.3-.4-.4-.6.1.2.2.3.4.6zm-3.8-1.5zm2.4.2zm-.5-.2s-.1 0 0 0c-.1 0-.1 0 0 0-.1 0 0 0 0 0z"/><path class="st5" d="M150.8 123.4l-5.5-4.9-.6.2-6.3 12.4c-.8 1.5-2.2 2.6-3.9 3s-3.4 0-4.8-1.1l-12.1-9.7c-4.5-3.6-9.8-5.8-15.5-6.4l-3.8-.4v.2s3.9 11-4.9 12.6-16.3-10.1-16.3-10.1H77l-3.6 1.1c-5.5 1.7-10.6 4.7-14.7 8.7l-8.7 8.4c2.7 2.5 5.5 4.8 8.6 6.9l7.7-7.4c1-1 2.2-1.9 3.3-2.7l1.8 16.8c7.2 2.8 15.1 4.3 23.2 4.3 5.7 0 11.2-.7 16.4-2.1l-2.5-22.5c.7.4 1.3.8 1.9 1.3l12.1 9.7c2.1 1.7 4.6 2.8 7.1 3.3 1 .2 2.1.3 3.2.3 1.2 0 2.4-.1 3.5-.4 4.9-1.1 9-4.2 11.3-8.7l5.2-10.3-2-2.5z"/><path class="st6" d="M164.8 121.3l13.7 12.2-20-17.9c-.3.8-.7 1.6-1.3 2.2l-.5.5c-1.1 1-2.5 1.5-3.9 1.5-.5 0-1 0-1.5-.1l1.1.9 2.4 2.2 18.5 16.5-2 2.2 5.3-5.9-13.7-12.2 1.9-2.1zM141 104.1l-3.3 3.7 7.4 6.6.4.3.2.2c0-.1-.1-.2-.1-.3 0-.1-.1-.2-.1-.3-.4-1.7 0-3.6 1.2-5.1.1-.1.2-.2.3-.4.6-.7 1.3-1.2 2.1-1.5l-6-5.4-2.1 2.2z"/><path class="st7" d="M176.5 135.7l1.9-2.2-1.9 2.2z"/><path transform="rotate(-48.3 170.558 128.446)" class="st7" d="M169 119.3h3v18.3h-3z"/><path class="st8" d="M154.7 122.9l-2.4-2.2-1.1-.9c-1-.2-2-.7-2.9-1.4l-.7-.7-.1-.1c-.6-.5-1-1.1-1.3-1.7-.2-.3-.3-.7-.4-1l-.2-.2-.4-.3-7.4-6.6-2 2.2 6.1 5.5 3.1 2.7.3.3 5.5 4.9 2.6 2.3 17.9 15.9 2-2.2-18.6-16.5z"/><path class="st9" d="M96.2 113.3l-.1-1c-5.6-.7-10-2.5-15-5.5l.3 11s7.3 1.8 11.6.5c2.6-.8 3.8-1.9 3.8-1.9l-.3-1.6-.3-1.5z"/><path class="st4" d="M105.1 94.9c.2-.1.3-.2.4-.3l.1-8.8 5.9.1c1.5 0 2.7-1.1 2.7-2.6 0-.7-.2-1.3-.7-1.8l10.9-.8s-.2 4.2 0 4.4l-.1 8.6-2.6 1.8-16.3 11.2-.3-11.8zM68.6 81.8v-.9l4.5 1.1v.9l-4.5 1.9L80.1 86l-.3 19.5c-.4-.6-11.4-8.8-11.4-8.8l.2-14.9zm17-30.3c-4.3-.1-8.5-1.4-12-3.8 9.5 6.5 22.4 4.6 29.6-4.4-4.3 5.2-10.8 8.3-17.6 8.2zM73.3 69.3l-.1 4.5z"/><path class="st4" d="M65.6 61.9v14.7l1.1 9.7L80 87l-.2 18.5c7 6.4 15.3 7.1 21.9 3.4.3-.2.5-.3.8-.5l1.4-1 1.7-1.1.1-19.3 7 .1 6.5-3.6.5-38.3L73.3 49l-7.7 12.9z"/><path class="st4" d="M115.5 78l.5-2.7c.1-.2.1-.5.2-.7l5.1.1c-.6 2.4 1.6 4.1 2.9 6.1l-10.7.6-.2-.2c1.2-.8 1.9-1.9 2.2-3.2z"/><path class="st10" d="M113.6 66.2l-.1 1.3-13.1-.2v-3zm-40.3-.6l12.8-1.5-.1 3-12.7-.2z"/><path class="st11" d="M108.2 29.6l-21.8-.3 27.3.4z"/><path class="st9" d="M100.7 76.8l10.9.2 1.9-9.5-13.2-1.1zm-26.2-.4l10.9.2.6-9.5-13-1z"/><path class="st12" d="M105.9 71.8c2.8.1 5.1 2.4 5.1 5.2l-10.3-.2c.1-2.8 2.4-5 5.2-5zm-30.1 2.1c1.5-2.4 4.6-3.2 7.1-1.7 1.5.9 2.5 2.6 2.5 4.4l-5.9-.1-4.4-.1c0-.9.3-1.8.7-2.5z"/><path class="st12" d="M113.4 74.4l-5.4 1.2v1.3l3.6.1c.7-.6 1.8-2.6 1.8-2.6zm-40.6-.7l5.3 1.4v1.3h-3.6c-.7-.7-1.7-2.7-1.7-2.7z"/><path class="st13" d="M104.7 87.4l8.1.1c1.3 0 2.5-1 2.5-2.4 0-1.3-1-2.5-2.4-2.5l-8.1-.1c-1.3 0-2.5 1-2.5 2.4-.1 1.4 1 2.5 2.4 2.5zm-31.2.1l8.1.1c1.3 0 2.5-1 2.5-2.4 0-1.3-1-2.5-2.4-2.5l-8.1-.1c-1.3 0-2.5 1-2.5 2.4s1.1 2.5 2.4 2.5z"/><path class="st10" d="M69.7 38.1c-4.7 4.1-10.9 16.6-9.5 23.6 2.5 12.5 1 15.5 1.7 25.9 1.5 21.3 8 21.4 8 21.4l.3-44.5 15.1-12.6c3.9 3.8 8.9 6.4 14.3 7.3l-.1-5.1c4.7 3.5 10.5 5.4 16.4 5.3h2.5l.1 5.2.1 4.8-.6 40.9s6.5-9.3 6.7-20.3 3.2-23.7 3.2-23.7c6.2-22.8-27.1-55.8-58.2-28.2z"/><path class="st14" d="M83.3 91.5l5 6.4 8.7-.3 4.7-6.6z"/><path class="st13" d="M94.6 87.8c1.8 0 3.5.7 4.7 2.2l1 1.1-8.6.2c0-1.9 1.3-3.5 2.9-3.5z"/><path class="st13" d="M90.1 87.9c-1.8 0-3.4.9-4.6 2.4l-.9 1.2 8.6-.2c-.1-2-1.5-3.5-3.1-3.4zm-1.8 10l1.5 1.9c.8 1 1.8 1.5 3 1.5 1.1 0 2.2-.6 2.8-1.6l1.4-2-8.7.2z"/><path class="st15" d="M130.5 53.6c-.6.7-1.2 1.3-1.8 1.9-.2.2-.4.3-.6.4.5 2.2.9 4.5 1 6.8.9 2 1.3 4.3 1.1 6.7l-1.2-.1c-.4 4.9-1.8 9.7-4 14.2v.4c-.1 2.1-1.3 3.8-3 4.8-.9 1.4-2 2.7-3.1 4-1.3 1.5-2.7 2.8-4.1 4l-.1 1.7-10.3 9.2c7.8-.7 15.4-4 21.4-9.7.4-.4.8-.8 1.2-1.3 10.9-12.2 11.9-29.9 3.5-43zm-35.2 52.1l.2 1.5c2.2.3 4.4.5 6.7.4l.2-3.8c-2.3.9-4.7 1.5-7.1 1.9z"/><path class="st15" d="M90.9 106.2c1.5.4 3 .8 4.6 1l-.2-1.5c-1.4.3-2.9.5-4.4.5z"/><path class="st4" d="M157 109.4l-.4-.4-.9-.8c-1.9-1.7-4.6-2-6.7-1-.8.3-1.5.9-2.1 1.5-.1.1-.2.2-.3.4-1.2 1.5-1.5 3.4-1.2 5.1 0 .1 0 .2.1.3 0 .1.1.2.1.3.1.3.3.7.4 1 .3.6.8 1.2 1.3 1.7l.1.1.7.7c.9.8 1.9 1.2 2.9 1.4.5.1 1 .1 1.5.1 1.4-.1 2.8-.6 3.9-1.5.2-.2.4-.3.5-.5.6-.7 1-1.4 1.3-2.2.9-2.1.4-4.5-1.2-6.2zM88.8 75.8l-15.9-1zm7.9.5l15.9 1zm9.2-15.8c-5.7-.8-10.5-4-13.6-8.5 3.1 4.5 8 7.7 13.6 8.5z"/><path class="st16" d="M121.1 87.9v-.4c-.9 1.8-1.9 3.5-3 5.2 1.7-1 2.9-2.7 3-4.8z"/><g class="st17"><path class="st18" d="M140.9 122.2l-3.1-2.7c-1 .3-1.6 1.5-1.3 2.5.3.8 1 1.4 1.9 1.4.2 0 .4 0 .6-.1l1.6-.5.6-.2-.3-.4zM69.4 83l3.7.2c.9-1.3 2.4-2.2 4.1-2.1s3.1 1.1 3.9 2.6l2.8.2.9-4.1-15.9-1 .5 4.2zm17.1-.9l-.4 1.9 4.8.3-.1-2zm17.8 3.1l3.4.2 1-4.1-15.9-1 .3 4.2 3.2.2c.9-1.3 2.4-2.2 4.1-2.1 1.7.1 3.1 1.1 3.9 2.6zm11.4-3.5zm-46.8 9.1c0-.6.3-1.1.7-1.5l-.1-.1-4.3-.2-.3 5.3-.3 5.2 7.8 8.9c1.1.9 2.3 1.7 3.5 2.4v-.7l.2-3.5v-.5l.8-12.2-5.8-.4c-1.3-.2-2.3-1.3-2.2-2.7zm38.6 2.4c-.1 1.3-1.2 2.3-2.6 2.3l-5.8-.4-.8 12.7-.2 3.8-.1.9-.1 1.1 1.3-1.2 1-.9 10.3-9.2.1-1.7.6-8.8-4.4-.3c.5.5.8 1.1.7 1.7z"/></g><path class="st15" d="M114.7 98.3l.1-1.7c-3.8 3.2-8 5.6-12.4 7.2l-.2 3.8c.7 0 1.5-.1 2.2-.1l10.3-9.2zm12.3-1.7c-.4.4-.8.9-1.2 1.3.7-.7 1.4-1.4 2.1-2.2 10.9-12.3 11.9-29.9 3.5-43.1-.3.3-.5.7-.8 1 8.3 13.1 7.3 30.8-3.6 43z"/><g class="st17"><path class="st19" d="M124.9 46c0 .5-.1 1-.2 1.5-.2 1.5-.6 2.9-1.1 4.2-.2.4-.4.8-.6 1.3-.2.5-.4.9-.7 1.4-.8 1.4-1.7 2.6-2.7 3.7-1.8 2-4 3.6-6.5 4.8-2.9 1.4-6.2 2-9.6 1.8-.6 0-1.1-.1-1.6-.2-5.7-.8-10.5-4-13.6-8.5-.5-.7-1-1.5-1.4-2.3-.7-1.3-1.2-2.6-1.5-4L73.6 49l-6.8-.4-.2.2c-1.5 1.6-2.8 3.4-3.9 5.1-.6.9-1.1 1.8-1.6 2.8l-1.4 22.2c.2-.1.5-.2.7-.2.5-.1 1.1-.2 1.6-.2h-.1l.1-2.1 4 .3 1.3-21.1v-.7h.5l12.3.8c2.6 7.6 9 13.6 17 15.6l.3-4.6c3.9 3.4 8.9 5.6 14.4 6h.7l-.4 6.9 3.6.2-.1 2.1c.9.1 1.8.3 2.5.7l.6-9.6 6.3.4 1.2.1c.1-2.4-.3-4.6-1.1-6.7-.8-1.9-2-3.6-3.5-5 .9-.5 1.7-1.1 2.4-1.7.2-.1.4-.3.6-.4.7-.6 1.3-1.2 1.8-1.9.3-.3.6-.6.8-1 .8-1.1 1.5-2.3 2.1-3.6.2-.4.4-.9.6-1.3-1.4-2.2-3.1-4.2-5-5.9z"/><path class="st19" d="M95.6 78.3l11.5.7.1-1.1L95.7 76zm-24.5-1.5l11.5.7.2-2.3-11.6.4z"/></g><path class="st20" d="M124.9 46c-.2-.2-.4-.4-.7-.6-3.2-2.9-6.8-5.2-10.6-6.8l-1.1.8-4.9 3.4-2.8 1.9-14.2-.9-7.4-.5-9.5-.6h-.4c-1.9 1.4-3.7 2.9-5.4 4.7l-1.1 1.1 6.8.4 11.8.7c.4 1.4.9 2.8 1.5 4 .4.8.9 1.6 1.4 2.3 3.1 4.5 8 7.7 13.6 8.5.5.1 1.1.1 1.6.2 3.4.2 6.7-.5 9.6-1.8 2.5-1.1 4.7-2.8 6.5-4.8 1-1.1 1.9-2.4 2.7-3.7.2-.4.5-.9.7-1.4.2-.4.4-.8.6-1.3.5-1.3.9-2.7 1.1-4.2.1-.4.2-.9.2-1.4z"/><path class="st21" d="M127.8 52.1c-1.3-1.8-2.8-3.6-4.5-5.2-.4-.4-.9-.8-1.3-1.2-3.1-2.8-6.6-5-10.3-6.5-1.4-.6-2.9-1.2-4.4-1.6-10.9-3.2-22.9-1.6-32.5 4.8-1.9 1.3-3.8 2.7-5.5 4.4l-2.1 2.1c-14.3 15.9-12.8 40.3 3.2 54.4.9.8 1.8 1.5 2.7 2.2 1.3 1 2.7 1.9 4.1 2.6 4.8 2.7 9.9 4.3 15.2 4.8 11.5 1.1 23.3-2.8 31.8-11.6.1-.1.2-.2.2-.3.3-.3.5-.6.8-.8.8-.9 1.5-1.8 2.2-2.7 10.1-13.7 10-32 .4-45.4zm-44-9.2s.1-.1 0 0c7.4-2.9 15.7-3.1 23.2-.5 1.8.6 3.6 1.4 5.4 2.3.3.2.6.4 1 .5 1.1.7 2.3 1.4 3.4 2.2.7.5 1.4 1.1 2.1 1.7l.1.1.3.3 2.4 2.4c1.2 1.4 2.3 2.8 3.3 4.3 7.9 12.5 7 29.1-3.4 40.6l-1.2 1.2c-5.9 5.9-13.5 9.3-21.3 10-.4 0-.8.1-1.2.1-2.1.1-4.1 0-6.2-.2-1.8-.2-3.6-.6-5.3-1.1-3.3-1-6.5-2.4-9.4-4.4-.2-.1-.4-.3-.6-.4-1-.7-2-1.5-3-2.4-2.9-2.6-5.3-5.5-7.1-8.7-.7-1.3-1.4-2.7-2-4.1-.7-1.8-1.3-3.6-1.7-5.5-.4-1.7-.6-3.5-.7-5.3-.4-7.6 1.8-15.4 6.6-21.9.2-.2.3-.4.5-.6.5-.6.9-1.2 1.5-1.8l.3-.3c1.2-1.3 2.4-2.4 3.7-3.5 3-2 6.1-3.8 9.3-5z"/><circle class="st22" cx="96" cy="75" r="40"/><path class="st14" d="M129.2 101.1l-.2-.1-1.7-1.5-3.3 3.7 1.8 1.6h.1l7.8 7 3.3-3.7z"/><path class="st15" d="M110.7 102.3l.1-1.6zm15.6-29c.1-2.4-.3-4.6-1.1-6.7.2 2.2.1 4.4-.1 6.6l1.2.1zm-1.6-13.9c.7-.6 1.3-1.2 1.8-1.9.3-.3.6-.6.8-1-1.1-1.7-2.3-3.3-3.7-4.9-.8-.9-1.7-1.8-2.7-2.7-.2-.2-.4-.4-.6-.5-.5-.5-1.1-.9-1.6-1.3.5.8 1.1 1.7 1.5 2.6l.3.6c.7 1.3 1.3 2.6 1.8 3.9.7 1.8 1.3 3.7 1.8 5.5.2 0 .4-.1.6-.3zm-24.3 52.1l10.3-9.2z"/></g></svg>