<svg xmlns="http://www.w3.org/2000/svg" viewBox="0 0 131 126.47"><defs><style>.cls-1{fill:#c9edff}.cls-2{fill:#575756}.cls-3{fill:#9d9d9c}.cls-4{fill:#fff}.cls-5{fill:#706f6f}</style></defs><title>Plan de travail 1</title><circle class="cls-1" cx="65.5" cy="72.32" r="53.76" id="Calque_2" data-name="Calque 2"/><g id="Calque_3" data-name="Calque 3"><path class="cls-2" d="M37.89 105.21a3.42 3.42 0 0 1-4.84.09l-1.31-1.3a3.42 3.42 0 0 1-.09-4.84 3.42 3.42 0 0 1 4.84-.09l1.31 1.26a3.42 3.42 0 0 1 .09 4.84z"/><path class="cls-2" d="M39.92 103.1l-6.39-6.14L88.16 37.9l8.7 8.38-56.94 56.82z"/><path class="cls-3" d="M119.19 15.57l-7.61 16a1.13 1.13 0 0 1-.73.65.88.88 0 0 1-.85-.22l-8.1-7.8a.88.88 0 0 1-.22-.85 1.14 1.14 0 0 1 .62-.75l15.7-8.18a.91.91 0 0 1 1 .13.91.91 0 0 1 .19 1.02z"/><path class="cls-4" d="M119.28 14.83a.41.41 0 0 0 0-.57.41.41 0 0 0-.57 0l-5.29 5.5a.41.41 0 0 0 0 .57.41.41 0 0 0 .57 0z"/><path class="cls-4" d="M112.73 22.27a1.18 1.18 0 0 0 0-2.36 1.18 1.18 0 0 0 0 2.36z"/><path class="cls-3" d="M100.36 41.39l-7.45-7.17 9.1-11.4 9.4 9.05-11.05 9.52z"/><path class="cls-5" d="M95.14 48.81l-9.44-9.09 10.68-12.1 10.45 10.05-11.69 11.14zm-54.55 56.5a2.3 2.3 0 0 1-3.22.25l-6.19-6a2.29 2.29 0 0 1 .13-3.23 2.29 2.29 0 0 1 3.22-.25l6.19 6a2.29 2.29 0 0 1-.13 3.23z"/><path class="cls-2" d="M100.64 97.52a3.42 3.42 0 0 1 .09 4.84l-1.26 1.31a3.42 3.42 0 0 1-4.84.09 3.42 3.42 0 0 1-.09-4.84l1.26-1.31a3.42 3.42 0 0 1 4.84-.09z"/><path class="cls-2" d="M98.53 95.49l-6.14 6.38-59.06-54.63 8.37-8.7 56.83 56.95z"/><path class="cls-3" d="M11 16.21l16 7.61a1.13 1.13 0 0 1 .65.73.88.88 0 0 1-.19.86l-7.8 8.1a.88.88 0 0 1-.85.22 1.14 1.14 0 0 1-.75-.62l-8.22-15.7a.91.91 0 0 1 .13-1 .91.91 0 0 1 1.03-.2z"/><path class="cls-4" d="M10.25 16.12a.41.41 0 0 0-.57 0 .41.41 0 0 0 0 .57L15.22 22a.41.41 0 0 0 .57 0 .41.41 0 0 0 0-.57z"/><path class="cls-4" d="M16.51 23.85a1.18 1.18 0 0 0 0-2.36 1.18 1.18 0 0 0 0 2.36z"/><path class="cls-3" d="M36.82 35.04l-7.17 7.45-11.4-9.1L27.29 24l9.53 11.04z"/><path class="cls-5" d="M44.23 40.27l-9.08 9.43-12.11-10.68L33.1 28.58l11.13 11.69zm56.5 54.54A2.3 2.3 0 0 1 101 98l-6 6.19a2.29 2.29 0 0 1-3.23-.13 2.29 2.29 0 0 1-.25-3.22l6-6.19a2.29 2.29 0 0 1 3.23.13z"/></g></svg>