<svg xmlns="http://www.w3.org/2000/svg" viewBox="0 0 55.2 51.7"><path d="M34.1 31.3c-.6 0-1 .5-1 1 0 .6.5 1 1 1s1-.5 1-1c.1-.5-.4-1-1-1m-6.6-14.5l.5-.6-1.1-.9c0-.1.1-.1.1-.1s0-.1.1-.1l.1-.1.1-.1.1-.1 1.3 1.1.5-.6-1.3-1c.3-.3.6-.4.9-.4.3 0 .6 0 .8.2l.4.4c.1.2.2.3.3.5l1-.5c-.1-.2-.2-.5-.4-.7l-.6-.6c-.3-.2-.6-.4-.8-.5-.3-.1-.6-.1-.9-.1s-.6.1-.9.2c-.3.1-.6.3-.9.6l-.5-.4-.5.6.4.3-.1.1-.1.1s0 .1-.1.1l-.1.1-.4-.3-.5.6.5.4c-.4.6-.5 1.2-.4 1.8s.4 1.1.9 1.5c.2.2.4.3.6.4.2.1.4.2.6.2l.7-.9c-.2-.1-.4-.1-.6-.2-.2-.1-.4-.2-.6-.4-.3-.2-.4-.5-.5-.7 0-.3 0-.6.2-.9l1.2 1zM12.8 39c.3 0 .5-.2.5-.5v-3c0-.3-.2-.5-.5-.5s-.5.2-.5.5v3c0 .3.2.5.5.5m0-5c.3 0 .5-.2.5-.5v-3c0-.3-.2-.5-.5-.5s-.5.2-.5.5v3c0 .3.2.5.5.5m14.7-11h3c.3 0 .5-.2.5-.5s-.3-.5-.5-.5h-3c-.3 0-.5.2-.5.5s.2.5.5.5m5 0h3c.3 0 .5-.2.5-.5s-.3-.5-.5-.5h-3c-.3 0-.5.2-.5.5s.2.5.5.5m5 0h2.3c.3 0 .5-.2.5-.5s-.3-.5-.5-.5h-2.3c-.3 0-.5.2-.5.5s.2.5.5.5m-24.7 6c.3 0 .5-.2.5-.5v-3c0-.3-.2-.5-.5-.5s-.5.2-.5.5v3c0 .3.2.5.5.5m17 12.7h-3c-.3 0-.5.2-.5.5s.2.5.5.5h3c.3 0 .5-.2.5-.5s-.3-.5-.5-.5M25.5 22h-3c-.3 0-.5.2-.5.5s.2.5.5.5h3c.3 0 .5-.2.5-.5s-.3-.5-.5-.5M14.8 41.7h-.5c-.5 0-1-.4-1-1v-.2c0-.3-.2-.5-.5-.5s-.5.2-.5.5v.2c0 1.1.9 2 2 2h.5c.3 0 .5-.2.5-.5s-.3-.5-.5-.5m16.5.5c0 .3.2.5.5.5h3c.3 0 .5-.2.5-.5s-.2-.5-.5-.5h-3c-.3 0-.5.2-.5.5m5.5.5h3c.3 0 .5-.2.5-.5s-.2-.5-.5-.5h-3c-.3 0-.5.2-.5.5s.2.5.5.5M15.5 22h-1.2c-.8 0-1.6.5-1.9 1.3-.1.3.1.5.3.6h.2c.2 0 .4-.1.5-.3.1-.4.5-.7.9-.7h1.2c.3 0 .5-.2.5-.5s-.3-.4-.5-.4m9.3 19.7h-3c-.3 0-.5.2-.5.5s.2.5.5.5h3c.3 0 .5-.2.5-.5s-.3-.5-.5-.5m-5 0h-3c-.3 0-.5.2-.5.5s.2.5.5.5h3c.3 0 .5-.2.5-.5s-.3-.5-.5-.5m.7-19.7h-3c-.3 0-.5.2-.5.5s.2.5.5.5h3c.3 0 .5-.2.5-.5s-.3-.5-.5-.5"/><path d="M42.8 27.9h-1.1v-6.1c0-1.1-.9-2-2-2h-2.6c.1-.1.3-.2.4-.2 3-1.5 4.3-2.9 5.2-4.7.1-.2.1-.4-.1-.6 0 0-2.5-2.7-7.9-7.4-.1-.1-.3-.1-.4-.1-.2 0-.3.1-.4.3-.2.4-.4.8-.7 1.2-.5-.4-1-.9-1.6-1.4-.1-.1-.3-.1-.4-.1-.1 0-.3.1-.4.3-.3.6-.6 1.1-.9 1.6-.6-.6-1.3-1.2-2-1.8-.1-.1-.3-.1-.4-.1-.2 0-.3.1-.4.3-2.2 4.3-4.6 7-7.7 8.5-1.5.8-2.7 2.2-3.5 4.3h-3.7c-1.1 0-2 .9-2 2V43c0 1.1.9 2 2 2h27.4c1.1 0 2-.9 2-2v-6.1h1.1c1.1 0 2-.9 2-2v-5c.1-1.1-.8-2-1.9-2M34.6 8.1c4.1 3.6 6.4 5.9 7.1 6.7-.8 1.5-2 2.7-4.6 3.9-.6.3-1.2.7-1.7 1.1h-1.3c.1-.1.3-.2.4-.2 3-1.5 4.3-2.9 5.2-4.7.1-.2.1-.4-.1-.6 0 0-1.8-1.9-5.6-5.4.2-.2.4-.5.6-.8m-3 0c4.1 3.6 6.4 5.9 7.1 6.7-.8 1.5-2 2.7-4.6 3.9-.6.3-1.2.7-1.7 1.1h-2c.1-.1.3-.2.4-.2 3-1.5 4.3-2.9 5.2-4.7.1-.2.1-.4-.1-.6 0 0-1.7-1.8-5.2-5 .4-.3.6-.8.9-1.2M20 16.4c3.1-1.6 5.6-4.2 7.9-8.3 4.1 3.6 6.4 5.9 7.1 6.7-.8 1.5-2 2.7-4.6 3.9-.6.3-1.1.6-1.7 1.1v.1H17.2c.7-1.8 1.6-2.8 2.8-3.5m20.7 26.5c0 .5-.4 1-1 1H12.4c-.5 0-1-.4-1-1V21.8c0-.5.4-1 1-1h27.4c.5 0 1 .4 1 1v6.1h-7.5c-2.3.2-4.1 2.1-4.1 4.4s1.8 4.2 4 4.4c.2 0 .3.1.4.1h7.1v6.1zm3.1-8.1c0 .5-.4 1-1 1h-9.4c-1.8-.1-3.2-1.6-3.2-3.4s1.4-3.3 3.2-3.4h9.3c.5 0 1 .4 1 1v4.8z"/></svg>