<svg xmlns="http://www.w3.org/2000/svg" viewBox="0 0 55.2 51.7"><path d="M16.5 38.4c-.3-.1-.6 0-.6.3-.1.3 0 .6.3.6h.2c.2 0 .4-.1.5-.3 0-.2-.1-.5-.4-.6m6 .3c-.3.1-.4.4-.3.6.1.2.3.4.5.4h.1c.3-.1.4-.4.3-.6-.1-.4-.4-.5-.6-.4m-11.6-6.9c-.1-.3-.3-.4-.6-.4-.3.1-.4.3-.4.6.1.2.3.4.5.4h.1c.2 0 .4-.3.4-.6zm2.3 5.2c-.2.2-.1.5.1.7.1.1.2.1.3.1s.3-.1.4-.2c.2-.2.1-.5-.1-.7-.2-.2-.5-.1-.7.1m-1.9-2.5c-.2.1-.3.5-.2.7.1.1.3.2.4.2.1 0 .2 0 .3-.1.2-.1.3-.4.2-.7-.2-.2-.5-.3-.7-.1m8.2 4.5c-.3 0-.5.2-.5.5s.2.5.5.5.5-.2.5-.5c0-.2-.2-.5-.5-.5m-1.7-4.9c.1 0 .1.1.2.1.2 0 .4-.1.4-.3.1-.2 0-.5-.2-.7-.2-.1-.5 0-.7.2 0 .2.1.5.3.7m3.2 1c.3 0 .5-.2.6-.4 0-.3-.1-.5-.4-.6-.3 0-.5.2-.6.4-.1.3.1.6.4.6m-5.4-2.9c.1 0 .3 0 .3-.1.2-.2.2-.5 0-.7s-.5-.2-.7 0-.2.5 0 .7c.1.1.2.1.4.1m-2.7-5.6c.3 0 .5-.3.5-.5 0-.3-.3-.5-.6-.4-.3 0-.5.3-.4.5.1.2.3.4.5.4m.4 2.7c.1.2.3.3.5.3h.2c.3-.1.4-.4.2-.7-.1-.3-.4-.4-.7-.3-.2.2-.3.5-.2.7m-.3-5.9h.1c.2 0 .4-.2.5-.4 0-.3-.1-.5-.4-.6-.3-.1-.5.1-.6.4-.1.3.1.6.4.6m4.4-2.5s0 .1 0 0c.3 0 .5-.2.6-.4 0-.3-.1-.5-.4-.6-.3 0-.5.1-.6.4-.1.4.1.6.4.6m.7-2.9c.1 0 .1.1.2.1.2 0 .4-.1.5-.3.1-.3 0-.5-.2-.7s-.5 0-.7.2c-.1.3 0 .6.2.7m.1 7.8c-.2.2-.3.5-.2.7s.3.3.5.3c.1 0 .2 0 .2-.1.2-.1.3-.4.2-.7-.1-.2-.4-.3-.7-.2m7-13s.1 0 0 0h.1c.3-.1.4-.3.4-.6-.1-.3-.3-.4-.6-.4-.3.1-.5.3-.4.6 0 .2.3.4.5.4M18 23.4c0-.3-.3-.5-.6-.4s-.4.2-.4.5c0 .2.3.4.5.4h.1c.3 0 .4-.3.4-.5zm4.4 7.5c.1 0 .1.1.2.1.2 0 .4-.1.4-.3.1-.3 0-.5-.2-.7-.3-.1-.6 0-.7.2-.1.3 0 .6.3.7m0-17.1c.1 0 .2 0 .2-.1.2-.1.3-.4.2-.7-.1-.3-.4-.3-.7-.2-.2.1-.3.4-.2.7.1.2.3.3.5.3M20 15.6c.1 0 .3-.1.4-.2.2-.2.2-.5 0-.7s-.5-.2-.7 0-.2.5 0 .7c.1.2.2.2.3.2m-.2 12.7c-.2.2-.2.5 0 .7.1.1.2.1.4.1s.3-.1.4-.1c.2-.2.2-.5 0-.7-.2-.2-.6-.2-.8 0"/><path d="M45 14.2c-2.4-2.6-5.7-4.1-9.2-4.2-.9 0-1.7 0-2.6.1-3.5-1.9-7.6-2.1-11.3-.5-1.8.8-3.4 1.9-4.7 3.4h-.3c-1.6.7-3 1.8-4.2 3.1-1.3 1.5-2.3 3.2-2.9 5.1-.1 0-.2.1-.3.2-1.1 1.3-1.9 2.9-2.4 4.5C5 32.9 9 40.4 16 42.5c1.3.4 2.6.6 3.9.6 4.9 0 9.4-2.7 11.8-7.2 1 .3 2.1.5 3.2.5h.5c3.4 0 6.6-1.3 9-3.6 2.6-2.4 4.1-5.7 4.2-9.2.1-3.5-1.1-6.8-3.6-9.4m-22.7-3.7c3-1.3 6.4-1.3 9.4-.1-1.1.3-2.2.8-3.1 1.4-.2-.2-.5-.2-.7 0-.1.1-.1.2-.1.4v.2c-.5.4-1 .7-1.4 1.1-2.6 2.4-4.1 5.7-4.2 9.2-.2 3.3.9 6.3 2.8 8.7 0 .1.1.2.1.3 0 0 .1.1.2.1h.1c.7.8 1.5 1.6 2.4 2.2-1.1.1-2.2 0-3.2-.2-3.9-.8-7.2-3.5-8.7-7.2-1.3-3-1.3-6.4-.1-9.4 1.1-3 3.5-5.4 6.5-6.7m-8.8 6.3c.7-.8 1.5-1.4 2.4-2-.4.6-.8 1.3-1.1 2-.4.9-.6 1.8-.8 2.8 0 0-.1 0-.1.1-.1 0-.1.1-.1.2v.2c0 .1 0 .2.1.3-.3 2.2.1 4.5 1 6.6 1.6 3.8 4.9 6.6 8.9 7.6 0 .1.1.2.1.3.1.1.2.1.4.1.1 0 .3 0 .4-.1 0 0 0-.1.1-.1.8.2 1.6.2 2.5.2.5 0 1 0 1.5-.1.1 0 .3-.1.3-.2l.6.3c-4.6 3.2-10.9 2.8-15.2-1-2.4-2.2-3.9-5.2-4-8.5-.3-3.1.8-6.3 3-8.7m2.7 24.8c-6.5-2-10.1-8.9-8.1-15.3.3-1 .7-1.9 1.3-2.8-.1.8-.1 1.5-.1 2.3.1 1 .2 1.9.5 2.8 0 .1-.1.2-.1.3 0 .1.1.3.1.4l.1.1c.7 2.2 2 4.1 3.7 5.7 2.5 2.3 5.7 3.4 8.9 3.4.8 0 1.7-.1 2.5-.2 0 .1.1.1.2.1h.4c.1 0 .1-.1.2-.1.1-.1.1-.2.1-.2 1.6-.4 3.2-1.2 4.6-2.3h.1c-2.7 5-8.7 7.5-14.4 5.8m27.5-9.4c-2.4 2.2-5.5 3.4-8.8 3.3-6.8-.2-12.1-5.9-11.8-12.7.1-3.3 1.5-6.3 3.9-8.5 1.8-1.6 3.9-2.7 6.3-3.1h.1c.6-.1 1.3-.2 1.9-.2h.5c3.3.1 6.3 1.5 8.5 3.9s3.4 5.5 3.3 8.8c-.1 3.2-1.5 6.3-3.9 8.5"/><path d="M37.8 27.4l-.2-1c0-.1 0-.1-.1-.1h-1.2c-.5 0-1-.2-1.4-.5s-.7-.7-.9-1.2l2.5.1.1-.1s.2-.8.2-.9-.1-.1-.2-.1l-2.8-.1v-.6l3 .1c.1 0 .2 0 .2-.2 0 0 .2-.8.2-.9s-.1-.1-.1-.1l-2.8.2c.2-.4.5-.8 1-1 .4-.2 1-.3 1.5-.3h.9l.1-.1.3-1v-.1c0-.1-.1-.1-.1-.1-.4-.1-.8-.2-1.2-.2-.9 0-1.7.2-2.5.7-.7.5-1.3 1.2-1.6 2H32l-.1.1v.8l.1.1h.4v.6H32c-.1 0-.2.2-.2.2v.7c0 .1.2.2.2.2h.6c.2.9.7 1.6 1.4 2.2s1.5.9 2.5.9h1s.2 0 .2-.1c.1 0 .1-.2.1-.2z"/><circle cx="41.3" cy="15.5" r=".5"/><circle cx="43.4" cy="17.7" r=".5"/><circle cx="44.7" cy="20.5" r=".5"/><circle cx="45" cy="23.5" r=".5"/><circle cx="44.5" cy="26.5" r=".5"/><circle cx="43" cy="29.2" r=".5"/><circle cx="40.8" cy="31.2" r=".5"/><circle cx="38.1" cy="32.6" r=".5"/><circle cx="35" cy="32.9" r=".5"/><circle cx="32.1" cy="32.3" r=".5"/><circle cx="29.4" cy="30.8" r=".5"/><circle cx="27.3" cy="28.6" r=".5"/><circle cx="26" cy="25.9" r=".5"/><circle cx="25.6" cy="22.9" r=".5"/><circle cx="26.3" cy="19.8" r=".5"/><circle cx="27.7" cy="17.2" r=".5"/><circle cx="29.9" cy="15.1" r=".5"/><circle cx="32.5" cy="13.9" r=".5"/><circle cx="35.6" cy="13.5" r=".5"/><circle cx="38.7" cy="14" r=".5"/><circle cx="38.7" cy="14" r=".5"/></svg>