<svg xmlns="http://www.w3.org/2000/svg" width="55.18" height="51.66" viewBox="0 0 55.18 51.66"><path d="M27.588 26.906c2.16 0 4.34-1.646 5.981-4.516 1.892-3.311 2.994-8.457.944-11.939-.9-1.529-2.803-3.339-6.752-3.339l-.167.001c-4.027-.057-6.019 1.786-6.931 3.338-2.05 3.482-.947 8.629.945 11.939 1.642 2.871 3.822 4.516 5.98 4.516m-6.062-15.948c1.112-1.889 3.096-2.846 5.91-2.846l.159.001c2.918-.03 4.925.921 6.058 2.845 1.848 3.139.802 7.869-.951 10.936-1.438 2.513-3.348 4.013-5.113 4.013-1.763 0-3.674-1.5-5.11-4.013-1.755-3.068-2.8-7.797-.953-10.936"/><path d="M41.26 34.615a6.814 6.814 0 0 1-.242-1.01c-.71-4.134-1.833-6.472-6.298-8.576a.502.502 0 0 0-.711.406c-.022.238-.621 5.815-6.414 5.881-5.804-.065-6.402-5.643-6.425-5.881a.5.5 0 0 0-.711-.406c-4.465 2.104-5.588 4.442-6.297 8.576-.704 4.099-1.226 10.339-1.23 10.4a.498.498 0 0 0 .498.542h28.32c.138 0 .27-.057.364-.158a.494.494 0 0 0 .135-.373c-.486-7.784-.73-8.569-.989-9.401m-27.285 8.933c.145-1.603.597-6.42 1.173-9.773.643-3.745 1.53-5.701 5.148-7.552.384 1.719 1.888 6.032 7.299 6.093 5.402-.061 6.904-4.374 7.288-6.093 3.618 1.851 4.506 3.807 5.148 7.552.099.572.188.859.273 1.137.225.722.456 1.469.912 8.637H13.975z"/></svg>