<svg xmlns="http://www.w3.org/2000/svg" width="55.18" height="51.66" viewBox="0 0 55.18 51.66"><path d="M47.816 17.575L27.84 6.012a.505.505 0 0 0-.502 0L7.365 17.575a.5.5 0 0 0 .251.933h1.727v2.323a.5.5 0 0 0 .5.5h1.068v17.922H9.842a.5.5 0 0 0-.5.5v2.323h-.241a.5.5 0 0 0-.5.5v2.64a.5.5 0 0 0 .5.5H46.08a.5.5 0 0 0 .5-.5v-2.64a.5.5 0 0 0-.5-.5h-.452v-2.323a.5.5 0 0 0-.5-.5H44.06V21.331h1.067a.5.5 0 0 0 .5-.5v-2.323h1.938a.498.498 0 0 0 .481-.37.498.498 0 0 0-.23-.563m-37.474.932h8.102v1.823h-8.102v-1.823zm6.533 20.308h-4.964V21.769h4.964v17.046zm1-17.484h1.068a.5.5 0 0 0 .5-.5v-2.323h2.993v2.323c0 .277.223.5.5.5h1.067v17.922h-1.067a.5.5 0 0 0-.5.5v2.323h-2.993v-2.323a.5.5 0 0 0-.5-.5h-1.068V21.331zm13.661 20.745h-8.101v-1.823h8.101v1.823zm-1.569-3.261h-4.964V21.769h4.964v17.046zm-6.531-20.308h8.101v1.823h-8.101v-1.823zM10.342 40.252h8.102v1.823h-8.102v-1.823zm35.238 4.463H9.601v-1.64H45.58v1.64zm-.953-2.639h-8.101v-1.823h8.101v1.823zm-6.532-20.307h4.965v17.047h-4.965V21.769zm-1 17.483h-1.068a.5.5 0 0 0-.5.5v2.323h-2.991v-2.323a.5.5 0 0 0-.5-.5h-1.068V21.331h1.068c.277 0 .5-.223.5-.5v-2.323h2.991v2.323a.5.5 0 0 0 .5.5h1.068v17.921zm7.532-18.921h-8.101v-1.823h8.101v1.823zm.5-2.824H9.478L27.589 7.022l18.113 10.485h-.575z"/><path d="M25.353 11.586l-.418-.016a.142.142 0 0 0-.1.035.145.145 0 0 0-.042.098l-.017.484a.14.14 0 0 0 .033.1c.026.026.06.039.099.041l.285.009a4.736 4.736 0 0 0-.021.446l-.281-.01a.134.134 0 0 0-.095.038.131.131 0 0 0-.046.095l-.017.479c0 .039.011.07.035.099a.138.138 0 0 0 .097.043l.403.015c.157.633.477 1.145.959 1.532.483.389 1.058.594 1.721.617a2.25 2.25 0 0 0 .318-.005l.146-.014.127-.017c.039-.006.076-.011.109-.018l.093-.02c.025-.006.05-.013.069-.016a.19.19 0 0 0 .044-.014l.021-.002a.13.13 0 0 0 .075-.061.117.117 0 0 0 .016-.095l-.126-.682a.136.136 0 0 0-.058-.091.13.13 0 0 0-.111-.012l-.021.008c-.013.001-.029.007-.052.011l-.079.016c-.03.006-.064.011-.104.017-.043.005-.084.011-.127.015l-.146.01a1.545 1.545 0 0 1-.152.001 1.68 1.68 0 0 1-.96-.327 1.709 1.709 0 0 1-.608-.811l1.646.058a.134.134 0 0 0 .137-.105l.118-.473a.136.136 0 0 0-.021-.116.129.129 0 0 0-.104-.055l-1.952-.071a3.905 3.905 0 0 1 .013-.445l2.079.074c.076.003.122-.033.139-.106l.12-.481a.121.121 0 0 0-.026-.111.126.126 0 0 0-.104-.056l-1.992-.07c.153-.313.374-.559.665-.727a1.74 1.74 0 0 1 .971-.238c.04.002.082.004.126.01.043.002.086.008.123.014l.11.016c.035.004.068.012.096.018.026.009.054.014.074.018a.25.25 0 0 1 .048.015l.019.002a.113.113 0 0 0 .1-.007.115.115 0 0 0 .064-.08l.208-.67a.145.145 0 0 0-.011-.101.156.156 0 0 0-.084-.067 3.248 3.248 0 0 0-.821-.128 2.836 2.836 0 0 0-1.722.483 2.759 2.759 0 0 0-1.088 1.401"/></svg>