<svg xmlns="http://www.w3.org/2000/svg" width="55.18" height="51.66" viewBox="0 0 55.18 51.66"><path d="M43.784 37.814H13.269V11.973c0-1.033-.84-1.873-1.872-1.873-1.033 0-1.873.84-1.873 1.873v27.714c0 1.033.84 1.873 1.873 1.873h32.388c1.032 0 1.873-.84 1.873-1.873a1.877 1.877 0 0 0-1.874-1.873"/><path d="M20.532 26.454h-3.375c-.576 0-1.044.467-1.044 1.042v6.75c0 .574.468 1.041 1.044 1.041h3.375c.573 0 1.042-.467 1.042-1.041v-6.75c0-.575-.468-1.042-1.042-1.042m6.708-9h-3.375c-.575 0-1.042.467-1.042 1.042v15.75c0 .574.467 1.041 1.042 1.041h3.375c.574 0 1.042-.467 1.042-1.041v-15.75c0-.575-.467-1.042-1.042-1.042m6.833 3h-3.375c-.575 0-1.043.467-1.043 1.042v12.75c0 .574.468 1.041 1.043 1.041h3.375c.575 0 1.043-.467 1.043-1.041v-12.75c0-.575-.467-1.042-1.043-1.042m6.834-7h-3.375c-.576 0-1.044.467-1.044 1.042v19.75c0 .574.468 1.041 1.044 1.041h3.375c.573 0 1.042-.467 1.042-1.041v-19.75c0-.575-.468-1.042-1.042-1.042"/></svg>