<svg xmlns="http://www.w3.org/2000/svg" width="55.18" height="51.66" viewBox="0 0 55.18 51.66"><path d="M48.637 34.845c-.516-.067-1.097.046-1.595.228-2.996 1.087-5.847 2.354-8.832 3.476-.146.056-.317.118-.413.231-.777.914-1.801 1.285-2.948 1.298-1.856.022-3.712.084-5.568.129-1.259.03-2.518.063-3.776.086-.318.005-.72-.351-.74-.722s.233-.5.557-.53c.129-.013.257-.021.387-.024l4.695-.117c1.646-.043 3.294-.053 4.938-.133 1.15-.059 1.931-.912 1.95-2.015.02-1.183-.896-2.075-2.145-2.053-1.846.034-4.183-.218-6.077-.511-2.253-.349-3.349-1.504-5.535-2.205-3.369-1.084-6.817-.69-10.294-.619-.008-.242-.013-.484-.02-.727-.02-.765-.391-1.098-1.166-1.08-2.032.047-4.063.096-6.096.146-.125.003-.251.02-.476.038.113 1.083.19 2.138.339 3.184.556 3.897 1.914 7.502 4.044 10.812.098.15.342.287.521.291.693.02 1.387-.014 2.081-.036.687-.024 1.064-.414 1.048-1.114l-.013-.595.005.002c1.567.446 3.123.916 4.686 1.368 2.907.839 5.798 1.744 8.73 2.482 2.434.611 4.887.684 7.198-.59 4.899-2.697 9.804-5.388 14.698-8.092.244-.135.465-.355.628-.587.553-.785.137-1.897-.811-2.021M32.957 5.099c-6.595 0-11.938 5.345-11.938 11.939 0 6.593 5.343 11.938 11.938 11.938 6.593 0 11.937-5.345 11.937-11.938 0-6.594-5.344-11.939-11.937-11.939m10.844 10.39a1.015 1.015 0 1 1-2.007.3 1.015 1.015 0 0 1 2.007-.3m-2.46-3.872a1.014 1.014 0 1 1 .94 1.8 1.014 1.014 0 0 1-.94-1.8m-2.218-2.424a1.011 1.011 0 0 1 1.433-.04 1.014 1.014 0 1 1-1.433.04m-5.032-3.025c.558.052.969.546.916 1.103-.05.558-.544.969-1.103.917-.558-.051-.97-.545-.917-1.103s.547-.968 1.104-.917m-3.602.24a1.015 1.015 0 1 1 .483 1.97 1.015 1.015 0 0 1-.483-1.97m-7.763 6.971a1.014 1.014 0 1 1 1.918.662 1.014 1.014 0 0 1-1.918-.662m-.625 3.555a1.015 1.015 0 1 1 2.03.002 1.015 1.015 0 0 1-2.03-.002m.453 3.194a1.016 1.016 0 0 1 1.941-.593 1.016 1.016 0 0 1-1.941.593m3.005 3.465a1.013 1.013 0 1 1-1.193-1.639 1.013 1.013 0 1 1 1.193 1.639m-.909-11.946a1.015 1.015 0 1 1 1.253-1.597 1.015 1.015 0 0 1-1.253 1.597m3.463 14.016a1.013 1.013 0 1 1-1.663-1.16c.319-.459.95-.573 1.411-.252.459.321.572.953.252 1.412m.15-16.148a1.014 1.014 0 1 1-1.1-1.703 1.014 1.014 0 0 1 1.1 1.703m2.941 17.271a1.015 1.015 0 1 1-1.953-.554 1.015 1.015 0 0 1 1.953.554m2.333 1.123a1.013 1.013 0 1 1-.119-2.023 1.013 1.013 0 0 1 .119 2.023m.26-6.137c-1.096 0-1.962-.299-2.598-.892-.636-.594-1.054-1.446-1.248-2.546h-.942v-1.219h.811a1.307 1.307 0 0 1-.025-.236v-.192c0-.069 0-.136.003-.204.005-.063.005-.119.005-.16h-.793v-1.207h.913a5.434 5.434 0 0 1 .443-1.508c.209-.445.473-.822.794-1.131a3.31 3.31 0 0 1 1.143-.707c.442-.16.934-.244 1.483-.244.468 0 .894.05 1.284.146.388.094.765.235 1.13.418l-.67 1.59c-.316-.14-.614-.251-.889-.331s-.558-.119-.855-.119c-.481 0-.875.161-1.181.482-.306.324-.512.791-.617 1.404h2.482v1.207h-2.586c0 .038-.004.075-.006.116-.007.037-.007.077-.007.122v.329c0 .047.003.123.013.225h2.157v1.219h-2.039c.117.571.336.993.656 1.263.319.269.741.402 1.264.402.359 0 .699-.033 1.009-.103.313-.071.603-.167.876-.286v1.756a3.516 3.516 0 0 1-.876.303 5.517 5.517 0 0 1-1.134.103m3.265 5.367a1.015 1.015 0 1 1-.769-1.878 1.015 1.015 0 0 1 .769 1.878M38.08 8.46a1.015 1.015 0 1 1-1.85-.837 1.015 1.015 0 0 1 1.85.837m2.064 16.8c-.421.37-1.061.33-1.431-.092a1.014 1.014 0 1 1 1.431.092m2.3-2.782a1.014 1.014 0 1 1-1.764-1 1.014 1.014 0 0 1 1.764 1m.082-2.57a1.013 1.013 0 1 1 .372-1.993 1.013 1.013 0 1 1-.372 1.993"/></svg>