<svg xmlns="http://www.w3.org/2000/svg" viewBox="0 0 55.2 51.7"><path d="M28.6 39.2c-.1.1-.1.1 0 0-.2.2-.4.3-.6.3h-.2c-.6.2-1.3.3-1.9.4l.2.2c.2.4 0 .9-.4 1.1-.1.1-.2.1-.4.1-.3 0-.6-.2-.7-.5s-.1-.6.1-.8h-1.6c-6-.2-11.1-4-13.1-9.3h-.2c-.5 0-.8-.4-.8-.9 0-.3.2-.5.4-.6-.4-1.4-.6-2.9-.5-4.4 0-.3 0-.5.1-.8-.6 1-1 1.9-1.3 2.9-2.2 7.1 1.8 14.6 8.9 16.8 6.3 1.9 12.9-1 15.8-6.6-1.1.9-2.4 1.6-3.8 2.1M10 34.1c-.4 0-.7-.3-.8-.6-.1-.4.2-.9.6-1 .4-.1.9.2 1 .6.1.4-.2.9-.6 1H10m1.6 2.9c-.1.1-.3.1-.4.1-.3 0-.6-.1-.7-.4-.2-.4-.1-.9.3-1.1.4-.2.9-.1 1.1.3.3.3.1.8-.3 1.1m2.2 2.3c-.2.2-.4.3-.6.3-.2 0-.4-.1-.6-.2-.3-.3-.4-.8 0-1.2.3-.3.8-.4 1.2 0 .3.3.4.8 0 1.1m2.9 1.6c-.1.3-.4.5-.7.5-.1 0-.2 0-.4-.1-.4-.2-.6-.7-.4-1.1.2-.4.7-.6 1.1-.4.4.2.5.7.4 1.1m2.3 1.4h-.1c-.5-.1-.8-.5-.7-.9.1-.5.5-.8.9-.7.5.1.8.5.7.9s-.4.7-.8.7m3.3 0h-.1c-.4 0-.8-.3-.8-.7-.1-.5.2-.9.7-.9.5-.1.9.2.9.7.1.4-.2.8-.7.9"/><path d="M28.4 36.5c-.3 0-.6-.1-.9-.1-.1.1-.1.1-.2.1H27c-.3 0-.5-.1-.7-.3-.6-.1-1.3-.3-1.9-.5.1.1.2.3.2.5 0 .5-.4.8-.8.8-.5 0-.8-.4-.8-.8s.3-.7.6-.8c-5.7-2.2-9.6-7.8-9.4-14.2v-.3h-.1c-.1 0-.3 0-.4-.1-.4-.2-.5-.7-.3-1.1s.6-.5 1-.4c.3-1.9.9-3.6 1.9-5.2-.9.6-1.8 1.3-2.6 2.2-4.9 5.5-4.5 13.9 1 18.9 4.8 4.3 11.8 4.5 16.8.9-1.1.3-2.1.4-3.1.4M12.2 23c.1-.4.5-.7 1-.6.4.1.7.5.6 1 0 .4-.4.6-.8.6h-.2c-.4-.1-.7-.5-.6-1m-.2 3.5c0-.5.3-.9.7-.9.5 0 .9.3.9.8s-.3.9-.8.9h-.1c-.3 0-.6-.4-.7-.8m1.9 3.8c-.1 0-.2.1-.3.1-.3 0-.6-.2-.8-.5-.2-.4 0-.9.5-1.1.4-.2.9 0 1.1.5.1.4-.1.8-.5 1m1.9 2.7c-.2.1-.3.2-.5.2s-.5-.1-.6-.3c-.3-.4-.2-.9.1-1.2.4-.3.9-.2 1.2.1.2.3.1.9-.2 1.2m2.5 1.9c-.2.2-.4.4-.7.4-.2 0-.3 0-.5-.1-.4-.3-.5-.8-.2-1.1.3-.4.8-.5 1.1-.2.5.1.6.6.3 1m3.1 1.2c-.1.4-.4.6-.8.6h-.2c-.4-.1-.7-.6-.6-1s.6-.7 1-.6c.4.1.7.5.6 1"/><path d="M27.2 33.4c-.2 0-.4-.2-.6-.4-.6-.4-1.1-.8-1.6-1.2 0 .1 0 .2-.1.2-.1.3-.4.5-.8.5-.1 0-.2 0-.3-.1-.4-.2-.6-.7-.4-1.1.1-.3.4-.4.6-.5-2.6-2.8-4.2-6.5-4-10.6.1-2.4.7-4.6 1.8-6.5-.1-.1-.2-.1-.2-.2-.3-.4-.2-.9.2-1.2.3-.2.6-.2.9 0 1.1-1.6 2.6-3 4.2-4-1.1.2-2.2.5-3.3.9-6.9 2.9-10.1 10.8-7.2 17.7C19 32.8 25 36 31 35c-1.4-.3-2.7-.9-3.8-1.6m-7.9-18.5c.3-.4.8-.4 1.2-.2.4.3.4.8.2 1.2-.2.2-.4.3-.7.3-.2 0-.3-.1-.5-.2-.4-.2-.5-.7-.2-1.1m-1.6 3c.2-.4.6-.7 1.1-.5.4.2.7.6.5 1.1-.1.3-.4.5-.8.5h-.3c-.5-.2-.7-.6-.5-1.1m-.7 3.4c0-.5.4-.8.9-.8s.8.4.8.9c0 .4-.4.8-.8.8-.6 0-.9-.4-.9-.9m1.1 4.1c-.4 0-.7-.2-.8-.6-.1-.4.2-.9.6-1s.9.2 1 .6c.1.4-.2.9-.6 1h-.2m1.7 2.9c-.1.1-.3.1-.4.1-.3 0-.5-.1-.7-.4-.2-.4-.1-.9.3-1.1s.9-.1 1.1.3c.2.3.1.8-.3 1.1m2.3 2.3c-.2.2-.4.3-.6.3s-.4-.1-.5-.2c-.3-.3-.4-.8-.1-1.2.3-.3.8-.4 1.2-.1.3.3.3.8 0 1.2"/><path d="M35.1 7.4c-7.4-.3-13.6 5.5-13.9 12.9s5.5 13.6 12.9 13.9c7.4.3 13.6-5.5 13.9-12.9.3-7.4-5.5-13.6-12.9-13.9m10.8 10.3c.1.4-.1.9-.6 1h-.2c-.4 0-.7-.2-.8-.6-.1-.4.1-.9.6-1 .4-.1.9.2 1 .6m-2.6-3.4c.4-.2.9-.1 1.1.3.2.4.1.9-.3 1.1-.1.1-.3.1-.4.1-.3 0-.5-.1-.7-.4-.2-.4 0-.9.3-1.1m-7.4-5.1c.5 0 .8.5.7.9 0 .4-.4.7-.8.7h-.1c-.5-.1-.8-.5-.7-.9.1-.4.5-.7.9-.7m-3.4.2c.4-.1.9.2 1 .7.1.4-.2.9-.7 1h-.2c-.4 0-.7-.3-.8-.7-.1-.5.2-1 .7-1m-8.1 6c.2-.4.7-.6 1.1-.3.4.2.6.7.3 1.1-.1.3-.4.4-.7.4-.1 0-.3 0-.4-.1-.4-.2-.6-.7-.3-1.1m-.2 2.6c.5.1.7.5.7 1-.1.4-.4.7-.8.7h-.2c-.4-.1-.7-.5-.7-1 .1-.5.5-.8 1-.7m-1.1 4.1c0-.5.3-.9.7-.9.5-.1.9.3.9.7.1.5-.3.9-.7.9h-.1c-.4 0-.8-.3-.8-.7m2 3.8c-.1 0-.2.1-.3.1-.3 0-.6-.2-.8-.5-.2-.4 0-.9.4-1.1s.9 0 1.1.4c.2.4 0 .9-.4 1.1m1.9 2.6c-.2.1-.3.2-.5.2s-.5-.1-.6-.3c-.3-.3-.3-.9.1-1.2.3-.3.9-.3 1.2.1.2.3.2.9-.2 1.2m.6-14.8c-.2.2-.4.3-.6.3s-.4-.1-.6-.2c-.3-.3-.3-.8 0-1.2.3-.3.8-.3 1.2 0 .3.3.3.8 0 1.1m2 16.7c-.2.3-.4.4-.7.4-.1 0-.3 0-.4-.1-.4-.2-.5-.8-.3-1.1.2-.4.8-.5 1.1-.3.5.2.6.7.3 1.1M30 12c-.1.1-.3.1-.4.1-.3 0-.6-.2-.7-.4-.2-.4-.1-.9.3-1.1.4-.2.9-.1 1.1.3.2.4.1.9-.3 1.1m2.7 19.4c-.1.4-.4.6-.8.6h-.2c-.4-.1-.7-.6-.6-1s.6-.7 1-.6c.4.1.7.6.6 1m2.4 1c-.5 0-.8-.4-.9-.8 0-.5.3-.8.8-.9.5 0 .8.3.9.8 0 .5-.3.9-.8.9m2.2-6.7s-.3.1-.4.1c-.1 0-.3 0-.4.1h-.7c-1.1 0-2-.4-2.7-1-.8-.6-1.3-1.4-1.5-2.4H31c-.1 0-.1 0-.2-.1 0 0-.1-.1-.1-.2v-.8c0-.1 0-.1.1-.1 0 0 .1-.1.2-.1h.4v-.7h-.5c-.1 0-.1 0-.2-.1 0 0-.1-.1-.1-.2v-.8c0-.1 0-.1.1-.2 0 0 .1-.1.2-.1h.7c.3-.9.9-1.7 1.7-2.2s1.7-.8 2.7-.8c.5 0 .9.1 1.3.2 0 0 .1 0 .1.1v.2l-.3 1.1c0 .1 0 .1-.1.1h-.2l-.5-.1h-.4c-.6 0-1.1.1-1.5.4-.5.3-.8.7-1.1 1.2l3.2.1c.1 0 .1 0 .2.1 0 .1.1.1 0 .2l-.2.8c0 .1-.1.2-.2.2l-3.3-.1v.7l3.1.1c.1 0 .1 0 .2.1v.2l-.2.8s0 .1-.1.1h-.1l-2.6-.1c.2.5.5 1 1 1.3.4.3 1 .5 1.5.5h.6c.1 0 .4-.1.4-.1h.2l.1.1.2 1.1v.3c.1 0 0 0 0 0m1.2 6.1h-.3c-.3 0-.7-.2-.8-.6-.2-.4.1-.9.5-1.1.4-.1.9.1 1.1.5.2.5 0 1-.5 1.2m1.2-20.6c-.1.3-.4.5-.8.5-.1 0-.2 0-.3-.1-.4-.2-.6-.7-.4-1.1.2-.4.7-.6 1.1-.4.4.2.6.7.4 1.1m1.9 18.9c-.1.1-.3.2-.5.2-.3 0-.5-.1-.7-.3-.3-.4-.2-.9.2-1.2.4-.3.9-.2 1.2.2.2.3.1.9-.2 1.1m.7-17c-.2.2-.4.3-.6.3-.2 0-.4-.1-.5-.2-.3-.3-.4-.8-.1-1.2.3-.3.8-.4 1.2-.1.3.3.3.8 0 1.2M44 27.7c-.2.2-.4.3-.7.3-.2 0-.3-.1-.5-.2-.4-.3-.4-.8-.2-1.2.3-.4.8-.4 1.2-.2.4.4.5.9.2 1.3m1.6-3.1c-.1.3-.4.6-.8.6h-.3c-.4-.2-.7-.6-.5-1.1.1-.4.6-.7 1.1-.5.5.1.7.6.5 1m.7-3.4c0 .4-.4.8-.8.8-.5 0-.8-.4-.8-.9s.4-.8.9-.8c.3 0 .7.4.7.9"/></svg>