<svg xmlns="http://www.w3.org/2000/svg" viewBox="0 0 55.2 51.7"><path d="M46.9 30.7c-.3-.6-.8-1-1.4-1.2-.6-.2-1.2-.1-1.8.1l-6.1 3.1c.1-.2.1-.5.1-.8 0-1.7-1.4-3-3-3h-5.9c-1.4-3-4.7-3.2-4.9-3.2h-7.3v-1.3c0-.3-.2-.5-.5-.5H8.4c-.3 0-.5.2-.5.5v13.8c0 .3.2.5.5.5H16c.3 0 .5-.2.5-.5v-1.3l12.1 4.2s.9.4 2 .4c.2 0 .5 0 .8-.1h.2c.1 0 .2 0 .3-.1C34.1 40.4 44 35 46 33.9c1.1-.6 1.6-2 1-3.2h-.1zm-31.3 7.2H8.9V25h6.6c.1 0 .1 12.9.1 12.9zm29.9-4.7c-4.7 2.6-12.3 6.7-13.9 7.3-1.4.4-2.6-.2-2.6-.2L16.6 36v-9.2h7.3s3.1.1 4.1 2.8c.1.2.3.3.5.3h6.2c1.1 0 2 .9 2 2s-.9 2-2 2h-7.8c-.3 0-.5.2-.5.5s.2.5.5.5h8c1.4 0 2.3-.8 2.5-1l6.8-3.4c.3-.2.7-.2 1-.1.3.1.6.3.8.7l.1.2c.3.8.1 1.6-.6 1.9m-9.1-6.4c2.7 0 4.9-2.2 4.9-4.9S39.1 17 36.4 17s-4.9 2.2-4.9 4.9c.1 2.7 2.3 4.9 4.9 4.9m0-8.7c2.1 0 3.9 1.7 3.9 3.9s-1.7 3.9-3.9 3.9-3.9-1.7-3.9-3.9 1.8-3.9 3.9-3.9m-.8-2.9c1.4 0 2.6-1.2 2.6-2.6S37.1 10 35.6 10c-1.4 0-2.6 1.2-2.6 2.6s1.2 2.6 2.6 2.6m0-4.2c.9 0 1.6.7 1.6 1.6 0 .9-.7 1.6-1.6 1.6-.9 0-1.6-.7-1.6-1.6 0-.9.7-1.6 1.6-1.6m7.9 7.6c2.1 0 3.7-1.7 3.7-3.7 0-2.1-1.7-3.7-3.7-3.7s-3.7 1.7-3.7 3.7 1.7 3.7 3.7 3.7m0-6.5c1.5 0 2.7 1.2 2.7 2.7 0 1.5-1.2 2.7-2.7 2.7s-2.7-1.2-2.7-2.7c0-1.4 1.2-2.7 2.7-2.7"/></svg>