<svg xmlns="http://www.w3.org/2000/svg" width="55.18" height="51.66" viewBox="0 0 55.18 51.66"><path d="M25.685 32.384a.87.87 0 1 0-1.231-1.227.87.87 0 0 0 1.231 1.227m2.518 0a.867.867 0 1 0-1.226-1.227.867.867 0 0 0 1.226 1.227m2.509 0a.866.866 0 1 0-1.227 0 .868.868 0 0 0 1.227 0"/><path d="M44.409 25.047H15.263V11.908c0-.595.179-3.563 3.685-3.563 3.112 0 3.507 2.384 3.522 3.49-2.696.463-3.562 4.062-3.6 4.226a.5.5 0 0 0 .488.612h7.227a.5.5 0 0 0 .484-.626c-.043-.165-1.039-3.858-3.603-4.227-.031-2.18-1.227-4.476-4.518-4.476-3.235 0-4.685 2.292-4.685 4.563v13.139H10.77c-1.204 0-2.185.979-2.185 2.185s.98 2.185 2.185 2.185h.172v3.743a7.976 7.976 0 0 0 5.664 7.629v2.526h-3.922a.5.5 0 0 0 0 1h29.864a.5.5 0 1 0 0-1h-3.996v-2.519c3.287-.979 5.692-4.028 5.692-7.637v-3.743h.164a2.185 2.185 0 0 0 .001-4.368m-18.516-9.373h-5.858c.36-1.004 1.27-2.889 3.018-2.889 1.544 0 2.459 1.878 2.84 2.889m11.659 27.64H17.606v-2.301c.419.068.847.114 1.285.114h17.403c.43 0 .848-.044 1.258-.109v2.296zm5.693-10.155c0 3.843-3.118 6.969-6.95 6.969H18.891c-3.832 0-6.949-3.126-6.949-6.969v-3.743h31.303v3.743zm1.164-4.743H10.77a1.186 1.186 0 0 1 0-2.37h33.639c.653 0 1.186.531 1.186 1.185s-.533 1.185-1.186 1.185"/><path d="M23.848 16.75a.5.5 0 0 0-.485.516l.074 2.552a.5.5 0 0 0 .5.485h.015a.5.5 0 0 0 .485-.515l-.074-2.553a.502.502 0 0 0-.515-.485m-2.253.482l-.095 2.552a.501.501 0 0 0 .481.519H22a.501.501 0 0 0 .5-.481l.096-2.552a.501.501 0 0 0-.481-.519c-.268-.021-.508.206-.52.481m-1.51-.101l-.732 2.511a.5.5 0 0 0 .481.64.5.5 0 0 0 .48-.359l.732-2.511a.5.5 0 0 0-.961-.281m5.169-.34a.5.5 0 0 0-.341.62l.732 2.511a.5.5 0 0 0 .961-.281l-.732-2.51a.504.504 0 0 0-.62-.34"/></svg>