<svg xmlns="http://www.w3.org/2000/svg" viewBox="0 0 55.2 51.7"><path d="M45.4 14.4H38V8.1c0-.3-.2-.5-.5-.5H17.7c-.3 0-.5.2-.5.5v6.3H9.8c-.1 0-.3.1-.4.1-.1.1-.1.2-.1.4l.1 28.7c0 .3.2.5.5.5h35.7c.3 0 .5-.2.5-.5V14.8c-.2-.2-.4-.4-.7-.4m-35.1 1h6.9v27.7h-6.8l-.1-27.7zm13.9 27.7l-.1-6.2H31v6.2h-6.8zm12.8 0h-5v-6.7c0-.3-.2-.5-.5-.5h-7.9c-.1 0-.3.1-.4.1-.1.1-.1.2-.1.4l.1 6.7h-5.1V8.6H37v34.5zm7.9 0h-6.8L38 15.4h6.9v27.7z"/><path d="M34.1 11.3c-.3 0-.5.2-.5.5v3c0 .3.2.5.5.5s.5-.2.5-.5v-3c0-.3-.2-.5-.5-.5m-13 0c-.3 0-.5.2-.5.5v3c0 .3.2.5.5.5s.5-.2.5-.5v-3c0-.3-.2-.5-.5-.5m4.3 0c-.3 0-.5.2-.5.5v3c0 .3.2.5.5.5s.5-.2.5-.5v-3c0-.3-.2-.5-.5-.5m4.4 0c-.3 0-.5.2-.5.5v3c0 .3.2.5.5.5s.5-.2.5-.5v-3c0-.3-.2-.5-.5-.5m4.3 5.6c-.3 0-.5.2-.5.5v3c0 .3.2.5.5.5s.5-.2.5-.5v-3c0-.3-.2-.5-.5-.5m-13 0c-.3 0-.5.2-.5.5v3c0 .3.2.5.5.5s.5-.2.5-.5v-3c0-.3-.2-.5-.5-.5m4.3 0c-.3 0-.5.2-.5.5v3c0 .3.2.5.5.5s.5-.2.5-.5v-3c0-.3-.2-.5-.5-.5m4.4 0c-.3 0-.5.2-.5.5v3c0 .3.2.5.5.5s.5-.2.5-.5v-3c0-.3-.2-.5-.5-.5m4.3 5.7c-.3 0-.5.2-.5.5v3c0 .3.2.5.5.5s.5-.2.5-.5v-3c0-.3-.2-.5-.5-.5m-13 0c-.3 0-.5.2-.5.5v3c0 .3.2.5.5.5s.5-.2.5-.5v-3c0-.3-.2-.5-.5-.5m4.3 0c-.3 0-.5.2-.5.5v3c0 .3.2.5.5.5s.5-.2.5-.5v-3c0-.3-.2-.5-.5-.5m4.4 0c-.3 0-.5.2-.5.5v3c0 .3.2.5.5.5s.5-.2.5-.5v-3c0-.3-.2-.5-.5-.5m4.3 5.7c-.3 0-.5.2-.5.5v3c0 .3.2.5.5.5s.5-.2.5-.5v-3c0-.3-.2-.5-.5-.5m-13 0c-.3 0-.5.2-.5.5v3c0 .3.2.5.5.5s.5-.2.5-.5v-3c0-.3-.2-.5-.5-.5m4.3 0c-.3 0-.5.2-.5.5v3c0 .3.2.5.5.5s.5-.2.5-.5v-3c0-.3-.2-.5-.5-.5m4.4 0c-.3 0-.5.2-.5.5v3c0 .3.2.5.5.5s.5-.2.5-.5v-3c0-.3-.2-.5-.5-.5"/></svg>