<svg xmlns="http://www.w3.org/2000/svg" width="55.18" height="51.66" viewBox="0 0 55.18 51.66"><path d="M22.484 27.66a.503.503 0 0 0 .048-.468L14.851 8.397c-.154-.376-.771-.376-.926 0l-7.68 18.794a.5.5 0 0 0 .462.689h1.639l-2.101 5.142a.5.5 0 0 0 .462.689h7.181v9.333a.5.5 0 0 0 1 0v-9.333h7.182a.5.5 0 0 0 .463-.689L20.43 27.88h1.64a.497.497 0 0 0 .414-.22m-2.798-.78a.5.5 0 0 0-.463.689l2.103 5.142h-6.438v-5.319a.499.499 0 1 0-1 0v5.319H7.452l2.101-5.142a.5.5 0 0 0-.463-.689H7.452l6.936-16.972 6.938 16.972h-1.64zm26.984-3.028c.489-.397.832-.932.991-1.567.292-1.162-.052-2.562-.854-3.484-1.241-1.428-2.622-1.5-3.406-1.391-.161-.799-.681-1.545-1.489-2.111-1.264-.883-2.91-1.148-4.093-.66-1.512.624-2.103 1.694-2.245 2.709a2.998 2.998 0 0 0-1.598-.621c-1.288-.11-2.617.568-3.299 1.683-1.303 2.134-.251 4.093.873 5.231a3.537 3.537 0 0 0-2.091 2.181c-.531 1.565-.035 3.346 1.295 4.648 1.713 1.678 3.782 1.228 5.084.524.191.813.766 1.775 2.125 2.255.223.079.438.136.65.177v8.554a.5.5 0 0 0 1 0v-8.52c.333-.036.655-.109.955-.254.66-.321 1.092-.848 1.351-1.269.945.691 2.185.861 3.443.45 1.928-.634 3.37-2.44 3.589-4.495.211-1.983-1.113-3.336-2.281-4.04m1.286 3.934c-.206 1.929-1.608 3.224-2.907 3.651-1.137.372-2.2.138-2.918-.646a.502.502 0 0 0-.843.178c-.003.009-.336.938-1.158 1.338a1.845 1.845 0 0 1-.518.152v-2.557a.5.5 0 1 0-1 0v2.492c-.104-.027-.207-.048-.316-.087-1.653-.584-1.548-1.975-1.53-2.135a.5.5 0 0 0-.81-.449c-.102.081-2.519 1.973-4.504.032-1.052-1.03-1.453-2.414-1.047-3.612.333-.983 1.158-1.625 2.264-1.758a.5.5 0 0 0 .225-.907c-.118-.083-2.883-2.06-1.365-4.546.482-.789 1.461-1.282 2.362-1.209.853.072 1.533.637 1.915 1.591.004.014.011.028.017.041h.001v.002h.001v.002h.001v.001l.001.001v.001a.5.5 0 0 0 .906-.419c-.097-.251-.864-2.418 1.466-3.379.856-.355 2.176-.12 3.139.555.433.303 1.153.951 1.113 1.89a.499.499 0 0 0 .211.427.508.508 0 0 0 .474.059c.065-.025 1.568-.587 2.917.962.588.676.851 1.739.639 2.584-.166.661-.591 1.125-1.263 1.379a.502.502 0 0 0 .005.938c.114.041 2.776 1.049 2.522 3.428"/><path d="M40.083 20.537c-1.342-.031-2.339.311-2.979 1.037-.901 1.021-.701 2.39-.692 2.448a.5.5 0 0 0 .988-.151c-.001-.009-.132-.977.46-1.642.435-.489 1.161-.731 2.193-.692a.488.488 0 0 0 .515-.486.5.5 0 0 0-.485-.514m-4.991 7.517c-.386 0-.661-.103-.842-.313-.333-.389-.308-1.097-.271-1.337a.501.501 0 0 0-.988-.159c-.022.134-.193 1.332.496 2.141.258.305.748.668 1.605.668a.5.5 0 0 0 0-1m7.724-3.52a.499.499 0 0 0-.7.077.502.502 0 0 0 .073.703c.146.118.452.458.42.7-.022.17-.248.363-.619.527a.5.5 0 0 0 .406.914c.729-.324 1.134-.766 1.205-1.315.111-.862-.693-1.532-.785-1.606"/></svg>