<svg xmlns="http://www.w3.org/2000/svg" width="55.18" height="51.66" viewBox="0 0 55.18 51.66"><path d="M19.534 19.977h15.805a4.557 4.557 0 0 0 4.552-4.552 4.557 4.557 0 0 0-4.552-4.552H19.534a4.557 4.557 0 0 0-4.552 4.552 4.557 4.557 0 0 0 4.552 4.552m0-8.104h15.805a3.555 3.555 0 0 1 3.552 3.552 3.556 3.556 0 0 1-3.552 3.552H19.534a3.557 3.557 0 0 1-3.552-3.552 3.555 3.555 0 0 1 3.552-3.552m-.179 10.476h-2.008c-1.515 0-2.748 1.231-2.748 2.747s1.233 2.748 2.748 2.748h2.008c1.516 0 2.748-1.232 2.748-2.748s-1.232-2.747-2.748-2.747m0 4.495h-2.008a1.75 1.75 0 0 1-1.748-1.748 1.75 1.75 0 0 1 1.748-1.747h2.008a1.75 1.75 0 0 1 1.748 1.747 1.75 1.75 0 0 1-1.748 1.748m9.134-4.495H26.48c-1.514 0-2.747 1.231-2.747 2.747s1.233 2.748 2.747 2.748h2.009c1.515 0 2.747-1.232 2.747-2.748s-1.232-2.747-2.747-2.747m0 4.495H26.48a1.75 1.75 0 0 1-1.747-1.748 1.75 1.75 0 0 1 1.747-1.747h2.009a1.75 1.75 0 0 1 1.747 1.747 1.75 1.75 0 0 1-1.747 1.748m9.133-4.495h-2.009c-1.514 0-2.747 1.231-2.747 2.747s1.233 2.748 2.747 2.748h2.009c1.515 0 2.747-1.232 2.747-2.748s-1.232-2.747-2.747-2.747m0 4.495h-2.009a1.75 1.75 0 0 1-1.747-1.748 1.75 1.75 0 0 1 1.747-1.747h2.009a1.75 1.75 0 0 1 1.747 1.747 1.75 1.75 0 0 1-1.747 1.748m-18.267 1.974h-2.008a2.75 2.75 0 0 0-2.748 2.747 2.75 2.75 0 0 0 2.748 2.748h2.008a2.75 2.75 0 0 0 2.748-2.748 2.75 2.75 0 0 0-2.748-2.747m0 4.495h-2.008a1.75 1.75 0 0 1-1.748-1.748 1.75 1.75 0 0 1 1.748-1.747h2.008a1.75 1.75 0 0 1 1.748 1.747 1.75 1.75 0 0 1-1.748 1.748m9.134-4.495H26.48a2.75 2.75 0 0 0-2.747 2.747 2.75 2.75 0 0 0 2.747 2.748h2.009a2.75 2.75 0 0 0 2.747-2.748 2.75 2.75 0 0 0-2.747-2.747m0 4.495H26.48a1.75 1.75 0 0 1-1.747-1.748 1.75 1.75 0 0 1 1.747-1.747h2.009a1.75 1.75 0 0 1 1.747 1.747 1.75 1.75 0 0 1-1.747 1.748m9.133-4.495h-2.009a2.75 2.75 0 0 0-2.747 2.747 2.75 2.75 0 0 0 2.747 2.748h2.009a2.75 2.75 0 0 0 2.747-2.748 2.75 2.75 0 0 0-2.747-2.747m0 4.495h-2.009a1.75 1.75 0 0 1-1.747-1.748 1.75 1.75 0 0 1 1.747-1.747h2.009a1.75 1.75 0 0 1 1.747 1.747 1.75 1.75 0 0 1-1.747 1.748m-18.267 1.975h-2.008c-1.515 0-2.748 1.231-2.748 2.747s1.233 2.748 2.748 2.748h2.008c1.516 0 2.748-1.232 2.748-2.748s-1.232-2.747-2.748-2.747m0 4.494h-2.008a1.75 1.75 0 0 1-1.748-1.748 1.75 1.75 0 0 1 1.748-1.747h2.008a1.75 1.75 0 0 1 1.748 1.747 1.75 1.75 0 0 1-1.748 1.748m9.134-4.494H26.48c-1.514 0-2.747 1.231-2.747 2.747s1.233 2.748 2.747 2.748h2.009c1.515 0 2.747-1.232 2.747-2.748s-1.232-2.747-2.747-2.747m0 4.494H26.48a1.75 1.75 0 0 1-1.747-1.748 1.75 1.75 0 0 1 1.747-1.747h2.009a1.75 1.75 0 0 1 1.747 1.747c0 .965-.784 1.748-1.747 1.748m9.133-4.494h-2.009c-1.514 0-2.747 1.231-2.747 2.747s1.233 2.748 2.747 2.748h2.009c1.515 0 2.747-1.232 2.747-2.748s-1.232-2.747-2.747-2.747m0 4.494h-2.009a1.75 1.75 0 0 1-1.747-1.748 1.75 1.75 0 0 1 1.747-1.747h2.009a1.75 1.75 0 0 1 1.747 1.747 1.75 1.75 0 0 1-1.747 1.748"/><path d="M31.884 15.329c.18.097.392.145.637.145.361 0 .646-.103.854-.309s.312-.482.312-.827c0-.344-.104-.618-.312-.824s-.493-.309-.854-.309c-.245 0-.457.048-.637.145a.907.907 0 0 0-.4.417c-.088.18-.131.371-.131.571 0 .202.043.393.131.574.086.18.221.319.4.417m.413-1.515c.052-.071.126-.106.224-.106s.172.035.22.106c.079.112.118.289.118.53 0 .243-.039.42-.118.53-.048.072-.122.109-.22.109s-.172-.037-.224-.109c-.078-.11-.117-.287-.117-.53 0-.244.039-.42.117-.53m2.697 1.869a.917.917 0 0 0-.4.417c-.087.18-.13.37-.13.572s.043.394.13.573a.92.92 0 0 0 .4.416c.181.099.393.147.636.147.363 0 .649-.104.858-.311.207-.207.311-.482.311-.826 0-.343-.104-.619-.311-.826-.209-.207-.495-.31-.858-.31a1.34 1.34 0 0 0-.636.148m.978.995c0 .244-.039.42-.118.53a.258.258 0 0 1-.224.106c-.097 0-.172-.035-.22-.106-.079-.11-.119-.286-.119-.53 0-.243.04-.42.119-.53.048-.073.123-.109.22-.109a.26.26 0 0 1 .224.105c.079.113.118.291.118.534m-2.826 1.137l2.493-4.61h-.622l-2.486 4.61z"/><path d="M40.227 7.829H14.953a2.503 2.503 0 0 0-2.5 2.5v31.002c0 1.378 1.121 2.5 2.5 2.5h25.274c1.379 0 2.5-1.122 2.5-2.5V10.329c0-1.378-1.121-2.5-2.5-2.5m1.5 33.502c0 .827-.673 1.5-1.5 1.5H14.953c-.828 0-1.5-.673-1.5-1.5V10.329c0-.827.672-1.5 1.5-1.5h25.274c.827 0 1.5.673 1.5 1.5v31.002z"/></svg>