<svg xmlns="http://www.w3.org/2000/svg" width="55.18" height="51.66" viewBox="0 0 55.18 51.66"><path d="M45.937 8.285c.004-.026.016-.05.016-.077V7.025a.5.5 0 0 0-.5-.5h-2.135a.5.5 0 0 0-.5.5v1.183c0 .028.012.052.016.078a1.5 1.5 0 0 0-.959 1.396v5.059c0 .442.195.835.5 1.11a.49.49 0 0 0-.047.206v1.183a.5.5 0 0 0 .5.5h1.057v4.36c-2.375-6.719-8.771-11.555-16.295-11.555-7.521 0-13.92 4.836-16.295 11.555v-4.347l-.002-.013h1.06a.5.5 0 0 0 .5-.5v-1.183a.497.497 0 0 0-.046-.205c.305-.275.5-.669.5-1.111v-5.06c0-.636-.4-1.178-.96-1.396.005-.026.016-.05.016-.077V7.025a.5.5 0 0 0-.5-.5H9.727a.5.5 0 0 0-.5.5v1.183c0 .028.011.052.016.078a1.5 1.5 0 0 0-.959 1.396v5.059c0 .442.195.835.5 1.11a.49.49 0 0 0-.047.206v1.183a.5.5 0 0 0 .5.5h1.06l-.002.013v10.451c0 .044.014.082.024.123.261 9.311 7.897 16.81 17.271 16.81 9.254 0 16.811-7.312 17.254-16.456a.514.514 0 0 0 .041-.2v-10.74h1.059a.5.5 0 0 0 .5-.5v-1.183a.482.482 0 0 0-.047-.205 1.49 1.49 0 0 0 .501-1.111V9.681a1.502 1.502 0 0 0-.961-1.396M9.284 14.74V9.681a.5.5 0 0 1 .5-.5h2.022a.5.5 0 0 1 .5.5v5.059a.5.5 0 0 1-.5.5H9.784a.5.5 0 0 1-.5-.5m2.078-6.559h-1.135v-.656h1.135v.656zm-1.625 8.055c.017 0 .03.004.047.004h2.022c.016 0 .03-.004.046-.004v.503H9.737v-.503zm17.852 27.899c-8.984 0-16.295-7.312-16.295-16.296s7.311-16.295 16.295-16.295c8.986 0 16.295 7.31 16.295 16.295s-7.308 16.296-16.295 16.296M42.875 14.74V9.681a.5.5 0 0 1 .5-.5h2.022c.274 0 .5.224.5.5v5.059c0 .276-.226.5-.5.5h-2.022a.5.5 0 0 1-.5-.5m2.078-6.559h-1.135v-.656h1.135v.656zm.49 8.558h-2.115v-.503c.016 0 .031.004.047.004h2.022c.016 0 .03-.004.046-.004v.503z"/><path d="M27.59 13.055c-8.152 0-14.784 6.632-14.784 14.784 0 8.152 6.632 14.784 14.784 14.784 8.151 0 14.783-6.632 14.783-14.784.001-8.152-6.631-14.784-14.783-14.784m0 28.568c-7.601 0-13.784-6.184-13.784-13.784 0-7.601 6.184-13.784 13.784-13.784 7.6 0 13.783 6.183 13.783 13.784.001 7.6-6.183 13.784-13.783 13.784"/><path d="M27.59 15.921c-6.572 0-11.919 5.346-11.919 11.918s5.347 11.919 11.919 11.919 11.919-5.347 11.919-11.919-5.346-11.918-11.919-11.918m0 22.837c-6.021 0-10.919-4.898-10.919-10.919 0-6.02 4.897-10.918 10.919-10.918 6.021 0 10.919 4.898 10.919 10.918 0 6.021-4.898 10.919-10.919 10.919"/></svg>