<svg xmlns="http://www.w3.org/2000/svg" width="55.18" height="51.66" viewBox="0 0 55.18 51.66"><path d="M43.178 20.109H39.02c-.265-6.084-5.283-10.956-11.431-10.956s-11.165 4.872-11.431 10.956h-4.157a.5.5 0 0 0-.5.5v21.397a.5.5 0 0 0 .5.5h31.177a.5.5 0 0 0 .5-.5V20.609c0-.277-.223-.5-.5-.5m-15.589-9.956c5.598 0 10.183 4.421 10.444 9.956H17.146c.261-5.535 4.845-9.956 10.443-9.956m15.089 31.354H12.501V21.109h30.177v20.398z"/><path d="M27.561 25.434a3.441 3.441 0 0 0-3.437 3.438c0 .954.39 1.848 1.078 2.496l-1.07 5.904a.503.503 0 0 0 .492.589h5.873a.497.497 0 0 0 .492-.589l-1.069-5.904a3.413 3.413 0 0 0 1.077-2.496 3.44 3.44 0 0 0-3.436-3.438m2.338 11.426h-4.676l1.015-5.596a.497.497 0 0 0-.183-.481 2.422 2.422 0 0 1-.931-1.912c0-1.345 1.093-2.438 2.437-2.438s2.437 1.093 2.437 2.438c0 .749-.339 1.445-.93 1.912a.498.498 0 0 0-.183.481l1.014 5.596z"/></svg>