<svg xmlns="http://www.w3.org/2000/svg" viewBox="0 0 55.2 51.7"><path d="M48.4 28.3c.1-1 .2-4-.6-6.2-1.9-5.6-5.8-8.7-11.3-9.1-6.1-.4-10.7 2.6-12.5 4v-1.1c0-.2-.1-.3-.3-.4-.2-.1-.3-.1-.5 0l-4.7 2.7c-.4-.1-1.3-.3-1.9-.3h-.2c-.6 0-1.5.2-1.9.3L10 15.4c-.2-.1-.3-.1-.5 0s-.3.3-.3.4v7.3c-1.1 1.4-1.2 3.7-1.1 4.5-2 .6-3.5 2.5-3.5 4.7 0 2.7 2.2 4.9 4.9 4.9h19.8c.3.8 1 1.4 1.9 1.4h9c1.6-.1 3-.6 4.2-1.4h1.2c2.7 0 4.9-2.2 4.9-4.9.1-1.6-.7-3.1-2.1-4m-38.3-4.6c.1-.1.1-.2.1-.3v-6.6l4.1 2.4c.1.1.2.1.4.1.4-.1 1.4-.3 1.9-.3h.2c.5 0 1.5.2 1.9.3.1 0 .3 0 .4-.1l4.1-2.4v6.6c0 .1 0 .2.1.3.9 1.1 1 2.9 1 3.8h-2.6c.2-.4.4-.8.4-1.3 0-1.2-1-2.3-2.3-2.3h-2.3c-.2-.3-.4-.4-.8-.4-.3 0-.6.2-.8.4h-2.2c-1.2 0-2.3 1-2.3 2.3 0 .5.1.9.4 1.3H9.1c0-.8 0-2.7 1-3.8m2.4 2.5c0-.7.6-1.3 1.3-1.3H16c.2.3.4.4.8.4.3 0 .6-.2.8-.4h2.3c.7 0 1.3.6 1.3 1.3s-.6 1.3-1.3 1.3h-6c-.8 0-1.4-.6-1.4-1.3m-6.9 6.2c0-2.2 1.8-3.9 3.9-3.9h14.7v4.6c0 1.6 1.3 2.9 2.9 2.9 1.6 0 2.9-1.3 2.9-2.9v-4.6h13.8c-.1 2.1-.7 6-4.2 6.1h-8.5c-1 0-1.8.7-2 1.7H9.5c-2.2 0-3.9-1.8-3.9-3.9m24.6 4.3c0-.6.5-1.1 1.1-1.1h8.5C43 35.5 45 32.7 45 28h-.1c0-.3-.2-.5-.5-.5H29.5c-.3 0-.5.2-.5.5v5.1c0 1-.9 1.9-1.9 1.9s-1.9-.9-1.9-1.9v-5.3c0-.8 0-3.1-1.1-4.6v-4.9c.6-.5 3.1-2.6 6.7-3.6v2.8c0 .6.5 1.1 1.1 1.1.6 0 1.1-.5 1.1-1.1v-3.3c.2 0 .5-.1.7-.1v3c0 .6.5 1.1 1.1 1.1s1.1-.5 1.1-1.1v-3h.7v1.5c0 .6.5 1.1 1.1 1.1.6 0 1.1-.5 1.1-1.1v-1.2c4.9 1.2 7.2 4.9 8.3 8.1.6 1.9.6 4.4.5 5.6v.2c-.2 4.5-1.8 6.8-3 7.9-1.1 1-2.6 1.6-4.3 1.6h-8.9c-.8-.1-1.2-.6-1.2-1.1m15.5-.4c1-1.2 2.2-3.3 2.6-6.8.8.7 1.3 1.8 1.3 2.9 0 2.1-1.7 3.9-3.9 3.9"/><path d="M13.4 23.3c.6 0 1.2-.2 1.8-.7.2-.2.2-.5 0-.7s-.5-.2-.7 0c-.7.6-1.5.6-2.1 0-.2-.2-.5-.2-.7 0-.2.2-.2.5 0 .7.5.5 1.1.7 1.7.7m6.4 0c.6 0 1.2-.2 1.8-.7.2-.2.2-.5 0-.7s-.5-.2-.7 0c-.7.6-1.5.6-2.1 0-.2-.2-.5-.2-.7 0-.2.2-.2.5 0 .7.5.5 1.1.7 1.7.7"/></svg>