<svg xmlns="http://www.w3.org/2000/svg" viewBox="0 0 55.2 51.7"><path d="M18.5 13.3c-.1.1 0 .3.1.3.1.1.3 0 .3-.1v-.2l.5-1.6-.9 1.4c.1.1 0 .1 0 .2m.9 16.2c-.2-.3-.6-.4-.9-.3l-.1-.1c0-.1-.1-.1-.2 0l-.2.2c-.1 0-.1.1 0 .2l.1.1c-.2.3-.2.7 0 1 .2.3.6.4.9.3l.1.1c0 .1.1.1.2 0l.3-.2c.1 0 .1-.1 0-.2l-.1-.1c.1-.3.1-.7-.1-1m5.9 7.6c.3 0 .5-.2.5-.5s-.2-.5-.5-.5-.5.2-.5.5.2.5.5.5m-2 0c.3 0 .5-.2.5-.5s-.2-.5-.5-.5-.5.2-.5.5.2.5.5.5M11 36.6c.1 0 .3-.1.3-.3 0-.1-.1-.3-.3-.3s-.3.1-.3.3c0 .2.1.3.3.3m.9 0c.1 0 .3-.1.3-.3 0-.1-.1-.3-.3-.3s-.3.1-.3.3c0 .2.1.3.3.3"/><path d="M18.7 28.1c-1.1 0-1.9.9-1.9 1.9 0 1.1.9 1.9 1.9 1.9 1.1 0 1.9-.9 1.9-1.9 0-1-.8-1.9-1.9-1.9m0 3.6c-.9 0-1.7-.8-1.7-1.7 0-.9.8-1.7 1.7-1.7.9 0 1.7.8 1.7 1.7s-.8 1.7-1.7 1.7m0-21.8c-2 0-3.6 1.6-3.6 3.6s1.6 3.5 3.6 3.5 3.5-1.6 3.5-3.5c0-2-1.6-3.6-3.5-3.6m0 6.1c-1.4 0-2.5-1.1-2.5-2.6s1.1-2.6 2.5-2.6 2.5 1.1 2.5 2.6-1.1 2.6-2.5 2.6"/><path d="M46.1 25.5c-2.5-3.8-5.6-5.5-10.2-5.7-2.1 0-3.8.4-5.4 1.1V7.5c0-.3-.2-.5-.5-.5h-3.2v-.3H10.6V7H7.4c-.3 0-.5.2-.5.5v27.6c0 .3.2.5.5.5h1.4c.2.9.8 2.8 2 2.8h15.9c1.3 0 1.8-1.9 2-2.8H30c.3 0 .5-.2.5-.5V32c.1-.1.1-.2.2-.3.5-.7 1.3-1.1 2.2-1 .8 0 1.6.5 2.1 1.3.1.1.1.3.1.5v9.2c0 .5-.1 1-.2 1.4 0 .2-.1.4-.7.4-.5-.1-.6-.3-.6-.7v-.4c-.1-.2-.2-.3-.3-.4-.1-.1-.3-.2-.4-.2-.2 0-.3.1-.4.2-.1.1-.3.3-.3.5-.2 1.2.5 2.1 1.5 2.4.2.1.5.1.7.1 1 0 1.7-.5 2-1.5.1-.5.2-1 .2-1.5v-9.4c0-.5.2-.9.6-1.2.6-.5 1.2-.7 2-.5.8.2 1.5.7 1.9 1.5l.2.4c.1.2.3.3.5.3s.4-.1.4-.3c.5-1.3 1.3-1.9 2.5-1.9s2.1.5 2.6 1.7c.1.2.3.3.6.3.2-.1.4-.3.4-.5-.1-2.6-.8-4.9-2.2-6.9M26.7 37.4H10.8c-.3 0-.7-.9-.9-1.7h17.8c-.3.8-.7 1.7-1 1.7M7.9 34.6V8h21.6v13.4c-.9.6-1.8 1.3-2.7 2.2-2.7 2.8-3.8 6.5-3.6 8.9 0 .2.2.4.4.5.2 0 .4-.1.5-.2.7-1.4 1.5-1.9 2.5-1.9 1.2 0 1.8.8 2.5 2 .1.1.2.2.3.2v1.7c.1-.2-21.5-.2-21.5-.2zm36.8-4.8c-1.3 0-2.3.6-3 1.6-.5-.8-1.3-1.4-2.3-1.6-1-.2-2 .1-2.8.7-.3.3-.6.6-.7 1-.6-1-1.7-1.7-2.9-1.7h-.2c-1.1 0-2.1.5-2.9 1.4-.1.1-.1.2-.2.3-.7-1-1.5-1.7-2.9-1.8-1.1 0-1.8.4-2.4 1 .3-2.1 1.4-4.6 3.2-6.5 2.4-2.4 4.8-3.5 8.3-3.5h.1c4.3.3 7 1.8 9.4 5.3.9 1.4 1.5 2.9 1.8 4.5-.7-.4-1.5-.7-2.5-.7"/></svg>