<svg xmlns="http://www.w3.org/2000/svg" viewBox="0 0 56 58"><style>.st0{fill:#e6e7e8}.st1{fill:#231f20}.st2{fill:none}.st3{fill-rule:evenodd;clip-rule:evenodd}.st4,.st5{stroke:#000;stroke-width:.2847;stroke-miterlimit:10}.st5{stroke-width:.4098}.st6{clip-path:url(#SVGID_3_)}.st7{clip-path:url(#SVGID_4_)}.st8{display:none}</style><g id="FILAIRES_x5F_1"><path d="M43 34.7c-2.5-2.2-6.5-2.2-9 0l-1.6 1.4c-1.3 1.1-3.5 1.1-4.8 0L20 29.3c-.6-.6-1-1.3-1-2.1s.3-1.5.9-2.1l1.6-1.4c1.2-1.1 1.9-2.6 1.9-4.2s-.7-3.1-1.9-4.2l-3.3-3c-2.4-2.2-6.6-2.2-9 0l-1.6 1.5c-1.6 1.4-2.5 3.7-2.5 6.3 0 3.3 1.5 10.2 11.5 19.3 10 9.1 17.5 10.4 21.1 10.4 2.8 0 5.2-.8 6.8-2.2l1.6-1.5c1.2-1.1 1.9-2.6 1.9-4.2s-.7-3.1-1.9-4.2l-3.1-3zm-.7 10.9c-3 2.3-12 2.1-23.5-8.4-7-6.4-9.4-11.4-10.2-14.4-.9-3.5 0-5.9 1.1-6.9l1.6-1.5c.6-.6 1.5-.9 2.4-.9s1.8.3 2.4.9l3.3 3c.6.6.9 1.3.9 2.1s-.3 1.5-.9 2.1L17.9 23c-1.2 1.1-1.9 2.6-1.9 4.2s.7 3.1 1.9 4.2l7.6 6.9c2.4 2.2 6.6 2.2 9 0l1.6-1.4c1.3-1.2 3.5-1.2 4.8 0l3.3 3c.6.6.9 1.3.9 2.1s-.3 1.5-.9 2.1l-1.9 1.5zm2-31.5c-4.3-3.9-10-6-16.3-5.8-.4 0-.8.2-1.1.5-.3.3-.4.6-.4 1 0 .8.7 1.4 1.6 1.4 5.4-.1 10.4 1.7 14.1 5 3.7 3.3 5.6 7.8 5.5 12.7 0 .4.1.7.4 1 .3.3.7.5 1.1.5.8 0 1.5-.6 1.5-1.4.2-5.7-2.1-11-6.4-14.9z"/><path d="M27.6 17.5c3.6 0 7 1.1 9.4 3.4 2.4 2.2 3.7 5.2 3.7 8.4 0 .4.1.7.4 1 .3.3.7.5 1.1.5.8 0 1.5-.6 1.5-1.4.1-4.1-1.5-7.8-4.6-10.6-3.1-2.8-7.2-4.3-11.6-4.2-.4 0-.8.2-1.1.5-.3.3-.4.6-.4 1 .1.8.8 1.4 1.6 1.4z"/></g></svg>