<svg xmlns="http://www.w3.org/2000/svg" width="55.18" height="51.66" viewBox="0 0 55.18 51.66"><path d="M39.09 33.268a.654.654 0 0 1-.391.608c-1.126.498-4.719 1.819-11.109 1.819-6.396 0-9.984-1.321-11.11-1.819a.658.658 0 0 1-.39-.608V15.499c0-.208.093-.399.256-.527.884-.69 4.146-2.782 11.244-2.782 6.292 0 10.119 2.112 11.188 2.792a.663.663 0 0 1 .313.564v17.722z"/><path d="M39.09 13.468c0 .28-.303.455-.539.305-1.273-.803-4.828-2.618-10.961-2.618-6.134 0-9.688 1.813-10.962 2.618a.352.352 0 0 1-.538-.305v-2.66a.35.35 0 0 1 .123-.27c.643-.542 3.854-2.891 11.377-2.891 6.646 0 10.546 2.357 11.346 2.894a.342.342 0 0 1 .154.294v2.633zm0 21.803a.426.426 0 0 0-.607-.388c-1.33.634-4.865 1.771-10.893 1.771s-9.563-1.137-10.896-1.771a.422.422 0 0 0-.604.388v2.595c0 .13.052.248.15.331.701.582 3.932 2.867 11.35 2.867 6.559 0 10.438-2.295 11.312-2.871a.42.42 0 0 0 .188-.357v-2.565z"/><path d="M33.34 40.764s-1.813.726-5.75.726c-3.938 0-5.75-.726-5.75-.726v1.234c0 .355.182.684.485.867.731.443 2.354 1.146 5.265 1.146 2.615 0 4.381-.729 5.209-1.172.333-.178.541-.521.541-.896v-1.179z"/></svg>