<svg xmlns="http://www.w3.org/2000/svg" viewBox="0 0 55.2 51.7"><path d="M42.8 18.9l5.3-5.1c.1-.1.2-.3.1-.4 0-.2-.1-.3-.2-.4L35 5.6c-.2-.1-.3-.1-.5 0l-6.8 3.8-6.6-3.8c-.2-.1-.4-.1-.5 0L8.2 13.3c-.1.1-.2.2-.2.4 0 .1 0 .3.1.4l4.5 4.7L7 25.4c-.1.1-.1.3-.1.4 0 .1.1.3.2.3l5.7 3.7v7c0 .2.1.3.2.4l14.4 8.7c.1 0 .2.1.3.1.1 0 .2 0 .2-.1l14.4-8.7c.2-.1.3-.3.2-.5v-7.5l5.3-3.1c.1-.1.2-.2.2-.3 0-.1 0-.3-.1-.4l-5.1-6.5zm-15 8l-10.5-6.3-2.9-1.8 13.4-8.2.1.1 13.4 8.1-13.5 8.1zm7-20.3l12.1 6.9-4.7 4.5-13.4-8 6-3.4zm-13.9 0l5.9 3.3L13.4 18l-4.1-4.2 11.6-7.2zm-7.4 12.8l3.3 2L27 27.8l-5.4 6.6-13.4-8.7 5.3-6.3zm14.3 25.7l-13.9-8.4v-6.1l7.5 4.9c.1.1.2.1.3.1.1 0 .3-.1.4-.2l5.7-7 .3.2 5.4 5.9c.2.2.4.2.6.1l7.7-4.6v6.7l-14 8.4zM42 28.6l-8.1 4.8-5.2-5.7-.1-.1-.1-.1 13.5-8 5 6.1-5 3z"/></svg>