<svg xmlns="http://www.w3.org/2000/svg" width="55.18" height="51.66" viewBox="0 0 55.18 51.66"><path d="M41.581 11.994h-2.827V9.657a.5.5 0 0 0-1 0v2.337H17.375V9.657a.5.5 0 0 0-1 0v2.337H13.6a2.502 2.502 0 0 0-2.5 2.5v25.51c0 1.378 1.121 2.5 2.5 2.5h27.981c1.379 0 2.5-1.122 2.5-2.5v-25.51c0-1.379-1.122-2.5-2.5-2.5m-27.981 1h2.775v2.175a.5.5 0 0 0 1 0v-2.175h20.379v2.175a.5.5 0 1 0 1 0v-2.175h2.827c.827 0 1.5.673 1.5 1.5v4.199H12.1v-4.199a1.5 1.5 0 0 1 1.5-1.5m27.981 28.509H13.6c-.828 0-1.5-.673-1.5-1.5v-20.31h30.981v20.311c0 .827-.673 1.499-1.5 1.499"/><path d="M22.233 23.527a1.08 1.08 0 1 0 0 2.158 1.08 1.08 0 0 0 0-2.158m5.297 2.16a1.08 1.08 0 1 0 0-2.158 1.08 1.08 0 0 0 0 2.158m5.377-2.16a1.08 1.08 0 1 0 0 2.158 1.08 1.08 0 0 0 0-2.158m5.337 0a1.078 1.078 0 1 0 0 2.159 1.078 1.078 0 1 0 0-2.159m-16.011 5.378a1.08 1.08 0 1 0 0 2.158 1.08 1.08 0 0 0 0-2.158m-5.377 0a1.08 1.08 0 1 0 0 2.16 1.08 1.08 0 0 0 0-2.16m5.377 5.337a1.08 1.08 0 1 0 0 2.158 1.08 1.08 0 0 0 0-2.158m5.338-.634c-.945 0-1.713.768-1.713 1.713 0 .944.768 1.713 1.713 1.713.944 0 1.713-.769 1.713-1.713 0-.945-.769-1.713-1.713-1.713m0 2.426a.712.712 0 1 1-.002-1.424.712.712 0 0 1 .002 1.424m-10.715-1.792a1.08 1.08 0 1 0 0 2.16 1.08 1.08 0 0 0 0-2.16m10.674-3.178a1.08 1.08 0 1 0 0-2.158 1.08 1.08 0 0 0 0 2.158m5.377-2.159a1.08 1.08 0 1 0 0 2.158 1.08 1.08 0 0 0 0-2.158m5.337 0a1.078 1.078 0 1 0 0 2.159 1.078 1.078 0 1 0 0-2.159"/></svg>