<svg xmlns="http://www.w3.org/2000/svg" width="55.18" height="51.66" viewBox="0 0 55.18 51.66"><path d="M16.934 42.102a1.5 1.5 0 0 1-1.397-2.043c.018-.045 1.772-4.613 1.772-7.457 0-2.688-1.771-5.899-2.177-6.917-.684-1.724-1.573-3.829-1.573-7.416 0-3.646 2.148-7.988 2.241-8.171a1.5 1.5 0 0 1 2.684 1.34c-.02.039-1.925 3.897-1.925 6.831 0 2.436.91 5.293 1.555 6.901.629 1.483 2.195 4.228 2.195 7.431 0 3.408-1.896 8.334-1.978 8.543a1.497 1.497 0 0 1-1.397.958m7.208.582a1.498 1.498 0 0 1-1.397-2.041c.018-.047 1.772-4.613 1.772-7.459 0-2.688-1.771-5.898-2.176-6.917-.686-1.724-1.574-3.829-1.574-7.416 0-3.646 2.148-7.988 2.241-8.171a1.5 1.5 0 0 1 2.684 1.34c-.019.039-1.925 3.898-1.925 6.831 0 2.436.91 5.293 1.557 6.902.627 1.481 2.193 4.228 2.193 7.431 0 3.408-1.896 8.334-1.978 8.543a1.497 1.497 0 0 1-1.397.957m6.897-.875a1.499 1.499 0 0 1-1.398-2.041c.019-.047 1.773-4.613 1.773-7.459 0-2.688-1.772-5.898-2.177-6.917-.685-1.724-1.573-3.829-1.573-7.416 0-3.646 2.147-7.988 2.239-8.171a1.5 1.5 0 1 1 2.686 1.34c-.021.039-1.925 3.898-1.925 6.831 0 2.436.909 5.293 1.555 6.902.627 1.481 2.195 4.228 2.195 7.431 0 3.408-1.896 8.334-1.979 8.543a1.496 1.496 0 0 1-1.396.957m7.208.584a1.5 1.5 0 0 1-1.398-2.043c.019-.045 1.773-4.613 1.773-7.457 0-2.688-1.771-5.899-2.178-6.917-.684-1.723-1.572-3.829-1.572-7.416 0-3.646 2.147-7.988 2.24-8.171a1.501 1.501 0 0 1 2.685 1.34c-.021.039-1.925 3.898-1.925 6.831 0 2.436.91 5.293 1.555 6.903.628 1.483 2.195 4.226 2.195 7.431 0 3.407-1.896 8.334-1.979 8.541a1.496 1.496 0 0 1-1.396.958"/></svg>