<svg xmlns="http://www.w3.org/2000/svg" width="55.18" height="51.66" viewBox="0 0 55.18 51.66"><path d="M38.498 9.314h-3.056v-.272H19.739v.271h-3.057a.5.5 0 0 0-.5.5v26.673a.5.5 0 0 0 .5.5h1.322c.192.853.736 2.663 1.936 2.663h5.832v2.468a.5.5 0 1 0 1 0V39.65h1.593v2.468a.5.5 0 0 0 1 0V39.65h5.876c1.298 0 1.79-1.841 1.947-2.663h1.31a.5.5 0 0 0 .5-.5V9.814a.5.5 0 0 0-.5-.5M35.241 38.65H19.94c-.287 0-.666-.806-.88-1.556h17.08c-.189.76-.536 1.556-.899 1.556m2.757-2.663H17.182V10.315h20.816v25.672z"/><path d="M27.801 15.628a.234.234 0 0 0 .008-.174l.523-1.534-.825 1.395a.233.233 0 0 0-.128.119.233.233 0 0 0 .114.308.231.231 0 0 0 .308-.114m.454 15.469a.82.82 0 0 0-.905-.29l-.08-.106a.117.117 0 0 0-.164-.025l-.251.187a.118.118 0 0 0-.025.164l.08.107a.82.82 0 0 0 .016.95c.215.29.58.39.905.29l.079.106a.118.118 0 0 0 .165.025l.251-.187a.117.117 0 0 0 .024-.164l-.079-.107a.82.82 0 0 0-.016-.95m5.659 7.251a.462.462 0 1 0 .001-.925.462.462 0 0 0-.001.925m-1.917 0a.462.462 0 1 0 .001-.925.462.462 0 0 0-.001.925m-11.882-.452a.254.254 0 1 0 0-.508.254.254 0 1 0 0 .508m.847 0a.254.254 0 1 0 0-.509.254.254 0 0 0 0 .509"/><path d="M27.574 29.724c-1.031 0-1.87.839-1.87 1.869 0 1.031.839 1.87 1.87 1.87 1.03 0 1.869-.839 1.869-1.87 0-1.03-.839-1.869-1.869-1.869m0 3.488a1.62 1.62 0 1 1 1.619-1.62 1.62 1.62 0 0 1-1.619 1.62m-.018-14.239a3.445 3.445 0 0 0 3.441-3.441 3.446 3.446 0 0 0-3.441-3.442 3.446 3.446 0 0 0-3.442 3.442 3.446 3.446 0 0 0 3.442 3.441m0-5.884a2.442 2.442 0 1 1-2.442 2.442 2.445 2.445 0 0 1 2.442-2.442"/></svg>