<svg xmlns="http://www.w3.org/2000/svg" width="55.18" height="51.66" viewBox="0 0 55.18 51.66"><path d="M14.157 15.712l.006.022.008-.009c.761.734 2.102.604 3.01-.305.909-.909 1.038-2.248.303-3.007l.011-.012-.023-.004-.003-.005c-.485-.483-3.749-1.271-4.172-.855-.426.414.372 3.688.854 4.171l.006.004m3.025 20.528c-.908-.908-2.248-1.038-3.008-.305l-.011-.01-.004.023-.004.004c-.484.482-1.272 3.747-.858 4.169.416.43 3.69-.369 4.172-.854l.004-.004.022-.008-.008-.006c.734-.76.603-2.102-.305-3.009m8.065-27.044c.02 1.058 1.058 1.914 2.341 1.914 1.287 0 2.326-.856 2.344-1.914h.015l-.013-.02v-.004c0-.684-1.751-3.549-2.346-3.555-.592-.01-2.344 2.871-2.344 3.555l.001.005-.012.02h.014zm12.752 6.224c.908.909 2.247 1.038 3.007.304l.012.011.003-.022c.004-.001.006-.003.007-.005.482-.482 1.269-3.747.853-4.172-.412-.424-3.687.373-4.169.856-.003.002-.003.003-.003.007l-.023.004.008.009c-.733.76-.603 2.1.305 3.008m-27.042 8.069v-.017l-.021.016h-.004c-.684 0-3.549 1.75-3.555 2.343-.009.594 2.871 2.346 3.555 2.346l.004-.001.021.012v-.014c1.057-.02 1.913-1.06 1.913-2.343 0-1.285-.856-2.324-1.913-2.342m33.293-.004h-.006l-.021-.013v.015c-1.055.018-1.911 1.059-1.911 2.342 0 1.285.856 2.325 1.911 2.343v.016l.021-.014h.006c.684 0 3.547-1.751 3.553-2.345.009-.594-2.869-2.344-3.553-2.344m-3.225 12.464l-.008-.023-.009.008c-.76-.734-2.101-.602-3.009.307-.909.907-1.037 2.246-.302 3.006l-.012.011.024.006.003.006c.484.481 3.747 1.271 4.17.854.428-.414-.37-3.688-.854-4.169 0-.006-.003-.006-.003-.006m-13.434 4.603c-1.286 0-2.324.854-2.341 1.912h-.016l.013.02v.007c0 .683 1.751 3.545 2.344 3.553.595.009 2.344-2.87 2.344-3.553v-.007l.012-.02h-.013c-.019-1.058-1.059-1.912-2.343-1.912m-.001-25.621c-6.01 0-10.898 4.889-10.898 10.899 0 6.01 4.888 10.898 10.898 10.898s10.899-4.889 10.899-10.898c0-6.011-4.889-10.899-10.899-10.899m0 20.798c-5.458 0-9.898-4.439-9.898-9.898 0-5.458 4.44-9.899 9.898-9.899 5.459 0 9.899 4.441 9.899 9.899 0 5.458-4.44 9.898-9.899 9.898"/></svg>