<svg xmlns="http://www.w3.org/2000/svg" width="55.18" height="51.66" viewBox="0 0 55.18 51.66"><path d="M40.054 18.078l1.922-2.595c.654-.883.133-2.389-1.158-3.346-1.293-.956-2.885-1.015-3.539-.131l-2.037 2.752c-.021.028-.021.064-.031.098a18.294 18.294 0 0 0-5.621-1.555v-2.726c1.604-.756 2.725-2.376 2.725-4.263a4.73 4.73 0 0 0-4.724-4.724 4.73 4.73 0 0 0-4.724 4.724c0 1.887 1.119 3.507 2.725 4.263v2.726C16.36 14.302 9.149 22.137 9.149 31.629c0 10.169 8.272 18.442 18.441 18.442s18.441-8.272 18.441-18.442c.001-5.36-2.313-10.179-5.977-13.551M23.867 6.313c0-2.054 1.671-3.724 3.724-3.724s3.724 1.67 3.724 3.724a3.713 3.713 0 0 1-1.801 3.172 2 2 0 0 0-1.923-1.482c-.92 0-1.692.632-1.923 1.482a3.71 3.71 0 0 1-1.801-3.172M10.149 31.629c0-9.423 7.518-17.105 16.868-17.412l.073.008v34.821c-9.384-.268-16.941-7.968-16.941-17.417M28.09 49.046V14.225a1.63 1.63 0 0 0 .073-.008c3.012.099 5.826.961 8.267 2.404.623.541 1.377 1.063 2.036 1.396 3.996 3.198 6.565 8.107 6.565 13.611.001 9.45-7.556 17.15-16.941 17.418"/><path d="M40.036 34.517c-.062-.05-.165-.134-.319-.172-.895-.218-1.61-.623-2.19-1.238-.997-1.061-1.392-2.275-1.209-3.714.096-.761.394-1.458.909-2.131.109-.143.249-.46.085-.74-.142-.244-.435-.325-.636-.314a5.06 5.06 0 0 0-.588.055 5.154 5.154 0 0 0-4.367 5.835c.347 2.544 2.549 4.463 5.121 4.463a5.173 5.173 0 0 0 3.113-1.04.953.953 0 0 0 .23-.282c.153-.216.057-.556-.149-.722m-3.195 1.043a4.181 4.181 0 0 1-4.131-3.599 4.161 4.161 0 0 1 3.292-4.67 5.213 5.213 0 0 0-.678 1.977c-.219 1.729.276 3.251 1.473 4.523a5.21 5.21 0 0 0 1.964 1.304 4.211 4.211 0 0 1-1.92.465m-18.166-7.91a.5.5 0 0 0 .5-.5v-.824a.5.5 0 0 0-1 0v.824a.5.5 0 0 0 .5.5m-3 .637a.498.498 0 0 0 .698.111.5.5 0 0 0 .11-.698L16 27.033a.498.498 0 1 0-.808.587l.483.667zm-1.046 1.439l-.783-.254a.5.5 0 0 0-.309.951l.783.255a.502.502 0 0 0 .63-.322.499.499 0 0 0-.321-.63m-.308 2.73l-.783.254a.5.5 0 0 0 .309.953l.783-.256a.499.499 0 1 0-.309-.951m1.354 2.389l-.483.667a.5.5 0 1 0 .808.586l.483-.666a.499.499 0 1 0-.808-.587m3 .637a.5.5 0 0 0-.5.5v.824a.5.5 0 0 0 1 0v-.824a.5.5 0 0 0-.5-.5m3-.637a.5.5 0 1 0-.808.588l.484.666a.498.498 0 0 0 .698.111.5.5 0 0 0 .11-.698l-.484-.667zm2.138-2.136l-.783-.254a.5.5 0 0 0-.309.951l.783.254a.503.503 0 0 0 .63-.322.5.5 0 0 0-.321-.629m-.938-2.007a.51.51 0 0 0 .154-.024l.782-.255a.5.5 0 1 0-.308-.951l-.783.254a.5.5 0 0 0 .155.976m-1.524-3.669l-.484.666a.5.5 0 0 0 .808.588l.484-.666a.5.5 0 0 0-.808-.588m-6.02 4.533c0 1.844 1.5 3.346 3.345 3.346s3.346-1.501 3.346-3.346c0-1.845-1.501-3.345-3.346-3.345s-3.345 1.5-3.345 3.345m5.69 0c0 1.293-1.053 2.346-2.346 2.346s-2.345-1.053-2.345-2.346 1.052-2.345 2.345-2.345 2.346 1.052 2.346 2.345"/></svg>