<svg xmlns="http://www.w3.org/2000/svg" width="55.18" height="51.66" viewBox="0 0 55.18 51.66"><path d="M32.827 10.62V7.318a2.45 2.45 0 0 0-2.447-2.447h-5.578a2.45 2.45 0 0 0-2.446 2.447v3.408C15.234 12.809 9.137 19.03 9.137 28.244c0 9.396 6.188 14.318 9.877 16.418l.078.045-4.866.446a.5.5 0 0 0 .045.998c.016 0 .031 0 .047-.002l5.911-.541a.502.502 0 0 0 .452-.545l-.541-5.911a.5.5 0 0 0-.996.091l.419 4.58-.055-.031c-3.5-1.991-9.371-6.659-9.371-15.549 0-10.732 8.752-17.173 17.291-17.28.184-.002.371-.006.551-.002l.262.007c1.036.036 1.993.149 2.864.292 9.581 1.734 13.938 10.572 13.938 17.043 0 8.409-6.65 17.485-17.396 17.485a.5.5 0 0 0 0 1c11.363 0 18.396-9.595 18.396-18.485 0-6.49-4.144-15.233-13.216-17.683m-9.472-.212v-3.09c0-.799.647-1.447 1.446-1.447h5.578c.798 0 1.447.648 1.447 1.447v3.049c-.152-.028-.316-.054-.475-.08a20.239 20.239 0 0 0-3.059-.316 18.828 18.828 0 0 0-.483-.013c-.056-.001-.108-.005-.165-.005-.042 0-.084.006-.126.006-1.289.002-2.679.12-4.163.449"/><path d="M29.919 28.706c0-1.284-1.045-2.329-2.329-2.329s-2.329 1.045-2.329 2.329c0 1.285 1.045 2.329 2.329 2.329s2.329-1.044 2.329-2.329m-3.658 0c0-.733.597-1.329 1.329-1.329s1.329.596 1.329 1.329c0 .732-.597 1.329-1.329 1.329s-1.329-.597-1.329-1.329m1.829-4.437V14.076a.5.5 0 0 0-1 0v10.192a.5.5 0 0 0 1 .001m9.073 4.937a.5.5 0 0 0 0-1h-5.396a.5.5 0 0 0 0 1h5.396z"/></svg>