<svg xmlns="http://www.w3.org/2000/svg" width="55.18" height="51.66" viewBox="0 0 55.18 51.66"><path d="M45.596 35.48V14.986c0-.86-.698-1.561-1.56-1.561h-6.605v-1.896c0-.941-.765-1.706-1.704-1.706h-16.44c-.94 0-1.705.765-1.705 1.706v1.896h-6.687c-.861 0-1.561.7-1.561 1.561V35.48h-1.37v3.109l2.695 3.248H44.52l2.694-3.248V35.48h-1.618zm-27.85-1.859h-4.272c-.212 0-.397-.131-.397-.28V17.384c0-.148.186-.279.397-.279h4.108v15.799c0 .257.062.498.164.717m19.685-16.516h4.11c.212 0 .398.131.398.279V33.34c0 .149-.187.28-.398.28h-4.273a1.69 1.69 0 0 0 .163-.717V17.105zm-18.849-5.576c0-.39.317-.706.705-.706h16.44c.388 0 .704.316.704.706v21.375a.705.705 0 0 1-.704.705h-16.44a.706.706 0 0 1-.705-.705V11.529zm-8.248 3.457c0-.308.251-.561.561-.561h6.687v1.68h-4.108c-.771 0-1.397.574-1.397 1.279V33.34c0 .706.627 1.28 1.397 1.28h28.068c.771 0 1.398-.574 1.398-1.28V17.384c0-.705-.627-1.279-1.398-1.279h-4.11v-1.68h6.605c.309 0 .56.252.56.561V35.48H31.67v1.433h-8.162V35.48H10.334V14.986zm35.881 23.243l-2.164 2.609H11.128l-2.164-2.609V36.48h13.544v1.433H32.67V36.48h13.545v1.749z"/><path d="M35.535 39.147h6.875a.5.5 0 0 0 0-1h-6.875a.5.5 0 0 0 0 1M21.769 18.113h2.96c.94 0 1.705-.766 1.705-1.706v-2.959c0-.941-.765-1.706-1.705-1.706h-2.96c-.939 0-1.705.765-1.705 1.706v2.959c0 .94.766 1.706 1.705 1.706m-.705-4.665c0-.389.316-.706.705-.706h2.96c.39 0 .705.316.705.706v2.959a.706.706 0 0 1-.705.706h-2.96a.706.706 0 0 1-.705-.706v-2.959zm6.679 4.021h6.674a.5.5 0 0 0 0-1h-6.674a.5.5 0 0 0 0 1m-7.389 3.414h14.063a.5.5 0 0 0 0-1H20.354a.5.5 0 0 0 0 1m10.16 2.939l-4.173 6.064-1.754-1.574a.5.5 0 0 0-.668.744l2.177 1.955a.498.498 0 0 0 .747-.089l4.496-6.534a.5.5 0 1 0-.825-.566"/></svg>