<svg xmlns="http://www.w3.org/2000/svg" width="55.18" height="51.66" viewBox="0 0 55.18 51.66"><path d="M39.995 18.113l1.91-2.58c.651-.879.133-2.377-1.152-3.328-1.285-.952-2.87-1.012-3.521-.133l-2.028 2.739c-.02.027-.021.063-.03.095a18.224 18.224 0 0 0-5.593-1.547v-2.705c1.597-.754 2.713-2.367 2.713-4.246 0-2.595-2.109-4.703-4.703-4.703s-4.703 2.108-4.703 4.703c0 1.879 1.116 3.492 2.714 4.246v2.705c-9.188.996-16.364 8.795-16.364 18.242 0 10.121 8.233 18.354 18.354 18.354 10.121 0 18.354-8.232 18.354-18.354-.002-5.334-2.305-10.13-5.951-13.488M23.886 6.408c0-2.043 1.661-3.703 3.703-3.703s3.703 1.66 3.703 3.703a3.69 3.69 0 0 1-1.79 3.154c-.23-.845-.998-1.474-1.913-1.474s-1.683.629-1.913 1.474a3.69 3.69 0 0 1-1.79-3.154m3.703 42.547c-9.568 0-17.354-7.784-17.354-17.354 0-9.382 7.488-17.029 16.798-17.326a5.29 5.29 0 0 0 1.111 0c3.008.096 5.817.957 8.252 2.399.615.532 1.355 1.047 2.006 1.376 3.98 3.183 6.541 8.07 6.541 13.551.001 9.57-7.784 17.354-17.354 17.354"/><path d="M38.594 31.102H28.089v-6.723a.5.5 0 0 0-1 0v7.223a.5.5 0 0 0 .5.5h11.005a.5.5 0 0 0 0-1m-10.91-12.719a1.287 1.287 0 1 0 0-2.573 1.287 1.287 0 0 0 0 2.573m-.095 26.402a1.287 1.287 0 1 0 .002 2.574 1.287 1.287 0 0 0-.002-2.574M13.092 29.548a1.286 1.286 0 1 0 0 2.574 1.287 1.287 0 1 0 0-2.574m28.977.797a1.286 1.286 0 1 0 0 2.574 1.287 1.287 0 1 0 0-2.574"/></svg>