<svg xmlns="http://www.w3.org/2000/svg" width="55.18" height="51.66" viewBox="0 0 55.18 51.66"><path d="M27.665 20.193a.5.5 0 0 0 .498-.452c.184-1.957 2.651-4.983 4.715-5.781 1.759-.681 2.321-1.909 2.482-2.819.271-1.527-.411-3.08-1.192-3.765-.479-.422-1.715-1.084-3.249-.884-1.598.204-3.035 1.234-4.271 3.058-2.962 4.374.443 10.157.59 10.401a.496.496 0 0 0 .427.242m-.19-10.082c1.067-1.577 2.27-2.46 3.571-2.627.151-.019.298-.028.44-.028.981 0 1.734.418 2.021.671.57.501 1.064 1.729.866 2.839-.17.956-.795 1.649-1.857 2.062-1.985.769-4.15 3.139-4.996 5.256-.792-1.813-1.924-5.4-.045-8.173m12.529 6.117c-.932-.874-2.276-1.238-4.005-1.072-4.128.391-5.922 5.32-5.997 5.53a.498.498 0 0 0 .752.58c1.229-.831 4.175-.845 5.633-.025.604.339 1.151.463 1.628.463.564 0 1.03-.173 1.38-.37 1.078-.609 1.688-1.821 1.715-2.653.015-.511-.199-1.603-1.106-2.453m-1.1 4.235c-.614.346-1.297.316-2.025-.094-.87-.487-2.115-.729-3.341-.729a8.16 8.16 0 0 0-2.07.252c.735-1.367 2.253-3.515 4.625-3.74 1.432-.132 2.514.137 3.229.807.671.629.797 1.436.789 1.692-.02.553-.485 1.404-1.207 1.812m-20.112.713c1.458-.819 4.406-.806 5.633.026a.502.502 0 0 0 .752-.581c-.074-.21-1.869-5.14-5.997-5.529-1.727-.165-3.072.197-4.005 1.07-.905.851-1.121 1.942-1.104 2.454.025.832.636 2.045 1.715 2.653a2.79 2.79 0 0 0 1.378.369c.477.001 1.025-.123 1.628-.462m-3.721-2.59c-.008-.258.118-1.064.79-1.694.594-.557 1.445-.839 2.541-.839.219 0 .446.012.686.034 2.372.224 3.891 2.372 4.625 3.739-1.692-.452-4.029-.298-5.411.478-.727.409-1.411.442-2.024.094-.725-.407-1.19-1.258-1.207-1.812m21.651 13.207a.5.5 0 0 0-.407-.21h-4.161l-.664-7.533a.5.5 0 0 0-.498-.457h-6.286a.501.501 0 0 0-.498.457l-.664 7.533h-4.131a.5.5 0 0 0-.408.21l-3.016 4.245a.49.49 0 0 0-.093.289v8.378a.5.5 0 0 0 1 0v-3.633h5.729c.03 0 .057-.013.084-.018l-.317 3.606a.501.501 0 0 0 .498.544h9.92a.497.497 0 0 0 .498-.544l-.318-3.612c.037.009.073.023.113.023h5.729v3.633a.5.5 0 0 0 1 0v-8.378a.498.498 0 0 0-.093-.289l-3.017-4.244zm-14.097 8.28h-5.729v-3.585l2.773-3.904h3.786l-.664 7.522a.472.472 0 0 0-.166-.033m.81 4.133l1.729-19.612h5.369l1.729 19.612h-8.827zm9.667-4.133a.508.508 0 0 0-.196.04l-.663-7.529h3.814l2.773 3.904v3.585h-5.728z"/></svg>