<svg xmlns="http://www.w3.org/2000/svg" width="55.18" height="51.66" viewBox="0 0 55.18 51.66"><path d="M47.84 24.541c-.381-4.385-2.375-8.771-5.336-11.731a18.737 18.737 0 0 0-13.847-5.454.501.501 0 0 0-.483.517c.01.275.262.487.517.482 4.906-.15 9.66 1.716 13.106 5.162 2.8 2.799 4.686 6.953 5.047 11.111.305 3.518-.329 8.709-5.081 13.461-3.131 3.131-7.458 5.031-11.873 5.213-4.762.193-9.275-1.601-12.734-5.06-6.287-6.287-5.435-13.739-4.368-17.622l.017-.06 2.943 3.534a.5.5 0 1 0 .768-.639l-3.798-4.562a.501.501 0 0 0-.704-.064l-4.563 3.797a.5.5 0 0 0 .641.769l3.757-3.126-.025.087c-1.125 4.092-2.019 11.949 4.625 18.594 3.478 3.478 7.976 5.367 12.736 5.367.248 0 .497-.005.746-.016 4.663-.192 9.233-2.198 12.539-5.505 5.025-5.025 5.694-10.526 5.37-14.255"/><path d="M25.339 33.065a.49.49 0 0 0 .295-.096l4.359-3.182c.014-.011.022-.026.034-.038a.498.498 0 0 0 .314-.462V19.095a.5.5 0 0 0-1 0v9.93l-4.297 3.137a.5.5 0 0 0 .295.903"/></svg>