<svg xmlns="http://www.w3.org/2000/svg" width="55.18" height="51.66" viewBox="0 0 55.18 51.66"><path d="M45.044 16.43a4.238 4.238 0 0 0-.078-.807c-.231-1.152-.909-1.894-1.761-1.979V30.24c1.057-.066 1.84-1.247 1.841-2.782.003-3.676.003-7.353-.002-11.028m2.361 1.036c0-.193-.021-.393-.061-.579-.177-.826-.702-1.357-1.36-1.419v11.901c.817-.047 1.422-.895 1.424-1.995.001-2.635.001-5.27-.003-7.908m-5.282-2.769c-.002-1.942-1.123-3.418-2.914-3.833a4.752 4.752 0 0 0-1.059-.106l-3.135-.001v.034c-7.756.001-15.513 0-23.269.005-.354 0-.717.026-1.06.106-1.791.415-2.911 1.89-2.913 3.833-.005 5.002-.004 10.005 0 15.008 0 .28.011.567.066.843.371 1.829 1.872 3.049 3.766 3.053 4.769.006 9.538.004 14.308-.005.253 0 .432.071.613.248 2.296 2.24 4.601 4.472 6.903 6.705.093.09.19.175.345.315V33.64h4.038c.207 0 .409-.016.605-.043 1.832-.058 3.272-1.263 3.636-3.05.056-.272.065-.562.066-.843.006-5.001.008-10.004.004-15.007M24.474 28.898a1.34 1.34 0 0 1-1.308-1.322 1.322 1.322 0 0 1 1.333-1.326 1.304 1.304 0 0 1 1.317 1.333 1.318 1.318 0 0 1-1.342 1.315m3.576-7.275c-.425.529-.967.971-1.488 1.415-.38.322-.722.63-.875 1.141-.195.655-.804.97-1.449.837-.57-.118-1.025-.689-.943-1.27.035-.25.164-.525.336-.712.354-.387.758-.733 1.156-1.077.613-.53 1.178-1.095 1.331-1.93.057-.309.063-.64.02-.95-.096-.676-.521-1.109-1.117-1.208-.866-.145-1.449.081-1.819.704-.363.61-.976.863-1.599.661-.549-.178-.924-.735-.811-1.325.054-.285.214-.58.404-.803.782-.908 1.843-1.213 2.989-1.299.147-.011.295-.001.442-.001l.006-.046c.461.063.928.097 1.382.192 2.847.59 3.369 4.011 2.035 5.671"/></svg>