<svg xmlns="http://www.w3.org/2000/svg" width="55.18" height="51.66" viewBox="0 0 55.18 51.66"><path d="M49.189 26.945c-.004-.956-.484-1.827-1.39-2-.896-.173-.914-.691-1.003-1.361-.652-4.963-2.989-8.996-7.132-11.863-6.044-4.184-12.672-4.997-19.642-2.753-4.662 1.501-8.159 4.469-10.388 8.829-1.072 2.102-1.675 4.347-1.958 6.678-.027.232-.104.353-.334.452-.893.389-1.357 1.075-1.356 2.054.002 1.722-.003 3.442.002 5.162.004 1.215.932 2.16 2.161 2.188.815.019 1.635.006 2.451.004.087 0 .173-.022.266-.034v-9.564H9.402c.163-.838.277-1.621.471-2.385 1.254-4.999 4.165-8.711 8.881-10.947 4.275-2.027 8.774-2.374 13.342-1.305 6.548 1.532 10.801 5.531 12.604 11.984.234.844.335 1.726.503 2.625l-.863.049v9.596h.877c-.462 3.006-3.538 5.733-6.82 6.379-.036-.096-.062-.168-.092-.239-.361-.882-.786-1.167-1.736-1.167-1.449 0-2.899.013-4.351-.006-.562-.006-.956.229-1.257.668-.618.894-.626 2.324-.02 3.224.308.451.709.7 1.286.693 1.449-.019 2.9-.039 4.351.007.856.027 1.351-.36 1.692-1.077.064-.134.235-.252.385-.304.633-.219 1.296-.361 1.909-.62 3.308-1.394 5.61-3.677 6.441-7.229.056-.234.123-.334.379-.385 1.126-.225 1.803-1.057 1.807-2.188.004-1.723.004-3.443-.002-5.165"/><path d="M34.875 19.757c.014-.279-.476.063-.621-.214-.494-.927-2.666-.283-2.719-1.459-.066-1.478-1.052.112-1.112-.117-.078-.287-.229-.539-.229-.539-.302-.703-1.213-.946-1.213-.946.061-.904-.776-.281-.969-1.121-.111-.487-1.266-.056-1.576.303-.291.339-.358.989.144 1.044 0 0-.162.66-.551.801-2.485.912-2.012 1.517-2.016 1.52-2.593.676-1.604-1.279-3.182-1 0 0 .753 3.039.463 2.688-.337-.404-1.723.135-1.917.128-.166-.005-.618-1.748-1.271-.874-.357.481-.753.048-1.441.221-1.306.325.493 1.172-.141 1.283-1.039.183.339.794.339.794 1.271.151 2.45.942 2.462.954.108.147.688 1.013.73 1.037.024.015-.05 1.724 1.192 2.074.326.091-.435 6.702-1.386 6.837-.646.091.525.449.395.672-.256.438.198.189.49.419.677.532 1.384.485 1.498.609.845.927 2.733-.541 2.903.77.07.526.75.053.893.125.142.073 1.87.771 2.336.198.021-.028-1.119-3.13 2.375-2.426.665.134 3.439 1.608 3.704.532.021-.084 2.354-2.246 1.616-2.379-2.33-.414-.198-1.532-1.303-1.637-1.385-.13.48-1.14.487-1.149.226-.339-.58-.618-.61-.909-.016-.169.596-.582-.071-1.502-.263-.361-1.297-.188-1.297-.188s1.678-2.368 1.69-2.364c1.29.294.578-2.364 1.346-2.987 1.545-1.254-1.442-1.111-1.438-1.198"/></svg>