<svg xmlns="http://www.w3.org/2000/svg" width="55.18" height="51.66" viewBox="0 0 55.18 51.66"><path d="M49.189 26.945c-.004-.956-.484-1.827-1.389-2-.896-.173-.914-.691-1.003-1.361-.653-4.963-2.99-8.996-7.132-11.863-6.045-4.183-12.673-4.997-19.643-2.753-4.662 1.501-8.159 4.469-10.387 8.829-1.073 2.102-1.675 4.347-1.958 6.678-.028.232-.105.353-.334.452-.893.389-1.358 1.075-1.357 2.054.002 1.722-.003 3.442.002 5.162.004 1.215.932 2.16 2.161 2.188.816.019 1.635.006 2.451.004.087 0 .173-.022.266-.034v-9.564H9.402c.163-.838.278-1.621.471-2.385 1.254-4.999 4.165-8.71 8.881-10.947 4.275-2.027 8.774-2.374 13.342-1.305 6.547 1.532 10.8 5.531 12.602 11.985.235.843.336 1.725.504 2.624l-.863.049v9.596h.877c-.462 3.006-3.538 5.733-6.821 6.379-.036-.096-.061-.168-.091-.239-.362-.882-.787-1.166-1.737-1.166-1.449 0-2.899.012-4.35-.007-.562-.006-.956.229-1.257.668-.618.894-.626 2.324-.02 3.224.308.452.709.7 1.286.693 1.45-.017 2.901-.039 4.351.007.856.027 1.351-.36 1.692-1.077.065-.134.236-.252.385-.304.633-.219 1.296-.361 1.909-.62 3.308-1.394 5.611-3.677 6.442-7.229.055-.234.123-.334.379-.385 1.126-.225 1.802-1.057 1.806-2.188.005-1.723.005-3.443-.001-5.165"/><path d="M24.694 31.467a2.67 2.67 0 0 0-1.501.439l-2.601-10.29c-.073-.293-.146-.623-.219-.916-.036-.184-.147-.256-.329-.329-1.172-.366-2.309-.733-3.48-1.063-.401-.109-.731-.439-.622-.952.073-.367.366-.623.732-.623.074 0 .146 0 .22.037 1.393.403 2.783.805 4.284 1.281.33.11.55.33.623.733l2.893 11.683zm2.161 3.113c0 1.135-.952 2.051-2.088 2.051-1.172 0-2.051-.916-2.051-2.088 0-1.135.952-2.05 2.088-2.05.549 0 1.099.219 1.465.622.366.403.586.916.586 1.465m10.876-1.355c-.659.184-1.867.514-2.563.659l-4.211 1.026c-1.026.256-2.088.512-3.114.77.037-.147.074-.258.111-.404.036-.219.036-.401.036-.586 0-.33-.036-.695-.147-1.024a2.607 2.607 0 0 0-.182-.478l9.483-2.343c.147-.036.257-.036.366-.036.623 0 1.136.438 1.209 1.062s-.329 1.171-.988 1.354m-1.793-5.823c-.513-2.051-1.062-4.321-1.795-7.178-.183-.695-.879-1.135-1.684-.952-.623.147-1.282.33-1.905.476l-.073.037c-.22.036-.438.11-.659.183.073.33.146.622.258.952l.219.879-.366.073c-.366.11-.696.183-1.062.257l-.329.073-.185-.659c-.108-.367-.183-.733-.293-1.062-.036-.11-.036-.11-.072-.11h-.074l-1.208.293c-.477.11-.916.219-1.392.366-.806.22-1.209.915-.988 1.721.476 1.904.951 3.772 1.391 5.676l.33 1.319c.183.732.659 1.135 1.354 1.135.146 0 .294-.037.439-.072.477-.109.916-.221 1.392-.33l.439-.11 5.127-1.281c.878-.186 1.318-.88 1.136-1.686"/></svg>