<svg xmlns="http://www.w3.org/2000/svg" width="55.18" height="51.66" viewBox="0 0 55.18 51.66"><path d="M49.19 26.945c-.004-.955-.484-1.827-1.39-2-.896-.173-.913-.691-1.003-1.36-.652-4.963-2.989-8.996-7.132-11.864-6.045-4.184-12.673-4.998-19.643-2.754-4.662 1.501-8.159 4.469-10.387 8.829-1.073 2.102-1.676 4.347-1.958 6.678-.028.232-.105.353-.334.452-.894.39-1.358 1.075-1.357 2.055.002 1.721-.003 3.441.002 5.162.004 1.215.932 2.159 2.161 2.188.816.02 1.635.006 2.451.004.087 0 .173-.021.266-.034v-9.563H9.403c.163-.839.278-1.622.471-2.386 1.254-4.999 4.165-8.71 8.881-10.947C23.03 9.378 27.529 9.03 32.096 10.1c6.547 1.532 10.8 5.531 12.603 11.985.234.844.335 1.725.503 2.624l-.863.049v9.596h.877c-.462 3.006-3.537 5.733-6.82 6.379-.036-.096-.062-.168-.091-.239-.362-.882-.787-1.166-1.737-1.166-1.449 0-2.899.012-4.351-.007-.562-.006-.956.23-1.257.668-.618.894-.626 2.324-.02 3.224.308.452.709.7 1.286.693 1.449-.017 2.9-.039 4.351.007.856.027 1.352-.36 1.692-1.077.064-.134.235-.252.385-.304.633-.219 1.296-.361 1.909-.62 3.308-1.392 5.61-3.677 6.441-7.229.056-.234.123-.334.38-.384 1.125-.226 1.802-1.058 1.806-2.188.006-1.724.006-3.444 0-5.166"/><path d="M29.766 26.523c0-.487.004-.975-.002-1.461a.557.557 0 0 1 .352-.548c.377-.16.766-.2 1.167-.026.304.132.431.338.416.66-.014.255-.006.513-.007.769-.001.192.063.23.227.139.48-.265.961-.533 1.443-.794.456-.246.909-.502 1.38-.719.229-.106.491-.135.732.031.127.088.282.138.397.234.24.201.233.439-.017.634a4.553 4.553 0 0 1-.553.354c-.348.199-.702.383-1.048.584-.077.046-.192.157-.179.203.027.089.123.175.211.226.347.201.701.385 1.052.58.167.092.339.182.488.299.313.239.269.614-.086.791-.447.22-.892.264-1.341-.01-.294-.178-.602-.336-.902-.502-.391-.216-.778-.435-1.17-.646-.145-.079-.292-.148-.438-.223-.133-.065-.208-.015-.205.135.006.25.013.502.01.754-.005.356-.17.539-.525.604a.187.187 0 0 0-.061.018c-.269.15-.53.08-.806.002-.206-.06-.386-.142-.476-.336a.847.847 0 0 1-.062-.336c-.002-.472.002-.943.003-1.416zm-2.973.299c0-.352-.002-.702 0-1.053.002-.427-.057-.522-.464-.608a2.014 2.014 0 0 0-1.101.063c-.128.047-.242.152-.24.318l.02 1.947c.001.168-.002.335 0 .503.003.225-.087.365-.296.48-.406.225-.811.24-1.232.084-.288-.104-.415-.285-.415-.589.001-.743-.001-1.487.001-2.232.001-.333.113-.63.367-.845.24-.202.532-.317.837-.401.809-.223 1.633-.152 2.451-.131.384.009.774.125 1.142.251.571.194.858.657.857 1.267-.002.702-.001 1.403-.001 2.105a.628.628 0 0 1-.43.588c-.354.105-.706.139-1.061-.004-.275-.112-.451-.299-.438-.598.014-.38.003-.762.003-1.145m-12.782-2.344V22.64c0-.488.098-.633.563-.763a1.44 1.44 0 0 1 1.116.126.521.521 0 0 1 .272.482c.002 1.268.01 2.534-.006 3.802-.004.357.015.697.215 1.005a.936.936 0 0 0 .604.431c.006.002.012 0 .016.002.571.258 1.18.162 1.773.186.225.008.453-.002.672.041.145.027.28.125.402.214.087.063.054.147-.021.228-.172.184-.393.234-.623.235-.816.004-1.636.021-2.45-.017a2.856 2.856 0 0 1-1.514-.502 8.607 8.607 0 0 1-.493-.373c-.233-.188-.361-.454-.444-.727-.068-.225-.075-.473-.079-.711-.01-.607-.004-1.213-.003-1.821zm24.57 3.061c.097-.332-.096-.587-.373-.836-.499-.445-.973-.92-1.454-1.382a.432.432 0 0 1 .056-.687c.544-.383 1.206-.292 1.62.139.326.34.661.671.993 1.006.13.132.248.134.379.002.341-.344.685-.688 1.022-1.036.347-.358.761-.435 1.219-.286.153.05.309.134.43.24.212.186.194.407-.015.61-.59.573-1.177 1.148-1.771 1.716a.48.48 0 0 0-.153.375c.002.255-.022.51-.032.765-.005.157-.105.252-.227.317-.123.064-.259.104-.392.152a3.12 3.12 0 0 1-.249.078c-.034.01-.075.02-.107.01a8.675 8.675 0 0 1-.506-.152c-.299-.104-.436-.297-.439-.611-.003-.121-.001-.241-.001-.42m-16.526-.997c0 .44-.006.88.001 1.319.008.502-.16.641-.609.769-.104.03-.205.063-.311.091a.167.167 0 0 1-.094.004c-.184-.056-.37-.103-.548-.175-.206-.086-.356-.214-.357-.477-.003-.994-.025-1.988-.03-2.982-.001-.325.143-.498.453-.598.144-.047.288-.098.438-.123a.693.693 0 0 1 .289.026c.206.056.415.09.591.236.17.142.174.327.177.512.006.465.001.932 0 1.398zm-.965-3.764c.286-.059.521.098.771.2.147.061.176.199.175.354 0 .182-.109.285-.249.346-.438.191-.878.237-1.329.016-.186-.091-.339-.171-.328-.413.005-.143.063-.249.184-.302.245-.109.483-.256.776-.201"/></svg>