<svg xmlns="http://www.w3.org/2000/svg" width="55.18" height="51.66" viewBox="0 0 55.18 51.66"><path d="M40.279 17.878c0-.564.005-1.129-.002-1.694a.646.646 0 0 1 .404-.635c.438-.187.89-.231 1.354-.029.353.152.499.391.479.763-.013.297-.005.595-.006.894-.002.222.072.266.263.161.558-.309 1.111-.619 1.673-.921.528-.286 1.055-.581 1.6-.833.267-.123.571-.157.851.036.146.101.325.158.461.271.277.233.271.509-.02.735-.2.155-.421.284-.642.41-.4.231-.813.445-1.214.678-.091.053-.225.181-.207.233.032.104.144.203.245.263.401.232.813.445 1.218.671.192.107.394.211.566.346.362.278.313.713-.1.916-.52.256-1.032.307-1.554-.01-.341-.207-.696-.389-1.046-.582-.452-.25-.902-.502-1.356-.75-.166-.09-.338-.172-.509-.256-.153-.078-.24-.02-.236.154.005.291.014.583.01.874-.006.413-.195.626-.608.698a.2.2 0 0 0-.068.021c-.313.174-.617.091-.935.001-.238-.067-.445-.163-.553-.39a.963.963 0 0 1-.068-.387c-.008-.546-.004-1.093-.004-1.639l.004.001zm-3.446.347c0-.407-.002-.814 0-1.221.003-.495-.063-.604-.538-.704a2.313 2.313 0 0 0-1.274.072c-.146.055-.278.177-.276.369l.021 2.257c.002.194-.002.389.001.583.003.26-.102.424-.344.558-.471.259-.938.276-1.428.097-.333-.122-.48-.332-.48-.684.001-.862-.001-1.724.001-2.586.002-.386.13-.731.424-.979.279-.235.618-.367.972-.465.937-.258 1.894-.177 2.841-.152.442.011.896.145 1.324.29.66.226.992.762.99 1.469-.002.814-.001 1.627 0 2.441 0 .3-.21.593-.498.68-.407.123-.817.162-1.227-.004-.321-.13-.523-.345-.51-.692.013-.442.002-.887.001-1.329zm-14.814-2.718v-2.13c0-.565.113-.735.65-.885.446-.125.887-.08 1.294.146a.604.604 0 0 1 .316.559c.001 1.469.011 2.938-.006 4.407-.005.415.016.809.247 1.166.168.259.396.433.7.499.006.001.013 0 .02.003.66.298 1.364.186 2.054.213.262.01.525-.002.779.048.167.033.324.145.467.248.101.074.063.173-.022.265-.199.211-.455.271-.724.273-.946.004-1.896.024-2.839-.02a3.289 3.289 0 0 1-1.754-.582 10.463 10.463 0 0 1-.572-.433c-.271-.218-.421-.526-.517-.841-.078-.261-.087-.549-.092-.825-.01-.703-.002-1.407-.001-2.111zm28.476 3.548c.111-.385-.108-.681-.433-.969-.578-.516-1.127-1.066-1.687-1.602-.247-.237-.214-.599.065-.797.632-.442 1.396-.338 1.876.162.378.395.768.778 1.151 1.165.151.153.287.156.438.003.396-.398.795-.796 1.186-1.2.402-.415.882-.505 1.413-.332.178.058.356.155.497.278.247.216.227.473-.017.708-.684.663-1.363 1.33-2.053 1.989a.543.543 0 0 0-.179.433c.002.296-.026.592-.037.887-.007.182-.122.293-.261.368-.144.076-.303.122-.455.179a4.026 4.026 0 0 1-.289.089.262.262 0 0 1-.123.012c-.197-.055-.395-.11-.586-.176-.347-.12-.506-.345-.512-.71.004-.14.006-.28.006-.487m-19.154-1.156c0 .51-.006 1.021.002 1.53.009.58-.188.741-.706.891-.12.034-.239.073-.36.105a.205.205 0 0 1-.107.003c-.213-.063-.432-.118-.635-.202-.238-.099-.414-.248-.415-.552-.006-1.152-.029-2.305-.034-3.457-.002-.376.164-.577.523-.693.167-.054.335-.114.507-.143a.803.803 0 0 1 .336.031c.237.064.48.104.684.273.196.164.202.379.205.593.007.541.001 1.081 0 1.621zm-1.118-4.362c.332-.068.605.113.895.232.17.071.203.231.202.41-.001.211-.129.331-.289.401-.507.223-1.018.274-1.539.019-.217-.106-.395-.199-.384-.479.008-.166.073-.288.214-.35.286-.126.562-.298.901-.233"/><path d="M28.289 30.504l11.037-8.672h-16.24c-.813 0-2.328-.799-2.469-2.29v-1.739h-8.828c-.582 0-1.119.17-1.571.464l15.547 12.237c.822.648 1.699.648 2.524 0"/><path d="M42.013 21.832l-12.693 9.96a3.693 3.693 0 0 1-4.586 0L9.148 19.542a2.88 2.88 0 0 0-.244 1.146v15.664a2.878 2.878 0 0 0 2.885 2.885H42.29a2.879 2.879 0 0 0 2.886-2.885V21.831l-3.163.001z"/></svg>