<svg xmlns="http://www.w3.org/2000/svg" width="55.18" height="51.66" viewBox="0 0 55.18 51.66"><path d="M49.189 26.945c-.003-.955-.483-1.827-1.388-2-.897-.173-.916-.691-1.004-1.36-.652-4.963-2.989-8.996-7.132-11.864-6.045-4.184-12.673-4.998-19.643-2.754-4.662 1.501-8.16 4.469-10.388 8.829-1.073 2.102-1.675 4.347-1.959 6.678-.026.232-.104.353-.334.452-.892.39-1.356 1.075-1.355 2.055.002 1.721-.003 3.441.002 5.162.004 1.215.932 2.159 2.161 2.188.815.02 1.635.006 2.451.004.086 0 .173-.021.266-.034v-9.563H9.403c.163-.839.278-1.622.471-2.386 1.253-4.999 4.164-8.71 8.88-10.947 4.275-2.026 8.775-2.374 13.344-1.305 6.547 1.532 10.8 5.531 12.602 11.985.235.844.336 1.725.504 2.624l-.864.049v9.595h.878c-.463 3.008-3.538 5.734-6.82 6.381a6.388 6.388 0 0 0-.093-.24c-.36-.881-.785-1.166-1.735-1.166-1.449 0-2.899.012-4.351-.006-.563-.008-.955.229-1.257.666-.618.895-.627 2.326-.02 3.225.307.452.709.7 1.286.693 1.448-.018 2.899-.039 4.351.007.856.028 1.351-.36 1.692-1.077.064-.134.235-.252.385-.304.633-.22 1.296-.361 1.909-.62 3.307-1.393 5.61-3.676 6.441-7.229.056-.236.123-.334.379-.385 1.125-.227 1.803-1.058 1.807-2.189.003-1.722.004-3.442-.003-5.164"/><path d="M27.411 12.912c6.925 0 12.539 5.593 12.539 12.493 0 6.899-5.614 12.491-12.539 12.491-6.927 0-12.54-5.592-12.54-12.491 0-6.9 5.614-12.493 12.54-12.493"/></svg>