<svg xmlns="http://www.w3.org/2000/svg" width="55.18" height="51.66" viewBox="0 0 55.18 51.66"><path d="M11.634 38.129c.491 1.367 1.361 3.337 3.229 4.666.18.126.354.213.507.289.052.025.104.051.153.079l.054.028.056.021c1.021.4 2.117.586 3.255.555a10.406 10.406 0 0 0 2.038-.269c3.875-.89 7.583-2.72 11.336-5.594a39.634 39.634 0 0 0 9.291-10.132c1.473-2.3 2.605-4.676 3.371-7.062.594-1.851 1.153-3.84.929-6.015-.135-1.301-.513-3.172-2.24-4.393-.964-.681-2.108-1.44-3.491-1.823a3.641 3.641 0 0 0-1.068-.141c-.658.019-1.595.266-2.32 1.34a334.833 334.833 0 0 0-2.737 4.142l-.643.979c-.311.475-.632.963-.918 1.482-.567 1.032-.491 2.179.211 3.146.389.535.749.929 1.135 1.241a42.403 42.403 0 0 0 2.352 1.769l-.219.321a28.6 28.6 0 0 1-1.223 1.71c-2.811 3.563-5.71 6.483-8.859 8.929-.119.094-.254.195-.396.297-.69-.85-1.4-1.693-2.114-2.516-.261-.302-.563-.512-.829-.697l-.095-.066c-.592-.418-1.217-.62-1.857-.602-.592.016-1.163.22-1.702.604a559.65 559.65 0 0 0-6.114 4.447c-1.124.825-1.531 2.046-1.092 3.265m6.321-24.283c.172-.362.416-.633.8-.751-.34.277-.567.626-.68 1.065 1.003.049 1.522-.794 1.41-1.624-.982-.053-1.62.547-1.53 1.31m-1.09-.803c-.021.558.313.962.747.888-.183-.101-.332-.221-.395-.398l.609.381c.017-.6-.457-.996-.961-.871"/><path d="M23.381 7.889c-3.744.048-6.49.014-10.242.014a3.84 3.84 0 0 0-2.313.772 3.72 3.72 0 0 0-1.486 2.869c-.048 1.397-.099 4.423-.023 5.798-.038 1.063-.038 2.313.612 3.25.883 1.116 1.813 1.438 2.618 1.438 1.086-.015 4.14.087 5.763.087 1.664 0 3.334.007 4.998.007.123 0 .28.068.369.15l.082.082c.803.794 2.246 2.239 2.986 2.965.164.171.451.048.451-.185V11.633c-.014-2.293-1.917-3.771-3.815-3.744m-4.529 11.167l-.106-.016a.733.733 0 1 1-1.444-.218l-.031-.004-.104-.016a.195.195 0 1 1 .059-.386l.187.028 1.281.193.221.033a.2.2 0 0 1 .164.222.204.204 0 0 1-.227.164m.213-.585a.13.13 0 0 1-.147.109l-1.818-.273a.128.128 0 0 1-.107-.148l.02-.129a.128.128 0 0 1 .146-.109l1.816.273a.13.13 0 0 1 .108.146l-.018.131zm0-.486a.13.13 0 0 1-.147.109l-1.818-.273a.128.128 0 0 1-.107-.148l.02-.129a.129.129 0 0 1 .146-.109l1.816.273a.13.13 0 0 1 .108.147l-.018.13zM17.637 15.1l.29.394a.082.082 0 0 0 .066.034h.001a.08.08 0 0 0 .065-.033l.312-.412c-.088.544-.249 1.595-.241 1.994l.001.014-.155-.002a.113.113 0 0 0 0-.026c-.003-.016-.201-1.226-.339-1.963m2.923-1.059c-.109.255-.256.471-.396.679-.216.318-.419.618-.503 1.047-.019.091-.024.194-.032.295a1.33 1.33 0 0 1-.063.396 1.15 1.15 0 0 1-.651.581c-.146.047-.33.054-.488.054l-.131-.001c.002-.006.002-.012.002-.018-.008-.522.291-2.281.294-2.298a.082.082 0 0 0-.049-.091.086.086 0 0 0-.1.026l-.446.595-.445-.604a.082.082 0 0 0-.101-.026.085.085 0 0 0-.049.093c.123.576.401 2.267.409 2.319h-.005c-.24 0-.489-.005-.677-.072-.271-.098-.542-.348-.628-.583a.968.968 0 0 1-.038-.308 2.034 2.034 0 0 0-.031-.357c-.08-.391-.3-.721-.511-1.04a4.725 4.725 0 0 1-.366-.617 2.877 2.877 0 0 1-.155-2.038c.175-.604.525-1.135.969-1.458a2.805 2.805 0 0 1 1.876-.51c.478.039.948.183 1.295.394.51.312.918.858 1.119 1.499.212.68.175 1.405-.099 2.043"/></svg>