<svg xmlns="http://www.w3.org/2000/svg" width="55.18" height="51.66" viewBox="0 0 55.18 51.66"><path d="M47.146 14.203c-.817.325-1.617.64-2.436.965.346 1.228.481 2.517.52 3.816h3.656c.146-1.219-.891-4.025-1.74-4.781m-11.717 5.609h-3.655c-.149 1.179.812 3.83 1.709 4.781l2.445-.967c-.324-1.228-.462-2.51-.499-3.814m9.282 3.846l2.447.966c.933-1.062 1.794-3.431 1.715-4.79h-3.645a16.931 16.931 0 0 1-.517 3.824m-8.787-8.522l-2.455-.969a8.681 8.681 0 0 0-1.744 4.775h3.688a18.19 18.19 0 0 1 .511-3.806m.799 8.318l3.185-.363v-3.275h-3.68c.029 1.255.174 2.475.495 3.638m-.494-4.486h3.683v-3.274l-3.189-.363c-.296 1.177-.446 2.396-.494 3.637m7.705-3.626l-3.175.36v3.286h3.673c-.054-1.26-.198-2.485-.498-3.646m-3.178 7.76l3.18.363c.294-1.17.447-2.394.493-3.642h-3.673v3.279zm-2.384 3.839c.259.291.574.537.891.769.182.133.416.194.641.292v-4.036a16.03 16.03 0 0 0-2.949.34c.361.955.745 1.878 1.417 2.635m-.009-15.073c-.611.727-1.005 1.576-1.32 2.463-.019.048-.026.099-.042.163.976.203 1.944.315 2.937.331v-4.008c-.098.029-.175.049-.251.074-.541.189-.961.546-1.324.977m3.958.052c-.276-.318-.625-.579-.965-.835-.164-.123-.383-.172-.599-.265v4.07l2.943-.332c-.333-.996-.729-1.89-1.379-2.638m1.36 12.369a15.757 15.757 0 0 0-2.946-.335v4.003c.064-.016.103-.021.141-.033.557-.17.991-.52 1.36-.955.602-.707 1.02-1.521 1.352-2.383.034-.092.058-.187.093-.297m-.892 3.369c1.491-.43 2.749-1.229 3.865-2.385l-2.155-.829c-.416 1.19-.895 2.29-1.71 3.214m-4.918-16.52c-1.484.436-2.741 1.225-3.809 2.375.696.346 1.388.61 2.115.796.402-1.158.884-2.25 1.694-3.171m6.66 3.172a10.482 10.482 0 0 0 2.065-.789c-1.085-1.144-2.353-1.925-3.792-2.359.312.489.66.978.947 1.502.289.525.517 1.083.78 1.646M34.033 25.241c1.113 1.174 2.381 1.958 3.907 2.417-.824-.963-1.374-2.022-1.78-3.224l-2.127.807m6.886 4.613c-2.538 0-4.867-.884-6.709-2.352l-7.515 5.896a3.696 3.696 0 0 1-4.586 0L6.524 21.148a2.88 2.88 0 0 0-.244 1.146v15.663c0 1.6 1.286 2.886 2.886 2.886h30.502a2.878 2.878 0 0 0 2.885-2.886v-8.241c-.535.082-1.077.138-1.634.138"/><path d="M25.666 32.109l7.322-5.754a10.724 10.724 0 0 1-2.829-6.946H9.166c-.582 0-1.119.17-1.571.464l15.546 12.236c.823.648 1.7.648 2.525 0"/></svg>