<svg xmlns="http://www.w3.org/2000/svg" width="55.18" height="51.66" viewBox="0 0 55.18 51.66"><path d="M26.892 30.678l5.65-4.397-1.742-8.302H10.237c-.588 0-1.129.169-1.586.463l15.691 12.236c.832.647 1.717.647 2.55 0"/><path d="M34.961 30.587a1.483 1.483 0 0 1-1.754-1.14l-.285-1.36-4.99 3.879a3.753 3.753 0 0 1-4.629 0L7.572 19.717a2.868 2.868 0 0 0-.246 1.146v15.663c0 1.6 1.299 2.887 2.911 2.887h30.786a2.894 2.894 0 0 0 2.913-2.887v-7.787l-8.975 1.848zm.417-6.13c-.488 0-.944.131-1.335.392L31.732 15.7c-.065-.261-.13-.554-.195-.813-.032-.163-.131-.229-.293-.293-1.042-.326-2.053-.651-3.094-.944-.357-.098-.65-.391-.553-.847.065-.325.325-.554.651-.554.064 0 .13 0 .194.032 1.238.358 2.475.717 3.81 1.141.293.098.488.293.554.65l2.572 10.385z"/><path d="M37.299 27.225c0 1.01-.847 1.823-1.855 1.823-1.042 0-1.823-.813-1.823-1.854 0-1.01.846-1.823 1.855-1.823.488 0 .977.195 1.302.554.326.356.521.811.521 1.3m9.67-1.204c-.586.163-1.66.456-2.279.586l-3.744.912c-.911.228-1.855.455-2.768.683.033-.13.065-.228.098-.357.033-.194.033-.358.033-.521 0-.293-.033-.618-.131-.911a2.238 2.238 0 0 0-.163-.424l8.434-2.084c.13-.032.228-.032.325-.032.554 0 1.009.392 1.074.944.065.552-.293 1.04-.879 1.204m-1.596-5.177c-.456-1.823-.944-3.842-1.596-6.381-.162-.619-.781-1.01-1.498-.847-.553.13-1.139.293-1.692.423l-.065.032c-.194.032-.39.098-.586.163.065.293.13.554.229.847l.194.781-.324.064c-.326.098-.619.163-.944.229l-.293.063-.163-.585c-.098-.326-.163-.652-.261-.945-.032-.097-.032-.097-.064-.097h-.065l-1.074.26c-.424.099-.815.196-1.237.325-.717.196-1.075.814-.879 1.531.423 1.692.845 3.353 1.236 5.047l.294 1.171c.162.652.586 1.01 1.204 1.01.13 0 .261-.033.391-.064.424-.099.814-.195 1.237-.293l.391-.099 4.558-1.139c.779-.162 1.17-.78 1.007-1.496"/></svg>