<svg xmlns="http://www.w3.org/2000/svg" width="55.18" height="51.66" viewBox="0 0 55.18 51.66"><path d="M43.222 9.968c.469-.526.442-1.314-.059-1.761-.5-.446-1.286-.382-1.755.146L11.959 41.389c-.469.525-.443 1.313.058 1.762.501.445 1.287.381 1.756-.146L43.222 9.968zm-12.015 2.229c-5.197-2.96-11.69-.393-12.959 5.534-.499 2.335-.028 4.512 1.313 6.488.648.956 1.508 1.168 2.537.643.751-.383 1.527-.559 2.359-.366.346.08.661.22.938.407l1.229-1.356a4.608 4.608 0 0 0-2.234-.919c-.803-.101-1.568.029-2.35.299-.116-.637-.036-1.235.117-1.82.447-1.713 1.482-2.945 3.086-3.699.083-.039.18-.062.247-.118.089-.073.154-.173.231-.262-.112-.057-.222-.158-.335-.163-2.228-.098-4.146 1.119-5.02 3.167l-.154.354c-.217-1.501.041-2.823.729-4.062 1.322-2.378 3.981-3.631 6.697-3.217 2.418.369 4.064 1.662 5.171 3.609l1.44-1.59c-.763-1.184-1.746-2.191-3.042-2.929"/><path d="M24.457 24.496c-.832-.192-1.608-.017-2.359.366-1.029.525-1.889.313-2.537-.643-1.341-1.976-1.812-4.153-1.313-6.488 1.269-5.927 7.762-8.494 12.959-5.534 1.296.738 2.278 1.745 3.043 2.93l2.444-2.699c-1.467-2.102-3.382-3.675-5.843-4.586-2.145-.794-4.356-.944-6.605-.621-2.688.385-5 1.521-6.763 3.611-2.503 2.97-3.373 6.415-2.686 10.22.439 2.441 1.473 4.631 3.253 6.401.937.931 1.979 1.648 3.146 2.084l4.196-4.634a2.756 2.756 0 0 0-.935-.407"/><path d="M27.673 12.263c-2.715-.414-6.118 1.339-7.439 3.718-.688 1.238-1.174 4.361-.368 4.911.094.644.463-.769.502-.86.871-2.048 2.792-3.264 5.021-3.167.113.005.223.106.335.163-.076.089-.145.189-.232.262-.066.057-.164.079-.247.119-1.603.753-2.997 1.115-3.678 2.749-.203.485-.713 3.24-.597 3.877.78-.271 2.409-.857 3.213-.756.837.106 1.366.271 1.999.756l6.952-7.673c-.647-2.217-3.042-3.73-5.461-4.099m8.443 15.652c-.678 2.448-1.896 4.588-3.78 6.319a2.629 2.629 0 0 1-.564.385c-.094.048-.288.057-.342-.002a.44.44 0 0 1-.063-.369c.063-.191.188-.361.293-.539.518-.902 1.445-1.663 1.884-2.604 1.057-2.271 1.873-5.056 2.11-7.527.119-1.231-.247-2.416-.396-3.322l-6.416 7.082c.01.137.016.271.014.41-.028 2.363-1.854 4.344-4.188 4.549-.113.01-.227.018-.339.026l-5.85 6.456c.404 2.979 2.664 5.717 5.699 5.775 2.281.338 5.1-1.308 7.713-3.756 3.438-3.217 6.523-7.822 7.575-11.135.863-2.721.97-5.517.643-8.34-.205-1.758-.591-3.456-1.224-5.071l-2.649 2.924c.824 2.886.691 5.807-.12 8.739"/></svg>