<svg xmlns="http://www.w3.org/2000/svg" width="55.18" height="51.66" viewBox="0 0 55.18 51.66"><path d="M24.9 30.727l4.26-3.348v-9.354H8.4a2.86 2.86 0 0 0-1.57.465l15.547 12.236c.822.647 1.699.647 2.523.001"/><path d="M30.629 29.063c-.255 0-.492-.069-.701-.186l-3.996 3.137a3.693 3.693 0 0 1-4.586 0L5.76 19.764a2.889 2.889 0 0 0-.244 1.147v15.662A2.878 2.878 0 0 0 8.4 39.459h30.502c1.6 0 2.886-1.287 2.886-2.886v-7.511H30.629z"/><path d="M37.078 12.246l-4.28 4.182v-1.536a.372.372 0 0 0-.388-.371l-.993.042a.373.373 0 0 0-.357.371v3.191l-1.102 1.076c-.168.171-.137.317.021.466l.588.493c.117.09.282.078.386-.025l.397-.399v7.34c0 .279.228.507.507.507h3.616a.508.508 0 0 0 .508-.507v-3.055c0-.279.228-.507.506-.507H37.5a.509.509 0 0 0 .508-.508V12.76l-.784-.552a.137.137 0 0 0-.146.038m1.833 3.421h3.896a.32.32 0 0 0 .208-.076l1.375-1.149a.325.325 0 0 0 .022-.479l-1.392-1.396a.326.326 0 0 0-.229-.096H38.91a.325.325 0 0 0-.326.326v2.546a.327.327 0 0 0 .327.324m.055 3.777h5.269c.091 0 .177-.03.244-.089l1.313-1.098a.38.38 0 0 0 .024-.561l-1.332-1.338a.382.382 0 0 0-.269-.11h-5.25a.38.38 0 0 0-.381.38v2.436c.001.21.172.38.382.38m0 4.07h7.006a.384.384 0 0 0 .244-.089l1.312-1.098a.381.381 0 0 0 .026-.562l-1.332-1.337a.38.38 0 0 0-.27-.112h-6.986a.38.38 0 0 0-.381.381v2.435c0 .211.171.382.381.382m10.57 2.278l-1.272-1.278a.438.438 0 0 0-.31-.129H39.02a.437.437 0 0 0-.436.438v2.324c0 .24.194.437.436.437h8.956a.426.426 0 0 0 .28-.103l1.251-1.047a.434.434 0 0 0 .029-.642"/></svg>