<svg xmlns="http://www.w3.org/2000/svg" width="55.18" height="51.66" viewBox="0 0 55.18 51.66"><path d="M49.189 26.945c-.003-.956-.484-1.827-1.388-2-.897-.173-.915-.691-1.003-1.361-.653-4.963-2.99-8.996-7.132-11.863-6.046-4.183-12.673-4.998-19.643-2.754-4.662 1.501-8.16 4.469-10.387 8.829-1.074 2.102-1.675 4.347-1.959 6.678-.028.232-.105.354-.334.452-.892.389-1.357 1.075-1.356 2.055.002 1.721-.003 3.441.002 5.162.004 1.213.932 2.159 2.16 2.188.817.018 1.636.006 2.451.004.087 0 .174-.021.267-.034v-9.564H9.403c.163-.838.278-1.621.471-2.385 1.253-4.999 4.164-8.711 8.88-10.946 4.275-2.027 8.775-2.374 13.343-1.306 6.547 1.532 10.8 5.531 12.601 11.984.235.844.336 1.726.505 2.625l-.864.049v9.595h.878c-.463 3.006-3.538 5.734-6.821 6.381-.036-.097-.062-.168-.092-.24-.362-.881-.786-1.167-1.737-1.167-1.448 0-2.898.013-4.349-.005-.563-.008-.956.229-1.257.666-.619.895-.627 2.326-.02 3.225.307.451.709.7 1.286.693 1.449-.02 2.9-.039 4.35.007.856.028 1.352-.361 1.693-1.077.064-.134.236-.252.384-.304.634-.22 1.297-.361 1.91-.62 3.307-1.395 5.611-3.676 6.441-7.23.056-.234.124-.334.379-.385 1.126-.225 1.803-1.057 1.807-2.188.004-1.723.005-3.442-.002-5.164"/><path d="M36.432 18.497l-3.341 1.323c.476 1.684.662 3.45.715 5.231h5.01c.197-1.672-1.224-5.518-2.384-6.554m-16.067 7.689h-5.011c-.205 1.616 1.112 5.251 2.345 6.555l3.35-1.326c-.444-1.685-.632-3.442-.684-5.229m12.726 5.273l3.354 1.324c1.279-1.454 2.461-4.703 2.353-6.566h-4.994c-.05 1.799-.277 3.563-.713 5.242M21.045 19.776l-3.365-1.328c-1.43 1.906-2.243 4.094-2.39 6.545h5.054c.057-1.79.285-3.543.701-5.217M22.14 31.18l4.367-.498v-4.49h-5.045c.04 1.72.24 3.393.678 4.988m-.675-6.151h5.047v-4.488l-4.372-.497c-.406 1.612-.611 3.284-.675 4.985m10.562-4.971l-4.354.495v4.503h5.036c-.074-1.727-.271-3.406-.682-4.998M27.67 30.695c1.462.168 2.896.332 4.359.498.403-1.604.612-3.281.676-4.993H27.67v4.495zm-3.27 5.264c.355.398.788.738 1.224 1.055.248.182.568.266.878.401v-5.534a21.97 21.97 0 0 0-4.044.467c.498 1.308 1.021 2.573 1.942 3.611m-.012-20.663c-.84.997-1.378 2.16-1.812 3.377-.023.064-.035.135-.058.222 1.338.278 2.666.434 4.027.454v-5.494c-.135.04-.241.066-.343.102-.74.259-1.315.748-1.814 1.339m5.426.071c-.38-.437-.856-.794-1.323-1.145-.225-.168-.523-.236-.822-.363v5.58l4.035-.456c-.455-1.366-.999-2.59-1.89-3.616m1.866 16.958a21.378 21.378 0 0 0-4.04-.46v5.486c.086-.02.139-.028.192-.045.764-.232 1.358-.713 1.864-1.309.824-.971 1.399-2.086 1.853-3.268.049-.124.083-.254.131-.404m-1.224 4.616c2.046-.586 3.768-1.683 5.301-3.27l-2.955-1.136c-.572 1.633-1.228 3.141-2.346 4.406m-6.742-22.646c-2.035.597-3.759 1.679-5.221 3.255.952.475 1.9.838 2.898 1.091.55-1.587 1.213-3.084 2.323-4.346m9.13 4.349a14.448 14.448 0 0 0 2.832-1.083c-1.489-1.567-3.227-2.638-5.2-3.233.426.668.904 1.34 1.299 2.058.395.72.708 1.486 1.069 2.258M18.452 33.629c1.526 1.609 3.266 2.684 5.358 3.313-1.132-1.32-1.883-2.771-2.441-4.418l-2.917 1.105"/></svg>