<svg xmlns="http://www.w3.org/2000/svg" width="55.18" height="51.66" viewBox="0 0 55.18 51.66"><path d="M46.642 15.907c.011-.248-.422.056-.554-.19-.438-.824-2.37-.251-2.418-1.298-.059-1.314-.934.101-.988-.103a2.179 2.179 0 0 0-.202-.48c-.271-.625-1.078-.841-1.078-.841.053-.804-.692-.25-.863-.997-.098-.433-1.125-.049-1.399.27-.261.302-.32.881.126.929 0 0-.145.586-.488.712-2.211.813-1.79 1.349-1.793 1.351-2.306.601-1.428-1.138-2.829-.89 0 0 .671 2.703.411 2.392-.3-.359-1.53.12-1.705.114-.147-.005-.549-1.555-1.13-.777-.318.429-.669.043-1.282.197-1.159.289.438 1.043-.123 1.141-.925.162.299.706.299.706 1.132.135 2.181.838 2.188.849.099.13.614.9.649.922.022.013-.044 1.532 1.062 1.844.291.082-.385 5.96-1.23 6.08-.574.081.467.398.351.598-.229.389.176.168.437.373.602.473 1.229.431 1.332.541.751.824 2.433-.481 2.584.685.062.468.667.046.792.11.126.064 1.663.685 2.077.178.021-.026-.995-2.784 2.111-2.158.591.12 3.061 1.43 3.294.475.02-.076 2.096-1.998 1.438-2.115-2.071-.37-.176-1.363-1.158-1.456-1.23-.117.429-1.014.435-1.024.202-.302-.516-.551-.542-.808-.015-.151.528-.519-.064-1.336-.231-.321-1.152-.167-1.152-.167s1.491-2.106 1.504-2.104c1.146.262.515-2.101 1.196-2.656 1.364-1.116-1.292-.989-1.288-1.067"/><path d="M26.25 31.123l6.134-4.82c.474-2.249.712-3.848.482-3.913-1.422-.401-1.315-1.998-1.358-2.666-.001-.019-1.226-.928-2.224-1.301H9.75a2.86 2.86 0 0 0-1.57.463l15.547 12.237c.822.647 1.698.647 2.523 0"/><path d="M42.02 32.102c-.532.652-3.508-.144-3.669-.227-.162-.084-.939.459-1.019-.143-.194-1.498-2.356.18-3.321-.879-.132-.145-.939-.088-1.714-.697-.334-.262-.853.02-.56-.479.073-.123-.205-.285-.428-.429l-4.03 3.162a3.693 3.693 0 0 1-4.586 0L7.11 20.162a2.876 2.876 0 0 0-.244 1.146v15.663a2.878 2.878 0 0 0 2.884 2.885h30.5a2.88 2.88 0 0 0 2.887-2.885v-4.729c-.504-.155-1.092-.172-1.117-.14"/></svg>