<svg xmlns="http://www.w3.org/2000/svg" width="55.18" height="51.66" viewBox="0 0 55.18 51.66"><path d="M11.634 38.129c.491 1.367 1.361 3.338 3.231 4.667.178.126.351.212.505.288.052.025.103.052.154.079l.053.028.056.021a8.294 8.294 0 0 0 3.255.555 10.27 10.27 0 0 0 2.038-.27c3.875-.889 7.583-2.719 11.336-5.593a39.667 39.667 0 0 0 9.291-10.132c1.473-2.301 2.606-4.677 3.371-7.063.593-1.851 1.153-3.84.929-6.015-.135-1.301-.514-3.172-2.24-4.392-.964-.682-2.109-1.441-3.492-1.823a3.641 3.641 0 0 0-1.068-.141c-.658.019-1.596.266-2.32 1.34a346.707 346.707 0 0 0-2.738 4.141l-.643.981c-.311.474-.632.963-.918 1.482-.567 1.031-.491 2.178.211 3.146.389.535.749.93 1.135 1.24.81.652 1.582 1.233 2.351 1.77l-.218.32c-.409.603-.796 1.17-1.223 1.711-2.811 3.563-5.71 6.482-8.86 8.93-.119.093-.253.194-.395.297-.69-.85-1.4-1.693-2.114-2.516-.261-.302-.563-.512-.829-.699l-.095-.064c-.592-.417-1.217-.619-1.858-.602-.592.017-1.163.22-1.702.604a587.579 587.579 0 0 0-6.114 4.447c-1.121.823-1.528 2.043-1.089 3.263"/><path d="M23.382 7.889c-3.745.048-6.491.014-10.243.014-.863 0-1.671.287-2.314.773a3.719 3.719 0 0 0-1.485 2.869c-.048 1.396-.101 4.423-.025 5.798-.038 1.063-.038 2.313.613 3.25.882 1.115 1.812 1.438 2.619 1.438 1.086-.016 4.138.086 5.762.086 1.664 0 3.333.007 4.998.007a.61.61 0 0 1 .37.151l.082.082c.801.794 2.246 2.238 2.985 2.964.164.172.451.049.451-.185V11.634c-.012-2.293-1.917-3.773-3.813-3.745m-2.927 9.754c-.176.33-.397.624-.692.858l-.08.061c.043-.122.095-.244.126-.372.063-.259.031-.518-.036-.771a2.658 2.658 0 0 0-.383-.857c-.03-.041-.065-.076-.099-.114l-.021.013c.01.034.021.068.028.103.02.1.053.199.053.3.004.233-.191.381-.42.33-.255-.057-.382-.289-.309-.57.061-.229.141-.457.185-.69.148-.797.044-1.558-.367-2.266a.34.34 0 0 0-.081-.099c.012.062.024.124.033.186.065.446-.033.866-.234 1.257-.172.331-.366.649-.563.965-.221.355-.442.709-.569 1.111-.098.309-.152.623-.094.946.085.463.358.777.784.967.04.018.082.033.119.065-.107-.024-.215-.044-.32-.074-.52-.153-.917-.478-1.234-.907-.419-.57-.56-1.211-.479-1.907.077-.665.313-1.278.632-1.858.217-.398.46-.782.707-1.164.237-.368.458-.742.565-1.17.161-.64.068-1.225-.38-1.73-.043-.048-.092-.092-.145-.147.325.099.629.218.921.367 1.585.815 2.535 2.109 2.87 3.852.221 1.159.036 2.268-.517 3.315"/></svg>