<svg xmlns="http://www.w3.org/2000/svg" width="55.18" height="51.66" viewBox="0 0 55.18 51.66"><path d="M44.526 11.233h-33.87a2.952 2.952 0 0 0-2.949 2.948v23.297a2.952 2.952 0 0 0 2.949 2.948h33.87a2.95 2.95 0 0 0 2.947-2.948V14.182a2.951 2.951 0 0 0-2.947-2.949m1.947 26.246a1.95 1.95 0 0 1-1.947 1.948h-33.87a1.95 1.95 0 0 1-1.949-1.948V14.182a1.95 1.95 0 0 1 1.949-1.948h33.87a1.95 1.95 0 0 1 1.947 1.948v23.297z"/><path d="M42.436 13.393H12.745a.5.5 0 0 0-.5.5v23.876a.5.5 0 0 0 .5.5h29.691a.5.5 0 0 0 .5-.5V13.893a.5.5 0 0 0-.5-.5m-.5 23.876H13.245V14.393h28.691v22.876zm3.508-12.713h-1.551a.5.5 0 0 0-.5.5v1.549a.5.5 0 0 0 .5.5h1.551a.5.5 0 0 0 .5-.5v-1.549c0-.278-.224-.5-.5-.5m-.5 1.549h-.551v-.551h.551v.551zm-34.351-1.112a.834.834 0 1 0 0 1.668.834.834 0 0 0 0-1.668"/><path d="M15.442 24.433a.498.498 0 0 0 .702.085l9.618-7.545a.5.5 0 0 0-.617-.787l-9.618 7.545a.5.5 0 0 0-.085.702m-.1-3.685a.503.503 0 0 0 .309-.106l4.933-3.876a.501.501 0 0 0-.617-.788l-4.934 3.877a.503.503 0 0 0-.085.703c.099.125.247.19.394.19"/></svg>