<svg xmlns="http://www.w3.org/2000/svg" width="55.18" height="51.66" viewBox="0 0 55.18 51.66"><path d="M38.074 14.395c-.804-2.566-2.438-4.754-4.479-6.001-1.384-.845-3.273-1.42-5.185-1.576-2.718-.224-5.429.517-7.512 2.042-1.77 1.294-3.183 3.422-3.875 5.838-.555 1.931-.896 4.914.622 8.157.405.867.945 1.684 1.471 2.474.845 1.276 1.72 2.598 2.038 4.162.112.547.121 1.017.13 1.432.009.459.015.854.152 1.231.347.939 1.427 1.943 2.517 2.332.747.268 1.741.289 2.696.289l.027.002c-.033-.211-1.147-6.979-1.637-9.286a.331.331 0 0 1 .188-.373.329.329 0 0 1 .403.105l1.781 2.417 1.792-2.38a.328.328 0 0 1 .397-.104c.143.06.224.21.195.362-.011.07-1.213 7.113-1.176 9.202a.335.335 0 0 1-.007.071l.52.003c.638 0 1.368-.024 1.956-.215 1.232-.397 2.265-1.495 2.611-2.326.175-.423.213-.989.253-1.589.025-.4.053-.814.125-1.176.336-1.719 1.149-2.922 2.011-4.194.564-.834 1.149-1.696 1.591-2.718 1.109-2.553 1.246-5.458.395-8.181M26.743 22.07l-2.436-1.525c.243.705.847 1.189 1.574 1.594-1.736.296-3.075-1.322-2.993-3.557 2.017-.499 3.921 1.085 3.855 3.488m.991.984c.452-1.759 1.356-3.152 2.721-4.266-1.538.475-2.513 1.559-3.204 3.01-.356-3.059 2.198-5.456 6.13-5.246.451 3.323-1.633 6.701-5.647 6.502"/><path d="M27.963 34.786a.495.495 0 0 1-.006-.054c-.028-1.598.611-5.807.965-7.986l-1.244 1.652a.335.335 0 0 1-.267.133h-.003a.337.337 0 0 1-.267-.137l-1.164-1.58c.551 2.955 1.349 7.8 1.358 7.858a.326.326 0 0 1-.001.108c.196.003.415.005.629.006m3.375 4.419l-7.275-1.094a.52.52 0 0 0-.59.435l-.078.521a.52.52 0 0 0 .437.59l7.274 1.095a.52.52 0 0 0 .589-.437l.079-.52a.522.522 0 0 0-.436-.59m0-1.945l-7.275-1.095a.52.52 0 0 0-.59.435l-.078.521a.52.52 0 0 0 .437.589l7.274 1.095a.518.518 0 0 0 .589-.436l.079-.52a.519.519 0 0 0-.436-.589m-.259 3.851l-.88-.133-5.133-.771-.743-.112a.786.786 0 0 0-.891.656.784.784 0 0 0 .657.888l.416.063.124.019a2.934 2.934 0 0 0 5.786.871l.43.065a.784.784 0 0 0 .889-.655.784.784 0 0 0-.655-.891"/></svg>