<svg xmlns="http://www.w3.org/2000/svg" width="55.18" height="51.66" viewBox="0 0 55.18 51.66"><path d="M29.84 24.063L14.19 39.711l-1.109 1.837.522.522 1.838-1.107L31.09 25.314zM45.023 10.13c-1.188-1.189-3.053-1.262-4.242-.073l-9.148 9.149a.273.273 0 0 0 0 .382.797.797 0 0 1-1.125 1.125.269.269 0 0 0-.381-.001l-1.055 1.054a.266.266 0 0 0-.038.323l4.029 4.031a.266.266 0 0 0 .323-.039l1.054-1.054a.273.273 0 0 0 0-.382.791.791 0 0 1 0-1.125.796.796 0 0 1 1.124 0 .27.27 0 0 0 .382 0l9.147-9.148c1.193-1.19 1.119-3.053-.07-4.242"/><path d="M41.662 37.477l-10.724-9.959-.013.015-9.105-8.459c-1.045-1.135-1.318-1.589-1.045-2.908.318-1.455.064-4.124-2.408-5.547-2.845-1.635-5.729-.136-5.729-.136l-.227.364s2.546 1.682 2.863 1.864c.362.228 1.453 1.454.137 3.409-1.274 1.955-2.684 1.318-3.092 1-.315-.183-2.861-1.82-2.861-1.82l-.228.364s-.182 3.409 2.637 5.229c1.315.862 2.729.862 3.729.499 1-.318 1.726.047 2.954 1.228l8.641 8.649 10.291 10.299c1.138 1.182 2.954 1.182 4.137.047 1.134-1.183 1.179-3.001.043-4.138m-1.046 3.134c-.591.639-1.546.548-2.184-.045-.545-.545-.545-1.543 0-2.135.638-.592 1.593-.592 2.184 0s.591 1.637 0 2.18"/></svg>