<svg xmlns="http://www.w3.org/2000/svg" width="55.18" height="51.66" viewBox="0 0 55.18 51.66"><path d="M32.16 19.406c-.002-1.662-.962-2.926-2.495-3.281a4.118 4.118 0 0 0-.907-.091l-2.685-.001v.029c-6.639.001-13.279 0-19.92.004-.303 0-.612.022-.906.091-1.533.355-2.493 1.619-2.494 3.281-.004 4.283-.003 8.566.001 12.849 0 .24.009.486.056.723.319 1.564 1.603 2.609 3.224 2.611 4.083.006 8.166.004 12.249-.002.217 0 .37.061.524.211 1.967 1.918 3.939 3.83 5.911 5.742.08.076.163.148.296.27v-6.219h3.457c.177 0 .351-.012.519-.035 1.568-.049 2.802-1.082 3.111-2.611a3.54 3.54 0 0 0 .058-.721c.003-4.283.005-8.567.001-12.85m.629 3.285c0 .16.007.325.038.481.207 1.021 1.031 1.711 2.078 1.744.113.016.229.023.347.023h2.308v4.152c.088-.08.145-.129.198-.18 1.315-1.277 2.634-2.553 3.947-3.833a.455.455 0 0 1 .351-.142c2.727.004 5.453.005 8.18.002 1.082-.001 1.94-.699 2.152-1.745.032-.156.038-.32.038-.481.002-2.86.004-5.721.001-8.581-.001-1.11-.643-1.954-1.666-2.191a2.736 2.736 0 0 0-.605-.06c-4.435-.002-8.869-.002-13.303-.002v-.021l-1.793.001c-.201 0-.41.015-.605.061-1.023.236-1.664 1.081-1.665 2.19-.004 2.861-.003 5.722-.001 8.582"/></svg>