<svg xmlns="http://www.w3.org/2000/svg" viewBox="0 0 100 100"><path class="st0" d="M94.7 86.8c-.1-.4-.2-.8-.3-1.1-1-3.6-3.2-10.1-4.3-13.1-.1-.5-.3-1-.5-1.5-.6-1.3-1.6-2.3-2.9-3-.1 0-.2-.1-.4-.2-.1 0-.2-.1-.3-.1-2.5-1.1-10.1-4-10.1-4-2.7-1.1-5.4-2.1-8.2-3-.6-.2-1.3-.5-2-.7-.5-.2-1.1-.4-1.6-.6 0 0 0 .1-.1.1-3.9-1-9-1.6-14.4-1.6-5.3 0-10.1.6-14 1.5h-.1c-2.2.5-4.1 1.2-5.6 1.9-2.1.7-4.1 1.5-6.1 2.3 0 0-7.6 2.9-10.1 4-.1 0-.2.1-.3.1l-.4.2c-1.3.7-2.3 1.8-2.9 3.1-.2.5-.4 1-.5 1.5-1 2.9-3.3 9.5-4.3 13.1-.1.4-.2.8-.3 1.1-.1.3-.1.7-.1 1.1 0 3.8 3.3 7 7.3 7h75c4 0 7.3-3.1 7.3-7 .3-.4.3-.8.2-1.1zM33 38.9h.8c0 2.2-.1 5.1 2.7 8.8 3.3 4.3 4.6 5.8 7.1 6.9 1.6.7 3.7.8 5.4.8h2.2c1.7 0 3.9-.1 5.4-.8 2.6-1.1 3.8-2.6 7.1-6.9 2.8-3.7 2.8-6.7 2.7-8.8h.8c1.2 0 2.2-1 3-3.1 1.2-3.2 1.7-9.1-.1-10.4-.6-.4-1.3-.6-2-.4-.7.2-.8.2-.8-4.2 0-9.3-7.8-15.6-17.5-15.6s-17.5 6.3-17.5 15.6c0 4.4.3 4.4-.4 4.2-.7-.2-1.4 0-1.9.4-1.7 1.3-1.3 7.2-.1 10.4.9 2 1.9 3.1 3.1 3.1z"/></svg>