<svg xmlns="http://www.w3.org/2000/svg" width="55.18" height="51.66" viewBox="0 0 55.18 51.66"><path d="M45.206 21.438l-10.501 7.021-6.843-15.84a.5.5 0 0 0-.918 0l-6.76 15.646-10.211-6.827a.501.501 0 0 0-.758.556l5.422 18.474a.492.492 0 0 0 .24.291.506.506 0 0 0 .252.068h24.934a.5.5 0 0 0 .48-.359l5.42-18.474a.501.501 0 0 0-.757-.556m-5.518 18.389H15.49l-4.928-16.792 9.564 6.395a.499.499 0 0 0 .737-.218l6.539-15.134 6.622 15.328a.499.499 0 0 0 .737.217l9.854-6.588-4.927 16.792zm.375 2.672H15.128a.5.5 0 0 0 0 1h24.934a.5.5 0 0 0 .001-1m7.162-24.77c-.912 0-1.654.742-1.654 1.653 0 .912.742 1.654 1.654 1.654s1.653-.742 1.653-1.654c0-.911-.741-1.653-1.653-1.653m0 2.307a.655.655 0 1 1 .653-.654.654.654 0 0 1-.653.654m-19.636-8.567c.912 0 1.654-.741 1.654-1.653s-.742-1.654-1.654-1.654-1.653.742-1.653 1.654.741 1.653 1.653 1.653m0-2.308a.655.655 0 1 1-.653.654c0-.361.293-.654.653-.654M7.955 17.729c-.912 0-1.653.742-1.653 1.653 0 .912.741 1.654 1.653 1.654s1.653-.742 1.653-1.654c0-.911-.741-1.653-1.653-1.653m0 2.307a.654.654 0 1 1 .002-1.308.654.654 0 0 1-.002 1.308"/></svg>