<svg xmlns="http://www.w3.org/2000/svg" width="55.18" height="51.66" viewBox="0 0 55.18 51.66"><path d="M28.622 14.212c-.805-2.566-2.437-4.754-4.48-6.001-1.384-.846-3.273-1.42-5.185-1.577-2.717-.223-5.429.518-7.512 2.042-1.769 1.294-3.182 3.422-3.874 5.838-.555 1.931-.896 4.915.622 8.158.405.866.946 1.683 1.47 2.473.846 1.277 1.72 2.598 2.039 4.162.111.547.121 1.019.129 1.434.009.458.016.854.153 1.229.346.941 1.428 1.944 2.517 2.335.747.266 1.741.288 2.695.288h.029c-.035-.21-1.148-6.978-1.638-9.285a.333.333 0 0 1 .593-.269l1.781 2.417 1.792-2.379a.332.332 0 1 1 .593.257c-.012.071-1.214 7.113-1.177 9.202a.329.329 0 0 1-.007.071l.52.004c.639 0 1.368-.026 1.957-.217 1.232-.396 2.264-1.494 2.61-2.324.176-.424.214-.989.253-1.59.025-.399.053-.813.125-1.176.337-1.72 1.149-2.922 2.011-4.195.565-.834 1.149-1.696 1.59-2.718 1.107-2.551 1.245-5.456.394-8.179m-11.331 7.674l-2.437-1.524c.244.705.848 1.188 1.576 1.593-1.738.296-3.076-1.322-2.994-3.557 2.016-.498 3.92 1.084 3.855 3.488m.99.985c.452-1.759 1.358-3.153 2.721-4.267-1.538.476-2.513 1.559-3.203 3.01-.358-3.059 2.197-5.456 6.13-5.246.451 3.323-1.633 6.701-5.648 6.503"/><path d="M18.511 34.604a.353.353 0 0 1-.005-.056c-.028-1.597.612-5.806.965-7.985l-1.245 1.651a.333.333 0 0 1-.267.134h-.001a.334.334 0 0 1-.267-.137l-1.165-1.58c.552 2.955 1.349 7.801 1.358 7.858a.326.326 0 0 1 0 .108l.627.007m3.375 4.417l-7.275-1.096a.52.52 0 0 0-.589.436l-.078.521a.518.518 0 0 0 .435.589l7.276 1.096a.52.52 0 0 0 .589-.437l.078-.521a.521.521 0 0 0-.436-.588m0-1.945l-7.275-1.096a.52.52 0 0 0-.589.437l-.078.521a.517.517 0 0 0 .435.588l7.276 1.096a.52.52 0 0 0 .589-.436l.078-.521a.52.52 0 0 0-.436-.589m-.26 3.852l-.879-.133-5.132-.771-.745-.112a.785.785 0 0 0-.889.657.783.783 0 0 0 .657.887l.416.063.124.02a2.935 2.935 0 0 0 2.924 3.162c1.398 0 2.567-.98 2.861-2.29l.431.064a.783.783 0 0 0 .232-1.547m10.793-31.99c1.312.397 2.543.876 3.719 1.48 6.389 3.29 10.22 8.506 11.569 15.532.898 4.692.15 9.164-2.085 13.384-.704 1.333-1.603 2.518-2.791 3.463-.113.09-.23.176-.32.244.17-.494.385-.986.51-1.502.253-1.044.121-2.087-.144-3.111-.319-1.238-.819-2.4-1.55-3.458-.116-.165-.265-.305-.397-.458l-.083.049c.038.14.083.274.11.416.081.4.214.804.218 1.207.015.94-.778 1.536-1.697 1.332-1.026-.229-1.539-1.166-1.244-2.298.245-.93.567-1.844.742-2.786.599-3.215.178-6.28-1.477-9.138a1.394 1.394 0 0 0-.326-.398c.044.251.095.5.132.751.263 1.797-.132 3.49-.948 5.067-.688 1.333-1.476 2.618-2.27 3.892-.894 1.431-1.779 2.857-2.294 4.479-.396 1.245-.618 2.514-.381 3.816.342 1.867 1.444 3.136 3.161 3.896.161.073.33.137.48.266-.43-.099-.866-.177-1.289-.301-2.098-.615-3.699-1.926-4.975-3.658-1.691-2.297-2.262-4.879-1.934-7.688.313-2.683 1.265-5.155 2.547-7.497.879-1.604 1.859-3.153 2.852-4.69.958-1.484 1.845-2.992 2.282-4.721.647-2.576.277-4.938-1.534-6.974-.172-.195-.364-.371-.583-.596"/></svg>