<svg xmlns="http://www.w3.org/2000/svg" width="55.18" height="51.66" viewBox="0 0 55.18 51.66"><path d="M39.428 33.705l-5.993-12.783a.501.501 0 0 0-.453-.288h-4.921c.003-.021.013-.041.013-.063V4.593a.5.5 0 0 0-1 0v15.979c0 .021.01.042.013.063h-4.89a.502.502 0 0 0-.453.288l-5.991 12.783a.498.498 0 0 0 .453.711h4.519c.258 3.566 3.235 6.392 6.866 6.392 3.63 0 6.608-2.825 6.866-6.392h4.517a.503.503 0 0 0 .454-.712m-11.837 6.104c-3.079 0-5.611-2.376-5.866-5.392h11.732c-.255 3.016-2.786 5.392-5.866 5.392m-10.599-6.392l5.522-11.783h10.151l5.523 11.783H16.992zm10.582 9.118a.5.5 0 0 0-.5.5v4.032a.5.5 0 1 0 1 0v-4.032a.5.5 0 0 0-.5-.5m-6.817-2.42l-2.852 2.853a.5.5 0 0 0 .707.707l2.852-2.852a.5.5 0 0 0-.707-.708m13.301 0a.5.5 0 0 0-.707.707l2.852 2.852a.498.498 0 0 0 .707 0 .5.5 0 0 0 0-.707l-2.852-2.852z"/></svg>