<svg xmlns="http://www.w3.org/2000/svg" width="56" height="58" viewBox="0 0 56 58"><defs><style>.cls-1{fill:none;stroke:#000;stroke-linecap:round;stroke-linejoin:round;stroke-width:.957px}</style></defs><title>Planche_PICTOS_20170728</title><g id="GABARIT_SVG" data-name="GABARIT SVG"><path d="M50.756 27.469a22.937 22.937 0 0 0-12.54-16.831 23.7 23.7 0 0 0-4.03-1.605.5.5 0 0 0-.5.829l.231.231c.134.132.256.252.37.381a7.145 7.145 0 0 1 1.513 6.948 16.8 16.8 0 0 1-2.356 4.86c-1.01 1.565-2.077 3.242-3.044 5.009a22.21 22.21 0 0 0-2.763 8.137 11.64 11.64 0 0 0 2.146 8.515 10.428 10.428 0 0 0 5.541 4.065c.323.095.653.166.982.236l.415.091a.481.481 0 0 0 .111.013.5.5 0 0 0 .326-.879 2.353 2.353 0 0 0-.634-.36 4.881 4.881 0 0 1-3.064-3.769 7.771 7.771 0 0 1 .388-3.81 21 21 0 0 1 2.382-4.64c.82-1.315 1.684-2.721 2.43-4.164a9.743 9.743 0 0 0 1.141-4.1 13.491 13.491 0 0 1 .7 7.721 19.293 19.293 0 0 1-.485 1.883c-.1.346-.2.691-.294 1.04a2.613 2.613 0 0 0 .232 2.038 2.261 2.261 0 0 0 1.461 1.014 2.007 2.007 0 0 0 1.723-.371 1.888 1.888 0 0 0 .677-1.278 11.5 11.5 0 0 1 .833 2.256 6.176 6.176 0 0 1 .151 3.058 9.28 9.28 0 0 1-.348 1.054c-.062.165-.123.33-.181.494a.5.5 0 0 0 .776.562l.348-.265A11.828 11.828 0 0 0 48.495 42a21.641 21.641 0 0 0 2.261-14.531zm-3.145 14.064a11.7 11.7 0 0 1-1.8 2.571 7.244 7.244 0 0 0-.183-3.424 11.953 11.953 0 0 0-1.72-3.833 3.776 3.776 0 0 0-.33-.391l-.125-.138a.623.623 0 0 0-.71-.053.5.5 0 0 0-.235.568l.034.122c.027.094.055.187.074.283.026.129.057.257.087.386a3.692 3.692 0 0 1 .135.806.918.918 0 0 1-.319.746 1.02 1.02 0 0 1-.873.17 1.25 1.25 0 0 1-.826-.559 1.633 1.633 0 0 1-.119-1.264c.089-.339.188-.675.287-1.012a20.005 20.005 0 0 0 .508-1.981 14.268 14.268 0 0 0-1.631-10.03 1.942 1.942 0 0 0-.462-.56.5.5 0 0 0-.81.472l.057.31c.029.159.059.317.082.475a8.288 8.288 0 0 1-.956 5.076c-.729 1.41-1.58 2.8-2.389 4.094a21.7 21.7 0 0 0-2.487 4.86 8.729 8.729 0 0 0-.419 4.292 5.836 5.836 0 0 0 1.22 2.71 10.3 10.3 0 0 1-3.108-2.881 10.526 10.526 0 0 1-1.957-7.806 21.215 21.215 0 0 1 2.646-7.771c.951-1.738 2.007-3.4 3.007-4.947a17.631 17.631 0 0 0 2.486-5.158 8.254 8.254 0 0 0-1.119-7.077 21.1 21.1 0 0 1 2.1.938 21.98 21.98 0 0 1 12.018 16.13 20.667 20.667 0 0 1-2.163 13.876zM27.956 17.018a11.629 11.629 0 0 0-4.824-6.45 13.042 13.042 0 0 0-5.554-1.693 12.146 12.146 0 0 0-8.062 2.194 11.877 11.877 0 0 0-4.171 6.271 12.344 12.344 0 0 0 .667 8.74 20.935 20.935 0 0 0 1.547 2.608 12.011 12.011 0 0 1 2.024 4.1 7.166 7.166 0 0 1 .123 1.384 4.263 4.263 0 0 0 .194 1.433 5.078 5.078 0 0 0 2.89 2.7 9.172 9.172 0 0 0 2.941.327l.93.007c.666.006 1.467.013 1.63.013a7.305 7.305 0 0 0 2.166-.246 5.217 5.217 0 0 0 2.993-2.676 5.858 5.858 0 0 0 .3-1.793 9.786 9.786 0 0 1 .12-1.148 10.872 10.872 0 0 1 2-4.136 17.346 17.346 0 0 0 1.675-2.87 12.61 12.61 0 0 0 .411-8.765zm-1.339 8.366a16.623 16.623 0 0 1-1.591 2.716 11.605 11.605 0 0 0-2.145 4.5 10.192 10.192 0 0 0-.138 1.275 5.23 5.23 0 0 1-.223 1.475 4.257 4.257 0 0 1-2.376 2.108 6.473 6.473 0 0 1-1.859.2c-.162 0-.959-.007-1.621-.012l-.938-.008a8.433 8.433 0 0 1-2.605-.269 4.118 4.118 0 0 1-2.286-2.1 3.411 3.411 0 0 1-.128-1.1 8.214 8.214 0 0 0-.143-1.565 12.793 12.793 0 0 0-2.175-4.463 20.046 20.046 0 0 1-1.471-2.474 11.355 11.355 0 0 1-.612-8.041 10.876 10.876 0 0 1 3.8-5.74 11.046 11.046 0 0 1 6.464-2.052c.309 0 .617.012.926.037a12.029 12.029 0 0 1 5.114 1.551A10.61 10.61 0 0 1 27 17.317a11.6 11.6 0 0 1-.383 8.068z"/><path class="cls-1" d="M20.344 43.084l-6.849-1.126a.5.5 0 0 0-.555.448l-.074.535a.529.529 0 0 0 .41.606l6.849 1.126a.5.5 0 0 0 .555-.448l.074-.535a.529.529 0 0 0-.41-.606zm.176-1.631l-6.849-1.126a.5.5 0 0 0-.555.448l-.074.534a.53.53 0 0 0 .41.606l6.848 1.127a.5.5 0 0 0 .555-.448l.074-.534a.529.529 0 0 0-.409-.607z"/><path class="cls-1" d="M20.094 44.647l-.828-.136-4.831-.794-.7-.115a.75.75 0 0 0-.836.675.8.8 0 0 0 .618.914l.392.064.117.019a2.985 2.985 0 0 0-.009.233 2.9 2.9 0 0 0 2.762 3.018 2.83 2.83 0 0 0 2.694-2.355l.4.067a.75.75 0 0 0 .836-.675.8.8 0 0 0-.615-.915z"/><path d="M16.339 24.125a5.38 5.38 0 0 1 3.3-3.1 8.091 8.091 0 0 0-2.8 4.388c4.129.2 6.272-3.27 5.809-6.688-4.048-.212-6.676 2.253-6.309 5.4zm-1.404.351a3.2 3.2 0 0 1-1.621-1.639l2.5 1.568c.068-2.472-1.891-4.1-3.964-3.587-.08 2.297 1.297 3.962 3.085 3.658zm3.844 2.88a.378.378 0 0 0-.448.119l-1.817 2.412-1.806-2.451a.375.375 0 0 0-.669.3c.509 2.4 1.675 9.483 1.687 9.555a.376.376 0 0 0 .37.314.433.433 0 0 0 .061 0 .375.375 0 0 0 .31-.431c-.01-.06-.806-4.9-1.372-7.946l1.115 1.514a.378.378 0 0 0 .3.152.35.35 0 0 0 .3-.149l1.2-1.6a70.757 70.757 0 0 0-.972 8.093.375.375 0 0 0 .375.368h.007a.375.375 0 0 0 .368-.382A94.578 94.578 0 0 1 19 27.765a.375.375 0 0 0-.221-.409z"/></g></svg>