<svg xmlns="http://www.w3.org/2000/svg" width="55.18" height="51.66" viewBox="0 0 55.18 51.66"><path d="M41.653 4.438H13.527a2.535 2.535 0 0 0-2.532 2.533v19.346a2.535 2.535 0 0 0 2.532 2.532h9.763v4.291c-.576-.499-1.383-.833-2.366-.833a.5.5 0 0 0-.5.5v9.446c0 .034.004.066.01.098.118 2.694 2.382 4.872 5.085 4.872h5.619a5.1 5.1 0 0 0 5.094-5.093c0-.04-.002-.078-.005-.14a.594.594 0 0 0 .005-.072v-9.369c0-1.106-.9-2.006-2.007-2.006a2 2 0 0 0-1.174.381 2.007 2.007 0 0 0-2.993-.745 2.008 2.008 0 0 0-1.812-1.143c-.337 0-.659.086-.943.24v-.427h14.35a2.536 2.536 0 0 0 2.533-2.532V6.971a2.535 2.535 0 0 0-2.533-2.533M25.297 22.845a2.011 2.011 0 0 0-2.008 2.007v1.205h-7.527V7.23h23.654v18.826H27.303v-1.205a2.008 2.008 0 0 0-2.006-2.006m2.95 7.191c.555 0 1.007.452 1.007 1.007v3.991a.5.5 0 0 0 1 0V31.68c.059-.51.48-.89.99-.89.555 0 1.005.451 1.005 1.005v3.239a.5.5 0 0 0 1 0v-2.718a1.01 1.01 0 0 1 .976-.774c.555 0 1.007.453 1.007 1.006v9.265a.516.516 0 0 0-.011.124l.011.192a4.099 4.099 0 0 1-4.094 4.093h-5.619c-2.195 0-4.029-1.787-4.088-3.984a.505.505 0 0 0-.007-.068v-8.823c1.166.193 1.866 1.043 1.866 1.839v3.13a.5.5 0 0 0 1 0V24.852a1.008 1.008 0 0 1 2.014 0v10.182a.5.5 0 0 0 1 0v-4.307c.136-.408.515-.691.943-.691m14.939-3.72c0 .845-.688 1.532-1.533 1.532h-14.35v-.792h12.613c.277 0 .5-.223.5-.5V6.73c0-.277-.223-.5-.5-.5H15.262a.5.5 0 0 0-.5.5v19.826a.5.5 0 0 0 .5.5h8.027v.792h-9.763a1.533 1.533 0 0 1-1.532-1.532V6.971c0-.845.688-1.533 1.532-1.533h28.126c.846 0 1.533.688 1.533 1.533v19.345z"/><path d="M41.128 15.499a.5.5 0 0 0-.5.5v1.288a.5.5 0 0 0 .5.5h1.287a.5.5 0 0 0 .5-.5v-1.288a.5.5 0 0 0-.5-.5h-1.287zm.788 1.288h-.287v-.288h.287v.288zm-28.44-.839a.693.693 0 1 0 0 1.385.693.693 0 0 0 0-1.385m12.031-7.38l-7.987 6.265a.5.5 0 0 0 .618.787l7.987-6.265a.5.5 0 0 0-.618-.787m-7.78 3.833l4.098-3.219a.5.5 0 1 0-.617-.786l-4.098 3.219a.5.5 0 1 0 .617.786"/></svg>