<svg xmlns="http://www.w3.org/2000/svg" width="55.18" height="51.66" viewBox="0 0 55.18 51.66"><path d="M17.599 39.045h19.982c.49 0 .891.398.891.891V42.7a.891.891 0 0 1-.891.891H17.599a.89.89 0 0 1-.891-.891v-2.765c0-.49.399-.89.891-.89m19.167-14.899c-3.481-4.409-5.136-11.27-5.807-14.616a1.82 1.82 0 0 0-1.791-1.461h-1.09v18.216a2.763 2.763 0 0 1 1.98 2.645 2.774 2.774 0 0 1-5.547 0 2.77 2.77 0 0 1 2.088-2.679V8.069h-.967c-.844 0-1.577.572-1.774 1.392-.813 3.361-3.094 9.962-6.096 14.199-.379.536-.464 1.233-.172 1.822 1.642 3.313 2.396 7.361 2.705 9.542.128.902.896 1.57 1.81 1.57h9.778c.89 0 1.661-.637 1.807-1.515.335-2.019.939-5.177 3.209-8.896a1.787 1.787 0 0 0-.133-2.037"/></svg>