<svg xmlns="http://www.w3.org/2000/svg" width="55.18" height="51.66" viewBox="0 0 55.18 51.66"><path d="M27.591 11.913c-10.039 0-18.178 8.139-18.178 18.178 0 3.552 1.035 6.856 2.797 9.656h30.76a18.049 18.049 0 0 0 2.797-9.656c0-10.039-8.137-18.178-18.176-18.178m-.102 2.963a2.131 2.131 0 1 1 .002 4.262 2.131 2.131 0 0 1-.002-4.262M15.065 31.617a2.13 2.13 0 1 1-.001-4.26 2.13 2.13 0 0 1 .001 4.26m3.62-8.876a2.13 2.13 0 1 1 0-4.26 2.13 2.13 0 0 1 0 4.26m12.901.093l-2.254 7.29a3.7 3.7 0 1 1-2.076-.637c.063 0 .123.017.187.021l2.244-7.26a.994.994 0 0 1 1.899.586m2.701-2.223a2.13 2.13 0 1 1 4.258-.002 2.13 2.13 0 0 1-4.258.002m5.538 11.006a2.13 2.13 0 1 1-.001-4.26 2.13 2.13 0 0 1 .001 4.26"/></svg>