<svg xmlns="http://www.w3.org/2000/svg" width="55.18" height="51.66" viewBox="0 0 55.18 51.66"><path d="M45.476 36.783a2.532 2.532 0 0 0-2.524-2.525H12.229a2.532 2.532 0 0 0-2.523 2.525v3.527a2.53 2.53 0 0 0 2.523 2.523H42.95a2.53 2.53 0 0 0 2.524-2.523l.002-3.527zm-13.231 3.194a1.432 1.432 0 1 1 0-2.863 1.432 1.432 0 0 1 0 2.863m8.585 0a1.432 1.432 0 1 1 0-2.863 1.432 1.432 0 0 1 0 2.863m-28.601-7.144h30.723c.697 0 1.351.185 1.922.502l-2.959-6.259c-.824-1.811-2.206-2.524-3.594-2.524h-3.352l-4.826 4.929a3.66 3.66 0 0 1-1.165.812 3.536 3.536 0 0 1-1.397.285c-.496 0-.97-.099-1.408-.293l-.046-.021-.043-.022a4.422 4.422 0 0 1-1.02-.712l-.024-.024-.025-.024-4.823-4.928H16.86c-1.389 0-2.689.787-3.593 2.524l-2.959 6.26a3.902 3.902 0 0 1 1.921-.505"/><path d="M20.178 20.547c.24-.241.553-.357.867-.367.01 0 .017-.007.026-.007l4.442.002v-9.243a2.112 2.112 0 0 1 2.105-2.106c1.163 0 2.106.944 2.106 2.106v9.238l4.447.003c.01 0 .017.007.026.007.314.01.626.126.867.367a1.263 1.263 0 0 1 0 1.786l-6.254 6.253a1.684 1.684 0 0 1-2.382 0l-6.253-6.253a1.266 1.266 0 0 1 .003-1.786"/></svg>