<svg xmlns="http://www.w3.org/2000/svg" width="55.18" height="51.66" viewBox="0 0 55.18 51.66"><path d="M39.801 24.145c-.339 0-.643-.138-.872-.354-.007-.007-.017-.007-.021-.013l-3.142-3.143-7.95 7.95a2.105 2.105 0 1 1-2.979-2.977l7.948-7.948-3.146-3.146c-.007-.007-.007-.017-.013-.023a1.27 1.27 0 0 1-.354-.874c0-.697.565-1.262 1.265-1.262h8.842c.93 0 1.686.754 1.686 1.684v8.844a1.262 1.262 0 0 1-1.264 1.262m-15.859 5.619c.83.842 3.024 1.659 5.097-.322l6.599-6.837 2.062 2.232v11.1a3.367 3.367 0 0 1-3.369 3.369H17.484a3.368 3.368 0 0 1-3.368-3.369V19.092a3.37 3.37 0 0 1 3.368-3.369h11.121l2.046 2.155-6.9 6.792c-1.639 1.973-.774 4.116.191 5.094"/></svg>