<svg xmlns="http://www.w3.org/2000/svg" width="55.18" height="51.66" viewBox="0 0 55.18 51.66"><path d="M42.48 8.899H29.473c-.052 0-.097.015-.144.029a8.94 8.94 0 0 0-5.243-1.702c-4.958 0-8.991 4.033-8.991 8.99 0 2.002.666 3.847 1.776 5.343l-5.911 6.076a1.799 1.799 0 0 0 .029 2.54c.337.329.782.51 1.255.51h.015a1.79 1.79 0 0 0 1.271-.539l2.833-2.9v14.938a2.254 2.254 0 0 0 2.25 2.251H42.48c1.24 0 2.25-1.01 2.25-2.251V11.149a2.253 2.253 0 0 0-2.25-2.25m-18.394-.673c4.406 0 7.99 3.584 7.99 7.99s-3.584 7.991-7.99 7.991-7.991-3.585-7.991-7.991 3.585-7.99 7.991-7.99M12.814 29.447a.793.793 0 0 1-.561.238c-.21.025-.415-.077-.565-.225a.79.79 0 0 1-.238-.561.783.783 0 0 1 .226-.566l5.79-5.952c.319.405.606.749 1.084 1.194l-5.736 5.872zM43.73 42.183c0 .689-.561 1.251-1.25 1.251H18.612c-.689 0-1.25-.562-1.25-1.251V26.289c0-.02-.009-.036-.012-.056l2.209-2.261a8.923 8.923 0 0 0 4.526 1.235 8.93 8.93 0 0 0 3.673-.793.479.479 0 0 0 .271.091h12.55a.5.5 0 1 0 0-1h-11.25a9.028 9.028 0 0 0 3.1-3.957h8.15a.5.5 0 1 0 0-1h-7.82a8.929 8.929 0 0 0 .317-2.332 8.955 8.955 0 0 0-2.603-6.317H42.48c.689 0 1.25.561 1.25 1.25v31.034z"/><path d="M21.117 21.435h5.936c1.61 0 2.919-1.174 2.919-2.618v-5.2c0-1.444-1.309-2.619-2.919-2.619h-5.936c-1.609 0-2.918 1.175-2.918 2.619v5.2c0 1.444 1.309 2.618 2.918 2.618m-1.918-7.818c0-.893.86-1.619 1.918-1.619h5.936c1.06 0 1.919.727 1.919 1.619v5.2c0 .893-.859 1.618-1.919 1.618h-5.936c-1.058 0-1.918-.726-1.918-1.618v-5.2zm.963 14.784h20.417a.5.5 0 0 0 0-1H20.162a.5.5 0 0 0 0 1m20.917 3.395a.5.5 0 0 0-.5-.5H20.162a.5.5 0 0 0 0 1h20.417a.5.5 0 0 0 .5-.5m-8.531 3.909h-1.209l-.969 1.903-.991-1.903h-1.237l1.494 2.562-1.608 2.727h1.202l1.082-2 1.082 2h1.28l-1.639-2.666zm4.741 0H36.08l-.969 1.903-.991-1.903h-1.237l1.494 2.562-1.607 2.727h1.202l1.081-2 1.082 2h1.28l-1.639-2.666zm2.979.857c.156 0 .308.021.452.063s.3.101.467.176l.354-.84a2.927 2.927 0 0 0-.598-.22 2.85 2.85 0 0 0-.676-.075c-.29 0-.55.042-.781.127-.232.086-.433.21-.603.373-.17.164-.311.362-.42.595a2.92 2.92 0 0 0-.233.796h-.481v.637h.42a3.678 3.678 0 0 0-.005.293.734.734 0 0 0 .013.123h-.428v.644h.496c.104.581.323 1.03.658 1.343.335.314.792.47 1.371.47.227 0 .426-.018.598-.054.171-.037.325-.09.462-.159v-.927a2.604 2.604 0 0 1-.462.151 2.49 2.49 0 0 1-.532.055c-.275 0-.497-.07-.666-.213s-.284-.364-.347-.666h1.074v-.644h-1.136a1.483 1.483 0 0 1-.008-.116v-.174c0-.023.001-.044.004-.063a.666.666 0 0 0 .004-.062h1.363v-.637h-1.31c.056-.323.164-.569.326-.74a.823.823 0 0 1 .624-.256"/><path d="M20.824 19.548a.5.5 0 0 0 .5-.5v-5.485a.5.5 0 0 0-1 0v5.485a.5.5 0 0 0 .5.5m1.596-.125a.375.375 0 0 0 .375-.375v-5.485a.375.375 0 0 0-.75 0v5.485c0 .207.168.375.375.375m4.74.125a.5.5 0 0 0 .5-.5v-5.485a.5.5 0 0 0-1 0v5.485a.5.5 0 0 0 .5.5m-1.97-.25a.25.25 0 0 0 .25-.25v-5.485a.25.25 0 0 0-.5 0v5.485c0 .139.113.25.25.25m-1.763 0c.08 0 .143-.044.188-.103a.493.493 0 0 0 .471.353.5.5 0 0 0 .5-.5v-5.485a.5.5 0 0 0-.5-.5.494.494 0 0 0-.471.353c-.046-.058-.108-.103-.188-.103a.25.25 0 0 0-.25.25v5.485c0 .139.112.25.25.25m2.749 0a.25.25 0 0 0 .25-.25v-5.485a.25.25 0 0 0-.5 0v5.485c0 .139.112.25.25.25"/></svg>