<svg xmlns="http://www.w3.org/2000/svg" width="87.5" height="94.9" viewBox="0 0 87.5 94.9"><path d="M78 53.6c-5.9 5.9-18.299 15.9-35 15.9-17.1 0-29.7-10.4-35.7-16.6a3.05 3.05 0 0 1 .1-4.399c1.2-1.2 3.2-1.2 4.4.1 5.3 5.5 16.4 14.7 31.2 14.7 14.5 0 25.399-8.8 30.6-14 1.2-1.2 3.2-1.2 4.4 0 1.3 1.099 1.3 3.099 0 4.299M8.519 38.039c5.754-6.042 16.906-15.342 33.601-15.75 17.095-.417 28.945 8.672 35.095 14.724a3.051 3.051 0 0 1 .007 4.401 3.051 3.051 0 0 1-4.401.007c-5.433-5.369-15.754-13.295-30.549-12.934-14.495.354-24.177 8.418-29.249 13.743-1.17 1.229-3.169 1.278-4.398.108-1.328-1.068-1.377-3.068-.106-4.299M9.83 76.055a3.499 3.499 0 0 1-3.02-5.264l3.669-6.29a3.502 3.502 0 0 1 4.787-1.26 3.502 3.502 0 0 1 1.26 4.787l-3.669 6.29a3.499 3.499 0 0 1-3.027 1.737zm67.114 0a3.497 3.497 0 0 1-3.026-1.737l-3.669-6.29a3.5 3.5 0 1 1 6.047-3.527l3.669 6.29a3.5 3.5 0 0 1-3.021 5.264zM30.79 85.442a3.5 3.5 0 0 1-3.399-4.347l1.761-7.065a3.5 3.5 0 0 1 6.792 1.693l-1.761 7.065a3.502 3.502 0 0 1-3.393 2.654zm24.316 0a3.504 3.504 0 0 1-3.394-2.654l-1.761-7.065a3.502 3.502 0 0 1 6.793-1.693l1.761 7.065a3.502 3.502 0 0 1-3.399 4.347z"/></svg>