<svg xmlns="http://www.w3.org/2000/svg" width="55.18" height="51.66" viewBox="0 0 55.18 51.66"><path d="M41.042 29.25l-7.538-9.039a1.54 1.54 0 0 0-.085-.099 2.54 2.54 0 0 0-1.594-.763 4.236 4.236 0 0 0-.056-1.925 2.596 2.596 0 0 0 1.645-.78c.007-.007.06-.074.066-.082l7.543-9.043a.5.5 0 0 0-.038-.682l-1.812-1.735a.498.498 0 0 0-.682-.008l-8.763 7.967a.406.406 0 0 0-.067.076 2.545 2.545 0 0 0-.634 1.309 4.332 4.332 0 0 0-2.895.013 2.525 2.525 0 0 0-.608-1.278.47.47 0 0 0-.095-.119l-8.763-7.967a.5.5 0 0 0-.683.008l-1.811 1.735a.5.5 0 0 0-.038.682l7.541 9.042c.017.021.063.078.083.097a2.557 2.557 0 0 0 1.668.77 4.224 4.224 0 0 0-.056 1.921 2.944 2.944 0 0 0-.227.031c-.525.099-.998.352-1.293.669a.837.837 0 0 0-.079.066c-.011.011-.066.08-.076.092l-7.542 9.043a.501.501 0 0 0 .038.683l1.811 1.734a.5.5 0 0 0 .682.01l8.763-7.969a.51.51 0 0 0 .063-.069c.039-.043.064-.096.1-.141l-2.49 17.707h-2.846a.5.5 0 0 0-.5.5v4.491a.5.5 0 0 0 .5.5H34.92a.5.5 0 0 0 .5-.5v-4.491a.5.5 0 0 0-.5-.5h-2.847l-2.49-17.707c.032.04.054.086.088.124a.441.441 0 0 0 .075.086l8.764 7.969a.497.497 0 0 0 .681-.01l1.812-1.734a.5.5 0 0 0 .039-.684M30.371 13.833a.496.496 0 0 0 .078-.074l8.371-7.612 1.138 1.09-7.274 8.724a1.554 1.554 0 0 1-.834.446c-.228.04-.465.032-.692-.025-.02-.005-.038.006-.058.002a4.146 4.146 0 0 0-1.086-1.18c-.001-.021.01-.041.007-.061a1.57 1.57 0 0 1-.01-.497c.046-.329.191-.627.36-.813m-2.797 7.852a3.15 3.15 0 0 1-3.146-3.146 3.15 3.15 0 0 1 3.146-3.145 3.149 3.149 0 0 1 3.146 3.145 3.15 3.15 0 0 1-3.146 3.146m-4.26-5.278a1.56 1.56 0 0 1-.866-.485l-7.244-8.685 1.138-1.09 8.373 7.614.021.022a1.561 1.561 0 0 1 .402 1.379c-.002.012.005.022.004.035a4.156 4.156 0 0 0-1.088 1.177c-.006.002-.012-.002-.018 0a1.602 1.602 0 0 1-.722.033m1.462 6.556l-.02.019-.001.001a.33.33 0 0 0-.03.034l-8.364 7.605-1.138-1.09 7.24-8.681a.713.713 0 0 0 .033-.042l.002-.001c.224-.231.512-.386.833-.446.174-.032.355-.028.538.001.306.617.751 1.15 1.308 1.547 0 .071.002.144-.008.214a1.53 1.53 0 0 1-.393.839m9.646 22.734H20.777v-3.491h13.645v3.491zm-10.29-4.491l2.555-18.163h1.825l2.554 18.163h-6.934zm14.707-10.583l-8.369-7.608a1.553 1.553 0 0 1-.441-.888 1.462 1.462 0 0 1-.009-.256c.53-.392.96-.905 1.255-1.5.199-.039.399-.044.592-.007.293.056.559.188.824.431l.042.056 7.243 8.684-1.137 1.088z"/></svg>