<svg xmlns="http://www.w3.org/2000/svg" width="55.18" height="51.66" viewBox="0 0 55.18 51.66"><path d="M27.518 19.646c1.5 0 2.721-1.22 2.721-2.721 0-1.237-2.001-12.257-2.229-13.511a.501.501 0 0 0-.984 0c-.228 1.254-2.229 12.273-2.229 13.511a2.722 2.722 0 0 0 2.721 2.721m0-13.322c.816 4.577 1.721 9.884 1.721 10.602 0 .948-.771 1.721-1.721 1.721s-1.722-.772-1.722-1.721c0-.718.906-6.025 1.722-10.602m15.381 23.798c-.897-.902-8.802-8.838-9.816-9.543a2.721 2.721 0 1 0-3.107 4.466c1.016.706 11.204 5.356 12.363 5.885a.501.501 0 0 0 .617-.17.5.5 0 0 0-.057-.638m-12.354-5.897a1.71 1.71 0 0 1-.711-1.108c-.082-.453.019-.91.28-1.287a1.713 1.713 0 0 1 1.417-.739c.348 0 .688.106.979.309.589.409 4.429 4.183 7.72 7.467-4.223-1.946-9.096-4.233-9.685-4.642m-4.214-.933a2.695 2.695 0 0 0-.445-2.033 2.696 2.696 0 0 0-1.753-1.125 2.705 2.705 0 0 0-2.034.444c-1.015.705-8.919 8.642-9.817 9.544a.501.501 0 0 0 .354.853c.07 0 .141-.014.207-.045 1.159-.528 11.349-5.178 12.363-5.884a2.71 2.71 0 0 0 1.125-1.754m-.985-.177a1.706 1.706 0 0 1-.711 1.109c-.589.41-5.462 2.697-9.686 4.64 3.291-3.283 7.131-7.057 7.72-7.466a1.705 1.705 0 0 1 1.287-.282c.454.081.847.334 1.109.712.263.378.362.835.281 1.287m1.361-1.879a.884.884 0 1 0 1.769 0 .884.884 0 0 0-1.769 0m1.767 2.639h-1.777a.501.501 0 0 0-.5.481l-.831 23.78a.5.5 0 0 0 .5.517h3.44a.5.5 0 0 0 .5-.517l-.832-23.78a.5.5 0 0 0-.5-.481m-2.091 23.779l.797-22.779h.812l.797 22.779h-2.406z"/></svg>