<svg xmlns="http://www.w3.org/2000/svg" width="55.18" height="51.66" viewBox="0 0 55.18 51.66"><path d="M42.669 5.049H17.861a2.321 2.321 0 0 0-2.319 2.319v22.788a7.396 7.396 0 0 0-1.55 4.529c0 1.629.533 3.134 1.425 4.362l-4.782 4.914a1.543 1.543 0 0 0-.442 1.108 1.551 1.551 0 0 0 1.559 1.541h.013a1.553 1.553 0 0 0 1.104-.467l4.883-4.999a7.384 7.384 0 0 0 3.687.986 7.3 7.3 0 0 0 1.623-.184h19.61a2.321 2.321 0 0 0 2.319-2.319V7.369a2.325 2.325 0 0 0-2.322-2.32M12.152 45.444a.555.555 0 0 1-.395.167.557.557 0 0 1-.566-.552.562.562 0 0 1 .159-.399l4.665-4.794c.225.282.439.533.764.841l-4.627 4.737zm2.84-10.758c0-3.554 2.891-6.445 6.444-6.445s6.445 2.891 6.445 6.445c0 3.553-2.892 6.445-6.445 6.445s-6.444-2.892-6.444-6.445m28.997 4.941a1.32 1.32 0 0 1-1.319 1.319H25.449a7.438 7.438 0 0 0 3.433-6.261c0-4.105-3.34-7.445-7.445-7.445a7.406 7.406 0 0 0-4.895 1.85V7.369a1.32 1.32 0 0 1 1.319-1.319H42.67a1.32 1.32 0 0 1 1.319 1.319v32.258z"/><path d="M19.707 10.845c.025-.021.053-.044.08-.07l.081-.076c.025-.026.049-.048.069-.07a.587.587 0 0 0 .045-.046l-.007.19-.008.206a4.585 4.585 0 0 0-.005.197l-.002.162v2.194h.802v-3.79h-.659l-1.221.972.389.483.436-.352zm.184 11.943l.456-.459c.135-.133.262-.264.38-.393a3.51 3.51 0 0 0 .313-.389c.09-.131.161-.264.213-.399.052-.135.077-.278.077-.426 0-.165-.027-.313-.082-.444a.918.918 0 0 0-.234-.336 1.057 1.057 0 0 0-.369-.214 1.515 1.515 0 0 0-.488-.075c-.152 0-.29.016-.412.045-.123.03-.236.07-.338.121-.102.05-.195.108-.28.172a4.03 4.03 0 0 0-.243.204l.436.516c.139-.124.271-.22.396-.288a.844.844 0 0 1 .395-.101c.129 0 .232.035.31.107.077.07.115.17.115.297a.98.98 0 0 1-.054.325c-.037.1-.088.198-.152.296a2.93 2.93 0 0 1-.237.297c-.092.103-.193.214-.306.335l-.893.962v.558h2.544v-.675h-1.545v-.036zm2.442 11.723v-.032a2.85 2.85 0 0 0 .666-.248c.205-.11.383-.244.535-.407.151-.163.271-.352.358-.567.086-.216.13-.459.13-.73 0-.296-.061-.56-.184-.789-.123-.23-.297-.423-.521-.583s-.495-.281-.811-.365a4.131 4.131 0 0 0-1.051-.126 4.76 4.76 0 0 0-.766.06 4.349 4.349 0 0 0-.67.163c-.205.069-.397.15-.574.243s-.34.194-.488.305l.834 1.103c.086-.061.181-.122.286-.185s.221-.119.348-.171c.126-.052.263-.095.412-.129a2.19 2.19 0 0 1 .478-.051c.375 0 .649.079.822.237.173.155.259.373.259.65 0 .154-.026.298-.079.435a.861.861 0 0 1-.275.355 1.438 1.438 0 0 1-.522.24c-.218.059-.49.088-.818.088h-.546v1.161h.557c.35 0 .643.026.883.075.238.05.433.121.58.211.148.092.256.202.321.332s.099.275.099.436a1.4 1.4 0 0 1-.077.475.879.879 0 0 1-.26.372 1.268 1.268 0 0 1-.487.24 2.84 2.84 0 0 1-.765.086 4.266 4.266 0 0 1-1.016-.131 6.142 6.142 0 0 1-.534-.163 3.844 3.844 0 0 1-.509-.225v1.406c.321.144.667.25 1.037.318.37.069.768.104 1.188.104.524 0 .979-.06 1.366-.179.388-.119.709-.286.963-.5.256-.214.445-.466.567-.757.124-.29.185-.606.185-.949 0-.518-.162-.929-.486-1.234-.325-.302-.804-.495-1.435-.574M40.12 13.032H24.253a.5.5 0 0 0 0 1H40.12a.5.5 0 0 0 0-1m0 9.588H24.253a.5.5 0 0 0 0 1H40.12a.5.5 0 0 0 0-1m0 9.588H29.585a.5.5 0 1 0 0 1H40.12a.5.5 0 0 0 0-1"/></svg>