<svg xmlns="http://www.w3.org/2000/svg" width="55.18" height="51.66" viewBox="0 0 55.18 51.66"><path d="M43.025 8.299H29.542a.458.458 0 0 0-.153.031 9.235 9.235 0 0 0-5.431-1.766c-5.129 0-9.301 4.172-9.301 9.301 0 2.077.692 3.99 1.847 5.54l-6.139 6.31a1.846 1.846 0 0 0 .03 2.606c.358.35.823.523 1.288.523.479 0 .959-.185 1.319-.554l2.968-3.039V42.78a2.317 2.317 0 0 0 2.314 2.314h24.74a2.317 2.317 0 0 0 2.314-2.314V10.613a2.315 2.315 0 0 0-2.313-2.314m-19.067-.735c4.577 0 8.301 3.724 8.301 8.301s-3.724 8.301-8.301 8.301-8.301-3.724-8.301-8.301 3.723-8.301 8.301-8.301m-11.67 22.028a.846.846 0 0 1-1.193.014.846.846 0 0 1-.014-1.194l6.018-6.185c.339.43.639.792 1.147 1.264l-5.958 6.101zm32.051 13.189c0 .726-.59 1.314-1.314 1.314h-24.74a1.315 1.315 0 0 1-1.314-1.314V26.305c0-.022-.01-.042-.013-.063l2.306-2.36a9.231 9.231 0 0 0 4.694 1.285 9.252 9.252 0 0 0 3.808-.823c.08.056.174.096.28.096h13.008a.5.5 0 1 0 0-1H29.336a9.349 9.349 0 0 0 3.257-4.138h8.46a.5.5 0 0 0 0-1h-8.13a9.242 9.242 0 0 0 .335-2.436A9.265 9.265 0 0 0 30.537 9.3h12.487c.725 0 1.314.589 1.314 1.314v32.167z"/><path d="M20.88 21.257h6.154c1.658 0 3.007-1.21 3.007-2.696V13.17c0-1.486-1.349-2.695-3.007-2.695H20.88c-1.658 0-3.007 1.209-3.007 2.695v5.391c.001 1.486 1.349 2.696 3.007 2.696m-2.006-8.087c0-.935.899-1.695 2.007-1.695h6.154c1.106 0 2.007.761 2.007 1.695v5.391c0 .935-.9 1.696-2.007 1.696H20.88c-1.107 0-2.007-.761-2.007-1.696V13.17zm1.017 15.307h21.162a.5.5 0 0 0 0-1H19.891a.5.5 0 0 0 0 1m21.662 3.538a.5.5 0 0 0-.5-.5H19.891a.5.5 0 0 0 0 1h21.162a.5.5 0 0 0 .5-.5m-8.825 4.051h-1.252L30.47 38.04l-1.027-1.974h-1.281l1.548 2.656-1.666 2.827h1.246l1.122-2.073 1.121 2.073h1.326l-1.697-2.763zm4.914 0H36.39l-1.006 1.974-1.027-1.974h-1.281l1.549 2.656-1.667 2.827h1.246l1.122-2.073 1.121 2.073h1.326l-1.697-2.763zm3.088.889c.162 0 .318.022.469.066.15.043.311.104.484.182l.367-.87a2.976 2.976 0 0 0-.619-.229 2.943 2.943 0 0 0-.701-.079c-.299 0-.57.045-.811.134-.238.088-.447.217-.623.386s-.322.374-.436.617a3.069 3.069 0 0 0-.242.824h-.498v.66h.436l-.004.088c-.004.036-.004.073-.004.112 0 .027 0 .062.002.104 0 .043.006.085.012.128h-.441v.667h.514c.107.603.334 1.066.682 1.393.348.323.822.486 1.422.486.234 0 .441-.019.619-.057.178-.037.338-.091.479-.165v-.96a2.526 2.526 0 0 1-1.03.214c-.285 0-.516-.073-.691-.221-.174-.147-.295-.378-.359-.69h1.113v-.667h-1.178a1.905 1.905 0 0 1-.006-.122v-.18c0-.024 0-.046.002-.066.004-.022.004-.043.004-.063h1.414v-.66h-1.357c.059-.335.17-.59.338-.766s.381-.266.643-.266"/></svg>