<svg xmlns="http://www.w3.org/2000/svg" width="55.18" height="51.66" viewBox="0 0 55.18 51.66"><path d="M40.651 18.184c-.23-.559-.511-1.002-.833-1.326l-5.432-5.45c-.323-.324-.765-.605-1.321-.838-.558-.233-1.067-.352-1.532-.352l-15.618-.029a1.62 1.62 0 0 0-1.188.487c-.325.325-.488.72-.489 1.184l-.052 27.893c0 .465.161.858.488 1.187.324.326.718.488 1.185.49l23.43.043c.464 0 .857-.162 1.183-.488.328-.324.491-.717.492-1.183L41 19.718c-.002-.466-.118-.976-.349-1.534m-6.373 16.024a.55.55 0 0 1-.158.401.543.543 0 0 1-.4.156l-12.273-.022a.549.549 0 0 1-.398-.158.542.542 0 0 1-.157-.401l.002-1.115c0-.161.054-.297.159-.4a.55.55 0 0 1 .4-.156l12.271.023a.535.535 0 0 1 .399.158.543.543 0 0 1 .157.399l-.002 1.115zm.009-4.461a.542.542 0 0 1-.558.555l-12.273-.021a.54.54 0 0 1-.556-.558l.002-1.117a.549.549 0 0 1 .157-.398.545.545 0 0 1 .401-.157l12.273.021a.54.54 0 0 1 .556.558l-.002 1.117zm.006-4.461a.53.53 0 0 1-.159.398.532.532 0 0 1-.398.156l-12.274-.02a.541.541 0 0 1-.556-.559l.003-1.116a.537.537 0 0 1 .557-.558l12.273.021c.161 0 .297.053.397.159a.535.535 0 0 1 .158.401l-.001 1.118zm-2.222-6.141l.014-6.555c.337.117.577.245.716.386l5.445 5.465c.14.141.266.378.383.715l-6.558-.011z"/></svg>