<svg xmlns="http://www.w3.org/2000/svg" width="55.18" height="51.66" viewBox="0 0 55.18 51.66"><path d="M22.97 15.65l3.494-7.065s.698-2.718 1.708 0c1.01 2.717 3.416 7.065 3.416 7.065l7.532 1.087s2.949.078 0 1.941c-2.563 2.278-4.971 4.736-4.971 4.736l1.32 7.92s.854 2.329-1.553.932c-1.01-.574-6.677-3.727-6.677-3.727l-6.29 3.494s-2.098 1.785-1.709-.932c.262-1.828 1.163-7.609 1.163-7.609l-5.512-5.358s-1.786-1.319.466-1.397c2.998-.319 7.613-1.087 7.613-1.087m-7.627 22.232c2.21-1.126 2.729-3.696 1.089-5.853-2.278 1.116-2.728 3.698-1.089 5.853m-.014 0c-1.477-2.271-4.07-2.649-5.877-.948 1.418 2.187 4.071 2.648 5.877.948M7.964 16.436c-1.702 1.719-1.514 4.269.531 5.687 1.748-1.773 1.514-4.269-.531-5.687m4.573 17.787c2.334-.839 3.173-3.324 1.816-5.668-2.4.817-3.17 3.323-1.816 5.668"/><path d="M12.523 34.221c-1.178-2.438-3.705-3.142-5.711-1.683 1.131 2.351 3.705 3.142 5.711 1.683m-2.232-4.153c2.455-.354 3.775-2.618 2.921-5.188-2.518.319-3.777 2.619-2.921 5.188"/><path d="M10.277 30.063c-.663-2.625-2.997-3.821-5.255-2.795.635 2.529 2.997 3.822 5.255 2.795M8.96 25.441c2.479.078 4.173-1.924 3.774-4.603-2.532-.122-4.17 1.925-3.774 4.603"/><path d="M8.948 25.435c-.198-2.7-2.289-4.284-4.691-3.665.187 2.6 2.289 4.284 4.691 3.665m9.366 16.01c2.038-1.413 2.205-4.031.29-5.945-2.038 1.414-2.208 4.104-.29 5.945"/><path d="M12.363 41.297c1.769 2.051 4.389 2.146 5.951.148-1.697-2.049-4.392-2.076-5.951-.148m7.413 2.752a.685.685 0 0 0 .991.043.637.637 0 0 0 .233-.486.647.647 0 0 0-.191-.504l-1.354-1.479-1.033.949 1.354 1.477zm18.972-12.02c-1.641 2.154-1.12 4.727 1.09 5.853 1.639-2.155 1.189-4.737-1.09-5.853"/><path d="M45.728 36.934c-1.806-1.701-4.4-1.322-5.877.948 1.806 1.7 4.459 1.239 5.877-.948m.956-14.811c2.045-1.419 2.233-3.969.532-5.687-2.046 1.418-2.278 3.914-.532 5.687m-5.858 6.432c-1.354 2.344-.518 4.829 1.816 5.668 1.357-2.345.585-4.851-1.816-5.668"/><path d="M48.368 32.538c-2.007-1.459-4.532-.756-5.71 1.683 2.006 1.459 4.579.668 5.71-1.683m-6.4-7.657c-.854 2.569.466 4.835 2.921 5.188.856-2.57-.403-4.87-2.921-5.188"/><path d="M50.159 27.268c-2.26-1.025-4.594.172-5.257 2.797 2.259 1.025 4.621-.268 5.257-2.797m-7.715-6.429c-.396 2.679 1.298 4.681 3.775 4.603.398-2.679-1.241-4.726-3.775-4.603"/><path d="M50.923 21.77c-2.402-.619-4.493.965-4.691 3.665 2.402.619 4.504-1.065 4.691-3.665M36.576 35.5c-1.915 1.914-1.747 4.532.29 5.945 1.918-1.841 1.748-4.531-.29-5.945"/><path d="M36.866 41.445c1.563 1.998 4.184 1.902 5.951-.148-1.56-1.928-4.253-1.901-5.951.148m-.107 1.127l-1.033-.949-1.354 1.479a.634.634 0 0 0-.191.504c.01.213.086.352.234.486.295.271.72.253.991-.043l1.353-1.477z"/></svg>