<svg xmlns="http://www.w3.org/2000/svg" width="55.18" height="51.66" viewBox="0 0 55.18 51.66"><path d="M41.068 41.293l.173.934a.158.158 0 0 1-.023.129.182.182 0 0 1-.101.084l-.029.002a.25.25 0 0 1-.062.02c-.026.004-.06.014-.097.021a1.09 1.09 0 0 1-.125.026 1.085 1.085 0 0 1-.151.024c-.05.009-.108.015-.174.023l-.195.02c-.065.005-.137.01-.213.01a2.457 2.457 0 0 1-.226-.003c-.906-.032-1.69-.312-2.35-.844-.661-.529-1.098-1.229-1.313-2.095l-.553-.02a.181.181 0 0 1-.13-.061.18.18 0 0 1-.049-.133l.022-.658a.174.174 0 0 1 .063-.127.174.174 0 0 1 .13-.053l.384.014a6.36 6.36 0 0 1 .03-.608l-.393-.013a.196.196 0 0 1-.133-.057.172.172 0 0 1-.046-.136l.023-.662a.196.196 0 0 1 .056-.135.197.197 0 0 1 .137-.047l.571.022a3.764 3.764 0 0 1 1.489-1.916 3.856 3.856 0 0 1 2.352-.662c.398.014.771.072 1.124.176a.22.22 0 0 1 .115.092.205.205 0 0 1 .014.139l-.285.915c-.013.05-.039.089-.086.109a.155.155 0 0 1-.138.011l-.025-.004a.27.27 0 0 0-.064-.02c-.03-.006-.065-.013-.103-.025-.038-.008-.082-.018-.131-.023a3.084 3.084 0 0 0-.148-.022 1.303 1.303 0 0 0-.169-.019c-.061-.009-.117-.012-.173-.015a2.371 2.371 0 0 0-1.326.325c-.399.23-.7.566-.909.994l2.722.096a.167.167 0 0 1 .142.077c.038.047.052.098.036.151l-.164.658c-.021.1-.087.147-.188.145l-2.842-.102a4.826 4.826 0 0 0-.021.609l2.669.097c.06 0 .106.026.146.074.033.048.04.101.025.159l-.161.646a.184.184 0 0 1-.185.143l-2.251-.079a2.345 2.345 0 0 0 2.353 1.554l.198-.014c.061-.006.115-.014.173-.02l.145-.024c.04-.009.074-.015.106-.021.03-.007.056-.015.071-.016l.029-.012a.168.168 0 0 1 .15.017.207.207 0 0 1 .084.13"/><path d="M33.614 38.116a5.765 5.765 0 0 1 6.956-5.642l.024-13.874c.002-.465-.114-.976-.346-1.534-.23-.559-.51-1.001-.832-1.326l-5.432-5.45c-.323-.323-.765-.604-1.322-.838-.557-.233-1.068-.351-1.532-.351l-15.618-.029c-.467 0-.862.161-1.188.487-.326.325-.489.72-.49 1.183l-.051 27.893c0 .465.16.858.486 1.186.324.328.718.49 1.186.492l18.605.033a5.77 5.77 0 0 1-.446-2.23m-1.932-26.643c.337.116.577.246.716.385l5.445 5.466c.139.14.266.377.383.715l-6.557-.012.013-6.554zM20.504 23.027a.538.538 0 0 1 .558-.557l12.275.022a.528.528 0 0 1 .397.158.535.535 0 0 1 .158.401l-.002 1.116a.537.537 0 0 1-.557.555l-12.275-.021a.54.54 0 0 1-.556-.558l.002-1.116zm-.008 4.461a.548.548 0 0 1 .158-.399.545.545 0 0 1 .4-.155l12.275.021a.54.54 0 0 1 .555.558l-.002 1.115a.543.543 0 0 1-.159.4.533.533 0 0 1-.398.156l-12.275-.021a.54.54 0 0 1-.555-.558l.001-1.117zm.547 6.138a.539.539 0 0 1-.556-.559l.002-1.115a.534.534 0 0 1 .158-.399.555.555 0 0 1 .4-.157l12.272.022a.538.538 0 0 1 .557.559l-.002 1.115c0 .163-.054.297-.158.4s-.238.156-.401.156l-12.272-.022z"/></svg>