<svg xmlns="http://www.w3.org/2000/svg" width="55.18" height="51.66" viewBox="0 0 55.18 51.66"><path d="M17.037 21.949c1.045 0 1.896-.85 1.896-1.896 0-.793-1.26-7.73-1.404-8.52a.501.501 0 0 0-.984 0c-.144.789-1.404 7.727-1.404 8.52 0 1.046.851 1.896 1.896 1.896m0-7.489c.449 2.555.896 5.21.896 5.593a.897.897 0 0 1-1.792 0c0-.383.447-3.037.896-5.593"/><path d="M20.639 22.196a1.887 1.887 0 0 0-1.418-.31 1.88 1.88 0 0 0-1.22.783 1.884 1.884 0 0 0-.31 1.417c.009.057.031.111.046.167-.033-.008-.064-.021-.099-.021h-1.116c-.034 0-.063.012-.094.019.014-.056.036-.109.047-.166a1.886 1.886 0 0 0-.31-1.416 1.881 1.881 0 0 0-1.221-.784 1.88 1.88 0 0 0-1.418.31c-.65.452-5.627 5.448-6.192 6.018a.499.499 0 0 0 .562.807c.729-.332 7.141-3.259 7.795-3.713.12-.083.224-.181.32-.287l-.512 14.633a.494.494 0 0 0 .141.365.494.494 0 0 0 .359.153h2.161a.502.502 0 0 0 .5-.518l-.512-14.641c.097.108.205.21.327.295.653.454 7.065 3.381 7.795 3.713a.498.498 0 0 0 .617-.17.499.499 0 0 0-.056-.637c-.565-.569-5.541-5.565-6.192-6.017m-5.519 2.289c-.314.22-2.749 1.37-5.101 2.459 1.839-1.827 3.764-3.709 4.078-3.928a.895.895 0 0 1 1.023 1.469m1.397 14.686l.487-13.938h.151l.488 13.938h-1.126zm2.528-14.685a.896.896 0 1 1 1.023-1.469c.314.218 2.24 2.1 4.08 3.928-2.354-1.09-4.789-2.24-5.103-2.459"/><path d="M16.527 22.761a.555.555 0 1 0 1.11.002.555.555 0 0 0-1.11-.002m31.348 6.428l-4.776-5.726-.044-.055a1.796 1.796 0 0 0-.946-.524 2.802 2.802 0 0 0-.024-.911 1.8 1.8 0 0 0 .927-.498l.004-.004a.578.578 0 0 0 .058-.064l.013-.016 4.775-5.727a.498.498 0 0 0-.038-.681l-1.146-1.099a.5.5 0 0 0-.682-.009l-5.549 5.045a.495.495 0 0 0-.062.068 1.786 1.786 0 0 0-.393.71 2.907 2.907 0 0 0-1.562.006 1.807 1.807 0 0 0-.392-.711.472.472 0 0 0-.064-.071l-.075-.067-5.475-4.979a.5.5 0 0 0-.682.009l-1.147 1.099a.498.498 0 0 0-.038.681l4.766 5.715.423-.272-.352.354c.258.268.591.445.963.516h.001a2.916 2.916 0 0 0-.023.907 1.698 1.698 0 0 0-.881.465 1.17 1.17 0 0 0-.109.114l-4.776 5.726a.499.499 0 0 0 .038.681l1.147 1.099a.502.502 0 0 0 .682.01l5.27-4.79-1.478 10.504h-1.643a.5.5 0 0 0-.5.5v2.843a.5.5 0 0 0 .5.5h9.273c.277 0 .5-.223.5-.5v-2.843c0-.277-.223-.5-.5-.5h-1.642l-1.478-10.506 5.27 4.792c.192.176.491.17.681-.01l1.148-1.099a.5.5 0 0 0 .038-.682m-6.736-9.542c.017-.019.034-.037.049-.057l.004.004 5.131-4.665.473.453-4.459 5.355a.256.256 0 0 0-.029.027.812.812 0 0 1-.429.229.835.835 0 0 1-.33-.012 2.864 2.864 0 0 0-.613-.654.787.787 0 0 1 .203-.68m-1.933 4.686a1.81 1.81 0 0 1-1.809-1.808c0-.997.812-1.809 1.809-1.809s1.809.812 1.809 1.809a1.81 1.81 0 0 1-1.809 1.808m-3.073-3.546a.244.244 0 0 0-.032-.036l-4.478-5.368.474-.453 5.165 4.697a.792.792 0 0 1 .228.455.888.888 0 0 1-.006.241 2.829 2.829 0 0 0-.62.658.893.893 0 0 1-.321.014.85.85 0 0 1-.41-.208m1.169 4.412a.3.3 0 0 0-.03.032l-.033.028-5.131 4.665-.472-.453 4.487-5.382a.8.8 0 0 1 .43-.229c.063-.012.132-.001.199.002.188.344.442.643.751.88l-.001.024a.805.805 0 0 1-.2.433m6.056 14.338h-8.273v-1.843h8.273v1.843zm-6.121-2.844l1.567-11.132h.837l1.565 11.132h-3.969zm9.098-6.769l-5.159-4.69-.024-.026-.009-.01a.807.807 0 0 1-.202-.435c-.002-.016-.001-.031-.002-.047.295-.233.539-.521.72-.854.078-.007.157-.018.232-.003.166.031.314.11.373.158a.388.388 0 0 0 .045.057l.022.029 4.478 5.366-.474.455z"/></svg>