<svg xmlns="http://www.w3.org/2000/svg" width="87.5" height="94.9" viewBox="0 0 87.5 94.9"><path d="M78 53.6c-5.9 5.9-18.299 15.9-35 15.9-17.1 0-29.7-10.4-35.7-16.6a3.05 3.05 0 0 1 .1-4.399c1.2-1.2 3.2-1.2 4.4.1 5.3 5.5 16.4 14.7 31.2 14.7 14.5 0 25.399-8.8 30.6-14 1.2-1.2 3.2-1.2 4.4 0 1.3 1.099 1.3 3.099 0 4.299M8.519 38.039c5.754-6.042 16.906-15.342 33.601-15.75 17.095-.417 28.945 8.672 35.095 14.724a3.051 3.051 0 0 1 .007 4.401 3.051 3.051 0 0 1-4.401.007c-5.433-5.369-15.754-13.295-30.549-12.934-14.495.354-24.177 8.418-29.249 13.743-1.17 1.229-3.169 1.278-4.398.108-1.328-1.068-1.377-3.068-.106-4.299"/><path d="M43.389 58.296c-.976 0-1.965-.106-2.956-.329a13.386 13.386 0 0 1-8.431-5.94 13.389 13.389 0 0 1-1.762-10.162c1.379-6.134 6.879-10.522 13.137-10.522l.261.002a3.5 3.5 0 0 1-.067 7l-.194-.002c-3.003 0-5.643 2.109-6.306 5.058a6.482 6.482 0 0 0 4.897 7.737c3.479.783 6.954-1.414 7.737-4.898a6.392 6.392 0 0 0 .005-2.827 3.5 3.5 0 0 1 2.649-4.181 3.495 3.495 0 0 1 4.181 2.649c.438 1.95.436 3.934-.005 5.895-1.408 6.258-6.984 10.52-13.146 10.52zM13.494 28.791a3.499 3.499 0 0 1-3.027-1.737l-3.669-6.29a3.5 3.5 0 1 1 6.047-3.527l3.669 6.29a3.5 3.5 0 0 1-3.02 5.264zm59.764 0a3.501 3.501 0 0 1-3.021-5.264l3.668-6.29a3.5 3.5 0 0 1 6.047 3.527l-3.668 6.29a3.5 3.5 0 0 1-3.026 1.737zm-40.724-8.612a3.502 3.502 0 0 1-3.394-2.655l-1.761-7.066a3.499 3.499 0 1 1 6.792-1.692l1.761 7.066a3.499 3.499 0 0 1-3.398 4.347zm20.806 0a3.5 3.5 0 0 1-3.4-4.347l1.761-7.066a3.5 3.5 0 0 1 6.793 1.692l-1.761 7.066a3.5 3.5 0 0 1-3.393 2.655z"/></svg>