<svg xmlns="http://www.w3.org/2000/svg" width="55.18" height="51.66" viewBox="0 0 55.18 51.66"><path d="M27.59 6.841c-10.486 0-18.987 8.501-18.987 18.989 0 10.486 8.498 18.988 18.987 18.988 10.488 0 18.987-8.5 18.987-18.988S38.078 6.841 27.59 6.841m15.094 16.748a1 1 0 1 1-1.98.295 1 1 0 0 1 1.98-.295M39.825 18.4a.997.997 0 0 1 1.348.424.999.999 0 1 1-1.348-.424m-3.046-3.548a.999.999 0 1 1 1.452 1.372.999.999 0 0 1-1.452-1.372m-7.539-4.174a1 1 0 1 1-.185 1.991 1 1 0 0 1 .185-1.991m-4.989.331a1 1 0 1 1 .476 1.942 1 1 0 0 1-.476-1.942M13.498 20.66a1 1 0 1 1 1.89.653 1 1 0 0 1-1.89-.653m-.867 4.923a1.001 1.001 0 1 1 1.998.002 1.001 1.001 0 0 1-1.998-.002m.626 4.424a.999.999 0 1 1 1.91-.585.999.999 0 0 1-1.91.585m3.596 4.71a.998.998 0 1 1-1.18-1.616.998.998 0 0 1 1.18 1.616m-.759-17.021a1.001 1.001 0 0 1 1.234-1.575 1 1 0 0 1-1.234 1.575m4.296 20.079a1 1 0 1 1-1.64-1.144 1 1 0 0 1 1.64 1.144m.339-23.144a1 1 0 1 1-1.084-1.68 1 1 0 0 1 1.084 1.68m4.006 24.879a1 1 0 1 1-1.923-.545 1 1 0 0 1 1.923.545m3.729 1.278a.998.998 0 1 1-.115-1.996 1 1 0 0 1 .115 1.996m.419-9.763c-1.103 0-1.974-.301-2.613-.897-.638-.596-1.059-1.453-1.255-2.558h-.945v-1.229h.813a1.503 1.503 0 0 1-.025-.236v-.193c0-.069 0-.137.003-.206.007-.063.007-.119.007-.161h-.798v-1.213h.916a5.536 5.536 0 0 1 .446-1.516c.21-.447.477-.826.798-1.138.325-.311.71-.545 1.149-.71a4.345 4.345 0 0 1 1.491-.245c.47 0 .899.051 1.291.146.39.095.769.236 1.136.42l-.673 1.6a7.047 7.047 0 0 0-.894-.334 3.07 3.07 0 0 0-.86-.12c-.483 0-.88.162-1.186.485-.309.325-.516.795-.621 1.411h2.495v1.213h-2.6c0 .039-.004.076-.007.118-.006.036-.006.077-.006.122v.331c0 .047.003.124.013.226h2.168v1.229h-2.05c.117.572.338.998.659 1.269.323.271.746.404 1.271.404a4.66 4.66 0 0 0 1.015-.104c.313-.07.604-.168.881-.287v1.767a3.57 3.57 0 0 1-.881.305 5.685 5.685 0 0 1-1.138.101m4.464 8.696a1 1 0 1 1-.757-1.852 1 1 0 0 1 .757 1.852m1.214-26.402a.998.998 0 1 1-1.82-.826.999.999 0 1 1 1.82.826m3.056 23.801a1 1 0 1 1-1.323-1.5 1 1 0 0 1 1.323 1.5m3.185-3.852c-.272.48-.883.648-1.363.377a1 1 0 0 1 .988-1.738c.48.271.648.882.375 1.361m.587-3.882a1 1 0 1 1 .37-1.967 1 1 0 0 1-.37 1.967"/></svg>