<svg xmlns="http://www.w3.org/2000/svg" width="55.18" height="51.66" viewBox="0 0 55.18 51.66"><path d="M31.553 13.498c.723-.336 1.919-1.061 2.284-2.354.522-1.854-2.34-4.469-2.667-4.76-.007-.006-.019-.006-.027-.014a.518.518 0 0 0-.192-.092c-.024-.004-.043-.01-.066-.012-.016-.002-.031-.01-.048-.01h-6.493c-.016 0-.031.008-.048.01-.022.002-.042.008-.064.012a.535.535 0 0 0-.194.092c-.007.008-.019.008-.027.014-.327.291-3.188 2.908-2.666 4.76.365 1.293 1.561 2.02 2.283 2.354-4.139 1.598-7.089 5.607-7.089 10.303v21.102a.5.5 0 0 0 .5.5h21.103a.5.5 0 0 0 .5-.5V23.801c0-4.696-2.95-8.705-7.089-10.303m1.321-2.625c-.225.801-.978 1.328-1.537 1.619V7.965c.844.928 1.743 2.181 1.537 2.908m-2.538 1.879h-5.493V7.258h5.493v5.494zm-8.028-1.879c-.194-.688.63-1.92 1.536-2.914v4.533c-.558-.291-1.31-.818-1.536-1.619m15.334 33.529H17.539V23.801c0-5.541 4.509-10.049 10.052-10.049 5.542 0 10.051 4.508 10.051 10.049v20.601z"/><path d="M22.585 29.563h1.105v1.215a3.502 3.502 0 0 1-.786.08 1.54 1.54 0 0 1-.692-.143 1.258 1.258 0 0 1-.473-.404 1.76 1.76 0 0 1-.269-.615 3.367 3.367 0 0 1-.085-.787c0-.301.041-.574.124-.818.082-.244.2-.453.354-.625.155-.174.34-.307.557-.402.216-.094.46-.141.731-.141.25 0 .489.031.716.092.228.061.432.137.613.229l.411-.99a4.616 4.616 0 0 0-.818-.26 4.217 4.217 0 0 0-.914-.1c-.489 0-.923.07-1.302.209-.378.141-.698.34-.958.6a2.505 2.505 0 0 0-.587.941c-.133.371-.2.783-.2 1.242 0 .488.06.92.18 1.293.119.373.294.688.524.941s.513.445.849.574c.337.129.723.193 1.159.193.208 0 .404-.008.589-.023a5.992 5.992 0 0 0 1.019-.17c.157-.041.312-.086.466-.137v-3.023h-2.313v1.029zm4.862-3.61l-1.894 5.854h1.248l.403-1.387h2.01l.398 1.387h1.249l-1.903-5.854h-1.511zm.056 3.43l.371-1.275.037-.137.059-.211.067-.256c.025-.09.048-.18.07-.27.023-.088.042-.172.06-.252s.031-.15.042-.207c.013.092.036.205.067.338a20.76 20.76 0 0 0 .204.757c.032.109.056.188.072.236l.375 1.275h-1.424zm7.49-3.406h-3.861v1.021h2.393l-2.469 4.008v.801h4.013v-1.02h-2.541l2.465-4.014z"/></svg>