<svg xmlns="http://www.w3.org/2000/svg" width="55.18" height="51.66" viewBox="0 0 55.18 51.66"><path d="M27.59 7.268c-6.887 0-12.49 5.604-12.49 12.492 0 6.699 11.585 23.693 12.078 24.414a.498.498 0 0 0 .824 0c.493-.721 12.079-17.715 12.079-24.414 0-6.889-5.603-12.492-12.491-12.492m0 35.728C25.489 39.85 16.1 25.467 16.1 19.76c0-6.336 5.154-11.492 11.49-11.492s11.491 5.156 11.491 11.492c0 5.707-9.39 20.09-11.491 23.236"/><path d="M27.285 13.896a9.6 9.6 0 0 0-1.63-.65.499.499 0 1 0-.502.828l.097.098c.046.045.088.086.128.133.6.674.772 1.473.529 2.445-.172.676-.547 1.291-.885 1.814a32.97 32.97 0 0 0-1.204 1.98c-.626 1.145-.991 2.225-1.117 3.299-.157 1.336.146 2.531.898 3.551.636.863 1.42 1.438 2.329 1.705.134.039.27.068.406.098l.159.035a.501.501 0 0 0 .441-.864c-.111-.096-.224-.145-.325-.189-.583-.26-.918-.67-1.026-1.254-.072-.393-.027-.809.143-1.346.198-.621.556-1.193.901-1.748.325-.518.665-1.074.964-1.652.08-.154.151-.313.211-.469a5.312 5.312 0 0 1-.058 1.693c-.044.24-.114.475-.183.709-.04.137-.08.275-.116.414-.099.375-.054.742.126 1.035.166.271.437.461.764.533.339.076.679.002.933-.205.012-.01.022-.02.033-.027.027.082.051.164.072.25.113.432.13.754.058 1.051-.031.131-.079.256-.126.381l-.072.197c-.072.207.027.418.205.547.177.129.445.107.622-.025l.091-.068c.518-.412.94-.936 1.29-1.596.998-1.883 1.305-3.865.916-5.895-.593-3.091-2.3-5.38-5.072-6.808m1.268 11.221c-.093-.02-.12-.064-.129-.08-.036-.057-.04-.152-.013-.26.033-.121.069-.244.104-.365a.51.51 0 0 0 .017.1l.038.139.036.156c.022.096.044.186.045.252a3.567 3.567 0 0 1-.098.058m2.004 1.012a4.09 4.09 0 0 1-.117.209 4.407 4.407 0 0 0-.098-.477 4.985 4.985 0 0 0-.72-1.6 1.917 1.917 0 0 0-.201-.236c-.163-.182-.468-.199-.676-.068a.493.493 0 0 0-.136.129c.046-.166.088-.334.118-.502.279-1.496.053-2.889-.674-4.143a1.066 1.066 0 0 0-.249-.299.498.498 0 1 0-.81.469l.052.301c.088.6-.024 1.191-.343 1.805a23.488 23.488 0 0 1-.923 1.584c-.379.605-.771 1.232-1.007 1.975-.21.666-.27 1.227-.185 1.762a5.669 5.669 0 0 1-.184-.236c-.606-.82-.837-1.75-.709-2.842.109-.945.438-1.904 1-2.934.369-.672.796-1.342 1.167-1.918.381-.59.804-1.289 1.014-2.113.202-.807.182-1.547-.059-2.215a.11.11 0 0 0 .011.006c2.485 1.281 4.014 3.334 4.546 6.107.346 1.798.072 3.56-.817 5.236"/></svg>