<svg xmlns="http://www.w3.org/2000/svg" width="55.18" height="51.66" viewBox="0 0 55.18 51.66"><path d="M41.651 17.391c-.229-.559-.509-1.002-.833-1.326l-5.43-5.45c-.325-.324-.766-.605-1.323-.838-.556-.233-1.067-.352-1.531-.352l-15.62-.028a1.616 1.616 0 0 0-1.188.486c-.327.325-.49.721-.491 1.184l-.05 27.893c0 .465.161.858.487 1.187.324.326.718.488 1.184.489l23.43.044c.465 0 .857-.162 1.183-.486a1.61 1.61 0 0 0 .492-1.185l.036-20.084c.001-.466-.113-.976-.346-1.534m-6.373 16.025a.536.536 0 0 1-.558.556l-12.274-.021a.542.542 0 0 1-.555-.559l.002-1.117a.541.541 0 0 1 .559-.555l12.272.023a.536.536 0 0 1 .556.557l-.002 1.116zm.009-4.461a.536.536 0 0 1-.559.554l-12.273-.021a.543.543 0 0 1-.557-.559l.002-1.117a.543.543 0 0 1 .559-.555l12.273.023a.537.537 0 0 1 .557.556l-.002 1.119zm.008-4.462a.538.538 0 0 1-.559.555l-12.273-.021a.542.542 0 0 1-.557-.559l.003-1.115a.55.55 0 0 1 .157-.402.545.545 0 0 1 .401-.157l12.274.022a.543.543 0 0 1 .556.559l-.002 1.118zm-2.223-6.141l.013-6.555c.337.117.577.246.717.386l5.445 5.466c.139.14.265.377.382.714l-6.557-.011zM7.173 9.667c.142-.124.297-.244.466-.356a3.423 3.423 0 0 1 1.188-.492c.227-.047.476-.072.743-.072.363 0 .694.051.992.151.298.098.556.243.769.428.212.187.377.41.494.673.116.262.175.557.175.883 0 .316-.046.59-.139.822a2.21 2.21 0 0 1-.348.605 2.824 2.824 0 0 1-.452.444c-.164.127-.317.242-.465.354-.145.11-.27.22-.378.326a.621.621 0 0 0-.19.359l-.145.913H8.826l-.107-1.019a.295.295 0 0 1-.006-.054v-.053c0-.183.046-.343.137-.478.092-.136.206-.264.346-.383.138-.119.285-.235.443-.347.158-.113.307-.234.445-.367.137-.131.252-.279.343-.446.092-.169.138-.362.138-.589a.91.91 0 0 0-.318-.711c-.1-.085-.221-.15-.359-.196a1.479 1.479 0 0 0-.454-.071c-.237 0-.438.029-.604.08-.164.053-.306.11-.419.175a8.816 8.816 0 0 0-.292.176.414.414 0 0 1-.214.078.341.341 0 0 1-.324-.187l-.408-.646zm1.184 7.379a.94.94 0 0 1 .271-.671c.085-.083.188-.148.304-.199a.907.907 0 0 1 .375-.074.958.958 0 0 1 .67.273.948.948 0 0 1 .2.302.928.928 0 0 1 0 .742.902.902 0 0 1-.5.493.968.968 0 0 1-.37.072.975.975 0 0 1-.679-.268.936.936 0 0 1-.2-.297.943.943 0 0 1-.071-.373m34.824 17.55c.143-.123.297-.244.466-.356a3.35 3.35 0 0 1 1.188-.492c.228-.046.477-.072.744-.072.362 0 .693.052.991.151.299.098.556.242.768.428.213.188.378.41.495.673s.175.558.175.884c0 .316-.046.59-.138.821a2.19 2.19 0 0 1-.349.604 2.796 2.796 0 0 1-.453.445c-.163.127-.316.242-.464.354a3.79 3.79 0 0 0-.378.326.62.62 0 0 0-.189.359l-.146.912h-1.057l-.107-1.019a.307.307 0 0 1-.007-.054v-.053a.83.83 0 0 1 .138-.479 1.9 1.9 0 0 1 .346-.383c.138-.119.285-.235.443-.348.158-.113.308-.232.445-.367.136-.131.251-.279.343-.445.092-.17.139-.362.139-.59a.919.919 0 0 0-.319-.711 1.084 1.084 0 0 0-.36-.195 1.472 1.472 0 0 0-.453-.071c-.237 0-.438.029-.604.08-.164.053-.307.11-.419.175a7.881 7.881 0 0 0-.292.176.394.394 0 0 1-.213.078.344.344 0 0 1-.326-.187l-.407-.644zm1.183 7.379a.944.944 0 0 1 .272-.67.995.995 0 0 1 .304-.199.891.891 0 0 1 .375-.074c.13 0 .252.021.369.074a.946.946 0 0 1 .301.199.977.977 0 0 1 .275.67.92.92 0 0 1-.075.373.892.892 0 0 1-.501.493.96.96 0 0 1-.369.072.975.975 0 0 1-.679-.268.905.905 0 0 1-.2-.297.943.943 0 0 1-.072-.373"/></svg>