<svg xmlns="http://www.w3.org/2000/svg" width="55.18" height="51.66" viewBox="0 0 55.18 51.66"><path d="M42.088 12.754l-5.09-5.123a.495.495 0 0 0-.354-.147H15.255a2.311 2.311 0 0 0-2.31 2.308v32.077a2.312 2.312 0 0 0 2.31 2.309h24.669a2.313 2.313 0 0 0 2.31-2.309V13.107a.499.499 0 0 0-.146-.353m-5.14-3.756l3.755 3.781-2.469-.016a1.292 1.292 0 0 1-.922-.389 1.298 1.298 0 0 1-.378-.928l.014-2.448zm2.976 34.179H15.255c-.723 0-1.31-.588-1.31-1.309V9.791a1.31 1.31 0 0 1 1.31-1.308H35.95l-.017 2.959a2.293 2.293 0 0 0 .666 1.636 2.285 2.285 0 0 0 1.629.686l3.005.018v28.087a1.31 1.31 0 0 1-1.309 1.308"/><path d="M18.338 20.252h4.897a2.497 2.497 0 0 0 2.495-2.494V12.86a2.498 2.498 0 0 0-2.495-2.496h-4.897a2.499 2.499 0 0 0-2.496 2.496v4.898a2.498 2.498 0 0 0 2.496 2.494m2.442-3.055c1.197 0 2.178.898 2.331 2.055h-4.652a2.338 2.338 0 0 1 2.321-2.055m-1.197-2.355c0-.662.54-1.195 1.196-1.195a1.197 1.197 0 0 1 0 2.392 1.198 1.198 0 0 1-1.196-1.197m-2.741-1.983c0-.824.671-1.496 1.496-1.496h4.897c.824 0 1.495.672 1.495 1.496v4.898c0 .434-.19.823-.488 1.096a3.55 3.55 0 0 0-1.75-2.391c.404-.424.662-.994.662-1.627a2.37 2.37 0 0 0-2.369-2.371 2.376 2.376 0 0 0-2.369 2.371c0 .633.26 1.203.662 1.627a3.557 3.557 0 0 0-1.75 2.391 1.48 1.48 0 0 1-.486-1.096v-4.898zm21.117 9.721H16.856a.5.5 0 0 0 0 .999H37.96a.5.5 0 1 0-.001-.999m0 4.026H16.856c-.275 0-.5.225-.5.5s.225.5.5.5H37.96c.275 0 .5-.225.5-.5s-.225-.5-.501-.5m-21.144 3.815a.71.71 0 1 0 0 1.424.711.711 0 1 0 0-1.424m2.79 0a.71.71 0 0 0-.712.711.711.711 0 1 0 .712-.711m2.79 0a.711.711 0 1 0 0 1.424.711.711 0 0 0 0-1.424m13.519 1.002l-4.89 7.104-2.099-1.885a.5.5 0 0 0-.668.744l2.523 2.266a.497.497 0 0 0 .334.127c.02 0 .038 0 .059-.003a.504.504 0 0 0 .353-.212l5.211-7.574a.499.499 0 0 0-.129-.695.497.497 0 0 0-.694.128"/></svg>