<svg xmlns="http://www.w3.org/2000/svg" width="55.2" height="57.1" viewBox="0 0 55.2 57.1"><title>icon-france</title><path d="M43.946 17.09c.025-.541-.919.122-1.205-.415-.959-1.8-5.172-.548-5.274-2.831-.128-2.867-2.037.219-2.157-.225a4.808 4.808 0 0 0-.442-1.047 3.874 3.874 0 0 0-2.352-1.834c.114-1.754-1.51-.546-1.881-2.174-.215-.945-2.455-.108-3.056.588-.567.657-.7 1.92.275 2.025 0 0-.315 1.28-1.065 1.555-4.823 1.768-3.9 2.941-3.912 2.944-5.028 1.312-3.112-2.48-6.171-1.939 0 0 1.461 5.9.9 5.217-.652-.784-3.339.262-3.718.248-.322-.011-1.2-3.392-2.465-1.7-.7.934-1.46.092-2.8.428-2.529.632.957 2.275-.269 2.49-2.016.354.654 1.541.654 1.541a12.245 12.245 0 0 1 4.774 1.851c.212.284 1.338 1.964 1.418 2.011.047.028-.1 3.342 2.313 4.022.633.179-.84 13-2.684 13.263-1.256.178 1.016.871.762 1.3-.5.845.383.366.951.812 1.313 1.032 2.684.94 2.906 1.182 1.638 1.8 5.306-1.051 5.636 1.492.133 1.021 1.454.1 1.728.243s3.626 1.492 4.531.385c.046-.056-2.172-6.071 4.606-4.706 1.29.26 6.676 3.118 7.186 1.032.04-.163 4.57-4.357 3.137-4.613-4.522-.8-.386-2.972-2.527-3.174-2.686-.253.933-2.212.946-2.233.44-.658-1.126-1.2-1.182-1.763-.033-.328 1.151-1.13-.142-2.914-.507-.7-2.515-.364-2.515-.364S44.1 25.2 44.13 25.2c2.5.571 1.122-4.583 2.612-5.793 2.992-2.426-2.804-2.147-2.796-2.317z" data-name="GABARIT SVG"/></svg>