<svg xmlns="http://www.w3.org/2000/svg" width="55.18" height="51.66" viewBox="0 0 55.18 51.66"><path d="M22.586 7.768c1.312.396 2.543.875 3.719 1.479 6.389 3.291 10.22 8.507 11.569 15.533.898 4.69.15 9.163-2.085 13.385-.704 1.332-1.603 2.517-2.791 3.462-.113.09-.23.175-.32.243.17-.493.385-.986.51-1.502.253-1.043.121-2.086-.144-3.11-.319-1.238-.819-2.4-1.55-3.458-.116-.165-.265-.305-.397-.458l-.083.049c.038.141.083.274.11.416.081.4.214.803.218 1.207.015.94-.778 1.536-1.697 1.331-1.026-.229-1.539-1.165-1.244-2.297.245-.93.567-1.844.742-2.787.599-3.214.178-6.279-1.477-9.137a1.394 1.394 0 0 0-.326-.398c.044.251.095.5.132.751.263 1.797-.132 3.49-.948 5.067-.688 1.333-1.476 2.617-2.27 3.892-.894 1.432-1.779 2.857-2.294 4.479-.396 1.246-.618 2.514-.381 3.818.342 1.867 1.444 3.135 3.161 3.896.161.072.33.138.48.267-.43-.099-.866-.178-1.289-.302-2.098-.616-3.699-1.926-4.975-3.659-1.691-2.295-2.262-4.879-1.934-7.688.313-2.682 1.265-5.154 2.547-7.496.879-1.604 1.859-3.153 2.852-4.69.958-1.483 1.845-2.992 2.282-4.721.647-2.576.277-4.938-1.534-6.974-.172-.199-.364-.376-.583-.598"/></svg>