<svg xmlns="http://www.w3.org/2000/svg" width="55.18" height="51.66" viewBox="0 0 55.18 51.66"><path d="M27.883 10.355a.506.506 0 0 0-.381-.162.492.492 0 0 0-.373.182c-3.3 3.986-6.573 8.941-5.838 15.465.457 4.059 2.323 7.85 5.873 11.934.096.109.259.189.377.172a.503.503 0 0 0 .371-.165c8.021-8.869 8.01-18.609-.029-27.426m-.335 26.329c-3.17-3.756-4.846-7.25-5.263-10.955-.667-5.914 2.21-10.521 5.245-14.268 7.243 8.238 7.248 16.939.018 25.223m-3.291 2.412c-.076-.066-.163-.145-.277-.209-4.298-2.4-7.363-5.314-9.369-8.907-.214-.386-.671-.729-1.111-.837-3.469-.85-7.021-.561-11.521.928a.499.499 0 0 0-.292.695c3.479 7.09 8.59 10.701 15.004 10.701 2.333 0 4.841-.479 7.503-1.441a.499.499 0 1 0 .146-.858l-.083-.072zM2.844 30.842c4.052-1.271 7.283-1.494 10.417-.729.17.041.396.209.476.352 2.003 3.588 5.001 6.521 9.15 8.949-8.786 2.811-15.693-.139-20.043-8.572m50.662-.5a.495.495 0 0 0-.306-.279c-4.518-1.475-8.036-1.76-11.411-.936-.496.121-1.02.519-1.272.963-1.898 3.347-4.751 6.117-8.721 8.471-.197.117-.393.238-.601.367l-.325.203a.5.5 0 0 0 .095.896c2.664.953 5.17 1.425 7.502 1.425 6.447 0 11.567-3.611 15.028-10.693a.502.502 0 0 0 .011-.417m-21.202 9.08l.002-.002c4.124-2.443 7.094-5.336 9.08-8.836.116-.203.415-.43.642-.486 3.045-.742 6.243-.518 10.31.738-4.317 8.4-11.218 11.352-20.034 8.586"/><path d="M25.741 37.4c-.138-.314-.28-.637-.498-.932-4.761-6.455-5.887-12.346-3.541-18.543.141-.375.103-1.078-.28-1.369a246.943 246.943 0 0 0-4.164-3.064l-1.143-.831a.5.5 0 0 0-.759.22c-4.522 11.375-1.008 20.459 9.899 25.574a.497.497 0 0 0 .569-.103.503.503 0 0 0 .091-.572c-.061-.125-.117-.253-.174-.38m-9.687-23.548l.617.449a253.637 253.637 0 0 1 4.089 3.01c.02.074.024.211.007.264-2.45 6.473-1.334 12.604 3.515 19.273-9.071-4.868-11.981-12.965-8.228-22.996m23.741-.914a.503.503 0 0 0-.75-.219l-1.384.979c-1.147.811-2.281 1.613-3.424 2.4-.836.574-1.04 1.268-.663 2.246.994 2.58 1.309 5.207.938 7.807-.499 3.494-2.008 6.886-4.613 10.365-.208.278-.348.58-.482.873-.056.119-.11.24-.17.356a.494.494 0 0 0-.031.384.505.505 0 0 0 .252.292l.367.183a.505.505 0 0 0 .452-.004c10.717-5.512 14.094-14.625 9.508-25.662m-9.227 24.378a2.05 2.05 0 0 1 .132-.201c2.708-3.618 4.279-7.158 4.803-10.822.396-2.771.061-5.566-.996-8.309-.225-.586-.129-.77.298-1.063 1.146-.79 2.283-1.595 3.434-2.407l.867-.613c3.901 9.972.883 18.244-8.538 23.415"/></svg>