<svg xmlns="http://www.w3.org/2000/svg" width="55.18" height="51.66" viewBox="0 0 55.18 51.66"><path d="M42.037 12.801l-5.071-5.106a.498.498 0 0 0-.355-.146H15.3a2.305 2.305 0 0 0-2.303 2.302v31.96a2.305 2.305 0 0 0 2.303 2.303h24.58a2.305 2.305 0 0 0 2.303-2.303V13.152a.494.494 0 0 0-.146-.351m-5.121-3.738l3.736 3.762-2.456-.015a1.306 1.306 0 0 1-1.295-1.31l.015-2.437zm2.964 34.049H15.3a1.304 1.304 0 0 1-1.303-1.303V9.85c0-.719.584-1.302 1.303-1.302h20.619l-.018 2.945a2.305 2.305 0 0 0 2.29 2.316l2.992.018V41.81c0 .718-.584 1.302-1.303 1.302"/><path d="M38.588 35.042H21.703a.5.5 0 0 0 0 1h16.885a.5.5 0 0 0 0-1m-16.854-3.575a.5.5 0 0 0-.695.129l-3.189 4.635-1.277-1.147a.5.5 0 1 0-.668.744l1.701 1.528a.502.502 0 0 0 .334.127c.02 0 .039 0 .059-.003a.504.504 0 0 0 .353-.214l3.511-5.104a.499.499 0 0 0-.129-.695m16.854-3.638H21.703a.5.5 0 0 0 0 1h16.885a.5.5 0 0 0 0-1m-20.982 2.067a.5.5 0 0 0 .746-.089l3.511-5.104a.5.5 0 0 0-.824-.566l-3.189 4.635-1.277-1.146a.498.498 0 0 0-.706.039.499.499 0 0 0 .038.705l1.701 1.526zm20.982-9.526H21.703a.5.5 0 0 0 0 1h16.885a.5.5 0 0 0 0-1m-20.982 2.068a.498.498 0 0 0 .746-.089l3.511-5.103a.501.501 0 0 0-.824-.567l-3.189 4.635-1.277-1.147a.5.5 0 1 0-.668.745l1.701 1.526z"/></svg>