<svg xmlns="http://www.w3.org/2000/svg" viewBox="0 0 55.2 51.7"><path d="M45.1 28.5c-.1-.8-.8-1.3-2-1.1 0-.1-.1-.1-.1-.2-1.2-3-3.2-5.2-6-6.9-3-1.8-6.3-2.5-9.8-2.3h-.4c-3 .2-5.8 1.1-8.3 2.9-.3.2-.5.2-.8.1-1.3-.5-2.5-.6-3.6 0-.3.2-.7.4-1 .7.6.9 1.3 1.7 1.8 2.5-.7 1.5-1.4 2.9-2.1 4.5h-.5c-1.1 0-2 .5-2.3 1.5-.1.3-.2.6-.2 1v6.3c0 1.4 1 2.4 2.4 2.4H15c.2 0 .5.1.6.3.9.8 1.9 1.7 2.8 2.5.3.2.4.4.4.8v2.8c.1.9.7 1.5 1.6 1.5h2.5c.7 0 1.2-.3 1.5-.9.1-.2.1-.4.2-.6v-.9c1 .2 2 .3 2.9.3.7 0 1.4 0 2.1-.1.5 0 1-.1 1.5-.2v.6c0 1.1.6 1.8 1.8 1.8H35c.3 0 .6 0 .9-.1.7-.2 1-.8 1-1.8v-2.2c0-.3.1-.5.4-.7.6-.4 1.2-.8 1.7-1.3 3.2-2.8 4.9-6.4 4.7-10.7 0-.3-.1-.7-.1-1h.1c1.1-.3 1.6-.9 1.4-1.5zm-11-5c-1.1-.6-2.3-1-3.5-1.2-2.6-.5-5.1-.1-7.6 1 0 0-.1 0-.1.1-.5.2-.9.1-1.1-.3-.2-.4-.1-.8.4-1 .6-.3 1.1-.5 1.7-.7 1.4-.5 2.9-.8 4.2-.7 2.4 0 4.4.5 6.3 1.4.1 0 .2.1.3.2.4.3.6.7.4 1-.2.3-.6.4-1 .2zm-13.9 5.8c0 .7-.5 1.2-1.2 1.2s-1.2-.5-1.2-1.2.5-1.2 1.2-1.2c.6 0 1.2.6 1.2 1.2zm7.9-25.4c-3.5 0-6.4 2.8-6.4 6.3s2.9 6.3 6.4 6.3c3.5 0 6.4-2.8 6.4-6.3 0-3.4-2.9-6.3-6.4-6.3m1.1 5.4v.7h-1.6v.5H29v.7h-1.2c.1.3.2.6.4.8s.4.2.8.2c.2 0 .4 0 .6-.1.2 0 .4-.1.5-.2V13c-.2.1-.3.1-.5.2-.2 0-.4.1-.7.1-.7 0-1.2-.2-1.6-.5-.4-.4-.6-.9-.8-1.5h-.6v-.7h.5v-.4h-.5v-.9h.5c.1-.3.1-.6.3-.9.1-.3.3-.5.5-.7.2-.2.4-.3.7-.4.3-.1.6-.1.9-.1.3 0 .5 0 .8.1.2.1.5.1.7.3l-.4 1c-.2-.1-.4-.2-.5-.2-.2 0-.3-.1-.5-.1-.3 0-.5.1-.7.3-.2.2-.3.5-.4.8h1.4z"/></svg>