<svg xmlns="http://www.w3.org/2000/svg" width="55.18" height="51.66" viewBox="0 0 55.18 51.66"><path d="M45.247 28.28c-.136-.834-.734-1.633-2.151-1.57-1.194-2.793-3.192-5.064-5.94-6.751-2.874-1.767-6.138-2.517-9.965-2.306-3.233.18-6.143 1.162-8.649 2.92-.107.072-.117.08-.264.018-1.933-.8-3.626-.537-5.034.779a.5.5 0 0 0-.061.664l1.604 2.158-1.81 3.805h-.155c-1.765.008-2.906 1.154-2.908 2.921l-.001.724c-.003 1.809-.006 3.617.003 5.426.007 1.621 1.193 2.806 2.818 2.816.315.004.633.002.949 0 .58-.002 1.158-.004 1.735.014a.622.622 0 0 1 .306.15c.389.344.77.695 1.15 1.047.531.49 1.063.979 1.61 1.448.194.167.21.229.208.377l-.003.233c-.016.836-.031 1.701.033 2.559.087 1.143.904 1.887 2.081 1.895.826.006 1.65.006 2.477 0 1.125-.01 1.958-.772 2.071-1.898.011-.105.018-.21.023-.318 1.809.303 3.599.321 5.441.057v.029c.036 1.4.853 2.207 2.243 2.213h2.096c1.525-.002 2.338-.817 2.35-2.357l.003-.438c.005-.576.01-1.15-.01-1.728-.006-.149.005-.187.15-.282.521-.352 1.131-.775 1.688-1.27 3.334-2.963 4.921-6.612 4.716-10.846a10.079 10.079 0 0 0-.048-.578c.911-.372 1.381-1.077 1.244-1.911m-1.909 1.08a.5.5 0 0 0-.37.529l.031.303c.022.205.045.416.056.625.191 3.972-1.242 7.258-4.382 10.049-.512.455-1.087.855-1.581 1.186-.423.285-.611.65-.593 1.15.02.561.015 1.121.01 1.684l-.003.438c-.008.994-.374 1.363-1.351 1.365h-2.093c-.84-.004-1.224-.387-1.245-1.236l-.002-.354.002-.238a.503.503 0 0 0-.587-.492c-2.117.371-4.156.35-6.232-.064a.502.502 0 0 0-.596.467l-.013.301c-.007.188-.014.363-.029.535-.064.621-.471.994-1.087 1-.82.006-1.639.006-2.461 0-.38-.002-1.026-.131-1.09-.971-.063-.811-.047-1.65-.031-2.465l.003-.236c.008-.584-.263-.898-.557-1.15a56.279 56.279 0 0 1-1.584-1.426c-.386-.354-.771-.711-1.164-1.059-.209-.186-.564-.389-.935-.402-.592-.018-1.183-.016-1.775-.014-.313.002-.625.004-.938 0-1.087-.007-1.82-.74-1.825-1.82a816.616 816.616 0 0 1-.003-5.422l.001-.722c.002-1.198.717-1.917 1.913-1.923h.466a.498.498 0 0 0 .451-.285l2.075-4.361a.5.5 0 0 0-.05-.514l-1.505-2.023c1.043-.793 2.206-.887 3.63-.299.454.191.833.151 1.222-.125 2.384-1.67 5.043-2.566 8.13-2.738 3.617-.201 6.69.504 9.386 2.158 2.624 1.612 4.514 3.787 5.618 6.469l.085.184a.496.496 0 0 0 .528.277c1.237-.199 1.36.479 1.397.703.088.532-.453.791-.922.916"/><path d="M19.158 28.013a1.183 1.183 0 0 0-.023 2.363c.662 0 1.188-.514 1.191-1.17s-.511-1.185-1.168-1.193m1.807-5.754a.502.502 0 1 0 .487.875c7.456-4.145 12.981-.205 13.214-.035a.499.499 0 0 0 .593-.804c-.063-.046-6.256-4.499-14.294-.036m7.437-5.863a6.22 6.22 0 0 0 6.212-6.213c0-3.424-2.787-6.211-6.212-6.211s-6.212 2.787-6.212 6.211a6.22 6.22 0 0 0 6.212 6.213m0-11.424a5.218 5.218 0 0 1 5.212 5.211c0 2.875-2.338 5.213-5.212 5.213s-5.212-2.338-5.212-5.213a5.218 5.218 0 0 1 5.212-5.211"/><path d="M25.479 11.056l.412.016c.16.645.484 1.165.977 1.559.491.396 1.074.604 1.75.629.057.002.112.002.167.002a3.021 3.021 0 0 0 .304-.022c.049-.008.093-.012.13-.018l.112-.018.094-.021c.027-.006.051-.014.072-.016a.269.269 0 0 0 .045-.014l.021-.002a.134.134 0 0 0 .075-.063.114.114 0 0 0 .017-.097l-.128-.694a.132.132 0 0 0-.173-.105l-.021.009c-.012 0-.029.006-.053.01l-.08.016a.861.861 0 0 1-.106.018c-.043.006-.085.012-.129.016a2.847 2.847 0 0 1-.302.012 1.729 1.729 0 0 1-.978-.334 1.733 1.733 0 0 1-.619-.824l1.676.059a.132.132 0 0 0 .089-.029.138.138 0 0 0 .049-.078l.12-.48a.142.142 0 0 0-.02-.119.135.135 0 0 0-.107-.056l-1.986-.071a3.771 3.771 0 0 1 .014-.453l2.115.074c.076.004.125-.033.142-.107l.122-.488a.118.118 0 0 0-.026-.113.124.124 0 0 0-.105-.057l-2.027-.072c.156-.318.382-.568.677-.74.296-.174.624-.256.988-.242.041.002.084.004.128.012.044.002.087.008.126.014l.111.016c.035.004.068.014.097.019a.561.561 0 0 0 .076.019c.02.004.036.01.049.016l.019.002c.037.014.07.01.103-.008a.115.115 0 0 0 .063-.082l.213-.682a.143.143 0 0 0-.011-.102c-.026-.038-.055-.061-.085-.068a3.33 3.33 0 0 0-.837-.131 2.875 2.875 0 0 0-1.751.492c-.525.35-.893.824-1.108 1.426l-.425-.016a.146.146 0 0 0-.102.033.153.153 0 0 0-.043.102l-.016.492a.13.13 0 0 0 .033.102.133.133 0 0 0 .1.041l.291.01c-.016.141-.02.291-.022.453l-.286-.01a.14.14 0 0 0-.096.039.13.13 0 0 0-.047.096l-.018.488c0 .041.01.07.036.102a.146.146 0 0 0 .094.038"/></svg>