<svg xmlns="http://www.w3.org/2000/svg" width="55.18" height="51.66" viewBox="0 0 55.18 51.66"><path d="M44.298 42.435l-5.695-18.318a.5.5 0 0 0-.477-.352h-5c1.408-2.688 2.557-5.398 2.557-7.094 0-4.463-3.631-8.094-8.093-8.094-4.463 0-8.094 3.631-8.094 8.094 0 1.695 1.148 4.406 2.557 7.094h-4.999a.502.502 0 0 0-.478.352l-5.694 18.318a.5.5 0 0 0 .477.648H43.82a.502.502 0 0 0 .478-.648M27.59 9.577c3.911 0 7.093 3.182 7.093 7.094 0 3.439-5.521 12.014-7.093 14.385-1.573-2.371-7.094-10.943-7.094-14.385 0-3.912 3.183-7.094 7.094-7.094M12.038 42.083l5.384-17.318h5.167c2.056 3.758 4.414 7.215 4.589 7.469a.497.497 0 0 0 .824 0c.175-.254 2.531-3.711 4.589-7.469h5.167l5.384 17.318H12.038z"/><path d="M31.372 17.011a3.786 3.786 0 0 0-3.782-3.783 3.786 3.786 0 0 0-3.782 3.783 3.786 3.786 0 0 0 3.782 3.781 3.786 3.786 0 0 0 3.782-3.781m-6.564 0a2.785 2.785 0 0 1 2.782-2.783 2.785 2.785 0 0 1 2.782 2.783 2.785 2.785 0 0 1-2.782 2.781 2.785 2.785 0 0 1-2.782-2.781"/></svg>