<svg xmlns="http://www.w3.org/2000/svg" width="55.18" height="51.66" viewBox="0 0 55.18 51.66"><path d="M13.504 42.605h28.171a1.57 1.57 0 0 1 1.569 1.57v.03a1.57 1.57 0 0 1-1.569 1.569H13.504a1.57 1.57 0 0 1-1.569-1.569v-.03c0-.866.703-1.57 1.569-1.57M26.152 6.962s3.994 3.695 0 8.009c-3.992 4.313-7.027 3.514-8.221 9.723-1.338 6.974 6.783 13.716 11.574 16.292 4.793 2.58-3.729-6.812 2.078-11.318 5.91-4.59 6.709-4.793 6.709-11.022 0-6.231-8.146-11.822-10.704-12.46-2.554-.64-2.235-.204-1.436.776"/></svg>