<svg xmlns="http://www.w3.org/2000/svg" width="55.18" height="51.66" viewBox="0 0 55.18 51.66"><path d="M27.589 7.452c-6.819 0-12.369 5.549-12.369 12.367 0 6.635 11.47 23.457 11.957 24.172a.502.502 0 0 0 .824 0c.488-.715 11.958-17.537 11.958-24.172 0-6.818-5.548-12.367-12.37-12.367m0 35.36C25.502 39.687 16.22 25.464 16.22 19.819c0-6.268 5.101-11.367 11.369-11.367 6.271 0 11.37 5.1 11.37 11.367 0 5.645-9.283 19.868-11.37 22.993"/><path d="M31.05 13.456c-.799-.486-1.882-.816-2.971-.906-1.557-.129-3.125.303-4.32 1.178-1.027.75-1.844 1.977-2.24 3.363-.318 1.105-.515 2.816.356 4.678.229.488.523.934.815 1.377.423.637.858 1.297 1.009 2.031.049.238.054.447.059.668.005.264.01.537.111.816.234.635.922 1.281 1.637 1.537.473.168 1.049.182 1.599.182l1.32.012c.377 0 .813-.018 1.191-.141.805-.26 1.461-.959 1.693-1.516.127-.301.148-.658.173-1.035.013-.18.023-.365.056-.529.16-.813.545-1.381.991-2.041.297-.438.634-.936.889-1.523a6.753 6.753 0 0 0 .227-4.688c-.463-1.477-1.409-2.736-2.595-3.463M27.612 27.03c-.098-.592-.313-1.877-.513-3.004l.108.148c.07.096.183.152.3.152h.002a.382.382 0 0 0 .301-.148l.182-.242c-.155 1.01-.334 2.297-.38 3.094m4.888-5.82c-.217.502-.513.938-.799 1.359-.465.688-.945 1.396-1.143 2.41-.04.201-.059.43-.076.688-.017.264-.034.535-.096.684-.14.336-.592.793-1.076.949-.248.08-.604.092-.886.092l-.073-.002c-.013-1.111.614-4.787.621-4.824a.379.379 0 0 0-.222-.408.377.377 0 0 0-.447.119l-.79 1.049-.787-1.068a.374.374 0 0 0-.455-.119.374.374 0 0 0-.214.42c.238 1.125.757 4.25.852 4.82-.397-.004-.791-.023-1.066-.121-.438-.156-.901-.578-1.033-.941-.045-.121-.048-.281-.053-.508s-.011-.506-.076-.832c-.19-.924-.682-1.664-1.162-2.395-.266-.398-.539-.813-.737-1.236-.74-1.58-.573-3.035-.302-3.979.337-1.178 1.018-2.211 1.87-2.832.888-.65 2.028-1.008 3.188-1.008.153 0 .308.006.459.02.939.076 1.861.355 2.531.766.983.598 1.77 1.658 2.16 2.906a5.73 5.73 0 0 1-.188 3.991m-2.907 9.019l-3.859-.58a.28.28 0 0 0-.314.23l-.041.277a.278.278 0 0 0 .231.313l3.859.58a.278.278 0 0 0 .313-.23l.042-.275a.28.28 0 0 0-.231-.315m0-1.031l-3.859-.58a.278.278 0 0 0-.314.23l-.041.275a.276.276 0 0 0 .231.313l3.859.582a.278.278 0 0 0 .313-.232l.042-.275a.278.278 0 0 0-.231-.313m-.138 2.043l-.467-.068-2.722-.41-.396-.061a.416.416 0 0 0-.123.821l.222.033.064.01a1.556 1.556 0 0 0 3.07.461l.229.035a.416.416 0 0 0 .472-.348.418.418 0 0 0-.349-.473"/><path d="M27.421 20.657c.367-.771.884-1.346 1.699-1.598a4.166 4.166 0 0 0-1.442 2.264c2.131.105 3.235-1.688 2.996-3.449-2.087-.111-3.441 1.16-3.253 2.783m-2.313-1.707c-.044 1.186.667 2.043 1.589 1.889-.387-.217-.707-.473-.836-.848l1.291.811c.035-1.278-.975-2.115-2.044-1.852"/></svg>