<svg xmlns="http://www.w3.org/2000/svg" width="55.2" height="51.7" viewBox="0 0 55.2 51.7"><circle cx="10.6" cy="31.3" r=".7"/><circle cx="13.5" cy="31.3" r=".7"/><circle cx="16.4" cy="31.3" r=".7"/><path d="M32.4 23.5H10.7a.5.5 0 0 1 0-1h21.7a.5.5 0 0 1 0 1zm0 4.1H10.7a.5.5 0 0 1 0-1h21.7a.5.5 0 0 1 0 1z"/><path d="M50.799 25.6h-2.508c-.182-.716-.588-2.176-1.042-2.959l1.514-1.597a.5.5 0 0 0 0-.688l-3.601-3.8a.5.5 0 0 0-.655-.062l-2.269 1.634-2.638-1.155V14.3a.5.5 0 0 0-.5-.5H37a.496.496 0 0 0-.201.043V12.7a.502.502 0 0 0-.143-.35l-5.199-5.3a.498.498 0 0 0-.357-.15H9a2.403 2.403 0 0 0-2.4 2.4v33.1A2.402 2.402 0 0 0 9 44.799h25.4a2.394 2.394 0 0 0 2.263-1.636c.09.083.207.136.338.136h2.1a.5.5 0 0 0 .5-.5v-2.673l2.639-1.154 2.269 1.634a.5.5 0 0 0 .655-.063l3.601-3.8a.5.5 0 0 0 0-.688l-1.482-1.564c.512-.782.874-2.268 1.029-2.991h2.489a.5.5 0 0 0 .5-.5v-4.9a.503.503 0 0 0-.502-.5zm-14-3.443A.5.5 0 0 0 37 22.2c5.414 0 6.6 4.548 6.6 6.3s-1.186 6.299-6.6 6.299a.496.496 0 0 0-.201.044V22.157zm-5.5-13.84l4.005 4.083H32.7c-.674 0-1.4-.535-1.4-1.4V8.317zM34.4 43.799H9c-.673 0-1.4-.535-1.4-1.399V9.3c0-.673.535-1.4 1.4-1.4h21.299V11c0 1.323 1.077 2.4 2.4 2.4h3.1v29c0 .673-.535 1.399-1.399 1.399zM50.299 30.5H47.9a.5.5 0 0 0-.493.417c-.133.793-.704 2.771-1.007 3.125a.5.5 0 0 0-.163.802l1.475 1.556-2.975 3.139-2.146-1.545a.499.499 0 0 0-.492-.052L38.9 39.341a.499.499 0 0 0-.3.458v2.5H37a.496.496 0 0 0-.201.044v-6.588a.5.5 0 0 0 .201.044c5.536 0 7.6-4.477 7.6-7.299 0-2.935-2.023-7.3-7.6-7.3a.496.496 0 0 0-.201.043v-6.487A.484.484 0 0 0 37 14.8h1.6v2.5c0 .199.117.378.3.458l3.199 1.4a.5.5 0 0 0 .492-.052l2.146-1.545 2.975 3.139-1.475 1.556c-.108.115-.191.251-.163.407.027.156.093.266.234.337.291.313.992 2.546 1.099 3.182a.5.5 0 0 0 .493.417h2.399V30.5z"/><path d="M17.2 9.8h-5.1a2.603 2.603 0 0 0-2.6 2.6v5.1c0 1.434 1.167 2.6 2.6 2.6h5.1c1.434 0 2.6-1.167 2.6-2.6v-5.1c0-1.434-1.166-2.6-2.6-2.6zm-2.5 7.1c1.232 0 2.272.991 2.379 2.2h-4.758c.107-1.209 1.147-2.2 2.379-2.2zm-1.2-2.4c0-.7.5-1.2 1.2-1.2s1.2.5 1.2 1.2-.5 1.2-1.2 1.2-1.2-.5-1.2-1.2zm5.3 3c0 .435-.208.881-.556 1.193A3.669 3.669 0 0 0 16.4 16.1c.4-.4.7-1 .7-1.7 0-1.4-1.1-2.4-2.4-2.4-1.3 0-2.4 1.1-2.4 2.4 0 .7.3 1.2.7 1.7a3.668 3.668 0 0 0-1.858 2.66 1.563 1.563 0 0 1-.642-1.26v-5.1c0-.773.643-1.6 1.6-1.6h5.1c.772 0 1.6.643 1.6 1.6v5.1zm6.6 22.7a.5.5 0 0 1-.331-.125l-2.6-2.3a.5.5 0 1 1 .663-.75l2.179 1.927 5.079-7.336a.499.499 0 1 1 .822.568l-5.399 7.8a.5.5 0 0 1-.413.216z"/></svg>