<svg xmlns="http://www.w3.org/2000/svg" width="55.18" height="51.66" viewBox="0 0 55.18 51.66"><path d="M42.07 12.77l-5.083-5.117a.493.493 0 0 0-.354-.146H15.27a2.308 2.308 0 0 0-2.306 2.305v32.037a2.31 2.31 0 0 0 2.306 2.307h24.639a2.311 2.311 0 0 0 2.308-2.307V13.123a.5.5 0 0 0-.147-.353m-5.133-3.75l3.748 3.775-2.463-.016a1.288 1.288 0 0 1-.921-.389 1.293 1.293 0 0 1-.378-.925l.014-2.445zm2.972 34.134H15.27c-.72 0-1.306-.586-1.306-1.307V9.811c0-.72.586-1.305 1.306-1.305h20.67l-.017 2.954a2.28 2.28 0 0 0 .666 1.634c.433.439 1.01.682 1.627.686l3 .019v28.05c0 .719-.586 1.305-1.307 1.305"/><path d="M36.656 25.633H18.229a.5.5 0 0 0 0 1h18.427a.5.5 0 1 0 0-1m0-4.158H18.229a.5.5 0 0 0 0 1h18.427a.5.5 0 1 0 0-1m0-4.159H18.229a.5.5 0 0 0 0 1h18.427a.5.5 0 1 0 0-1m0 20.791H18.229a.5.5 0 0 0 0 1h18.427a.5.5 0 0 0 0-1m0-4.158H18.229a.5.5 0 0 0 0 1h18.427a.5.5 0 0 0 0-1m0-4.158H18.229a.5.5 0 0 0 0 1h18.427a.5.5 0 1 0 0-1"/></svg>