<svg xmlns="http://www.w3.org/2000/svg" width="55.18" height="51.66" viewBox="0 0 55.18 51.66"><path d="M45.444 44.497H10.236v-.137L15 37.243c.438.277.952.443 1.508.443a2.835 2.835 0 0 0 2.832-2.832 2.81 2.81 0 0 0-.413-1.451l8.538-4.785a2.825 2.825 0 0 0 2.457 1.449c1.17 0 2.176-.713 2.606-1.729l7.303 2.184c-.016.121-.037.242-.037.367 0 1.563 1.271 2.832 2.832 2.832s2.832-1.27 2.832-2.832a2.836 2.836 0 0 0-2.832-2.832 2.821 2.821 0 0 0-2.49 1.512l-7.395-2.211c.002-.041.013-.082.013-.123 0-1.563-1.271-2.832-2.832-2.832s-2.832 1.27-2.832 2.832c0 .145.021.283.042.422l-8.885 4.98a2.8 2.8 0 0 0-1.739-.615 2.835 2.835 0 0 0-2.832 2.832c0 .641.222 1.227.581 1.699l-4.021 6.01V9.474a.5.5 0 1 0-1 0v35.523a.5.5 0 0 0 .5.5h35.708a.5.5 0 0 0 0-1m-2.818-15.439c1.01 0 1.832.822 1.832 1.832s-.822 1.832-1.832 1.832-1.832-.822-1.832-1.832.823-1.832 1.832-1.832m-12.704-3.655c1.01 0 1.832.822 1.832 1.832s-.822 1.832-1.832 1.832-1.832-.822-1.832-1.832.823-1.832 1.832-1.832m-13.414 7.619c1.01 0 1.832.822 1.832 1.832s-.822 1.832-1.832 1.832-1.832-.822-1.832-1.832.823-1.832 1.832-1.832"/><path d="M29.922 22.442a.501.501 0 0 0 .412-.217c.211-.309 5.159-7.568 5.159-10.49 0-3.072-2.499-5.572-5.571-5.572s-5.571 2.5-5.571 5.572c0 2.922 4.948 10.182 5.159 10.49a.501.501 0 0 0 .412.217m0-15.279a4.576 4.576 0 0 1 4.571 4.572c0 1.979-2.993 6.92-4.571 9.311-1.578-2.391-4.571-7.33-4.571-9.311a4.576 4.576 0 0 1 4.571-4.572"/><path d="M32.18 11.888c0-1.246-1.013-2.26-2.258-2.26s-2.259 1.014-2.259 2.26c0 1.244 1.014 2.258 2.259 2.258s2.258-1.014 2.258-2.258m-3.516 0c0-.693.564-1.26 1.259-1.26a1.259 1.259 0 1 1-1.259 1.26"/></svg>