<svg xmlns="http://www.w3.org/2000/svg" width="55.18" height="51.66" viewBox="0 0 55.18 51.66"><path d="M39.849 16.694a9.018 9.018 0 0 0-5.623 1.943c-.064.051-1.582 1.266-3.698 3.652v-5.035a.5.5 0 1 0-1 0v6.074c0 .277.223.5.5.5h6.141a.499.499 0 1 0 0-1h-4.781c1.995-2.232 3.444-3.396 3.457-3.404a8.013 8.013 0 0 1 5.004-1.73c4.47 0 8.105 3.637 8.105 8.105s-3.635 8.105-8.105 8.105a8.094 8.094 0 0 1-3.893-.996c-.006-.004-.012-.002-.019-.006-.797-.389-1.64-1.027-2.161-1.43-.153-.117-.282-.217-.385-.293-.378-.273-2.65-2.633-4.848-4.916-3.272-3.398-6.656-6.914-7.592-7.592-.029-.021-.06-.029-.091-.041a8.998 8.998 0 0 0-5.53-1.877c-5.02 0-9.104 4.084-9.104 9.104 0 4.971 4.002 9.023 8.951 9.105.012.002.025.002.036.002h.117c1.226 0 2.44-.25 3.567-.729 1.967-.801 3.477-2.127 4.498-3.258a9.976 9.976 0 0 0 1.074-1.281v4.768a.5.5 0 0 0 1 0v-6.078a.5.5 0 0 0-.5-.5h-6.142a.5.5 0 0 0 0 1h4.944c-.268.387-.702.965-1.305 1.604-1.462 1.412-3.226 2.469-3.243 2.479a4.729 4.729 0 0 1-.157.084c-1.102.537-2.37.9-3.793.912-4.443-.033-8.047-3.656-8.047-8.107 0-4.469 3.636-8.104 8.104-8.104 1.835 0 3.565.598 5.004 1.729.027.021.059.029.088.043.951.734 4.518 4.439 7.401 7.432 2.81 2.918 4.553 4.723 4.981 5.033.096.068.218.164.361.273.605.467 1.618 1.248 2.589 1.666.016.006.032.004.047.01a9.106 9.106 0 0 0 4.048.965c5.021 0 9.105-4.086 9.105-9.105 0-5.022-4.084-9.106-9.105-9.106"/></svg>