<svg xmlns="http://www.w3.org/2000/svg" width="55.18" height="51.66" viewBox="0 0 55.18 51.66"><path d="M38.593 33.205c5.653-5.473 8.523-15.629 1.465-24.998a.502.502 0 0 0-.7-.098.498.498 0 0 0-.099.699c6.693 8.885 3.986 18.502-1.361 23.678-3.679 3.559-8.466 5.291-13.469 4.881-5.006-.412-9.706-2.971-12.573-6.844a.505.505 0 0 0-.7-.105.503.503 0 0 0-.105.701c3.037 4.102 8.007 6.811 13.296 7.244.369.031.734.037 1.1.047v6.621h-8.273a.5.5 0 1 0 0 1h17.548a.5.5 0 1 0 0-1h-8.275V38.4c4.523-.14 8.777-1.933 12.146-5.195"/><path d="M25.948 34.758c8.031 0 14.564-6.533 14.564-14.564S33.979 5.629 25.948 5.629c-8.031 0-14.564 6.533-14.564 14.564s6.533 14.565 14.564 14.565m0-28.129c7.479 0 13.564 6.084 13.564 13.564 0 7.479-6.085 13.564-13.564 13.564s-13.564-6.086-13.564-13.564c0-7.48 6.085-13.564 13.564-13.564"/></svg>