<svg xmlns="http://www.w3.org/2000/svg" width="55.18" height="51.66" viewBox="0 0 55.18 51.66"><path d="M27.59 7.789c-9.965 0-18.042 8.076-18.042 18.041s8.077 18.041 18.042 18.041c9.964 0 18.042-8.076 18.042-18.041S37.554 7.789 27.59 7.789m-2.708 5.012c0-.299.241-.543.541-.543h3.875c.299 0 .54.244.54.543v3.875a.54.54 0 0 1-.54.541h-3.875a.54.54 0 0 1-.541-.541v-3.875zm8.166 24.117a.624.624 0 0 1-.625.625h-9.666a.623.623 0 0 1-.625-.625v-3.117c0-.346.278-.625.625-.625h2.021a.623.623 0 0 0 .625-.625v-6.883a.623.623 0 0 0-.625-.625h-2.021a.623.623 0 0 1-.625-.625v-3.117c0-.346.278-.625.625-.625h6.353c.347 0 .625.279.625.625l.039 3.742v7.508c0 .346.28.625.625.625h2.024c.346 0 .625.279.625.625v3.117z"/></svg>