<svg xmlns="http://www.w3.org/2000/svg" width="55.18" height="51.66" viewBox="0 0 55.18 51.66"><path d="M33.504 4.519c-.024-.008-.051-.018-.077-.021a22.042 22.042 0 0 0-9.592-.463.352.352 0 0 0-.077.016c-6.205 1.088-11.524 4.768-14.803 9.883a.484.484 0 0 0-.115.18 21.979 21.979 0 0 0-3.371 11.717c0 12.197 9.923 22.121 22.12 22.121S49.71 38.026 49.71 25.829c0-10.148-6.872-18.715-16.206-21.31M48.646 24.55c-.181.082-.864.342-1.464-.104-.316-.236-.604-.232-.785-.191-.535.121-.836.701-1.187 1.373-.343.656-.73 1.402-1.313 1.74-.397.23-.82.084-1.103-.08-.984-.566-1.978-2.252-1.978-4.738 0-1.008.027-1.928.054-2.77.076-2.463.131-4.24-.561-5.66-.605-1.244-1.529-1.684-2.271-2.035a7.034 7.034 0 0 1-.577-.293c.197-.008.405-.01.578-.012 1.131-.014 2.025-.023 2.27-.627.131-.318.021-.654-.323-1-1.09-1.09-1.979-1.08-2.922-1.08a6.666 6.666 0 0 1-1.276-.072c-.747-.125-1.418-1.797-1.777-3.285 8.122 2.597 14.101 9.99 14.635 18.834M23.63 5.095c.387.654 1.304 2.24 1.717 3.271.461 1.154 1.333 1.779 1.911 2.193.089.064.172.123.243.176-.258.322-1.095.854-1.472.783-.825-.135-4.013-.219-4.536 1.877-.15.605-.401.941-.667 1.295-.396.531-.806 1.08-.714 2.285l.008.129-.079-.047c-.392-.232-.931-.553-1.57-.617-1.086-.105-2.418.404-3.181 1.217-.541.578-.764 1.256-.646 1.963.229 1.389 1.245 1.357 1.861 1.336.425-.016.695-.014.877.168.278.277.304.572.333.943.037.438.087 1.035.701 1.445.644.426 1.563.107 2.534-.234.637-.221 1.36-.473 1.728-.381.358.09.854.398 1.378.725.906.564 1.935 1.205 2.985 1.205 1.407 0 2.623 0 3.294.895l.174.234c.43.58.522.664 1.186.836.268.07.674.176 1.342.404 1.116.383 1.647 1.084 1.896 1.605.314.658.359 1.41.123 2.061-.559 1.537-2.13 3.463-2.814 3.658-1.196.342-1.898 1.947-1.725 3.129-.083.242-1.076.668-1.611.898-.79.34-1.606.689-2.08 1.162-1.125 1.125-1.104 2.58-.965 4.227.009.117 0 .254-.057.289-.092.059-.394.057-.749-.139-.307-.168-.664-.496-.659-.869.001-.08.017-.301.04-.617.251-3.457.398-7.148-.405-8.297-.379-.543-.938-1.014-1.479-1.471-.915-.771-1.779-1.5-1.853-2.521a25.917 25.917 0 0 1-.047-1.129c-.058-1.949-.127-4.373-1.856-4.73-.798-.166-1.753-1.129-2.52-1.9-.73-.734-1.257-1.266-1.771-1.32-2.459-.266-4.581-4.584-4.689-6.764 3.076-4.795 8.024-8.27 13.814-9.373m3.959 41.855c-11.646 0-21.12-9.475-21.12-21.121 0-3.637.926-7.063 2.552-10.055.653 2.609 2.754 6.166 5.368 6.449.203.051.766.619 1.178 1.033.906.914 1.935 1.947 3.026 2.174.955.199 1.014 2.184 1.06 3.781.012.416.023.814.049 1.172.104 1.441 1.22 2.383 2.206 3.215.514.434.999.842 1.304 1.277.323.463.625 2.166.228 7.652-.026.352-.042.59-.043.678-.008.682.443 1.354 1.177 1.758a2.26 2.26 0 0 0 1.061.297c.27 0 .516-.066.715-.195.217-.139.568-.484.509-1.211-.145-1.727-.079-2.68.676-3.438.337-.336 1.098-.662 1.768-.949 1.202-.518 2.338-1.004 2.205-1.938-.107-.762.337-1.854 1.012-2.049 1.246-.357 2.942-2.803 3.479-4.277.328-.9.27-1.934-.16-2.834-.468-.98-1.346-1.732-2.474-2.119a16.758 16.758 0 0 0-1.416-.426c-.358-.094-.358-.094-.63-.463l-.179-.24c-.972-1.295-2.56-1.295-4.095-1.295-.765 0-1.663-.561-2.457-1.055-.593-.369-1.152-.717-1.664-.846-.658-.162-1.492.127-2.3.408-.566.197-1.424.496-1.649.346-.195-.131-.224-.277-.259-.695-.036-.436-.086-1.033-.623-1.568-.495-.496-1.143-.475-1.616-.461-.636.02-.758.014-.844-.5-.064-.393.065-.768.392-1.113.61-.654 1.679-.977 2.35-.908.419.043.829.287 1.159.482.403.24.822.488 1.219.242.383-.236.4-.746.36-1.26-.064-.83.168-1.139.518-1.609.284-.379.637-.852.837-1.652.312-1.238 2.739-1.242 3.401-1.131.918.152 2.25-.758 2.587-1.412.18-.348.143-.701-.098-.941a4.193 4.193 0 0 0-.515-.406c-.512-.365-1.212-.869-1.564-1.752-.379-.945-1.123-2.273-1.581-3.063a21.094 21.094 0 0 1 2.895-.223c1.843 0 3.622.262 5.327.707.239 1.201 1.013 4.289 2.707 4.57.555.092 1.027.09 1.445.086.807.002 1.352-.006 2.079.66-.325.037-.798.043-1.12.047-1.052.014-1.746.021-1.969.523-.063.143-.128.434.164.766.396.449.9.689 1.388.92.693.328 1.349.641 1.801 1.568.583 1.199.532 2.873.459 5.191a89.44 89.44 0 0 0-.054 2.801c0 3.084 1.336 4.947 2.479 5.605.386.223.779.334 1.157.334.331 0 .651-.086.946-.256.833-.484 1.313-1.404 1.698-2.143.165-.318.415-.797.489-.842.781.582 1.609.484 2.111.34.002.08.013.158.013.24-.003 11.65-9.477 21.124-21.124 21.124"/></svg>