<svg xmlns="http://www.w3.org/2000/svg" width="55.18" height="51.66" viewBox="0 0 55.18 51.66"><path d="M35.45 14.097h1.972v.879H35.45zm-6.444-6.815v.012h.006zm3.26 11.871l-.161-.043v-6.314h-1.134v6.314l-.164.043a2.832 2.832 0 0 0 .728 5.568 2.837 2.837 0 0 0 2.836-2.832 2.832 2.832 0 0 0-2.105-2.736m3.184-3.144h3.401v.879H35.45z"/><path d="M33.786 18.06V7.987c0-1.24-1.01-2.248-2.25-2.248a2.25 2.25 0 0 0-2.248 2.248v10.072c-3.196 2.65-1.952 5.303-1.726 5.791a4.465 4.465 0 0 0 3.974 2.48 4.446 4.446 0 0 0 4.443-4.441 4.424 4.424 0 0 0-2.193-3.829m-2.25 7.394a3.569 3.569 0 0 1-3.563-3.564c0-1.346.748-2.564 1.954-3.178l.24-.121V7.987a1.37 1.37 0 0 1 2.74 0v10.604l.242.121a3.547 3.547 0 0 1 1.953 3.178 3.571 3.571 0 0 1-3.566 3.564m3.914-13.269h3.401v.879H35.45zm0-3.825h3.401v.877H35.45zm0 1.912h1.972v.877H35.45z"/><path d="M31.231 27.519a.5.5 0 0 0-.5.5v9.701H17.33V23.118h8.501a.5.5 0 1 0 0-1H17.33v-3.1c0-.387.314-.701.7-.701h7.801a.5.5 0 0 0 0-1H18.03c-.938 0-1.7.762-1.7 1.701v25.203c0 .936.763 1.699 1.7 1.699h12.001c.937 0 1.7-.764 1.7-1.699V28.019c0-.278-.224-.5-.5-.5m-1.2 17.402H18.03a.7.7 0 0 1-.7-.699V38.72h13.401v5.502a.7.7 0 0 1-.7.699"/><path d="M22.83 19.718a.5.5 0 0 0 0 1h2.401a.5.5 0 0 0 0-1H22.83zm1.201 20.402c-.938 0-1.701.762-1.701 1.701 0 .936.763 1.699 1.701 1.699.937 0 1.7-.764 1.7-1.699 0-.939-.764-1.701-1.7-1.701m0 2.401a.7.7 0 1 1-.002-1.4.7.7 0 0 1 .002 1.4m2.072-13.624H24.03v-2.084h-.803v2.084h-2.072v.805h2.072v2.061h.803v-2.061h2.073zm-3.645 5.237h2.656v.9h-2.656z"/></svg>