<svg xmlns="http://www.w3.org/2000/svg" width="55.18" height="51.66" viewBox="0 0 55.18 51.66"><path d="M40.009 26.979a.5.5 0 0 0 .707-.707L22.317 7.874a.514.514 0 0 0-.707 0L3.211 26.272a.5.5 0 0 0 .708.707L21.963 8.935l18.046 18.044zM28.364 10.327h5.1v5.1a.5.5 0 0 0 1 0v-5.6a.5.5 0 0 0-.5-.5h-5.6a.5.5 0 0 0 0 1"/><path d="M51.869 35.397l-10.992-6.451a.5.5 0 1 0-.753.432v1.977h-4.061v-3.129a.5.5 0 0 0-1 0v14.701h-8.6V32.226a.5.5 0 0 0-.5-.5h-7.999a.5.5 0 0 0-.5.5v10.701h-8.6v-15.5a.5.5 0 1 0-1 0v16a.5.5 0 0 0 .5.5h9.601a.5.5 0 0 0 .5-.5V32.726h6.999v10.701a.5.5 0 0 0 .5.5h9.6a.5.5 0 0 0 .5-.5v-3.123h4.061v1.977a.5.5 0 0 0 .753.432l10.992-6.451a.503.503 0 0 0-.001-.865m-10.745 6.01v-1.604a.5.5 0 0 0-.5-.5h-4.561v-6.949h4.561a.5.5 0 0 0 .5-.5V30.25l9.504 5.578-9.504 5.579z"/></svg>