<svg xmlns="http://www.w3.org/2000/svg" width="55.18" height="51.66" viewBox="0 0 55.18 51.66"><path d="M9.24 25.845c-.229-6.016 5.039-11.573 11.061-11.646 3.068-.262 6.053.93 8.376 2.875-.953 1.046-1.922 2.082-2.958 3.051-2.043-1.242-4.505-2.189-6.895-1.347-3.854 1.096-6.188 5.646-4.763 9.417 1.182 3.937 5.972 6.098 9.726 4.443 1.942-.695 3.224-2.488 3.787-4.416-2.229-.046-4.456-.018-6.685-.078-.005-1.324-.01-2.646-.005-3.972 3.714-.006 7.435-.016 11.155.018.228 3.247-.25 6.721-2.362 9.327-2.889 3.723-8.231 4.813-12.575 3.354-4.61-1.514-7.963-6.159-7.862-11.026m30.04-5.013h3.314c.005 1.108.017 2.223.022 3.33 1.107.012 2.223.018 3.33.023v3.318c-1.107.006-2.223.013-3.33.017a464.501 464.501 0 0 0-.022 3.336c-1.108-.004-2.216 0-3.319 0-.012-1.112-.012-2.222-.021-3.33-1.109-.01-2.224-.017-3.331-.021v-3.318c1.107-.006 2.216-.012 3.331-.023.004-1.109.015-2.224.026-3.332"/></svg>