<svg xmlns="http://www.w3.org/2000/svg" width="55.18" height="51.66" viewBox="0 0 55.18 51.66"><path d="M39.2 14.054h-.168c-.669 0-1.209.541-1.209 1.208V39.95c0 .667.54 1.209 1.209 1.209h.168a1.21 1.21 0 0 0 1.209-1.209V15.262c0-.667-.541-1.208-1.209-1.208"/><path d="M40.472 15.126a1.294 1.294 0 0 0-.821-1.634L21.874 7.677a1.291 1.291 0 0 0-1.632.821 1.29 1.29 0 0 0 .82 1.633l17.776 5.816a1.291 1.291 0 0 0 1.634-.821"/><path d="M22.069 8.414a1.293 1.293 0 0 0-1.808-.271l-4.989 3.653a1.295 1.295 0 0 0-.271 1.809 1.29 1.29 0 0 0 1.807.272l4.99-3.654a1.295 1.295 0 0 0 .271-1.809"/><path d="M33.682 18.033l-17.283-5.555a1.344 1.344 0 0 0-1.756 1.279v24.317c0 .607.409 1.141.997 1.298l17.283 4.63a1.343 1.343 0 0 0 1.69-1.299v-23.39a1.344 1.344 0 0 0-.931-1.28m-6.344 6.723l-4.545 10.089a.567.567 0 0 1-.998-.521l1.445-6.611-3.708.758a.572.572 0 0 1-.547-.726l2.055-7.138a.566.566 0 0 1 .546-.411h3.029a.569.569 0 0 1 .531.767l-1.67 4.035 3.396-1.136a.571.571 0 0 1 .466.894"/></svg>