<svg xmlns="http://www.w3.org/2000/svg" width="55.18" height="51.66" viewBox="0 0 55.18 51.66"><path d="M47.776 18.262a.5.5 0 0 0-.305-.281c-2.882-.939-5.132-1.125-7.296-.592a1.572 1.572 0 0 0-.918.695c-.928 1.635-2.23 3.047-3.944 4.291 3.585-5.152 3.096-10.651-1.49-15.68-.098-.107-.248-.15-.381-.164a.502.502 0 0 0-.374.182c-2.104 2.545-4.191 5.709-3.721 9.891.219 1.941.941 3.785 2.236 5.68-1.666-1.225-2.939-2.637-3.854-4.273a1.363 1.363 0 0 0-.818-.615c-2.221-.543-4.491-.361-7.365.588a.499.499 0 0 0-.291.695c2.207 4.5 5.568 6.826 9.707 6.826 1.425 0 2.941-.281 4.534-.84 1.646.57 3.196.861 4.643.861 4.129 0 7.409-2.313 9.626-6.85a.495.495 0 0 0 .011-.414M33.47 7.805c4.304 5.01 4.307 10.289.008 15.326-1.884-2.275-2.884-4.396-3.137-6.641-.402-3.57 1.292-6.385 3.129-8.685M20.418 18.756c2.421-.732 4.373-.852 6.256-.391.061.016.159.09.183.133 1.215 2.178 3.001 3.977 5.469 5.498-5.185 1.502-9.277-.295-11.908-5.24M34.692 24c2.444-1.514 4.225-3.291 5.436-5.424a.582.582 0 0 1 .286-.217c1.835-.449 3.763-.328 6.188.398-2.616 4.929-6.707 6.725-11.91 5.243m11.979 10.078a2.328 2.328 0 0 0-1.384-1.16 2.343 2.343 0 0 0-1.796.15l-6.203 3.119c.066-.25.112-.506.112-.775a3.063 3.063 0 0 0-3.06-3.061h-5.916c-1.363-3.053-4.784-3.199-4.949-3.205h-7.409v-1.314a.5.5 0 0 0-.5-.5H7.864a.5.5 0 0 0-.5.5v13.965a.5.5 0 0 0 .5.5h7.703a.5.5 0 0 0 .5-.5v-1.271l12.188 4.225c.047.021.858.379 1.984.379.244 0 .506-.025.775-.066.027.004.053.014.08.014a.633.633 0 0 0 .086-.006c.072-.012.182-.047.32-.1.003 0 .006 0 .011-.002.007-.002.011-.008.017-.008 2.246-.861 12.183-6.313 14.261-7.457a2.368 2.368 0 0 0 1.007-3.189l-.125-.238zm-31.604 7.219H8.364V28.332h6.703v12.965zm30.251-4.676c-4.764 2.623-12.415 6.738-14.057 7.381h-.001c-1.385.357-2.582-.158-2.634-.18l-12.56-4.355v-9.32h7.394c.031.002 3.136.133 4.161 2.881a.499.499 0 0 0 .468.324h6.252c1.136 0 2.06.924 2.06 2.061a2.064 2.064 0 0 1-2.06 2.061h-7.866a.5.5 0 1 0 0 1h7.866c.02 0 .037-.006.057-.006.006 0 .011.004.017.004 1.454.027 2.365-.76 2.629-1.041l6.903-3.471a1.355 1.355 0 0 1 1.039-.088c.349.109.633.348.8.67l.124.236a1.367 1.367 0 0 1-.592 1.843"/></svg>