<svg xmlns="http://www.w3.org/2000/svg" width="55.18" height="51.66" viewBox="0 0 55.18 51.66"><path d="M42.306 27.927a.5.5 0 0 0-.5.5v15.947h-9.388V32.755a.5.5 0 0 0-.5-.5h-8.655a.5.5 0 0 0-.5.5v11.619h-9.389V27.562a.5.5 0 1 0-1 0v17.313a.5.5 0 0 0 .5.5h10.389a.5.5 0 0 0 .5-.5v-11.62h7.655v11.619a.5.5 0 0 0 .5.5h10.388a.5.5 0 0 0 .5-.5V28.427a.5.5 0 0 0-.5-.5"/><path d="M47.853 26.341L27.944 6.433a.5.5 0 0 0-.707 0L7.328 26.341a.5.5 0 0 0 .707.707L27.59 7.493l19.556 19.555a.493.493 0 0 0 .707 0 .5.5 0 0 0 0-.707M34.515 9.017h5.56v5.561a.5.5 0 0 0 1 0V8.517a.5.5 0 0 0-.5-.5h-6.06a.5.5 0 0 0 0 1"/></svg>