<svg xmlns="http://www.w3.org/2000/svg" width="55.18" height="51.66" viewBox="0 0 55.18 51.66"><path d="M29.343 35.441h5.469a.5.5 0 0 0 .5-.5v-8.658a.5.5 0 1 0-1 0v8.158h-4.469V28.56c0-.275-.225-.5-.5-.5h-4.559c-.275 0-.5.225-.5.5v5.881h-4.468v-8.613a.5.5 0 1 0-1 0v9.113a.5.5 0 0 0 .5.5h5.468a.5.5 0 0 0 .5-.5V29.06h3.559v5.881a.5.5 0 0 0 .5.5"/><path d="M37.545 25.871a.505.505 0 0 0 .354-.145.503.503 0 0 0 0-.709l-10.481-10.48a.514.514 0 0 0-.707 0l-10.48 10.48a.503.503 0 0 0 0 .709.504.504 0 0 0 .707 0l10.127-10.129 10.125 10.13a.513.513 0 0 0 .355.144m-3.646-6.379a.5.5 0 0 0 .5-.5v-3.189a.5.5 0 0 0-.5-.5H30.71a.5.5 0 1 0 0 1h2.689v2.689a.5.5 0 0 0 .5.5"/><path d="M15.517 22.328a.503.503 0 0 0-.704.063l-6.829 8.18c-1.043-4.813-.235-9.799 2.357-14.143 2.851-4.777 7.51-8.232 12.784-9.48a19.383 19.383 0 0 1 18.998 6.029.5.5 0 1 0 .747-.662 20.364 20.364 0 0 0-19.975-6.34C17.36 7.284 12.47 10.907 9.482 15.914c-2.473 4.145-3.406 8.85-2.736 13.471l-5.161-7.684a.5.5 0 0 0-.83.556l6.525 9.717a.498.498 0 0 0 .389.221h.026a.5.5 0 0 0 .385-.18l7.501-8.984a.5.5 0 0 0-.064-.703m38.909 9.442l-6.521-9.717a.495.495 0 0 0-.388-.221.521.521 0 0 0-.41.18l-.047.055a.427.427 0 0 0-.083.102L39.6 30.992a.499.499 0 1 0 .766.639l6.695-8.006c1.136 9.35-5.499 18.836-15.013 21.082-6.536 1.543-13.304-.352-18.099-5.078a.5.5 0 1 0-.7.713c3.884 3.83 9 5.895 14.29 5.895 1.573 0 3.162-.184 4.739-.557 9.759-2.303 16.655-11.869 15.867-21.473l5.449 8.119a.497.497 0 0 0 .693.137.497.497 0 0 0 .139-.693"/></svg>