<svg xmlns="http://www.w3.org/2000/svg" width="55.18" height="51.66" viewBox="0 0 55.18 51.66"><path d="M28.199 10.758l8.728 8.057-.037-2.109c0-.586.477-1.061 1.062-1.061h3.195c.586 0 1.062.475 1.062 1.061v2.131c0 .283-.183 4.231.019 4.43l2.956 2.934a1.06 1.06 0 0 1-.07 1.57l-.559.461a1.062 1.062 0 0 1-1.392-.035l-2.505-2.276.037 14.172c0 .585-.475 1.062-1.061 1.062h-8c-.585 0-1.06-.477-1.06-1.062v-6.487c0-.586-.477-1.061-1.063-1.061h-4.17a1.06 1.06 0 0 0-1.06 1.061v6.487c0 .585-.477 1.062-1.063 1.062h-8a1.061 1.061 0 0 1-1.059-1.062V27.588l-.074-1.336-2.101 1.917c-.39.358-.984.371-1.392.031l-.529-.441a1.06 1.06 0 0 1-.038-1.597L26.8 10.787c.392-.36.992-.373 1.399-.029"/></svg>