<svg xmlns="http://www.w3.org/2000/svg" width="55.18" height="51.66" viewBox="0 0 55.18 51.66"><path d="M47.173 30.563l-.124-.236a2.335 2.335 0 0 0-1.386-1.16 2.324 2.324 0 0 0-1.795.15l-6.203 3.117c.066-.248.112-.506.112-.773a3.063 3.063 0 0 0-3.06-3.061h-5.916c-1.365-3.055-4.784-3.201-4.949-3.205h-7.409v-1.313a.5.5 0 0 0-.5-.5H8.241a.5.5 0 0 0-.5.5v13.963a.5.5 0 0 0 .5.5h7.703a.5.5 0 0 0 .5-.5v-1.273l12.189 4.227c.046.02.857.379 1.982.379.244 0 .507-.025.775-.066.026.004.052.014.08.014s.057-.002.086-.008c.071-.012.181-.047.32-.1.004 0 .007 0 .011-.002.006-.002.011-.006.018-.008 2.246-.861 12.182-6.313 14.26-7.455a2.368 2.368 0 0 0 1.008-3.19m-31.729 6.982H8.741V24.58h6.703v12.965zm30.931-5.481c-.11.35-.349.633-.681.805-4.764 2.623-12.415 6.736-14.057 7.381h-.001c-1.386.355-2.58-.16-2.633-.182l-12.56-4.355v-9.318h7.392c.128.004 3.142.148 4.163 2.879.073.195.26.326.469.326h6.251c1.135 0 2.06.924 2.06 2.061a2.063 2.063 0 0 1-2.06 2.059h-7.866a.5.5 0 1 0 0 1h7.866c.02 0 .037-.006.057-.006.006 0 .011.004.017.004a3.336 3.336 0 0 0 2.629-1.041l6.903-3.469c.322-.168.69-.199 1.039-.088.349.109.633.346.8.67l.124.234c.167.322.198.691.088 1.04m-14.709-8.49c.344.041.684.063 1.021.063 6.671 0 11.989-7.684 12.223-8.027.112-.164.117-.375.013-.543s-.305-.258-.492-.234c-2.598.355-4.445-.801-6.401-2.021-1.685-1.055-3.427-2.145-5.798-2.463-2.277-.311-4.366.531-5.719 2.301-1.483 1.939-1.836 4.627-.9 6.842.962 2.281 3.112 3.731 6.053 4.082m-4.361-10.318c.983-1.289 2.38-1.973 3.988-1.973.263 0 .531.02.804.055 2.156.291 3.806 1.322 5.4 2.318 1.755 1.098 3.562 2.227 5.945 2.242-1.669 2.1-6.385 7.311-11.659 6.684-2.568-.307-4.434-1.543-5.251-3.479a5.539 5.539 0 0 1-.357-1.285c.874.281 2.906.842 5.287.842.975 0 2.007-.094 3.036-.342a.498.498 0 0 0 .368-.604.497.497 0 0 0-.603-.369c-3.855.928-7.882-.506-8.164-.609a5.994 5.994 0 0 1 1.206-3.48"/></svg>