<svg xmlns="http://www.w3.org/2000/svg" width="55.18" height="51.66" viewBox="0 0 55.18 51.66"><path d="M28.724 9.916h4.157v4.156a.5.5 0 1 0 1 0V9.416a.5.5 0 0 0-.5-.5h-4.657a.5.5 0 0 0 0 1"/><path d="M45.741 16.666h-13.1a.449.449 0 0 0-.09-.139l-8.796-8.795a.5.5 0 0 0-.707 0l-15.3 15.301a.5.5 0 0 0 .707.707L23.402 8.793l7.872 7.873h-3.785a1.84 1.84 0 0 0-1.839 1.838v9.041h-5.574a.5.5 0 0 0-.5.5v8.813h-6.983V24.053a.5.5 0 1 0-1 0v13.305a.5.5 0 0 0 .5.5h7.983a.5.5 0 0 0 .5-.5v-8.813h5.074v13.691a1.84 1.84 0 0 0 1.839 1.838h18.252a1.84 1.84 0 0 0 1.838-1.838V18.504a1.84 1.84 0 0 0-1.838-1.838m.838 25.57a.84.84 0 0 1-.838.838H27.489a.84.84 0 0 1-.839-.838V18.504c0-.463.376-.838.839-.838h18.252c.462 0 .838.375.838.838v23.732z"/><path d="M30.245 25.76h3.286a1.841 1.841 0 0 0 1.838-1.84v-3.285a1.84 1.84 0 0 0-1.838-1.838h-3.286a1.84 1.84 0 0 0-1.839 1.838v3.285c0 1.014.825 1.84 1.839 1.84m-.839-5.125c0-.463.376-.838.839-.838h3.286c.462 0 .838.375.838.838v3.285a.84.84 0 0 1-.838.84h-3.286a.84.84 0 0 1-.839-.84v-3.285zm7.47 4.41h7.41a.5.5 0 0 0 0-1h-7.41a.5.5 0 0 0 0 1m-8.203 3.789h15.613a.5.5 0 1 0 0-1H28.673a.5.5 0 0 0 0 1m0 2.98h15.613a.5.5 0 0 0 0-1H28.673a.5.5 0 0 0 0 1m16.114 2.479a.5.5 0 0 0-.5-.5H28.673a.5.5 0 0 0 0 1h15.613a.501.501 0 0 0 .501-.5m-6.643 2.99h-.924l-.741 1.455-.758-1.455h-.946l1.142 1.957-1.228 2.086h.918l.827-1.527.827 1.527h.98l-1.253-2.039zm3.625 0h-.924l-.741 1.455-.758-1.455H38.4l1.142 1.957-1.228 2.086h.918l.827-1.527.827 1.527h.98l-1.253-2.039zm2.279.655c.119 0 .234.018.346.049.11.033.229.076.356.135l.271-.643a2.14 2.14 0 0 0-.974-.227c-.222 0-.421.033-.598.098-.178.066-.331.16-.461.285s-.237.277-.321.455c-.084.18-.143.383-.178.609h-.368v.486h.321a.814.814 0 0 1-.003.064 1.138 1.138 0 0 0 .008.254h-.326v.492h.379c.079.445.247.787.504 1.025.256.24.606.361 1.048.361.174 0 .325-.014.457-.043.131-.027.249-.068.354-.121v-.707a1.96 1.96 0 0 1-.354.117 1.943 1.943 0 0 1-.407.041.773.773 0 0 1-.509-.162c-.129-.109-.218-.279-.266-.51h.821v-.492h-.868a.732.732 0 0 1-.006-.09v-.133l.002-.049a.249.249 0 0 0 .004-.047h1.043v-.486h-1.002c.043-.246.126-.436.248-.566a.643.643 0 0 1 .479-.195"/></svg>