<svg xmlns="http://www.w3.org/2000/svg" width="55.18" height="51.66" viewBox="0 0 55.18 51.66"><path d="M41.632 6.117H13.548c-1.411 0-2.56 1.098-2.56 2.447v34.529c0 1.35 1.148 2.449 2.56 2.449h28.084c1.411 0 2.56-1.1 2.56-2.449V8.564c0-1.349-1.149-2.447-2.56-2.447m1.56 2.447v3.625H19.579V7.117h22.054c.859 0 1.559.651 1.559 1.447M13.548 7.117h5.03v5.072h-6.59V8.564c.001-.796.701-1.447 1.56-1.447m28.084 37.426H13.548c-.859 0-1.56-.648-1.56-1.449V13.189h31.203v29.904c.001.802-.699 1.45-1.559 1.45"/><path d="M24.218 11.508c1.003 0 1.819-.816 1.819-1.82s-.816-1.82-1.819-1.82a1.82 1.82 0 0 0 0 3.64m0-2.641a.82.82 0 1 1-.001 1.64.82.82 0 0 1 .001-1.64m4.449 2.641c1.003 0 1.819-.816 1.819-1.82s-.816-1.82-1.819-1.82a1.82 1.82 0 0 0 0 3.64m0-2.641a.82.82 0 1 1-.001 1.64.82.82 0 0 1 .001-1.64m4.323 2.641c1.003 0 1.819-.816 1.819-1.82s-.816-1.82-1.819-1.82a1.82 1.82 0 0 0 0 3.64m0-2.641a.82.82 0 1 1-.001 1.64.82.82 0 0 1 .001-1.64m-3.397 19.848c1.061-1.736.535-8.744.473-9.539a.5.5 0 0 0-.498-.459H18.695a.496.496 0 0 0-.498.459c-.064.795-.587 7.803.471 9.539 1.112 1.83 2.343 2.709 4.055 2.877.112.928.265 3.322-.942 4.652-.669.738-1.689 1.047-3.04.924a.507.507 0 0 0-.543.453.499.499 0 0 0 .452.543c.225.021.443.031.655.031 1.366 0 2.446-.43 3.219-1.281 1.844-2.037 1.156-5.732 1.127-5.889a.504.504 0 0 0-.477-.406c-1.576-.049-2.634-.75-3.652-2.424-.636-1.043-.566-5.564-.363-8.479h9.945c.204 2.914.272 7.436-.363 8.479-1.019 1.674-2.076 2.375-3.651 2.424a.501.501 0 0 0-.475.406c-.031.156-.72 3.852 1.126 5.889.771.852 1.851 1.281 3.217 1.281a7.1 7.1 0 0 0 .657-.031.5.5 0 0 0 .452-.543.508.508 0 0 0-.545-.453c-1.352.123-2.37-.186-3.038-.924-1.207-1.33-1.057-3.725-.943-4.652 1.71-.168 2.94-1.047 4.052-2.877m2.252-9.998c-.275 0-.5.225-.5.5v4.049a.5.5 0 0 0 1 0v-4.049a.5.5 0 0 0-.5-.5m2.161 5.049a.5.5 0 0 0 .5-.5v-4.049a.5.5 0 1 0-1 0v4.049c0 .275.225.5.5.5"/><path d="M36.674 19.217a.5.5 0 0 0-1 0l.002 4.092c.001.012.08 1.139-.496 1.734-.27.279-.645.4-1.161.379a.45.45 0 0 0-.369.137.5.5 0 0 0-.156.363V37.34a.5.5 0 0 0 1 0V26.406c.568-.064 1.039-.287 1.407-.668.896-.93.777-2.451.773-2.473v-4.048z"/></svg>