<svg xmlns="http://www.w3.org/2000/svg" width="55.18" height="51.66" viewBox="0 0 55.18 51.66"><path d="M43.784 37.814H13.269V11.973c0-1.033-.84-1.873-1.872-1.873-1.033 0-1.873.84-1.873 1.873v27.714c0 1.033.84 1.873 1.873 1.873h32.388c1.032 0 1.873-.84 1.873-1.873a1.877 1.877 0 0 0-1.874-1.873"/><path d="M17.442 30.76c.363.303.792.453 1.222.453.491 0 .981-.197 1.366-.588l5.791-5.967 3.584 3.068c.695.627 1.911.555 2.545-.149l4.677-4.979c.621.476 1.592 1.231 1.877 1.517.197.196.825.539 1.41.277.565-.254.82-.939.758-2.023l-.164-5.052c-.067-1.047-.943-1.843-1.91-1.782l-4.801.358c-.789-.02-1.748.215-2.041.876-.107.242-.206.739.365 1.354l1.882 1.873-3.58 3.8-3.578-3.063a1.788 1.788 0 0 0-1.337-.449 1.726 1.726 0 0 0-1.203.594l-6.932 7.261c-.09.09-.31.338-.42.676-.209.643-.04 1.369.439 1.898l.05.047z"/></svg>