<svg xmlns="http://www.w3.org/2000/svg" width="55.18" height="51.66" viewBox="0 0 55.18 51.66"><path d="M47.976 38.217h-1.644a.492.492 0 0 0-.238.068v-1.619c.04.01.077.025.12.025h1.644a.5.5 0 0 0 0-1h-1.644c-.043 0-.08.014-.12.023v-.941a.498.498 0 0 0-.521-.5c-1.592.07-2.755.523-3.458 1.348a2.83 2.83 0 0 0-.646 1.439H25.837c-2.848 0-4.583.629-5.464 1.977-.801 1.229-.801 2.869-.801 4.768v.174c0 1.711-1.605 2.988-3.042 2.988-1.57 0-2.508-1.463-2.508-3.914V31.721h3.089a.5.5 0 0 0 .5-.5v-6.566h3.302v6.566a.5.5 0 0 0 .5.5h7.45a.5.5 0 0 0 .5-.5v-14.17h1.957a.498.498 0 1 0 .358-.848L19.622 3.838a.516.516 0 0 0-.717 0L6.846 16.203a.5.5 0 0 0 .358.848h1.958v14.17a.5.5 0 0 0 .5.5h3.36v11.332c0 1.602.348 2.854 1.033 3.719a3.105 3.105 0 0 0 2.475 1.195c1.912 0 4.042-1.639 4.042-3.988v-.174c0-1.738 0-3.24.639-4.221.427-.654 1.371-1.523 4.626-1.523h15.591l-.001.023c0 .691.257 1.313.741 1.795.724.719 1.989 1.148 3.392 1.148h.037a.502.502 0 0 0 .497-.5V39.15a.49.49 0 0 0 .238.066h1.644a.5.5 0 1 0 0-.999M8.39 16.051L19.263 4.902 30.135 16.05H8.39zm1.773 1h18.201v13.67h-6.45v-6.566a.5.5 0 0 0-.5-.5h-4.302a.5.5 0 0 0-.5.5v6.566h-6.449v-13.67zm34.931 22.955c-.798-.066-1.691-.311-2.22-.836a1.455 1.455 0 0 1-.447-1.086.501.501 0 0 0-.066-.25.507.507 0 0 0 .082-.328 1.782 1.782 0 0 1 .446-1.252c.445-.512 1.185-.826 2.205-.941v4.693z"/></svg>