<svg xmlns="http://www.w3.org/2000/svg" width="55.18" height="51.66" viewBox="0 0 55.18 51.66"><path d="M38.104 5.676H17.076a3.135 3.135 0 0 0-3.131 3.131v34.047a3.133 3.133 0 0 0 3.131 3.131h21.028a3.133 3.133 0 0 0 3.131-3.131V8.807a3.135 3.135 0 0 0-3.131-3.131m2.131 37.178a2.133 2.133 0 0 1-2.131 2.131H17.076a2.133 2.133 0 0 1-2.131-2.131V8.807c0-1.174.956-2.131 2.131-2.131h21.028c1.175 0 2.131.957 2.131 2.131v34.047z"/><path d="M33.109 15.869H22.071a2.499 2.499 0 0 0-2.496 2.496v14.049a2.499 2.499 0 0 0 2.496 2.496h11.038a2.499 2.499 0 0 0 2.497-2.496V18.365a2.499 2.499 0 0 0-2.497-2.496m1.497 16.545a1.5 1.5 0 0 1-1.497 1.496H22.071a1.499 1.499 0 0 1-1.496-1.496V18.365c0-.826.672-1.496 1.496-1.496h11.038c.825 0 1.497.67 1.497 1.496v14.049zm-6.157 4.022h-1.718c-.681 0-1.235.555-1.235 1.236v.344c0 .682.555 1.236 1.235 1.236h1.718c.683 0 1.235-.555 1.235-1.236v-.344c0-.682-.553-1.236-1.235-1.236"/><path d="M32.554 21.615h-9.929c-.738 0-1.338.6-1.338 1.338v8.42c0 .738.6 1.338 1.338 1.338h9.929c.738 0 1.339-.6 1.339-1.338v-8.42a1.34 1.34 0 0 0-1.339-1.338m.589 9.758a.59.59 0 0 1-.589.588h-9.929a.589.589 0 0 1-.588-.588v-8.42c0-.324.264-.588.588-.588h9.929a.59.59 0 0 1 .589.588v8.42zM28.501 11.67c0 .303-.002.605.002.906 0 .074.01.15.038.215.06.125.173.178.307.215.175.051.343.096.515 0a.136.136 0 0 1 .039-.012c.228-.039.333-.156.336-.385.002-.162-.002-.322-.006-.484-.001-.096.046-.129.131-.086.095.047.19.092.282.143.251.137.5.275.75.414.192.107.39.207.579.322.288.176.571.148.857.006.229-.111.256-.354.057-.508-.098-.074-.206-.131-.314-.191-.223-.123-.451-.242-.674-.369-.056-.033-.117-.088-.134-.146-.011-.029.063-.1.113-.129.223-.129.448-.248.671-.375.121-.07.244-.141.354-.227.16-.125.164-.277.011-.406-.074-.063-.174-.094-.255-.15-.155-.105-.323-.088-.471-.02-.3.139-.59.303-.883.461-.311.166-.618.338-.926.508-.105.059-.146.035-.146-.088.001-.166-.004-.33.004-.494.01-.205-.07-.338-.265-.422-.259-.111-.509-.086-.749.016a.361.361 0 0 0-.225.352c.005.311.002.623.002.934m-4.027 1.305c.271.1.529.09.789-.055.135-.072.191-.164.19-.309v-.322l-.012-1.248c-.001-.105.071-.172.153-.203a1.27 1.27 0 0 1 .704-.039c.263.055.3.115.298.389v.676c0 .244.007.49-.002.734-.006.191.105.313.282.383.226.092.452.07.679.002a.405.405 0 0 0 .275-.377v-1.35c.001-.389-.183-.688-.548-.811-.236-.082-.487-.156-.733-.16-.522-.016-1.053-.061-1.57.084a1.376 1.376 0 0 0-.535.256.685.685 0 0 0-.236.541v1.43c0 .195.083.31.266.379m-2.875.045c.148 0 .29-.033.4-.148.047-.053.068-.107.013-.148a.713.713 0 0 0-.259-.137c-.139-.027-.286-.021-.429-.027-.383-.014-.772.047-1.138-.117-.003-.002-.01-.002-.01-.002a.608.608 0 0 1-.387-.273c-.128-.199-.14-.416-.136-.646.008-.813.004-1.625.003-2.438a.34.34 0 0 0-.176-.309.928.928 0 0 0-.716-.08c-.298.082-.359.178-.359.488v1.178c0 .391-.004.779.002 1.168.002.152.006.313.05.457.053.174.135.346.286.465.103.082.208.162.315.238.291.203.624.307.971.322.523.022 1.048.012 1.57.009m14.771-2.672c-.294-.096-.56-.047-.781.186-.216.221-.437.441-.655.662-.084.084-.159.082-.243-.002-.212-.215-.427-.426-.636-.645a.787.787 0 0 0-1.037-.09.278.278 0 0 0-.037.441c.31.297.613.6.932.885.181.16.301.324.239.537v.268c.003.203.091.326.283.393.106.037.215.068.324.098.021.006.047 0 .067-.006.054-.016.107-.031.16-.051.085-.029.173-.055.251-.098.077-.041.142-.102.146-.203.006-.164.021-.326.02-.49a.294.294 0 0 1 .1-.238c.381-.365.757-.734 1.136-1.102.132-.129.144-.271.007-.391a.8.8 0 0 0-.276-.154m-13.808 2.621c.112.047.232.076.351.111a.122.122 0 0 0 .06 0c.067-.02.133-.041.199-.059.287-.082.395-.172.391-.492-.005-.283-.002-.564-.002-.846h.001c0-.299.003-.598-.002-.896-.001-.119-.005-.238-.112-.328-.112-.094-.246-.115-.379-.152a.47.47 0 0 0-.186-.016c-.094.016-.188.049-.28.078-.198.064-.291.176-.29.383.004.639.019 1.275.021 1.912-.001.168.095.25.228.305m-.025-3.112c.289.143.572.113.853-.01.088-.039.16-.105.16-.221 0-.1-.019-.189-.113-.229-.159-.064-.31-.166-.493-.127-.19-.036-.342.06-.5.13-.078.033-.114.102-.118.193-.006.157.091.206.211.264"/><path d="M31.185 26.412h-7.189a.75.75 0 0 0 0 1.5h7.189a.75.75 0 0 0 0-1.5"/></svg>