<svg xmlns="http://www.w3.org/2000/svg" width="55.18" height="51.66" viewBox="0 0 55.18 51.66"><path d="M38.075 14.396c-.805-2.566-2.438-4.755-4.479-6.001-1.385-.846-3.274-1.421-5.186-1.577-2.718-.223-5.429.519-7.512 2.042-1.77 1.294-3.182 3.422-3.875 5.838-.554 1.932-.896 4.915.622 8.157.406.867.946 1.685 1.471 2.475.845 1.275 1.72 2.597 2.038 4.161.111.548.121 1.018.13 1.432.009.459.016.854.152 1.229.347.94 1.427 1.945 2.517 2.334.747.268 1.741.289 2.696.289h.028c-.035-.209-1.148-6.978-1.638-9.284a.332.332 0 0 1 .592-.268l1.78 2.417 1.792-2.38a.329.329 0 0 1 .397-.104.33.33 0 0 1 .196.362c-.012.07-1.214 7.113-1.177 9.202a.345.345 0 0 1-.007.072l.52.002c.639 0 1.369-.024 1.957-.214 1.231-.398 2.264-1.496 2.61-2.326.176-.423.214-.988.253-1.588a9.44 9.44 0 0 1 .125-1.18c.336-1.719 1.149-2.92 2.012-4.192.563-.834 1.148-1.696 1.589-2.718 1.11-2.554 1.248-5.459.397-8.18"/><path d="M27.963 34.785a.463.463 0 0 1-.006-.055c-.028-1.597.611-5.806.965-7.985l-1.244 1.651a.336.336 0 0 1-.267.134h-.003a.34.34 0 0 1-.267-.136l-1.164-1.58c.551 2.955 1.349 7.799 1.358 7.856a.326.326 0 0 1-.001.108c.196.004.415.006.629.007m3.375 4.42l-7.275-1.096a.52.52 0 0 0-.59.436l-.078.521a.52.52 0 0 0 .436.589l7.275 1.095a.519.519 0 0 0 .589-.436l.079-.521a.52.52 0 0 0-.436-.588m0-1.945l-7.275-1.095a.52.52 0 0 0-.59.437l-.078.52a.52.52 0 0 0 .436.589l7.275 1.095a.518.518 0 0 0 .589-.436l.079-.52a.521.521 0 0 0-.436-.59m-.259 3.849l-.88-.131-5.134-.771-.742-.112a.787.787 0 0 0-.891.655.785.785 0 0 0 .657.889l.416.063.124.019a2.935 2.935 0 0 0 5.786.872l.43.064a.783.783 0 0 0 .234-1.548"/></svg>