<svg xmlns="http://www.w3.org/2000/svg" width="55.18" height="51.66" viewBox="0 0 55.18 51.66"><path d="M41.694 12.064H13.486c-1.416 0-2.568 1.102-2.568 2.455v34.684c0 1.355 1.152 2.457 2.568 2.457h28.208c1.416 0 2.568-1.102 2.568-2.457V14.52c0-1.354-1.152-2.456-2.568-2.456m-28.208 1h28.208c.865 0 1.568.654 1.568 1.455v3.645H11.917V14.52c0-.801.704-1.456 1.569-1.456M41.694 50.66H13.486c-.865 0-1.568-.652-1.568-1.457V19.164h31.345v30.039c-.001.805-.704 1.457-1.569 1.457"/><path d="M19.468 24.287H35.71a.5.5 0 1 0 0-1H19.468a.5.5 0 0 0 0 1m10.469-6.812a1.827 1.827 0 0 0 0-3.652 1.826 1.826 0 0 0 0 3.652m0-2.653c.455 0 .826.371.826.826s-.371.826-.826.826a.827.827 0 0 1 0-1.652M15.86 17.475a1.826 1.826 0 1 0-1.826-1.826 1.83 1.83 0 0 0 1.826 1.826m0-2.653a.827.827 0 0 1 0 1.652c-.455 0-.826-.371-.826-.826s.371-.826.826-.826m18.546 2.653a1.826 1.826 0 1 0-1.826-1.826 1.83 1.83 0 0 0 1.826 1.826m0-2.653a.827.827 0 0 1 0 1.652c-.455 0-.826-.371-.826-.826s.371-.826.826-.826m4.342 2.653a1.826 1.826 0 1 0-1.826-1.826 1.829 1.829 0 0 0 1.826 1.826m0-2.653a.827.827 0 0 1 0 1.652.827.827 0 0 1 0-1.652M25.645 43.043a.5.5 0 0 0 .703.084l12.519-9.818a.5.5 0 0 0-.617-.787L25.73 42.34a.502.502 0 0 0-.085.703m6.481-10.006a.499.499 0 0 0 .085-.701.501.501 0 0 0-.702-.086l-6.421 5.045a.501.501 0 0 0 .618.787l6.42-5.045zm-.651-25.461c-.04 1.084-.936 1.869-.944 1.877a.5.5 0 0 0 .648.762c.051-.043 1.232-1.064 1.295-2.59.04-.984-.385-1.932-1.265-2.813-.671-.672-.998-1.363-.973-2.055.041-1.086.936-1.869.944-1.877a.5.5 0 0 0-.648-.762c-.051.043-1.231 1.063-1.294 2.59-.041.984.384 1.93 1.264 2.811.671.672.998 1.366.973 2.057m-3.645 0c-.041 1.086-.936 1.869-.944 1.877a.5.5 0 0 0 .648.762c.051-.043 1.231-1.064 1.294-2.59.041-.984-.384-1.932-1.264-2.813-.671-.672-.999-1.363-.973-2.055.04-1.084.936-1.869.944-1.877a.5.5 0 0 0-.648-.762c-.051.043-1.232 1.063-1.295 2.59-.04.984.385 1.93 1.265 2.811.671.672.998 1.366.973 2.057m-3.647 0c-.04 1.084-.936 1.869-.944 1.877a.5.5 0 0 0 .648.762c.051-.043 1.232-1.064 1.295-2.59.04-.984-.385-1.932-1.265-2.813-.672-.672-.998-1.363-.973-2.055.041-1.086.936-1.869.944-1.877a.5.5 0 0 0-.648-.762c-.051.043-1.231 1.063-1.294 2.59-.041.984.383 1.93 1.264 2.811.671.672.999 1.366.973 2.057"/><path d="M41.911 20.119H13.269a.5.5 0 0 0-.5.5v28.5a.5.5 0 0 0 .5.5h28.642a.5.5 0 0 0 .5-.5v-28.5a.5.5 0 0 0-.5-.5m-.5 28.5H13.768v-27.5h27.643v27.5z"/></svg>