<svg xmlns="http://www.w3.org/2000/svg" width="55.18" height="51.66" viewBox="0 0 55.18 51.66"><path d="M50.019 42.054c-.271-.789-6.087-9.266-7.855-11.834 1.083-.553 1.833-1.666 1.833-2.961V10.718a3.339 3.339 0 0 0-3.335-3.336H14.548a3.339 3.339 0 0 0-3.335 3.336v16.541c0 1.221.669 2.281 1.651 2.861-2.512 3.502-7.78 10.977-7.78 12.096 0 1.271.791 2.063 2.063 2.063h40.837c.699 0 1.431-.367 1.821-.914.29-.407.366-.872.214-1.311M12.213 10.718a2.338 2.338 0 0 1 2.335-2.336h26.114a2.338 2.338 0 0 1 2.335 2.336v16.541a2.337 2.337 0 0 1-2.335 2.334H14.548a2.337 2.337 0 0 1-2.335-2.334V10.718zm36.778 32.064c-.201.283-.635.496-1.007.496H7.147c-1.063 0-1.063-.801-1.065-1.037.133-.811 4.024-6.563 7.675-11.648h27.45c2.973 4.316 7.618 11.156 7.867 11.787.017.047.067.193-.083.402"/><path d="M17.727 35.468h19.756a.5.5 0 1 0 0-1H17.727a.5.5 0 0 0 0 1m23.195 2.017h-26.68a.5.5 0 0 0 0 1h26.68a.5.5 0 0 0 0-1M23.328 23.321a.483.483 0 0 0 .179.035h8.124c.708 0 1.278-.277 1.605-.779.327-.5.361-1.16.094-1.766-.268-.609-.674-.914-1.038-1.066.33-.779.414-1.877-.631-2.742-1.161-.963-2.311-.619-3.038-.104-.343-.533-.952-1.281-1.821-1.598-.678-.248-1.383-.195-2.096.15-.775.377-1.275.922-1.486 1.623-.205.682-.082 1.365.077 1.852-.72.168-1.461.693-1.617 1.816-.204 1.464.989 2.327 1.648 2.579m-.658-2.439c.15-1.08 1.115-1.023 1.301-1.008a.5.5 0 0 0 .493-.75c-.006-.01-.534-.939-.286-1.762.129-.426.444-.756.966-1.01.465-.227.896-.264 1.311-.113.988.359 1.573 1.637 1.579 1.648.07.156.214.266.383.289a.479.479 0 0 0 .45-.164c.106-.119 1.063-1.148 2.156-.24.982.814.187 1.902.094 2.021a.5.5 0 0 0-.044.545.502.502 0 0 0 .484.264c.067-.006.578-.023.858.611.128.291.122.605-.016.816-.175.268-.514.326-.768.326h-8.02c-.254-.12-1.065-.581-.941-1.473"/></svg>