<svg xmlns="http://www.w3.org/2000/svg" width="55.18" height="51.66" viewBox="0 0 55.18 51.66"><path d="M44.612 7.456H10.566a3.057 3.057 0 0 0-3.052 3.055v25.533a3.056 3.056 0 0 0 3.052 3.055H22.64l-1.369 4.105h-5.597a.5.5 0 0 0 0 1h23.832a.5.5 0 1 0 0-1h-5.598l-1.369-4.105h12.073a3.057 3.057 0 0 0 3.054-3.055V10.511a3.058 3.058 0 0 0-3.054-3.055M32.854 43.204H22.325l1.369-4.105h7.79l1.37 4.105zm13.812-7.16a2.057 2.057 0 0 1-2.054 2.055H10.566a2.056 2.056 0 0 1-2.052-2.055V10.511c0-1.133.921-2.055 2.052-2.055h34.046c1.133 0 2.054.922 2.054 2.055v25.533z"/><path d="M43.761 10.862H11.418a.5.5 0 0 0-.5.5v20.426a.5.5 0 0 0 .5.5h32.343a.5.5 0 0 0 .5-.5V11.362a.5.5 0 0 0-.5-.5m-.5 20.426H11.918V11.862h31.343v19.426zM27.59 33.843c-.745 0-1.352.605-1.352 1.35a1.352 1.352 0 1 0 1.352-1.35m0 1.701a.351.351 0 1 1-.002-.702.351.351 0 0 1 .002.702"/></svg>