<svg xmlns="http://www.w3.org/2000/svg" width="55.18" height="51.66" viewBox="0 0 55.18 51.66"><path d="M41.843 5.829H13.337c-1.428 0-2.59 1.111-2.59 2.477v35.049c0 1.367 1.162 2.477 2.59 2.477h28.506c1.428 0 2.59-1.109 2.59-2.477V8.306c0-1.366-1.162-2.477-2.59-2.477m-28.506 1h28.506c.877 0 1.59.662 1.59 1.477v3.688H11.747V8.306c0-.815.713-1.477 1.59-1.477m28.506 38.002H13.337c-.877 0-1.59-.662-1.59-1.477V12.993h31.686v30.361c0 .815-.713 1.477-1.59 1.477"/><path d="M19.383 9.903h16.414a.5.5 0 1 0 0-1H19.383a.5.5 0 0 0 0 1M34.45 28.771c-.937.223-1.878.416-2.82.611-.18.035-.408.088-.549.012-.692-.365-1.361-.771-2.118-1.211.597-.346 1.097-.676 1.633-.928.27-.127.619-.195.909-.148.829.137 1.646.348 2.468.521.489.104.818-.061.904-.432.091-.398-.11-.658-.612-.777-.493-.117-.988-.225-1.602-.365.473-.279.846-.51 1.229-.721.379-.211.59-.49.392-.924-.169-.367-.552-.416-1.018-.156-.483.271-.963.547-1.536.871.159-.73.298-1.348.429-1.965.088-.412.036-.768-.437-.904-.366-.104-.667.131-.778.621-.211.92-.406 1.844-.613 2.764-.029.131-.059.311-.15.365-.618.383-1.253.74-1.967 1.156 0-.807-.018-1.492.011-2.176.007-.16.142-.342.264-.467.635-.654 1.306-1.275 1.916-1.951.162-.18.261-.537.205-.77-.103-.43-.668-.475-1.047-.113-.425.408-.836.828-1.253 1.242a3.287 3.287 0 0 1-.133-.066c0-.65.046-1.307-.027-1.949-.023-.203-.364-.512-.561-.512-.209-.002-.469.273-.612.49-.097.146-.037.4-.039.605-.003.467-.001.934-.001 1.398-.049.018-.097.033-.147.049-.377-.398-.746-.805-1.133-1.195-.381-.383-.763-.426-1.029-.119-.323.373-.163.684.14.986a95.106 95.106 0 0 1 1.914 1.951c.12.125.236.313.244.475.028.617.01 1.236.01 1.971-.715-.41-1.342-.756-1.95-1.133-.12-.076-.193-.271-.229-.426-.207-.887-.395-1.777-.594-2.664-.088-.396-.341-.621-.742-.529-.42.098-.56.404-.461.832.133.58.246 1.164.387 1.844l-1.381-.787c-.521-.295-.877-.27-1.088.078-.211.346-.057.691.441.988l1.346.799c-.687.154-1.238.271-1.788.4-.495.117-.726.398-.643.764.091.395.432.555.946.445.941-.201 1.88-.406 2.822-.602.128-.027.291-.064.39-.012.669.367 1.326.754 2.054 1.174-.682.395-1.286.719-1.861 1.088-.303.195-.582.215-.918.137-1.003-.236-2.01-.449-3.019-.664-.372-.078-.658.066-.759.438-.109.398.073.664.474.773.132.033.268.059.401.09l1.758.395c-.517.305-.913.539-1.31.77-.358.209-.537.492-.345.898.167.352.547.414.981.18.336-.184.666-.375 1.087-.613-.121.561-.219 1.012-.315 1.463-.123.572.018.92.412 1.014.389.094.677-.166.803-.729.168-.754.328-1.51.503-2.262.033-.143.079-.334.184-.398.768-.471 1.553-.916 2.415-1.416 0 .762.025 1.412-.012 2.059a1.141 1.141 0 0 1-.278.664c-.622.666-1.286 1.293-1.922 1.945-.373.383-.356.83.028 1.047.336.189.626.074.882-.182.402-.406.808-.807 1.23-1.227.044.09.057.104.057.117.006.412.008.824.016 1.236.01.561.215.828.629.83.418.002.623-.248.641-.818.013-.434.002-.869.002-1.305.047-.014.094-.029.14-.045.379.391.754.787 1.14 1.17.386.383.769.432 1.028.123.307-.367.174-.699-.13-.998-.636-.629-1.274-1.254-1.905-1.889-.105-.105-.246-.242-.25-.369-.023-.799-.012-1.6-.012-2.498.815.469 1.549.871 2.258 1.314a.972.972 0 0 1 .385.537c.214.832.385 1.674.568 2.512.091.416.338.672.764.568.414-.098.548-.42.449-.844-.129-.549-.236-1.104-.372-1.748.395.227.713.416 1.038.592.43.232.807.162.972-.189.192-.408.008-.688-.351-.893-.335-.191-.664-.391-1.099-.65.713-.156 1.295-.279 1.874-.414.523-.121.781-.426.653-.797-.151-.436-.473-.524-.91-.422"/></svg>