<svg xmlns="http://www.w3.org/2000/svg" width="55.18" height="51.66" viewBox="0 0 55.18 51.66"><path d="M41.725 5.989H13.454c-1.417 0-2.571 1.104-2.571 2.461v34.76c0 1.357 1.154 2.461 2.571 2.461h28.271c1.419 0 2.573-1.104 2.573-2.461V8.45c0-1.357-1.154-2.461-2.573-2.461m1.573 2.461v3.652H19.522V6.989h22.203c.867 0 1.573.657 1.573 1.461M13.454 6.989h5.068v5.113h-6.64V8.45c0-.804.705-1.461 1.572-1.461m28.271 37.682H13.454c-.866 0-1.571-.654-1.571-1.461V13.103h31.416V43.21c-.001.807-.707 1.461-1.574 1.461"/><path d="M24.196 11.409c1.008 0 1.828-.82 1.828-1.828s-.82-1.828-1.828-1.828c-1.009 0-1.829.82-1.829 1.828s.82 1.828 1.829 1.828m0-2.656a.828.828 0 1 1 0 1.657.828.828 0 0 1 0-1.657m4.478 2.656c1.008 0 1.828-.82 1.828-1.828s-.82-1.828-1.828-1.828c-1.009 0-1.829.82-1.829 1.828s.821 1.828 1.829 1.828m0-2.656a.828.828 0 1 1 0 1.657.828.828 0 0 1 0-1.657m4.352 2.656c1.008 0 1.828-.82 1.828-1.828s-.82-1.828-1.828-1.828c-1.009 0-1.829.82-1.829 1.828s.82 1.828 1.829 1.828m0-2.656a.828.828 0 1 1 0 1.657.828.828 0 0 1 0-1.657m6.505 16.576h-.929c-1.074-5.277-5.75-9.26-11.34-9.26-6.381 0-11.572 5.189-11.572 11.57 0 6.383 5.191 11.572 11.572 11.572 5.64 0 10.344-4.057 11.361-9.404h.907a.5.5 0 0 0 .5-.5v-3.479a.5.5 0 0 0-.499-.499M27.262 38.212c-5.829 0-10.572-4.742-10.572-10.572 0-5.828 4.743-10.57 10.572-10.57 5.83 0 10.572 4.742 10.572 10.57 0 5.83-4.742 10.572-10.572 10.572m11.769-11.369a11.645 11.645 0 0 0-.08-.514h.08v.514z"/><path d="M31.162 22.263a.492.492 0 0 0-.544.209l-3.008 4.576a.503.503 0 0 0-.035.488.505.505 0 0 0 .4.283c.047.004.368.037.828.037 1.322 0 3.794-.264 4.227-2.186.49-2.183-1.008-3.185-1.868-3.407m.891 3.187c-.263 1.17-2.029 1.383-3.117 1.4l2.294-3.49c.433.229 1.113.803.823 2.09m-5.577 2.281a.501.501 0 0 0 .457-.703c-.074-.168-1.854-4.102-4.388-3.303-2.138.666-2.255 2.465-2.019 3.322a.502.502 0 0 0 .453.367l5.467.316.03.001m-5.032-1.291c-.021-.494.139-1.367 1.398-1.76 1.141-.361 2.212 1.066 2.771 2l-4.169-.24zm6.176 1.957a.492.492 0 0 0-.405-.275.526.526 0 0 0-.445.205c-.107.148-2.618 3.65-.666 5.451.698.643 1.39.869 2.004.869a2.74 2.74 0 0 0 1.883-.783.498.498 0 0 0 .09-.576l-2.461-4.891zm-.839 4.647c-.881-.813-.182-2.451.347-3.4l1.876 3.73c-.42.266-1.254.563-2.223-.33"/></svg>