<svg xmlns="http://www.w3.org/2000/svg" width="55.18" height="51.66" viewBox="0 0 55.18 51.66"><path d="M41.654 6.088H13.526c-1.413 0-2.563 1.098-2.563 2.449v34.586c0 1.35 1.149 2.449 2.563 2.449h28.128c1.413 0 2.563-1.1 2.563-2.449V8.537c-.001-1.351-1.15-2.449-2.563-2.449m1.562 2.449v3.633H19.763V7.088h21.891c.861 0 1.562.648 1.562 1.449m-29.69-1.449h5.237v5.082h-6.8V8.537c0-.801.702-1.449 1.563-1.449m28.128 37.484H13.526c-.861 0-1.563-.648-1.563-1.449V13.17h31.253v29.953c0 .801-.701 1.449-1.562 1.449"/><path d="M27.59 20.072c-4.53 0-8.215 3.686-8.215 8.217 0 4.527 3.685 8.213 8.215 8.213 3.783 0 6.969-2.574 7.919-6.063h.986a.5.5 0 0 0 .5-.5V26.48c0-.275-.225-.5-.5-.5h-1.026c-1-3.408-4.151-5.908-7.879-5.908m0 15.43c-3.979 0-7.215-3.236-7.215-7.213 0-3.98 3.236-7.217 7.215-7.217s7.215 3.236 7.215 7.217c0 3.977-3.236 7.213-7.215 7.213m8.406-8.522v.473c-.023-.172-.049-.33-.074-.473h.074z"/><path d="M27.59 16.766c-6.352 0-11.518 5.166-11.518 11.516 0 6.352 5.166 11.518 11.518 11.518 6.351 0 11.517-5.166 11.517-11.518 0-6.35-5.166-11.516-11.517-11.516m0 22.033c-5.799 0-10.518-4.719-10.518-10.518 0-5.797 4.719-10.516 10.518-10.516s10.517 4.719 10.517 10.516c0 5.799-4.718 10.518-10.517 10.518m-3.377-27.315a1.823 1.823 0 0 0 0-3.644c-1.005 0-1.822.818-1.822 1.822s.817 1.822 1.822 1.822m0-2.644a.822.822 0 1 1-.003 1.643.822.822 0 0 1 .003-1.643m4.455 2.644c1.005 0 1.821-.818 1.821-1.822s-.816-1.822-1.821-1.822c-1.004 0-1.821.818-1.821 1.822s.818 1.822 1.821 1.822m0-2.644a.822.822 0 0 1 0 1.644.822.822 0 0 1 0-1.644m4.331 2.644c1.005 0 1.821-.818 1.821-1.822s-.817-1.822-1.821-1.822-1.822.818-1.822 1.822.817 1.822 1.822 1.822m0-2.644a.822.822 0 1 1-.003 1.645A.822.822 0 0 1 33 8.84"/></svg>