<svg xmlns="http://www.w3.org/2000/svg" width="55.18" height="51.66" viewBox="0 0 55.18 51.66"><path d="M45.183 21.993l-2.956-2.934c-.201-.198-.021-4.146-.021-4.428V12.5c0-.586-.475-1.061-1.061-1.061h-3.194c-.586 0-1.062.475-1.062 1.061l.036 2.109-8.729-8.057a1.06 1.06 0 0 0-1.399.029l-16.77 15.376a1.062 1.062 0 0 0 .038 1.597l.53.441a1.063 1.063 0 0 0 1.394-.031l2.1-1.916.074 1.334.025 4.884c0 .586.475 1.061 1.061 1.061h1.688l-.024-3.385c0-.633.513-1.146 1.146-1.146H36.33c.632 0 1.146.514 1.146 1.146v11.004h2.159a1.06 1.06 0 0 0 1.061-1.06l-.037-14.172 2.505 2.275a1.06 1.06 0 0 0 1.392.035l.559-.461c.48-.399.512-1.128.068-1.57"/><path d="M35.412 26.041H16.749c-.634 0-1.148.516-1.148 1.146v2.151h16.771c.633 0 1.146.515 1.146 1.146v10.434h1.896c.633 0 1.146-.514 1.146-1.146V27.188a1.151 1.151 0 0 0-1.148-1.147"/><path d="M31.37 30.479H13.1c-.633 0-1.146.516-1.146 1.146v12.584c0 .634.513 1.146 1.146 1.146h18.27c.634 0 1.146-.514 1.146-1.146V31.625a1.145 1.145 0 0 0-1.146-1.146"/></svg>