<svg xmlns="http://www.w3.org/2000/svg" width="55.18" height="51.66" viewBox="0 0 55.18 51.66"><path d="M27.59 30.06a.846.846 0 0 0-.847.848c0 .289.156.533.379.686a.48.48 0 0 0-.032.16v5.078a.5.5 0 0 0 1 0v-5.078a.5.5 0 0 0-.032-.16.83.83 0 0 0 .378-.686.845.845 0 0 0-.846-.848"/><path d="M41.974 21.099h-4.577v-5.422c0-5.408-4.399-9.807-9.807-9.807s-9.808 4.398-9.808 9.807a.5.5 0 0 0 1 0c0-4.857 3.951-8.807 8.808-8.807s8.807 3.949 8.807 8.807v5.422h-23.19a.5.5 0 0 0-.5.5V45.29a.5.5 0 0 0 .5.5h28.768a.5.5 0 0 0 .5-.5V21.599a.502.502 0 0 0-.501-.5m-.5 23.691H13.707V22.101h27.768V44.79z"/></svg>