<svg xmlns="http://www.w3.org/2000/svg" width="55.18" height="51.66" viewBox="0 0 55.18 51.66"><path d="M37.662 6.146c1.015 0 1.831.815 1.831 1.83v1.916H15.688V7.976c0-1.015.816-1.83 1.831-1.83h20.143zm1.831 31.875H15.687V11.808h23.807v26.213zM23.682 14.96a.933.933 0 0 0-.638.276l-3.527 3.536a.91.91 0 0 0 0 1.273.913.913 0 0 0 1.274 0l3.5-3.562a.878.878 0 0 0 0-1.248c-.173-.171-.383-.275-.609-.275m2.764 1.563a.823.823 0 0 0-.607.249l-4.824 4.746a.878.878 0 0 0 0 1.246c.347.346.9.347 1.247 0l4.824-4.719a.91.91 0 0 0 0-1.273.907.907 0 0 0-.64-.249m13.047 23.415v3.748c0 1.014-.816 1.83-1.831 1.83H17.519a1.826 1.826 0 0 1-1.831-1.83v-3.748h23.805zM27.59 41.671a1.327 1.327 0 0 0 0 2.652 1.327 1.327 0 0 0 0-2.652"/></svg>