<svg xmlns="http://www.w3.org/2000/svg" width="55.18" height="51.66" viewBox="0 0 55.18 51.66"><path d="M27.59 6.265c-10.788 0-19.566 8.777-19.566 19.564l.001.021-.001.008.002.008c.021 10.771 8.788 19.529 19.564 19.529 10.788 0 19.565-8.777 19.565-19.566.001-10.787-8.777-19.564-19.565-19.564m.5 12.927a28.061 28.061 0 0 0 8.479-1.566c.839 2.338 1.429 4.957 1.475 7.732H28.09v-6.166zm0-1.002V7.29c.902.025 1.787.113 2.653.262.309.35 3.399 3.934 5.472 9.141a27.068 27.068 0 0 1-8.125 1.497m-1 .022c-2.896-.025-5.608-.645-8.01-1.525 1.938-4.92 4.809-8.426 5.428-9.145a18.602 18.602 0 0 1 2.582-.252v10.922zm0 1.002v6.145h-9.804c.032-2.777.614-5.398 1.448-7.744 2.51.915 5.343 1.566 8.356 1.599m-10.803 6.144H9.049a18.436 18.436 0 0 1 3.713-10.654 34.166 34.166 0 0 0 5.019 2.543c-.863 2.438-1.465 5.182-1.494 8.111m.008 1c.09 3.006.639 5.693 1.415 8.025a28.804 28.804 0 0 0-4.994 2.51 18.444 18.444 0 0 1-3.665-10.535h7.244zm1 0h9.795v6.15a27.94 27.94 0 0 0-8.442 1.533 27.069 27.069 0 0 1-1.353-7.683m9.795 7.161V44.37a18.537 18.537 0 0 1-2.512-.242l.04-.039c-.803-.803-3.729-3.979-5.638-9.102a27.012 27.012 0 0 1 8.11-1.468m1-.016c2.977.049 5.773.725 8.237 1.658-1.849 4.918-4.613 8.016-5.516 8.936-.888.156-1.796.248-2.722.273V33.503zm0-.998v-6.146h9.953a27.007 27.007 0 0 1-1.382 7.865c-2.561-.967-5.471-1.666-8.571-1.719m10.953-6.147h7.086a18.435 18.435 0 0 1-3.77 10.674 34.356 34.356 0 0 0-4.769-2.439 27.927 27.927 0 0 0 1.453-8.235m.001-1c-.045-2.928-.654-5.67-1.523-8.104a29.12 29.12 0 0 0 4.937-2.498 18.438 18.438 0 0 1 3.674 10.602h-7.088zm2.804-11.4a28.05 28.05 0 0 1-4.682 2.363 34.67 34.67 0 0 0-4.836-8.42c3.775 1 7.087 3.141 9.518 6.057m-18.909-6.08c-1.204 1.545-3.289 4.547-4.812 8.441a33.345 33.345 0 0 1-4.751-2.41 18.575 18.575 0 0 1 9.563-6.031m-9.61 29.82a27.895 27.895 0 0 1 4.721-2.355c1.52 4.07 3.649 6.951 4.945 8.453a18.587 18.587 0 0 1-9.666-6.098m19.173 6.016c1.298-1.537 3.297-4.324 4.752-8.184a33.578 33.578 0 0 1 4.482 2.293 18.572 18.572 0 0 1-9.234 5.891"/></svg>