<svg xmlns="http://www.w3.org/2000/svg" width="55.18" height="51.66" viewBox="0 0 55.18 51.66"><path d="M7.747 41.945v-4.389h39.688v4.389h-.419c-2.261 0-4.521.005-6.784-.008-.275 0-.397.082-.499.323-.631 1.521-1.286 3.033-1.916 4.556-.105.26-.25.334-.534.334a7401.77 7401.77 0 0 0-18.849 0c-.286 0-.424-.082-.541-.334-.701-1.52-1.43-3.026-2.135-4.547-.113-.244-.244-.334-.537-.332-2.338.014-4.676.008-7.015.008h-.459zM21.63 10.794c.05-3.111 2.122-5.695 5.104-6.195 2.063-.346 3.833.325 5.249 1.86 2.441 2.648 2.162 6.919-.586 9.239-3.364 2.841-8.517 1.037-9.538-3.348-.118-.509-.154-1.036-.229-1.556M11.131 35.633c-.247-.256-.381-.179-.594-.398 1.137-2.188 2.146-3.803 3.255-5.936.729.544.783.532 1.486 1.055-1.394 1.742-2.683 3.449-4.147 5.279m9.485.049l-.393-.026.829-5.078.953.277zm8.298.117a54.63 54.63 0 0 1-.745.03c-.288-1.882-.437-3.747-.716-5.58l1.803-.006c-.113 1.799-.226 3.669-.342 5.556m-6.886-9.29c1.01.021 1.749.786 1.725 1.79a1.73 1.73 0 0 1-1.79 1.692 1.741 1.741 0 0 1-1.703-1.781 1.707 1.707 0 0 1 1.768-1.701m16.688 4.163l1.635-1.142 2.964 5.89-.69.493c-1.38-1.763-2.609-3.58-3.909-5.241"/><path d="M38 31.005c.014-.01.025-.019.04-.026h-.021c-1.377.002-2.51-1.172-2.502-2.595a2.53 2.53 0 0 1 2.545-2.545c.521-.001 1 .15 1.402.409-.569-1.994-1.776-3.578-3.432-4.854-2.41-1.859-5.185-2.716-8.197-2.821-3.123-.109-6.044.591-8.659 2.35-1.706 1.146-3.439 2.732-4.066 4.838a2.63 2.63 0 0 1 .854-.145 2.559 2.559 0 0 1 2.573 2.538c.014 1.375-1.129 2.568-2.475 2.58-.05 0-.101 0-.15-.002-.375.43-.754.865-1.138 1.303-.016 1.938-.008 3.521-.008 3.828h4.985l.503-4.771a.11.11 0 0 0 .002-.019l.055-.806a2.565 2.565 0 0 1-.88-1.988c.022-1.43 1.152-2.516 2.589-2.489 1.479.027 2.562 1.151 2.523 2.62a2.52 2.52 0 0 1-1.652 2.316l-1.72 5.135h6.335l-.842-5.838a2.616 2.616 0 0 1-.948-1.873c-.093-1.408.969-2.596 2.402-2.688a2.53 2.53 0 0 1 2.708 2.382 2.547 2.547 0 0 1-.795 2.028c-.145 1.957-.291 3.961-.439 5.989H39.78c0-.168.013-1.227.015-2.564L38 31.005"/><path d="M28.307 26.178c1.009.02 1.748.785 1.723 1.789a1.728 1.728 0 0 1-1.788 1.692 1.74 1.74 0 0 1-1.703-1.781 1.707 1.707 0 0 1 1.768-1.7m9.77.463c1.009.02 1.748.785 1.723 1.789a1.73 1.73 0 0 1-1.789 1.692 1.741 1.741 0 0 1-1.703-1.781 1.707 1.707 0 0 1 1.769-1.7m-22.005-.258c1.01.02 1.748.786 1.724 1.789a1.73 1.73 0 0 1-1.789 1.693 1.742 1.742 0 0 1-1.703-1.781 1.706 1.706 0 0 1 1.768-1.701"/></svg>