<svg xmlns="http://www.w3.org/2000/svg" width="55.18" height="51.66" viewBox="0 0 55.18 51.66"><path d="M29.875 22.404c-.381-.952-1.713-.952-2.095 0l-.38.761c-.189.382-.38.571-.761.571l-1.713.571c-.191-.571-.381-.951-.762-1.143l1.523-2.664c.951-1.334 0-2.856-1.714-3.047-1.143-.19-2.665-.19-3.808.381-.763.382-.952 1.523 0 2.095l.762.38c.381.191.571.381.571.762l.569 1.714c-.569.19-.95.38-1.141.951l-2.476-1.713c-1.332-.952-2.855 0-3.047 1.713-.189 1.144-.189 2.667.382 3.808.381.952 1.714.952 2.095 0l.381-.761c.189-.381.38-.571.761-.571l1.713-.572c.191.572.382.952.951 1.144l-1.712 2.476c-.952 1.332 0 2.854 1.712 3.045 1.144.19 2.666.19 3.81-.38.951-.382.951-1.714 0-2.095l-.763-.381c-.381-.189-.57-.383-.57-.762l-.571-1.715c.571-.188.952-.381 1.142-.951l2.476 1.712c1.333.953 2.854 0 3.046-1.712.19-1.141.19-2.665-.381-3.617m9.138 16.753h3.809v1.901h-3.809zm-26.653 0h3.809v1.901H12.36z"/><path d="M44.725 10.601H10.457c-1.143 0-1.904.761-1.904 1.904v24.749c0 1.143.762 1.903 1.904 1.903h34.268c1.142 0 1.903-.761 1.903-1.903V12.505c-.001-1.144-.762-1.904-1.903-1.904M22.831 35.352c-5.711 0-10.472-4.762-10.472-10.473 0-5.712 4.761-10.471 10.472-10.471 5.712 0 10.471 4.759 10.471 10.471 0 5.711-4.76 10.473-10.471 10.473m19.99 0h-5.712v-3.81h5.712v3.81z"/></svg>