<svg xmlns="http://www.w3.org/2000/svg" width="55.2" height="51.7" viewBox="0 0 55.2 51.7"><path d="M37.9 3.4H15.3c-.7 0-1.3.6-1.3 1.4v14.5c0 .7.6 1.3 1.3 1.3h4.5c-.7.4-1.1.8-1.3 1.1-.6.8-.6 1.7-.1 2.6.2.3.5.8.9 1.4-.3.3-.7.7-.8.9-.6.8-.6 1.7-.1 2.6.9 1.1 1.4 1.7 1.9 2.1-.1.6-.2 1.2-.2 1.8 0 .9.9 2.4 2.5 5.3l.5.8c-.4.2-.6.6-.6 1.1V47c0 .7.5 1.2 1.2 1.2h11.1c.6 0 1.2-.6 1.2-1.2v-6.8c0-.6-.3-1-.8-1.2.1-.4.3-1 .5-1.8 1-3.3 2.6-8.3 2.4-10.3v-.1c-.6-1.8-2.2-3.2-4.2-5-.4-.4-.9-.8-1.3-1.2H38c.7 0 1.3-.6 1.3-1.3V4.8c-.1-.8-.7-1.4-1.4-1.4zM23.5 40.2c0-.1.1-.2.2-.2h11.1c.1 0 .2.1.2.2V47c0 .1-.1.2-.2.2H23.7c-.1 0-.2-.1-.2-.2v-6.8zM34 38.9h-9.8l-.7-1.2c-1.2-2.1-2.4-4.1-2.4-4.7 0-.7.1-1.3.2-2.1.1-.2.1-.5.2-.8.1-.2.1-.4.2-.6 0-.1.1-.2.1-.2.2-.5.4-1 .7-1.5.3-.6.6-1.2.8-1.7V26c0-.1.1-.1.1-.2.1-.2.1-.4.2-.7V25c.1-.2.1-.6.2-1.1.4-2.2.6-5.2.7-6.5v-.1c0-1 .3-2.7.5-2.9.3-.5.9-.7 1.5-.8.9-.1 1.6.2 2 .8.3.3.3 1.9.2 2.4v3.4c0 .7-.1 2.1 0 3.5v.5c0 .7.1 1.3.3 1.9.1.2.1.4.2.5.4 1.1 1.1 2.2 2.2 3.2.2.2.5.2.7 0 .2-.2.2-.5 0-.7 0 0-.5-.5-1-1.2.7 0 1.2-.2 1.2-.2.1 0 .2-.1.3-.2s.1-.3 0-.4c0-.1-.1-.2-.2-.3-.1-.1-.3-.1-.4 0-.2.1-1.1.2-1.6 0h-.1l-.3-.6c-.1-.1-.1-.3-.1-.4-.1-.5-.2-1.2-.3-2.1v-2.9h1.5c.6.6 1.3 1.1 1.8 1.6 1.9 1.7 3.4 3 3.9 4.5.1 1.8-1.5 6.9-2.4 9.9 0 1-.2 1.7-.4 2.1zm-4.2-24.2c.3-.3.7-.6 1.2-.6s.9.1 1.3.4c.2.2.5.2.7 0 .3-.3.7-.5 1.1-.5.9 0 1.7.8 1.7 1.7s-.8 1.7-1.7 1.7c-.4 0-.8-.2-1.1-.5-.1-.1-.2-.1-.3-.1s-.2 0-.3.1c-.6.6-1.7.6-2.3 0 0-.9 0-1.5-.1-2-.2 0-.2-.1-.2-.2zm-10.5 7.5c.1-.2.6-.6 1.9-1.3.7 0 1.4-.1 2.1-.1-.1.8-.2 1.9-.3 2.8-.2-.2-.5-.3-.9-.3-.1 0-.3.1-.4.1-.1.1-.1.2-.1.4 0 .3.2.5.5.5 0 0 .4 0 .6.5v.1c-.1.2-.2.5-.3.8l-.1.2c-.1.1-.1.2-.2.4-.2.3-.3.7-.5 1.1l-.1.1c-.2-.3-.4-.7-.6-1.1l-.1-.2c-.5-.9-1.1-1.9-1.6-2.5-.3-.6-.2-1 .1-1.5zm10.6-4.1c.9.4 1.9.4 2.7-.2.4.3 1 .5 1.5.5 1.5 0 2.7-1.2 2.7-2.7S35.6 13 34.1 13c-.5 0-1 .2-1.5.5-1-.6-2.3-.6-3.2.2-.1-.1-.2-.3-.4-.4-.5-.6-1.4-.9-2.4-.8-.7.1-1.4.4-1.8.8-.6.5-.9 1.1-1 2l-.1.8v1.6c0 .5-.1 1.1-.1 1.8h-8.2c-.2 0-.3-.1-.3-.3V7.7h23.2v11.5c0 .2-.1.3-.3.3h-8c-.1-.4-.1-.9-.1-1.4zm8.3-11.4H15v-2c0-.2.1-.3.3-.3h22.6c.2 0 .3.1.3.3v2zM21 28.6v.2c-.1.2-.1.3-.2.5 0 .1-.1.2-.1.3 0 0 0 .1-.1.2 0 .1 0 .2-.1.2-.3-.3-.7-.8-1.3-1.5-.3-.5-.3-1 .1-1.5l.5-.5 1.2 2.1zm12.2-6.2z"/></svg>