<svg xmlns="http://www.w3.org/2000/svg" width="55.18" height="51.66" viewBox="0 0 55.18 51.66"><path d="M27.598 18.031c1.045 0 2.084-.77 2.851-2.109.864-1.51 1.36-3.873.41-5.486-.43-.73-1.331-1.594-3.178-1.594h-.077c-1.938.012-2.832.852-3.267 1.594-.951 1.613-.454 3.977.41 5.486.766 1.34 1.805 2.109 2.851 2.109m-2.399-7.09c.431-.729 1.214-1.1 2.341-1.1h.064c1.174.012 1.954.355 2.394 1.1.715 1.215.331 3.176-.417 4.484-.575 1.006-1.317 1.605-1.982 1.605-.666 0-1.407-.6-1.982-1.605-.749-1.308-1.133-3.269-.418-4.484"/><path d="M30.826 16.676a.504.504 0 0 0-.461.018.503.503 0 0 0-.25.389c-.009.092-.235 2.281-2.511 2.307-2.269-.025-2.514-2.215-2.522-2.307a.503.503 0 0 0-.25-.389.507.507 0 0 0-.461-.018c-2.046.965-2.582 2.086-2.902 3.945-.309 1.797-.529 4.445-.538 4.557a.498.498 0 0 0 .498.541H33.77a.499.499 0 0 0 .497-.551c-.016-.148-.378-3.613-.538-4.547-.32-1.859-.858-2.98-2.903-3.945m-8.851 8.043c.081-.881.26-2.65.479-3.928.254-1.479.59-2.23 1.775-2.916.34 1.107 1.299 2.49 3.375 2.514 2.066-.023 3.023-1.406 3.363-2.514 1.186.686 1.521 1.438 1.774 2.916.117.684.359 2.889.472 3.928H21.975zm20.314 10.412c1.045 0 2.084-.77 2.851-2.109.863-1.512 1.36-3.873.41-5.486-.431-.729-1.331-1.594-3.177-1.594h-.155c-1.858 0-2.76.865-3.189 1.594-.951 1.613-.454 3.975.41 5.486.765 1.339 1.804 2.109 2.85 2.109m-2.4-7.088c.431-.73 1.213-1.102 2.34-1.102h.066c1.102-.006 1.952.355 2.392 1.102.715 1.213.332 3.174-.416 4.482-.575 1.006-1.317 1.605-1.982 1.605-.666 0-1.407-.6-1.982-1.607-.749-1.306-1.133-3.267-.418-4.48"/><path d="M48.418 37.721c-.319-1.859-.856-2.98-2.902-3.945a.504.504 0 0 0-.711.407c-.009.094-.235 2.281-2.511 2.307-2.269-.025-2.514-2.215-2.523-2.307a.503.503 0 0 0-.709-.407c-2.047.965-2.584 2.086-2.903 3.945-.309 1.797-.529 4.445-.538 4.557a.498.498 0 0 0 .498.541H48.46a.499.499 0 0 0 .497-.551c-.016-.149-.378-3.614-.539-4.547m-11.752 4.097c.081-.881.26-2.65.479-3.928.254-1.477.59-2.229 1.775-2.916.34 1.109 1.299 2.49 3.375 2.514 2.066-.023 3.023-1.404 3.363-2.514 1.186.688 1.521 1.439 1.774 2.916.117.684.359 2.889.472 3.928H36.666zm-23.775-6.687c1.045 0 2.084-.77 2.851-2.109.864-1.512 1.36-3.873.41-5.486-.43-.729-1.331-1.594-3.177-1.594h-.155c-1.858 0-2.76.865-3.189 1.594-.951 1.613-.454 3.975.41 5.486.765 1.339 1.804 2.109 2.85 2.109m-2.399-7.088c.431-.73 1.213-1.102 2.34-1.102h.066c1.11.006 1.953.355 2.393 1.102.715 1.213.331 3.174-.417 4.48-.575 1.008-1.317 1.607-1.982 1.607-.666 0-1.407-.6-1.982-1.607-.749-1.306-1.133-3.267-.418-4.48"/><path d="M16.119 33.775a.504.504 0 0 0-.711.407c-.009.094-.235 2.281-2.511 2.307-2.269-.025-2.514-2.215-2.523-2.307a.504.504 0 0 0-.71-.407c-2.046.965-2.583 2.086-2.902 3.945-.308 1.797-.529 4.445-.538 4.557a.498.498 0 0 0 .498.541h12.341a.499.499 0 0 0 .497-.551c-.017-.148-.378-3.613-.538-4.547-.32-1.859-.858-2.98-2.903-3.945m-8.851 8.043c.082-.881.261-2.65.479-3.928.253-1.477.59-2.229 1.775-2.916.34 1.109 1.299 2.49 3.375 2.514 2.066-.023 3.023-1.404 3.363-2.514 1.186.688 1.521 1.439 1.774 2.916.117.684.359 2.889.472 3.928H7.268zm25.246-4.873l-4.416-2.549v-5.1a.5.5 0 1 0-1 0v5.1l-4.416 2.549a.501.501 0 0 0 .5.866l4.416-2.549 4.416 2.549a.5.5 0 0 0 .5-.866"/></svg>