<svg xmlns="http://www.w3.org/2000/svg" width="55.18" height="51.66" viewBox="0 0 55.18 51.66"><path d="M50.769 22.399l-8.901-15.15a.502.502 0 0 0-.684-.177L4.589 28.577a.494.494 0 0 0-.177.684l8.903 15.15a.5.5 0 0 0 .684.178l36.593-21.504a.5.5 0 0 0 .177-.686m-4.767 2.223L18.039 41.056c-1.389-2.012-4.109-2.658-6.247-1.398-.03.018-.048.043-.074.064l-3.935-6.697c.032-.01.066-.008.096-.025 2.172-1.277 2.926-4.029 1.772-6.238l27.94-16.418a4.709 4.709 0 0 0 3.938 2.131c.671 0 1.347-.152 1.983-.451l3.949 6.723a4.66 4.66 0 0 0-1.814 2.615 4.667 4.667 0 0 0 .355 3.26M41.259 8.187L43 11.149a3.7 3.7 0 0 1-4.541-1.316l2.8-1.646zM8.791 27.269c.875 1.73.277 3.871-1.418 4.869-.03.018-.049.043-.072.064l-1.773-3.018 3.263-1.915zm5.132 16.205l-1.718-2.924c.03-.01.063-.014.092-.031 1.665-.975 3.773-.492 4.88 1.043l-3.254 1.912zm32.941-19.36a3.672 3.672 0 0 1-.248-2.502 3.681 3.681 0 0 1 1.352-2.006l1.687 2.869-2.791 1.639z"/><path d="M29.399 19.517a6.217 6.217 0 0 0-4.757.664 6.282 6.282 0 0 0-2.231 8.592 6.278 6.278 0 0 0 8.59 2.229 6.233 6.233 0 0 0 2.896-3.832 6.23 6.23 0 0 0-.665-4.758 6.234 6.234 0 0 0-3.833-2.895m3.528 7.4a5.236 5.236 0 0 1-2.433 3.223 5.284 5.284 0 0 1-7.223-1.873 5.285 5.285 0 0 1 1.876-7.225 5.248 5.248 0 0 1 3.999-.559 5.246 5.246 0 0 1 3.223 2.434v.002a5.239 5.239 0 0 1 .558 3.998m8.576-9.367a2.421 2.421 0 0 0-3.311-.857 2.422 2.422 0 0 0-.858 3.309c.328.557.853.953 1.478 1.115.202.053.407.08.61.08.426 0 .845-.115 1.221-.336.557-.326.952-.85 1.115-1.475a2.398 2.398 0 0 0-.255-1.836m-.712 1.584a1.402 1.402 0 0 1-.654.863 1.412 1.412 0 0 1-1.939-.504 1.419 1.419 0 0 1 2.446-1.437c.189.328.242.711.147 1.078m-26.287 11.48c-.558.326-.954.85-1.116 1.475s-.071 1.277.255 1.832a2.42 2.42 0 0 0 3.311.861 2.4 2.4 0 0 0 1.114-1.479 2.393 2.393 0 0 0-.255-1.83 2.422 2.422 0 0 0-3.309-.859m2.596 2.44a1.418 1.418 0 0 1-2.743-.713 1.408 1.408 0 0 1 1.37-1.058c.486 0 .961.25 1.224.697h.001c.19.326.244.707.148 1.074"/><path d="M30.536 26.683a.137.137 0 0 0-.21.004l-.015.02-.039.039a1.964 1.964 0 0 1-.062.059c-.023.023-.052.047-.083.074-.033.029-.068.057-.104.086a3.006 3.006 0 0 1-.122.09c-.045.029-.089.061-.137.088a1.805 1.805 0 0 1-2.038-.123l1.496-.881a.137.137 0 0 0 .061-.074.132.132 0 0 0 0-.096l-.161-.488a.154.154 0 0 0-.085-.092.134.134 0 0 0-.123.012l-1.774 1.043a4.192 4.192 0 0 1-.239-.406l1.887-1.109c.07-.041.092-.098.064-.172l-.166-.496a.131.131 0 0 0-.086-.084.13.13 0 0 0-.123.01l-1.811 1.064c-.041-.365.02-.705.181-1.021.16-.316.403-.57.728-.762.036-.02.075-.043.117-.063.041-.023.08-.039.117-.057l.107-.049c.034-.014.065-.027.095-.037l.075-.025a.308.308 0 0 1 .051-.016l.018-.006a.136.136 0 0 0 .088-.064.132.132 0 0 0 .01-.107l-.195-.713a.142.142 0 0 0-.065-.084.171.171 0 0 0-.112-.016c-.271.08-.539.199-.803.354a2.986 2.986 0 0 0-1.257 1.404 2.915 2.915 0 0 0-.174 1.861l-.38.223a.134.134 0 0 0-.068.088.134.134 0 0 0 .018.107l.26.441c.021.037.05.059.086.07a.146.146 0 0 0 .11-.02l.259-.152c.065.131.144.264.234.408l-.255.15c-.033.02-.056.049-.065.088s-.005.074.016.109l.256.436c.02.035.049.055.088.066a.148.148 0 0 0 .109-.016l.367-.215a2.9 2.9 0 0 0 1.719.818c.648.07 1.273-.07 1.877-.424a3.6 3.6 0 0 0 .281-.188l.119-.094.104-.086c.032-.027.062-.055.088-.078.027-.025.051-.047.071-.07.021-.02.036-.041.052-.055.014-.014.024-.023.033-.037l.018-.014a.15.15 0 0 0 .031-.096.135.135 0 0 0-.039-.094l-.5-.532z"/></svg>