<svg xmlns="http://www.w3.org/2000/svg" width="55.18" height="51.66" viewBox="0 0 55.18 51.66"><path d="M46.248 19.916a.493.493 0 0 0 .025-.289c-2.714-10.912-10.69-9.602-10.681-9.598l-14.976.008c-.089-.012-9.047-1.314-11.4 9.605-.004.02.002.037.001.055a2.82 2.82 0 0 0-1.309 2.375 2.827 2.827 0 0 0 2.824 2.824h3.729a2.828 2.828 0 0 0 2.823-2.824c0-.867-.402-1.637-1.023-2.156a.468.468 0 0 0 .03-.193c0-.014-.056-1.258.804-2.166.605-.637 1.531-.961 2.751-.961h16.047c.119.004 2.85-.111 3.292 3.113a2.818 2.818 0 0 0 1.534 5.187h3.729a2.827 2.827 0 0 0 2.824-2.824c0-.869-.404-1.638-1.024-2.156m-31.787 3.98h-3.729a1.824 1.824 0 0 1 0-3.646h3.729a1.824 1.824 0 0 1 0 3.646m21.405-8.3h-16.02c-1.505 0-2.675.43-3.476 1.273-.764.805-.99 1.789-1.055 2.381h-4.98c2.328-9.328 9.801-8.277 10.202-8.221l15.143-.008c.074-.016 6.835-1.119 9.458 8.229l-5.01-.004c-.708-3.799-4.245-3.648-4.262-3.65m8.582 8.3h-3.729c-1.004 0-1.823-.818-1.823-1.824s.819-1.822 1.823-1.822h3.729a1.824 1.824 0 0 1 0 3.646"/><path d="M24.163 25.371a1.62 1.62 0 1 0 0-3.24 1.62 1.62 0 0 0 0 3.24m-1.417 3.381a1.62 1.62 0 1 0-.001-3.239 1.62 1.62 0 0 0 .001 3.239m0-2.24a.62.62 0 1 1 0 1.24.62.62 0 0 1 0-1.24m7.988.619a1.621 1.621 0 0 0 3.241 0 1.62 1.62 0 0 0-3.241 0m2.242 0a.62.62 0 1 1-1.24.001.62.62 0 0 1 1.24-.001m-2.052-1.76a1.62 1.62 0 1 0 0-3.24 1.62 1.62 0 0 0 0 3.24m-6.761 3.578a1.621 1.621 0 1 0 1.621 1.619c0-.892-.727-1.619-1.621-1.619m0 2.24a.62.62 0 1 1 0-1.24.62.62 0 0 1 0 1.24m6.761 1c.894 0 1.621-.727 1.621-1.621a1.622 1.622 0 0 0-3.241 0c0 .895.726 1.621 1.62 1.621m0-2.24a.62.62 0 1 1 .002 1.24.62.62 0 0 1-.002-1.24M27.546 23.9a1.62 1.62 0 1 0 0-3.24 1.62 1.62 0 0 0 0 3.24m0-2.24a.62.62 0 1 1 0 1.24.62.62 0 0 1 0-1.24m.085 8.76c-.894 0-1.621.727-1.621 1.619 0 .895.727 1.621 1.621 1.621s1.62-.727 1.62-1.621a1.62 1.62 0 0 0-1.62-1.619m0 2.24a.62.62 0 1 1-.001-1.24.62.62 0 0 1 .001 1.24"/><path d="M39.041 26.631h-2.688c-.36-4.5-4.13-8.055-8.722-8.055-4.593 0-8.363 3.555-8.724 8.055H16.14c-1.323 0-5.884 6.223-5.884 8.623v4.377c0 1.131.921 2.051 2.052 2.051h30.565c1.131 0 2.052-.92 2.052-2.051v-4.377c0-2.82-4.533-8.623-5.884-8.623m-11.41-7.055c4.218 0 7.654 3.387 7.749 7.584l.009.174c0 4.277-3.481 7.758-7.758 7.758-.268 0-.532-.014-.792-.039-3.908-.398-6.967-3.713-6.963-7.795l.007-.111-.001-.006c.105-4.188 3.536-7.565 7.749-7.565m16.294 20.055c0 .58-.472 1.051-1.052 1.051H12.308c-.58 0-1.052-.471-1.052-1.051v-4.377c0-2.156 4.173-7.357 4.884-7.623h2.737c.003.105.019.207.027.313.009.141.017.281.034.418.018.152.044.301.069.449.023.137.045.273.074.406.032.148.073.291.113.436.036.131.07.262.112.391.046.143.099.277.152.416.049.127.095.252.149.375.059.135.126.266.191.396.06.121.117.24.183.357.071.127.15.25.227.373.071.113.139.229.213.336.084.121.175.236.264.354.08.104.157.209.242.309.094.113.196.219.297.326.088.096.174.195.267.285.105.104.217.199.327.297.097.088.192.176.294.26.114.094.236.178.356.268.104.076.205.154.313.227.126.084.257.158.388.236.11.064.217.135.329.195.136.072.278.137.417.201.114.055.226.113.342.162.148.061.301.111.452.164.115.041.228.088.346.125.161.049.327.086.493.127.112.027.223.063.338.084.185.039.377.063.568.088.098.014.194.033.291.043a8.938 8.938 0 0 0 1.772 0c.097-.01.193-.029.291-.043.19-.025.382-.049.568-.088.115-.021.225-.057.338-.084.166-.041.332-.078.493-.127.117-.037.23-.084.345-.125.152-.053.305-.104.452-.164.116-.051.228-.109.343-.162.139-.064.28-.129.416-.201.113-.061.221-.131.33-.195.13-.078.262-.152.387-.236.108-.072.21-.152.314-.227.119-.09.241-.174.356-.268.101-.084.197-.174.295-.26.109-.098.22-.193.325-.297.093-.092.18-.189.269-.285.1-.107.2-.213.295-.326.085-.1.163-.207.243-.311.088-.117.179-.23.262-.352.075-.107.143-.223.213-.334.078-.125.157-.248.228-.377.065-.115.123-.234.182-.354.067-.131.133-.264.192-.398.054-.123.1-.248.148-.373.054-.139.107-.275.153-.418.042-.129.076-.26.113-.391.04-.145.08-.287.112-.436.029-.133.052-.27.075-.406.025-.148.051-.297.068-.449.016-.137.026-.277.036-.418.006-.105.021-.207.025-.313h2.62c.79.301 4.921 5.092 4.921 7.623v4.378z"/></svg>