<svg xmlns="http://www.w3.org/2000/svg" width="55.18" height="51.66" viewBox="0 0 55.18 51.66"><path d="M44.361 6.575h-6.455a2.493 2.493 0 0 0-2.484 2.359c-.55-.777-1.425-1.719-2.519-1.828-1.57-.16-16.898-.01-17.551-.004a.484.484 0 0 0-.229.061c-.081.043-1.985 1.072-2.325 2.803-.14.717.003 1.434.427 2.137-1.779.637-2.802 1.529-3.043 2.666-.275 1.299.568 2.523 1.172 3.205-1.025.482-2.809 1.541-3.015 3.141-.147 1.135.515 2.275 1.966 3.398-1.231.809-1.863 1.709-1.881 2.689-.031 1.795 2.061 3.043 2.149 3.094.077.045.164.07.253.07h12.616c-.71 2.656-2.862 12.469 3.399 14.582.304.096.567.137.797.137.468 0 .789-.166.995-.336.816-.674.673-2.059.653-2.213-.004-.031-.382-3.188-.154-5.992.17-2.09 4.328-8.305 6.404-11.221a2.496 2.496 0 0 0 2.368 1.736h6.455c1.379 0 2.5-1.121 2.5-2.5V9.075a2.5 2.5 0 0 0-2.498-2.5M28.137 36.464c-.236 2.908.142 6.061.159 6.193.039.318.017 1.061-.298 1.32-.169.139-.455.145-.843.02-6.179-2.084-2.609-13.865-2.572-13.984a.5.5 0 0 0-.478-.646H10.969c-.522-.342-1.563-1.217-1.545-2.15.019-.941 1.114-1.727 2.03-2.221a.5.5 0 0 0 .041-.857c-1.065-.715-2.306-1.797-2.166-2.895.171-1.33 2.272-2.344 3.068-2.623a.501.501 0 0 0 .159-.854c-.468-.398-1.634-1.68-1.396-2.793.186-.869 1.226-1.604 3.009-2.127a.498.498 0 0 0 .242-.799c-.537-.646-.751-1.281-.633-1.885.208-1.076 1.365-1.85 1.714-2.061 1.533-.016 15.865-.146 17.31-.002 1.049.105 2.041 1.695 2.334 2.299a.504.504 0 0 0 .269.244V23.94a.48.48 0 0 0-.223.162c-.276.381-6.802 9.366-7.045 12.362M45.861 24.56c0 .826-.673 1.5-1.5 1.5h-6.455c-.827 0-1.5-.674-1.5-1.5V9.075c0-.828.673-1.5 1.5-1.5h6.455c.827 0 1.5.672 1.5 1.5V24.56z"/></svg>