<svg xmlns="http://www.w3.org/2000/svg" width="55.18" height="51.66" viewBox="0 0 55.18 51.66"><path d="M48.854 9.235H6.326c-.277 0-.5.223-.5.5v26.117c0 .277.223.5.5.5h20.782v5.072h-7.355a.5.5 0 1 0 0 1h15.71a.5.5 0 0 0 0-1h-7.355v-5.072h20.746a.5.5 0 0 0 .5-.5V9.735a.5.5 0 0 0-.5-.5M21.002 27.646h13.176v7.707H21.002v-7.707zm0-8.706h13.176v7.705H21.002V18.94zm-14.176 0h13.177v7.705H6.826V18.94zm14.176-8.705h13.176v7.705H21.002v-7.705zm14.176 8.705h13.176v7.705H35.178V18.94zm13.176-1H35.178v-7.707h13.176v7.707zm-28.352 0H6.825v-7.707h13.177v7.707zM6.826 27.646h13.177v7.707H6.826v-7.707zm28.352 0h13.176v7.707H35.178v-7.707z"/></svg>