<svg xmlns="http://www.w3.org/2000/svg" width="55.18" height="51.66" viewBox="0 0 55.18 51.66"><path d="M51.02 13.678c0-.582-.397-1.082-1.183-1.486-3.147-1.621-13.034-1.717-17.102.988a3.891 3.891 0 0 0-.486-.033H8.938a4.73 4.73 0 0 0-4.241 2.613 1.419 1.419 0 0 0-.217.455.502.502 0 0 0-.008.049 5.6 5.6 0 0 0-.312 1.781v16.684c0 .58.101 1.164.31 1.777a.453.453 0 0 0 .021.09c.043.131.123.293.179.373a4.78 4.78 0 0 0 2.943 2.471v.676a.5.5 0 0 0 .5.5h3.054a.5.5 0 0 0 .5-.5v-.488H29.55v.488a.5.5 0 0 0 .5.5h3.055a.5.5 0 0 0 .5-.5v-.678a4.727 4.727 0 0 0 1.87-1.059l.104-.09c4.149 1.115 12.394.916 14.692-.795.619-.461.749-.961.749-1.299V17.373c0-.059-.004-.123-.013-.189a.44.44 0 0 0 .013-.109v-3.397zM36.057 34.729c0 .252-.029.479-.051.664a4.765 4.765 0 0 1-.218.832.491.491 0 0 0-.028.113c-.014.035-.046.084-.108.184-.232.463-.501.822-.839 1.107a3.727 3.727 0 0 1-2.533.998H8.938c-1.431 0-2.723-.807-3.403-2.158a.955.955 0 0 1-.076-.139.418.418 0 0 0-.022-.086 4.474 4.474 0 0 1-.277-1.516V18.045c0-.475.095-.998.277-1.512a.477.477 0 0 0 .021-.1c.014-.033.044-.08.107-.18.65-1.299 1.942-2.107 3.373-2.107h23.31c.156 0 .321.016.496.045.673.191 1.781.891 2.559 1.523.048.064.093.129.135.195.057.086.106.172.156.266.261.932.422 11.459.462 17.912v.642zm13.963 1.466c0 .158-.116.326-.347.496-1.95 1.453-9.442 1.637-13.386.74.082-.131.158-.266.227-.408.071-.107.17-.254.223-.461.003-.012.006-.023.008-.041.119-.32.181-.633.248-.969.031-.252.061-.508.064-.789 3.066.756 10.465.609 12.963-.857v2.289zm0-3.728c0 .199-.213.383-.392.504-2.115 1.43-9.957 1.539-12.571.76V18.045c0-.066 0-.18-.031-.314a3.411 3.411 0 0 0-.07-.547l-.092-.455c-.03-.15-.06-.275-.11-.418a2.45 2.45 0 0 1 .368-.221c3.361-1.047 10.127-.82 12.312.547.389.244.586.49.586.736v15.094zm0-16.822a4.341 4.341 0 0 0-.453-.236c-1.552-.709-4.363-1.098-7.064-1.098-2.212 0-4.349.26-5.654.818-.174.053-.34.111-.499.17a8.333 8.333 0 0 0-.314-.275 5.787 5.787 0 0 0-.648-.686 4.666 4.666 0 0 0-1.282-.789c4.118-1.994 12.522-1.883 15.274-.469.401.207.64.43.64.598v1.967z"/><path d="M18.443 19.145a.495.495 0 0 0-.535.094.495.495 0 0 0-.134.525c.311.922-.5 3.232-1.336 5.082-.493-1.836-1.487-3.629-2.907-4.15-.809-.305-1.571-.242-2.203.174-1.841 1.219-2.056 5.063-2.075 5.498a.5.5 0 0 0 .832.395c.716-.635 3.239-.422 5.134-.072-1.349 1.416-2.453 3.438-2.106 5.172.195 1.01.691 1.703 1.471 2.059.403.184.851.258 1.311.258 1.801 0 3.781-1.127 3.886-1.186a.502.502 0 0 0-.059-.897c-.9-.373-2.073-3.045-2.765-5.061 1.913.201 4.099-.234 5.097-1.713.543-.816.689-1.658.436-2.504-.662-2.215-3.91-3.616-4.047-3.674m-6.349 6.207c-.64 0-1.254.057-1.766.203.163-1.293.598-3.221 1.552-3.852.365-.24.794-.264 1.302-.072.001 0 .002 0 .003.002 1.052.387 2.043 2.094 2.438 4.113-.868-.17-2.249-.394-3.529-.394m6.5 7.121c-1.015.461-2.611.986-3.594.539-.477-.219-.774-.658-.906-1.342l-.001-.004c-.239-1.193.56-2.965 1.904-4.346.469 1.383 1.449 3.959 2.597 5.153m2.63-7.709c-.739 1.096-2.618 1.443-4.238 1.268.59-1.209 1.756-3.803 1.843-5.578.996.553 2.368 1.531 2.703 2.65.166.556.065 1.099-.308 1.66"/><path d="M16.353 16.572c-5.308 0-9.626 4.336-9.626 9.664s4.318 9.664 9.624 9.664h.06a9.457 9.457 0 0 0 6.709-2.777 9.637 9.637 0 0 0 2.86-6.887c0-5.328-4.318-9.664-9.627-9.664m6.062 15.842c-1.627 1.615-3.748 2.461-6.062 2.486-4.756 0-8.626-3.887-8.626-8.664s3.87-8.664 8.626-8.664c4.757 0 8.627 3.887 8.627 8.664 0 2.34-.911 4.534-2.565 6.178"/></svg>