<svg xmlns="http://www.w3.org/2000/svg" width="55.18" height="51.66" viewBox="0 0 55.18 51.66"><path d="M37.47 9.362H17.709a1.65 1.65 0 0 0-1.647 1.646V40.65c0 .91.74 1.646 1.647 1.646H37.47c.909 0 1.648-.736 1.648-1.646V11.009a1.65 1.65 0 0 0-1.648-1.647M22.649 38.345a.66.66 0 0 1-.661.66h-1.977a.66.66 0 0 1-.662-.66v-1.979a.66.66 0 0 1 .662-.662h1.977a.66.66 0 0 1 .661.662v1.979zm0-6.588c0 .363-.292.66-.661.66h-1.977a.66.66 0 0 1-.662-.66v-1.971a.66.66 0 0 1 .662-.662h1.977a.66.66 0 0 1 .661.662v1.971zm0-6.588a.66.66 0 0 1-.661.662h-1.977a.66.66 0 0 1-.662-.662v-1.977a.66.66 0 0 1 .662-.662h1.977a.66.66 0 0 1 .661.662v1.977zm6.588 13.176a.66.66 0 0 1-.661.66h-1.979a.66.66 0 0 1-.661-.66v-1.979a.66.66 0 0 1 .661-.662h1.979c.362 0 .661.293.661.662v1.979zm0-6.588c0 .363-.292.66-.661.66h-1.979a.66.66 0 0 1-.661-.66v-1.971a.66.66 0 0 1 .661-.662h1.979a.66.66 0 0 1 .661.662v1.971zm0-6.588a.66.66 0 0 1-.661.662h-1.979a.661.661 0 0 1-.661-.662v-1.977a.66.66 0 0 1 .661-.662h1.979a.66.66 0 0 1 .661.662v1.977zm6.587 13.176a.66.66 0 0 1-.661.66h-1.979a.659.659 0 0 1-.661-.66v-8.559a.66.66 0 0 1 .661-.662h1.979a.66.66 0 0 1 .661.662v8.559zm0-13.176a.66.66 0 0 1-.661.662h-1.979a.66.66 0 0 1-.661-.662v-1.977a.66.66 0 0 1 .661-.662h1.979a.66.66 0 0 1 .661.662v1.977zm0-6.588a.66.66 0 0 1-.661.662H20.017a.661.661 0 0 1-.662-.662v-5.264a.66.66 0 0 1 .662-.662H35.17c.362 0 .661.293.661.662v5.264h-.007z"/></svg>