<svg xmlns="http://www.w3.org/2000/svg" width="55.18" height="51.66" viewBox="0 0 55.18 51.66"><path d="M41.441 26.463h-6.857a7.735 7.735 0 0 0 .73-3.26c0-4.266-3.471-7.736-7.736-7.736s-7.736 3.471-7.736 7.736c0 1.131.262 2.242.735 3.26h-6.862a.5.5 0 0 0-.49.404l-3.33 17.027a.495.495 0 0 0 .104.412.496.496 0 0 0 .386.184h9.908l.294 2.645a.5.5 0 0 0 .497.443h1.082a.5.5 0 0 0 .497-.443l.294-2.645h9.242l.294 2.645a.5.5 0 0 0 .497.443h1.083a.5.5 0 0 0 .497-.443l.294-2.645h9.908a.494.494 0 0 0 .386-.184.488.488 0 0 0 .104-.412l-3.331-17.027a.5.5 0 0 0-.49-.404m.503 5.676h-8.839l-.366-4.676h8.29l.915 4.676zM22.165 43.49l.366-4.676h10.094l.366 4.676H22.165zm.444-5.676l.365-4.676h9.207l.365 4.676h-9.937zm-9.593-4.675h8.956l-.364 4.676h-9.505l.913-4.676zm18.721-5.676l.366 4.676h-9.051l.366-4.676h8.319zm1.447 5.676h8.955l.916 4.676h-9.506l-.365-4.676zm-12.342-9.936c0-3.715 3.021-6.736 6.736-6.736s6.736 3.021 6.736 6.736a6.73 6.73 0 0 1-.854 3.26H21.686a6.724 6.724 0 0 1-.844-3.26m-6.715 4.26h8.29l-.366 4.676h-8.838l.914-4.676zm-2.221 11.351h9.623l-.366 4.676H10.992l.914-4.676zm9.813 7.764h-.188l-.221-1.998h.631l-.222 1.998zm11.907 0h-.188l-.222-1.998h.631l-.221 1.998zm.367-3.088l-.366-4.676h9.623l.915 4.676H33.993zm-6.401-31.594a.5.5 0 0 0 .5-.5l-.004-6.814a.5.5 0 0 0-1 0l.004 6.814a.5.5 0 0 0 .5.5m-5.245.723a.5.5 0 0 0 .661.252.5.5 0 0 0 .253-.66L19.77 4.383a.5.5 0 1 0-.914.406l3.491 7.83zm-3.837 3.045a.495.495 0 0 0 .334.127.498.498 0 0 0 .334-.871l-3.345-3.008a.5.5 0 0 0-.668.744l3.345 3.008zm-2.114 4.367a.502.502 0 0 0 .155-.977l-8.153-2.643a.499.499 0 1 0-.309.951l8.153 2.645a.515.515 0 0 0 .154.024"/><path d="M15.832 23.902l-4.364.461a.5.5 0 0 0 .052.998c.018 0 .036-.002.054-.004l4.363-.461a.5.5 0 1 0-.105-.994m27.831 1.455c.018.002.035.004.053.004a.5.5 0 0 0 .051-.998l-4.415-.461a.499.499 0 1 0-.104.994l4.415.461zm3.751-8.634a.499.499 0 0 0-.63-.32l-8.15 2.652a.5.5 0 0 0 .309.952l8.15-2.652a.503.503 0 0 0 .321-.632M35.97 15.627a.497.497 0 0 0 .706.035l3.336-3.008a.499.499 0 1 0-.67-.742l-3.336 3.008a.5.5 0 0 0-.036.707m-3.793-2.756a.498.498 0 0 0 .66-.254l3.482-7.832a.5.5 0 0 0-.914-.406l-3.482 7.832a.5.5 0 0 0 .254.66"/></svg>