<svg xmlns="http://www.w3.org/2000/svg" viewBox="0 0 100 100"><path d="M84.2 10.5L83 9.3c-2.1-2.1-5.4-2.1-7.4 0L15 82.1c-2.1 2.1-2.1 5.4 0 7.4l1.2 1.2c2.1 2.1 5.4 2.1 7.4 0L84.2 18c2.1-2.1 2.1-5.4 0-7.5zM46.3 21C46.3 9.7 37.1.5 25.8.5 14.4.5 5.3 9.7 5.3 21s9.2 20.5 20.5 20.5S46.3 32.4 46.3 21zM33.2 9.5c2.6 0 4.7 2.1 4.7 4.7 0 .8-.6 1.4-1.4 1.4-.8 0-1.4-.6-1.4-1.4 0-1-.8-1.9-1.9-1.9-1 0-1.9.9-1.9 1.9 0 .8-.6 1.4-1.4 1.4s-1.4-.6-1.4-1.4c0-2.6 2.1-4.7 4.7-4.7zm-14.9 0c2.6 0 4.7 2.1 4.7 4.7 0 .8-.6 1.4-1.4 1.4-.8 0-1.4-.6-1.4-1.4 0-1-.8-1.9-1.9-1.9s-1.9.9-1.9 1.9c0 .8-.6 1.4-1.4 1.4-.8 0-1.4-.6-1.4-1.4 0-2.6 2.1-4.7 4.7-4.7zm-6.4 13.2c0-.8.6-1.4 1.4-1.4.8 0 1.4.6 1.4 1.4 0 6.1 4.9 11 11 11s11-4.9 11-11c0-.8.6-1.4 1.4-1.4.8 0 1.4.6 1.4 1.4 0 7.6-6.2 13.9-13.9 13.9-7.5 0-13.7-6.3-13.7-13.9zm62.3 35.8c-11.3 0-20.5 9.2-20.5 20.5s9.2 20.5 20.5 20.5S94.7 90.3 94.7 79c0-11.4-9.1-20.5-20.5-20.5zm7.5 8.9c2.6 0 4.7 2.1 4.7 4.7 0 .8-.6 1.4-1.4 1.4-.8 0-1.4-.6-1.4-1.4 0-1-.8-1.9-1.9-1.9-1 0-1.9.8-1.9 1.9 0 .8-.6 1.4-1.4 1.4-.8 0-1.4-.6-1.4-1.4 0-2.6 2.1-4.7 4.7-4.7zm-14.9 0c2.6 0 4.7 2.1 4.7 4.7 0 .8-.6 1.4-1.4 1.4-.8 0-1.4-.6-1.4-1.4 0-1-.8-1.9-1.9-1.9-1 0-1.9.8-1.9 1.9 0 .8-.6 1.4-1.4 1.4-.8 0-1.4-.6-1.4-1.4-.1-2.6 2.1-4.7 4.7-4.7zm7.4 27.1c-7.6 0-13.9-6.2-13.9-13.9 0-.8.6-1.4 1.4-1.4.8 0 1.4.6 1.4 1.4 0 6.1 4.9 11 11 11s11-4.9 11-11c0-.8.6-1.4 1.4-1.4.8 0 1.4.6 1.4 1.4.2 7.7-6 13.9-13.7 13.9z"/></svg>