<svg xmlns="http://www.w3.org/2000/svg" width="55.18" height="51.66" viewBox="0 0 55.18 51.66"><path d="M33.197 19.003l-.339-5.996H22.403l-.339 5.996zm12.629 0l-1.173-5.996h-9.844l.339 5.996zm-24.157 7.002h11.924l-.285-5.054H21.954zM7.604 27.953l-1.177 6.012h12.84l.34-6.012zm27.94-1.948h11.652l-.989-5.054H35.259zm.45 7.96h12.759l-1.176-6.012H35.654zm-14.435-6.012l-.341 6.012h12.824l-.339-6.012zm-1.107-14.947h-9.856l-1.173 5.997h10.69zm-.449 7.945H9.042l-.988 5.055h11.664z"/><path d="M40.897 33.298c-.146-.212-.358-.333-.58-.333H38.64c-.221 0-.432.121-.58.333a1.202 1.202 0 0 0-.193.777l.319 3.688c.044.508.377.891.774.891h1.038c.396 0 .729-.383.772-.891l.319-3.688a1.19 1.19 0 0 0-.192-.777m-23.318 0c-.147-.212-.358-.333-.58-.333h-1.676c-.223 0-.433.121-.58.333s-.22.495-.194.777l.319 3.688c.044.508.377.891.773.891h1.038c.397 0 .73-.383.774-.891l.318-3.688a1.184 1.184 0 0 0-.192-.777"/></svg>