<svg xmlns="http://www.w3.org/2000/svg" width="55.18" height="51.66" viewBox="0 0 55.18 51.66"><path d="M44.875 27.148c1.231-.807 1.863-1.709 1.881-2.689.031-1.795-2.061-3.041-2.15-3.094a.5.5 0 0 0-.253-.068H31.737c.71-2.658 2.862-12.473-3.398-14.582-.741-.238-1.344-.174-1.793.197-.816.676-.673 2.059-.654 2.213.004.031.382 3.186.155 5.992-.17 2.09-4.326 8.307-6.405 11.221a2.492 2.492 0 0 0-2.368-1.736h-6.455a2.502 2.502 0 0 0-2.5 2.5v15.484c0 1.379 1.121 2.5 2.5 2.5h6.455a2.496 2.496 0 0 0 2.486-2.359c.548.777 1.423 1.719 2.517 1.828.54.055 2.706.072 5.343.072 5.033 0 11.78-.064 12.208-.068a.484.484 0 0 0 .229-.061c.081-.043 1.985-1.072 2.324-2.803.141-.717-.002-1.432-.426-2.137 1.779-.635 2.802-1.531 3.043-2.666.276-1.299-.568-2.523-1.171-3.205 1.025-.482 2.81-1.541 3.015-3.141.146-1.134-.515-2.275-1.967-3.398M18.774 42.586c0 .826-.673 1.5-1.5 1.5h-6.455c-.827 0-1.5-.674-1.5-1.5V27.102c0-.828.673-1.5 1.5-1.5h6.455c.827 0 1.5.672 1.5 1.5v15.484zm24.009-9.545a.502.502 0 0 0-.158.856c.016.012 1.677 1.463 1.395 2.789-.185.869-1.225 1.605-3.009 2.127a.501.501 0 0 0-.244.801c.538.645.751 1.281.633 1.887-.208 1.074-1.365 1.848-1.714 2.059-1.534.014-15.867.143-17.309.002-1.049-.105-2.041-1.695-2.334-2.299a.492.492 0 0 0-.269-.242v-13.3a.49.49 0 0 0 .223-.16c.277-.383 6.804-9.367 7.046-12.363.236-2.906-.142-6.061-.158-6.193-.038-.318-.014-1.064.298-1.32.167-.139.454-.146.842-.02 6.178 2.082 2.61 13.865 2.572 13.984a.502.502 0 0 0 .478.648H44.21c.522.342 1.563 1.215 1.545 2.146-.019.943-1.115 1.73-2.031 2.225a.496.496 0 0 0-.261.416.497.497 0 0 0 .22.439c1.066.715 2.306 1.797 2.166 2.895-.169 1.33-2.27 2.346-3.066 2.623"/></svg>