<svg xmlns="http://www.w3.org/2000/svg" width="55.18" height="51.66" viewBox="0 0 55.18 51.66"><path d="M10.376 38.021c.496 1.379 1.374 3.369 3.264 4.711.179.127.354.215.508.291.055.025.105.054.157.08l.053.028.058.022a8.358 8.358 0 0 0 3.286.561c.657-.02 1.352-.109 2.059-.271 3.913-.897 7.657-2.745 11.445-5.647a40.05 40.05 0 0 0 9.382-10.229c1.487-2.322 2.632-4.724 3.403-7.131.6-1.868 1.163-3.877.938-6.073-.136-1.313-.518-3.202-2.261-4.435-.976-.688-2.131-1.455-3.527-1.842a3.717 3.717 0 0 0-1.078-.142c-.665.019-1.61.269-2.343 1.354-.937 1.387-1.866 2.808-2.765 4.181l-.648.989c-.313.478-.639.972-.927 1.496-.573 1.042-.496 2.201.213 3.177.391.54.756.939 1.145 1.252a43 43 0 0 0 2.374 1.787c-.071.107-.146.216-.22.324a29.98 29.98 0 0 1-1.235 1.727c-2.838 3.598-5.765 6.545-8.944 9.017a18.73 18.73 0 0 1-.399.3 100.538 100.538 0 0 0-2.134-2.541c-.264-.303-.569-.516-.837-.704l-.097-.065c-.598-.422-1.229-.627-1.876-.607-.598.016-1.177.223-1.721.61-2.035 1.454-4 2.895-6.173 4.489-1.132.829-1.543 2.059-1.1 3.291"/></svg>