<svg xmlns="http://www.w3.org/2000/svg" width="55.18" height="51.66" viewBox="0 0 55.18 51.66"><path d="M28.711 8.405h-2.362a.708.708 0 0 0 0 1.418h2.362a.71.71 0 0 0 0-1.418"/><path d="M36.227 6.464H18.954A3.339 3.339 0 0 0 15.619 9.8v32.06a3.339 3.339 0 0 0 3.335 3.336h17.273a3.339 3.339 0 0 0 3.335-3.336V9.8a3.339 3.339 0 0 0-3.335-3.336m2.335 35.396a2.34 2.34 0 0 1-2.335 2.336H18.954a2.339 2.339 0 0 1-2.335-2.336v-3.297h21.943v3.297zm0-4.297H16.619V11.704h21.943v25.859zm0-26.859H16.619V9.8a2.339 2.339 0 0 1 2.335-2.336h17.273A2.34 2.34 0 0 1 38.562 9.8v.904z"/><path d="M27.59 43.073c1.009 0 1.83-.822 1.83-1.83 0-1.01-.821-1.83-1.83-1.83s-1.83.82-1.83 1.83c0 1.008.822 1.83 1.83 1.83m0-2.66a.83.83 0 1 1 0 1.66.83.83 0 0 1 0-1.66m-3.869-14.937a.501.501 0 0 0 .366-.16l7.618-8.209a.5.5 0 1 0-.732-.68l-7.618 8.209a.497.497 0 0 0 .026.705c.096.09.218.135.34.135m-2.145 9.587a.502.502 0 0 0 .368-.16L33.853 21.96a.503.503 0 0 0-.029-.709.505.505 0 0 0-.707.029L21.208 34.226a.5.5 0 1 0 .368.837"/></svg>