<svg xmlns="http://www.w3.org/2000/svg" width="55.18" height="51.66" viewBox="0 0 55.18 51.66"><path d="M45.827 6.259a.49.49 0 0 0-.51.021c-.05.031-5.011 3.254-8.461 3.254h-.021c-3.815-.014-8.87-4.285-8.921-4.33a.504.504 0 0 0-.676.025c-.046.045-4.695 4.582-8.753 4.582-4.082 0-8.542-3.471-8.586-3.506a.5.5 0 0 0-.809.393v26.408c0 1.775 6.208 11.502 18.49 13.461a.522.522 0 0 0 .156 0C39.779 44.653 46.09 35.61 46.09 32.829V6.698a.5.5 0 0 0-.263-.439m-.737 26.57c0 2.477-6.182 10.916-17.432 12.738C15.722 43.626 10.09 34.226 10.09 33.106V7.679c1.536 1.049 5.01 3.133 8.396 3.133 3.853 0 7.948-3.48 9.126-4.561 1.255 1.006 5.605 4.27 9.22 4.283h.016c2.932 0 6.65-1.998 8.243-2.941v25.236z"/><path d="M31.634 21.21v-5.199c0-.277-.223-.5-.5-.5h-7.088a.5.5 0 0 0-.5.5v5.199h-4.921c-.277 0-.5.223-.5.5v6.531c0 .277.223.5.5.5h5.06v5.617a.5.5 0 0 0 .5.5h7.366a.5.5 0 0 0 .5-.5V29.02h4.644c.275 0 .5-.225.5-.5v-6.81a.5.5 0 0 0-.5-.5h-5.061zm4.561 6.811h-4.644a.5.5 0 0 0-.5.5v5.338h-6.366v-5.617a.5.5 0 0 0-.5-.5h-5.06V22.21h4.921a.5.5 0 0 0 .5-.5v-5.199h6.088v5.199c0 .275.225.5.5.5h5.061v5.811z"/></svg>