<svg xmlns="http://www.w3.org/2000/svg" width="100" height="100" viewBox="0 0 100 100"><path d="M41.3 69.537l-.268-3.479c-.801-7.228 1.608-15.126 8.3-23.149 6.018-7.093 9.359-12.311 9.359-18.329 0-6.828-4.281-11.377-12.706-11.512-4.818 0-10.173 1.606-13.516 4.152l-3.208-8.433C33.672 5.579 41.3 3.435 48.39 3.435c15.392 0 22.347 9.501 22.347 19.667 0 9.104-5.08 15.656-11.506 23.282-5.889 6.958-8.027 12.846-7.625 19.673l.131 3.478-10.437.002zm-2.944 18.734c0-4.952 3.343-8.428 8.031-8.428 4.679 0 7.892 3.476 7.892 8.428 0 4.684-3.076 8.294-8.028 8.294-4.686-.002-7.895-3.614-7.895-8.294z"/></svg>