<svg xmlns="http://www.w3.org/2000/svg" width="55.18" height="51.66" viewBox="0 0 55.18 51.66"><g fill="#1D1E1B"><path d="M14.604 39.467V26.686a.5.5 0 0 0-1 0v12.781a.5.5 0 0 0 1 0m26.341-13.281a.5.5 0 0 0-.5.5v15.158H18.813a.5.5 0 0 0 0 1h22.132a.5.5 0 0 0 .5-.5V26.686a.5.5 0 0 0-.5-.5"/><path d="M46.342 25.438L27.944 7.039a.5.5 0 0 0-.707 0L8.838 25.438a.5.5 0 0 0 .707.707L27.59 8.1l18.045 18.045a.497.497 0 0 0 .707 0 .5.5 0 0 0 0-.707M33.202 9.424h5.451v5.256a.5.5 0 0 0 1 0V8.924a.5.5 0 0 0-.5-.5h-5.951a.5.5 0 0 0 0 1"/><path d="M24.859 39.836c4.009 0 7.272-3.264 7.272-7.273s-3.263-7.271-7.272-7.271c-4.01 0-7.273 3.262-7.273 7.271 0 1.232.311 2.395.855 3.412l-6.105 6.455c-.241.311-.552 1.084 0 1.791.324.418.794.547 1.218.547a2.2 2.2 0 0 0 .718-.121l6.375-6.166a7.225 7.225 0 0 0 4.212 1.355m0-13.545c3.459 0 6.272 2.813 6.272 6.271s-2.813 6.273-6.272 6.273-6.273-2.814-6.273-6.273 2.814-6.271 6.273-6.271M13.846 43.729c-.174.041-.551.098-.721-.123-.196-.25-.046-.498-.031-.523l5.9-6.236c.262.359.555.691.877.996l-6.025 5.886z"/></g></svg>