<svg xmlns="http://www.w3.org/2000/svg" viewBox="0 0 58 58"><path d="M47.3 29.7c-1.6 2.2-4.1 3.6-7 3.6-2.9 0-5.4-1.5-7-3.6-.7 0-1.3.2-1.9.6-.9.6-1.5 1.6-1.5 2.8v7.7c0 1.2.6 2.2 1.5 2.8.1 0 .1.1.2.1v.4c0 3-.3 5.4 2.7 5.4h12c3.1 0 2.7-2.4 2.7-5.4v-.4c1-.6 1.7-1.7 1.7-3v-7.6c0-1.9-1.5-3.4-3.4-3.4z"/><path d="M40.3 31.9c-3.9 0-7.1-3.2-7.1-7.1s3.2-7.2 7.1-7.2 7.1 3.2 7.1 7.1-3.2 7.2-7.1 7.2zM29.9 44.8v-.3c-1-1-1.7-2.4-1.7-3.8V33c0-1.7.9-3.3 2.3-4.3.5-.3 1-.6 1.5-.7-.4-1-.6-2.1-.6-3.2 0-.3 0-.7.1-1-.3-.1-.5-.1-.8-.1-2.1 2.9-5.4 4.7-9.1 4.7-3.8 0-7.1-1.9-9.1-4.7-.9 0-1.7.3-2.4.8-1.3.8-2.1 2.1-2.1 3.6v10c0 1.5.8 2.9 1.9 3.6.1.1.2.1.2.2v.6c0 3.9-.4 7 3.6 7h15.6c.5 0 .9 0 1.2-.1-.6-1.3-.6-2.9-.6-4.6z"/><path d="M21.4 26.6c5.1 0 9.3-4.2 9.3-9.4s-4.2-9.3-9.3-9.3c-5.1 0-9.3 4.2-9.3 9.4.1 5.1 4.2 9.3 9.3 9.3z"/></svg>