<svg xmlns="http://www.w3.org/2000/svg" width="55.2" height="51.7" viewBox="0 0 55.2 51.7"><path d="M39.3 12.5l-5.1-5.1c-.1-.1-.2-.1-.4-.1H11.5c-1.3 0-2.3 1-2.3 2.3v33c0 1.3 1 2.3 2.3 2.3h25.6c1.3 0 2.3-1 2.3-2.3V12.8c.1-.1 0-.2-.1-.3zm-5.1-3.8l3.7 3.8h-2.5c-.3 0-.7-.1-.9-.4-.2-.2-.4-.6-.4-.9l.1-2.5zm2.9 35.2H11.5c-.7 0-1.3-.6-1.3-1.3v-33c0-.7.6-1.3 1.3-1.3h21.7v3c0 .6.2 1.2.7 1.6.4.4 1 .7 1.6.7h3v29.1c0 .6-.6 1.2-1.4 1.2z"/><path d="M33.9 25.4H14.5c-.3 0-.5.2-.5.5s.2.5.5.5h19.4c.3 0 .5-.2.5-.5s-.2-.5-.5-.5zm0-4.2H14.5c-.3 0-.5.2-.5.5s.2.5.5.5h19.4c.3 0 .5-.2.5-.5s-.2-.5-.5-.5zm-10-4.2h-9.4c-.3 0-.5.2-.5.5s.2.5.5.5h9.4c.3 0 .5-.2.5-.5s-.2-.5-.5-.5zm10 21.8h-8.4c-.3 0-.5.2-.5.5s.2.5.5.5h8.4c.3 0 .5-.2.5-.5s-.2-.5-.5-.5zm0-5.1H14.5c-.3 0-.5.2-.5.5s.2.5.5.5h19.4c.3 0 .5-.2.5-.5s-.2-.5-.5-.5zm0-4.2H14.5c-.3 0-.5.2-.5.5s.2.5.5.5h19.4c.3 0 .5-.2.5-.5s-.2-.5-.5-.5zm12.6-12H45c0-.4-.1-1-.5-1.5-.2-.3-.7-.6-1.5-.6s-1.2.3-1.4.6c-.4.5-.4 1.1-.4 1.5H41c-.3 0-.5.2-.5.5v22.2c0 .2.2.4.4.5v1.5c0 .1 0 .2.1.2 1.2 2.5 1.8 2.5 2 2.5s.8 0 2.2-2.4c0-.1.1-.2.1-.3v-1.5c.2-.1.4-.2.4-.5V18.5h.3v9.4c0 .3.2.5.5.5s.5-.2.5-.5V18c0-.3-.3-.5-.5-.5zm-5 22.2V18.5h3.1v21.2h-3.1zm.9-23.1c0-.1.2-.2.7-.2.3 0 .5.1.7.3.2.2.2.6.2.9h-1.7c-.1-.4-.1-.7.1-1zm.6 27.2c-.3-.3-.7-1-1.1-1.7v-1.3h2.3V42c-.4.8-1 1.5-1.2 1.8z"/></svg>