<svg xmlns="http://www.w3.org/2000/svg" width="55.18" height="51.66" viewBox="0 0 55.18 51.66"><path d="M22.927 31.764v-1.807c0-.83.086-1.584.256-2.26a7.615 7.615 0 0 1 .781-1.928 9.264 9.264 0 0 1 1.354-1.783 20.34 20.34 0 0 1 2.002-1.794 33.898 33.898 0 0 0 1.734-1.44 7.618 7.618 0 0 0 1.147-1.258c.293-.414.504-.85.635-1.306.13-.455.193-.984.193-1.587 0-.927-.313-1.692-.938-2.295-.627-.602-1.584-.903-2.869-.903-1.124 0-2.332.236-3.625.708a40.386 40.386 0 0 0-4.017 1.733l-2.49-5.396a24.257 24.257 0 0 1 2.282-1.16c.82-.364 1.677-.691 2.563-.977a20.933 20.933 0 0 1 2.698-.671 15.32 15.32 0 0 1 2.685-.244c1.66 0 3.157.199 4.492.599 1.334.398 2.466.98 3.396 1.745a7.707 7.707 0 0 1 2.136 2.783c.497 1.091.745 2.336.745 3.735 0 1.025-.114 1.941-.342 2.747a8.18 8.18 0 0 1-1.015 2.245 11.065 11.065 0 0 1-1.685 2.003 36.38 36.38 0 0 1-2.356 2.038 28.65 28.65 0 0 0-1.672 1.404c-.431.397-.769.777-1.013 1.135s-.411.729-.5 1.111c-.09.382-.135.834-.135 1.354v1.464h-6.443v.005zm-.805 8.347c0-.764.108-1.411.328-1.938.222-.53.524-.956.916-1.282s.852-.563 1.38-.709a6.342 6.342 0 0 1 1.695-.219c.57 0 1.112.072 1.623.219a3.63 3.63 0 0 1 1.356.709c.39.326.699.752.928 1.282.228.527.341 1.175.341 1.938 0 .732-.113 1.359-.341 1.881a3.645 3.645 0 0 1-.928 1.294 3.605 3.605 0 0 1-1.356.745 5.6 5.6 0 0 1-1.623.23 6.022 6.022 0 0 1-1.695-.23c-.528-.154-.988-.402-1.38-.745s-.694-.772-.916-1.294c-.219-.519-.328-1.147-.328-1.881"/></svg>