<svg xmlns="http://www.w3.org/2000/svg" width="55.18" height="51.66" viewBox="0 0 55.18 51.66"><path d="M42.42 36.385l-7.825-7.729c1.146-1.896 1.725-3.996 1.725-6.262 0-1.646-.323-3.243-.964-4.748-.638-1.499-1.514-2.811-2.602-3.9-1.089-1.088-2.402-1.963-3.901-2.603a12.239 12.239 0 0 0-9.496 0c-1.5.641-2.811 1.516-3.897 2.603-1.09 1.09-1.965 2.401-2.604 3.9-.64 1.505-.964 3.102-.964 4.748s.324 3.243.964 4.749c.641 1.5 1.516 2.812 2.604 3.898 1.087 1.088 2.397 1.963 3.897 2.604 1.505.641 3.104.963 4.748.963 2.27 0 4.374-.582 6.272-1.729l7.805 7.699a2.852 2.852 0 0 0 2.122.898c.798 0 1.526-.305 2.104-.882a2.927 2.927 0 0 0 .883-2.102 2.927 2.927 0 0 0-.871-2.107M24.151 28.6a6.252 6.252 0 1 1 0-12.501 6.252 6.252 0 0 1 0 12.501"/></svg>