<svg xmlns="http://www.w3.org/2000/svg" width="55.18" height="51.66" viewBox="0 0 55.18 51.66"><path d="M15.202 22.249a.503.503 0 0 0-.704.063l-7.02 8.406C6.4 25.771 7.227 20.647 9.89 16.183c2.926-4.902 7.707-8.447 13.118-9.727a19.89 19.89 0 0 1 19.493 6.188.5.5 0 1 0 .748-.664 20.875 20.875 0 0 0-20.472-6.496c-5.673 1.34-10.683 5.053-13.745 10.186-2.545 4.266-3.5 9.104-2.801 13.855l-5.319-7.92a.5.5 0 0 0-.83.556l6.69 9.963a.498.498 0 0 0 .389.221h.026a.497.497 0 0 0 .384-.18l7.693-9.213a.497.497 0 0 0-.062-.703m39.895 9.68l-6.686-9.965a.498.498 0 0 0-.799-.041l-.051.061a.516.516 0 0 0-.081.096l-7.566 9.053a.5.5 0 0 0 .767.64l6.883-8.234C48.75 33.14 41.937 42.892 32.166 45.2c-6.705 1.588-13.649-.361-18.568-5.211a.503.503 0 0 0-.708.004.504.504 0 0 0 .005.709c3.981 3.926 9.225 6.041 14.646 6.039a21.09 21.09 0 0 0 4.856-.568c10.019-2.367 17.092-12.199 16.254-22.059l5.617 8.371a.497.497 0 0 0 .693.137.5.5 0 0 0 .136-.693"/></svg>