<svg xmlns="http://www.w3.org/2000/svg" width="55.18" height="51.66" viewBox="0 0 55.18 51.66"><path d="M20.498 18.724c-3.904 3.904-3.904 10.254 0 14.156a9.98 9.98 0 0 0 7.078 2.928 9.981 9.981 0 0 0 7.078-2.928c3.903-3.902 3.903-10.252 0-14.156-3.903-3.903-10.254-3.903-14.156 0m13.449 13.449c-3.514 3.514-9.229 3.514-12.742 0-3.513-3.512-3.513-9.229 0-12.742 1.757-1.756 4.063-2.635 6.371-2.635s4.614.879 6.371 2.635c3.512 3.513 3.512 9.23 0 12.742"/><path d="M46.372 23.151a.5.5 0 0 0-.5-.492h-3.636a14.813 14.813 0 0 0-2.08-4.992l2.618-2.621a.5.5 0 0 0-.005-.712l-3.795-3.678a.504.504 0 0 0-.702.006l-2.569 2.57a14.843 14.843 0 0 0-4.976-2.053V7.468a.499.499 0 0 0-.149-.355c-.098-.096-.216-.166-.358-.145l-5.283.084a.5.5 0 0 0-.493.5v3.633a14.802 14.802 0 0 0-4.99 2.074l-2.63-2.629c-.095-.096-.241-.162-.357-.148a.512.512 0 0 0-.356.152l-3.676 3.795a.5.5 0 0 0 .005.701l2.576 2.576a14.792 14.792 0 0 0-2.06 4.984h-3.73a.5.5 0 0 0-.5.507l.084 5.283a.5.5 0 0 0 .5.492h3.647a14.8 14.8 0 0 0 2.065 4.982l-2.64 2.641a.496.496 0 0 0 .006.712l3.795 3.678a.5.5 0 0 0 .701-.006l2.581-2.582a14.833 14.833 0 0 0 5.01 2.072v3.725a.5.5 0 0 0 .5.5h.008l5.283-.082a.5.5 0 0 0 .492-.5v-3.65a14.79 14.79 0 0 0 4.984-2.074l2.63 2.631a.5.5 0 0 0 .354.146h.003a.5.5 0 0 0 .356-.152l3.677-3.795a.5.5 0 0 0-.006-.701l-2.575-2.576a14.744 14.744 0 0 0 2.063-5h3.709a.507.507 0 0 0 .356-.148.51.51 0 0 0 .144-.359l-.081-5.283zm-4.538 4.791a.5.5 0 0 0-.492.41 13.796 13.796 0 0 1-2.216 5.371.5.5 0 0 0 .059.637l2.518 2.52-2.981 3.074-2.561-2.561a.499.499 0 0 0-.639-.057 13.839 13.839 0 0 1-5.354 2.225.5.5 0 0 0-.408.492v3.568l-4.283.066V40.06a.503.503 0 0 0-.411-.492 13.825 13.825 0 0 1-5.379-2.223.5.5 0 0 0-.637.058l-2.524 2.523-3.075-2.982 2.571-2.57a.502.502 0 0 0 .059-.637 13.84 13.84 0 0 1-2.221-5.354.5.5 0 0 0-.491-.41H9.802l-.068-4.283h3.631a.5.5 0 0 0 .491-.408 13.844 13.844 0 0 1 2.214-5.357.5.5 0 0 0-.059-.637l-2.518-2.518 2.981-3.076 2.562 2.563c.17.17.439.193.638.057a13.795 13.795 0 0 1 5.36-2.227.498.498 0 0 0 .408-.492V8.044l4.284-.068v3.615c0 .24.171.447.41.492a13.81 13.81 0 0 1 5.347 2.205.5.5 0 0 0 .637-.059l2.512-2.514 3.076 2.982-2.551 2.553a.499.499 0 0 0-.058.637 13.835 13.835 0 0 1 2.235 5.363.5.5 0 0 0 .491.408h3.553l.067 4.283h-3.611z"/></svg>