<svg xmlns="http://www.w3.org/2000/svg" width="55.18" height="51.66" viewBox="0 0 55.18 51.66"><path d="M28.843 35.855V22.07c0-1.357.265-2.652.794-3.887a10.035 10.035 0 0 1 2.143-3.201c.902-.9 1.969-1.615 3.202-2.145a9.778 9.778 0 0 1 3.887-.793h1.254c.339 0 .634.124.881.374a1.2 1.2 0 0 1 .372.88v2.506c0 .34-.124.633-.372.881a1.203 1.203 0 0 1-.881.372h-1.254c-1.384 0-2.563.49-3.544 1.469-.979.979-1.469 2.16-1.469 3.544v.627c0 .521.184.967.548 1.331a1.82 1.82 0 0 0 1.332.548h4.387c1.044 0 1.933.366 2.662 1.097.731.731 1.098 1.62 1.098 2.663v7.52c0 1.045-.365 1.933-1.098 2.664-.729.73-1.618 1.097-2.662 1.097h-7.52c-1.044 0-1.933-.365-2.663-1.097-.732-.733-1.097-1.622-1.097-2.665m-17.544 0V22.07c0-1.357.265-2.652.793-3.887a10.024 10.024 0 0 1 2.145-3.201c.9-.9 1.968-1.615 3.201-2.145a9.77 9.77 0 0 1 3.887-.793h1.253c.34 0 .634.124.882.374a1.2 1.2 0 0 1 .371.88v2.506c0 .34-.123.633-.371.881s-.542.372-.882.372h-1.253c-1.384 0-2.564.49-3.545 1.469-.979.979-1.468 2.16-1.468 3.544v.627c0 .521.183.967.549 1.331.365.365.81.548 1.331.548h4.386c1.045 0 1.934.366 2.663 1.097.731.731 1.097 1.62 1.097 2.663v7.52c0 1.045-.364 1.933-1.097 2.664-.729.73-1.618 1.097-2.663 1.097h-7.519c-1.045 0-1.933-.365-2.663-1.097-.731-.733-1.097-1.622-1.097-2.665"/></svg>