<svg xmlns="http://www.w3.org/2000/svg" width="55.18" height="51.66" viewBox="0 0 55.18 51.66"><path d="M26.335 15.804v13.785a9.786 9.786 0 0 1-.793 3.888c-.527 1.233-1.242 2.301-2.144 3.201s-1.968 1.614-3.203 2.146a9.758 9.758 0 0 1-3.885.793h-1.254a1.2 1.2 0 0 1-.881-.373 1.205 1.205 0 0 1-.372-.882v-2.506c0-.34.124-.633.372-.881s.541-.373.881-.373h1.254c1.383 0 2.563-.487 3.544-1.468.979-.979 1.467-2.159 1.467-3.545v-.627c0-.521-.182-.965-.547-1.331a1.815 1.815 0 0 0-1.332-.548h-4.386c-1.044 0-1.933-.365-2.662-1.096-.731-.731-1.097-1.62-1.097-2.663v-7.521c0-1.044.364-1.932 1.097-2.662.729-.731 1.618-1.097 2.662-1.097h7.52c1.044 0 1.933.365 2.662 1.097.733.731 1.097 1.619 1.097 2.663m17.546 0v13.785a9.787 9.787 0 0 1-.794 3.888 10.038 10.038 0 0 1-2.146 3.201c-.899.9-1.967 1.614-3.2 2.146a9.77 9.77 0 0 1-3.887.793H32.6c-.339 0-.633-.124-.881-.373a1.205 1.205 0 0 1-.372-.882v-2.506c0-.34.124-.633.372-.881s.542-.373.881-.373h1.254c1.383 0 2.563-.487 3.544-1.468.979-.979 1.468-2.159 1.468-3.545v-.627c0-.521-.183-.965-.549-1.331a1.811 1.811 0 0 0-1.331-.548H32.6c-1.044 0-1.933-.365-2.662-1.096-.731-.731-1.097-1.62-1.097-2.663v-7.521c0-1.044.364-1.932 1.097-2.662.729-.731 1.618-1.097 2.662-1.097h7.52c1.044 0 1.933.365 2.663 1.097.732.731 1.098 1.619 1.098 2.663"/></svg>