<svg xmlns="http://www.w3.org/2000/svg" width="55.18" height="51.66" viewBox="0 0 55.18 51.66"><path d="M46.001 26.529L27.59 11.575 9.176 26.529v-.391c0-1.457.005-2.914-.006-4.372a.619.619 0 0 1 .256-.541c6.012-4.874 12.017-9.754 18.025-14.633.034-.029.075-.055.134-.096.083.061.169.119.25.185C33.769 11.5 39.7 16.32 45.64 21.133c.269.215.375.431.37.776-.021 1.505-.009 3.011-.009 4.62"/><path d="M42.108 24.986c-4.736-3.791-9.464-7.596-14.193-11.396-.109-.087-.222-.169-.328-.25-.088.067-.146.109-.2.153-4.822 3.876-9.644 7.754-14.472 11.622-.199.161-.231.329-.231.553.005 6.368.004 12.736.004 19.104v.389l29.808.004v-.455c0-6.296-.003-12.592.009-18.888-.002-.37-.106-.603-.397-.836m-9.41 14.273a.367.367 0 0 1-.193.175l-.06.01c-.028.016-.068.029-.117.045-.056.01-.116.031-.191.052a4.987 4.987 0 0 1-.544.128c-.1.022-.216.041-.345.065-.128.018-.256.039-.39.057-.129.016-.27.032-.421.041a5.957 5.957 0 0 1-.45.018c-1.809.024-3.396-.455-4.763-1.445-1.369-.989-2.306-2.342-2.819-4.04l-1.104.014a.357.357 0 0 1-.264-.104.373.373 0 0 1-.111-.265l-.02-1.308a.344.344 0 0 1 .113-.264.354.354 0 0 1 .252-.115l.769-.012a12.698 12.698 0 0 1-.003-1.217l-.78.016a.39.39 0 0 1-.271-.1.353.353 0 0 1-.104-.269l-.021-1.32a.377.377 0 0 1 .1-.272.37.37 0 0 1 .268-.106l1.141-.015c.494-1.635 1.415-2.954 2.772-3.961 1.347-1.008 2.889-1.527 4.617-1.551a8.949 8.949 0 0 1 2.254.237.45.45 0 0 1 .238.172.392.392 0 0 1 .041.274l-.478 1.85c-.021.103-.067.18-.16.229a.323.323 0 0 1-.272.035l-.05-.007a.903.903 0 0 0-.133-.034c-.061-.009-.131-.018-.204-.038-.077-.012-.166-.03-.264-.035-.098-.009-.195-.021-.301-.029a2.976 2.976 0 0 0-.338-.021c-.118-.011-.234-.011-.344-.011-.975.013-1.842.272-2.611.779-.768.498-1.336 1.195-1.71 2.068l5.432-.061a.335.335 0 0 1 .29.139.32.32 0 0 1 .086.299l-.263 1.326c-.03.197-.156.303-.361.306l-5.668.062a9.36 9.36 0 0 0 .022 1.217l5.322-.073a.36.36 0 0 1 .295.134.38.38 0 0 1 .067.314l-.256 1.304a.37.37 0 0 1-.354.305l-4.489.065a4.694 4.694 0 0 0 1.765 2.125c.787.519 1.681.772 2.659.76.138-.002.278-.01.418-.023.138-.016.272-.031.393-.047l.342-.059c.105-.021.199-.039.285-.061.076-.021.144-.037.211-.055.059-.016.106-.031.138-.036l.058-.024a.357.357 0 0 1 .305.018.364.364 0 0 1 .172.238l.437 1.841a.342.342 0 0 1-.035.26"/></svg>