<svg xmlns="http://www.w3.org/2000/svg" width="55.18" height="51.66" viewBox="0 0 55.18 51.66"><path d="M33.528 27.83c-.087-.014-.256-.034-.422-.064-1.029-.199-1.545.021-2.056.955-.364.661-.833 1.146-1.637 1.038-.333-.045-.675-.222-.954-.417-.886-.621-1.386-.648-2.27-.048-1.113.761-1.927.571-2.604-.603-.561-.965-.949-1.149-2.037-.965-1.271.215-1.979-.354-2.053-1.65-.063-1.109-.401-1.52-1.493-1.81-1.145-.303-1.567-1.146-1.138-2.257.449-1.166.37-1.526-.535-2.38-.898-.847-.934-1.712-.014-2.523.797-.703 1.007-1.436.554-2.434-.485-1.069-.002-1.925 1.148-2.246 1.041-.292 1.387-.721 1.45-1.803.075-1.278.795-1.855 2.065-1.651 1.131.181 1.539-.014 2.12-1.014.666-1.145 1.559-1.323 2.61-.524.744.563 1.314.59 2.104.095.2-.126.394-.27.605-.373a1.495 1.495 0 0 1 1.896.499c.126.18.229.377.34.567.427.729.977 1.028 1.787.811 1.316-.354 2.23.496 2.211 1.688-.02 1.005.404 1.445 1.394 1.726 1.244.352 1.634 1.149 1.156 2.367-.416 1.062-.299 1.527.571 2.279.931.802.952 1.731.06 2.559-.917.85-1.004 1.235-.55 2.425.414 1.088 0 1.911-1.121 2.226-1.172.328-1.45.679-1.535 1.94-.059.963-.682 1.591-1.652 1.587m-6.195-16.839c-4.093-.001-7.46 3.362-7.42 7.41.039 4.089 3.323 7.372 7.394 7.391 4.08.019 7.406-3.281 7.446-7.39.04-4.045-3.33-7.411-7.42-7.411"/><path d="M27.346 11.952c-3.539 0-6.406 2.868-6.406 6.406s2.867 6.406 6.406 6.406a6.407 6.407 0 0 0 0-12.812m1.457 5.289a.138.138 0 0 1 .116.063c.03.04.041.081.029.124l-.135.539c-.018.079-.072.12-.155.116l-2.322-.082a3.617 3.617 0 0 0-.017.498l2.183.079c.048 0 .086.021.116.061.027.04.033.082.022.13l-.132.529a.155.155 0 0 1-.055.086.156.156 0 0 1-.098.031l-1.84-.064a1.915 1.915 0 0 0 1.924 1.27l.161-.011.143-.017c.043-.007.082-.013.117-.021l.088-.018c.024-.003.044-.01.059-.012l.021-.009a.137.137 0 0 1 .125.015.135.135 0 0 1 .065.1l.141.764a.13.13 0 0 1-.019.105.155.155 0 0 1-.082.068l-.025.002c-.012.007-.027.012-.049.016s-.049.011-.078.018a2.525 2.525 0 0 1-.371.062l-.16.016c-.053.004-.11.008-.174.009-.061 0-.12 0-.184-.003-.741-.026-1.382-.255-1.922-.689-.54-.433-.896-1.005-1.072-1.712l-.451-.018a.142.142 0 0 1-.106-.048.153.153 0 0 1-.039-.11l.019-.535a.148.148 0 0 1 .052-.106.143.143 0 0 1 .105-.042l.313.011c.002-.179.009-.345.023-.498l-.32-.011a.15.15 0 0 1-.106-.046.14.14 0 0 1-.037-.111l.018-.542a.157.157 0 0 1 .047-.109.155.155 0 0 1 .111-.038l.467.018a3.084 3.084 0 0 1 1.217-1.565 3.152 3.152 0 0 1 1.924-.54c.324.01.63.058.919.143.034.01.063.034.094.075.019.034.02.072.012.114l-.232.748a.132.132 0 0 1-.07.089.129.129 0 0 1-.112.008l-.021-.003a.64.64 0 0 0-.055-.017c-.022-.005-.053-.01-.083-.02a3.228 3.228 0 0 0-.366-.055c-.05-.007-.097-.009-.142-.012a1.935 1.935 0 0 0-1.085.267 1.847 1.847 0 0 0-.743.812l2.227.078zm.149 13.697c-.333-.045-.675-.222-.954-.418-.887-.619-1.387-.646-2.27-.047-1.113.76-1.926.571-2.604-.601-.561-.967-.949-1.151-2.037-.967-.386.064-.713.05-.993-.028-1.517 3.758-3.357 8.15-4.856 11.932-.074.19-.084.543.027.637.154.129.478.154.688.094 1.315-.387 2.636-.773 3.928-1.232.597-.213.913-.123 1.213.457.61 1.176.791 2.158 1.476 3.295.16.267.457.658.717.658.259 0 .459-.443.567-.716 1.111-2.74 5.309-13.037 5.098-13.064m10.872 9.651c-1.019-2.772-1.338-3.994-2.374-6.761-.412-1.102-1.312-3.348-1.949-4.987-.273.21-.621.332-1.039.33-.087-.014-.255-.034-.421-.063-1.032-.199-1.546.021-2.059.953-.361.66-.833 1.146-1.638 1.039-.052-.009-.104-.035-.156-.049a261.188 261.188 0 0 1-1.438 3.822c-.198.499-.4.997-.598 1.496 1.222 3.422 1.792 5.515 2.672 7.854.069.191.302.459.447.452.198-.009.456-.205.571-.393.717-1.171 1.432-2.343 2.081-3.552.3-.56.593-.703 1.205-.478 1.242.461 2.509.858 3.779 1.24.299.09.729.254.974.008.244-.245.045-.637-.057-.911"/></svg>