<svg xmlns="http://www.w3.org/2000/svg" width="55.18" height="51.66" viewBox="0 0 55.18 51.66"><path d="M27.143 48.313a2.236 2.236 0 0 0 1.1-1.463s-.729-3.146 4.979-9.84c1.336-1.545 2.646-2.941 2.646-2.941a.93.93 0 0 0 .592-.897V15.899a.902.902 0 0 0-.898-.884l-17.079.195h-1.425a2.93 2.93 0 0 0-2.928 2.561 2.85 2.85 0 0 0 1.425 2.767h.347a2.93 2.93 0 0 0-2.927 2.562 2.847 2.847 0 0 0 1.419 2.752h.356a2.935 2.935 0 0 0-2.931 2.562 2.852 2.852 0 0 0 1.4 2.806h.264a2.856 2.856 0 0 0-2.849 2.926 2.93 2.93 0 0 0 2.971 2.767H25.41s-1.407 2.296-2.066 4.33c-2.017 6.22 1.593 7.396 2.82 7.344.342-.017.678-.108.979-.274M43.08 15.005c.808 0 1.463.655 1.463 1.464v16.836c0 .81-.655 1.465-1.463 1.465h-4.179a1.464 1.464 0 0 1-1.464-1.465V16.464c0-.809.655-1.464 1.464-1.464l4.179.005zm-.655 3.791a1.303 1.303 0 1 0-1.302 1.302c.719 0 1.302-.583 1.302-1.302"/></svg>