<svg xmlns="http://www.w3.org/2000/svg" width="55.18" height="51.66" viewBox="0 0 55.18 51.66"><path d="M29.01 36.047c1.064-1.984-.334-4.23-2.646-4.082.306-1.283-.014-2.361-1.141-3.091-.973-.629-1.979-.546-2.979.067-.021-.118-.044-.219-.059-.319-.163-1.062-.743-1.804-1.751-2.162-1.021-.365-1.962-.156-2.746.592-.811.773-1.589 1.581-2.382 2.373-.084.083-.171.163-.284.271-.197-.201-.388-.394-.573-.588-1.105-1.152-2.338-2.213-3.296-3.479-4.699-6.203-1.449-15.125 6.145-16.844 3.467-.785 6.594.031 9.33 2.311.065.055.127.116.218.2-.094.099-.178.191-.268.28l-8.263 8.264c-1.324 1.324-1.311 2.84.007 4.184.579.592 1.226 1.002 2.076 1.016.795.012 1.456-.285 2.015-.845 1.774-1.78 3.556-3.555 5.329-5.334.084-.085.138-.2.21-.311.145.132.218.194.285.263 3.916 3.916 7.833 7.832 11.748 11.75.67.67.781 1.539.295 2.248-.604.883-1.835 1.004-2.613.238-.979-.961-1.94-1.938-2.91-2.906-1.154-1.153-2.308-2.31-3.463-3.461-.313-.313-.611-.299-.89.028-.188.224-.195.454-.008.679.098.115.212.219.319.326 2.208 2.208 4.418 4.414 6.624 6.625.75.752.74 1.85-.012 2.52-.688.615-1.686.588-2.354-.086-1.074-1.08-2.138-2.17-3.205-3.258-1.281-1.305-2.564-2.604-3.838-3.916-.21-.217-.36-.225-.56.004-.427.49-.426.729.032 1.188 2.244 2.25 4.49 4.498 6.731 6.751.739.742.724 1.86-.021 2.522a1.723 1.723 0 0 1-2.516-.248.298.298 0 0 1-.044-.228c.537-1.649-.628-3.437-2.496-3.515-.007.001-.016-.01-.046-.027"/><path d="M40.291 29.477c-.104-.134-.176-.246-.269-.338-3.814-3.815-7.634-7.631-11.453-11.445-.424-.424-.608-.426-1.028-.006l-5.748 5.748c-.86.86-1.815.856-2.686-.009l-.229-.229c-.767-.778-.77-1.772.004-2.546 2.383-2.388 4.769-4.772 7.155-7.156.707-.708 1.391-1.444 2.132-2.115 3.117-2.824 6.741-3.686 10.716-2.365 3.977 1.32 6.414 4.187 7.149 8.317.636 3.572-.408 6.714-2.937 9.334-.897.931-1.828 1.83-2.806 2.81m-14.789 1.641c.001.469-.163.875-.491 1.205-1.327 1.333-2.653 2.669-3.992 3.989-.703.692-1.767.679-2.429-.002-.65-.668-.642-1.725.037-2.408a570.959 570.959 0 0 1 3.969-3.967c.531-.526 1.169-.647 1.863-.377.631.249 1.041.88 1.043 1.56m2.9 3.443c-.001.543-.156.95-.487 1.281-1.229 1.232-2.454 2.471-3.695 3.69-.69.681-1.742.668-2.404.003a1.696 1.696 0 0 1 .012-2.409 313.364 313.364 0 0 1 3.693-3.69c.531-.521 1.185-.642 1.867-.344.657.287.985.826 1.014 1.469m-11.966-.954c-.564-.025-1.1-.352-1.39-1.01-.29-.66-.191-1.305.3-1.817a110.793 110.793 0 0 1 3.064-3.068c.652-.63 1.687-.584 2.326.054.641.637.697 1.672.069 2.326a147.72 147.72 0 0 1-3.063 3.069c-.31.307-.709.45-1.306.446m12.631 3.45c.659.058 1.19.353 1.477.99.291.655.23 1.307-.261 1.825a83.57 83.57 0 0 1-2.931 2.933c-.665.635-1.693.578-2.33-.063a1.683 1.683 0 0 1-.025-2.359c.938-.969 1.901-1.914 2.859-2.865.326-.325.743-.435 1.211-.461m-.455 5.995l2.163-2.159c.289.41.19 1.189-.254 1.713-.487.571-1.295.748-1.909.446"/></svg>