<svg xmlns="http://www.w3.org/2000/svg" width="55.18" height="51.66" viewBox="0 0 55.18 51.66"><path d="M38.935 37.859l.738 4.005a.694.694 0 0 1-.094.559.78.78 0 0 1-.438.354l-.127.013a1.13 1.13 0 0 1-.258.084c-.118.017-.256.058-.414.092-.158.041-.342.078-.537.119-.201.039-.417.07-.648.103-.217.037-.472.063-.747.1-.276.029-.556.061-.843.084-.278.02-.583.041-.91.043-.319.008-.636.008-.969-.012-3.891-.142-7.254-1.342-10.087-3.621-2.839-2.273-4.709-5.277-5.631-8.99l-2.373-.086a.792.792 0 0 1-.558-.254.81.81 0 0 1-.209-.58l.097-2.814a.766.766 0 0 1 .271-.555.77.77 0 0 1 .556-.223l1.649.059c.015-.939.04-1.811.128-2.615l-1.679-.053a.837.837 0 0 1-.571-.242.756.756 0 0 1-.196-.586L15.181 20a.842.842 0 0 1 .244-.576.835.835 0 0 1 .586-.203l2.451.092c1.242-3.461 3.362-6.199 6.39-8.223 3.005-2.02 6.378-2.969 10.097-2.834a19.36 19.36 0 0 1 4.822.752c.179.051.339.178.491.393.098.182.107.377.062.596l-1.225 3.928c-.055.215-.167.377-.368.471a.684.684 0 0 1-.592.047l-.105-.018a1.67 1.67 0 0 0-.282-.088c-.127-.025-.279-.053-.437-.105-.164-.031-.354-.08-.561-.102-.207-.033-.42-.064-.644-.096a6.865 6.865 0 0 0-.724-.082 7.24 7.24 0 0 0-.738-.059c-2.098-.082-3.99.387-5.696 1.396-1.707.986-3.002 2.424-3.902 4.262l11.687.414a.737.737 0 0 1 .609.328c.164.203.216.42.152.648l-.704 2.828c-.091.422-.373.635-.813.617l-12.195-.434c-.072.609-.102 1.484-.083 2.614l11.454.416c.25 0 .453.111.617.318.144.207.172.432.114.682l-.69 2.777a.806.806 0 0 1-.283.449.77.77 0 0 1-.514.166l-9.658-.34c.729 1.975 1.913 3.557 3.564 4.76 1.638 1.199 3.53 1.844 5.637 1.918.297.012.601.008.899-.006.299-.018.592-.037.847-.057.256-.027.495-.062.745-.09a9.5 9.5 0 0 0 .614-.101l.463-.094c.129-.025.233-.058.304-.063l.124-.049a.747.747 0 0 1 .649.072c.185.132.315.31.346.535"/></svg>