<svg xmlns="http://www.w3.org/2000/svg" width="55.18" height="51.66" viewBox="0 0 55.18 51.66"><path d="M42.61 19.613h-1.764a13.241 13.241 0 0 0-9.13-12.742V4.65a.518.518 0 0 0-.515-.516h-7.224a.516.516 0 0 0-.513.516v2.221c-5.49 1.795-9.206 6.947-9.135 12.742H12.57a.456.456 0 0 0-.456.455v2.406c0 .252.204.455.456.455h30.04c.25 0 .454-.203.454-.455v-2.406a.456.456 0 0 0-.454-.455m-.456 2.407H13.026v-1.494h2.911a.455.455 0 1 0 .022-.912h-.606a12.216 12.216 0 0 1 8.113-11.67v3.93a.515.515 0 1 0 1.028 0V5.168h2.58v5.156h1.032V5.168h2.58v6.705a.516.516 0 1 0 1.03.063V7.947a12.212 12.212 0 0 1 8.109 11.666h-.582a.454.454 0 0 0-.466.445.454.454 0 0 0 .444.467h2.931v1.495z"/><path d="M34.811 19.609H20.37a.516.516 0 0 0 0 1.032h14.441a.517.517 0 0 0 0-1.032m-1.882 9.067a12.068 12.068 0 0 0-2.006-.799.499.499 0 0 0-.501.828l.114.115c.061.061.117.115.169.174.773.869.996 1.9.683 3.15-.217.855-.689 1.633-1.115 2.291a40.31 40.31 0 0 0-1.492 2.457c-.771 1.406-1.221 2.732-1.375 4.055-.188 1.631.179 3.086 1.094 4.328.786 1.066 1.712 1.744 2.834 2.076.163.047.33.084.496.119l.198.043a.502.502 0 0 0 .557-.261.502.502 0 0 0-.119-.605c-.126-.107-.256-.164-.371-.215-.766-.34-1.205-.879-1.346-1.646-.092-.504-.033-1.055.181-1.732.25-.783.7-1.506 1.133-2.201.402-.643.825-1.33 1.195-2.047.173-.336.309-.676.405-1.014.182.822.184 1.689.013 2.613-.058.305-.146.602-.233.9-.05.168-.098.336-.143.506-.114.432-.063.855.142 1.191.189.309.499.525.875.611.39.086.771 0 1.057-.232a1.08 1.08 0 0 0 .168-.17c.059.164.111.334.156.51.146.559.167.98.074 1.363a4.32 4.32 0 0 1-.16.482l-.091.25c-.071.209.026.42.203.549.178.129.442.109.621-.023l.126-.098c.633-.504 1.147-1.141 1.571-1.945 1.227-2.314 1.605-4.752 1.127-7.246-.729-3.803-2.828-6.621-6.24-8.377m4.23 15.154a5.753 5.753 0 0 1-.338.568 4.823 4.823 0 0 0-.154-.928 6.072 6.072 0 0 0-.876-1.949 3.079 3.079 0 0 0-.235-.277c-.156-.18-.461-.201-.669-.082-.201.115-.28.412-.215.635.009.035.021.072.028.113l.045.199c.029.123.059.24.06.334.001.074-.021.127-.063.16-.047.041-.123.051-.207.033a.354.354 0 0 1-.238-.156c-.063-.102-.073-.25-.03-.416.042-.16.089-.318.136-.479.097-.33.194-.66.256-.998.341-1.83.063-3.535-.822-5.064a1.22 1.22 0 0 0-.283-.34.496.496 0 0 0-.569-.047.503.503 0 0 0-.241.518l.066.375c.114.77-.031 1.529-.439 2.316-.353.684-.764 1.352-1.152 1.977-.469.748-.951 1.523-1.239 2.428-.266.838-.333 1.543-.212 2.215.022.123.051.242.084.357a5.772 5.772 0 0 1-.544-.639c-.771-1.047-1.067-2.23-.905-3.621.138-1.191.55-2.398 1.258-3.691a39.27 39.27 0 0 1 1.455-2.393c.469-.727.99-1.586 1.245-2.59.275-1.096.211-2.092-.189-2.973.103.049.203.098.304.148 3.124 1.607 5.047 4.191 5.715 7.678.432 2.265.086 4.482-1.032 6.589m-9.66-11.891c-.437-1.391-1.327-2.58-2.445-3.264-.754-.461-1.776-.773-2.803-.857-1.464-.119-2.946.287-4.073 1.111-.969.709-1.739 1.865-2.115 3.172-.298 1.043-.483 2.656.337 4.41.218.465.497.887.77 1.297.412.623.802 1.211.94 1.893.049.236.051.439.054.629.006.248.012.506.107.77.222.604.874 1.217 1.554 1.461.446.158.991.172 1.511.172l1.238.01c.357 0 .77-.016 1.127-.131.765-.246 1.387-.91 1.607-1.441.121-.287.142-.625.165-.961.011-.174.021-.354.053-.512.148-.758.507-1.287.924-1.902.279-.412.596-.879.837-1.436a6.37 6.37 0 0 0 .212-4.421m-6.132 6.772l.045.061c.07.094.183.15.3.152h.003a.386.386 0 0 0 .3-.148l.114-.156c-.129.853-.274 1.892-.329 2.616-.099-.59-.269-1.603-.433-2.525m5.001-2.75c-.204.471-.479.879-.747 1.273-.438.646-.891 1.314-1.078 2.271a5.522 5.522 0 0 0-.07.648c-.016.244-.032.496-.088.631-.108.26-.496.715-.992.875-.228.072-.558.082-.819.082h-.046c-.001-1.072.575-4.459.582-4.492a.374.374 0 0 0-.67-.289l-.722.959-.721-.977a.374.374 0 0 0-.455-.119.378.378 0 0 0-.214.42c.22 1.031.688 3.852.793 4.482-.359-.004-.715-.02-.96-.107-.402-.145-.83-.533-.951-.863-.04-.107-.043-.258-.047-.455a4.35 4.35 0 0 0-.072-.799c-.18-.873-.661-1.602-1.091-2.248-.25-.377-.508-.77-.694-1.166a5.25 5.25 0 0 1-.282-3.711c.316-1.098.951-2.061 1.743-2.641.83-.605 1.895-.938 2.977-.938.143 0 .284.004.426.016.878.072 1.737.332 2.362.715.915.559 1.649 1.547 2.013 2.709a5.362 5.362 0 0 1-.177 3.724m-2.701 8.477l-3.621-.545a.258.258 0 0 0-.293.217l-.039.26a.26.26 0 0 0 .218.293l3.62.545a.26.26 0 0 0 .294-.217l.038-.26a.257.257 0 0 0-.217-.293m0-.969l-3.621-.543a.258.258 0 0 0-.293.215l-.039.26a.258.258 0 0 0 .218.293l3.62.547a.262.262 0 0 0 .294-.219l.038-.258a.258.258 0 0 0-.217-.295m-.128 1.918l-.437-.066-2.556-.385-.37-.055c-.212-.031-.41.115-.442.326s.116.41.326.441l.208.031.062.01a1.46 1.46 0 0 0 2.879.433l.215.031a.387.387 0 1 0 .115-.766"/><path d="M21.63 35.455c.346-.723.829-1.262 1.596-1.498a3.913 3.913 0 0 0-1.354 2.123c1.998.1 3.035-1.582 2.813-3.236-1.959-.104-3.232 1.09-3.055 2.611m-2.17-1.6c-.041 1.111.625 1.916 1.49 1.771-.363-.203-.662-.443-.784-.793.374.232.764.477 1.212.758.034-1.196-.915-1.984-1.918-1.736"/></svg>