<svg xmlns="http://www.w3.org/2000/svg" width="55.18" height="51.66" viewBox="0 0 55.18 51.66"><path d="M46.093 42.462H11.225l6.221-14.139c.178.039.361.063.55.063a2.52 2.52 0 0 0 1.046-.229l3.947 5.525a2.535 2.535 0 0 0-.696 1.742 2.559 2.559 0 0 0 2.556 2.555 2.558 2.558 0 0 0 2.555-2.555c0-.93-.503-1.734-1.245-2.184l5.174-14.486c.121.018.242.037.369.037.373 0 .727-.084 1.047-.229l3.946 5.525a2.54 2.54 0 0 0-.696 1.742 2.559 2.559 0 0 0 2.556 2.555 2.558 2.558 0 0 0 2.555-2.555c0-.947-.524-1.768-1.292-2.209l3.906-11.715c.103.014.206.031.313.031a2.559 2.559 0 0 0 2.556-2.555c0-1.41-1.147-2.557-2.556-2.557s-2.556 1.146-2.556 2.557c0 .947.525 1.766 1.292 2.207l-3.905 11.715c-.103-.012-.206-.031-.313-.031a2.54 2.54 0 0 0-1.046.23l-3.948-5.527a2.534 2.534 0 0 0 .697-1.74 2.56 2.56 0 0 0-2.556-2.557 2.56 2.56 0 0 0-2.557 2.557c0 .928.503 1.734 1.247 2.184l-5.174 14.484c-.121-.018-.243-.037-.369-.037a2.54 2.54 0 0 0-1.046.23l-3.948-5.527a2.534 2.534 0 0 0 .697-1.74c0-1.41-1.147-2.557-2.556-2.557s-2.556 1.146-2.556 2.557c0 .863.434 1.625 1.091 2.088l-5.573 12.664V7.327a.5.5 0 0 0-1 0v2.242h-.871a.499.499 0 1 0 0 1h.871v3.111h-.871a.499.499 0 1 0 0 1h.871v3.111h-.871a.5.5 0 0 0 0 1h.871v3.111h-.871a.5.5 0 0 0 0 1h.871v3.113h-.871a.499.499 0 1 0 0 1h.871v3.111h-.871a.499.499 0 1 0 0 1h.871v3.111h-.871a.5.5 0 0 0 0 1h.871v3.111h-.871a.5.5 0 0 0 0 1h.871v3.111h-.871a.5.5 0 0 0 0 1h.871v.871a.5.5 0 1 0 1 0v-.871h3.111v.871a.5.5 0 1 0 1 0v-.871h3.113v.871a.499.499 0 1 0 1 0v-.871h3.111v.871a.5.5 0 1 0 1 0v-.871h3.111v.871a.5.5 0 1 0 1 0v-.871h3.113v.871a.499.499 0 1 0 1 0v-.871h3.111v.871a.499.499 0 1 0 1 0v-.871h3.112v.871a.5.5 0 1 0 1 0v-.871h3.111v.871a.5.5 0 1 0 1 0v-.871h2.242a.5.5 0 1 0 0-.997M44.037 7.827c.857 0 1.556.699 1.556 1.557s-.699 1.555-1.556 1.555c-.17 0-.331-.033-.484-.084l-.005-.004h-.005a1.554 1.554 0 0 1-1.062-1.467 1.56 1.56 0 0 1 1.556-1.557M39.039 24.36l.005.002.009.002a1.553 1.553 0 0 1 1.057 1.467c0 .857-.698 1.555-1.555 1.555a1.557 1.557 0 0 1-1.556-1.555c0-.521.26-.98.654-1.264a1.55 1.55 0 0 1 .902-.293c.17 0 .331.036.484.086m-7.337-9.679a1.56 1.56 0 0 1 1.556 1.557c0 .52-.259.977-.652 1.26 0 0-.002 0-.003.002l-.004.006c-.254.18-.563.287-.897.287a1.52 1.52 0 0 1-.518-.096l-.003-.002h-.008a1.556 1.556 0 0 1-1.028-1.457 1.56 1.56 0 0 1 1.557-1.557m-6.336 19.283l.004.002s.006 0 .008.002a1.554 1.554 0 0 1 1.026 1.457c0 .857-.698 1.555-1.555 1.555a1.557 1.557 0 0 1-1.556-1.555c0-.52.259-.979.651-1.262h.004l.008-.01a1.506 1.506 0 0 1 1.41-.189m-7.37-9.69a1.56 1.56 0 0 1 1.556 1.557c0 .52-.259.977-.652 1.26 0 0-.002 0-.003.002l-.004.004a1.53 1.53 0 0 1-.897.289c-.857 0-1.556-.697-1.556-1.555s.699-1.557 1.556-1.557"/></svg>