<svg xmlns="http://www.w3.org/2000/svg" width="55.18" height="51.66" viewBox="0 0 55.18 51.66"><path d="M47.881 33.585l-1.043-1.312c-1.447-1.818-1.684-3.756-1.587-6.104.092-2.272.053-4.487.003-6.353-.046-1.691-.595-3.317-1.545-4.579-1.02-1.352-2.41-2.156-3.919-2.266-3.292-.239-6.849-.243-11.188-.015-2.789.148-4.095 2.309-4.834 3.921l-.524 1.145h1.26c.754 0 1.533.041 2.223.079l.706.034c3.616.161 6.357 2.794 6.669 6.401.146 1.708.199 7.193.199 8.238v.809l13.58.002zm-17.334.399c-.978 0-4.484-.491-5.366-.908-2.58-1.221-4.058-3.754-4.156-7.136-.04-1.292-.004-2.664.028-3.991.022-.921.047-1.874.047-2.803v-.806h-.809c-1.535 0-2.733.058-4.062.146-3.309.224-5.89 2.95-6.138 6.486-.072 1.042-.067 2.092-.062 3.109.004.435.007.883.003 1.319-.005.477.006.955.017 1.42.048 2.406.094 4.682-1.629 6.719l-1.123 1.328h3.354l3.363.001a3687.446 3687.446 0 0 0 10.701-.009c.664-.002 1.444-.025 2.204-.193 2.099-.465 3.044-1.434 4.368-3.428l.855-1.287-1.542.033h-.053z"/><path d="M22.084 22.172v-2.414l1.212-1.039 2.788-.075zm0 4.081v-3.068l5.199-4.541s1.982.381 2.823 1.188c-.186.316-8.022 6.421-8.022 6.421m0 1.063s.177 2.153 1.433 3.129c2.876-1.854 9.335-7.595 9.335-7.595s-.47-1.683-2.094-2.605c-2.399 2.154-8.674 7.071-8.674 7.071m1.848 3.786s1.526 1.395 3.354 1.676c2.876-1.853 5.872-4.622 5.872-4.622s.211-2.403-.169-4.248c-2.401 2.152-9.057 7.194-9.057 7.194m4.341 1.857s2.18.223 3.682.223c1.1-.771 1.475-1.685 1.475-1.685s.023-.454-.078-2.55c-2.4 2.155-5.079 4.012-5.079 4.012"/></svg>