<svg xmlns="http://www.w3.org/2000/svg" width="55.2" height="51.7" viewBox="0 0 55.2 51.7"><path d="M47 35.2h-1.1V14.6c0-.9-.7-1.6-1.6-1.6h-6.6v-1.9c0-.9-.8-1.7-1.7-1.7H19.5c-.9 0-1.7.8-1.7 1.7V13h-6.7c-.9 0-1.6.7-1.6 1.6v20.5h-.8c-.3 0-.5.2-.5.5V38c0 .1 0 .2.1.3l2.4 2.9c.1.1.2.2.4.2h33.5c.1 0 .3-.1.4-.2l2.4-2.9c.1-.1.1-.2.1-.3v-2.4c0-.2-.2-.4-.5-.4zm-9.3-18.4h4.1c.2 0 .4.1.4.3v15.8c0 .1-.2.3-.4.3h-4.1V16.8zm-18.2-6.3H36c.4 0 .7.3.7.7v21.9H18.8V11.2c0-.4.3-.7.7-.7zm-1.7 22.6h-4.1c-.2 0-.4-.1-.4-.3V17c0-.1.2-.3.4-.3h4.1v16.4zm-7.3-18.5c0-.3.3-.6.6-.6h6.7v1.7h-4.1c-.8 0-1.4.6-1.4 1.3v15.8c0 .7.6 1.3 1.4 1.3h28.1c.8 0 1.4-.6 1.4-1.3V17c0-.7-.6-1.3-1.4-1.3h-4.1V14h6.6c.3 0 .6.3.6.6v20.5H32.4c-.3 0-.5.2-.5.5v.9h-8.2v-.9c0-.3-.2-.5-.5-.5H10.5V14.6zm36 23.3l-2.2 2.6h-33l-2.2-2.6v-1.8h13.6v.9c0 .3.2.5.5.5h9.2c.3 0 .5-.2.5-.5v-.9h13.6v1.8z"/><path d="M42.7 37.9h-6.9c-.3 0-.5.2-.5.5s.2.5.5.5h6.9c.3 0 .5-.2.5-.5s-.2-.5-.5-.5zM22 17.8h3c.9 0 1.7-.8 1.7-1.7v-3c0-.9-.8-1.7-1.7-1.7h-3c-.9 0-1.7.8-1.7 1.7v3c0 .9.8 1.7 1.7 1.7zm-.7-4.7c0-.4.3-.7.7-.7h3c.4 0 .7.3.7.7v3c0 .4-.3.7-.7.7h-3c-.4 0-.7-.3-.7-.7v-3zm6.7 4h6.7c.3 0 .5-.2.5-.5s-.2-.5-.5-.5H28c-.3 0-.5.2-.5.5s.2.5.5.5zm-7.4 3.5h14.1c.3 0 .5-.2.5-.5s-.2-.5-.5-.5H20.6c-.3 0-.5.2-.5.5s.2.5.5.5zm0 2.6h14.1c.3 0 .5-.2.5-.5s-.2-.5-.5-.5H20.6c-.3 0-.5.2-.5.5s.2.5.5.5zm6.8 7.4h-1.1l-.9-1.7-.9 1.7h-1l1.4-2.3-1.3-2.2h1.1l.8 1.6.8-1.6h1L26 28.3l1.4 2.3zm4.1 0h-1.1l-.9-1.7-.9 1.7h-1l1.4-2.3-1.3-2.2h1.1l.8 1.6.8-1.6h1l-1.3 2.2 1.4 2.3zm2.4-3.8c-.2 0-.4.1-.5.2s-.2.4-.3.6h1.1v.5H33v.5h1v.5h-.9c.1.3.2.4.3.6.1.1.3.2.6.2h.5c.1 0 .3-.1.4-.1v.8c-.1.1-.2.1-.4.1H34c-.5 0-.9-.1-1.2-.4s-.5-.6-.6-1.1h-.4v-.5h.4v-.4h-.4v-.5h.4c0-.3.1-.5.2-.7.1-.2.2-.4.4-.5.1-.1.3-.2.5-.3.2-.1.4-.1.7-.1.2 0 .4 0 .6.1.2 0 .3.1.5.2l-.4.5c-.1-.1-.3-.1-.4-.1-.1 0-.2-.1-.4-.1z"/></svg>