<svg xmlns="http://www.w3.org/2000/svg" width="55.2" height="51.7" viewBox="0 0 55.2 51.7"><path d="M48.4 43.6h-3V17.2c0-.3-.2-.5-.5-.5h-5c-.3 0-.5.2-.5.5v26.4h-3.9V26.4c0-.3-.2-.5-.5-.5h-5c-.3 0-.5.2-.5.5v17.2h-4V22.4c0-.3-.2-.5-.5-.5h-5c-.3 0-.5.2-.5.5v21.3h-3.9V30.6c0-.3-.2-.5-.5-.5h-5c-.3 0-.5.2-.5.5v13.1H6.8c-.3 0-.5.2-.5.5s.2.5.5.5h41.7c.3 0 .5-.2.5-.5s-.3-.6-.6-.6zm-8-25.9h4v25.9h-4V17.7zm-9.9 9.2h4v16.7h-4V26.9zm-10-4h4v20.8h-4V22.9zm-9.8 8.2h4v12.6h-4V31.1z"/><path d="M41.9 7c-1.6 0-3 1.3-3 3 0 .3 0 .5.1.8l-5 4.5c-.5-.5-1.2-.8-2-.8-1.1 0-2 .6-2.6 1.5l-4.7-1.8c.2-.4.2-.8.2-1.2 0-1.6-1.3-3-3-3s-3 1.3-3 3c0 .5.1 1 .3 1.4l-5.3 5.5c-.5-.4-1.2-.7-1.9-.7-1.6 0-3 1.3-3 3s1.3 3 3 3 3-1.3 3-3c0-.5-.2-1-.4-1.5l5.3-5.4c.5.5 1.2.8 2 .8.9 0 1.6-.4 2.2-.9L29 17c0 .2-.1.4-.1.6 0 1.6 1.3 3 3 3s3-1.3 3-3c0-.5-.1-1-.3-1.4l4.8-4.3c.5.8 1.4 1.3 2.4 1.3 1.6 0 3-1.3 3-3S43.6 7 41.9 7zM12.2 24c-1.1 0-2-.9-2-2s.9-2 2-2 2 .9 2 2-.9 2-2 2zm9.9-9.1c-1.1 0-2-.9-2-2s.9-2 2-2 2 .9 2 2-.9 2-2 2zm9.9 4.5c-1.1 0-2-.9-2-2s.9-2 2-2 2 .9 2 2-.9 2-2 2zm9.9-7.4c-1.1 0-2-.9-2-2s.9-2 2-2 2 .9 2 2-.9 2-2 2z"/></svg>