<svg xmlns="http://www.w3.org/2000/svg" width="55.18" height="51.66" viewBox="0 0 55.18 51.66"><path d="M48.481 21.08a.501.501 0 0 0-.403-.342l-13.847-2.012L28.039 6.18c-.168-.34-.729-.34-.897 0L20.95 18.727 7.102 20.738a.501.501 0 0 0-.276.856l10.019 9.766-2.366 13.789a.5.5 0 0 0 .726.529l12.386-6.512 12.384 6.512a.504.504 0 0 0 .726-.529L38.335 31.36l10.019-9.766a.501.501 0 0 0 .127-.514m-11.032 9.746a.502.502 0 0 0-.145.443l2.24 13.051-11.721-6.162a.503.503 0 0 0-.465 0L15.637 44.32l2.239-13.051a.502.502 0 0 0-.145-.443l-9.482-9.242 13.105-1.904a.5.5 0 0 0 .376-.273l5.861-11.875 5.86 11.875a.5.5 0 0 0 .376.273l13.104 1.902-9.482 9.244z"/></svg>