<svg xmlns="http://www.w3.org/2000/svg" width="55.18" height="51.66" viewBox="0 0 55.18 51.66"><path d="M30.125 31.9V10.538h-.004c-.042-2.362-1.966-4.267-4.339-4.267s-4.299 1.904-4.34 4.267h-.006V31.9a7.438 7.438 0 0 0-3.104 6.039 7.447 7.447 0 1 0 14.894 0 7.428 7.428 0 0 0-3.101-6.039m-4.359-11.884c-.688 0-1.25-.562-1.25-1.25v-8.395c0-.688.563-1.25 1.25-1.25.688 0 1.25.563 1.25 1.25v8.395c0 .688-.563 1.25-1.25 1.25m5.549-9.192h5.532v1.104h-5.532zm0 6.638h5.532v1.106h-5.532z"/><path d="M31.315 20.782h3.316v1.104h-3.316zm0-6.639h3.316v1.107h-3.316zm0 9.958h5.532v1.108h-5.532zm0 3.319h3.316v1.105h-3.316z"/></svg>