<svg xmlns="http://www.w3.org/2000/svg" width="55.18" height="51.66" viewBox="0 0 55.18 51.66"><path d="M48.738 9.39c.001-.016.004-.031.003-.049a.475.475 0 0 0-.063-.217c-.006-.012-.016-.016-.022-.025-.004-.006-.003-.014-.007-.02-.008-.008-.021-.01-.029-.021a.493.493 0 0 0-.182-.133c-.016-.006-.027-.016-.043-.021a.528.528 0 0 0-.25-.01c-.01.002-.02-.004-.028 0L6.81 19.964a.5.5 0 0 0-.234.827l7.858 8.307v10.928a.504.504 0 0 0 .5.5c.12 0 .239-.045.333-.127l5.347-4.768 6.615 6.992a.494.494 0 0 0 .363.156h.049a.516.516 0 0 0 .375-.234L48.67 9.642c.006-.01.003-.021.008-.029a.52.52 0 0 0 .06-.223m-3.947 1.431L15.014 28.253l-7.135-7.541 36.912-9.891zM15.435 38.907v-8.752l4.491 4.748-4.491 4.004zm12.078 2.559l-6.819-7.209-4.965-5.264 31.009-18.154-19.225 30.627z"/></svg>