<svg xmlns="http://www.w3.org/2000/svg" width="55.18" height="51.66" viewBox="0 0 55.18 51.66"><path d="M28.038 3.578a2.23 2.23 0 0 0-1.101 1.463s.729 3.147-4.979 9.839c-1.336 1.545-2.646 2.944-2.646 2.944a.92.92 0 0 0-.591.897v17.271a.899.899 0 0 0 .897.883l17.072-.195h1.429a2.933 2.933 0 0 0 2.927-2.561 2.855 2.855 0 0 0-1.425-2.77h-.35a2.93 2.93 0 0 0 2.931-2.563 2.857 2.857 0 0 0-1.421-2.752h-.351a2.925 2.925 0 0 0 2.927-2.561 2.855 2.855 0 0 0-1.397-2.807h-.268a2.857 2.857 0 0 0 2.854-2.857l-.001-.069a2.928 2.928 0 0 0-2.976-2.766h-11.8s1.408-2.296 2.067-4.33c2.016-6.22-1.593-7.395-2.821-7.344a2.264 2.264 0 0 0-.977.278M12.101 36.884a1.463 1.463 0 0 1-1.464-1.463V18.583c0-.809.655-1.464 1.464-1.464h4.175c.813 0 1.467.655 1.467 1.464v16.842c0 .808-.654 1.464-1.467 1.464l-4.175-.005zm.653-3.79a1.303 1.303 0 1 0 2.606 0 1.303 1.303 0 0 0-2.606 0"/></svg>