<svg xmlns="http://www.w3.org/2000/svg" width="55.18" height="51.66" viewBox="0 0 55.18 51.66"><path d="M16.702 30.991a2.551 2.551 0 0 0-2.548 2.549c0 1.404 1.143 2.547 2.548 2.547s2.548-1.143 2.548-2.547a2.551 2.551 0 0 0-2.548-2.549m0 4.096a1.548 1.548 0 1 1 0-3.097 1.548 1.548 0 0 1 0 3.097m21.79-4.096a2.552 2.552 0 0 0-2.548 2.549 2.551 2.551 0 0 0 2.548 2.547 2.551 2.551 0 0 0 2.549-2.547 2.552 2.552 0 0 0-2.549-2.549m0 4.096a1.548 1.548 0 1 1 0-3.097 1.548 1.548 0 0 1 0 3.097"/><path d="M45.721 16.782a2.271 2.271 0 0 0-2.268 2.268v1.066h-.649l.002-12.656c0-.277-.223-.5-.5-.5l-29.425-.01a.5.5 0 0 0-.5.5v12.666h-.655V19.05c0-1.25-1.017-2.268-2.267-2.268S7.192 17.8 7.192 19.05v3.133a2.269 2.269 0 0 0 4.535 0v-1.066h.655v7.475h-1.155a.5.5 0 0 0-.5.5v12.461a.5.5 0 0 0 .5.5h2.603v.4a2.262 2.262 0 0 0 2.26 2.258h3.577a2.263 2.263 0 0 0 2.259-2.258v-.4h11.333v.4a2.261 2.261 0 0 0 2.258 2.258h3.577a2.261 2.261 0 0 0 2.259-2.258v-.4h2.603a.5.5 0 0 0 .5-.5V29.116a.5.5 0 0 0-.499-.5l-1.151-.004.001-7.496h.649v1.066a2.269 2.269 0 0 0 4.535 0V19.05a2.275 2.275 0 0 0-2.27-2.268m-34.995 5.401a1.268 1.268 0 0 1-2.535 0V19.05c0-.699.568-1.268 1.268-1.268.698 0 1.267.568 1.267 1.268v3.133zM13.381 7.95l28.425.01-.002 12.631c0 .008-.004.016-.004.025 0 .008.004.016.004.025l-.001 7.967-1.743-.014V12.989a.5.5 0 0 0-.5-.5h-3.99v-2.326a.5.5 0 0 0-1 0v2.326h-2.719v-2.326a.5.5 0 0 0-1 0v2.326h-2.719v-2.326a.5.5 0 0 0-1 0v2.326h-2.72v-2.326a.5.5 0 0 0-1 0v2.326h-2.72v-2.326a.5.5 0 0 0-1 0v2.326H15.68a.5.5 0 0 0-.5.5v15.602h-1.8V7.95zm7.543 34.502a1.26 1.26 0 0 1-1.259 1.258h-3.577a1.26 1.26 0 0 1-1.26-1.258v-.4h6.096v.4zm19.427 0a1.26 1.26 0 0 1-1.259 1.258h-3.577a1.259 1.259 0 0 1-1.258-1.258v-.4h6.094v.4zm.5-1.4H11.725v-3.188h31.728v3.188h-2.602zm2.603-11.438v7.25H11.726v-7.273h3.955a.5.5 0 0 0 .5-.5V13.489H39.06v15.602c0 .273.222.498.496.5l2.744.021h.002l1.152.002zm3.534-7.431a1.268 1.268 0 0 1-2.535 0V19.05a1.268 1.268 0 0 1 2.535 0v3.133z"/><path d="M31.289 31.659a.5.5 0 0 0 0-1h-7.371a.5.5 0 0 0 0 1h7.371zm1.752 1.998H22.208a.5.5 0 0 0 0 1h10.833a.5.5 0 1 0 0-1m4.229-8.746v-6.172a3.338 3.338 0 0 0-3.335-3.334H21.584a3.34 3.34 0 0 0-3.335 3.334v6.172a3.34 3.34 0 0 0 3.335 3.334h12.351a3.338 3.338 0 0 0 3.335-3.334m-1 0a2.337 2.337 0 0 1-2.335 2.334h-4.761l2.788-2.953a.5.5 0 1 0-.727-.686L27.8 27.245h-3.511l2.787-2.953a.501.501 0 0 0-.021-.707.498.498 0 0 0-.706.021l-3.434 3.639h-1.332a2.337 2.337 0 0 1-2.335-2.334v-6.172a2.337 2.337 0 0 1 2.335-2.334h12.351a2.337 2.337 0 0 1 2.335 2.334v6.172z"/></svg>