<svg xmlns="http://www.w3.org/2000/svg" width="55.18" height="51.66" viewBox="0 0 55.18 51.66"><path d="M34.801 23.128l-13.162-5.473a.51.51 0 0 0-.391.939l13.16 5.475a.51.51 0 0 0 .393-.941"/><path d="M41.906 26.087l-1.607-.668a13.069 13.069 0 0 0-3.491-15.072l.842-2.023a.51.51 0 0 0-.273-.664l-6.582-2.738a.512.512 0 0 0-.664.275l-.843 2.023a13.073 13.073 0 0 0-13.152 8.15l-1.604-.666a.449.449 0 0 0-.587.242l-.911 2.191a.45.45 0 0 0 .242.588l1.959.816c-.359 1.162-.454 2.164-.454 3.389 0 6.758 11.688 23.902 12.186 24.629a.5.5 0 0 0 .411.217h.001a.5.5 0 0 0 .411-.215c.073-.105 7.299-10.572 10.521-18.426l2.338.973a.45.45 0 0 0 .587-.242l.911-2.191a.45.45 0 0 0-.241-.588M27.38 45.386c-2.107-3.156-11.6-17.691-11.6-23.455 0-1.119.078-1.996.38-3.006l6.556 2.727a4.703 4.703 0 0 0 2.685 5.176 4.652 4.652 0 0 0 1.904.406 4.71 4.71 0 0 0 3.888-2.057l6.19 2.576c-2.734 6.67-8.424 15.293-10.003 17.633m-3.711-23.338l6.568 2.732c-1.027 1.336-2.866 1.832-4.429 1.135a3.7 3.7 0 0 1-2.139-3.867m16.91 6.058L16.393 18.048a.487.487 0 1 0-.8-.332l-1.557-.648.564-1.359 2.653 1.102a.45.45 0 1 0 .365-.823c-.006-.004-.012-.006-.018-.008l-.534-.221a12.057 12.057 0 0 1 11.815-7.561l-1.49 3.58a.511.511 0 0 0 .234.682.512.512 0 0 0 .682-.234c.009-.02.018-.037.023-.057l2.541-6.111 2.352.979-1.955 4.699.941.391 1.953-4.699 2.352.977-2.541 6.111a.508.508 0 1 0 .938.391l1.487-3.578a12.054 12.054 0 0 1 2.971 13.705l-.531-.221a.448.448 0 0 0-.594.23.448.448 0 0 0 .249.6l2.652 1.104-.566 1.359z"/></svg>