<svg xmlns="http://www.w3.org/2000/svg" width="55.18" height="51.66" viewBox="0 0 55.18 51.66"><path d="M21.168 41.182c13.957-.348 21.579-11.959 21.579-22.051 0-.336-.007-.67-.022-1.002a15.785 15.785 0 0 0 3.897-4.014 15.765 15.765 0 0 1-4.485 1.221 7.792 7.792 0 0 0 3.433-4.289 15.737 15.737 0 0 1-4.959 1.881 7.825 7.825 0 0 0-5.7-2.449c-4.313 0-7.813 3.473-7.813 7.754 0 .607.069 1.199.203 1.766a22.23 22.23 0 0 1-16.101-8.1 7.658 7.658 0 0 0-1.059 3.898 7.727 7.727 0 0 0 3.477 6.451 7.822 7.822 0 0 1-3.539-.969v.098c0 3.756 2.691 6.889 6.266 7.602a7.807 7.807 0 0 1-3.53.132 7.814 7.814 0 0 0 7.297 5.385 15.742 15.742 0 0 1-9.699 3.318c-.627 0-1.247-.035-1.855-.107v.004a22.226 22.226 0 0 0 11.508 3.471h1.102"/></svg>