<svg xmlns="http://www.w3.org/2000/svg" width="55.18" height="51.66" viewBox="0 0 55.18 51.66"><path d="M28.403 22.674a.5.5 0 0 0 .5-.5V17.59a.5.5 0 0 0-1 0v4.584c0 .277.223.5.5.5m0 3.135a.5.5 0 0 0 .5-.5v-1.045a.5.5 0 1 0-1 0v1.045a.5.5 0 0 0 .5.5m5.457 5.211h-4.954v-3.635a.5.5 0 1 0-1 0v4.135a.5.5 0 0 0 .5.5h5.454a.5.5 0 0 0 0-1m2.811 0h-.697a.5.5 0 1 0 0 1h.697a.5.5 0 0 0 0-1"/><path d="M48.282 26.377h-4.307a.5.5 0 0 0-.5.5v1.311H32.344V17.057h1.541a.5.5 0 0 0 .5-.5V12.25a.5.5 0 0 0-.5-.5H21.354a.5.5 0 0 0-.5.5v4.307a.5.5 0 0 0 .5.5h1.479v11.131H11.705v-1.311a.5.5 0 0 0-.5-.5H6.898a.5.5 0 0 0-.5.5V39.41a.5.5 0 0 0 .5.5h4.307a.5.5 0 0 0 .5-.5v-1.711h31.771v1.711a.5.5 0 0 0 .5.5h4.307a.5.5 0 0 0 .5-.5V26.877a.502.502 0 0 0-.501-.5M21.854 12.75h11.531v3.307H21.854V12.75zM10.705 38.91H7.398V27.377h3.307V38.91zm1-2.211v-7.512h11.629a.5.5 0 0 0 .5-.5v-11.63h7.511v11.631c0 .275.225.5.5.5h11.631V36.7H11.705zm36.077 2.211h-3.307V27.376h3.307V38.91z"/></svg>