<svg xmlns="http://www.w3.org/2000/svg" width="55.18" height="51.66" viewBox="0 0 55.18 51.66"><path d="M34.811 19.784H20.369a.517.517 0 0 0 0 1.032h14.442a.516.516 0 0 0 0-1.032"/><path d="M42.61 19.788h-1.764a13.243 13.243 0 0 0-9.13-12.742V4.825a.518.518 0 0 0-.515-.516h-7.224a.517.517 0 0 0-.514.516v2.221a13.247 13.247 0 0 0-9.135 12.742h-1.759a.455.455 0 0 0-.455.455v2.406c0 .252.203.455.455.455H42.61c.25 0 .454-.203.454-.455v-2.406a.456.456 0 0 0-.454-.455m-.456 2.406H13.026V20.7h2.91a.456.456 0 1 0 .022-.912h-.606a12.217 12.217 0 0 1 8.113-11.67v3.93a.516.516 0 1 0 1.029 0V5.343h2.58v5.156h1.031V5.343h2.581v6.705a.515.515 0 1 0 1.03.063V8.122a12.213 12.213 0 0 1 8.109 11.666h-.583a.455.455 0 1 0-.022.912h2.932v1.494zm-14.493 6.877a11.28 11.28 0 0 0-1.945-.773.499.499 0 1 0-.5.83l.108.107c.061.061.116.115.166.17.744.838.959 1.83.656 3.035-.208.824-.665 1.576-1.076 2.213a37.698 37.698 0 0 0-1.444 2.377c-.748 1.365-1.185 2.652-1.333 3.934-.185 1.58.172 2.994 1.061 4.201.763 1.035 1.662 1.693 2.75 2.014.161.049.326.082.49.117l.186.041a.504.504 0 0 0 .557-.261.502.502 0 0 0-.119-.604c-.122-.105-.246-.16-.365-.213-.734-.324-1.157-.844-1.292-1.582-.09-.49-.036-1.006.175-1.668.24-.758.675-1.455 1.096-2.129.387-.619.796-1.283 1.155-1.98.159-.307.284-.617.377-.926.161.777.159 1.594-.002 2.463a8.734 8.734 0 0 1-.223.859c-.048.166-.096.334-.14.5-.112.424-.063.836.138 1.164.185.307.49.518.857.602.38.084.756 0 1.037-.229.055-.045.103-.092.146-.145.054.15.101.307.142.465.141.537.161.943.07 1.314a3.82 3.82 0 0 1-.156.471l-.085.232c-.072.207.017.426.191.557a.53.53 0 0 0 .61-.014l.142-.107c.614-.488 1.114-1.105 1.527-1.889 1.188-2.242 1.556-4.607 1.093-7.025-.707-3.685-2.743-6.418-6.05-8.121m4.074 14.678c-.095.18-.193.35-.3.508a4.875 4.875 0 0 0-.146-.852 5.914 5.914 0 0 0-.85-1.891 2.858 2.858 0 0 0-.231-.273c-.157-.18-.459-.199-.667-.082-.201.115-.282.406-.218.629.012.037.022.072.03.111l.043.193c.028.119.055.23.056.322.001.064-.017.113-.053.143-.044.035-.109.045-.186.027a.333.333 0 0 1-.224-.145c-.058-.094-.066-.232-.025-.391.042-.156.088-.314.134-.473.093-.316.186-.633.245-.957.33-1.775.062-3.43-.796-4.912a1.202 1.202 0 0 0-.282-.338.5.5 0 0 0-.807.473l.063.363c.11.742-.029 1.473-.424 2.234-.342.664-.739 1.307-1.115 1.912-.453.725-.922 1.477-1.2 2.354-.26.814-.324 1.498-.206 2.15.019.1.04.195.065.289a5.56 5.56 0 0 1-.483-.574c-.742-1.01-1.028-2.152-.872-3.492.135-1.15.531-2.318 1.217-3.568.452-.824.963-1.627 1.407-2.316.455-.705.962-1.539 1.206-2.508.265-1.051.207-2.004-.167-2.852.086.041.171.082.256.125 3.02 1.557 4.879 4.053 5.523 7.42.42 2.191.086 4.334-.993 6.371"/></svg>