<svg xmlns="http://www.w3.org/2000/svg" width="55.18" height="51.66" viewBox="0 0 55.18 51.66"><path d="M42.61 19.604h-1.764a13.241 13.241 0 0 0-9.13-12.742v-2.22a.518.518 0 0 0-.515-.516h-7.224a.516.516 0 0 0-.513.516v2.221c-5.49 1.795-9.206 6.947-9.135 12.742H12.57a.456.456 0 0 0-.456.455v2.406c0 .252.204.455.456.455h30.04c.25 0 .454-.203.454-.455V20.06a.457.457 0 0 0-.454-.456m-.456 2.407H13.026v-1.494h2.911a.455.455 0 1 0 .022-.912h-.606a12.216 12.216 0 0 1 8.113-11.67v3.93a.515.515 0 1 0 1.028 0V5.159h2.58v5.156h1.032V5.159h2.58v6.705a.516.516 0 1 0 1.03.063V7.938a12.212 12.212 0 0 1 8.109 11.666h-.582a.454.454 0 0 0-.466.445.454.454 0 0 0 .444.467h2.931v1.495z"/><path d="M34.811 19.601H20.37a.516.516 0 0 0 0 1.032h14.441a.517.517 0 0 0 0-1.032m-3.907 9.345c-.754-.459-1.775-.771-2.802-.855-1.463-.123-2.945.283-4.073 1.111-.97.707-1.74 1.863-2.115 3.17-.299 1.045-.483 2.658.337 4.41.22.469.511.908.768 1.297.395.594.803 1.211.941 1.895.049.238.052.443.055.621.004.25.01.508.106.775.222.605.876 1.219 1.554 1.461.448.16.992.174 1.511.174l1.238.01c.357 0 .771-.016 1.129-.133.763-.246 1.386-.91 1.606-1.439.12-.289.142-.625.164-.951.011-.178.021-.361.052-.521.149-.756.507-1.285.926-1.904.279-.414.598-.881.836-1.436a6.345 6.345 0 0 0 .213-4.418c-.436-1.394-1.327-2.583-2.446-3.267m-3.686 10.035l.044.061c.07.094.183.15.301.152h.002a.388.388 0 0 0 .3-.148l.116-.156c-.13.852-.274 1.891-.329 2.617-.1-.59-.27-1.604-.434-2.526m5-2.748c-.202.469-.479.877-.749 1.275-.437.646-.889 1.313-1.075 2.268-.038.199-.057.43-.07.648-.016.246-.032.498-.087.631-.109.26-.498.715-.993.875-.228.074-.558.084-.82.084l-.045-.002c-.002-1.07.575-4.457.581-4.492a.375.375 0 0 0-.669-.289l-.722.959-.721-.977a.374.374 0 0 0-.455-.119.378.378 0 0 0-.214.42c.221 1.033.69 3.867.793 4.488-.352-.006-.713-.025-.961-.113-.402-.145-.83-.531-.951-.861-.04-.111-.043-.262-.046-.451-.004-.215-.009-.484-.073-.805-.181-.873-.662-1.602-1.089-2.246-.25-.377-.508-.766-.695-1.168-.689-1.473-.534-2.83-.282-3.711.316-1.098.95-2.059 1.744-2.639.828-.607 1.892-.939 2.973-.939.144 0 .286.006.429.018.877.072 1.736.332 2.362.713.915.559 1.649 1.545 2.012 2.709a5.356 5.356 0 0 1-.177 3.724m-2.699 8.475l-3.621-.543a.26.26 0 0 0-.294.215l-.038.26a.258.258 0 0 0 .217.293l3.622.547a.261.261 0 0 0 .293-.219l.038-.258a.26.26 0 0 0-.217-.295m0-.967l-3.621-.545a.26.26 0 0 0-.294.217l-.038.258a.257.257 0 0 0 .217.293l3.622.545a.26.26 0 0 0 .293-.217l.038-.258a.259.259 0 0 0-.217-.293m-.129 1.916l-.438-.066-2.555-.383-.37-.057a.391.391 0 0 0-.443.326.392.392 0 0 0 .327.443l.208.031.061.008a1.46 1.46 0 0 0 2.88.433l.214.033a.39.39 0 0 0 .116-.768"/><path d="M27.482 35.728c.345-.723.829-1.262 1.596-1.498a3.895 3.895 0 0 0-1.354 2.123c1.997.1 3.035-1.582 2.812-3.236-1.959-.106-3.232 1.089-3.054 2.611m-2.17-1.602c-.041 1.111.625 1.918 1.49 1.771-.363-.203-.663-.443-.785-.793.375.232.764.477 1.213.758.032-1.197-.915-1.984-1.918-1.736"/></svg>