<svg xmlns="http://www.w3.org/2000/svg" viewBox="0 0 100 100"><path d="M70.4 63.2c-1.2-6.3-4.7-10.9-10.3-13.8-1-.5-2.1-.9-3.3-1.3-.5-.2-1.1.1-1.4.5-.3.5-.2 1.1.2 1.5l.2.2.3.3c1.2 1.3 1.5 2.8 1 4.7-.3 1.3-1.1 2.5-1.7 3.6-.8 1.2-1.6 2.6-2.4 4-1.3 2.3-2 4.5-2.3 6.7-.3 2.7.3 5.2 1.8 7.3 1.3 1.8 2.9 2.9 4.8 3.5.3.1.6.1.8.2l.3.1h.3c.7 0 1.2-.5 1.2-1.2 0-.5-.3-.9-.6-1.1-.2-.1-.3-.2-.5-.3-1.1-.5-1.7-1.3-1.9-2.4-.1-.8-.1-1.6.3-2.6.4-1.2 1.1-2.3 1.8-3.5.7-1 1.3-2.2 1.9-3.3 0-.1.1-.2.1-.3 0 .8 0 1.7-.2 2.6-.1.4-.2.9-.4 1.4-.1.3-.2.6-.2.8-.2.8-.2 1.6.2 2.2.4.6.9 1 1.7 1.2.7.2 1.4 0 1.9-.3 0 .1 0 .2.1.2.2.8.3 1.5.1 2-.1.3-.2.5-.2.7l-.2.4c-.2.5 0 1 .5 1.3.4.3 1 .3 1.4 0 .1-.1.2-.1.2-.2 1.1-.8 1.9-1.9 2.6-3.3 2-3.7 2.7-7.7 1.9-11.8zm-4 10.8c0-.2-.1-.3-.1-.4-.3-1.2-.8-2.3-1.5-3.3-.1-.1-.2-.3-.3-.4l-.1-.1c-.3-.4-1-.5-1.4-.3 0-.2.1-.3.1-.5.6-3 .1-5.9-1.4-8.4-.2-.3-.3-.5-.6-.7-.4-.3-.9-.4-1.4-.1-.4.3-.7.7-.6 1.2v.2c0 .1 0 .3.1.4.2 1.2 0 2.3-.7 3.5-.6 1.1-1.2 2.2-1.8 3.2-.8 1.2-1.6 2.5-2 4-.3 1.1-.5 2-.4 3-1.2-1.6-1.6-3.4-1.3-5.5.2-1.9.9-3.8 2-5.8.7-1.4 1.6-2.7 2.3-3.8.8-1.2 1.6-2.6 2.1-4.3.4-1.5.4-2.8 0-4.1 4.8 2.6 7.6 6.5 8.6 11.9.7 3.5.2 7-1.6 10.3z"/><path d="M85.3 44.6c-5.8-7.7-13.8-11.7-23-11.6 1.7-6.2 7.7-9.5 12.6-12.2 4.2-2.3 7.8-4.4 6.8-7.6-.7-2.5-2.9-4.4-6.1-5.5-8.3-2.9-23.7-.6-31 4.5-6.6 4.6-8.9 13.6-11 21.5-1.7 6.3-3.3 12.3-6.7 13.9-1.3.6-2.9.6-4.8 0 .1-.5.1-1 .1-1.5 0-4.7-3.9-8.6-8.6-8.6S5 41.3 5 46s3.9 8.6 8.6 8.6c3.3 0 6.3-1.9 7.7-4.8 1.2.4 2.4.6 3.5.6s2.2-.2 3.2-.7c4.3-2.1 5.9-8.3 7.8-15.5 2-7.5 4.2-16.1 10.1-20.2C52 9.8 66.6 7 74.8 9.9c2.5.9 4.1 2.2 4.6 3.9.4 1.5-2.4 3-5.7 4.9-5.2 2.9-12.2 6.8-13.8 14.3-9.4-.2-17.5 3.7-23.4 11.6-8.9 11.7-10.9 29.1-9.1 34.7 2.5 7.3 11.6 10.1 14 10.7.5 2.1 2.4 3.7 4.6 3.7h3.8c2.6 0 4.8-2.1 4.8-4.8s-2.1-4.8-4.8-4.8H46c-2.1 0-3.9 1.4-4.5 3.4-2.6-.7-9.9-3.3-11.8-9-1.4-4.2-.1-20.9 8.7-32.5 5.7-7.5 13.2-11.1 22.3-10.6h.6c9.1-.5 16.6 3.1 22.3 10.6 8.8 11.6 10.1 28.3 8.7 32.5-1.9 5.7-9.2 8.2-11.8 9-.6-2-2.4-3.4-4.5-3.4h-3.8c-2.6 0-4.8 2.1-4.8 4.8s2.1 4.8 4.8 4.8H76c2.3 0 4.1-1.6 4.6-3.7 2.3-.6 11.5-3.4 14-10.7 1.6-5.6-.4-23-9.3-34.7zm-71.7 7.6c-3.4 0-6.2-2.8-6.2-6.2s2.8-6.2 6.2-6.2 6.2 2.8 6.2 6.2c0 .4 0 .8-.1 1.3v.1c-.1.1-.3.3-.3.4-.1.2-.1.5 0 .7-1 2.2-3.2 3.7-5.8 3.7zm32.3 34.3h3.8c1.3 0 2.4 1.1 2.4 2.4 0 1.3-1.1 2.4-2.4 2.4h-3.8c-1.3 0-2.4-1.1-2.4-2.4.1-1.3 1.1-2.4 2.4-2.4zm29.8 4.8h-3.8c-1.3 0-2.4-1.1-2.4-2.4 0-1.3 1.1-2.4 2.4-2.4h3.8c1.3 0 2.4 1.1 2.4 2.4 0 1.3-1 2.4-2.4 2.4z"/></svg>