<svg xmlns="http://www.w3.org/2000/svg" width="55.18" height="51.66" viewBox="0 0 55.18 51.66"><path d="M5.087 34.09v.691c0 .787.321 1.416 1.104 1.416h2.224a5.504 5.504 0 0 0 5.194 3.691 5.505 5.505 0 0 0 5.196-3.691h17.506a5.505 5.505 0 0 0 5.196 3.691 5.504 5.504 0 0 0 5.195-3.691h1.969c.784 0 1.421-.639 1.421-1.42V13.193c0-.787-.637-1.422-1.421-1.422H26.284c-.784 0-1.421.637-1.421 1.422v2.484H17.96s-1.973-.215-3.604 2.555a120.51 120.51 0 0 1-2.874 4.588l-2.035.072s-3.033.016-3.109 3.109c-.029 1.226-.036 5.529-.033 6.662h-.114c-.784.001-1.106.644-1.104 1.427m33.757.295a2.664 2.664 0 0 1 2.663-2.662c1.468 0 2.661 1.193 2.661 2.662s-1.193 2.662-2.661 2.662-2.663-1.193-2.663-2.662M16.152 22.99c-1.58 0-1.641-.664-1.199-1.42.429-.773 1.388-2.365 1.388-2.365s.769-1.541 2-1.541h4.117c.662 0 1.2.637 1.2 1.42v2.486c0 .783-.538 1.42-1.2 1.42h-6.306zm-5.204 11.395a2.663 2.663 0 0 1 2.661-2.662c1.47 0 2.663 1.193 2.663 2.662s-1.193 2.662-2.663 2.662a2.664 2.664 0 0 1-2.661-2.662"/></svg>