<svg xmlns="http://www.w3.org/2000/svg" width="55.18" height="51.66" viewBox="0 0 55.18 51.66"><path d="M43.932 35.798c-.659-3.43-2.551-5.969-5.627-7.551a10.698 10.698 0 0 0-1.808-.721.499.499 0 1 0-.5.83l.095.094c.057.057.109.107.157.162.681.766.878 1.676.6 2.779-.192.762-.613 1.453-.993 2.039a37.276 37.276 0 0 0-1.341 2.207c-.583 1.064-.95 2.078-1.139 3.082H25.12a.5.5 0 1 0 0 1h8.142c-.065 1.299.256 2.479 1.005 3.496.711.965 1.552 1.58 2.569 1.879.146.043.296.076.445.107l.181.041a.502.502 0 0 0 .558-.261.5.5 0 0 0-.12-.605c-.116-.1-.23-.15-.347-.201-.668-.297-1.053-.768-1.175-1.439-.082-.449-.033-.92.161-1.529.222-.699.623-1.342 1.012-1.963.361-.582.742-1.201 1.071-1.838.125-.242.227-.484.308-.727a5.87 5.87 0 0 1-.029 2.127c-.051.27-.129.533-.206.799-.045.152-.09.305-.13.457-.105.402-.058.795.133 1.109.177.289.467.492.817.572a1.154 1.154 0 0 0 1.091-.311c.041.121.078.246.111.371.128.49.147.861.066 1.197-.036.145-.09.287-.142.426l-.083.227c-.071.207.024.42.202.549.176.131.44.111.617-.02l.114-.088c.574-.455 1.04-1.033 1.425-1.762 1.105-2.085 1.447-4.284 1.016-6.534m-1.9 6.066a4.89 4.89 0 0 1-.219.379 4.49 4.49 0 0 0-.128-.689 5.5 5.5 0 0 0-.794-1.768 2.779 2.779 0 0 0-.213-.252c-.162-.186-.471-.203-.68-.074-.194.117-.272.387-.207.604.011.037.022.072.03.113l.041.18c.025.107.05.209.051.287.001.051-.012.086-.036.105-.032.025-.083.033-.143.018a.274.274 0 0 1-.182-.117c-.048-.078-.055-.197-.02-.334.038-.143.08-.287.122-.43.087-.297.174-.594.23-.896.308-1.656.058-3.195-.743-4.578a1.108 1.108 0 0 0-.269-.322.499.499 0 1 0-.808.475l.059.334c.099.68-.028 1.348-.39 2.047a25.58 25.58 0 0 1-1.031 1.77c-.421.674-.857 1.371-1.116 2.189-.242.762-.304 1.402-.193 2.012l.028.133a5.024 5.024 0 0 1-.349-.426c-.684-.928-.946-1.979-.802-3.211.123-1.061.491-2.139 1.122-3.293.412-.754.89-1.502 1.304-2.145.423-.654.894-1.428 1.123-2.338.237-.943.197-1.805-.117-2.574l.146.074c2.788 1.434 4.504 3.738 5.102 6.85.388 2.02.079 3.998-.918 5.877"/><path d="M33.495 43.927H12.067V12.081h5.803v1.627a.5.5 0 0 0 .5.5h13.606a.5.5 0 0 0 .5-.5v-1.627h5.697v14.391a.499.499 0 1 0 1 0V11.581a.5.5 0 0 0-.5-.5h-6.197V10.2c0-.277-.223-.5-.5-.5h-2.949c-.213-1.352-1.172-3.295-3.748-3.295-2.525 0-3.55 1.611-3.825 2.764H18.37a.5.5 0 0 0-.5.5v1.412h-6.303a.5.5 0 0 0-.5.5v32.846a.5.5 0 0 0 .5.5h21.928a.5.5 0 1 0 0-1M18.87 10.169h3.008a.499.499 0 0 0 .498-.463c.008-.094.209-2.301 2.903-2.301 2.657 0 2.792 2.697 2.796 2.813a.503.503 0 0 0 .5.482h2.901v2.508H18.87v-3.039z"/><path d="M22.946 16.622a.5.5 0 0 0-.705.057l-3.9 4.584-2.275-2.275a.5.5 0 0 0-.707.707l2.657 2.658a.5.5 0 0 0 .354.146h.014a.5.5 0 0 0 .367-.176l4.252-4.996a.501.501 0 0 0-.057-.705m0 9.287a.5.5 0 0 0-.705.057l-3.9 4.584-2.275-2.273a.5.5 0 0 0-.707.707l2.657 2.656a.5.5 0 0 0 .354.146h.014a.5.5 0 0 0 .367-.176l4.252-4.996a.501.501 0 0 0-.057-.705m-.705 9.346l-3.9 4.584-2.275-2.273a.5.5 0 0 0-.707.707l2.657 2.656a.491.491 0 0 0 .354.146h.014a.506.506 0 0 0 .367-.174l4.252-4.998a.501.501 0 0 0-.057-.705.502.502 0 0 0-.705.057m12.286-15.139H25.12a.5.5 0 0 0 0 1h9.407a.5.5 0 1 0 0-1m0 9.248H25.12a.5.5 0 0 0 0 1h9.407a.5.5 0 1 0 0-1"/></svg>