<svg xmlns="http://www.w3.org/2000/svg" width="55.18" height="51.66" viewBox="0 0 55.18 51.66"><path d="M34.862 9.02H20.318c-9.27 0-16.811 7.541-16.811 16.811s7.541 16.811 16.811 16.811h14.544c9.27 0 16.811-7.541 16.811-16.811S44.131 9.02 34.862 9.02m0 32.621H20.318c-8.718 0-15.811-7.094-15.811-15.811 0-8.719 7.093-15.811 15.811-15.811h14.544c8.718 0 15.811 7.092 15.811 15.811-.001 8.717-7.093 15.811-15.811 15.811"/><path d="M17.441 26.83h21.163a.445.445 0 0 0 .445-.445v-1.693c0-.246-.2-.447-.445-.447h-1.117a9.41 9.41 0 0 0-6.433-8.941v-1.475a.49.49 0 0 0-.487-.488h-5.091a.489.489 0 0 0-.486.488v1.475a9.414 9.414 0 0 0-6.436 8.941h-1.113a.448.448 0 0 0-.447.447v1.693c0 .246.201.445.447.445m2.824-2.129a.438.438 0 0 0-.123-.318.457.457 0 0 0-.33-.139h-.288a8.483 8.483 0 0 1 5.466-7.916v2.582a.49.49 0 0 0 .459.516l.028.002a.487.487 0 0 0 .488-.512v-4.6h1.568v3.633h.977v-3.633h1.567v4.592a.489.489 0 0 0 .459.518l.028.002a.494.494 0 0 0 .489-.467V16.33a8.484 8.484 0 0 1 5.465 7.914h-.291a.447.447 0 1 0 .004.895h1.926v.801H17.886v-.801h1.923a.446.446 0 0 0 .456-.438"/><path d="M22.934 25.219H33.11a.489.489 0 0 0 0-.976H22.933a.49.49 0 0 0-.486.49.49.49 0 0 0 .487.486m-10.401 6.404h1.501v4.662h.922v-4.662h1.499v-.84h-3.922zm10.054-.861l-1.902 5.199-1.272-2.092c.089-.039.178-.084.264-.137a1.417 1.417 0 0 0 .62-.743c.064-.17.096-.369.096-.592 0-.537-.168-.945-.503-1.219-.326-.264-.828-.396-1.49-.396h-1.404v5.502h.919v-2.168h.625l1.261 2.168h1.709l.582-1.625h1.781l.575 1.625h.95l-2.024-5.523h-.787zm.323 1.543c.021-.061.042-.131.064-.207 0-.004.003-.01.005-.016l.002.008.592 1.727h-1.181l.465-1.357.053-.155m-3.457.127c0 .148-.02.281-.059.391a.598.598 0 0 1-.176.256.865.865 0 0 1-.324.162 1.972 1.972 0 0 1-.517.059h-.464v-1.695h.449c.198 0 .37.018.514.051a.799.799 0 0 1 .328.145.564.564 0 0 1 .184.242c.043.102.065.232.065.389m8.922-1.649l-1.08 3.396c-.075.234-.14.453-.196.658l-.016.061-.015-.059a10.394 10.394 0 0 0-.182-.639l-1.088-3.418h-.973l1.805 5.416.028.086h.852l1.842-5.502h-.977zm2.426-.021l-2.021 5.523h.942l.582-1.627h1.781l.575 1.627h.95l-2.025-5.523h-.784zm.322 1.543c.021-.063.043-.131.064-.207l.006-.016.002.008.064.209.527 1.518h-1.18l.464-1.357.053-.155m5.917 2.015a1.85 1.85 0 0 1-.07.502c-.042.145-.107.27-.194.375a.857.857 0 0 1-.331.238 1.302 1.302 0 0 1-.5.086c-.386 0-.663-.1-.848-.303-.185-.205-.278-.504-.278-.891v-3.545h-.922v3.51c0 .303.043.584.129.836a1.8 1.8 0 0 0 .388.656c.171.184.385.326.637.426.248.098.537.146.858.146.341 0 .643-.053.896-.156.256-.104.474-.252.645-.438.17-.184.299-.404.384-.654.084-.248.126-.518.126-.803v-3.531h-.92v3.546zm5.579-3.537h-.977l-1.127 1.889-1.123-1.889h-1.005l1.593 2.635-1.702 2.867h.968l1.244-2.152 1.201 2.152h1.051l-1.713-2.89z"/></svg>