<svg xmlns="http://www.w3.org/2000/svg" width="55.18" height="51.66" viewBox="0 0 55.18 51.66"><path d="M45.897 31.335h-3.753a7.921 7.921 0 0 0 4.086-6.922v-.684c0-4.363-3.55-7.914-7.913-7.914h-.022v-1.307a.5.5 0 0 0-1 0v1.307h-2.727v-1.307a.5.5 0 0 0-1 0v1.307H28.09v-2.59a.5.5 0 0 0-.5-.5h-1.25v-1.564a.5.5 0 0 0-.5-.5h-3.334a.5.5 0 0 0-.5.5v1.564h-1.249a.5.5 0 0 0-.5.5v2.59h-3.395c-.271 0-.542.014-.806.041v-3.664a.5.5 0 1 0-1 0v3.84c-3.495.82-6.108 3.955-6.108 7.697v.684a7.921 7.921 0 0 0 4.086 6.922H9.283a.5.5 0 0 0-.5.5V35.3c0 .275.225.5.5.5h2.956a2.817 2.817 0 0 0-1.311 2.375 2.826 2.826 0 0 0 2.822 2.824 2.821 2.821 0 0 0 2.809-2.68 2.82 2.82 0 0 0 2.807 2.68 2.827 2.827 0 0 0 2.823-2.824c0-1-.525-1.875-1.313-2.375h13.161a2.814 2.814 0 0 0-1.313 2.375 2.827 2.827 0 0 0 2.823 2.824 2.821 2.821 0 0 0 2.808-2.68 2.82 2.82 0 0 0 2.808 2.68 2.826 2.826 0 0 0 2.822-2.824c0-1-.525-1.875-1.312-2.375h3.223a.5.5 0 0 0 .5-.5v-3.465a.498.498 0 0 0-.499-.5m-11.329-6.717h2.728v1.621h-2.728v-1.621zm2.726-1h-2.728v-1.621h2.728v1.621zm-2.726 3.621h2.728v1.621h-2.728v-1.621zm2.726-6.244h-2.728v-1.621h2.728v1.621zm-2.726 8.865h2.728v1.467h-2.728V29.86zm3.749-13.045c3.812 0 6.913 3.102 6.913 6.914v.684a6.922 6.922 0 0 1-6.914 6.914h-.021V16.815h.022zm-1.023 1.559h-2.728v-1.559h2.728v1.559zm-14.288-6.713h2.334v1.064h-2.334v-1.064zm-1.749 2.065h5.833v2.09h-5.833v-2.09zM9.949 24.413v-.684a6.922 6.922 0 0 1 6.914-6.914h16.706v14.512H16.863a6.922 6.922 0 0 1-6.914-6.914m3.801 15.586a1.824 1.824 0 0 1 0-3.646 1.824 1.824 0 0 1 0 3.646m5.616 0a1.824 1.824 0 0 1 0-3.646c1.006 0 1.823.818 1.823 1.822a1.825 1.825 0 0 1-1.823 1.824m-2.807-1.969a2.812 2.812 0 0 0-1.298-2.23h2.596a2.81 2.81 0 0 0-1.298 2.23m18.989 1.969a1.826 1.826 0 0 1-1.823-1.824c0-1.004.818-1.822 1.823-1.822a1.823 1.823 0 0 1 0 3.646m5.616 0a1.824 1.824 0 0 1 0-3.646c1.005 0 1.822.818 1.822 1.822a1.825 1.825 0 0 1-1.822 1.824m-2.808-1.969a2.81 2.81 0 0 0-1.298-2.23h2.595a2.807 2.807 0 0 0-1.297 2.23m7.041-3.23H9.784v-2.465h35.613V34.8z"/><path d="M13.751 37.483a.69.69 0 1 0-.002 1.384.69.69 0 0 0 .002-1.384m5.616 0a.69.69 0 1 0-.001 1.383.69.69 0 0 0 .001-1.383m16.181 0a.69.69 0 1 0-.001 1.383.69.69 0 0 0 .001-1.383m5.616 0a.691.691 0 1 0 0 1.382.691.691 0 0 0 0-1.382"/></svg>