<svg xmlns="http://www.w3.org/2000/svg" width="55.18" height="51.66" viewBox="0 0 55.18 51.66"><path d="M13 28.428h30.324a.459.459 0 0 0 .459-.459v-2.428a.46.46 0 0 0-.459-.459h-1.78a13.37 13.37 0 0 0-9.217-12.865v-2.24a.52.52 0 0 0-.52-.521h-7.292a.522.522 0 0 0-.52.521v2.24c-5.541 1.813-9.292 7.016-9.22 12.865H13a.46.46 0 0 0-.46.459v2.428a.46.46 0 0 0 .46.459m.459-2.426h2.938a.46.46 0 1 0 .021-.92l-.013-.002-.598.002a12.33 12.33 0 0 1 8.188-11.781v3.967a.522.522 0 0 0 1.04.063.331.331 0 0 0 0-.063v-6.77h2.605v5.205h1.041v-5.205h2.604v6.77a.52.52 0 1 0 1.04.063v-4.028a12.332 12.332 0 0 1 8.188 11.779h-.588a.46.46 0 0 0-.022.92h2.959v1.508H13.459v-1.508z"/><path d="M35.453 25.076h-14.58a.522.522 0 0 0 0 1.043h14.58c.287 0 .52-.234.519-.521s-.234-.52-.519-.522M6.021 35.42h2.151v6.684h1.213V35.42h2.148v-1.094H6.021zm15.44-1.125h-1.049l-2.752 7.523-1.914-3.15c.147-.063.291-.135.431-.217.188-.113.358-.256.508-.426a2.03 2.03 0 0 0 .356-.611c.089-.236.134-.514.134-.826 0-.754-.235-1.328-.699-1.703-.457-.371-1.165-.559-2.104-.559h-1.958v7.777h1.208v-3.111h.981l1.808 3.111h2.379l.834-2.334h2.629l.824 2.334h1.246l-2.832-7.727-.03-.081zm-.676 2.139c.03-.09.061-.186.093-.293l.058-.203c.02.068.038.133.058.197.031.104.062.201.091.291l.779 2.244h-1.842l.691-2.021c.02-.059.045-.131.072-.215m-7.162-1.039h.699c.286 0 .537.023.746.072.201.045.367.117.493.215a.875.875 0 0 1 .279.371c.064.156.097.352.097.58 0 .221-.029.416-.089.578a.887.887 0 0 1-.267.391 1.226 1.226 0 0 1-.486.242 2.81 2.81 0 0 1-.753.086h-.72v-2.535zm16.369-1.069h-1.284l-1.536 4.828c-.106.332-.201.65-.279.939-.027.1-.054.197-.078.295-.022-.096-.047-.193-.071-.291a13.886 13.886 0 0 0-.26-.912l-1.519-4.773-.027-.086h-1.28l2.563 7.691.028.086h1.142l2.546-7.613.055-.164zm3.239-.031h-1.049l-2.856 7.809h1.234l.834-2.334h2.629l.824 2.334h1.245l-2.831-7.727-.03-.082zm-.677 2.139c.03-.09.061-.186.093-.293l.058-.203c.02.068.037.133.058.197.031.104.062.201.091.289.024.078.047.145.075.23l.704 2.016H31.79l.69-2.016.074-.22m8.584 2.906a2.644 2.644 0 0 1-.104.734c-.063.215-.16.402-.289.557a1.301 1.301 0 0 1-.494.355 1.902 1.902 0 0 1-.738.131c-.561 0-.982-.152-1.254-.453-.274-.305-.413-.746-.413-1.313v-5.025h-1.213v4.975c0 .43.062.826.182 1.182.122.354.304.664.545.922.241.256.541.457.892.594.352.139.758.207 1.21.207.481 0 .907-.074 1.265-.219.361-.148.665-.354.904-.613.238-.26.421-.568.539-.92.117-.35.177-.73.177-1.133v-5.004h-1.208v5.023zm5.6-1.326l2.244-3.688H47.71l-1.648 2.758-1.603-2.697-.036-.061h-1.311l2.248 3.719-2.406 4.059h1.259l1.816-3.143 1.751 3.143h1.38z"/></svg>