<svg xmlns="http://www.w3.org/2000/svg" width="55.18" height="51.66" viewBox="0 0 55.18 51.66"><path d="M28.894 22.405H43.42a.499.499 0 0 0 .492-.588l-.193-1.096c-.138-.781-.272-1.549-.419-2.313-.411-2.141-1.68-3.184-3.88-3.189-.664.004-1.351.004-2.027.012-1.336.012-2.717.025-4.069-.031-2.189-.105-3.837 1.223-4.372 3.512-.164.705-.274 1.398-.391 2.133a85.42 85.42 0 0 1-.159.975.504.504 0 0 0 .109.41.502.502 0 0 0 .383.175m.653-1.402c.114-.717.222-1.395.379-2.063.199-.859.945-2.85 3.356-2.74 1.374.057 2.77.043 4.119.031.672-.008 1.341-.01 2.016-.012 1.714.004 2.581.715 2.9 2.377.146.76.28 1.52.416 2.299l.09.51h-13.34l.064-.402M28.16 25.37h-.009c-1.565.004-2.863 1.287-2.895 2.861-.015.762.274 1.49.814 2.047a2.934 2.934 0 0 0 2.084.896h.03c.765 0 1.485-.297 2.031-.836a2.897 2.897 0 0 0 .864-2.07 2.87 2.87 0 0 0-.845-2.049 2.915 2.915 0 0 0-2.074-.849m1.352 4.258a1.873 1.873 0 0 1-1.328.547h-.014a1.944 1.944 0 0 1-1.382-.592 1.853 1.853 0 0 1-.532-1.332c.021-1.035.872-1.879 1.898-1.881h.006c.521 0 1.006.197 1.368.559.356.355.551.83.551 1.34 0 .513-.202.998-.567 1.359m14.474-4.258h-.002c-.78 0-1.513.305-2.063.859a2.881 2.881 0 0 0-.843 2.064c.006.779.316 1.508.872 2.051a2.89 2.89 0 0 0 2.035.828h.047a2.877 2.877 0 0 0 2.859-2.889c.002-.783-.296-1.516-.841-2.063s-1.278-.848-2.064-.85m.03 4.803c-.512-.037-1.001-.186-1.367-.543a1.877 1.877 0 0 1-.57-1.344c-.004-.51.192-.99.551-1.354a1.907 1.907 0 0 1 1.354-.563h.001c.518.002 1.001.199 1.357.557s.551.838.549 1.355a1.886 1.886 0 0 1-1.875 1.892"/><path d="M51.083 27.685c-.005-2.893-1.336-4.82-4.064-5.885a.477.477 0 0 1-.171-.213 76.33 76.33 0 0 1-.537-2.855l-.108-.615c-.637-3.604-2.979-5.656-6.595-5.783a101.687 101.687 0 0 0-6.411-.039c-3.846.111-6.382 2.277-7.137 6.1a61.73 61.73 0 0 0-.554 3.131c-.04.275-.1.354-.354.461-1.939.814-3.135 2.227-3.555 4.197-.043.203-.068.41-.088.615h-3.458v-1.443c0-2.113-.892-3.053-2.983-3.143a88.82 88.82 0 0 0-3.882-.053c-.512 0-1.019.002-1.531-.002-.142 0-.258.045-.425.105a.498.498 0 0 0-.352.479v1.469h-.595c-.819-.002-1.622-.006-2.424.002-1.575.013-1.759.987-1.765 1.407-.006.391.112.713.351.955.299.305.756.453 1.396.455h3.006v3.322H5.56c-.867 0-1.425.508-1.458 1.326-.033.82.484 1.373 1.349 1.445.304.023.61.025.914.025l2.535.003v1.459a.5.5 0 0 0 .5.5l1.437.002c1.33 0 2.637.004 3.944-.012.378-.004.787-.066 1.287-.197 1.34-.355 1.97-1.17 1.982-2.566.005-.549.004-1.1.002-1.662v-.295h3.557c.398 1.699 1.406 3.012 2.947 3.863a.452.452 0 0 1 .049.176c.011.295.005.59-.001.887-.009.494-.02 1.008.042 1.52.098.822.334 1.434.704 1.818.481.5 1.091.756 1.782.756a3.55 3.55 0 0 0 1.331-.283c.938-.379 1.399-1.164 1.371-2.332-.013-.504-.01-1.008-.007-1.518l.001-.188H42.45l-.001.279c-.003.559-.006 1.1.006 1.641.033 1.451 1.045 2.379 2.582 2.379h.063c1.529-.021 2.534-.957 2.56-2.459.015-.74.029-1.502-.01-2.262-.008-.188-.011-.227.26-.371 2.064-1.092 3.131-2.801 3.172-5.078.007-.383.005-.764.003-1.146l-.002-.377zm-1.001 1.505c-.034 1.912-.897 3.291-2.642 4.213-.411.221-.827.547-.788 1.307.036.721.023 1.467.007 2.268-.021 1.199-.996 1.393-1.575 1.4-.99-.008-1.608-.494-1.629-1.402-.012-.531-.009-1.063-.006-1.611l.003-.785a.5.5 0 0 0-.5-.5H29.331a.5.5 0 0 0-.5.5l-.003.682c-.003.521-.005 1.035.007 1.547.018.75-.205 1.164-.746 1.383-.855.348-1.532.268-2.018-.24-.205-.215-.362-.668-.431-1.242-.053-.445-.044-.9-.036-1.383.007-.314.013-.629.002-.939-.007-.24-.12-.75-.493-.961-1.476-.83-2.327-2.016-2.6-3.629a.5.5 0 0 0-.493-.416h-4.468a.5.5 0 0 0-.5.5l.001.797c.002.559.003 1.105-.002 1.652-.008.936-.343 1.371-1.237 1.607-.418.109-.749.162-1.043.164-1.3.016-2.605.012-3.931.012l-.94-.004v-1.459a.5.5 0 0 0-.5-.5l-3.035-.002c-.276 0-.555 0-.832-.021-.414-.035-.44-.213-.432-.408.007-.209.046-.367.457-.367h3.788a.5.5 0 0 0 .5-.5V26.53a.5.5 0 0 0-.5-.5H5.842c-.481 0-.639-.109-.685-.154-.016-.018-.067-.07-.064-.24.002-.146.006-.418.773-.424.8-.006 1.599-.004 2.414-.002l1.098.002a.5.5 0 0 0 .5-.5v-1.553c.436.002.872 0 1.308 0 1.266 0 2.566 0 3.839.053 1.552.066 2.026.566 2.026 2.145v1.941a.5.5 0 0 0 .5.5h4.411a.498.498 0 0 0 .496-.441l.033-.326c.02-.213.039-.428.084-.639.353-1.654 1.322-2.795 2.964-3.484.579-.244.865-.613.957-1.238.155-1.078.362-2.162.544-3.082.666-3.365 2.805-5.197 6.187-5.293 1.925-.055 4-.043 6.346.039 3.14.107 5.091 1.822 5.646 4.959l.107.613c.17.965.339 1.932.543 2.891.082.383.426.793.783.934 2.368.924 3.426 2.453 3.431 4.957l.001.379c.002.373.004.748-.002 1.123"/></svg>