<svg xmlns="http://www.w3.org/2000/svg" viewBox="0 0 56 58"><title>GABARIT SVG</title><path d="M10.69 47.13h6.77V19.39h-6.88l.11 27.74zm13.87 0h6.78v-6.25h-6.88l.1 6.25zm13.79-27.74l.11 27.74h6.77V19.39h-6.88z"/><path d="M18.46 47.13h5.1l-.11-6.74a.5.5 0 0 1 .5-.51h7.88a.5.5 0 0 1 .5.5v6.75h5V12.6H18.49zm15.47-31.32a.5.5 0 1 1 1 0v3a.5.5 0 0 1-1 0zm0 5.63a.5.5 0 0 1 1 0v3a.5.5 0 0 1-1 0zm0 5.68a.5.5 0 0 1 1 0v3a.5.5 0 0 1-1 0zm0 5.74a.5.5 0 0 1 1 0v3a.5.5 0 0 1-1 0zm-4.34-17.07a.5.5 0 1 1 1 0v3a.5.5 0 0 1-1 0zm0 5.63a.5.5 0 0 1 1 0v3a.5.5 0 0 1-1 0zm0 5.68a.5.5 0 0 1 1 0v3a.5.5 0 1 1-1 0zm0 5.74a.5.5 0 0 1 1 0v3a.5.5 0 0 1-1 0zm-4.34-17a.5.5 0 0 1 1 0v3a.5.5 0 0 1-1 0zm0 5.63a.5.5 0 0 1 1 0v3a.5.5 0 0 1-1 0zm0 5.68a.5.5 0 0 1 1 0v3a.5.5 0 0 1-1 0zm0 5.74a.5.5 0 0 1 1 0v3a.5.5 0 0 1-1 0zm-4.34-17a.5.5 0 0 1 1 0v3a.5.5 0 0 1-1 0zm0 5.63a.5.5 0 0 1 1 0v3a.5.5 0 0 1-1 0zm0 5.68a.5.5 0 0 1 1 0v3a.5.5 0 0 1-1 0zm0 5.74a.5.5 0 0 1 1 0v3a.5.5 0 0 1-1 0z"/></svg>