<svg xmlns="http://www.w3.org/2000/svg" width="56" height="58" viewBox="0 0 56 58"><title>icon-depannage2</title><path d="M12.452 30.585l-5.2.008a.42.42 0 0 0-.365.077.532.532 0 0 0-.2.415.5.5 0 0 0 .5.5h5.256a.5.5 0 0 0 0-1zm0-5.628H10.27a.5.5 0 0 0 0 1h2.182a.5.5 0 0 0 0-1zm0 2.753H8.59a.5.5 0 0 0-.5.5.52.52 0 0 0 .5.5h3.861a.5.5 0 0 0 0-1zm0 6.01H8.59a.5.5 0 0 0-.5.5.52.52 0 0 0 .5.5h3.861a.5.5 0 0 0 0-1zm25.448-.839a.523.523 0 0 0-.308-.3 3.72 3.72 0 0 0-3.952.842 3.246 3.246 0 0 0-.551.723c-5.011.313-10.238.381-15.54.205a1.859 1.859 0 1 0 .009 3.718 163.966 163.966 0 0 1 15.723.215h.034a3.488 3.488 0 0 0 .325.357 3.672 3.672 0 0 0 6.06-3.811.479.479 0 0 0-.362-.4.494.494 0 0 0-.486.14l-1.023 1.03-1.03-.081-.081-1.03 1.063-1.063a.475.475 0 0 0 .119-.545zm-5.14 4.31a157.42 157.42 0 0 0-9.555-.285q-2.811 0-5.66.1a.823.823 0 0 1 0-1.646c5.147.175 10.231.11 15.124-.193a3.679 3.679 0 0 0-.1.837 3.719 3.719 0 0 0 .187 1.187zm3.452-3.837h.108l-.571.571a.522.522 0 0 0-.144.412l.142 1.7c0 .115.043.393.485.5l1.768.106a.732.732 0 0 0 .324-.1l.582-.563a2.736 2.736 0 0 1-.8 1.878 2.641 2.641 0 0 1-3.758 0A2.693 2.693 0 0 1 33.563 36a2.55 2.55 0 0 1 .784-1.861 2.591 2.591 0 0 1 1.861-.785zM25.5 21.286a.526.526 0 0 0-.414-.194.5.5 0 0 0-.5.5v1.215a.5.5 0 0 0 1 0l-.007-1.156a.426.426 0 0 0-.079-.365zm1.914 1.521v-1.215a.5.5 0 1 0-1 0v1.215a.5.5 0 0 0 1 0zm1.702-1.52a.533.533 0 0 0-.415-.2.5.5 0 0 0-.5.5v1.215a.5.5 0 0 0 1 0l-.008-1.154a.426.426 0 0 0-.077-.361zm1.908 1.52v-1.215a.5.5 0 1 0-1 0v1.215a.5.5 0 0 0 1 0z"/><path d="M46.071 21.954l-4.25-3.148a.442.442 0 0 0-.32-.109h-4.864v-1.753a3.293 3.293 0 0 0-3.289-3.289H22.265a3.293 3.293 0 0 0-3.289 3.289V18.7h-4.469a.494.494 0 0 0-.5.5.519.519 0 0 0 .5.5h26.8l3.943 2.915v2.377h-5.01l.481-.889a.551.551 0 0 0 0-.474.535.535 0 0 0-.438-.283h-4.539a.431.431 0 0 0-.439.283.561.561 0 0 0 0 .479l.479.883H19.861l.481-.889a.551.551 0 0 0 0-.474.535.535 0 0 0-.438-.283h-4.539a.424.424 0 0 0-.437.28.554.554 0 0 0 0 .482l.661 1.22.095.449v2.467a1.323 1.323 0 0 0 1.322 1.322h1.18a1.324 1.324 0 0 0 1.323-1.322v-2.218H36.1v2.217a1.324 1.324 0 0 0 1.323 1.322H38.6a1.323 1.323 0 0 0 1.322-1.322v-2.217h3.541v16.231a.3.3 0 0 1-.286.286H14.382a.512.512 0 0 0-.518.517.538.538 0 0 0 .518.517h28.8a1.323 1.323 0 0 0 1.318-1.32V26.025h1.288a.5.5 0 0 0 .5-.5v-3.147a.509.509 0 0 0-.217-.424zM33.992 18.7H21.585v-1.756a.7.7 0 0 1 .68-.68h11.048a.65.65 0 0 1 .679.68zm1.645 0h-.572v-1.756a1.718 1.718 0 0 0-1.716-1.716H22.265a1.718 1.718 0 0 0-1.716 1.716V18.7h-.572v-1.5h.035v-.25a2.292 2.292 0 0 1 2.288-2.295h11.048a2.291 2.291 0 0 1 2.288 2.289zm-17.025 6.564h-.021l-.043.168v2.775a.3.3 0 0 1-.286.286h-1.18a.3.3 0 0 1-.287-.286v-2.968h-.115l-.436-.823h2.816zm20.379 0h-.021l-.043.168v2.775a.3.3 0 0 1-.287.286h-1.18a.3.3 0 0 1-.286-.286v-2.968h-.114l-.436-.823h2.816z"/></svg>