<svg xmlns="http://www.w3.org/2000/svg" viewBox="0 0 56 58"><defs><style>.cls-1{isolation:isolate}.cls-2{mix-blend-mode:darken}</style></defs><title>Pictos_VENTE_TelV3_PROD</title><g class="cls-1"><g class="cls-2" id="Calque_1" data-name="Calque 1"><path d="M36.79 16.4v-3.09a8.29 8.29 0 0 0-7.71-8.16c-1.27-.07-7.12-.29-9.62.69-3.85 1.5-4.67 5.17-4.67 7.47v3.39c-.79.46-2 1.36-2 2.61v4a3.23 3.23 0 0 0 2.54 2.86A14.83 14.83 0 0 0 20.5 36l-2.24 3.34h-2.47c-6.37 0-11 4.21-11 10v2a1 1 0 0 0 2 0v-2c0-4.71 3.7-8 9-8h3a1 1 0 0 0 .83-.45l2.52-3.77a8.91 8.91 0 0 0 4.39 1.21 8.54 8.54 0 0 0 4.78-1.52l2.81 4.08a1 1 0 0 0 .82.43h2.36a1 1 0 0 0 1-1 1 1 0 0 0-1-1h-1.84l-2.61-3.79a14.85 14.85 0 0 0 4.26-9.39 2.83 2.83 0 0 0 1.65-2.82v-4c.03-.93.03-2.53-1.97-2.92zm0 6.91c0 .66-.21 1-.63 1a1 1 0 0 0-1 1c0 5.09-3.77 11-8.63 11s-9.25-6-9.25-11a1 1 0 0 0-1-1c-.66 0-1.5-.56-1.5-1v-4a3.07 3.07 0 0 1 1.41-1.1 1 1 0 0 0 .59-.91v-4c0-2.76 2.26-5.87 5-6.18A40 40 0 0 1 29 7a6.4 6.4 0 0 1 5.83 6.33v4a1 1 0 0 0 1 1c1 0 1 0 1 1zm12.72 19.6h-.34v-1.6a2.84 2.84 0 0 0-2.84-2.84H44a2.84 2.84 0 0 0-2.84 2.84v1.6h-.52a1.68 1.68 0 0 0-1.68 1.68v6.66a1.68 1.68 0 0 0 1.68 1.68h8.92a1.68 1.68 0 0 0 1.68-1.68v-6.67a1.69 1.69 0 0 0-1.73-1.67zm-2.13-1.6v1.6h-4.45v-1.6a1 1 0 0 1 1-1h2.39a1 1 0 0 1 1.07 1zm2 3.4v6.42h-8.64v-6.42z"/><path d="M44.21 48.58v.8a.84.84 0 1 0 1.68 0v-.76a1.44 1.44 0 0 0-.83-2.62 1.44 1.44 0 0 0-.85 2.59z"/></g></g></svg>