<svg xmlns="http://www.w3.org/2000/svg" viewBox="0 0 56 58"><title>password-init</title><g data-name="GABARIT SVG"><path d="M28.2 49.1A20.39 20.39 0 0 1 7.82 28.73a.81.81 0 0 1 1.62 0 18.75 18.75 0 1 0 6.1-13.83.81.81 0 1 1-1.09-1.19A20.37 20.37 0 1 1 28.2 49.1z"/><path d="M13.67 16a1 1 0 0 1-.88-1.11l.06-5.26a1 1 0 0 1 .9-1.09 1 1 0 0 1 .88 1.11l-.06 5.26a1 1 0 0 1-.9 1.09z"/><path d="M12.81 15.1a1 1 0 0 1 1.28-.6l5.1 1.27a1 1 0 0 1 .81 1.14 1 1 0 0 1-1.28.6l-5.1-1.27a1 1 0 0 1-.81-1.14zM35 24.43h-1v-2.82A3.57 3.57 0 0 0 30.42 18H27a3.57 3.57 0 0 0-3.57 3.57v2.81h-1.24a1.9 1.9 0 0 0-1.9 1.9v9.62a1.9 1.9 0 0 0 1.9 1.9H35a1.9 1.9 0 0 0 1.9-1.9v-9.58a1.91 1.91 0 0 0-1.9-1.89zm-10 0v-2.82a2 2 0 0 1 2-2h3.43a2 2 0 0 1 2 2v2.81zm10.34 1.9v9.6a.34.34 0 0 1-.33.33H22.19a.34.34 0 0 1-.33-.33v-9.6a.34.34 0 0 1 .33-.33H35a.34.34 0 0 1 .35.32z"/></g></svg>