<svg xmlns="http://www.w3.org/2000/svg" viewBox="0 0 56 58"><style>.st0{fill:#e6e7e8}.st1{fill:#1d1e1b}.st2{stroke-linecap:round;stroke-linejoin:round}.st2,.st3,.st4{fill:none;stroke:#000;stroke-miterlimit:10}.st4{stroke-linecap:round;stroke-linejoin:round}.st4,.st5{fill-rule:evenodd;clip-rule:evenodd}.st6{fill:#1d1d1b}.st7{fill:#1d1d1d}.st8{stroke:#000;stroke-width:.2847;stroke-miterlimit:10}.st9{clip-path:url(#SVGID_3_)}.st10{clip-path:url(#SVGID_4_)}.st11{display:none}</style><path class="st8" d="M45.8 956.9c-.3 0-.5.1-.7.3L19.3 983c-.2.2-.3.4-.3.7l-.8 7.2c-.1.6.4 1.2 1 1.3h.3l7.2-.8c.3 0 .5-.1.7-.3l25.8-25.8c.4-.4.5-1.2 0-1.6l-6.4-6.4c-.3-.3-.7-.5-1-.4zm.1 2.7l4.8 4.8-1.6 1.6-4.8-4.8 1.6-1.6zm-40.4 3c-.6.1-1 .5-1 1.1v41c0 .6.5 1.1 1.1 1.1h41c.6 0 1.1-.5 1.1-1.1v-27.9c0-.6-.5-1.1-1.1-1.2-.6 0-1.1.5-1.2 1.1v26.8H6.8v-38.7h26.8c.6 0 1.1-.5 1.2-1.1 0-.6-.5-1.1-1.1-1.2h-28c-.1.1-.1.1-.2.1zm37.2.2l4.8 4.8L27 988.2l-4.8-4.8 20.5-20.6zm-21.6 22.7l3.7 3.7-4.2.5.5-4.2z" transform="translate(0 -952.362)" id="FILAIRES_1_"/></svg>