<svg xmlns="http://www.w3.org/2000/svg" width="56" height="58" viewBox="0 0 56 58"><title>gaz</title><path d="M39.4 28.587a22.937 22.937 0 0 0-12.54-16.831 23.7 23.7 0 0 0-4.03-1.605.5.5 0 0 0-.5.829l.231.231c.134.132.256.252.37.381a7.145 7.145 0 0 1 1.518 6.948A16.8 16.8 0 0 1 22.1 23.4c-1.01 1.565-2.077 3.242-3.044 5.009a22.21 22.21 0 0 0-2.763 8.137 11.64 11.64 0 0 0 2.146 8.515 10.428 10.428 0 0 0 5.541 4.065c.323.095.653.166.982.236l.415.091a.481.481 0 0 0 .111.013.5.5 0 0 0 .326-.879 2.353 2.353 0 0 0-.634-.36 4.881 4.881 0 0 1-3.064-3.769 7.771 7.771 0 0 1 .388-3.81 21 21 0 0 1 2.382-4.64c.82-1.315 1.684-2.721 2.43-4.164a9.743 9.743 0 0 0 1.141-4.1 13.491 13.491 0 0 1 .7 7.721 19.293 19.293 0 0 1-.485 1.883c-.1.346-.2.691-.294 1.04a2.613 2.613 0 0 0 .232 2.038 2.261 2.261 0 0 0 1.461 1.014 2.007 2.007 0 0 0 1.723-.371 1.888 1.888 0 0 0 .677-1.278 11.5 11.5 0 0 1 .833 2.256 6.176 6.176 0 0 1 .151 3.058 9.28 9.28 0 0 1-.348 1.054c-.062.165-.123.33-.181.494a.5.5 0 0 0 .776.562l.348-.265a11.828 11.828 0 0 0 3.093-3.832A21.641 21.641 0 0 0 39.4 28.587zm-3.141 14.065a11.7 11.7 0 0 1-1.8 2.571 7.244 7.244 0 0 0-.183-3.424 11.953 11.953 0 0 0-1.72-3.833 3.776 3.776 0 0 0-.33-.391l-.125-.138a.623.623 0 0 0-.71-.053.5.5 0 0 0-.235.568l.034.122c.027.094.055.187.074.283.026.129.057.257.087.386a3.692 3.692 0 0 1 .135.806.918.918 0 0 1-.319.746 1.02 1.02 0 0 1-.873.17 1.25 1.25 0 0 1-.826-.559 1.633 1.633 0 0 1-.119-1.264c.089-.339.188-.675.287-1.012a20.005 20.005 0 0 0 .508-1.981 14.268 14.268 0 0 0-1.626-10.037 1.942 1.942 0 0 0-.462-.56.5.5 0 0 0-.81.472l.057.31c.029.159.059.317.082.475a8.288 8.288 0 0 1-.956 5.076c-.729 1.41-1.58 2.8-2.389 4.094a21.7 21.7 0 0 0-2.487 4.866 8.729 8.729 0 0 0-.419 4.292 5.836 5.836 0 0 0 1.22 2.71 10.3 10.3 0 0 1-3.108-2.881 10.526 10.526 0 0 1-1.957-7.806 21.215 21.215 0 0 1 2.646-7.771c.951-1.738 2.007-3.4 3.007-4.947a17.631 17.631 0 0 0 2.486-5.158 8.254 8.254 0 0 0-1.128-7.077 21.1 21.1 0 0 1 2.1.938 21.98 21.98 0 0 1 12.022 16.131 20.667 20.667 0 0 1-2.163 13.876z"/></svg>