<svg xmlns="http://www.w3.org/2000/svg" width="55.18" height="51.66" viewBox="0 0 55.18 51.66"><path d="M13.904 38.707a2.902 2.902 0 0 0-2.896 2.861 2.893 2.893 0 0 0 .848 2.08c.55.555 1.277.859 2.051.859h.004a2.924 2.924 0 0 0 2.902-2.869c.012-.77-.284-1.5-.833-2.059a2.901 2.901 0 0 0-2.076-.872m.005 4.801h-.003c-.503 0-.979-.199-1.34-.563a1.906 1.906 0 0 1-.558-1.367 1.899 1.899 0 0 1 3.259-1.295c.359.365.554.84.546 1.34a1.92 1.92 0 0 1-1.904 1.885m19.68-4.801h-.013c-1.582.008-2.878 1.297-2.889 2.871-.005.777.297 1.512.85 2.068s1.283.861 2.059.861h.001a2.914 2.914 0 0 0 2.9-2.877 2.856 2.856 0 0 0-.846-2.057 2.931 2.931 0 0 0-2.062-.866m.009 4.801h-.002c-.507 0-.986-.201-1.349-.566a1.896 1.896 0 0 1-.56-1.357 1.904 1.904 0 0 1 1.894-1.877h.009c.506 0 .985.203 1.353.572.363.367.561.842.555 1.34-.013 1.023-.883 1.888-1.9 1.888"/><path d="M48.059 23.846c-2.14-3.01-5.309-4.832-9.688-5.568-2.373-.4-4.796-.396-7.116-.396L30 17.879a8.968 8.968 0 0 1-1.555-.127 2.824 2.824 0 0 1-2.043-1.596c.423.006.842.008 1.26-.012 1.66-.082 2.008-1.152 2.067-1.783.118-1.254.156-2.541.194-3.783.016-.523.031-1.053.054-1.584a.5.5 0 0 0-.5-.519h-1.282l.001-2.52c.003-.832-.461-1.355-1.21-1.361-.469.031-.726.172-.878.324-.249.246-.375.607-.374 1.074l.001 2.461h-2.534v-.982c.002-.553.002-1.104-.003-1.654-.006-.723-.488-1.215-1.199-1.227-.691.012-1.182.455-1.23 1.188-.01.156-.009.314-.007.473l.001 2.264h-1.129a.5.5 0 0 0-.5.5l-.003.957c-.003.729-.006 1.438.008 2.146l.005.285c.01.613.02 1.248.132 1.875.223 1.238.932 1.834 2.232 1.877.163.006.329.002.493-.004.241-.004.483-.014.714.02.036.008.108.059.109.035 1.066 3.336 3.197 4.922 6.708 4.992l1.298.023c1.957.035 3.98.068 5.953.225 2.908.229 5.282 1.162 7.256 2.85 2.629 2.248 3.205 5.922 1.371 8.734-.812 1.244-1.998 1.996-3.713 2.352-.678-1.77-2.056-2.955-4.1-3.529-.737-.205-1.512-.268-2.172-.301-.26-.014-.286-.039-.375-.234l-.266-.59c-.609-1.348-1.24-2.742-1.961-4.07-1.008-1.854-2.713-2.834-4.94-2.809l-1.313.012c-2.145.018-4.365.037-6.54-.023-2.699-.078-4.688 1.156-5.926 3.654a76.791 76.791 0 0 0-1.743 3.832c-.095.221-.124.227-.324.219a7.208 7.208 0 0 0-3.619.791c-1.823.941-2.802 2.211-2.989 3.885-.087.779-.082 1.645.014 2.574.196 1.92 1.204 3.229 2.914 3.781.191.063.224.086.281.32a5.48 5.48 0 0 0 2.885 3.602c.77.383 1.605.576 2.44.576a5.43 5.43 0 0 0 2.136-.438c1.586-.678 2.652-1.893 3.176-3.613h9.08c.846 2.564 2.887 4.088 5.407 4.047 2.995-.076 4.971-2.385 5.296-4.473a.382.382 0 0 1 .136-.119c1.486-.611 2.389-1.793 2.609-3.416.041-.297.073-.313.356-.367 1.862-.365 3.338-1.039 4.51-2.061 3.569-3.109 4.192-8.845 1.39-12.786m-2.045 12.031c-1.037.902-2.359 1.502-4.046 1.832-.713.141-1.058.504-1.154 1.215-.175 1.285-.829 2.145-2 2.627-.317.131-.67.461-.729.84-.275 1.736-1.893 3.615-4.347 3.676-2.133.039-3.814-1.27-4.49-3.545a1.147 1.147 0 0 0-.095-.217.5.5 0 0 0-.452-.285h-9.806a.498.498 0 0 0-.484.379c-.404 1.625-1.288 2.709-2.704 3.314a4.439 4.439 0 0 1-3.736-.113 4.48 4.48 0 0 1-2.36-2.947c-.139-.561-.412-.859-.943-1.031-1.342-.434-2.071-1.395-2.229-2.932a11.192 11.192 0 0 1-.014-2.361c.149-1.334.93-2.32 2.454-3.107a6.172 6.172 0 0 1 3.121-.68c.602.023 1.029-.236 1.282-.824a74.356 74.356 0 0 1 1.721-3.781c1.064-2.148 2.688-3.182 5.002-3.1 2.191.061 4.421.041 6.576.023l1.312-.012c1.827.025 3.222.758 4.054 2.287.704 1.295 1.326 2.672 1.928 4.004l.268.592c.246.543.616.787 1.235.818.604.031 1.31.086 1.952.266 1.88.527 3.044 1.602 3.559 3.283.072.238.31.391.56.346 2.236-.365 3.762-1.275 4.801-2.867 2.113-3.238 1.458-7.461-1.558-10.041-2.111-1.805-4.744-2.844-7.828-3.086-2.003-.158-4.042-.193-6.014-.229l-1.296-.023c-3.063-.063-4.845-1.387-5.774-4.295-.122-.385-.571-.672-.919-.723a5.147 5.147 0 0 0-.881-.027c-.146.002-.296.008-.438.002-.84-.027-1.139-.273-1.279-1.053-.098-.547-.107-1.115-.116-1.715l-.005-.289c-.014-.699-.011-1.402-.008-2.123l.002-.461h1.13a.5.5 0 0 0 .5-.5l-.001-2.775a4.72 4.72 0 0 1 .005-.395c.019-.258.114-.248.217-.254.157.002.213.039.215.234.005.549.005 1.096.003 1.645v1.484a.5.5 0 0 0 .5.5h3.534a.5.5 0 0 0 .5-.5l-.001-2.965c0-.209.041-.324.077-.359.034-.033.127-.035.164-.035.114 0 .222.002.221.357l-.001 3.023a.5.5 0 0 0 .5.5h1.263c-.013.359-.023.717-.034 1.072-.038 1.285-.075 2.498-.19 3.721-.04.43-.204.832-1.12.879-.422.02-.847.014-1.275.01l-.603-.006a.5.5 0 0 0-.496.572c.212 1.473 1.484 2.74 3.026 3.014a9.93 9.93 0 0 0 1.726.143l1.259.002c2.3-.006 4.66-.004 6.95.383 4.104.689 7.061 2.379 9.039 5.162 2.513 3.533 1.961 8.67-1.23 11.451"/><path d="M32.049 32.238a.5.5 0 0 0 .015-.492c-.205-.391-.402-.773-.595-1.148-.507-.984-.984-1.914-1.53-2.816-.309-.51-1.024-.832-1.541-.875-.772-.066-1.526-.055-2.319-.041-.309.004-.619.01-.935.01a.5.5 0 0 0-.5.5v4.604a.5.5 0 0 0 .5.5h6.478a.504.504 0 0 0 .427-.242m-6.405-.759v-3.607l.45-.006c.769-.012 1.498-.023 2.22.037.301.025.675.238.769.396.528.873.998 1.787 1.497 2.756l.218.424h-5.154zm-3.613-4.606c-.286 0-.566-.006-.843-.012-.689-.018-1.336-.029-1.998.045-.595.066-1.338.363-1.663.875-.568.9-1.061 1.838-1.58 2.83-.203.385-.41.781-.628 1.184a.503.503 0 0 0 .441.738h1.752l3.937-.002c.135 0 .27-.012.415-.023l.202-.016a.5.5 0 0 0 .466-.5v-4.619a.502.502 0 0 0-.501-.5m-.5 4.656c-.029.002-.058.002-.087.002l-4.853.002.24-.459c.511-.973.993-1.893 1.54-2.758.101-.158.52-.371.931-.416.595-.068 1.212-.055 1.864-.039l.364.008v3.66z"/></svg>