<svg xmlns="http://www.w3.org/2000/svg" viewBox="0 0 56 58"><path class="st1" d="M39.2 39.6h-2.5l-2.6-3.8c2.4-2.4 4-5.9 4.3-9.4 1-.4 1.7-1.4 1.7-2.8v-4c0-.9 0-2.5-2-2.9v-3.1c0-3.6-2.8-7.9-7.7-8.2-1.3-.1-7.1-.3-9.6.7-3.8 1.5-4.7 5.2-4.7 7.5V17c-.8.5-2 1.4-2 2.6v4c0 1.4 1.2 2.5 2.5 2.9.3 3.6 2.3 7.4 5.2 9.8l-2.2 3.3H17c-6.4 0-11 4.2-11 10v2c0 .5.4 1 1 1s1-.5 1-1v-2c0-4.7 3.7-8 9-8h3c.3 0 .6-.2.8-.4l2.5-3.8c1.3.8 2.8 1.2 4.4 1.2 1.7 0 3.4-.6 4.8-1.5l2.8 4.1c.2.3.5.4.8.4h3c5.2 0 8.8 3.3 8.8 8v2c0 .5.5 1 1 1s1-.4 1-1v-2c.1-5.9-4.4-10-10.7-10zm-11.5-3c-5 0-9.2-6-9.2-11 0-.6-.4-1-1-1-.7 0-1.5-.6-1.5-1v-4c0-.2.7-.8 1.4-1.1.4-.2.6-.5.6-.9v-4c0-2.8 2.3-5.9 5-6.2 1.1-.1 3.9-.4 7.2-.1 3.8.3 5.8 3.6 5.8 6.3v4c0 .6.4 1 1 1 1 0 1 0 1 1v4c0 .7-.2 1-.6 1-.6 0-1 .4-1 1 0 5.1-3.8 11-8.7 11z"/></svg>