<svg xmlns="http://www.w3.org/2000/svg" width="56" height="58" viewBox="0 0 56 58"><defs><style>.cls-1{fill:#1d1d1d;fill-rule:evenodd}</style></defs><title>GABARIT SVG</title><g id="GABARIT_SVG" data-name="GABARIT SVG"><path class="cls-1" d="M26.883 31.048h18.758a1.049 1.049 0 1 0 0-2.1H26.882a5.141 5.141 0 0 0-10.062 0h-6.459a1.049 1.049 0 1 0 0 2.1h6.459a5.141 5.141 0 0 0 10.062 0m-5.032 1.988a3.068 3.068 0 0 1-2.978-2.389 2.905 2.905 0 0 1 0-1.3 3.05 3.05 0 0 1 5.954 0A2.974 2.974 0 0 1 24.9 30a3.056 3.056 0 0 1-3.052 3.038m15.789 14.437a5.163 5.163 0 0 0 1.663-2.828h6.34a1.049 1.049 0 1 0 0-2.1H39.3a5.141 5.141 0 0 0-10.063 0H10.361a1.049 1.049 0 1 0 0 2.1h18.877a5.138 5.138 0 0 0 8.4 2.828m-3.368-.84a3.066 3.066 0 0 1-2.977-2.388 2.881 2.881 0 0 1 0-1.3 3.05 3.05 0 0 1 5.953 0 2.968 2.968 0 0 1 .075.65 3.055 3.055 0 0 1-3.052 3.038m2.457-29.184h8.915a1.049 1.049 0 1 0 0-2.1h-8.917a5.141 5.141 0 0 0-10.062 0H10.36a1.049 1.049 0 1 0 0 2.1h16.3a5.142 5.142 0 0 0 10.063 0m-5.031 1.987a3.066 3.066 0 0 1-2.978-2.385 2.827 2.827 0 0 1 0-1.3 3.051 3.051 0 0 1 6.029.652 3.115 3.115 0 0 1-.074.65 3.067 3.067 0 0 1-2.976 2.385" id="menu_critere" data-name="menu critere"/></g></svg>