<svg xmlns="http://www.w3.org/2000/svg" viewBox="0 0 56 58"><style>.st0{fill:#e6e7e8}.st1{fill:#1d1e1b}.st2{stroke-linecap:round;stroke-linejoin:round}.st2,.st3,.st4{fill:none;stroke:#000;stroke-miterlimit:10}.st4{fill-rule:evenodd;clip-rule:evenodd;stroke-linecap:round;stroke-linejoin:round}.st5{fill:#31ff07}.st6{fill:none}.st7{fill-rule:evenodd;clip-rule:evenodd}.st8{fill:#1d1d1b}.st9{fill:#1d1d1d}.st10,.st11{stroke:#000;stroke-width:.2847;stroke-miterlimit:10}.st11{stroke-width:.4098}.st12{clip-path:url(#SVGID_4_)}.st13{clip-path:url(#SVGID_8_)}.st14{clip-path:url(#SVGID_10_)}.st15{clip-path:url(#SVGID_12_)}.st16{clip-path:url(#SVGID_14_)}.st17{clip-path:url(#SVGID_16_)}.st18{clip-path:url(#SVGID_18_)}.st19{clip-path:url(#SVGID_20_);fill:#343434}.st20{clip-path:url(#SVGID_22_)}.st21{clip-path:url(#SVGID_24_);fill:#343434}.st22{clip-path:url(#SVGID_26_)}.st23{clip-path:url(#SVGID_28_);fill:#343434}.st24{clip-path:url(#SVGID_30_)}.st25{clip-path:url(#SVGID_32_);fill:#343434}.st26{clip-path:url(#SVGID_34_)}.st27{clip-path:url(#SVGID_36_);fill:#343434}.st28{clip-path:url(#SVGID_38_)}.st29{clip-path:url(#SVGID_40_);fill:#343434}.st30{clip-path:url(#SVGID_42_)}.st31{clip-path:url(#SVGID_44_);fill:#343434}.st32{fill:#231f20}.st33{clip-path:url(#SVGID_45_)}.st34{clip-path:url(#SVGID_46_)}.st35{display:none}.st36{fill:#fff}.st37{fill:none;stroke:#fff;stroke-miterlimit:10}</style><path d="M31.1 46.6c-.3-.2-.7-.3-1.1-.2-.4.1-.7.3-.9.7-.2.4-.6.6-1 .6s-.8-.2-1-.6c-.2-.3-.5-.6-.9-.7-.4-.1-.8 0-1.1.2-.3.2-.6.5-.7.9-.1.4 0 .8.2 1.1.7 1.3 2.1 2.1 3.6 2.1s2.8-.8 3.6-2.1c.2-.3.3-.7.2-1.1-.3-.4-.6-.7-.9-.9zm12.5-9l-.7-1.1c-1.7-2.5-2.6-5.5-2.6-8.6 0-5.3-3.3-9.9-7.9-11.7.7-.9 1.2-2.1 1.2-3.4 0-3-2.5-5.5-5.5-5.5s-5.5 2.5-5.5 5.5c0 1.3.4 2.4 1.2 3.4-1.6.6-3.1 1.6-4.3 2.9-2.3 2.4-3.6 5.5-3.6 8.8 0 3.1-.9 6-2.6 8.6l-.7 1.1c-.7 1.1-.9 2.3-.4 3.5.4 1.2 1.4 2.1 2.6 2.4 4.1 1.1 8.5 1.7 13.4 1.7s9.3-.6 13.4-1.7c1.2-.3 2.2-1.2 2.6-2.4.3-1.1.1-2.4-.6-3.5zm-2.3 2.5c-.1.3-.4.5-.7.6-3.8 1.1-7.9 1.6-12.6 1.6-4.7 0-8.8-.5-12.6-1.6-.3-.1-.6-.3-.7-.6-.1-.2-.1-.5.1-.9l.7-1.1c2-3 3.1-6.6 3.1-10.2 0-5.3 4.2-9.5 9.4-9.5 5.1 0 9.3 4.3 9.3 9.6 0 3.6 1.1 7.2 3.1 10.2l.8 1.1c.1.2.2.5.1.8zM25.5 12.8c0-1.4 1.2-2.6 2.6-2.6s2.6 1.2 2.6 2.6-1.2 2.6-2.6 2.6-2.6-1.1-2.6-2.6z" id="PLEINS"/></svg>