<svg xmlns="http://www.w3.org/2000/svg" viewBox="0 0 56 58"><path class="st1" d="M28.8 39.8c-6 0-10.9-6.4-11.4-12.1-1.4-.4-2.6-1.5-2.6-2.9v-4c0-1.2 1.2-2.2 2-2.6v-3.4c0-3.8 3.1-6.9 6.9-7 .8-.3 4-1.5 7.3-1.5 5.2 0 8.1 3 8.1 8.5v3.1c2 .4 2 2 2 2.9v4c0 1.4-.6 2.4-1.7 2.8-.2 5.9-4.7 12.2-10.6 12.2zm2.3-31.6c-3.3 0-6.7 1.4-6.7 1.4-.1.1-.3.1-.4.1-2.8 0-5.1 2.2-5.1 5v4c0 .4-.2.8-.6.9-.7.3-1.4.9-1.4 1.1v4c0 .4.9 1 1.5 1s1 .4 1 1c0 5 4.3 11 9.4 11 4.9 0 8.8-5.9 8.8-11 0-.6.5-1 1-1 .4 0 .6-.3.6-1v-4c0-1 0-1-1-1-.6 0-1-.4-1-1v-4c0-4.3-2-6.5-6.1-6.5zM40 50c-.4.4-1.1.3-1.6-.2l-4.2-4.2c-.5-.5-.6-1.2-.2-1.6.4-.4 1.1-.3 1.6.2l4.2 4.2c.5.5.6 1.2.2 1.6z"/><path class="st1" d="M48.9 38l-8.5 11.5c-.5.6-1.2.9-1.7.6-.5-.3-.4-1.1 0-1.7l8.5-11.5c.5-.6 1.2-.9 1.7-.6.5.3.5 1.1 0 1.7zM7.8 51.8c-.6 0-1-.4-1-1 0-5.8 4.7-10 11.2-10h2.5l2.7-4c.3-.5.9-.6 1.4-.3.5.3.6.9.3 1.4l-3 4.4c-.2.3-.5.4-.8.4h-3c-5.4 0-9.1 3.3-9.1 8-.2.6-.7 1.1-1.2 1.1z"/></svg>