<svg xmlns="http://www.w3.org/2000/svg" width="56" height="58" viewBox="0 0 56 58"><title>garantie-eau</title><g data-name="GABARIT SVG"><path d="M28.611 41.847a.5.5 0 0 0 .494.5 7.268 7.268 0 0 0 7.261-7.26.5.5 0 0 0-.99 0 6.277 6.277 0 0 1-6.271 6.27.5.5 0 0 0-.494.49z"/><path d="M29.105 11.948a.5.5 0 0 0-.408.215c-.431.628-10.562 15.464-10.562 22.919a10.97 10.97 0 1 0 21.939 0c0-7.456-10.131-22.292-10.562-22.92a.493.493 0 0 0-.407-.214zm0 33.114a9.991 9.991 0 0 1-9.979-9.979c0-6.076 7.446-17.894 9.729-21.371l.251-.382.251.382c2.282 3.475 9.729 15.288 9.729 21.37a9.991 9.991 0 0 1-9.981 9.98zm15.587-29.895h-1.843v-1.844a.5.5 0 1 0-.99 0v1.845h-1.845a.5.5 0 1 0 0 .99h1.845V18a.5.5 0 0 0 .99 0v-1.843h1.844a.5.5 0 1 0 0-.99zM15.986 39.1h-1.844v-1.84a.5.5 0 0 0-.99 0v1.84h-1.845a.5.5 0 1 0 0 .99h1.845v1.845a.5.5 0 1 0 .99 0v-1.841h1.845a.5.5 0 0 0 0-.99z"/></g></svg>