<svg xmlns="http://www.w3.org/2000/svg" width="56" height="58" viewBox="0 0 56 58"><defs><style>.a{fill-rule:evenodd}</style></defs><title>icon-erreur-fichier</title><path class="a" d="M41.84 10.93H27a.51.51 0 0 0-.39.49.51.51 0 0 0 .51.52h14.72a1.26 1.26 0 0 1 1.26 1.26v31.58A1.26 1.26 0 0 1 41.84 46H17.72a1.26 1.26 0 0 1-1.26-1.26V26.81a.52.52 0 0 0-1 0v18a2.29 2.29 0 0 0 2.28 2.29h24.1a2.29 2.29 0 0 0 2.28-2.29V13.23a2.29 2.29 0 0 0-2.28-2.3z"/><path d="M18.5 9.12a1.2 1.2 0 0 1 1 .6l6.73 11.54a1.21 1.21 0 0 1 0 1.21 1.19 1.19 0 0 1-1.05.61H11.76a1.21 1.21 0 0 1-1-1.82l6.7-11.54a1.2 1.2 0 0 1 1-.6m-6.74 13h13.51a.19.19 0 0 0 .17-.1.22.22 0 0 0 0-.2l-6.73-11.59a.19.19 0 0 0-.17-.1.19.19 0 0 0-.17.1l-6.74 11.55a.19.19 0 0 0 0 .2.19.19 0 0 0 .17.1"/><path d="M18.55 13a.51.51 0 0 1 .51.51V18a.51.51 0 1 1-1 0v-4.52a.51.51 0 0 1 .51-.51m-.02 6.84a.52.52 0 0 1 .36.14.52.52 0 0 1 0 .72.53.53 0 0 1-.36.15.51.51 0 0 1-.36-.87.52.52 0 0 1 .36-.14m5.11 9.83a.37.37 0 0 0 .14.31.42.42 0 0 0 .62 0l.48-.48.48.48a.42.42 0 0 0 .62 0 .51.51 0 0 0 .14-.31.37.37 0 0 0-.14-.31l-.45-.48.51-.51a.44.44 0 0 0-.62-.62l-.44.48-.48-.48a.44.44 0 0 0-.62.62l.48.48-.48.48a.35.35 0 0 0-.24.34zm9.78 0a.37.37 0 0 0 .14.31.42.42 0 0 0 .31.14.48.48 0 0 0 .31-.14l.48-.48.48.48a.42.42 0 0 0 .62 0 .43.43 0 0 0 0-.62l-.48-.48.48-.48a.43.43 0 0 0 0-.62.51.51 0 0 0-.31-.14.37.37 0 0 0-.31.14l-.48.45-.48-.48a.51.51 0 0 0-.31-.14.37.37 0 0 0-.31.14.51.51 0 0 0-.14.31.37.37 0 0 0 .14.31l.48.48-.48.48a.44.44 0 0 0-.14.34zm-7.86 4.08a.4.4 0 0 0 .41.41h4.67a2.13 2.13 0 0 0 .72 2 1.35 1.35 0 0 0 .72.21 1.11 1.11 0 0 0 .75-.24 2.23 2.23 0 0 0 .55-2.44.26.26 0 0 0-.07-.17.43.43 0 0 0-.38-.21H26a.4.4 0 0 0-.42.44zm6 .41h1.1a1.23 1.23 0 0 1-.31 1.27.41.41 0 0 1-.48 0 1.35 1.35 0 0 1-.34-1.27z"/></svg>