<svg xmlns="http://www.w3.org/2000/svg" width="56" height="58" viewBox="0 0 56 58"><title>icon-documents-telechargeables</title><path d="M38.67 12.67H22.46a.46.46 0 0 0-.14.05l-.1.07-9 8.89a.5.5 0 0 0-.09.13.57.57 0 0 0-.06.22v21.64a1.59 1.59 0 0 0 1.61 1.66h19.8c2 0 2-1.51 2-1.58v-2.51h2.05c2 0 2-1.56 2-1.58V14.5a1.81 1.81 0 0 0-1.86-1.83zM18 18.36v3.16h-3.26zM35.39 44a1.44 1.44 0 0 1-.91.34l-19.58.09a.87.87 0 0 1-.75-.48A2.23 2.23 0 0 1 14 43V22.46h4.38a.47.47 0 0 0 .47-.47l.09-4.28h15.67a.86.86 0 0 1 1 .87l.06 24.57a1.19 1.19 0 0 1-.28.85zm4-3.91a1.41 1.41 0 0 1-.87.19h-2V18.59a1.81 1.81 0 0 0-1.92-1.82H19.68l3.32-3.2 15.68.06a.86.86 0 0 1 1 .86l.06 24.77s0 .66-.31.86zm-9.31-4.06H19.37a.58.58 0 0 0 0 1.16h10.75a.58.58 0 0 0 0-1.16zm-5.34-.95L29 30.76a.6.6 0 0 0 0-.83.58.58 0 0 0-.82 0l-2.84 3.17v-7.7a.54.54 0 0 0-.15-.4.57.57 0 0 0-1 .41l.17 7.59-3.07-3.11a.56.56 0 0 0-.81 0 .57.57 0 0 0 0 .83z"/></svg>