<svg xmlns="http://www.w3.org/2000/svg" viewBox="0 0 56 58"><style>.st0{fill:#e6e7e8}.st1{fill:#1d1e1b}.st2{stroke-linecap:round;stroke-linejoin:round}.st2,.st3,.st4{fill:none;stroke:#000;stroke-miterlimit:10}.st4{stroke-linecap:round;stroke-linejoin:round}.st4,.st5{fill-rule:evenodd;clip-rule:evenodd}.st6{fill:#1d1d1b}.st7{fill:#1d1d1d}.st8{stroke:#000;stroke-width:.2847;stroke-miterlimit:10}.st9{clip-path:url(#SVGID_3_)}.st10{clip-path:url(#SVGID_4_)}.st11{display:none}</style><path class="st6" d="M44.6 20.5l-8.1-8.1c-.3-.3-.6-.4-1-.4H12.4c-.8 0-1.5.7-1.5 1.5v31.2c0 .8.7 1.5 1.5 1.5h31.1c.8 0 1.5-.7 1.5-1.5V21.5c.1-.4-.1-.8-.4-1zm-30.7-5.6h12.7v6.4H13.9v-6.4zm6.8 28.2V33h14.6v10.2H20.7zm21.4 0h-3.9V31.5c0-.8-.7-1.5-1.5-1.5H19.3c-.8 0-1.5.7-1.5 1.5v11.6h-3.9V24.2H28c.8 0 1.5-.7 1.5-1.5v-7.9h5.4l7.2 7.2v21.1z" id="FILAIRES_1_"/></svg>