<svg xmlns="http://www.w3.org/2000/svg" viewBox="0 0 56 58"><style>.st0{fill:#e6e7e8}.st1{fill:#1d1e1b}.st2{stroke-linecap:round;stroke-linejoin:round}.st2,.st3,.st4{fill:none;stroke:#000;stroke-miterlimit:10}.st4{fill-rule:evenodd;clip-rule:evenodd;stroke-linecap:round;stroke-linejoin:round}.st5{fill:#31ff07}.st6{fill-rule:evenodd;clip-rule:evenodd}.st7{fill:#1d1d1b}.st8{fill:#1d1d1d}.st10,.st9{stroke:#000;stroke-miterlimit:10}.st9{stroke-width:.2847}.st10{stroke-width:.4098}.st11{fill-rule:evenodd;clip-rule:evenodd;fill:#1d1d1d}.st12{clip-path:url(#SVGID_3_)}.st13{clip-path:url(#SVGID_4_)}.st14{display:none}.st15{fill:none}</style><g id="GABARIT_SVG"><path d="M28 33.2c-.5 0-.8.4-.8.8 0 .3.2.5.4.7V40c0 .3.2.5.5.5s.5-.2.5-.5v-5.3c.2-.2.4-.4.4-.7-.2-.4-.5-.8-1-.8z"/><path d="M42.4 24.3h-4.6v-5.4c0-5.4-4.4-9.8-9.8-9.8s-9.8 4.4-9.8 9.8v5.4h-4.6c-.3 0-.5.2-.5.5v23.7c0 .3.2.5.5.5h28.8c.3 0 .5-.2.5-.5V24.8c0-.3-.2-.5-.5-.5zm-23.2-5.5c0-4.9 4-8.8 8.8-8.8s8.8 4 8.8 8.8v5.4H19.2v-5.4zM41.9 48H14.1V25.3h27.8V48z"/></g></svg>