<svg xmlns="http://www.w3.org/2000/svg" width="56" height="58" viewBox="0 0 56 58"><title>garantie</title><g data-name="GABARIT SVG"><path d="M23.783 23.22H19.29a2.333 2.333 0 0 1-2.33-2.33V16.4a2.333 2.333 0 0 1 2.33-2.33h4.493a2.333 2.333 0 0 1 2.33 2.33v4.49a2.333 2.333 0 0 1-2.33 2.33zm-4.493-8.153a1.332 1.332 0 0 0-1.33 1.33v4.493a1.332 1.332 0 0 0 1.33 1.33h4.493a1.332 1.332 0 0 0 1.33-1.33V16.4a1.332 1.332 0 0 0-1.33-1.33zm19.199 7.175H28.357a.5.5 0 0 1 0-1h10.132a.5.5 0 0 1 0 1zm0 5.183H17.142a.5.5 0 1 1 0-1h21.347a.5.5 0 0 1 0 1zm0 4.075H17.142a.5.5 0 0 1 0-1h21.347a.5.5 0 0 1 0 1zm0 4.071H17.142a.5.5 0 1 1 0-1h21.347a.5.5 0 0 1 0 1zm-3.87 13.392l-.852-2.129.874.132-.07.462.002.001.1-.46.675.058-.263.783-.466 1.153z"/><path d="M42.808 45.931V13.483a2.333 2.333 0 0 0-2.33-2.33H15.521a2.332 2.332 0 0 0-2.329 2.33v32.448a2.332 2.332 0 0 0 2.329 2.33H27.93l-.947 1.49a.5.5 0 0 0 .422.768h2.762l2.192 2.181a.5.5 0 0 0 .816-.167l1.445-3.577 1.445 3.577a.5.5 0 0 0 .816.167l2.194-2.182h2.762a.5.5 0 0 0 .421-.77l-1.037-1.622a2.326 2.326 0 0 0 1.587-2.195zm-10.278 5.53l-1.806-1.8a.5.5 0 0 0-.353-.146h-2.057l2.368-3.725c.01.018.026.031.036.049a2.744 2.744 0 0 0 .828.918 2.869 2.869 0 0 0 1.442.518 2.811 2.811 0 0 0 .462.316l.032.015a3.189 3.189 0 0 0 .5.217l.012.005zm6.251-7.44a.5.5 0 0 0-.145.356 1.868 1.868 0 0 1-.183.814c0 .005-.008.007-.011.013a2.181 2.181 0 0 1-.158.281 1.92 1.92 0 0 1-.192.238 1.882 1.882 0 0 1-1.337.567.5.5 0 0 0-.353.149A2.107 2.107 0 0 1 34.98 47c-.056 0-.113-.013-.169-.018l-.068-.009h-.006c-.031 0-.061 0-.092-.01a2.286 2.286 0 0 1-.573-.182c-.026-.012-.051-.026-.077-.039a1.719 1.719 0 0 1-.439-.308.5.5 0 0 0-.353-.149 1.912 1.912 0 0 1-.373-.039 1.88 1.88 0 0 1-.965-.528 1.835 1.835 0 0 1-.347-.505l-.014-.026a1.947 1.947 0 0 1-.163-.619v-.006c-.005-.062-.017-.123-.017-.187a.5.5 0 0 0-.144-.354 1.879 1.879 0 0 1-.544-1.346 1.835 1.835 0 0 1 .555-1.321.5.5 0 0 0 .143-.354 1.924 1.924 0 0 1 .578-1.351 1.889 1.889 0 0 1 1.332-.544h.018a.5.5 0 0 0 .351-.144 2.1 2.1 0 0 1 1.416-.544h.016a1.825 1.825 0 0 1 1.3.545.5.5 0 0 0 .351.144h.018a1.889 1.889 0 0 1 1.332.544 1.934 1.934 0 0 1 .575 1.35.5.5 0 0 0 .149.353 1.835 1.835 0 0 1 .555 1.321 1.877 1.877 0 0 1-.544 1.347zm.09 5.5a.5.5 0 0 0-.353.146l-1.807 1.8-1.405-3.478c.042 0 .083-.017.125-.024a3.236 3.236 0 0 0 .505-.122c.06-.02.119-.038.178-.061a3.163 3.163 0 0 0 .311-.144c.047-.025.1-.046.142-.073a2.788 2.788 0 0 0 .4-.28 2.876 2.876 0 0 0 1.841-.857l.083-.089 2.037 3.185zm2.937-3.588a1.317 1.317 0 0 1-1.162 1.3l-1.188-1.858a2.858 2.858 0 0 0 .174-.8 2.9 2.9 0 0 0-.02-3.783 2.953 2.953 0 0 0-.868-1.853 2.885 2.885 0 0 0-1.85-.825 2.766 2.766 0 0 0-1.851-.694 3.2 3.2 0 0 0-1.98.694 2.881 2.881 0 0 0-1.853.825 2.943 2.943 0 0 0-.868 1.853 2.888 2.888 0 0 0-.045 3.747l-1.732 2.725H15.521a1.331 1.331 0 0 1-1.329-1.33V13.483a1.331 1.331 0 0 1 1.329-1.33h24.957a1.332 1.332 0 0 1 1.33 1.33z"/></g></svg>