<svg xmlns="http://www.w3.org/2000/svg" width="56" height="58" viewBox="0 0 56 58"><title>assistance-24h</title><g data-name="GABARIT SVG"><path d="M40.393 41.791l-7.649-5.1a.5.5 0 0 0-.565.009l-3.919 2.786-.079-.047a31.6 31.6 0 0 1-5.846-4.692 31.635 31.635 0 0 1-4.691-5.847l-.047-.079 2.786-3.921a.5.5 0 0 0 .009-.566l-5.1-7.649a.5.5 0 0 0-.63-.174l-2.549 1.208a.5.5 0 0 0-.247.261l-1.659 4.029a4.167 4.167 0 0 0 .26 3.679l.575.978a.5.5 0 0 0 .431.246.5.5 0 0 0 .429-.752l-.575-.978a3.168 3.168 0 0 1-.2-2.792l1.3-3.153 5.157 7.881-.984 1.388a.5.5 0 0 0-.027.535 31.693 31.693 0 0 0 5.058 6.411 31.675 31.675 0 0 0 6.413 5.06.5.5 0 0 0 .535-.028l1.387-.985 3.286 2.15a.5.5 0 0 0 .548-.835l-2.96-1.937 1.639-1.166 7.006 4.669-.785 1.645-3.361-2.2a.5.5 0 0 0-.548.835l3.05 2-3.152 1.3a3.161 3.161 0 0 1-2.794-.2l-.978-.575a58.429 58.429 0 0 1-17.826-17.117.5.5 0 0 0-.9.176.49.49 0 0 0 .073.375 59.454 59.454 0 0 0 18.149 17.422l.978.575a4.167 4.167 0 0 0 3.68.26l4.029-1.658a.5.5 0 0 0 .262-.248l1.208-2.551a.5.5 0 0 0-.177-.628zM13.058 18.38l1.642-.78 4.67 7-1.17 1.647zm19.168-7.566a13.766 13.766 0 0 0-5.662 1.2.5.5 0 0 0 .2.955.488.488 0 0 0 .2-.044A12.891 12.891 0 1 1 36.931 36.7a.5.5 0 0 0 .183.963.507.507 0 0 0 .183-.035 13.873 13.873 0 0 0 8.803-12.72v-.362a13.9 13.9 0 0 0-13.874-13.732z"/><path d="M31.462 22.329a2.87 2.87 0 0 0-5.739 0 .5.5 0 0 0 1 0 1.872 1.872 0 1 1 3.743 0 5.19 5.19 0 0 1-1.53 3.694l-3.064 3.064a.5.5 0 0 0 .353.852h4.741a.5.5 0 1 0 0-1h-3.539l2.213-2.213a6.181 6.181 0 0 0 1.822-4.397zm5.19-2.851a.512.512 0 0 0-.133-.018.5.5 0 0 0-.429.244l-3.8 6.372a.5.5 0 0 0 .428.754h3.307v2.612a.5.5 0 0 0 1 0V26.83h1.205a.5.5 0 1 0 0-1h-1.211v-5.871a.5.5 0 0 0-.367-.481zm-.632 6.354h-2.427l2.428-4.064z"/></g></svg>