<svg xmlns="http://www.w3.org/2000/svg" viewBox="0 0 56 58"><title>GABARIT SVG</title><path d="M28.22 23.08a28 28 0 0 0 8.48-1.56 24.13 24.13 0 0 1 1.48 7.73h-10zm0-1v-10.9a18.55 18.55 0 0 1 2.65.26 33.81 33.81 0 0 1 5.47 9.14 27 27 0 0 1-8.12 1.5zm-1 0a24 24 0 0 1-8-1.53 34.17 34.17 0 0 1 5.43-9.14 18.54 18.54 0 0 1 2.58-.25zm0 1v6.14h-9.8a24 24 0 0 1 1.45-7.74 25.22 25.22 0 0 0 8.35 1.63zm-10.8 6.14H9.18a18.44 18.44 0 0 1 3.71-10.62 34.2 34.2 0 0 0 5 2.54 25.16 25.16 0 0 0-1.47 8.11zm0 1a28 28 0 0 0 1.42 8 29 29 0 0 0-5 2.51 18.43 18.43 0 0 1-3.66-10.48zm1 0h9.79v6.18a28 28 0 0 0-8.44 1.53 27 27 0 0 1-1.35-7.68zm9.79 7.16v10.88a18.57 18.57 0 0 1-2.5-.26 26.4 26.4 0 0 1-5.64-9.1 27 27 0 0 1 8.15-1.49zm1 0a24.43 24.43 0 0 1 8.24 1.66A26.45 26.45 0 0 1 30.94 48a18.57 18.57 0 0 1-2.72.27zm0-1v-6.13h10a27 27 0 0 1-1.38 7.87 25.56 25.56 0 0 0-8.61-1.72zm11-6.15h7.09a18.44 18.44 0 0 1-3.77 10.68 34.31 34.31 0 0 0-4.77-2.44 28 28 0 0 0 1.41-8.22zm0-1a25.26 25.26 0 0 0-1.52-8.1 29.11 29.11 0 0 0 4.94-2.5 18.44 18.44 0 0 1 3.67 10.6zM42 17.85a28.08 28.08 0 0 1-4.68 2.36 34.71 34.71 0 0 0-4.84-8.42A18.59 18.59 0 0 1 42 17.85zm-18.93-6.08a34.63 34.63 0 0 0-4.81 8.44 33.28 33.28 0 0 1-4.75-2.41 18.58 18.58 0 0 1 9.56-6.03zm-9.61 29.82a28.07 28.07 0 0 1 4.72-2.36 28.27 28.27 0 0 0 4.95 8.45 18.58 18.58 0 0 1-9.67-6.09zm19.17 6a28.4 28.4 0 0 0 4.75-8.18 33.33 33.33 0 0 1 4.48 2.29 18.58 18.58 0 0 1-9.23 5.91z"/></svg>