<svg xmlns="http://www.w3.org/2000/svg" viewBox="0 0 56 58"><style>.st0{fill:#e6e7e8}.st1{filter:url(#Adobe_OpacityMaskFilter)}.st2{fill:#fff}.st3{mask:url(#mask-2_1_)}.st3,.st4{fill:#343434}.st5{filter:url(#Adobe_OpacityMaskFilter_1_)}.st6{mask:url(#mask-4_1_);fill:#4a4a4a}.st7{filter:url(#Adobe_OpacityMaskFilter_2_)}.st8{mask:url(#mask-6_1_);fill:#343434}.st9{fill:#231f20}.st10{fill:none}.st11{fill-rule:evenodd;clip-rule:evenodd}.st12{fill:none;stroke:#1d1d1b;stroke-linecap:round;stroke-linejoin:round;stroke-miterlimit:10}.st13,.st14,.st15{stroke:#000;stroke-miterlimit:10}.st13{fill:none;stroke-linecap:round;stroke-linejoin:round}.st14{stroke-width:.2847}.st15{stroke-width:.4098}.st16{fill:#050505}.st17{fill:#45a1da}.st18,.st19{fill:#fff;stroke:#000;stroke-miterlimit:10}.st19{fill:none}.st20{clip-path:url(#SVGID_3_)}.st21{clip-path:url(#SVGID_4_)}.st22{display:none}</style><path d="M41.1 38.3h-2l-2-2.9c2.2-2.1 3.6-5.1 3.8-8.4.6-.3 1.4-1.1 1.4-2.7v-3.6c0-.8 0-2.5-1.8-3v-2.4c0-2.9-.7-5.1-2.2-6.5-1.4-1.3-3.3-1.9-5.9-1.7-.4 0-.7.2-1 .5-.3.3-.4.6-.4 1v.1c-1.1-.7-2.4-1.2-3.9-1.3-.7 0-6.4-.3-9 .7-4.2 1.7-4.6 6-4.6 7.3v2.8c-1.2.7-1.8 1.7-1.8 2.7v3.6c0 1.5 1.2 2.5 2.3 3 .3 3.2 2.1 6.5 4.5 8.6L17 38.3h-2c-6.1 0-10.5 4-10.5 9.6v1.8c0 .8.6 1.4 1.4 1.4s1.4-.6 1.4-1.4v-1.8c0-4 3.2-6.8 7.7-6.8h2.7c.5 0 .9-.2 1.2-.6l2-3.1c2.7 1.3 5.5 1.3 8.1-.3l2.3 3.3c.3.4.7.6 1.2.6h2.7c4.4 0 7.5 2.8 7.5 6.8v1.8c0 .8.6 1.4 1.4 1.4.8 0 1.4-.6 1.4-1.4v-1.8c0-2.6-.9-4.9-2.6-6.6 3.5.7 5.7 3.2 5.7 6.6v1.8c0 .8.6 1.4 1.4 1.4.8 0 1.4-.6 1.4-1.4v-1.8c.1-5.6-4.2-9.5-10.3-9.5zm-7.8-18.1h.4v4c0 .4-.1.4-.1.4-.8 0-1.4.6-1.4 1.4 0 4.4-3.2 9.5-7.4 9.5-4.3 0-7.9-5.2-7.9-9.5 0-.8-.6-1.4-1.4-1.4-.4 0-.8-.3-.9-.4v-3.5c.1-.2.5-.5 1-.7.5-.2.8-.7.8-1.3v-3.6c0-2.2 1.8-4.9 4.1-5.1 1.2-.1 3.7-.3 6.4-.1 3 .2 4.9 2.9 4.9 5.3v3.6c0 .7.7 1.4 1.5 1.4zm-.7-10.5c1.8-.1 3 .2 3.8 1 .9.8 1.3 2.3 1.3 4.4v3.6c0 .8.6 1.4 1.4 1.4h.4v4.2c-.8 0-1.4.6-1.4 1.4 0 3.1-1.2 6-3.2 7.7-.1.1-.2.2-.3.4l-.4.7c-.3.5-.2 1.1.1 1.5l1.5 2.1h-2.5l-2-2.9c2.1-2.2 3.4-5.2 3.7-8.3 1-.5 1.5-1.6 1.5-2.9v-3.6c0-.8 0-2.5-1.8-3V15c0-1.8-.8-3.8-2.1-5.3-.1 0 0 0 0 0z" id="FILAIRES_x5F_3"/></svg>