<svg xmlns="http://www.w3.org/2000/svg" viewBox="0 0 56 58"><style>.st0{fill:#e6e7e8}.st1{filter:url(#Adobe_OpacityMaskFilter)}.st2{fill:#fff}.st3{mask:url(#mask-2_1_)}.st3,.st4{fill:#343434}.st5{filter:url(#Adobe_OpacityMaskFilter_1_)}.st6{mask:url(#mask-4_1_);fill:#4a4a4a}.st7{filter:url(#Adobe_OpacityMaskFilter_2_)}.st8{mask:url(#mask-6_1_);fill:#343434}.st9{fill:#231f20}.st10{fill:none}.st11{fill-rule:evenodd;clip-rule:evenodd}.st12{fill:none;stroke:#1d1d1b;stroke-linecap:round;stroke-linejoin:round;stroke-miterlimit:10}.st13,.st14,.st15{stroke:#000;stroke-miterlimit:10}.st13{fill:none;stroke-linecap:round;stroke-linejoin:round}.st14{stroke-width:.2847}.st15{stroke-width:.4098}.st16{fill:#050505}.st17{fill:#45a1da}.st18,.st19{fill:#fff;stroke:#000;stroke-miterlimit:10}.st19{fill:none}.st20{clip-path:url(#SVGID_3_)}.st21{clip-path:url(#SVGID_4_)}.st22{display:none}</style><path d="M36 38.7l-2.6-3.4c7-1.6 9.7-6.1 10.4-7.5.2-.4.2-.9 0-1.4-1.2-2-3.2-5.6-3.5-6.9-1.8-7.6-6.3-12-12.3-12-6 0-10.5 4.4-12.3 12-.3 1.3-2.3 4.9-3.5 6.9-.2.4-.3.9-.1 1.4.7 1.4 3.5 6 10.6 7.5L20 38.7c-6.1.2-12.6 2.9-12.6 8.5V49c0 .8.6 1.4 1.4 1.4.8 0 1.4-.6 1.4-1.4v-1.8c0-4.2 6.4-5.7 10.4-5.7.4 0 .8-.2 1.1-.5l4.2-5.2c1.4.1 2.8.1 4.2 0l4 5.1c.3.3.7.6 1.1.6 4 0 10.4 1.6 10.4 5.7V49c0 .8.6 1.4 1.4 1.4s1.4-.6 1.4-1.4v-1.8c.1-5.6-6.3-8.3-12.4-8.5zm4.9-11.5c-1.2 1.9-4.7 5.9-12.9 5.9-8.3 0-11.7-3.9-12.9-5.9 1-1.7 3-5.3 3.4-7 .7-3 3-9.8 9.6-9.8 6.5 0 8.9 6.9 9.6 9.8.3 1.7 2.3 5.3 3.2 7z" id="FILAIRES_x5F_3"/></svg>