<svg xmlns="http://www.w3.org/2000/svg" viewBox="0 0 55.2 52"><path d="M12.9 8h4c.8 0 1.5-.7 1.5-1.5v-4c0-.8-.7-1.5-1.5-1.5h-4c-.8 0-1.5.7-1.5 1.5v4c0 .8.6 1.5 1.5 1.5z"/><path fill="none" d="M17.2 14.7H39v3.4H17.2z"/><path fill="none" d="M43.5 9.4H12.9c-.8 0-1.5.7-1.5 1.5v10.8c0 .8.7 1.5 1.5 1.5h9.3l1.4-1.5H12.9V10.9h30.6v10.8H26.1v1.5h17.3c.8 0 1.5-.7 1.5-1.5V10.9c.1-.8-.6-1.5-1.4-1.5z"/><path d="M47.2 4.4H45v2c0 .9-.7 1.6-1.5 1.6h-4c-.8 0-1.5-.7-1.5-1.5v-2H18.4v2c0 .8-.7 1.5-1.5 1.5h-4c-.8 0-1.5-.7-1.5-1.5v-2H9.1c-.8-.1-1.5.6-1.5 1.5v43.5c0 .8.7 1.5 1.5 1.5h38.1c.8 0 1.5-.7 1.5-1.5V6c0-.9-.6-1.6-1.5-1.6zM45 21.8c0 .8-.7 1.5-1.5 1.5H26.2l.3 13.9c0 .3-.2.6-.5.7-.3.1-.6 0-.8-.2L22 33.8l-4.6 11.9c-.1.2-.2.3-.4.4-.1 0-.2.1-.3.1-.1 0-.2 0-.3-.1l-1.4-.4c-.4-.1-.6-.6-.4-1l4.6-11.9-4.8.8c-.3 0-.6-.1-.8-.4-.1-.3-.1-.6.1-.9l8.5-9h-9.3c-.8 0-1.5-.7-1.5-1.5V10.9c0-.8.7-1.5 1.5-1.5h30.6c.8 0 1.5.7 1.5 1.5v10.9z"/><path d="M39.5 8h4c.8 0 1.5-.7 1.5-1.5v-4c0-.8-.7-1.5-1.5-1.5h-4c-.8 0-1.5.7-1.5 1.5v4c-.1.8.6 1.5 1.5 1.5zM25.6 20.3c.3.1.5.4.5.7v.8h17.3V10.9H12.9v10.8h10.8l1.2-1.3c.1-.1.5-.2.7-.1zM17.2 18v-3.4H39V18H17.2z"/></svg>