<svg xmlns="http://www.w3.org/2000/svg" width="56" height="58" viewBox="0 0 56 58"><title>accompagne</title><g data-name="GABARIT SVG"><path d="M16.258 35.107a.5.5 0 0 1-.357-.151l-.5-.5c-.322-.324-.689-.693-.8-.812-.35-.364-.711-.719-1.073-1.074a23.319 23.319 0 0 1-2.318-2.51 11.334 11.334 0 0 1 6.541-17.935 10.663 10.663 0 0 1 10.386 2.842.5.5 0 0 1-.684.73 9.616 9.616 0 0 0-9.481-2.6 10.334 10.334 0 0 0-5.965 16.355 22.714 22.714 0 0 0 2.222 2.4c.369.362.738.725 1.095 1.1.112.117.474.48.79.8l.5.506a.5.5 0 0 1-.357.849zm17.486 10.376a3.52 3.52 0 0 1-2.514-1.434.5.5 0 1 1 .742-.67c1.542 1.706 2.336 1 2.676.7a1.19 1.19 0 0 0 .408-.859 1.333 1.333 0 0 0-.409-.982L27.8 35.365a1.178 1.178 0 0 1-.056-1.891.891.891 0 0 1 .636-.343.923.923 0 0 1 .668.318q1.519 1.565 3.051 3.117l1.719 1.75q1.194 1.219 2.395 2.432a1.216 1.216 0 0 0 1.71.066 1.187 1.187 0 0 0 .411-.853 1.341 1.341 0 0 0-.421-.984l-6.821-6.817a3.15 3.15 0 0 1-.277-.29.984.984 0 0 1 .007-1.334 1.1 1.1 0 0 1 .8-.436 1.116 1.116 0 0 1 .843.375l4.456 4.457c.675.676 1.349 1.353 2.029 2.022a1.252 1.252 0 0 0 1 .366 1.232 1.232 0 0 0 .9-.535c.219-.32.627-.916-.9-2.513a.5.5 0 1 1 .723-.69c1.442 1.511 1.75 2.673 1 3.769a2.226 2.226 0 0 1-3.424.316c-.684-.671-1.359-1.35-2.036-2.029l-4.454-4.455a.453.453 0 0 0-.1-.079c-.006.01-.033.032-.072.078a.873.873 0 0 0 .2.261l2.335 2.332 4.494 4.5a2.331 2.331 0 0 1 .713 1.72 2.178 2.178 0 0 1-.745 1.569 2.216 2.216 0 0 1-3.085-.107q-1.207-1.212-2.4-2.437l-1.717-1.75q-1.488-1.514-2.97-3.033a.622.622 0 0 0-.117.182s0 .038.209.243l6.852 6.872a2.324 2.324 0 0 1 .7 1.718 2.186 2.186 0 0 1-.744 1.577 2.365 2.365 0 0 1-1.568.654z"/><path d="M40.788 34.562h-.03a.5.5 0 0 1-.247-.083.794.794 0 0 1-.555-.2L28.3 22.63a1.523 1.523 0 0 0-.185-.164 1.771 1.771 0 0 1-.157.158l-5.851 5.85a2.235 2.235 0 0 1-3.437-.008l-.241-.24a2.22 2.22 0 0 1 .009-3.293q3.639-3.646 7.282-7.285.322-.322.641-.65a36.954 36.954 0 0 1 1.547-1.52 10.906 10.906 0 0 1 11.4-2.511 10.844 10.844 0 0 1 7.611 8.854 10.919 10.919 0 0 1-3.12 9.935c-.625.647-1.167 1.184-1.766 1.776l-.891.884a.5.5 0 0 1-.354.146zm-.22-1.083l.089.009.672-.667a97.422 97.422 0 0 0 1.748-1.759A9.96 9.96 0 0 0 45.934 22a9.776 9.776 0 0 0-6.941-8.08 9.955 9.955 0 0 0-10.414 2.3c-.521.472-1.013.975-1.5 1.478-.216.22-.431.44-.648.657Q22.783 22 19.144 25.64a1.235 1.235 0 0 0 0 1.888l.2.2a1.275 1.275 0 0 0 2.057.04l5.851-5.85a1.059 1.059 0 0 1 1.756.005zm-20.159 8.177h-.021a2.206 2.206 0 0 1-1.566-.677 2.232 2.232 0 0 1 .042-3.152q2.013-2.029 4.042-4.041a2.167 2.167 0 0 1 2.43-.493 2.217 2.217 0 0 1 1.38 2.051 2.188 2.188 0 0 1-.646 1.58l-.463.465q-1.8 1.805-3.6 3.6a2.262 2.262 0 0 1-1.598.667zm4.037-7.541a1.165 1.165 0 0 0-.838.382q-2.027 2.007-4.036 4.034a1.241 1.241 0 0 0-.034 1.75 1.213 1.213 0 0 0 .859.374 1.313 1.313 0 0 0 .9-.379c1.207-1.189 2.4-2.391 3.6-3.592l.463-.465a1.177 1.177 0 0 0 .354-.872 1.207 1.207 0 0 0-.744-1.123 1.436 1.436 0 0 0-.524-.109zm-.768 10.809a2.232 2.232 0 0 1-1.562-3.814q1.869-1.9 3.767-3.763a2.114 2.114 0 0 1 2.451-.451 2.151 2.151 0 0 1 1.333 1.93v.025a2.237 2.237 0 0 1-.643 1.655l-.787.791q-1.484 1.49-2.978 2.97a2.25 2.25 0 0 1-1.581.657zM27.4 37.69a1.146 1.146 0 0 0-.816.371q-1.894 1.859-3.755 3.75a1.231 1.231 0 0 0-.013 1.748 1.211 1.211 0 0 0 1.743-.006q1.494-1.472 2.97-2.962l.787-.791a1.249 1.249 0 0 0 .352-.941 1.14 1.14 0 0 0-.733-1.047 1.34 1.34 0 0 0-.535-.122zm-10.384.689a.254.254 0 0 1-.051 0 2.225 2.225 0 0 1-1.448-3.723 111.15 111.15 0 0 1 3.133-3.136 2.221 2.221 0 0 1 3.15 3.126c-.991 1.033-2.013 2.038-3.033 3.042l-.095.093a2.208 2.208 0 0 1-1.656.598zm-.015-1h.015a1.21 1.21 0 0 0 .952-.311l.095-.093c1.014-1 2.028-1.994 3.014-3.021a1.222 1.222 0 0 0-1.731-1.716 110.494 110.494 0 0 0-3.105 3.108A1.228 1.228 0 0 0 17 37.379zM26.957 48.2a2.237 2.237 0 0 1-1.617-3.771c.773-.8 1.563-1.58 2.353-2.362l.565-.561a2.31 2.31 0 0 1 1.557-.614.4.4 0 0 1 .072 0 2.172 2.172 0 0 1 1.915 1.3 2.108 2.108 0 0 1-.358 2.405c-.942.992-1.951 2-3 3a2.139 2.139 0 0 1-1.487.603zm2.878-6.308a1.286 1.286 0 0 0-.873.323l-.566.562c-.784.777-1.568 1.554-2.337 2.347a1.222 1.222 0 0 0 .023 1.7 1.186 1.186 0 0 0 1.671.054 85.466 85.466 0 0 0 2.965-2.967 1.109 1.109 0 0 0 .17-1.312 1.169 1.169 0 0 0-1.053-.708z"/><path d="M30.126 48.216a3.284 3.284 0 0 1-1.666-.616c-.114-.071-.218-.136-.308-.181a.5.5 0 0 1-.133-.8l2.546-2.551a.521.521 0 0 1 .4-.145.5.5 0 0 1 .365.21 2.375 2.375 0 0 0 .162.188 2.057 2.057 0 0 1 .212 3.04 1.986 1.986 0 0 1-1.578.855zm-.944-1.343c.688.408 1.182.555 1.753-.151a1.007 1.007 0 0 0-.042-1.563z"/></g></svg>