<svg xmlns="http://www.w3.org/2000/svg" width="56" height="58" viewBox="0 0 56 58"><title>garantie-electromenager</title><path d="M28.988 18.038a1.386 1.386 0 1 1 1.387-1.386 1.388 1.388 0 0 1-1.387 1.386zm0-1.9a.509.509 0 1 0 .509.51.51.51 0 0 0-.509-.506zm3.346 1.9a1.386 1.386 0 1 1 1.387-1.386 1.388 1.388 0 0 1-1.387 1.386zm0-1.9a.509.509 0 1 0 .51.51.51.51 0 0 0-.51-.506zm3.349 1.892a1.386 1.386 0 1 1 1.388-1.386 1.388 1.388 0 0 1-1.388 1.386zm0-1.9a.509.509 0 1 0 .51.51.51.51 0 0 0-.51-.506zm-4.122 19.133a5.254 5.254 0 1 1 5.254-5.254 5.087 5.087 0 0 1-.077.856l-.018.1-.886-.394a4.335 4.335 0 0 1-.014-.563 4.26 4.26 0 1 0-4.26 4.26 4.215 4.215 0 0 0 2.45-.783l.055-.039.7.7-.074.055a5.192 5.192 0 0 1-3.13 1.062z"/><path d="M31.594 39.178a9.173 9.173 0 1 1 8.8-11.715 7.265 7.265 0 0 1 .254.939l.007.07-1 .233-.015-.083a8.174 8.174 0 1 0-8.05 9.562 8.07 8.07 0 0 0 3.292-.7l.069-.031.445.89-.075.034a9.033 9.033 0 0 1-3.727.801z"/><path d="M21.507 42.485a1.881 1.881 0 0 1-1.918-1.837v-24.8a1.881 1.881 0 0 1 1.918-1.837h20.172a1.881 1.881 0 0 1 1.921 1.833v11.922h-1v-8.4H20.583v21.282a.887.887 0 0 0 .924.843h20.756v.994zm21.181-24.116v-2.525a1 1 0 0 0-1.041-.96l-15.619-.005v3.49zm-17.5 0v-3.484H21.62a.928.928 0 0 0-1.04.96v2.524zm-6.673 17.796c-.31 0-.471-.2-.479-.6l-.009-.7-.679.676a.576.576 0 0 1-.405.2.5.5 0 0 1-.248-.07.427.427 0 0 1-.225-.312.576.576 0 0 1 .188-.476c.163-.167.329-.332.5-.5.243-.241.486-.482.72-.732a.633.633 0 0 0 .153-.37c.017-.291.014-.582.012-.9v-.26l-.271.157c-.4.228-.769.443-1.135.668-.04.024-.068.148-.08.2-.071.305-.318 1.43-.318 1.43-.1.466-.353.535-.491.535l-.113-.014c-.17-.041-.437-.191-.319-.736l.161-.75-.533.3a.722.722 0 0 1-.343.1.41.41 0 0 1-.388-.248.475.475 0 0 1 .25-.671l.654-.383s-1.117-.25-1.177-.266a.508.508 0 0 1-.327-.223.466.466 0 0 1-.03-.363.436.436 0 0 1 .438-.349.664.664 0 0 1 .136.015c.639.135 1.275.271 1.911.419a.837.837 0 0 0 .194.025.579.579 0 0 0 .324-.1c.257-.166.524-.317.812-.479l.248-.142-.243-.14a43.482 43.482 0 0 0-.934-.531h-.056a.556.556 0 0 0-.127.015l-1.793.382a.97.97 0 0 1-.2.023.461.461 0 0 1-.489-.364c-.063-.279.11-.5.466-.579.244-.057.935-.21.935-.21l-.677-.4a.715.715 0 0 1-.364-.408.417.417 0 0 1 .058-.327.409.409 0 0 1 .366-.216.892.892 0 0 1 .429.139l.721.411-.046-.225c-.055-.269-.106-.519-.163-.767a.461.461 0 0 1 .352-.622.574.574 0 0 1 .119-.018.455.455 0 0 1 .439.408l.124.565c.082.374.163.747.251 1.119a.376.376 0 0 0 .109.219c.281.176.569.339.882.517l.229.131v-.243c0-.306 0-.584-.009-.862a.449.449 0 0 0-.131-.249q-.6-.625-1.209-1.232c-.168-.167-.36-.424-.093-.732a.416.416 0 0 1 .319-.156.653.653 0 0 1 .447.228c.168.168.33.341.492.515l.227.242-.045-.2v-.664l-.006-.106a.514.514 0 0 1 .043-.321c.038-.057.238-.342.45-.345h.081v9.9z"/><path d="M9.437 42.485a1.684 1.684 0 0 1-1.717-1.646v-22.16a1.684 1.684 0 0 1 1.717-1.646H18.6v.983H9.62a.892.892 0 0 0-.925.854v2.061h9.9v.994H8.714v18.914a.69.69 0 0 0 .723.651H18.6v.994z"/><path d="M13.05 19.77a.4.4 0 1 1 0-.792h5.55v.792zm28.786 24.963v-.16.16zm-.03-.063v-.16.16zm0-.081zm.03.064zm.764 1.339a2.19 2.19 0 0 1-.487-.06 1.388 1.388 0 0 1-1.044-1.621.45.45 0 0 1 .442-.433.438.438 0 0 1 .438.438c0 .1.008.162 0 .22.021.3.112.51.5.559a1.189 1.189 0 0 0 .124.008.408.408 0 0 0 .455-.329 4.143 4.143 0 0 0 .13-1.01c.007-1.432.009-4.584.006-7.219v-.08h.95v.08c0 2.61 0 5.777-.01 7.406A3.543 3.543 0 0 1 43.956 45a1.355 1.355 0 0 1-1.356.992z"/><path d="M39.149 37.056a.46.46 0 0 1-.329-.174 2.078 2.078 0 0 0-1.73-1.076h-.007a1.787 1.787 0 0 0-1.391.565.434.434 0 0 1-.31.128.445.445 0 0 1-.2-.047.438.438 0 0 1-.233-.452 9.186 9.186 0 0 1 2.434-4.878 8.2 8.2 0 0 1 6.236-2.664 8.341 8.341 0 0 1 7.145 4 8.481 8.481 0 0 1 1.361 3.437.439.439 0 0 1-.711.409 2.038 2.038 0 0 0-1.354-.473h-.1a1.985 1.985 0 0 0-1.786.965.439.439 0 0 1-.735.006 2.158 2.158 0 0 0-1.36-.941 1.964 1.964 0 0 0-.4-.041 1.912 1.912 0 0 0-1.25.469 6.718 6.718 0 0 0-.331.319l-.845.023a2.673 2.673 0 0 0-1.736-.8h-.12a2.118 2.118 0 0 0-1.7.854 5.52 5.52 0 0 0-.127.181l-.065.075a.5.5 0 0 1-.318.126zm-2.024-2.244a2.849 2.849 0 0 1 2.063.944 3.08 3.08 0 0 1 2.21-.928h.146a3.064 3.064 0 0 1 2.027.911 1.973 1.973 0 0 1 .209-.21 2.9 2.9 0 0 1 2.5-.647 3.1 3.1 0 0 1 1.513.8 2.951 2.951 0 0 1 2.149-.849h.116a3.27 3.27 0 0 1 .819.1 7.538 7.538 0 0 0-.938-1.924 7.343 7.343 0 0 0-6.34-3.562 7.194 7.194 0 0 0-5.51 2.365 8.155 8.155 0 0 0-1.861 3.1 2.828 2.828 0 0 1 .771-.1z"/></svg>