<svg xmlns="http://www.w3.org/2000/svg" width="56" height="58" viewBox="0 0 56 58"><title>GABARIT SVG</title><path d="M51.49 30.85A5.81 5.81 0 0 0 47.43 25a.48.48 0 0 1-.17-.21c-.2-.95-.37-1.9-.54-2.85l-.11-.62A6.46 6.46 0 0 0 40 15.5c-2.37-.08-4.46-.09-6.41 0a7 7 0 0 0-7.14 6.1c-.18.93-.39 2-.55 3.13a.46.46 0 0 1-.35.46A5.65 5.65 0 0 0 22 29.35a5.71 5.71 0 0 0-.09.61h-3.45v-1.43c0-2.11-.89-3.05-3-3.14-1.3-.05-2.62-.05-3.88-.05h-1.51a1.19 1.19 0 0 0-.42.11.5.5 0 0 0-.35.48v1.47h-3c-1.58 0-1.76 1-1.77 1.41a1.28 1.28 0 0 0 .35 1 1.88 1.88 0 0 0 1.4.46h3v3.32H6a1.39 1.39 0 1 0-.11 2.77h3.42v1.46a.5.5 0 0 0 .5.5h5.38a5.23 5.23 0 0 0 1.29-.2 2.39 2.39 0 0 0 2-2.57V33.6H22a5.79 5.79 0 0 0 3 3.81.44.44 0 0 1 0 .18v.89A10.76 10.76 0 0 0 25 40a3.12 3.12 0 0 0 .7 1.82 2.4 2.4 0 0 0 1.78.76 3.54 3.54 0 0 0 1.33-.28 2.21 2.21 0 0 0 1.43-2.3v-1.71h12.62v1.92a2.36 2.36 0 0 0 2.58 2.38h.06a2.39 2.39 0 0 0 2.56-2.46v-2.26c0-.19 0-.23.26-.37a5.54 5.54 0 0 0 3.17-5.08v-1.15zm-9 .6a1.9 1.9 0 0 1 1.91-1.92 1.9 1.9 0 0 1 0 3.8 2.12 2.12 0 0 1-1.37-.54 1.88 1.88 0 0 1-.54-1.33zM29 24c.12-.73.23-1.43.39-2.13a4.15 4.15 0 0 1 4.37-3.51c1.35.06 2.73 0 4.07 0h2a3.54 3.54 0 0 1 3.88 3.19c.15.76.28 1.53.42 2.31l.19 1.1a.5.5 0 0 1-.49.59H29.3a.5.5 0 0 1-.49-.59c.06-.3.11-.62.19-.96zm1 8.78a1.88 1.88 0 0 1-1.33.55 1.94 1.94 0 0 1-1.38-.59 1.85 1.85 0 0 1-.53-1.33 1.92 1.92 0 0 1 1.9-1.88 1.92 1.92 0 0 1 1.37.56 1.88 1.88 0 0 1 .55 1.34 1.9 1.9 0 0 1-.66 1.37z"/></svg>