<svg xmlns="http://www.w3.org/2000/svg" viewBox="0 0 56 58"><style>.st0{fill:#e6e7e8}.st1{fill:#231f20}.st2{fill:none}.st3{fill-rule:evenodd;clip-rule:evenodd}.st4,.st5{stroke:#000;stroke-width:.2847;stroke-miterlimit:10}.st5{stroke-width:.4098}.st6{clip-path:url(#SVGID_3_)}.st7{clip-path:url(#SVGID_4_)}.st8{display:none}</style><path d="M28 19.3c3.5 0 6.4-3 6.4-6.7C34.4 9 31.5 6 28 6s-6.4 3-6.4 6.7c0 3.6 2.9 6.6 6.4 6.6zm0-10.4c2 0 3.6 1.7 3.6 3.7 0 2.1-1.6 3.7-3.6 3.7s-3.6-1.7-3.6-3.7S26 8.9 28 8.9zm0 13.7c-3.5 0-6.4 3-6.4 6.7S24.5 36 28 36s6.4-3 6.4-6.7-2.9-6.7-6.4-6.7zM28 33c-2 0-3.6-1.7-3.6-3.7 0-2.1 1.6-3.7 3.6-3.7s3.6 1.7 3.6 3.7S30 33 28 33zm0 5.7c-3.5 0-6.4 3-6.4 6.7s2.9 6.7 6.4 6.7 6.4-3 6.4-6.7-2.9-6.7-6.4-6.7zm0 10.4c-2 0-3.6-1.7-3.6-3.7 0-2.1 1.6-3.7 3.6-3.7s3.6 1.7 3.6 3.7-1.6 3.7-3.6 3.7z" id="GABARIT_SVG"/></svg>