<svg xmlns="http://www.w3.org/2000/svg" viewBox="0 0 56 58"><style>.st0{fill:#e6e7e8}.st1{fill:#231f20}.st2{fill:none}.st3{fill-rule:evenodd;clip-rule:evenodd}.st4,.st5{stroke:#000;stroke-width:.2847;stroke-miterlimit:10}.st5{stroke-width:.4098}.st6{clip-path:url(#SVGID_3_)}.st7{clip-path:url(#SVGID_4_)}.st8{display:none}</style><g id="GABARIT_SVG"><path d="M11.6 51.8c-3.3 0-6-2.7-6-6V18.2c0-3.3 2.7-6 6-6h5.6c.2 0 .3-.2.3-.3v-4c0-.9.7-1.7 1.7-1.7s1.7.7 1.7 1.7v4c0 .2.2.3.3.3h13.6c.2 0 .3-.2.3-.3v-4c0-.9.7-1.7 1.7-1.7s1.7.7 1.7 1.7v4c0 .2.2.3.3.3h5.6c3.3 0 6 2.7 6 6v27.6c0 3.3-2.7 6-6 6H11.6zM9.3 26.7c-.2 0-.3.1-.3.3v18.8c0 1.5 1.2 2.6 2.6 2.6h32.8c1.5 0 2.6-1.2 2.6-2.6V27c0-.2-.2-.3-.3-.3H9.3zm2.3-11.1c-1.5 0-2.6 1.2-2.6 2.6V23c0 .2.2.3.3.3h37.3c.2 0 .3-.2.3-.3v-4.8c0-1.5-1.2-2.6-2.6-2.6h-5.6c-.2 0-.3.2-.3.3v1.7c0 .9-.7 1.7-1.7 1.7s-1.7-.7-1.7-1.7v-1.7c0-.2-.2-.3-.3-.3H21.2c-.2 0-.3.2-.3.3v1.7c0 .9-.7 1.7-1.7 1.7s-1.7-.7-1.7-1.7v-1.7c0-.2-.2-.3-.3-.3h-5.6z"/><path d="M17.7 39.8c-3.1 0-5.6-2.5-5.6-5.5 0-3.1 2.5-5.5 5.6-5.5 3.1 0 5.5 2.5 5.5 5.6.1 3-2.4 5.4-5.5 5.4zm0-7.8c-1.2 0-2.2 1-2.2 2.3 0 1.2 1 2.3 2.2 2.3 1.2 0 2.2-1 2.2-2.3 0-1.3-1-2.3-2.2-2.3zm-2.3 13.3c-.9 0-1.7-.7-1.7-1.7s.7-1.7 1.7-1.7H20c.9 0 1.7.7 1.7 1.7s-.7 1.7-1.7 1.7h-4.6zm11 0c-.9 0-1.7-.7-1.7-1.7s.7-1.7 1.7-1.7h4.7c.9 0 1.7.7 1.7 1.7s-.7 1.7-1.7 1.7h-4.7zm0-9.3c-.9 0-1.7-.7-1.7-1.7s.7-1.7 1.7-1.7h4.7c.9 0 1.7.7 1.7 1.7S32 36 31.1 36h-4.7zm11.1 9.3c-.9 0-1.7-.7-1.7-1.7s.7-1.7 1.7-1.7h4.7c.9 0 1.7.7 1.7 1.7s-.7 1.7-1.7 1.7h-4.7zm0-9.3c-.9 0-1.7-.7-1.7-1.7s.7-1.7 1.7-1.7h4.7c.9 0 1.7.7 1.7 1.7s-.8 1.7-1.7 1.7h-4.7z"/></g></svg>