<svg xmlns="http://www.w3.org/2000/svg" viewBox="0 0 56 58"><title>GABARIT SVG</title><path d="M29 39.75c-5.93 0-10.76-6.44-11.21-12.14a3.23 3.23 0 0 1-2.54-2.86v-4c0-1.25 1.21-2.15 2-2.61v-3.39a7 7 0 0 1 6.79-7 21.19 21.19 0 0 1 7.21-1.5c5.16 0 8 3 8 8.5v3.09c2 .39 2 2 2 2.91v4a2.82 2.82 0 0 1-1.65 2.82c-.39 5.91-4.79 12.18-10.6 12.18zm2.25-31.5a19.53 19.53 0 0 0-6.61 1.42 1 1 0 0 1-.39.08 5 5 0 0 0-5 5v4a1 1 0 0 1-.59.91 3.07 3.07 0 0 0-1.41 1.1v4c0 .44.84 1 1.5 1a1 1 0 0 1 1 1c0 5 4.27 11 9.25 11s8.63-5.91 8.63-11a1 1 0 0 1 1-1c.41 0 .63-.34.63-1v-4c0-1 0-1-1-1a1 1 0 0 1-1-1v-4c-.01-4.38-1.97-6.51-6.01-6.51z"/><path d="M8.25 51.75a1 1 0 0 1-1-1c0-5.79 4.63-10 11-10h2.47l2.66-4A1 1 0 0 1 25 37.89l-3 4.42a1 1 0 0 1-.83.44h-3c-5.3 0-9 3.29-9 8a1 1 0 0 1-.92 1zm33.5-.5a1 1 0 0 1-1-1v-12a1 1 0 1 1 2 0v12a1 1 0 0 1-1 1z"/><path d="M47.75 45.25h-12a1 1 0 0 1 0-2h12a1 1 0 0 1 0 2z"/></svg>