<svg xmlns="http://www.w3.org/2000/svg" viewBox="0 0 56 58"><style>.st0{fill:#e6e7e8}.st1{fill:#231f20}.st2{fill:none}.st3{fill-rule:evenodd;clip-rule:evenodd}.st4,.st5{stroke:#000;stroke-width:.2847;stroke-miterlimit:10}.st5{stroke-width:.4098}.st6{clip-path:url(#SVGID_3_)}.st7{clip-path:url(#SVGID_4_)}.st8{display:none}</style><path d="M48.3 39.1v-20c0-.8-.7-1.5-1.5-1.5h-6c-.8 0-1.5.7-1.5 1.5s.7 1.5 1.5 1.5h4.5v19.3c0 .3 0 .7-.1 1.1v.2c0 .1 0 .3-.1.4-.1.2-.1.5-.2.8-.1.2-.2.4-.3.7v.1l-.1.2c-.1.1-.1.3-.2.4-.1.2-.2.4-.4.6-.1.1-.1.2-.2.3l-.2.2c-1.3 1.6-2.9 2.6-5 3H18.6c-.6 0-1-.1-1.5-.2s-1-.3-1.5-.5l-.2-.1c-.1-.1-.2-.1-.3-.2-.2-.1-.4-.2-.7-.4-.1-.1-.2-.1-.3-.2l-.1-.1h-.1c-.2-.2-.4-.3-.6-.5-.2-.2-.4-.3-.5-.5-.1-.1-.2-.2-.2-.3l-.2-.2c-.3-.4-.6-.8-.8-1.3-.3-.4-.5-.8-.6-1.4-.1-.2-.1-.5-.2-.7 0-.1 0-.2-.1-.4V20.6h4.6c.8 0 1.5-.7 1.5-1.5s-.7-1.5-1.5-1.5H9.2c-.8 0-1.5.7-1.5 1.5v20.8c0 2.4.8 4.7 2.1 6.6 1.5 2.1 3.7 3.6 6.2 4.2 1.2.3 2.4.3 3.4.3h17.5c.5 0 1 0 1.5-.1 2.6-.3 5-1.5 6.7-3.3 1.8-1.8 2.8-4.3 3.1-6.9.1-.6.1-1.1.1-1.6zM30.2 17.6h-4.4c-.8 0-1.5.7-1.5 1.5s.7 1.5 1.5 1.5h4.4c.8 0 1.5-.7 1.5-1.5s-.7-1.5-1.5-1.5zm-9.7 9.3c1.3 0 2.3-1 2.3-2.3 0-.6-.3-1.2-.7-1.6v-8.2c0-.2.1-.5.2-.7 0-.1.1-.2.1-.3l.1-.2v-.1l.3-.6c.1-.1.1-.2.2-.3l.2-.2c.3-.4.6-.7 1.1-1.1l.1-.1c.1-.1.2-.1.3-.2.2-.1.4-.3.7-.4l.2-.1h.1c.1 0 .2-.1.3-.1.2-.1.5-.1.8-.2.9-.2 1.9-.1 2.8.2.1 0 .2.1.3.1l.2.1h.1c.2.1.4.2.7.3.2.1.4.2.6.4l.1.1.3.3.5.5.1.1c.1.1.2.2.2.3.1.2.2.4.4.6.1.1.1.2.1.3v.1c0 .1.1.2.1.2.1.2.1.4.2.7 0 .1.1.2.1.4v7.8c-.4.4-.7 1-.7 1.6 0 1.3 1 2.3 2.3 2.3 1.3 0 2.3-1 2.3-2.3 0-.7-.3-1.4-.9-1.8V16c0-2.6-1.1-5-3-6.7-2-1.8-4.7-2.6-7.5-2.2-2.5.4-4.8 2-6.2 4.3-.7 1.1-1.1 2.4-1.2 3.8v7.5c-.5.4-.9 1.1-.9 1.8.4 1.3 1.4 2.4 2.7 2.4z" id="FILAIRES_x5F_1"/></svg>