<svg xmlns="http://www.w3.org/2000/svg" viewBox="0 0 58 58"><path d="M42.9 7.8H22.2v7.6c0 .3-.3.6-.6.6H14v34.3h30V7.8h-1.1zm-22 14.4h16.2c.3 0 .6.3.6.6s-.3.6-.6.6H20.9c-.3 0-.6-.3-.6-.6s.2-.6.6-.6zm0 3.1h16.2c.3 0 .6.3.6.6s-.3.6-.6.6H20.9c-.3 0-.6-.3-.6-.6 0-.4.2-.6.6-.6zm0 3.1h16.2c.3 0 .6.3.6.6s-.3.6-.6.6H20.9c-.3 0-.6-.3-.6-.6s.2-.6.6-.6zm6.9 7.6H21c-.3 0-.6-.3-.6-.6s.3-.6.6-.6h6.8c.3 0 .6.3.6.6 0 .2-.2.6-.6.6zm0-3.2H21c-.3 0-.6-.3-.6-.6s.3-.6.6-.6h6.8c.3 0 .6.3.6.6s-.2.6-.6.6zm9.4 11.7c-1.5 0-2.9-.6-3.8-1.6-.7-.8-1.2-1.8-1.3-3.3H31v-.9h1v-1.1h-1.1v-.9h1.2c.2-1.3.8-2.5 1.5-3.2.9-1 2.1-1.5 3.7-1.5 1.1 0 1.9.3 2.5.6l-.4 1.2c-.5-.3-1.2-.5-2.1-.5-1 0-1.8.3-2.5 1-.6.5-.9 1.4-1.1 2.3h5.2v.9h-5.4v1.1h5.4v.9h-5.3c.1 1.1.5 1.9 1 2.5.7.7 1.6 1.1 2.7 1.1s1.8-.4 2.2-.6l.3 1.2c-.5.4-1.4.8-2.6.8zM20.9 8.4l-6.2 6.2h6.2V8.4z"/></svg>