<svg xmlns="http://www.w3.org/2000/svg" viewBox="0 0 56 58"><style>.st0{fill:#e6e7e8}.st1{fill:#231f20}.st2{fill:none}.st3{fill-rule:evenodd;clip-rule:evenodd}.st4,.st5{stroke:#000;stroke-width:.2847;stroke-miterlimit:10}.st5{stroke-width:.4098}.st6{clip-path:url(#SVGID_3_)}.st7{clip-path:url(#SVGID_4_)}.st8{display:none}</style><path d="M27.8 42.6c1.2 0 2.2-1 2.2-2.2V17.3l8.9 8.9c.9.9 2.3.9 3.1 0 .9-.9.9-2.3 0-3.1L27.8 8.8 13.8 23c-.8.9-.8 2.3 0 3.1.9.8 2.3.8 3.1 0l8.6-8.8v23.1c.1 1.2 1.1 2.2 2.3 2.2zM8.3 47c0 1.2 1 2.2 2.2 2.2h34.9c1.2 0 2.2-1 2.2-2.2s-1-2.2-2.2-2.2H10.6c-1.3 0-2.3 1-2.3 2.2z" id="GABARIT_SVG"/></svg>