<svg xmlns="http://www.w3.org/2000/svg" viewBox="0 0 58 58"><path d="M34.4 42.9l2.2 2.2 7.4-7.4-7.2-7.2c-.6-.6-1.3-.9-2.2-.9L20 30.9h-.6c-.7 0-1.3.3-1.8.7-.5.4-.7 1.1-.7 1.7 0 1.4 1.1 2.5 2.5 2.5h10.4c.1 0 .3.1.4.1.2.2.2.5 0 .7-.1.1-.2.1-.4.1H19.4c-1.9 0-3.4-1.6-3.5-3.5 0-.9.4-1.8 1-2.5.3-.3.7-.5 1-.7 0-.1-.1-.1-.2-.1l-4-4c-1.2-1.2-3.2-1.2-4.4 0-1.2 1.2-1.2 3.2 0 4.4l8.8 9.7c.6.6 1.3.9 2.2.9l11.7 1c1 .1 1.8.4 2.4 1zm14.5-.7l-7.6 7.6c-.7.7-1.7.7-2.4 0l-1.4-1.4c-.7-.7-.7-1.7 0-2.4l7.6-7.6c.7-.7 1.7-.7 2.4 0l1.4 1.4c.6.6.7 1.7 0 2.4zM29.6 26.7c5.6-5.1 10.9-8.9 10.9-13 0-3.3-2.6-6-6-6-1.9 0-3.7.9-4.9 2.3-1.2-1.4-3-2.3-4.9-2.3-3.3 0-6 2.6-6 6 0 4.1 5.3 8 10.9 13z"/></svg>