<svg xmlns="http://www.w3.org/2000/svg" viewBox="0 0 58 56"><path d="M18.9 11.9h-7.6l7.6-7.6v7.6zM47 5.1v45.4c0 .8-.7 1.5-1.5 1.5H12c-.8 0-1.5-.7-1.5-1.5V13.4h9.1c.4 0 .8-.3.8-.8v-9h25.1c.8 0 1.5.7 1.5 1.5zM28 36.9c0-.4-.3-.8-.8-.8h-8.4c-.4 0-.8.3-.8.8 0 .4.3.8.8.8h8.4c.4-.1.8-.4.8-.8zm0-3.8c0-.4-.3-.8-.8-.8h-8.4c-.4 0-.8.3-.8.8 0 .4.3.8.8.8h8.4c.4-.1.8-.4.8-.8zm9.9 8.1c-.9.6-1.9 1-3 1s-2.2-.4-3-.9v6.2l3-1.5 3 1.5v-6.3zm.7-4.3c0-2.1-1.7-3.8-3.8-3.8-2.1 0-3.8 1.7-3.8 3.8 0 2.1 1.7 3.8 3.8 3.8 2.1 0 3.8-1.7 3.8-3.8zm.8-7.6c0-.4-.3-.8-.8-.8H18.9c-.4 0-.8.3-.8.8 0 .4.3.8.8.8h19.8c.4 0 .7-.4.7-.8zm0-3.8c0-.4-.3-.8-.8-.8H18.9c-.4 0-.8.3-.8.8 0 .4.3.8.8.8h19.8c.4 0 .7-.4.7-.8zm0-3.8c0-.4-.3-.8-.8-.8H18.9c-.4 0-.8.3-.8.8 0 .4.3.8.8.8h19.8c.4 0 .7-.3.7-.8zm0-3.7c0-.4-.3-.8-.8-.8H18.9c-.4 0-.8.3-.8.8 0 .4.3.8.8.8h19.8c.4-.1.7-.4.7-.8z"/></svg>