<svg xmlns="http://www.w3.org/2000/svg" viewBox="0 0 55.2 52"><path d="M3.6 51h-.2c-.9 0-1.6-.7-1.6-1.6v-47c0-.9.7-1.6 1.6-1.6h.2c.9 0 1.6.7 1.6 1.6v47c0 .9-.8 1.6-1.6 1.6z"/><path d="M1.8 49.4v-.2c0-.9.7-1.6 1.6-1.6h47c.9 0 1.6.7 1.6 1.6v.2c0 .9-.7 1.6-1.6 1.6h-47c-.9 0-1.6-.7-1.6-1.6zM15 44.3H9.4c-.6 0-1-.4-1-1v-24c0-.5.4-1 1-1H15c.6 0 1 .5 1 1v24c0 .6-.5 1-1 1zm10.1 0h-5.6c-.6 0-1-.4-1-1V10.1c0-.6.4-1 1-1h5.6c.6 0 1 .4 1 1v33.2c0 .6-.4 1-1 1zm10.2 0h-5.6c-.5 0-1-.4-1-1V24c0-.6.5-1 1-1h5.6c.5 0 1 .4 1 1v19.4c0 .5-.5.9-1 .9zm10.1 0h-5.6c-.5 0-1-.4-1-1V28.6c0-.5.5-1 1-1h5.6c.5 0 1 .5 1 1v14.8c0 .5-.4.9-1 .9z"/></svg>