<svg xmlns="http://www.w3.org/2000/svg" viewBox="0 0 56 58"><path d="M47.1 35.9l-.1-.2c-.6-1.1-2-1.6-3.2-1l-6.2 3.1c.1-.3.1-.5.1-.8 0-1.7-1.4-3.1-3.1-3.1h-5.9c-.9-1.9-2.8-3.1-4.9-3.2h-7.4v-1.3c0-.3-.2-.5-.5-.5H8.1c-.3 0-.5.2-.5.5v14c0 .3.2.5.5.5h7.7c.3 0 .5-.2.5-.5v-1.3l12.2 4.2c.9.4 1.8.5 2.8.3h.2l.3-.1C34 45.7 44 40.2 46.1 39c1.1-.6 1.6-2 1-3.1zm-31.8 7H8.6v-13h6.7v13zm31-5.5c-.1.3-.4.6-.7.8-4.8 2.6-12.4 6.7-14.1 7.4-.9.2-1.8.1-2.6-.2L16.3 41v-9.3h7.4c1.8.1 3.4 1.2 4.2 2.9.1.2.3.3.5.3h6.3c1.1 0 2.1.9 2.1 2.1 0 1.1-.9 2.1-2.1 2.1h-7.9c-.3 0-.5.2-.5.5s.2.5.5.5h7.9c1 .1 1.9-.3 2.6-1l6.9-3.5c.7-.3 1.5-.1 1.8.6l.1.2c.2.3.3.6.2 1zm-4.7-20.1c0-3.4-2.8-6.1-6.2-6-2.3 0-4.4 1.3-5.4 3.4-1.8-1.5-4.5-1.2-5.9.7-.5.6-.8 1.4-.9 2.2-2.7.1-4.7 2.4-4.6 5.1s2.4 4.7 5.1 4.6h15.9c2.9 0 5.2-2.3 5.2-5.2-.1-2.1-1.3-4-3.2-4.8zm-2.1 8.9H23.6c-2.1 0-3.9-1.7-3.9-3.9s1.7-3.9 3.9-3.9h.5V18c0-1.8 1.5-3.2 3.3-3.2.9 0 1.8.4 2.4 1.1l.6.6.3-.8c.9-2.7 3.7-4.2 6.4-3.3 2.2.7 3.6 2.7 3.6 5v.6l.3.1c2.2.8 3.3 3.1 2.6 5.3-.6 1.7-2.2 2.9-4.1 2.8z"/><path d="M31.3 21l-1.5 1.6v-4.3h-1v4.3L27.3 21l-.7.6 2.7 2.8 2.6-2.8zm4-4.3l-2.7 2.8.7.6 1.5-1.6v4.4h1v-4.4l1.5 1.6.6-.6z"/></svg>