<svg xmlns="http://www.w3.org/2000/svg" viewBox="0 0 58 56"><path d="M53.1 43.6H4.9c-.5 0-.8.3-.8.8 0 3.1 2.5 5.6 5.6 5.6h38.6c3.1 0 5.6-2.5 5.6-5.6.1-.5-.3-.8-.8-.8zM8.1 42h4.5V15.4h-1.3c-2.3 0-4 1.6-4 3.7v22.1c0 .5.3.8.8.8zm42.6-.8V19.1c0-2.1-1.8-3.7-4-3.7h-1.4V42h4.6c.5 0 .8-.3.8-.8zm-7-35c0-.7-.5-1.2-1.2-1.2H22.2v7.4c0 .3-.3.6-.6.6h-7.4v29h29.4V6.2zM21 19.1h15.9c.3 0 .6.3.6.6s-.3.6-.6.6H21c-.3 0-.6-.3-.6-.6s.2-.6.6-.6zm0 3.1h15.9c.3 0 .6.3.6.6s-.3.6-.6.6H21c-.3 0-.6-.3-.6-.6 0-.4.2-.6.6-.6zm0 3h15.9c.3 0 .6.3.6.6s-.3.6-.6.6H21c-.3 0-.6-.3-.6-.6s.2-.6.6-.6zm6.7 7.4H21c-.3 0-.6-.3-.6-.6s.3-.6.6-.6h6.7c.3 0 .6.3.6.6s-.2.6-.6.6zm0-3.1H21c-.3 0-.6-.3-.6-.6s.3-.6.6-.6h6.7c.3 0 .6.3.6.6s-.2.6-.6.6zM36.9 41c-1.5 0-2.8-.6-3.7-1.6-.7-.8-1.2-1.8-1.3-3.2h-1.1v-.9h1v-1.1h-1.1v-.9h1.2c.2-1.3.8-2.4 1.5-3.1.9-1 2.1-1.5 3.6-1.5 1.1 0 1.9.3 2.4.6l-.4 1.2c-.5-.3-1.2-.5-2.1-.5-1 0-1.8.3-2.4 1-.6.5-.9 1.4-1.1 2.3h5.1v.9h-5.3v1.1h5.3v.9h-5.2c.1 1.1.5 1.9 1 2.4.7.7 1.6 1.1 2.6 1.1s1.8-.4 2.2-.6l.3 1.2c-.4.3-1.3.7-2.5.7zM21 5.6l-6.1 6.1H21V5.6z"/></svg>