<svg xmlns="http://www.w3.org/2000/svg" viewBox="0 0 56 58"><path d="M53.8 30.1c0-1.1-.6-2.2-1.7-2.4-1.1-.2-1.1-.8-1.2-1.6-.8-6-3.6-10.8-8.6-14.3-7.3-5-15.2-6-23.6-3.3-5.6 1.8-9.8 5.4-12.5 10.6-1.3 2.5-2 5.2-2.4 8 0 .3-.1.4-.4.5-1.1.5-1.6 1.3-1.6 2.5v6.2c0 1.5 1.1 2.6 2.6 2.6h3.2V27.4H5.9c.2-1 .3-2 .6-2.9 1.5-6 5-10.5 10.7-13.2 5.1-2.4 10.6-2.9 16-1.6 7.9 1.8 13 6.7 15.2 14.4.3 1 .4 2.1.6 3.2-.4 0-.7 0-1 .1V39h1c-.6 3.6-4.3 6.9-8.2 7.7 0-.1-.1-.2-.1-.3-.4-1.1-.9-1.4-2.1-1.4h-5.2c-.7 0-1.1.3-1.5.8-.7 1.1-.8 2.8 0 3.9.4.5.9.8 1.5.8h5.2c1 0 1.6-.4 2-1.3.1-.2.3-.3.5-.4.8-.3 1.6-.4 2.3-.7 4-1.7 6.7-4.4 7.7-8.7.1-.3.1-.4.5-.5 1.4-.3 2.2-1.3 2.2-2.6v-6.2z"/><path d="M42.7 28.2c0-8.3-6.8-15-15.1-15s-15.1 6.7-15.1 15 6.8 15 15.1 15c8.3.1 15.1-6.7 15.1-15zM27.8 40c-5.9 0-10.7-4.8-10.7-10.7v-.6c.3 5.6 5 10.1 10.7 10.1 5.7 0 10.4-4.5 10.7-10.1v.6c0 5.9-4.8 10.7-10.7 10.7z"/></svg>