<svg xmlns="http://www.w3.org/2000/svg" viewBox="0 0 55.2 52"><path d="M52.4 10.1H11.9c-.6 0-1.3.3-1.7.8l-9 11.6c-.3.4-.4.8-.4 1.3v12.3c0 1.2 1 2.2 2.2 2.2h1.8c0-3.9 3.1-7 7-7s7 3.1 7 7h19.1c0-3.9 3.1-7 7-7s7 3.1 7 7h.6c1.2 0 2.2-1 2.2-2.2V12.3c-.1-1.2-1.1-2.2-2.3-2.2zm-30.9 15H5.2v-.5l7.8-10h8.4v10.5zM17 38.3c0 2.9-2.3 5.2-5.2 5.2s-5.2-2.3-5.2-5.2c0-2.9 2.3-5.2 5.2-5.2 2.7-.1 5.2 2.3 5.2 5.2zm33.1 0c0 2.9-2.3 5.2-5.2 5.2-2.9 0-5.2-2.3-5.2-5.2 0-2.9 2.3-5.2 5.2-5.2 2.9 0 5.2 2.3 5.2 5.2z"/></svg>