<svg xmlns="http://www.w3.org/2000/svg" viewBox="0 0 56 58"><path fill="none" d="M23.5 42.2H12.7c-.3 0-.6.3-.6.6s.3.6.6.6h10.8c.3 0 .6-.3.6-.6 0-.4-.3-.6-.6-.6zm-10.8-8.7h21.9c.3 0 .6-.3.6-.6s-.3-.6-.6-.6H12.7c-.3 0-.6.3-.6.6s.2.6.6.6zm4.1-14.8h16.4c.7 0 1.3-.6 1.3-1.3v-1.6c0-.7-.6-1.3-1.3-1.3H16.8c-.7 0-1.3.6-1.3 1.3v1.6c0 .7.6 1.3 1.3 1.3zm-4.1 4.9h21.9c.3 0 .6-.3.6-.6s-.3-.6-.6-.6H12.7c-.3 0-.6.3-.6.6s.2.6.6.6zm0 4.9h21.9c.3 0 .6-.3.6-.6s-.3-.6-.6-.6H12.7c-.3 0-.6.3-.6.6s.2.6.6.6zm10.8 8.7H12.7c-.3 0-.6.3-.6.6s.3.6.6.6h10.8c.3 0 .6-.3.6-.6s-.3-.6-.6-.6zm14.1-23.7h2.9L36 9v2.9c0 .4.2.8.4 1.1.4.3.8.5 1.2.5z"/><path d="M43 44.9H32.3c-.2 0-.4.2-.4.4v8.9c0 .2.2.4.4.4H43c.2 0 .4-.2.4-.4v-8.9c0-.3-.2-.4-.4-.4zm-5 4.2V51c0 .2-.2.4-.4.4s-.4-.2-.4-.4v-1.9c-.1-.1-.1-.2-.1-.3 0-.3.2-.5.5-.5s.5.2.5.5c0 .1 0 .2-.1.3zm3.5-4.2v-1.8c0-1.7 1.4-3.1 3.1-3.1 1.7 0 3.1 1.4 3.1 3.1v1.8h.7V43c0-2.1-1.7-3.9-3.9-3.9-2.1 0-3.9 1.7-3.9 3.9v1.8h.9z"/><path d="M42 36.1c2.4 0 4.7.7 6.6 1.9V11.3c0-.2-.1-.4-.2-.5l-7-7.1c-.1-.1-.3-.2-.5-.2H11.2C9.5 3.5 8 4.9 8 6.7v44.4c0 1.8 1.4 3.2 3.2 3.2h19c-.7-1.6-1.2-3.4-1.2-5.3.1-7.1 5.8-12.9 13-12.9zm-.7-30.5l5.2 5.2h-3.4c-.5 0-.9-.2-1.3-.5-.3-.3-.5-.8-.5-1.3V5.6zm-24 7.9c0-.8.7-1.5 1.5-1.5H38c.8 0 1.5.7 1.5 1.5v1.8c0 .8-.7 1.5-1.5 1.5H18.8c-.8 0-1.5-.7-1.5-1.5v-1.8zM14 21.1h25.6c.4 0 .7.3.7.7 0 .4-.3.7-.7.7H14c-.4 0-.7-.3-.7-.7 0-.4.3-.7.7-.7zm0 5.8h25.6c.4 0 .7.3.7.7 0 .4-.3.7-.7.7H14c-.4 0-.7-.3-.7-.7 0-.4.3-.7.7-.7zm0 5.8h25.6c.4 0 .7.3.7.7 0 .4-.3.7-.7.7H14c-.4 0-.7-.3-.7-.7 0-.4.3-.7.7-.7zm12.7 12.9H14c-.4 0-.7-.3-.7-.7 0-.4.3-.7.7-.7h12.6c.4 0 .7.3.7.7.1.4-.2.7-.6.7zm0-5.8H14c-.4 0-.7-.3-.7-.7 0-.4.3-.7.7-.7h12.6c.4 0 .7.3.7.7.1.4-.2.7-.6.7z"/></svg>