<svg xmlns="http://www.w3.org/2000/svg" viewBox="0 0 56 58"><style>.st0{fill:#e6e7e8}.st1{filter:url(#Adobe_OpacityMaskFilter)}.st2{fill:#fff}.st3{mask:url(#mask-2_1_)}.st3,.st4{fill:#343434}.st5{filter:url(#Adobe_OpacityMaskFilter_1_)}.st6{mask:url(#mask-4_1_);fill:#4a4a4a}.st7{filter:url(#Adobe_OpacityMaskFilter_2_)}.st8{mask:url(#mask-6_1_);fill:#343434}.st9{fill:#231f20}.st10{fill:none}.st11{fill-rule:evenodd;clip-rule:evenodd}.st12{fill:none;stroke:#1d1d1b;stroke-linecap:round;stroke-linejoin:round;stroke-miterlimit:10}.st13,.st14,.st15{stroke:#000;stroke-miterlimit:10}.st13{fill:none;stroke-linecap:round;stroke-linejoin:round}.st14{stroke-width:.2847}.st15{stroke-width:.4098}.st16{fill:#050505}.st17{fill:#45a1da}.st18,.st19{fill:#fff;stroke:#000;stroke-miterlimit:10}.st19{fill:none}.st20{clip-path:url(#SVGID_3_)}.st21{clip-path:url(#SVGID_4_)}.st22{display:none}</style><g id="FILAIRES_x5F_3"><g id="mensualisation_1_"><path d="M42 15.2h-2.8v-2.3c0-.3-.2-.5-.5-.5s-.5.2-.5.5v2.3H17.8v-2.3c0-.3-.2-.5-.5-.5s-.5.2-.5.5v2.3H14c-1.4 0-2.5 1.1-2.5 2.5v25.5c0 1.4 1.1 2.5 2.5 2.5h28c1.4 0 2.5-1.1 2.5-2.5V17.7c0-1.4-1.1-2.5-2.5-2.5zm-28 1h2.8v2.2c0 .3.2.5.5.5s.5-.2.5-.5v-2.2h20.4v2.2c0 .3.2.5.5.5s.5-.2.5-.5v-2.2H42c.8 0 1.5.7 1.5 1.5v4.2h-31v-4.2c0-.9.7-1.5 1.5-1.5zm28 28.5H14c-.8 0-1.5-.7-1.5-1.5V22.9h31v20.3c0 .8-.7 1.5-1.5 1.5z"/><path d="M36 44c-.3 0-.5-.2-.5-.5V24.1c0-.3.2-.5.5-.5s.5.2.5.5v19.4c0 .3-.3.5-.5.5z"/><path d="M41.7 30.6H30.3c-.3 0-.5-.2-.5-.5s.2-.5.5-.5h11.4c.3 0 .5.2.5.5s-.3.5-.5.5zm0 6.2H30.3c-.3 0-.5-.2-.5-.5s.2-.5.5-.5h11.4c.3 0 .5.2.5.5s-.3.5-.5.5zm-24.4-6.2H14c-.3 0-.5-.2-.5-.5s.2-.5.5-.5h3.4c.3 0 .5.2.5.5s-.3.5-.6.5zm0 6.2H14c-.3 0-.5-.2-.5-.5s.2-.5.5-.5h3.4c.3 0 .5.2.5.5s-.3.5-.6.5zm2.6-8.8c-.3 0-.5-.2-.5-.5v-3.4c0-.3.2-.5.5-.5s.5.2.5.5v3.4c0 .3-.3.5-.5.5zm0 16.1c-.3 0-.5-.2-.5-.5v-3.4c0-.3.2-.5.5-.5s.5.2.5.5v3.4c0 .3-.3.5-.5.5zM28 28c-.3 0-.5-.2-.5-.5v-3.4c0-.3.2-.5.5-.5s.5.2.5.5v3.4c0 .3-.2.5-.5.5zm0 16.1c-.3 0-.5-.2-.5-.5v-3.4c0-.3.2-.5.5-.5s.5.2.5.5v3.4c0 .3-.2.5-.5.5zm-3.9-4.9c-3 0-5.4-2.4-5.4-5.4s2.4-5.4 5.4-5.4c3 0 5.4 2.4 5.4 5.4s-2.4 5.4-5.4 5.4zm0-9.8c-2.4 0-4.4 2-4.4 4.4 0 2.4 2 4.4 4.4 4.4 2.4 0 4.4-2 4.4-4.4 0-2.4-1.9-4.4-4.4-4.4z"/><path d="M24.4 32c-.2 0-.4.1-.6.2-.1.2-.2.4-.3.7h1.2v.6h-1.2v.5h1v.6h-1c.1.3.2.5.3.6.2.1.3.2.6.2.2 0 .3 0 .5-.1.1 0 .3-.1.4-.1v.8c-.1-.1-.2 0-.3 0h-.5c-.5 0-.9-.1-1.2-.4-.3-.3-.5-.7-.6-1.2h-.4v-.6h.4v-.4h-.4v-.6h.4c0-.3.1-.5.2-.7.1-.2.2-.4.4-.5.2-.1.3-.3.5-.3.2-.1.4-.1.7-.1.2 0 .4 0 .6.1.2 0 .4.1.5.2l-.3.7c-.1-.1-.3-.1-.4-.2-.2.1-.3 0-.5 0z"/></g></g></svg>