<svg xmlns="http://www.w3.org/2000/svg" viewBox="0 0 55.2 52"><path fill="none" d="M40.3 6c0 .5.2.9.5 1.3.3.3.8.5 1.3.5h3.4l-5.2-5.3V6z"/><path d="M47.5 7.8L40.4.7c-.1-.1-.3-.2-.5-.2H10.1C8.3.5 6.9 1.9 6.9 3.7v44.7c0 1.8 1.4 3.2 3.2 3.2h34.4c1.8 0 3.2-1.4 3.2-3.2V8.3c0-.2 0-.4-.2-.5zm-31.3 2.7c0-.8.7-1.5 1.5-1.5H37c.8 0 1.5.7 1.5 1.5v1.8c0 .8-.7 1.5-1.5 1.5H17.8c-.8 0-1.5-.7-1.5-1.5v-1.8zm-3.3 7.7h25.7c.4 0 .7.3.7.7 0 .4-.3.7-.7.7H12.9c-.4 0-.7-.3-.7-.7 0-.4.3-.7.7-.7zm0 5.8h25.7c.4 0 .7.3.7.7s-.3.7-.7.7H12.9c-.4 0-.7-.3-.7-.7s.3-.7.7-.7zm0 5.8h25.7c.4 0 .7.3.7.7 0 .4-.3.7-.7.7H12.9c-.4 0-.7-.3-.7-.7 0-.4.3-.7.7-.7zm12.8 13H12.9c-.4 0-.7-.3-.7-.7 0-.4.3-.7.7-.7h12.7c.4 0 .7.3.7.7.1.4-.3.7-.6.7zm0-5.8H12.9c-.4 0-.7-.3-.7-.7 0-.4.3-.7.7-.7h12.7c.4 0 .7.3.7.7.1.4-.3.7-.6.7zM42 34.7l-7.3 10.6c-.1.2-.3.3-.5.3h-.1c-.2 0-.3-.1-.5-.2l-3.5-3.2c-.3-.3-.3-.7-.1-1 .3-.3.7-.3 1-.1l2.9 2.6 6.8-9.9c.2-.3.7-.4 1-.2.4.4.5.8.3 1.1zm.1-26.9c-.5 0-.9-.2-1.3-.5-.3-.3-.5-.8-.5-1.3V2.6l5.2 5.3-3.4-.1z"/></svg>