<svg xmlns="http://www.w3.org/2000/svg" viewBox="0 0 58 56"><path d="M45.8 36h-.1v-1.7c0-1.8-1.5-3.3-3.3-3.3s-3.3 1.5-3.3 3.3V36h-.2c-.8 0-1.4.4-1.4 1.2v3.7c0 .8.6 1.8 1.4 1.8h7c.8 0 1.6-.9 1.6-1.8v-3.7c-.2-.8-.9-1.2-1.7-1.2zM44 36h-3.3v-1.7c0-.9.8-1.7 1.7-1.7s1.7.7 1.7 1.7V36zm-2-11.7c-4.2 0-8 2-10.5 5H2.1v4.5c0 2 1 3.9 3 3.9h23.5C28.6 45 34.6 51 42 51s13.4-6 13.4-13.3c0-7.4-6-13.4-13.4-13.4zm0 23.6c-5.7 0-10.3-4.6-10.3-10.3 0-5.7 4.6-10.3 10.3-10.3 5.7 0 10.3 4.6 10.3 10.3.1 5.7-4.6 10.3-10.3 10.3zm5.3-38.1c0-2-1.1-3.9-3-3.9H5.1c-2 0-3 1.9-3 3.9v12.8h45.2V9.8zm-16.7 9.5h-3.3v-1.7h3.3v1.7zm5 0h-3.3v-1.7h3.3v1.7zm5 0h-3.3v-1.7h3.3v1.7z"/></svg>