<svg id="Calque_1" xmlns="http://www.w3.org/2000/svg" viewBox="0 0 58 58"><style>.st0{fill:none}</style><ellipse class="st0" cx="15.7" cy="27.2" rx=".6" ry=".6"/><path class="st0" d="M29.7 12.2V12h-.3c.1 0 .2.1.3.2zm-.7 5.4c-.5 0-.8-.4-.8-.8v-4.1c0-.3.2-.6.5-.7h-.5v6h1.5v-.7c-.2.2-.4.3-.7.3z"/><ellipse class="st0" cx="13.4" cy="27.2" rx=".6" ry=".6"/><path d="M20.1 35.9c-2.3.3-4.1 1.9-4.6 4.2 2.2-.6 3.8-.1 5.3.3 1.1.3 2.2.6 3.5.5v-3.5c-1-1.1-2.6-1.7-4.2-1.5zm.4 5.8c-1.5-.4-3-.8-5-.2.3 2.9 2.9 5 5.8 4.7 1.2-.1 2.3-.7 3.1-1.5v-2.4h-.6c-1.1-.1-2.2-.3-3.3-.6z"/><path d="M10.2 49.6c0 .4.3.7.7.7h13.6v-3.8c-1.1.7-2.3 1.1-3.7 1.1-3.6 0-6.6-3-6.6-6.6 0-3.6 2.9-6.6 6.6-6.6 1.4 0 2.6.4 3.7 1.1v-3.8H10.2v17.9zm37.3 1V22.5H25.8v28.1c0 1 .6 1.6 1.6 1.6h18.5c1 0 1.7-.6 1.6-1.6zM28.2 30.4v-6.1h1.5v6.1h-1.5zm-18-5.9v5.9h14.2v-6.6H10.8c-.3.1-.6.4-.6.7zm5.5 2c.4 0 .6.3.6.6 0 .4-.3.6-.6.6-.4 0-.6-.3-.6-.6s.3-.6.6-.6zm-2.3 0c.4 0 .6.3.6.6 0 .4-.3.6-.6.6-.4 0-.6-.3-.6-.6s.3-.6.6-.6zM47.5 9.6c.1-1-.6-1.6-1.6-1.6H27.4c-1 0-1.6.6-1.6 1.6v11.5h21.8V9.6zm-17.6 7.2c0 .2-.1.4-.2.5v.7h-1.5v-6.1h.5c.1 0 .2-.1.3-.1s.2 0 .3.1h.3v.2c.1.1.2.3.2.5v4.2z"/><path d="M29 11.9c-.1 0-.2 0-.3.1h.7c-.1-.1-.2-.1-.4-.1zm.7 5.4c.1-.1.2-.3.2-.5v-4.1c0-.2-.1-.4-.2-.5v5.1z"/></svg>