<svg xmlns="http://www.w3.org/2000/svg" viewBox="0 0 58 58"><path d="M41.8 24.8c2.7.4 3.6 2.6 3.6 4.5V47c0 3-2 5-5 5H16.9c-2.6 0-4.5-1.6-4.9-4.1V29.4c0-.9.2-1.7.6-2.5.6-1.1 1.5-1.8 2.7-2 .3 0 .4-.2.4-.5v-5.3c0-6.1 4.5-11.8 10.5-12.9 5.4-1 9.8.8 13.1 5.2 1.8 2.4 2.6 5.3 2.6 8.3v4.5c-.1.2-.1.4-.1.6zm-4.7 0v-5.6c0-.5-.1-1-.2-1.5-1.3-5.5-7.5-8.1-12.5-5.2-2.5 1.5-3.9 3.8-4 6.8-.1 1.7 0 3.4 0 5.2v.5c5.6-.2 11.1-.2 16.7-.2zm-8.4 6.7c-.4.1-.9.1-1.3.3-2.7 1-3.2 4.4-1 6.3.1.1.3.3.3.4 0 1.5-.1 3.1 0 4.6 0 1.2.9 2.1 2 2.1 1.2 0 2.1-.8 2.2-2 0-1.4.1-2.9 0-4.3 0-.4.1-.7.4-1 1.1-1 1.5-2.6.9-4s-2-2.3-3.5-2.4z"/></svg>