<svg xmlns="http://www.w3.org/2000/svg" viewBox="0 0 58 58"><path d="M13.7 34.2c-2 10.3 10.5 10.9 11.1 10.6-.3-11.8-10.3-11.3-11.1-10.6zm23.8-16.6c-.6-.4-4.7 3.7-5 3.7-.3 0-2.5-5.7-3-5.7s-2.6 5.7-2.8 5.7c-.2.1-4.6-4.3-5-4.1-.4.2-2.4 14.4 6.1 16.1V47c0 1.4.7 2.6 1.6 2.6h.3c.9 0 1.6-1.2 1.6-2.6V33.3c2.8-.7 8-3.7 6.2-15.7z"/><path d="M34.6 41.3c.7.6 9.5 1.1 9.9-9.4-.5-.3-11.6.2-9.9 9.4zm-7.9-27.2c0 .8-.7 1.4-1.5 1.4s-1.5-.6-1.5-1.4c0-.8.7-1.4 1.5-1.4.9 0 1.5.6 1.5 1.4zm8.4 0c0 .8-.7 1.4-1.5 1.4s-1.5-.6-1.5-1.4c0-.8.7-1.4 1.5-1.4.9 0 1.5.6 1.5 1.4zM31 9.8c0 .8-.7 1.4-1.5 1.4S28 10.6 28 9.8c0-.8.7-1.4 1.5-1.4.9 0 1.5.6 1.5 1.4z"/></svg>