<svg xmlns="http://www.w3.org/2000/svg" viewBox="0 0 58 58"><path d="M50 43.1H7.9c-.4 0-.7.3-.7.7 0 2.7 2.2 4.9 4.9 4.9h33.7c2.7 0 4.9-2.2 4.9-4.9.1-.5-.2-.7-.7-.7zm-39.3-1.4h3.9V18.4h-1.1c-2 0-3.5 1.4-3.5 3.2V41c0 .4.3.7.7.7zm37.2-.7V21.7c0-1.8-1.6-3.2-3.5-3.2h-1.2v23.2h4c.5 0 .7-.3.7-.7zm-6.1-30.6c0-.6-.4-1-1-1H23.1v6.5c0 .3-.3.5-.5.5h-6.5v25.3h25.7V10.4zM22 21.7h13.9c.3 0 .5.3.5.5s-.3.5-.5.5H22c-.3 0-.5-.3-.5-.5 0-.3.2-.5.5-.5zm0 2.7h13.9c.3 0 .5.3.5.5 0 .3-.3.5-.5.5H22c-.3 0-.5-.3-.5-.5 0-.4.2-.5.5-.5zm0 2.6h13.9c.3 0 .5.3.5.5 0 .3-.3.5-.5.5H22c-.3 0-.5-.3-.5-.5s.2-.5.5-.5zm5.9 6.5H22c-.3 0-.5-.3-.5-.5 0-.3.3-.5.5-.5h5.9c.3 0 .5.3.5.5s-.2.5-.5.5zm0-2.8H22c-.3 0-.5-.3-.5-.5 0-.3.3-.5.5-.5h5.9c.3 0 .5.3.5.5 0 .3-.2.5-.5.5zm8 10.1c-1.3 0-2.4-.5-3.2-1.4-.6-.7-1-1.6-1.1-2.8h-1v-.8h.9v-1h-1V34h1c.2-1.1.7-2.1 1.3-2.7.8-.9 1.8-1.3 3.1-1.3 1 0 1.7.3 2.1.5l-.3 1c-.4-.3-1-.4-1.8-.4-.9 0-1.6.3-2.1.9-.5.4-.8 1.2-1 2h4.5v.8h-4.6v1h4.6v.8h-4.5c.1 1 .4 1.7.9 2.1.6.6 1.4 1 2.3 1 .9 0 1.6-.3 1.9-.5l.3 1c-.5.2-1.3.6-2.3.6zM22 9.9l-5.3 5.3H22V9.9z"/></svg>