<svg id="Calque_1" xmlns="http://www.w3.org/2000/svg" viewBox="0 0 58 58"><style>.st0{fill:none}</style><path class="st0" d="M32.6 25.1l-.1-1.1-9.5 1.2.1 1.1zm-8.9 5.3l9.5-1.2-.1-1.1-9.5 1.2zM12.6 43.1l.2 1.6 33.6-4.3v-.1l-33.6 4.4z"/><path class="st0" d="M12.3 40.5l.3 2.6.2 1.6 33.6-4.4-.5-4.1z"/><path d="M43.1 27.2l5.8-15.9.8-2.3c.4-1-.2-2.2-1.2-2.6L47 5.8c-1-.4-2.2.2-2.6 1.2l-.8 2.3-5.8 15.9 5.3 2z"/><path d="M51.7 39.6L49.1 20c-.1-.8-.6-1.5-1.1-2l-3.8 10.3-.2.3-6 4.2-13.7 1.8-.1-1.1 13.6-1.8-1.4-5.7.1-.5 2.7-7.8-30.5 4c-1.8.2-2.9 2.1-2.7 3.9l2.5 19.6c.2 1.8 1.8 3 3.5 2.8l36.7-4.7c1.8-.3 3.2-1.9 3-3.7zM33.2 29.2l-9.5 1.2-.1-1.1 9.5-1.2.1 1.1zm-.7-5.2l.1 1.1-9.5 1.2-.1-1.1 9.5-1.2zm-21.7 9l-.1-1.3 2.5-.3c0-.2-.1-.4-.1-.7v-.2l-2.5.3-.1-1.3 2.9-.3c.6-2 2.5-3.5 4.7-3.5 1.1 0 2.2.4 3 1l-1 1c-.6-.4-1.2-.6-2-.6-1.3 0-2.5.8-3.1 1.8l2.1-.2.1 1.3-2.7.3v.3c0 .2 0 .3.1.5l2.7-.3.1 1.3-2.5.3c.6 1.1 1.7 1.8 3.1 1.8.9 0 1.8-.4 2.4-1l1 1c-.9.9-2.1 1.4-3.4 1.4-2.1 0-3.8-1.3-4.6-3.1l-2.6.5zm35.6 7.4l-33.6 4.3-.2-1.6-.3-2.6 33.6-4.3.5 4.2z"/><path d="M45.9 36.1l-33.6 4.4.3 2.6-.3-2.6 33.6-4.3.5 4.1z"/></svg>