<svg xmlns="http://www.w3.org/2000/svg" viewBox="0 0 58 58"><path d="M29 9.2c-10.8 0-19.8 9-19.8 19.8s9 19.8 19.8 19.8 19.8-9 19.8-19.8S39.8 9.2 29 9.2zm-10.1 16c0-1.8 1.4-3.2 3.2-3.2 1.8 0 3.1 1.5 3.1 3.2 0 .5-.4 1-1 1-.5 0-1-.4-1-1S22.6 24 22 24s-1.1.5-1.1 1.1c0 .5-.4 1-1 1-.6.1-1-.4-1-.9zm18.8 10.6c-1.8 3.1-5.1 4.8-8.7 4.8s-6.8-1.8-8.7-4.8c-.3-.5-.1-1 .4-1.3.5-.3 1-.1 1.3.4 1.5 2.4 4.1 4 7 4s5.5-1.5 7-4c.3-.5.9-.6 1.3-.4.5.2.6.7.4 1.3zm.5-9.6c-.5 0-1-.4-1-1S36.6 24 36 24s-1.1.5-1.1 1.1c0 .5-.4 1-1 1-.5 0-1-.4-1-1 0-1.8 1.4-3.2 3.2-3.2s3.2 1.4 3.2 3.2c-.2.6-.6 1.1-1.1 1.1z"/></svg>