<svg xmlns="http://www.w3.org/2000/svg" viewBox="0 0 58 58"><path d="M37.4 17.9c.9 0 1.6-.7 1.6-1.6v-5.2c0-.9-.7-1.6-1.6-1.6-.9 0-1.6.7-1.6 1.6v5.2c.1.9.8 1.6 1.6 1.6zm-28 28.4c0 1.2.9 2.1 2.1 2.1h35c1.2 0 2.1-.9 2.1-2.1V25.8H9.4v20.5zM41 30.7c1.5 0 2.7 1.2 2.7 2.7 0 1.5-1.2 2.7-2.7 2.7-1.5 0-2.7-1.2-2.7-2.7.1-1.5 1.3-2.7 2.7-2.7zm0 7.7c1.5 0 2.7 1.2 2.7 2.7 0 1.5-1.2 2.7-2.7 2.7-1.5 0-2.7-1.2-2.7-2.7.1-1.5 1.3-2.7 2.7-2.7zm-8-7.7c1.5 0 2.7 1.2 2.7 2.7 0 1.5-1.2 2.7-2.7 2.7-1.5 0-2.7-1.2-2.7-2.7.1-1.5 1.3-2.7 2.7-2.7zm0 7.7c1.5 0 2.7 1.2 2.7 2.7 0 1.5-1.2 2.7-2.7 2.7-1.5 0-2.7-1.2-2.7-2.7.1-1.5 1.3-2.7 2.7-2.7zm-8-7.7c1.5 0 2.7 1.2 2.7 2.7 0 1.5-1.2 2.7-2.7 2.7-1.5 0-2.7-1.2-2.7-2.7 0-1.5 1.2-2.7 2.7-2.7zm0 7.7c1.5 0 2.7 1.2 2.7 2.7 0 1.5-1.2 2.7-2.7 2.7-1.5 0-2.7-1.2-2.7-2.7 0-1.5 1.2-2.7 2.7-2.7zm-8-7.7c1.5 0 2.7 1.2 2.7 2.7 0 1.5-1.2 2.7-2.7 2.7-1.5 0-2.7-1.2-2.7-2.7 0-1.5 1.2-2.7 2.7-2.7zm0 7.7c1.5 0 2.7 1.2 2.7 2.7 0 1.5-1.2 2.7-2.7 2.7-1.5 0-2.7-1.2-2.7-2.7 0-1.5 1.2-2.7 2.7-2.7zm3.6-20.5c.9 0 1.6-.7 1.6-1.6v-5.2c0-.9-.7-1.6-1.6-1.6-.9 0-1.6.7-1.6 1.6v5.2c0 .9.7 1.6 1.6 1.6z"/><path d="M46.5 13.4h-5.6v2.9c0 1.9-1.5 3.4-3.4 3.4s-3.4-1.5-3.4-3.4v-2.9H24v2.9c0 1.9-1.5 3.4-3.4 3.4s-3.4-1.5-3.4-3.4v-2.9h-5.6c-1.2 0-2.1.9-2.1 2.1v8.6h39.2v-8.6c-.1-1.1-1.1-2.1-2.2-2.1z"/></svg>