<svg xmlns="http://www.w3.org/2000/svg" viewBox="0 0 58 58"><path d="M26.5 3.4zm25 24C50 17 41.4 9 30.8 8.2c-.1 0-.3-.1-.3-.3v-.5c0-.6-.4-1.2-1-1.3-.8-.2-1.5.5-1.5 1.2V8c0 .2-.1.3-.3.3C17.2 9 8.6 17 7.1 27.4c-.1.5.5.8.9.4.3-.4.8-.7 1.2-1 2-1.3 4.7-1.3 6.6.1.8.6 1.4 1.3 1.8 2 .2.4.7.4.9 0 .4-.8 1-1.4 1.7-1.9 1.7-1.2 4.7-1.3 6.4-.3.5.3 1 .6 1.3 1 .1.1.1.3.1.4v5.5c0 1.3 2.5 1.4 2.5-.1V28c0-.1.1-.3.1-.4.4-.4.8-.7 1.3-1 2-1.1 4.5-1 6.4.4.8.5 1.3 1.2 1.7 1.9.2.4.7.4.9 0 .4-.8 1.1-1.6 2.1-2.2 1.8-1.1 4-1.1 5.9-.2.6.4 1.2.8 1.7 1.3.3.4 1 .1.9-.4zM27.7 42.9c-.1-.3-1.1-2.3-1.6-3.1s-1.2-1.3-2.2-1.2h-2.8c-.6 0-1.1.2-1.5.6-.2.2-.4.5-.6.8-.3.6-.6 1.1-.9 1.7-.4.8-.8 1.7-1.2 2.5-.2.3-.2.7.1 1 .4.5 1.2.4 1.5-.2.4-.8.9-1.6 1.3-2.5.2-.4.4-.9.7-1.3V52c0 .5.4.8.9.9.6 0 1-.4 1-1v-5.5h.4v5.8c.1.6.7.9 1.3.7.4-.2.6-.5.6-1V41.3s1 1.9 1.6 3c.4-.6.8-1.2 1.4-1.4z"/><path d="M33.2 47c-.3-.6-1-2.1-1-2.1-.2-.4-.4-.7-.6-1.1-.2-.3-.6-.5-1-.5h-2.2c-.4 0-.8.2-1 .5-.2.2-.4.5-.5.8-.4.8-.8 1.6-1.1 2.4 0 .1-.1.1-.1.2-.1.3.1.6.4.7.3.1.6 0 .7-.3.4-.8.8-1.5 1.2-2.3 0-.1.1-.1.1-.2v7.1c0 .3.3.6.6.6.4 0 .6-.3.6-.7v-2.8h.3v2.8c0 .4.3.7.7.7.4 0 .6-.3.6-.7v-7c0 .1.9 1.9 1.2 2.5.2.4.5.5.8.3.4-.2.5-.5.3-.9zm2.9-8.9c1.2 0 2.2-.9 2.2-2 0-1.2-.9-2.1-2.1-2.1-1.2-.1-2.2.9-2.2 2 0 1.2 1 2.2 2.1 2.1zm-13.4 0c1.2 0 2.1-1 2.1-2.1 0-1.2-1-2.1-2.1-2.1-1.2 0-2.1.9-2.1 2.1s.9 2.1 2.1 2.1zm6.7 5c.8 0 1.4-.6 1.4-1.4s-.6-1.4-1.4-1.4c-.8 0-1.4.6-1.4 1.4 0 .8.7 1.4 1.4 1.4z"/><path d="M33.1 45.7c.2.4.4.9.6 1.3.3.6.1 1.1-.4 1.3h.7v3.6c0 .6.4 1 1 1 .5 0 .9-.4.9-1v-3.5h.4V52c0 .5.4.9.9 1 .6 0 1-.4 1-1v-3.6h1.5c-.5-2.4-1-4.7-1.5-7 0 0 2 3.8 2.1 3.9.3.3.8.4 1.1.2.4-.2.5-.7.3-1.1-.3-.7-.7-1.4-1-2.1l-1.2-2.4c-.5-.9-1.2-1.3-2.2-1.3h-2.7c-.6 0-1.1.2-1.5.7-.2.3-1.9 3.5-2 3.7.8.2 1.3 1.3 1.3 1.3.5-1 1.6-2.9 1.6-2.9l-.9 4.3"/></svg>