<svg xmlns="http://www.w3.org/2000/svg" viewBox="0 0 58 58"><path d="M36.6 28.7zm-18 10.8s-5.9.1-5.9-1.4v1.1c0 1.5 5.9 1.4 5.9 1.4s5.9.1 5.9-1.4v-1.1c0 1.5-5.9 1.4-5.9 1.4zm-7.7-7.2c3.2.7 7.7.5 7.7.5s11 .3 11-2.7V12.5c0-2.9-10.9-2.6-10.9-2.6s-4.5-.1-7.7.6c-1.8.4-3.3 1-3.3 2.1v17.6c-.1 1.1 1.4 1.7 3.2 2.1zm4.5-16.2c0-.4.3-.6.6-.6h5.1c.4 0 .6.3.6.6v2.8c0 .4-.3.6-.6.6H16c-.4 0-.6-.3-.6-.6v-2.8z"/><path d="M10.9 9.1c3.2-.7 7.7-.6 7.7-.6s10.9-.2 10.9 2.7v-3c0-1.5-2.2-2.4-4.7-2.9-2.3-.5-4.9-.6-6.2-.6-1.4 0-4 .1-6.3.6-.5.1-1 .2-1.4.3-1.8.6-3.3 1.4-3.3 2.6v3c0-1.1 1.5-1.7 3.3-2.1zm28.2 20.7c-.1 0-.1-.1-.1-.1v-.3c0-.3-.2-.7-.6-.7-.5-.1-.8.2-.8.7v.3c0 .1-.1.2-.1.2-3.1.2-5.8 1.5-7.9 3.6-1 1-1.8 2.1-2.4 3.4-.5 1.1-.9 2.2-1 3.4 0 .3.3.5.5.2.2-.2.4-.4.7-.6 1.1-.7 2.5-.7 3.6 0 .5.3.8.7 1 1.1.1.2.4.2.5 0 .2-.4.5-.8.9-1 .9-.7 2.5-.7 3.5-.2.3.2.5.3.7.6.1.1.1.1.1.2v9.6c0 .8-.6 1.6-1.4 1.7-1 .2-1.9-.6-1.9-1.6 0-.3-.2-.7-.6-.7-.4-.1-.8.3-.8.7 0 1.7 1.5 3.1 3.2 3 1.6-.1 2.8-1.5 2.8-3.1v-9.6c0-.1 0-.1.1-.2.2-.2.5-.4.7-.6 1.1-.6 2.5-.6 3.5.2.4.3.7.7.9 1 .1.2.4.2.5 0 .2-.5.6-.9 1.1-1.2 1-.6 2.2-.6 3.2-.1.3.2.7.5.9.7.2.2.5 0 .5-.2-.9-5.6-5.6-10-11.3-10.4zm-11.9 3.6c-3.2.9-8.6.8-8.6.8s-4.4.1-7.7-.6c-1.8-.4-3.3-1-3.3-2.1v3c0 1.2 1.4 2 3.3 2.6.6.2 1.2.3 1.9.4 2.2.4 4.5.5 5.8.5 1.3 0 3.6-.1 5.8-.5.3 0 .5-.1.8-.1.4-1.4 1-2.7 2-4-.1.1 0 .1 0 0z"/></svg>