<svg id="Calque_1" xmlns="http://www.w3.org/2000/svg" viewBox="0 0 58 58"><style>.st0{fill:none}</style><path class="st0" d="M42.5 25.9c-1.7 0-3.1 1.4-3.1 3.1s1.4 3.1 3.1 3.1c1.7 0 3.1-1.4 3.1-3.1s-1.3-3.1-3.1-3.1zm0 4.1c-.6 0-1-.5-1-1 0-.6.5-1 1-1 .6 0 1 .5 1 1 .1.6-.4 1-1 1zm4.3 10.5H54v-7.2 7.2zM55.4 29L54 27.6v2.7zm-41-3.1c-1.7 0-3.1 1.4-3.1 3.1s1.4 3.1 3.1 3.1 3.1-1.4 3.1-3.1-1.4-3.1-3.1-3.1zm0 4.1c-.6 0-1-.5-1-1 0-.6.5-1 1-1s1 .5 1 1c0 .6-.4 1-1 1zm-3.3-12.5h.1-7.3v7.2H4v-7.2zM4 30.3v-2.6L2.6 29zm50-5.6h.1v-7.2h-7.2H54z"/><circle cx="14.4" cy="29" r="1"/><circle cx="42.5" cy="29" r="1"/><path d="M4 17.5v7.2l7.1-7.2zm50 23v-7.2l-7.2 7.2zm0-23h-7.1l7.1 7.2zM4 33.3v7.2h7.2z"/><circle class="st0" cx="42.5" cy="29" r="3.1"/><circle class="st0" cx="14.4" cy="29" r="3.1"/><path d="M52.6 26.2L45.4 19l-1.5-1.5H14.1L12.6 19l-7.2 7.2L4 27.7v2.6l1.5 1.5 7.2 7.2 1.5 1.5H44l1.5-1.5 7.2-7.2 1.5-1.5v-2.7l-1.6-1.4zm-38.2 5.9c-1.7 0-3.1-1.4-3.1-3.1 0-1.7 1.4-3.1 3.1-3.1s3.1 1.4 3.1 3.1c0 1.7-1.4 3.1-3.1 3.1zm19-4.9v1.1h-6.6v1.4h6.6v1.1H27c.1 1.4.6 2.4 1.2 3 .9.9 2 1.4 3.2 1.4 1.2 0 2.2-.5 2.7-.7l.4 1.5c-.5.4-1.6.9-3.1.9-1.9 0-3.5-.7-4.6-2-.9-1-1.5-2.2-1.6-4h-1.4v-1.1H25v-1.4h-1.4v-1.1h1.5c.2-1.6 1-3 1.9-3.8 1.1-1.2 2.6-1.9 4.5-1.9 1.4 0 2.4.4 3 .7l-.5 1.4c-.6-.4-1.5-.6-2.6-.6-1.2 0-2.2.4-3 1.2-.7.6-1.1 1.7-1.4 2.8h6.4zm9.1 4.9c-1.7 0-3.1-1.4-3.1-3.1 0-1.7 1.4-3.1 3.1-3.1 1.7 0 3.1 1.4 3.1 3.1.1 1.7-1.3 3.1-3.1 3.1z"/></svg>