<svg xmlns="http://www.w3.org/2000/svg" viewBox="0 0 58 58"><path d="M34.3 15.5c-1.1-.6-1.7-1.8-1.7-3 0-2-1.6-3.6-3.5-3.6s-3.5 1.6-3.5 3.6c0 1.3-.7 2.4-1.7 3-7.8 4.5-3.3 19.6-11.5 22.3v2.9h33.5v-2.9c-8.3-2.7-3.8-17.7-11.6-22.3zM29 10.6c.9 0 1.7.8 1.7 1.7 0 .9-.8 1.7-1.7 1.7s-1.7-.8-1.7-1.7c0-1 .8-1.7 1.7-1.7zm5 33.5c0 2.7-2.3 5-5 5s-5.1-2.3-5.1-5H34zm8.4-21c-.4-2.5-1.6-6.2-4.7-9.2l2.3-2.4c3 2.9 5 6.8 5.7 11.1l-3.3.5zm-30.2-.5c.7-4.3 2.7-8.2 5.7-11.1l2.3 2.4c-3.2 3.1-4.3 6.7-4.7 9.2l-3.3-.5z"/></svg>