<svg xmlns="http://www.w3.org/2000/svg" viewBox="0 0 200 200"><path d="M180 71.9V61.5h-5.5v-7.9c0-5.6-3.4-10.2-7.5-10.2s-7.5 4.5-7.5 10.2v7.9h-8.7v-7.9c0-5.6-3.4-10.2-7.5-10.2s-7.5 4.5-7.5 10.2v7.9h-8.7v-7.9c0-5.6-3.4-10.2-7.5-10.2s-7.5 4.5-7.5 10.2v7.9H104v-7.9c0-5.6-3.4-10.2-7.5-10.2S89 47.9 89 53.6v7.9h-8.4v-7.9c0-5.6-3.4-10.2-7.5-10.2s-7.5 4.5-7.5 10.2v7.9h-8.4v-7.9c0-5.6-3.4-10.2-7.5-10.2s-7.5 4.5-7.5 10.2v7.9h-6.6v10.4h6.6v52.7h-1.7c-.7 0-1.2.5-1.2 1.2v4.3h-6.7c-.1-1-.9-1.8-2-2v-4.7h5c1 0 1.9-.8 1.9-1.9 0-1-.8-1.9-1.9-1.9H22c-1 0-1.9.8-1.9 1.9 0 1 .8 1.9 1.9 1.9h5v4.7c-1 .1-1.8.9-2 2h-5v5.3h5c.1 1.1 1.1 2 2.2 2h3.3c1.2 0 2.1-.9 2.2-2h6.7v4.3c0 .7.5 1.2 1.2 1.2h1.7v5.5c0 5.6 3.4 10.2 7.5 10.2s7.5-4.5 7.5-10.2v-9h8.4v9c0 5.6 3.4 10.2 7.5 10.2s7.5-4.5 7.5-10.2v-9h8.4v9c0 5.6 3.4 10.2 7.5 10.2s7.5-4.5 7.5-10.2v-9h8.1v9c0 5.6 3.4 10.2 7.5 10.2s7.5-4.5 7.5-10.2v-9h8.7v9c0 5.6 3.4 10.2 7.5 10.2s7.5-4.5 7.5-10.2v-9h8.7v9c0 5.6 3.4 10.2 7.5 10.2s7.5-4.5 7.5-10.2v-9h5.4V127h-5.4V71.9h5.4zM57.4 127V71.9h8.4V127h-8.4zm23.3 0V71.9h8.4V127h-8.4zm23.4 0V71.9h8.1V127h-8.1zm23.1 0V71.9h8.7V127h-8.7zm32.3 0h-8.7V71.9h8.7V127z"/></svg>