<svg xmlns="http://www.w3.org/2000/svg" viewBox="0 0 200 200"><path d="M175.9 163.2H24.1v-9.5h151.8v9.5zM50.6 133.9S2.4 112 36 81.6C66.6 53.9 41.7 37 41.7 37s30.4 12.2 14.7 40.1c-10.2 18.3-26 26.8-5.8 56.8zm37.9 0S40.3 112 73.9 81.6C104.5 53.9 79.6 37 79.6 37S110 49.2 94.4 77.1c-10.2 18.3-26.1 26.8-5.9 56.8zm38.4-.2s-48.2-21.9-14.6-52.3c30.6-27.7 5.7-44.6 5.7-44.6S148.4 49 132.8 77c-10.2 18.2-26.1 26.7-5.9 56.7zm38.5 0s-48.2-21.9-14.6-52.3c30.6-27.7 5.7-44.6 5.7-44.6S186.8 49 171.2 77c-10.2 18.2-26.1 26.7-5.8 56.7z"/></svg>