<svg xmlns="http://www.w3.org/2000/svg" viewBox="0 0 200 200"><path d="M137.7 53.2c-1-.9-2.2-1.3-3.4-1.3-1.2 0-2.4.5-3.3 1.5l-54.4 58.2c-1.8 1.9-1.7 5 .2 6.8 1.9 1.8 5 1.7 6.8-.2L137.9 60c1.8-2 1.7-5-.2-6.8zm-37.8 5.1l-4.5-4.1c-1.9-1.8-5-1.7-6.8.2l-1.9 2.1c-1.8-1.7-3.8-3.4-6-5.1-8.9-7-21-14.5-35-14.5h-1.4c-13.1.4-24.7 4.9-32.3 14.5-.6.8-.8 1.2-1.9 2.9 4 4 8.4 8 10.7 10.3.9-1.7 1.8-2.9 2.8-4.2 4.6-5.8 10.9-8.6 21.2-8.9 8.8-.3 19 5.2 26.8 11.3 1.9 1.5 3.6 2.9 5.1 4.3l-2.1 2.3c-1.8 1.9-1.7 5 .2 6.8l4.4 4.2c-5.7 10.3-7.4 20.8-4.5 28.4l53.1-56.9c-7.7-2.5-18 0-27.9 6.4zm6.537 100.916c-.064.068-.06.184 0 .256.627.697.798 2.343 1.036 4.036.24 1.692.572 3.473 1.72 4.466 1.798 1.681 4.635 1.586 6.349-.247 1.713-1.833 1.617-4.67-.181-6.351-1.069-1.079-2.868-1.29-4.573-1.415-1.713-.132-3.358-.184-4.096-.762-.076-.071-.191-.051-.255.017zm11.85-12.676c-.064.068-.06.183 0 .255.626.697.797 2.343 1.036 4.036.239 1.693.571 3.473 1.72 4.466 1.798 1.682 4.635 1.586 6.349-.247s1.617-4.67-.182-6.351c-1.068-1.079-2.867-1.29-4.572-1.415-1.713-.132-3.358-.184-4.096-.762-.077-.071-.191-.05-.255.017zm11.85-12.677c-.064.068-.06.183 0 .256.626.697.797 2.342 1.036 4.035s.571 3.473 1.72 4.466c1.798 1.682 4.635 1.586 6.348-.247 1.714-1.832 1.618-4.67-.18-6.35-1.07-1.08-2.868-1.291-4.573-1.415-1.714-.133-3.358-.184-4.096-.762a.19.19 0 0 0-.255.017zm11.849-12.677c-.063.068-.06.183 0 .256.627.697.798 2.342 1.037 4.035.238 1.693.57 3.473 1.719 4.467 1.799 1.681 4.636 1.586 6.35-.247 1.712-1.833 1.617-4.67-.182-6.352-1.068-1.078-2.867-1.29-4.572-1.414-1.714-.132-3.359-.184-4.096-.762a.198.198 0 0 0-.256.017zm11.842-12.668c-.064.068-.06.183 0 .256.627.697.798 2.342 1.037 4.035.238 1.693.57 3.473 1.719 4.466 1.799 1.682 4.636 1.586 6.349-.247s1.618-4.67-.181-6.35c-1.069-1.08-2.867-1.291-4.572-1.415-1.714-.133-3.359-.184-4.096-.762-.077-.072-.192-.052-.256.017zm11.85-12.678c-.064.069-.06.184 0 .257.627.697.798 2.342 1.036 4.035.239 1.693.572 3.473 1.72 4.467 1.798 1.681 4.635 1.585 6.349-.247 1.713-1.833 1.617-4.67-.181-6.352-1.069-1.078-2.868-1.29-4.573-1.414-1.713-.132-3.358-.184-4.096-.762a.19.19 0 0 0-.255.017zm11.85-12.676c-.064.068-.06.184 0 .256.626.697.797 2.343 1.036 4.035.239 1.693.571 3.474 1.72 4.467 1.798 1.681 4.635 1.586 6.348-.247 1.714-1.833 1.618-4.67-.18-6.351-1.07-1.08-2.868-1.29-4.573-1.415-1.713-.132-3.358-.184-4.096-.762a.198.198 0 0 0-.255.017zM97.64 139.115c-.064.068-.06.183 0 .256.626.697.797 2.342 1.036 4.035s.571 3.473 1.72 4.467c1.798 1.681 4.635 1.585 6.348-.247 1.714-1.833 1.618-4.67-.18-6.352-1.07-1.078-2.868-1.29-4.573-1.414-1.713-.132-3.358-.184-4.096-.762-.068-.064-.192-.051-.255.017zm11.85-12.677c-.064.068-.06.184 0 .256.626.697.797 2.343 1.036 4.035.239 1.693.571 3.474 1.72 4.467 1.798 1.681 4.635 1.586 6.348-.247 1.714-1.833 1.618-4.67-.18-6.352-1.07-1.078-2.868-1.29-4.573-1.414-1.714-.132-3.358-.184-4.096-.762-.076-.055-.192-.051-.255.017zm11.85-12.677c-.064.068-.06.184 0 .256.626.697.797 2.343 1.036 4.036.238 1.692.57 3.473 1.719 4.466 1.799 1.682 4.636 1.586 6.35-.247s1.617-4.67-.182-6.351c-1.068-1.079-2.867-1.29-4.572-1.415-1.714-.132-3.359-.184-4.096-.762-.077-.055-.2-.042-.256.017zm11.841-12.668c-.064.068-.06.184 0 .256.627.697.798 2.343 1.036 4.035.24 1.693.572 3.474 1.72 4.467 1.799 1.681 4.636 1.586 6.349-.247 1.713-1.833 1.618-4.67-.181-6.352-1.069-1.078-2.867-1.29-4.572-1.414-1.714-.132-3.359-.184-4.097-.762-.068-.064-.191-.051-.255.017zm11.849-12.677c-.063.068-.059.184.001.256.626.697.798 2.343 1.036 4.036.239 1.692.571 3.473 1.72 4.466 1.798 1.682 4.635 1.586 6.349-.247s1.617-4.67-.181-6.351c-1.069-1.079-2.868-1.29-4.573-1.415-1.713-.132-3.358-.184-4.096-.762-.076-.055-.191-.051-.255.017zm11.85-12.676c-.063.068-.06.183.001.255.626.698.797 2.343 1.036 4.036.239 1.693.571 3.473 1.72 4.466 1.798 1.682 4.635 1.586 6.348-.247s1.618-4.67-.18-6.351c-1.07-1.079-2.868-1.29-4.573-1.415-1.713-.132-3.358-.184-4.096-.761-.076-.056-.192-.052-.255.016zm-68.03 43.281c-.063.069-.059.184.001.256.626.697.798 2.343 1.036 4.036.239 1.693.571 3.473 1.72 4.466 1.798 1.682 4.635 1.586 6.349-.247 1.713-1.833 1.617-4.67-.181-6.351-1.069-1.079-2.868-1.29-4.573-1.415-1.713-.132-3.358-.184-4.096-.762a.19.19 0 0 0-.255.017zm11.85-12.676c-.063.068-.06.183.001.256.626.697.797 2.342 1.036 4.035s.571 3.473 1.72 4.466c1.798 1.682 4.635 1.586 6.348-.247 1.714-1.832 1.618-4.67-.18-6.35-1.07-1.08-2.868-1.291-4.573-1.415-1.713-.133-3.358-.184-4.096-.762a.198.198 0 0 0-.255.017zm11.85-12.677c-.063.068-.06.183 0 .256.627.697.798 2.342 1.037 4.035.239 1.693.571 3.473 1.72 4.467 1.798 1.681 4.635 1.586 6.348-.247 1.714-1.833 1.618-4.67-.18-6.352-1.07-1.078-2.868-1.29-4.573-1.414-1.714-.132-3.358-.184-4.096-.762a.198.198 0 0 0-.256.017zM124.392 81c-.063.068-.06.183 0 .256.627.697.798 2.342 1.037 4.035.238 1.693.57 3.473 1.719 4.466 1.799 1.682 4.636 1.586 6.349-.247 1.713-1.833 1.618-4.67-.181-6.35-1.069-1.08-2.867-1.291-4.572-1.415-1.714-.133-3.359-.184-4.096-.762-.077-.072-.192-.052-.256.017zm11.85-12.677c-.064.068-.06.183 0 .256.627.697.798 2.342 1.036 4.035.24 1.693.572 3.473 1.72 4.467 1.799 1.681 4.635 1.585 6.349-.247 1.713-1.833 1.617-4.67-.181-6.352-1.069-1.078-2.868-1.29-4.572-1.414-1.714-.132-3.359-.184-4.097-.762a.19.19 0 0 0-.255.017z"/></svg>