<svg id="Calque_1" data-name="Calque 1" xmlns="http://www.w3.org/2000/svg" viewBox="0 0 58 58"><defs><style>.cls-1{fill-rule:evenodd}</style></defs><title>Plan de travail 1</title><g id="Guide-de-style"><path class="cls-1" d="M35.59 21H32a1 1 0 0 1 0-2h6a1 1 0 0 1 1 1v6a1 1 0 0 1-2 0v-3.59l-7.29 7.3a1 1 0 0 1-1.42-1.42zM35 30a1 1 0 0 1 2 0v6.5a2.5 2.5 0 0 1-2.5 2.5h-13a2.5 2.5 0 0 1-2.5-2.5v-13a2.5 2.5 0 0 1 2.5-2.5H28a1 1 0 0 1 0 2h-6.5a.5.5 0 0 0-.5.5v13a.5.5 0 0 0 .5.5h13a.5.5 0 0 0 .5-.5z" id="Overrides"/></g></svg>