<svg id="Calque_1" xmlns="http://www.w3.org/2000/svg" viewBox="0 0 48 48"><style>.st0{fill:#2329d6}</style><title id="copyIconTitle">Copy</title><desc id="copyIconDesc">Copy active/selected item(s)</desc><title id="copyIconTitle">Copy</title><desc id="copyIconDesc">Copy active/selected item(s)</desc><path class="st0" d="M33 6c0-.6-.4-1-1-1H7v29c0 .6.4 1 1 1s1-.4 1-1V7h23c.6 0 1-.4 1-1z"/><path class="st0" d="M32.4 11H13v32h26V17.6L32.4 11zM37 41H15V13h16.6l.4.4V18h4.6l.4.4V41z"/><path class="st0" d="M32 20H20c-.6 0-1 .4-1 1s.4 1 1 1h12c.6 0 1-.4 1-1s-.4-1-1-1zm0 4H20c-.6 0-1 .4-1 1s.4 1 1 1h12c.6 0 1-.4 1-1s-.4-1-1-1zm-3.2 5.9c-.6-.3-1.3-.5-2.1-.5-.9 0-1.7.3-2.4.8s-1 1.3-1.2 2.2h-.8c-.3 0-.5.2-.5.5s.2.5.5.5h.7v.7h-.7c-.3 0-.5.2-.5.5s.2.5.5.5h.8c.2.9.5 1.6 1.2 2.2s1.4.8 2.4.8c.7 0 1.3-.2 1.8-.4.2-.1.3-.3.3-.6 0-.4-.3-.7-.7-.7h-.2c-.4.1-.8.2-1.1.2-1.1 0-1.7-.5-1.9-1.4h2c.3 0 .5-.2.5-.5s-.2-.5-.5-.5h-2.1v-.7h2.4c.3 0 .5-.2.5-.5s-.2-.5-.5-.5h-2.4c.1-.5.3-.9.6-1.2s.7-.4 1.2-.4c.3 0 .5 0 .7.1s.5.2.8.3h.2c.4 0 .7-.3.7-.7.2-.3 0-.6-.2-.7z"/></svg>