<svg id="Calque_1" xmlns="http://www.w3.org/2000/svg" viewBox="0 0 48 48"><style>.st0{fill:#2329d6}</style><title id="copyIconTitle">Copy</title><desc id="copyIconDesc">Copy active/selected item(s)</desc><title id="copyIconTitle">Copy</title><desc id="copyIconDesc">Copy active/selected item(s)</desc><path class="st0" d="M24.4 17.7c.1-.8.1-1.8-.6-2.5-.5-.5-1-.7-1.6-.6-.6.1-1.2.4-1.8.9-.7.7-1.2 1.5-1.4 2.5l1.4.5c.2-.9.7-1.6 1-1.9s.9-.6 1.3-.2c.2.2.4.6.2 1.7-.1.5-.1.9 0 1.2.2.7.8 1.2.8 1.2l1.1-1.1c-.7-.8-.5-.9-.4-1.7z"/><circle class="st0" cx="25.7" cy="21.2" r="1.1"/><path class="st0" d="M42.4 15.6l-9.9-9.9-3 3-3-3-8.6 8.6H16c-7.9 0-8 5.2-8 5.3v15c0 2.5 1.7 7.3 8 7.3h21v-19h-1.9l7.3-7.3zm-9.9-7.1l7.1 7.1-7.3 7.3h-3.2l7.3-7.3-5.5-5.5 1.6-1.6zm-6 0l7 7.2-7.2 7.2H16c-2 0-2.7-.1-3.3-.4l13.8-14zm-10.6 7.8l-5 5c-.6-.3-.9-1.3-.9-1.8 0-.2.1-3.2 5.9-3.2zM35 35.2h-5.7c-1.6 0-2.9-1.3-2.9-3s1.3-3 2.9-3H35v6zM14 24.9h20.9v2.4h.1-5.7c-2.7 0-4.9 2.2-4.9 5s2.2 5 4.9 5H35v2.6H16c-5.8 0-6-4.7-6-5.3V23.5c1 .7 2.2 1.4 4 1.4z"/><path class="st0" d="M27.6 32.3c0 1.1.9 2.1 2 2.1s2-.9 2-2.1c0-1.1-.9-2.1-2-2.1s-2 .9-2 2.1z"/></svg>