<svg id="Calque_1" data-name="Calque 1" xmlns="http://www.w3.org/2000/svg" viewBox="0 0 58 58"><defs><style>.cls-1{fill:#fff;fill-rule:evenodd}</style></defs><title>Plan de travail 1</title><g id="mask-2"><path id="path-1" class="cls-1" d="M36 27h-6a1 1 0 0 1-1-1v-6h-6a1 1 0 0 0-1 1v16a1 1 0 0 0 1 1h4l2 2 2-2h4a1 1 0 0 0 1-1zm-1.41-2L31 21.41V25zM30 18a1 1 0 0 1 .71.29l7 7A1 1 0 0 1 38 26v11a3 3 0 0 1-3 3H23a3 3 0 0 1-3-3V21a3 3 0 0 1 3-3zm-4 18h2v-2h2v2h2l-3 3z"/></g><path d="M36 27h-6a1 1 0 0 1-1-1v-6h-6a1 1 0 0 0-1 1v16a1 1 0 0 0 1 1h4l2 2 2-2h4a1 1 0 0 0 1-1zm-1.41-2L31 21.41V25zM30 18a1 1 0 0 1 .71.29l7 7A1 1 0 0 1 38 26v11a3 3 0 0 1-3 3H23a3 3 0 0 1-3-3V21a3 3 0 0 1 3-3zm-4 18h2v-2h2v2h2l-3 3z" id="Combined-Shape"/><path d="M24 28.46a2 2 0 0 1 2.91.19 1.51 1.51 0 0 1 .29.8h-.9A1.37 1.37 0 0 0 26 29a.92.92 0 0 0-.72-.28.88.88 0 0 0-.76.4 2 2 0 0 0-.28 1.12 1.67 1.67 0 0 0 .3 1.09.9.9 0 0 0 .74.36.84.84 0 0 0 .71-.31 1.37 1.37 0 0 0 .23-.5h.89a1.91 1.91 0 0 1-.55 1.12 1.76 1.76 0 0 1-1.22.44 1.82 1.82 0 0 1-1.45-.6 2.83 2.83 0 0 1 .11-3.38zM28.53 31a.9.9 0 0 0 .17.44.94.94 0 0 0 .77.27 1.94 1.94 0 0 0 .53-.07.51.51 0 0 0 .38-.5.35.35 0 0 0-.19-.33 1.84 1.84 0 0 0-.6-.21l-.46-.1a2.86 2.86 0 0 1-.95-.33 1.05 1.05 0 0 1-.44-.93 1.24 1.24 0 0 1 .43-1 1.83 1.83 0 0 1 1.25-.38 1.92 1.92 0 0 1 1.18.36 1.25 1.25 0 0 1 .51 1.05h-.86a.63.63 0 0 0-.35-.55 1.13 1.13 0 0 0-.54-.11 1 1 0 0 0-.57.14.44.44 0 0 0-.21.39.37.37 0 0 0 .21.35 2.73 2.73 0 0 0 .57.18l.76.17a2 2 0 0 1 .75.32 1.06 1.06 0 0 1 .38.88 1.23 1.23 0 0 1-.46 1 1.91 1.91 0 0 1-1.29.39 2.16 2.16 0 0 1-1.34-.38 1.27 1.27 0 0 1-.49-1.05zm5.88-3h.94l-1.47 4.32H33L31.56 28h1l.93 3.28z"/></svg>