<svg id="Calque_1" xmlns="http://www.w3.org/2000/svg" viewBox="0 0 48 48"><style>.st0{fill:#2329d6}</style><title id="copyIconTitle">Copy</title><desc id="copyIconDesc">Copy active/selected item(s)</desc><path class="st0" d="M40.2 19h-1.7L22.2 9.9l-12 6.4V14h-6v21h6v-4H14l1 .3V35c0 2.1 1.9 4 4 4h21.2c2.1 0 4-1.9 4-4V23c0-2.1-2-4-4-4zm2 16c0 1-1 2-2 2H19c-1 0-2-1-2-2v-3c.6.2 1 .3 1.4.4l12.3 3.8 1.7-3.4-3.9-3.8h13.7v6zm-36-19h2v17h-2V16zm3.8 2.6l.2-.1 12-6.4L34.4 19h-9.9l-3.8 5.1 9.3 9.1-.3.6L14.5 29h-4.3L10 18.6zM42.2 23v2H24.4l-1-1 2.3-3h14.5c.9 0 2 1 2 2z"/></svg>