<svg data-name="Calque 1" xmlns="http://www.w3.org/2000/svg" viewBox="0 0 58 58"><title>Plan de travail 1 copie</title><path d="M34 43h-8a1 1 0 0 0 0 2h8a1 1 0 0 0 0-2zm0 4h-8a1 1 0 0 0 0 2h8a1 1 0 0 0 0-2zm.5 4h-9l2.38 1.56a1.83 1.83 0 0 0 1.23.44h1.79a1.87 1.87 0 0 0 1.23-.44zM42 23.4c0 7.14-6.43 12-6.43 17.6H24.43c0-5.63-6.43-10.46-6.43-17.6 0-7.4 6-11.54 12-11.54S42 16 42 23.4zm8-1.4v2.74h-5.08c0-.44.08-.89.08-1.36s0-.93-.07-1.38zM28.7 8.91V5h2.75v3.93A14.27 14.27 0 0 0 30 8.86c-.44 0-.87.02-1.3.05zM39.75 12l3.14-3.48 2 1.83-3.2 3.56A11.24 11.24 0 0 0 39.75 12zm-21.48 1.91l-3.21-3.56 2-1.83L20.24 12a11.24 11.24 0 0 0-1.97 1.91zm-3.19 10.85H10V22h5.07c0 .45-.07.91-.07 1.38s0 .94.08 1.38z"/></svg>