<svg width="33" height="33" viewBox="0 0 33 33" xmlns="http://www.w3.org/2000/svg"><title>FF886EA2-9D94-4D25-A8F4-F8FED4451C6D</title><g fill="#FFF"><path d="M13.527 16c3.877 0 7.079 1.794 9.341 4.614l-1.926 2.145-.728-.582-.107-.095c-2.214-1.858-5.541-1.726-7.58.314l-.14.144c-2.042 2.218-1.99 5.867.215 7.858l.19.163L14.497 32H.5c0-8.535 5.061-16 13.028-16zm-.228-16c3.97 0 7.2 3.23 7.2 7.2s-3.23 7.2-7.2 7.2-7.2-3.23-7.2-7.2S9.33 0 13.3 0z"/><path d="M32.087 18.858c.604.604.49 1.688 0 2.265l-9.639 10.442c-.604.604-1.66.604-2.264 0l-4.832-4.076c-.604-.453-.604-1.66 0-2.265.604-.604 1.597-.51 2.265 0l3.774 3.02 8.431-9.386c.604-.604 1.661-.604 2.265 0z"/></g></svg>