<svg id="Calque_1" xmlns="http://www.w3.org/2000/svg" viewBox="0 0 48 48"><style>.st0{fill:none}.st1{fill-rule:evenodd;clip-rule:evenodd}</style><path class="st1" d="M31.9 1H9.3c-1 0-2 .4-2.6 1-.7.7-1.2 1.7-1.2 2.6v38.6c0 .9.4 1.9 1.1 2.6.8.8 1.8 1.2 2.7 1.2h29.5c.9 0 1.9-.4 2.6-1.1.7-.7 1.1-1.7 1.1-2.6V11.8L31.9 1zm8.2 41a2.732 2.732 0 0 1-2.7 2.7H10.8c-.7 0-1.4-.3-1.9-.8S8 42.7 8 42V6.2c0-.7.3-1.4.8-1.9.4-.4 1.1-.7 1.9-.7h20v7c0 1.5 1.2 2.7 2.7 2.7H40V42z"/><path d="M28.6 21.3c-.1 0-.3 0-.4.1-.5.2-1.2.3-1.9.3-.9 0-1.7-.2-2.4-.7-.6-.4-1-.9-1.4-1.6h4c.3 0 .5-.1.6-.2.2-.1.3-.4.3-.6 0-.2-.1-.4-.3-.6-.2-.2-.4-.3-.6-.3H22v-.8h5.4c.2 0 .5-.1.6-.3.2-.2.3-.4.3-.6 0-.2-.1-.4-.3-.6-.2-.2-.4-.2-.6-.2h-4.8c.3-.6.8-1.1 1.4-1.5.6-.5 1.4-.7 2.4-.7.7 0 1.4.1 1.9.3.2.1.3.1.4.1.3 0 .5-.1.7-.3.2-.2.3-.4.3-.7 0-.3-.1-.6-.6-.8-.8-.4-1.7-.6-2.8-.6-1.6 0-2.9.4-4 1.2-1 .8-1.7 1.8-2.1 2.9h-1.1c-.2 0-.4.1-.6.2-.2.2-.3.4-.3.6 0 .2.1.4.3.6.2.2.4.2.6.2h.7v.8h-.7c-.2 0-.5.1-.6.3-.2.2-.3.4-.3.6 0 .2.1.4.3.6.2.2.4.2.7.2h1c.3.8.7 1.5 1.2 2.1.5.7 1.3 1.2 2.1 1.6.9.4 1.8.6 2.7.6 1 0 1.9-.2 2.8-.6.4-.2.5-.6.5-.8 0-.2-.1-.5-.3-.7 0 0-.3-.1-.6-.1zm3.9 8.3h-17c-.6 0-1-.4-1-1s.4-1 1-1h17c.6 0 1 .4 1 1s-.4 1-1 1zm0 4.8h-17c-.6 0-1-.4-1-1s.4-1 1-1h17c.6 0 1 .4 1 1 0 .5-.4 1-1 1zm0 4.7h-17c-.6 0-1-.4-1-1s.4-1 1-1h17c.6 0 1 .4 1 1s-.4 1-1 1z"/></svg>