<svg width="14" height="22" viewBox="0 0 14 22" xmlns="http://www.w3.org/2000/svg"><title>BA90608A-4431-43FE-BE7F-FD90F545B1A4</title><path d="M3.841 0c.8.242 1.549.533 2.265.9 3.89 2.005 6.224 5.181 7.046 9.46.547 2.857.092 5.58-1.27 8.151-.429.812-.976 1.533-1.7 2.109-.07.055-.14.106-.195.148.104-.3.235-.6.311-.915.154-.635.073-1.27-.088-1.894a6.52 6.52 0 0 0-.944-2.106c-.07-.1-.16-.186-.242-.279a1.32 1.32 0 0 0-.05.03c.023.085.05.167.067.253.05.244.13.489.132.735.01.573-.473.936-1.033.81-.626-.138-.937-.709-.758-1.398.15-.566.346-1.123.452-1.697.364-1.958.109-3.824-.899-5.564a.854.854 0 0 0-.199-.243c.027.153.058.305.08.457.16 1.094-.08 2.126-.577 3.086-.418.812-.898 1.594-1.382 2.37-.544.872-1.084 1.74-1.397 2.727-.24.759-.376 1.53-.232 2.325.208 1.137.88 1.91 1.925 2.373.098.044.201.084.293.162-.262-.06-.527-.108-.785-.183-1.278-.375-2.253-1.173-3.03-2.229C.601 18.19.254 16.618.454 14.906c.19-1.633.77-3.139 1.551-4.565.535-.976 1.132-1.92 1.736-2.857.583-.903 1.124-1.822 1.39-2.874.394-1.57.17-3.007-.934-4.247C4.091.243 3.974.136 3.841 0" fill="#FFC300"/></svg>