<svg version="1" xmlns="http://www.w3.org/2000/svg" width="682.667" height="682.667" viewBox="0 0 512.000000 512.000000"><path d="M0 25.5V51h51l.2 157.2c.3 149 .4 157.5 2.1 161.3 2.6 5.8 7.4 10.2 13.4 12.5 5.3 2 7.9 2 225.3 2h220v-51l-204.7-.2-204.8-.3-.5-158-.5-158-2.7-4.6c-3-5.1-8.4-9.2-14.3-10.8C82 .4 65.8 0 40.3 0H0v25.5z"/><path d="M154 166.5V282l153.3-.2 153.2-.3.3-115.3L461 51H333v51h-51l-.2-25.3-.3-25.2-63.7-.3L154 51v115.5zM133.7 436c-15.6 2.8-28.4 16.5-30.6 32.7-4.1 29.9 27.4 52.5 54.7 39.1 5.5-2.7 14.2-10.9 16.7-15.9 10.6-20.3 1.1-45.9-19.9-53.8-6.4-2.4-14.6-3.2-20.9-2.1zm281.5 0c-11.1 2.3-21.8 10.3-26.7 19.9-1.3 2.6-2.9 7.4-3.5 10.8-5.1 25.8 18.5 49.4 44.3 44.3 20.5-4 34-22.9 30.8-43.1-3-18.1-16.6-30.6-35.1-32.3-3-.2-7.4-.1-9.8.4z"/></svg>