<svg id="Calque_1" xmlns="http://www.w3.org/2000/svg" viewBox="0 0 31 31"><style>.st0{fill:#009de9}</style><path id="Shape" class="st0" d="M15.5 30.7c-4.1 0-7.8-1.6-10.7-4.5C1.9 23.3.3 19.6.3 15.5S1.9 7.7 4.8 4.8 11.4.3 15.5.3s7.8 1.6 10.7 4.5c2.9 2.9 4.5 6.6 4.5 10.7s-1.6 7.8-4.5 10.7c-2.9 2.9-6.6 4.5-10.7 4.5zm0-28.2c-3.5 0-6.8 1.4-9.2 3.8S2.5 12 2.5 15.5s1.4 6.8 3.8 9.2c2.4 2.4 5.7 3.8 9.2 3.8s6.8-1.4 9.2-3.8c2.4-2.4 3.8-5.7 3.8-9.2s-1.4-6.8-3.8-9.2c-2.4-2.4-5.7-3.8-9.2-3.8z"/><path class="st0" d="M13.8 17.8v-.3c0-1.5.7-2.5 2.2-3.4 1.4-.9 1.9-1.6 1.9-2.7.1-1.4-1-2.4-2.5-2.4-1.4 0-2.4.7-2.7 2-.2.7-.6 1-1.2 1-.7 0-1.1-.4-1.1-1.1 0-.5.1-.9.3-1.4.7-1.6 2.5-2.6 4.8-2.6 3.1 0 5.2 1.8 5.2 4.4 0 1.8-.9 3.1-2.5 4-1.5.9-1.9 1.5-2 2.6-.1.8-.4 1.2-1.2 1.2-.8 0-1.2-.6-1.2-1.3zm-.3 4.8c0-.9.7-1.5 1.5-1.5.9 0 1.5.7 1.5 1.5s-.7 1.5-1.5 1.5-1.5-.6-1.5-1.5z"/></svg>