<svg id="Calque_1" xmlns="http://www.w3.org/2000/svg" viewBox="0 0 48 48"><style>.st0{fill:none}</style><path id="Shape_00000161618454044549157610000003473839579424856705_" d="M24 47c-6.2 0-11.8-2.4-16.2-6.8S1 30.2 1 24 3.4 12.2 7.8 7.8C12.2 3.4 17.8 1 24 1s11.8 2.4 16.2 6.8S47 17.8 47 24s-2.4 11.8-6.8 16.2S30.2 47 24 47zm0-42.7c-5.3 0-10.3 2.1-13.9 5.8S4.3 18.7 4.3 24s2.1 10.3 5.8 13.9 8.6 5.8 13.9 5.8 10.3-2.1 13.9-5.8c3.6-3.6 5.8-8.6 5.8-13.9s-2.1-10.3-5.8-13.9S29.3 4.3 24 4.3z"/><path d="M33.2 13c-.4 0-.8.2-1.2.5l-8 8-7.9-7.9c-.4-.4-.8-.6-1.3-.6s-.9.2-1.3.5c-.4.4-.5.8-.5 1.3s.2.9.6 1.3l7.9 7.9-7.9 7.9c-.4.4-.6.8-.6 1.3s.2.9.5 1.3c.4.4.8.5 1.3.5s.9-.2 1.3-.6l7.9-7.9 8 8c.4.4.8.5 1.2.5.4 0 .9-.2 1.2-.6.3-.3.6-.8.6-1.2s-.2-.8-.5-1.2l-8-8 8-8c.4-.4.5-.8.5-1.2s-.2-.9-.6-1.2-.8-.6-1.2-.6z"/></svg>