<svg id="Calque_1" xmlns="http://www.w3.org/2000/svg" viewBox="0 0 48 48"><style>.st0{fill:none}</style><path id="Shape_00000026152957310487727310000003644530332865782413_" d="M24 47c-6.2 0-11.8-2.4-16.2-6.8S1 30.2 1 24 3.4 12.2 7.8 7.8 17.8 1 24 1s11.8 2.4 16.2 6.8S47 17.8 47 24s-2.4 11.8-6.8 16.2C35.8 44.6 30.2 47 24 47zm0-42.7c-5.3 0-10.3 2.1-13.9 5.8-3.6 3.6-5.8 8.6-5.8 13.9s2.1 10.3 5.8 13.9 8.6 5.8 13.9 5.8 10.3-2.1 13.9-5.8c3.6-3.6 5.8-8.6 5.8-13.9s-2.1-10.3-5.8-13.9S29.3 4.3 24 4.3z"/><path d="M24 38c-.6 0-1.2-.2-1.6-.7-.4-.4-.7-1-.7-1.6 0-.7.2-1.2.7-1.6.4-.4 1-.7 1.6-.7.7 0 1.2.2 1.6.7.4.4.7 1 .7 1.6s-.2 1.2-.7 1.6c-.4.5-.9.7-1.6.7zm1.1-8.5c-.3.3-.7.4-1.1.4s-.9-.1-1.1-.4c-.3-.3-.4-.7-.4-1.2l-.2-16.5c0-.5.2-1 .5-1.3s.8-.5 1.3-.5.9.2 1.3.5c.3.3.5.8.5 1.3l-.2 16.5c-.1.5-.3 1-.6 1.2z"/></svg>