<svg id="Calque_1" xmlns="http://www.w3.org/2000/svg" viewBox="0 0 48 48"><style>.st0{fill:none}</style><path id="Shape_00000163771834018399998230000018279836446551352510_" d="M24 47c-6.2 0-11.8-2.4-16.2-6.8S1 30.2 1 24 3.4 12.2 7.8 7.8 17.8 1 24 1s11.8 2.4 16.2 6.8S47 17.8 47 24s-2.4 11.8-6.8 16.2S30.2 47 24 47zm0-42.7c-5.3 0-10.3 2.1-13.9 5.8S4.3 18.7 4.3 24s2.1 10.3 5.8 13.9c3.6 3.6 8.6 5.7 13.9 5.7s10.3-2.1 13.9-5.7c3.6-3.6 5.8-8.6 5.8-13.9s-2.1-10.3-5.8-13.9S29.3 4.3 24 4.3z"/><path d="M21.4 27.5V27c0-2.3 1.1-3.8 3.3-5.1 2.1-1.4 2.9-2.4 2.9-4.1.2-2.1-1.5-3.6-3.8-3.6-2.1 0-3.6 1.1-4.1 3-.3 1.1-.9 1.5-1.8 1.5-1.1 0-1.7-.6-1.7-1.7 0-.8.2-1.4.5-2.1 1.1-2.4 3.8-3.9 7.3-3.9 4.7 0 7.9 2.7 7.9 6.7 0 2.7-1.4 4.7-3.8 6.1-2.3 1.4-2.9 2.3-3 3.9-.2 1.2-.6 1.8-1.8 1.8-1.3-.1-1.9-1-1.9-2zm-.4 7.2c0-1.4 1.1-2.3 2.3-2.3 1.4 0 2.3 1.1 2.3 2.3S24.5 37 23.3 37c-1.3 0-2.3-.9-2.3-2.3z"/></svg>