<svg id="Calque_1" xmlns="http://www.w3.org/2000/svg" viewBox="0 0 50 50"><style>.st0{fill-rule:evenodd;clip-rule:evenodd;fill:#009de9}</style><path class="st0" d="M13 26c-1.4 0-2.7-.2-4-.6v19c0 .3.2.5.5.5h6.3c.3 0 .5-.2.5-.5V25.6c-1.1.2-2.2.4-3.3.4zm12.7-10.1c-.9 3.9-3.5 7.1-7 8.8v19.7c0 .3.2.5.5.5h6.3c.3 0 .5-.2.5-.5V16.3c-.1-.2-.2-.3-.3-.4zm9.4 5h-6.3c-.3 0-.5.2-.5.5v23c0 .3.2.5.5.5h6.3c.3 0 .5-.2.5-.5v-23c0-.3-.2-.5-.5-.5zm9.7 9h-6.3c-.3 0-.5.2-.5.5v14c0 .3.2.5.5.5h6.3c.3 0 .5-.2.5-.5v-14c0-.3-.2-.5-.5-.5zM13 3C7.5 3 3 7.5 3 13s4.5 10 10 10 10-4.5 10-10S18.5 3 13 3zm2.2 7.9c.2 0 .3.1.5.2.1.1.2.3.2.5s-.1.3-.2.5c-.1.1-.3.2-.5.2H9.4c0 .2-.1.5-.1.7v.6h4.9c.2 0 .3.1.5.2.1.1.2.3.2.5s-.1.3-.2.5c-.1.1-.3.2-.5.2H9.7c.3.9.9 1.6 1.7 2.2.8.6 1.6.8 2.6.8.8 0 1.5-.1 2-.3.2-.1.3-.1.4-.1.2 0 .4.1.5.2.1.1.2.3.2.5 0 .3-.1.5-.4.7-.8.4-1.7.6-2.7.6-1 0-1.9-.2-2.7-.6-.8-.4-1.5-.9-2.1-1.6-.6-.7-1-1.5-1.3-2.4H6.7c-.2 0-.3-.1-.5-.2-.1-.3-.2-.4-.2-.6s.1-.3.2-.5c.1-.1.3-.2.5-.2h1v-1.3h-1c-.2 0-.3-.1-.5-.2-.1-.1-.2-.3-.2-.5s.1-.3.2-.5c.1-.1.3-.2.5-.2H8c.4-1.3 1.1-2.3 2.1-3.2 1-.9 2.3-1.3 3.9-1.3 1 0 1.9.2 2.7.6.3.1.4.4.4.7 0 .2-.1.4-.2.5-.1.1-.3.2-.5.2-.1 0-.2 0-.4-.1-.5-.1-1.2-.2-2-.2-1 0-1.8.3-2.6.8-.7.5-1.3 1.2-1.7 2.1h5.5z"/></svg>