<svg id="Calque_1" xmlns="http://www.w3.org/2000/svg" viewBox="0 0 53 50"><style>.st0{fill-rule:evenodd;clip-rule:evenodd;fill:#009de9}</style><path class="st0" d="M10 40.1c-1.3 0-2.6-.5-3.5-1.4l-.2-.2c-.3-.3-.5-.6-.7-1h10.2l4.2-3.1h-9.6c-1.4 0-2.5-1.1-2.5-2.5V11.5C7.9 10.1 9 9 10.4 9h31.3c1.4 0 2.5 1.1 2.5 2.5v4.4c.5-.2 1-.3 1.5-.2.5.1 1 .2 1.5.5v-4.7c0-3-2.5-5.5-5.5-5.5H10.4c-3 0-5.5 2.5-5.5 5.5v20.4c0 1 .2 1.9.7 2.6H1.8l.3 2c.3 1.5 1 2.9 2 4l.2.2C5.8 42.2 7.8 43 10 43h24.3l-1.1-3H10zM47.2 22l-3 2.4v2.8l3 .8z"/><path class="st0" d="M51.7 41.2L45 34.6l3.9-2c.2-.1.3-.2.4-.4s.1-.3.1-.5-.1-.4-.2-.5c-.1-.2-.3-.3-.5-.3l-17.9-4.8 5.9 16.7c.1.2.2.3.3.4.1.1.3.2.5.2s.4 0 .5-.1c.2-.1.3-.2.4-.4l2-3.9 6.7 6.6c.3.3 1 .3 1.3 0l3.3-3.2c.2-.2.3-.4.3-.7 0-.1-.1-.3-.3-.5zm-20.3-19c.7-.3 1.1-1.1.8-1.9l-2.4-6.2c-.3-.7-1.1-1.1-1.9-.8s-1.1 1.1-.8 1.9l2.4 6.2c.3.7 1.1 1.1 1.9.8zm6.6-9.5c-.8-.2-1.6.3-1.8 1l-1.8 6.4c-.2.8.3 1.5 1 1.7.8.2 1.6-.3 1.8-1l1.8-6.4c.3-.7-.2-1.5-1-1.7zm2 12c.4 0 .8-.1 1.1-.3l5.3-4.2c.3-.2.5-.6.5-1s-.1-.7-.3-1c-.2-.3-.6-.5-1-.5h-.2c-.3 0-.6.1-.9.3l-5.3 4.2c-.3.2-.5.6-.5 1s.1.7.3 1c.2.3.6.5 1 .5zM23.1 38.9l5.3-4.2c.6-.5.7-1.4.2-2-.5-.6-1.4-.7-2-.2l-5.3 4.2c-.6.5-.7 1.4-.2 2 .4.6 1.3.7 2 .2zm-5.6-9.6c0 .8.7 1.4 1.5 1.3l6.7-.4c.8 0 1.4-.7 1.4-1.5s-.7-1.4-1.5-1.3l-6.7.4c-.9 0-1.5.7-1.4 1.5zm8.6-4.1c.7.4 1.6.2 2-.4.4-.7.2-1.5-.4-2l-5.6-3.6c-.7-.4-1.6-.2-2 .4-.4.7-.2 1.5.4 2l5.6 3.6z"/></svg>