<svg id="Calque_1" xmlns="http://www.w3.org/2000/svg" viewBox="0 0 50 50"><style>.st0{fill:#009de9}</style><path id="Shape" class="st0" d="M49 33l-2-6.5c1-1.9 1.5-4 1.5-6.2C48.5 12.4 42.1 6 34.3 6c-6.6 0-12.2 4.5-13.8 10.6-1.5-.5-3.1-.8-4.8-.8-7.8 0-14.2 6.4-14.2 14.2 0 2.2.5 4.3 1.5 6.2l-2 6.5c-.1.4 0 .8.3 1.1.2.2.5.3.8.3.1 0 .2 0 .3-.1l6.2-1.9c2.2 1.3 4.6 1.9 7.1 1.9 6.6 0 12.2-4.5 13.8-10.6 1.5.5 3.1.8 4.8.8 2.5 0 4.9-.7 7.1-1.9l6.2 1.9c.1 0 .2.1.3.1.3 0 .5-.1.8-.3.3-.2.4-.7.3-1zm-33.3 9c-2.2 0-4.5-.7-6.4-1.9-.1 0-.3-.1-.6-.1-.1 0-.2 0-.3.1l-4.7 1.4 1.5-5c.1-.3.1-.5-.1-.8-.9-1.8-1.4-3.7-1.4-5.7 0-6.6 5.4-12 12-12s12 5.4 12 12-5.4 12-12 12zm-3.6-11.1c0 1.1-.9 2-2 2s-2-.9-2-2 .9-2 2-2 2 .9 2 2zm5.5 0c0 1.1-.9 2-2 2s-2-.9-2-2 .9-2 2-2 2 .9 2 2zm5.4 0c0 1.1-.9 2-2 2s-2-.9-2-2 .9-2 2-2 2 .9 2 2z"/></svg>