<svg id="Calque_1" xmlns="http://www.w3.org/2000/svg" viewBox="0 0 50 50"><style>.st0{fill:#009de9}</style><path id="Path" class="st0" d="M27 23v-5.6c-.1-3-2.5-5.4-5.5-5.4S16 14.5 16 17.5s2.5 5.5 5.5 5.5H27z"/><path id="Path_00000178889400783795126090000018039888578678136732_" class="st0" d="M15 25.8c-.9 0-1.7.8-1.7 1.7s.8 1.7 1.7 1.7h12.9l.1-.1 2.2-2.6c-.3-.4-.8-.6-1.3-.6"/><path id="Path_00000170248917486842417190000002293947142799105667_" class="st0" d="M13.3 34.8c0 .9.8 1.7 1.7 1.7h10.3c0-.2 0-.3.1-.5l.7-2.9H15c-.9 0-1.7.7-1.7 1.7z"/><path id="Path_00000041269168674344394550000010030420909891409850_" class="st0" d="M35.5 37.3v4.1H8.4v-33h27.2v11.7l2.5-2.9c.3-.3.5-.6.9-.8V6.3c0-.7-.6-1.3-1.3-1.3H6.3C5.6 5 5 5.6 5 6.3v37.1c0 .7.6 1.3 1.3 1.3h31.3c.7 0 1.3-.6 1.3-1.3v-9.9l-2.4 2.8c-.3.4-.6.7-1 1z"/><path id="Path_00000119819527332004388000000009178217984733351335_" class="st0" d="M28 36.6c-.2.7.5 1.2 1.1 1l3.3-1.4c.6-.3 1.2-.7 1.7-1.1l-4.4-3.7c-.4.5-.7 1.2-.8 1.9l-.9 3.3z"/><path id="Path_00000126287817156712699560000014359046918372647813_" class="st0" d="M44.3 20.1l-1.6-1.4c-.8-.7-1.9-.5-2.6.2l-8.7 10.3 4.5 3.8 8.7-10.3c.6-.8.5-2-.3-2.6z"/></svg>