<svg id="Calque_1" xmlns="http://www.w3.org/2000/svg" viewBox="0 0 80 80"><style>.st0{fill:#333}</style><path class="st0" d="M75.7 39.7v-.6C75.2 19.6 59.4 4 40 4 20.3 4 4.3 20.1 4.3 40s16 36 35.7 36h35.6V40c.1-.1.1-.2.1-.3zm-25.8-4.1c.6 0 1.1.2 1.5.6.4.4.6.9.6 1.4 0 .5-.2 1-.6 1.4-.4.4-.9.6-1.5.6H32.4c-.1.7-.2 1.5-.2 2.3 0 .4 0 1 .1 1.8H47c.6 0 1.1.2 1.5.6.4.4.6.9.6 1.4 0 .6-.2 1.1-.6 1.4-.4.4-.9.6-1.5.6H33.3c1.1 2.8 2.8 5 5.1 6.7 2.4 1.7 5 2.5 8 2.5 2.4 0 4.5-.3 6.2-.9.5-.2.9-.3 1.1-.3.6 0 1.2.2 1.6.7.5.4.7 1 .7 1.5 0 .9-.4 1.5-1.3 2-2.5 1.2-5.3 1.8-8.3 1.8-3 0-5.8-.6-8.3-1.8-2.5-1.2-4.7-2.9-6.4-5-1.7-2.1-3-4.5-3.8-7.2h-3.7c-.6 0-1.1-.2-1.5-.6-.4-.4-.6-.9-.6-1.4s.2-1 .6-1.4c.4-.4.9-.6 1.5-.6h3c0-.4-.1-1-.1-1.8 0-.5 0-1.2.1-2.3h-3c-.6 0-1.1-.2-1.5-.6-.4-.4-.6-.9-.6-1.4s.2-1 .6-1.4c.4-.4.9-.6 1.5-.6h3.9c1.3-3.9 3.4-7.1 6.5-9.7 3.1-2.6 7-3.9 11.7-3.9 3 0 5.8.6 8.3 1.8.9.4 1.3 1.1 1.3 2 0 .6-.2 1.1-.7 1.5-.5.4-1 .7-1.6.7-.3 0-.6-.1-1.1-.3-1.7-.6-3.8-.9-6.2-.9-3 0-5.6.8-7.8 2.4-2.3 1.6-3.9 3.8-5 6.4h16.4z"/></svg>