<svg id="Calque_1" xmlns="http://www.w3.org/2000/svg" viewBox="0 0 40 40"><style>.st0,.st1{fill:#009de9}.st1{fill-rule:evenodd;clip-rule:evenodd}</style><path class="st0" d="M20 39c-5.1 0-9.8-2-13.4-5.6C3 29.8 1 25.1 1 20s2-9.8 5.6-13.4C10.2 3 14.9 1 20 1s9.8 2 13.4 5.6C37 10.2 39 14.9 39 20s-2 9.8-5.6 13.4S25.1 39 20 39zm0-34c-4 0-7.8 1.6-10.6 4.4C6.6 12.2 5 16 5 20s1.6 7.8 4.4 10.6C12.2 33.4 16 35 20 35s7.8-1.6 10.6-4.4S35 24 35 20s-1.6-7.8-4.4-10.6C27.8 6.6 24 5 20 5z"/><circle id="Oval-Copy-2" class="st1" cx="20" cy="31" r="2"/><path id="crochet" class="st0" d="M20 26.6c-1.1 0-2-.9-2-2 0-3 .9-4.7 3-6.5l.6-.5c1.2-1 1.4-1.4 1.4-2.5 0-1.8-1.2-3-3-3-1.7 0-2.9 1.1-3 2.8v.2c0 1.1-.9 2-2 2s-2-.9-2-2c0-4 3.1-7 7-7s7 3 7 7c0 2.4-.8 3.7-2.6 5.3l-.6.5C22.4 22 22 22.8 22 24.6c0 1.1-.9 2-2 2z"/></svg>