<svg preserveAspectRatio="xMinYMin meet" xmlns="http://www.w3.org/2000/svg" viewBox="0 0 135 40"><style>.st0{fill:#d2d2d2}.st1{fill:#fff}.st2{fill:#f25022}.st3{fill:#7fba00}.st4{fill:#00a4ef}.st5{fill:#ffb900}.st6{fill:#a6a6a6}.st7{fill:url(#SVGID_1_)}.st8{fill:url(#SVGID_2_)}.st9{fill:url(#SVGID_3_)}.st10{fill:url(#SVGID_4_)}.st11{opacity:.2}.st11,.st12,.st13{enable-background:new}.st12{opacity:.12}.st13{opacity:.25;fill:#fff}</style><g id="iOS"><path d="M130.2 40H4.8C2.2 40 0 37.9 0 35.3V4.7C0 2.1 2.2 0 4.8 0h125.5c2.6 0 4.8 2.1 4.8 4.7v30.5c-.1 2.7-2.3 4.8-4.9 4.8z" class="st6"/><path d="M134 35.3c0 2.1-1.7 3.8-3.8 3.8H4.7c-2.1 0-3.8-1.7-3.8-3.8V4.7C.9 2.6 2.6.9 4.7.9h125.5c2.1 0 3.8 1.7 3.8 3.8v30.6z"/><path d="M30.2 19.8c0-3.2 2.6-4.8 2.8-4.9-1.5-2.2-3.9-2.5-4.7-2.5-2-.2-3.9 1.2-4.9 1.2-1 0-2.6-1.2-4.2-1.1-2.1 0-4.1 1.3-5.2 3.2-2.3 3.9-.6 9.7 1.6 12.9 1.1 1.6 2.4 3.3 4 3.2 1.6-.1 2.2-1 4.2-1 1.9 0 2.5 1 4.2 1 1.7 0 2.8-1.6 3.9-3.1 1.3-1.8 1.8-3.5 1.8-3.6-.2-.2-3.5-1.5-3.5-5.3zM27 10.3c.9-1.1 1.5-2.6 1.3-4.1-1.3.1-2.8.9-3.8 1.9-.8.9-1.5 2.5-1.3 3.9 1.4.2 2.8-.6 3.8-1.7zm18.2 21.2h-1.9V18.7h1.9v12.8zM50.3 19c-.5 1.8-1.1 3.3-1.8 4.5l-1.2.1c.5-1.4.9-2.9 1.1-4.4l1.9-.2zm9.5 12.5h-2.1l-1.1-3.6h-3.9l-1.1 3.6h-2l3.9-12.1h2.4l3.9 12.1zm-3.6-5.1l-1-3.2c-.1-.3-.3-1.1-.6-2.3-.1.5-.3 1.3-.6 2.3l-1 3.2h3.2zm13.6.6c0 1.5-.4 2.7-1.2 3.5-.7.8-1.6 1.2-2.7 1.2-1.2 0-2-.4-2.5-1.2v4.6h-1.9v-9.4c0-.9 0-1.9-.1-2.9h1.7l.1 1.4c.6-1 1.6-1.6 3-1.6 1 0 1.9.4 2.6 1.2.7.8 1 1.9 1 3.2zm-2 .1c0-.9-.2-1.6-.6-2.1-.4-.6-1-.9-1.7-.9-.5 0-.9.2-1.3.5s-.6.7-.8 1.3c-.1.2-.1.4-.1.6V28c0 .6.2 1.2.6 1.6.4.4.9.7 1.5.7.7 0 1.3-.3 1.7-.8.5-.7.7-1.5.7-2.4zm12.1-.1c0 1.5-.4 2.7-1.2 3.5-.7.8-1.6 1.2-2.7 1.2-1.2 0-2-.4-2.5-1.2v4.6h-1.9v-9.4c0-.9 0-1.9-.1-2.9h1.7l.1 1.4c.6-1 1.6-1.6 3-1.6 1 0 1.9.4 2.6 1.2.6.8 1 1.9 1 3.2zm-2 .1c0-.9-.2-1.6-.6-2.1-.4-.6-1-.9-1.7-.9-.5 0-.9.2-1.3.5s-.6.7-.8 1.3c-.1.2-.1.4-.1.6V28c0 .6.2 1.2.6 1.6.4.4.9.7 1.5.7.7 0 1.3-.3 1.7-.8.5-.7.7-1.5.7-2.4zm13.2 1c0 1-.4 1.9-1.1 2.5-.8.7-1.9 1.1-3.3 1.1-1.3 0-2.4-.3-3.1-.8l.4-1.6c.9.5 1.8.8 2.8.8.7 0 1.3-.2 1.7-.5.4-.3.6-.8.6-1.3s-.2-.9-.5-1.2c-.3-.3-.9-.6-1.7-.9-2.1-.8-3.2-2-3.2-3.5 0-1 .4-1.8 1.1-2.5.7-.6 1.7-1 3-1 1.1 0 2 .2 2.8.6l-.5 1.6c-.7-.4-1.5-.6-2.3-.6-.7 0-1.2.2-1.6.5-.3.3-.5.7-.5 1.1 0 .5.2.9.6 1.2.3.3.9.6 1.8.9 1 .4 1.8.9 2.3 1.5s.7 1.3.7 2.1zm6.5-3.9h-2.1v4.2c0 1.1.4 1.6 1.1 1.6.3 0 .6 0 .9-.1l.1 1.5c-.4.1-.9.2-1.5.2-.8 0-1.4-.2-1.8-.7-.4-.5-.6-1.3-.6-2.4v-4.4h-1.3v-1.5h1.3V21l1.9-.6v2.2h2.1c-.1.2-.1 1.6-.1 1.6zm9.6 2.9c0 1.3-.4 2.4-1.2 3.3-.8.9-1.9 1.3-3.2 1.3-1.3 0-2.3-.4-3.1-1.3-.8-.9-1.1-1.9-1.1-3.2 0-1.4.4-2.5 1.2-3.3.8-.9 1.8-1.3 3.2-1.3 1.3 0 2.3.4 3.1 1.3.7.8 1.1 1.9 1.1 3.2zm-2 0c0-.8-.2-1.5-.5-2.1-.4-.7-1-1-1.7-1-.8 0-1.4.4-1.8 1-.3.6-.5 1.3-.5 2.1s.2 1.5.5 2.1c.4.7 1 1 1.8 1 .7 0 1.3-.4 1.7-1.1.3-.5.5-1.2.5-2zm8.3-2.6c-.2 0-.4-.1-.6-.1-.7 0-1.2.3-1.6.8-.3.5-.5 1-.5 1.7v4.6h-1.9v-6c0-1 0-1.9-.1-2.8h1.7l.1 1.7h.1c.2-.6.5-1 1-1.4.4-.3.9-.5 1.4-.5h.5l-.1 2zm8.7 2.2c0 .3 0 .6-.1.9h-5.8c0 .9.3 1.5.8 2 .5.4 1.1.6 1.9.6.9 0 1.7-.1 2.4-.4l.3 1.4c-.8.4-1.8.5-2.9.5-1.4 0-2.4-.4-3.2-1.2-.8-.8-1.2-1.9-1.2-3.2 0-1.3.4-2.4 1.1-3.3.8-.9 1.8-1.4 3.1-1.4s2.2.5 2.9 1.4c.5.7.7 1.6.7 2.7zm-1.8-.5c0-.6-.1-1.1-.4-1.5-.3-.5-.9-.8-1.5-.8s-1.2.3-1.5.8c-.3.4-.5.9-.6 1.5h4zM47.8 7.8H46v5.7h-1V7.8h-1.9v-.9h4.8v.9zm5.2 3.1v.5h-3.1c0 .5.2.8.5 1.1.3.2.6.3 1 .3.5 0 .9-.1 1.3-.2l.2.7c-.4.2-1 .3-1.6.3-.7 0-1.3-.2-1.7-.6s-.6-1-.6-1.7.2-1.3.6-1.8c.4-.5 1-.8 1.6-.8.7 0 1.2.3 1.5.8.1.3.3.8.3 1.4zm-1-.3c0-.3-.1-.6-.2-.8-.2-.3-.5-.4-.8-.4-.3 0-.6.1-.8.4-.2.2-.3.5-.3.8H52zm.4-3.9l-1.2 1.4h-.7l.8-1.4h1.1zm3.1 6.7h-1V6.6h1v6.8zm5.8-2.5v.5h-3.1c0 .5.2.8.5 1.1.3.2.6.3 1 .3.5 0 .9-.1 1.3-.2l.2.7c-.4.2-1 .3-1.6.3-.7 0-1.3-.2-1.7-.6s-.6-1-.6-1.7.2-1.3.6-1.8c.4-.5 1-.8 1.6-.8.7 0 1.2.3 1.5.8.2.3.3.8.3 1.4zm-1-.3c0-.3-.1-.6-.2-.8-.2-.3-.5-.4-.8-.4-.3 0-.6.1-.8.4-.2.2-.3.5-.3.8h2.1zm.4-3.9l-1.2 1.4h-.7l.8-1.4h1.1zm5.5 2.1l-.2.8c-.3-.1-.6-.2-.9-.2-.5 0-.8.2-1.1.5-.3.3-.4.7-.4 1.2s.1.9.4 1.2c.3.3.6.4 1.1.4.3 0 .6-.1.9-.2l.1.8c-.3.2-.8.2-1.3.2-.7 0-1.3-.2-1.7-.7s-.6-1-.6-1.8c0-.7.2-1.3.7-1.8s1.1-.7 1.9-.7c.4.1.8.2 1.1.3zm5.5 4.6h-1v-2.7c0-.8-.3-1.3-1-1.3-.5 0-.8.2-1 .7v3.2h-1V6.6h1v2.8c.3-.5.8-.8 1.4-.8.4 0 .8.1 1.1.4.4.4.5.9.5 1.6v2.8zm5.4 0h-.9l-.1-.5c-.3.4-.8.6-1.4.6-.4 0-.8-.1-1.1-.4-.2-.3-.4-.6-.4-1 0-.6.2-1 .7-1.3.5-.3 1.2-.5 2-.4v-.1c0-.6-.3-.9-1-.9-.5 0-.9.1-1.2.3l-.2-.7c.4-.3 1-.4 1.6-.4 1.2 0 1.8.6 1.8 1.9v1.7c.1.6.1 1 .2 1.2zM76 11.8v-.7c-1.2 0-1.7.3-1.7.9 0 .2.1.4.2.6.1.1.3.2.5.2s.4-.1.6-.2c.2-.1.3-.3.4-.6v-.2zm5.3-2.2H81c-.4 0-.7.1-.9.4-.2.2-.3.6-.3.9v2.5h-1V8.7h.9v.9c.1-.3.3-.6.5-.7.2-.2.5-.3.8-.3h.3v1zm5.5-.9v4c0 1-.2 1.7-.7 2.1-.4.4-1 .6-1.7.6s-1.2-.1-1.6-.4l.2-.8c.4.2.8.4 1.3.4.9 0 1.4-.5 1.4-1.5v-.5c-.3.5-.8.7-1.4.7-.6 0-1-.2-1.4-.6-.4-.4-.6-1-.6-1.6 0-.8.2-1.4.6-1.8.4-.4.9-.6 1.4-.6.6 0 1.1.2 1.4.7v-.6l1.1-.1zm-1.1 2.7v-.8c0-.3-.1-.6-.3-.8-.2-.2-.5-.3-.8-.3-.4 0-.7.1-.9.4-.2.3-.3.7-.3 1.2s.1.8.3 1.1c.2.3.5.5.9.5.2 0 .4-.1.6-.2s.3-.3.4-.6c.1-.2.1-.3.1-.5zm6.8-.5v.5h-3.1c0 .5.2.8.5 1.1.3.2.6.3 1 .3.5 0 .9-.1 1.3-.2l.2.7c-.4.2-1 .3-1.6.3-.7 0-1.3-.2-1.7-.6-.4-.4-.6-1-.6-1.7s.2-1.3.6-1.8c.4-.5 1-.8 1.6-.8.7 0 1.2.3 1.5.8.2.3.3.8.3 1.4zm-1-.3c0-.3-.1-.6-.2-.8-.2-.3-.5-.4-.8-.4-.3 0-.6.1-.8.4-.2.2-.3.5-.3.8h2.1zm5-1h-.3c-.4 0-.7.1-.9.4-.2.2-.3.6-.3.9v2.5h-1V8.7h.9v.9c.1-.3.3-.6.5-.7.2-.2.5-.3.8-.3h.3v1zm8.4 3.8h-.9v-.8c-.3.6-.8.9-1.5.9-.6 0-1-.2-1.4-.7s-.6-1-.6-1.7c0-.8.2-1.4.6-1.9.4-.4.9-.7 1.5-.7s1.1.2 1.3.6V6.6h1v6.8zm-1.1-2v-1.1c-.1-.3-.2-.5-.4-.6s-.4-.3-.7-.3c-.4 0-.7.2-.9.5s-.3.7-.3 1.2.1.8.3 1.1c.2.3.5.5.9.5.3 0 .6-.1.8-.4.2-.2.3-.5.3-.9zm6.4 2h-.9l-.1-.5c-.3.4-.8.6-1.4.6-.4 0-.8-.1-1.1-.4-.2-.3-.4-.6-.4-1 0-.6.2-1 .7-1.3.5-.3 1.2-.5 2-.4v-.1c0-.6-.3-.9-1-.9-.5 0-.9.1-1.2.3l-.1-.7c.4-.3 1-.4 1.6-.4 1.2 0 1.8.6 1.8 1.9v1.7c.1.6.1 1 .1 1.2zm-1-1.6v-.7c-1.2 0-1.7.3-1.7.9 0 .2.1.4.2.6.1.1.3.2.5.2s.4-.1.6-.2c.2-.1.3-.3.4-.6v-.2zm6.9 1.6h-1v-2.7c0-.8-.3-1.2-.9-1.2-.3 0-.6.1-.8.3-.2.2-.3.5-.3.8v2.8h-1V8.7h.9v.7c.1-.2.3-.4.5-.6.3-.2.6-.3.9-.3.4 0 .8.1 1.1.4.4.3.5.9.5 1.6.1.1.1 2.9.1 2.9zm4.7-1.3c0 .4-.2.8-.5 1.1-.3.3-.8.4-1.3.4s-1-.1-1.4-.3l.2-.8c.4.2.7.3 1.2.3s.8-.2.8-.6c0-.2-.1-.3-.2-.4-.1-.1-.3-.2-.6-.3-.8-.3-1.3-.8-1.3-1.4 0-.4.2-.7.5-1s.7-.4 1.2-.4.9.1 1.2.3l-.2.8c-.3-.2-.6-.3-1-.3-.2 0-.4.1-.5.2-.1.1-.2.2-.2.4s.1.3.2.4c.1.1.3.2.6.3.9.2 1.3.6 1.3 1.3z" class="st1"/></g></svg>