<svg preserveAspectRatio="xMinYMin meet" xmlns="http://www.w3.org/2000/svg" viewBox="0 0 110.8 40"><style>.st0{fill:#d2d2d2}.st1{fill:#fff}.st2{fill:#f25022}.st3{fill:#7fba00}.st4{fill:#00a4ef}.st5{fill:#ffb900}.st6{enable-background:new}.st7{fill:#a6a6a6}.st8{fill:url(#SVGID_1_)}.st9{fill:url(#SVGID_2_)}.st10{fill:url(#SVGID_3_)}.st11{fill:url(#SVGID_4_)}</style><g id="Windows"><path d="M.3.3h110.2v39.4H.3z"/><path d="M.6.6h109.6v38.8H.6V.6zM0 40h110.8V0H0v40z" class="st0"/><path d="M52.4 20.9c0-.3.1-.6.3-.8.2-.2.5-.3.8-.3.3 0 .6.1.8.3s.3.5.3.8c0 .3-.1.6-.3.8-.2.2-.5.3-.8.3-.3 0-.6-.1-.8-.3-.2-.3-.3-.5-.3-.8m2.1 10.5h-1.9v-8.1h1.9v8.1zm5.8-1.4c.3 0 .6-.1.9-.2.3-.1.7-.3.9-.5V31c-.3.2-.7.3-1 .4-.4.1-.8.1-1.3.1-1.2 0-2.2-.4-2.9-1.1-.8-.8-1.1-1.7-1.1-2.9 0-1.3.4-2.4 1.2-3.2.8-.8 1.8-1.3 3.3-1.3.4 0 .7.1 1.1.1.4.1.7.2.9.3v1.8c-.3-.2-.6-.4-.9-.5-.3-.1-.6-.2-.9-.2-.8 0-1.4.2-1.8.7-.5.5-.7 1.2-.7 2s.2 1.5.7 1.9c.2.6.8.9 1.6.9m7.3-6.9h.4c.1 0 .2.1.3.1v1.9c-.1-.1-.2-.1-.4-.2s-.4-.1-.7-.1c-.5 0-.9.2-1.2.6-.3.4-.5 1-.5 1.8v4.1h-1.9v-8.1h1.9v1.3c.2-.4.4-.8.8-1 .4-.3.8-.4 1.3-.4m.9 4.3c0-1.3.4-2.4 1.1-3.2.8-.8 1.8-1.2 3.2-1.2 1.3 0 2.3.4 3 1.1.7.8 1.1 1.8 1.1 3.1s-.4 2.4-1.1 3.2c-.8.8-1.8 1.2-3.1 1.2s-2.3-.4-3-1.1c-.9-.8-1.2-1.8-1.2-3.1m1.9-.1c0 .8.2 1.5.6 1.9.4.4.9.7 1.7.7.7 0 1.2-.2 1.6-.7.4-.4.6-1.1.6-2 0-.9-.2-1.5-.6-2-.4-.4-.9-.7-1.6-.7-.7 0-1.2.2-1.6.7-.5.6-.7 1.3-.7 2.1m9.3-1.9c0 .3.1.5.3.6.2.2.6.3 1.2.6.8.3 1.3.7 1.6 1 .3.4.5.8.5 1.4 0 .8-.3 1.4-.9 1.8s-1.4.7-2.4.7c-.3 0-.7 0-1.1-.1-.4-.1-.8-.2-1-.3v-1.9c.3.2.7.4 1.1.6.4.1.8.2 1.1.2.4 0 .8-.1 1-.2.2-.1.3-.3.3-.6s-.1-.5-.3-.7c-.2-.2-.6-.4-1.2-.6-.7-.3-1.2-.6-1.5-1-.3-.4-.4-.8-.4-1.4 0-.7.3-1.3.9-1.8.6-.5 1.3-.7 2.3-.7.3 0 .6 0 1 .1s.7.1.9.2v1.8c-.3-.2-.6-.3-.9-.4-.3-.1-.7-.2-1-.2-.4 0-.7.1-.8.2-.6.2-.7.4-.7.7m4.3 2c0-1.3.4-2.4 1.1-3.2.8-.8 1.8-1.2 3.2-1.2 1.3 0 2.3.4 3 1.1.7.8 1.1 1.8 1.1 3.1s-.4 2.4-1.1 3.2c-.8.8-1.8 1.2-3.1 1.2s-2.3-.4-3-1.1c-.8-.8-1.2-1.8-1.2-3.1m2-.1c0 .8.2 1.5.6 1.9.4.4.9.7 1.7.7.7 0 1.2-.2 1.6-.7.4-.4.6-1.1.6-2 0-.9-.2-1.5-.6-2s-.9-.7-1.6-.7c-.7 0-1.2.2-1.6.7-.5.6-.7 1.3-.7 2.1m12.7-2.5V29c0 .9.2 1.5.6 1.9.4.4 1 .6 1.8.6.3 0 .6 0 .8-.1.3-.1.5-.1.6-.2v-1.6c-.1.1-.3.1-.4.2-.2.1-.3.1-.4.1-.4 0-.7-.1-.9-.3-.2-.2-.3-.6-.3-1.1v-3.8h1.9v-1.6h-1.9v-2.4l-1.9.6v1.8h-2.9v-1c0-.5.1-.9.3-1.1.2-.3.5-.4.9-.4.2 0 .4 0 .6.1.2.1.3.1.3.1v-1.7c-.1-.1-.3-.1-.5-.1h-.6c-.9 0-1.6.3-2.1.8-.6.6-.8 1.2-.8 2.1V23h-1.4v1.6h1.4v6.6h1.9v-6.6l3 .2zm-48-4.8v11.4h-2v-8.9l-3.5 8.9h-1.3l-3.6-8.9h-.1v8.9h-1.8V20h2.8l3.3 8.4h.1L48 20z" class="st1"/><path d="M9 8.8h10.7v10.7H9z" class="st2"/><path d="M20.9 8.8h10.7v10.7H20.9z" class="st3"/><path d="M9 20.6h10.7v10.7H9z" class="st4"/><path d="M20.9 20.6h10.7v10.7H20.9z" class="st5"/><path d="M39.7 15.7c-.5 0-.9-.2-1.2-.7-.4-.5-.5-.9-.5-1.4 0-.6.2-1.2.5-2s.8-1.4 1.4-1.8c.6-.5 1.1-.8 1.8-.8.5 0 .9.1 1.2.2.3.1.6.3.8.5s.4.4.5.7c.1.2.1.6.1 1s-.1.9-.4 1.4c-.2.5-.6 1-1.1 1.5-.5.5-1 .9-1.4 1.1s-1 .3-1.7.3zm-.9-2.2c0 .4.1.7.4 1 .3.3.5.4.9.4.9 0 1.7-.4 2.4-1.2.7-.8 1.1-1.7 1.1-2.6 0-.3-.1-.6-.2-.8s-.3-.4-.6-.5c-.3-.1-.6-.2-1-.2-.6 0-1.3.4-1.9 1.3s-1.1 1.8-1.1 2.6zm7.1-.6c.4-.7.8-1.2 1.3-1.6s1-.6 1.4-.6c.2 0 .4.1.6.3.2.2.2.5.2.8 0 .9-.3 1.7-1 2.5s-1.4 1.2-2.1 1.2c-.2 0-.4-.1-.6-.2-.2-.1-.3-.3-.3-.4 0-.1-.1-.2-.1-.3-.1-.1-.2-.3-.2-.4 0-.3.1-.8.2-1.7l.4-2.6c.3-.9.4-1.4.4-1.6s.1-.3.2-.4c.1-.1.2-.1.3-.1.2 0 .3.2.3.5s-.1.8-.3 1.4c-.1.5-.4 1.6-.7 3.2zm-.1 1.4c.1.3.3.4.5.4.3 0 .7-.1 1-.4.4-.3.7-.7.9-1.2.3-.5.4-.9.4-1.3 0-.2 0-.3-.1-.4-.1-.1-.1-.2-.2-.2-.4 0-.9.3-1.5 1s-.8 1.5-1 2.1zM52 11c.3 0 .6-.1.8-.1h.6c.2 0 .4 0 .4.1.2 0 .2 0 .2.1 0 .2-.2.4-.5.4-.4 0-.8.1-1.1.1-.4 0-.5.1-.6.1 0 0-.1.4-.3 1-.1.7-.2 1.1-.2 1.3 0 .3 0 .5.1.6.1.1.2.2.4.2s.6-.2 1-.6c.2-.2.3-.2.4-.2.1 0 .2.1.2.2 0 .2-.2.5-.6.8-.4.3-.8.5-1.2.5-.7 0-1-.4-1-1.2 0-.3.1-.8.2-1.4.1-.6.2-1 .2-1.1 0 0 0-.1-.1-.1h-.4c-.4 0-.6-.1-.6-.4 0-.2.1-.3.3-.3h.8c.1 0 .1 0 .2-.1 0-.1.1-.2.2-.6.1-.3.2-.6.2-.9.1-.3.2-.5.4-.5.1 0 .2 0 .3.1.1.1.1.2.1.2s-.1.2-.2.6L52 11zm6.1 2.9c0 .3-.3.6-.8 1.1-.5.4-1.1.6-1.6.6s-.8-.1-1.1-.4c-.3-.3-.4-.7-.4-1.1 0-.8.3-1.6.8-2.4s1.2-1.1 1.8-1.1c.2 0 .4.1.5.2.1.1.2.3.2.5 0 .4-.2.9-.6 1.3-.4.4-1 .8-1.7 1.2-.1.1-.2.2-.2.3 0 .2.1.4.2.6.1.1.3.2.6.2.6 0 1.2-.3 1.9-1 .1-.1.2-.1.2-.1.1-.1.2 0 .2.1zm-3-.7c1.2-.7 1.8-1.3 1.8-1.8 0-.2-.1-.3-.2-.3-.3 0-.6.2-.9.6-.3.5-.6 1-.7 1.5zm6.8-1.2c-.1 0-.3.1-.5.3s-.4.7-.8 1.4c-.5.9-.8 1.4-.9 1.6-.1.1-.3.2-.3.2-.3 0-.5-.2-.5-.5 0-.1 0-.3.1-.6.2-.9.2-1.8.2-2.8 0-.1 0-.2.1-.4.1-.1.2-.2.3-.2.1 0 .3 0 .3.1.1.1.1.3.1.6s-.1.9-.3 1.8c-.1.3-.1.5-.1.6v.1s.2-.3.6-1c.4-.7.7-1.2.9-1.5.3-.3.6-.4.9-.4.3 0 .5.1.6.4.2.2.3.7.4 1.3.1.7.2 1.2.2 1.3s.2.3.3.3c.1 0 .2 0 .3-.1h.1c.1 0 .2.1.2.2s-.1.3-.3.4c-.2.1-.4.2-.6.2-.2 0-.4-.1-.6-.3s-.2-.7-.3-1.6c.1-.9-.1-1.4-.4-1.4zm3.8 2.4c0 .2 0 .5.1.7v.1c0 .1 0 .1-.1.2s-.2.1-.3.1c-.3 0-.4-.3-.4-.8s.1-1.4.3-2.5c.1-.4.1-.6.1-.7 0-.2 0-.3.1-.5s.2-.2.3-.2c.1 0 .3 0 .3.1.1.1.1.1.1.2s0 .2-.1.3c-.2.8-.3 1.3-.4 1.6s0 1 0 1.4zm.5-4.8c-.1 0-.1-.1-.1-.2v-.1c-.1-.2-.1-.4-.1-.5 0-.1.1-.2.2-.4.1-.1.3-.2.5-.2.1 0 .2 0 .3.1v.2c0 .1 0 .3-.1.5s-.2.4-.3.5c-.2 0-.3.1-.4.1zm2.1 4.1c0-.1.1-.1.1-.2.2-.5.4-.8.5-1.1s.3-.5.5-.7l.5-.5c.2-.1.3-.2.4-.3.1 0 .3-.1.4-.1.3 0 .5.1.6.2.2.2.2.3.2.5 0 .1 0 .2-.1.2-.1.1-.1.1-.3.1-.1 0-.2-.1-.3-.2-.1-.1-.2-.2-.3-.2-.3 0-.7.4-1.2 1.1-.5.7-.8 1.5-1 2.4 0 .2-.1.4-.2.4-.1.1-.2.1-.3.1-.1 0-.2-.1-.3-.3s-.1-.6-.1-1.1v-.9c0-.5.1-1 .1-1.3v-.4c0-.2 0-.4.1-.5 0-.1.1-.2.2-.2.1-.1.2-.1.3-.1.1 0 .2 0 .2.1.1.1.1.1.1.2s0 .3-.1.5-.1.4-.1.5v.3c0 .1-.1.5-.1 1v.5zm9.3.7c0-.2-.2-.4-.7-.6-.6-.3-1-.5-1.2-.7-.2-.2-.3-.4-.3-.6 0-.6.3-1.1.9-1.4.6-.4 1-.6 1.4-.6.2 0 .4 0 .5.1.1.1.2.2.2.4 0 .1 0 .2-.1.2-.1.1-.1.1-.2.1 0 0-.1 0-.2-.1-.1 0-.2-.1-.2-.1-.1 0-.4.1-.9.3-.4.2-.7.4-.7.7 0 .2.1.3.2.4s.4.3.8.5c.3.2.6.3.8.5.2.2.3.4.3.6 0 .4-.3.8-.9 1-.6.3-1.2.4-1.7.4s-.7-.2-.7-.5c0-.1.1-.2.2-.2.1-.1.2-.1.3-.1h.4c.3 0 .7-.1 1-.2.5.2.7 0 .8-.1zm4.6-.9c-.4.6-.7 1.1-1.1 1.4-.4.3-.7.5-1.1.5-.2 0-.4-.1-.6-.3-.2-.2-.3-.6-.3-1s.1-.9.3-1.7c.2-.6.2-1 .2-1.3.1-.2.2-.3.4-.3.1 0 .2 0 .3.1.1.1.1.2.1.3 0 .2-.1.5-.2.9-.3.7-.4 1.3-.4 1.9 0 .5.1.7.3.7.3 0 .6-.2 1.1-.7.4-.5.8-1.1 1.1-2 .1-.3.2-.6.3-.7.1-.1.2-.2.3-.2.2 0 .3.1.3.4 0 0 0 .1-.1.3-.2.6-.3 1.2-.3 1.8 0 .7.1 1.1.3 1.3.1.1.2.2.2.3 0 .1-.1.2-.2.2-.1.1-.2.1-.3.1-.2 0-.4-.1-.5-.5-.1-.3-.2-.7-.2-1.3v-.1c.1 0 .1-.1.1-.1zm3.2.2c0-.1.1-.1.1-.2.2-.5.4-.8.5-1.1s.3-.5.5-.7l.5-.5c.2-.1.3-.2.4-.3.1 0 .3-.1.4-.1.3 0 .5.1.6.2.2.2.2.3.2.5 0 .1 0 .2-.1.2-.1.1-.1.1-.3.1-.1 0-.2-.1-.3-.2-.1-.1-.2-.2-.3-.2-.3 0-.7.4-1.2 1.1-.5.7-.8 1.5-1 2.4 0 .2-.1.4-.2.4-.1.1-.2.1-.3.1-.1 0-.2-.1-.3-.3s-.1-.6-.1-1.1v-.9c0-.5.1-1 .1-1.3v-.4c0-.2 0-.4.1-.5 0-.1.1-.2.2-.2.1-.1.2-.1.3-.1.1 0 .2 0 .2.1.1.1.1.1.1.2s0 .3-.1.5-.1.4-.1.5v.3c0 .1-.1.5-.1 1v.5z" class="st6 st1"/></g></svg>