<svg id="Logo_GTR_Court_-_Vecto" xmlns="http://www.w3.org/2000/svg" viewBox="0 0 40 50"><style>.st0{fill:#0af}.st1{fill:#fff}</style><title>Plan de travail 1</title><path class="st0" d="M39.5 19.8v-.5C39.2 8.5 30.2-.1 19.4.2S-.1 9.5.2 20.3c.3 10.7 9 19.2 19.6 19.2h19.6V20c.1-.1.1-.1.1-.2z"/><path class="st1" d="M13.8 21.2c1.1 0 2.2-.1 3.2-.3.2 0 .3-.1.3-.3v-4.9c0-.2-.1-.3-.3-.3h-1.9c-.2 0-.3.1-.3.3V19h-1.1c-.7 0-1.6-.5-1.6-2.5v-1.7c0-1.9.7-2.5 1.9-2.5s2.3.1 3 .1c.1 0 .2 0 .2-.2v-1.5c0-.1-.1-.2-.3-.2-1-.2-2-.3-3-.3-2.1 0-4.4.9-4.4 4.6v1.8c.2 3.7 2.7 4.6 4.3 4.6zm15.5-.1h6.6c.2 0 .3-.1.3-.3v-1.6c0-.1-.1-.3-.3-.3h-4c-.1 0-.2 0-.2-.1s0-.1.1-.2l4.1-6.3c.1-.1.1-.2.1-.4v-1.4c0-.3-.3-.4-.6-.4h-6.3c-.2 0-.3.1-.3.3V12c0 .2.1.3.3.3h3.7c.1 0 .2 0 .2.1s0 .1-.1.1l-4 6.1c-.1.2-.2.4-.2.6v1.2c0 .5.3.7.6.7zm-17.9 9c0 .1.1.2.2.2h1.3c.1 0 .2-.1.2-.2v-5.8h1.6c.1 0 .2-.1.2-.2v-1c0-.1-.1-.2-.2-.2h-5c-.1 0-.2.1-.2.2v1c0 .1.1.2.2.2h1.6l.1 5.8zm5 0l.4-1.6h2l.4 1.6c0 .1.1.2.2.2h1.4c.1 0 .2-.1.2-.1L19.5 24c-.2-.7-.9-1.2-1.6-1.1-.8-.1-1.5.4-1.7 1.1l-1.5 6.2c0 .1.1.2.2.2h1.4c0-.1.1-.2.1-.3zm1.3-5.7c0-.1 0-.1.1-.1s.1 0 .1.1l.6 2.8H17l.7-2.8zm9.9 5.8v-.1l-1.5-2.8c.8-.3 1.3-1.1 1.3-2v-.1c0-1.8-1.3-2.3-3-2.3-.7 0-1.3 0-2 .1-.3 0-.5.1-.5.5v6.7c0 .1.1.2.2.2h1.3c.1 0 .2-.1.2-.2v-2.5h.8l1.3 2.5c0 .1.1.2.2.2h1.5l.2-.2zm-2-4.9c0 .7-.3 1-1.4 1h-.7v-2h.8c.8 0 1.3.3 1.3.9v.1zm4.6 5c.1 0 .2-.1.2-.2v-7c0-.1-.1-.2-.2-.2h-1.3c-.1 0-.2.1-.2.2v7c0 .1.1.2.2.2h1.3zm5.9-7.4c-.6-.1-1.3-.1-1.9-.1-1.3 0-2.4.3-2.4 2.1v5.2c0 .1.1.2.2.2h1.3c.1 0 .2-.1.2-.2v-2.9H36c.1 0 .2-.1.2-.2v-1c0-.1-.1-.2-.2-.2h-2.6v-.9c0-.5.2-.7.6-.7h2c.1 0 .2-.1.2-.2v-.9c.1-.1 0-.2-.1-.2zM11.8 34.2c.4-.1.6-.5.6-.9v-.1c0-.8-.6-1-1.3-1-.3 0-.6 0-.9.1-.1 0-.2.1-.2.2v2.9s0 .1.1.1h.6s.1 0 .1-.1v-1.1h.4l.6 1.1s0 .1.1.1h.8l-.9-1.3zm-.2-.9c0 .3-.1.4-.6.4h-.3v-.8h.3c.4 0 .6.1.6.4zm3.1-1c-.3 0-.6-.1-.8-.1-.6 0-1.1.1-1.1.9v1.4c0 .8.5.9 1.1.9.3 0 .6 0 .8-.1.1 0 .1 0 .1-.1V35s0-.1-.1-.1h-.9c-.2 0-.3-.1-.3-.3v-.5h1.1s.1 0 .1-.1v-.4s0-.1-.1-.1h-1.1v-.4c0-.2.1-.3.3-.3h.9s.1 0 .1-.1v-.4h-.1zm-.8-.9c-.1 0-.1 0-.1.1l-.4.5h.6l.5-.5h-.6zm3.5.9c-.3-.1-.6-.1-.9-.1-.7-.1-1.3.4-1.3 1.1v.8c-.1.7.4 1.3 1 1.4h.2c.3 0 .7 0 1-.1.1 0 .1 0 .1-.1v-1.5s0-.1-.1-.1h-.5s-.1 0-.1.1v1h-.3c-.2 0-.5-.1-.5-.7v-.5c0-.6.2-.7.6-.7h.9s.1 0 .1-.1v-.5h-.2zm2.4 2.6H19c-.2 0-.3-.1-.3-.3v-2.2s0-.1-.1-.1H18s-.1 0-.1.1v2.3c0 .8.5.9 1.1.9.2 0 .5 0 .7-.1.1 0 .1 0 .1-.1V35c.1 0 .1-.1 0-.1.1 0 .1 0 0 0zm2.3-2.6c-.3 0-.6-.1-.8-.1-.6 0-1.1.1-1.1.9v1.4c0 .8.5.9 1.1.9.3 0 .6 0 .8-.1.1 0 .1 0 .1-.1V35s0-.1-.1-.1h-.9c-.2 0-.3-.1-.3-.3v-.5H22s.1 0 .1-.1v-.4s0-.1-.1-.1h-1.2v-.4c0-.2.1-.3.3-.3h.9s.1 0 .1-.1v-.4c.1 0 .1 0 0 0zm3.4 0h-.4c-.1 0-.2 0-.2.1l-.7 1.2-.7-1.2c0-.1-.1-.1-.2-.1h-.5c-.1 0-.1 0-.2.1v3s0 .1.1.1h.6s.1 0 .1-.1v-1.8l.4.7.1.1h.4c.1 0 .1 0 .1-.1l.4-.7v1.8s0 .1.1.1h.6s.1 0 .1-.1v-3c0-.1 0-.1-.1-.1zm2.6 0c-.3 0-.6-.1-.8-.1-.6 0-1.1.1-1.1.9v1.4c0 .8.5.9 1.1.9.3 0 .6 0 .8-.1.1 0 .1 0 .1-.1V35s0-.1-.1-.1h-.9c-.2 0-.3-.1-.3-.3v-.5H28s.1 0 .1-.1v-.4s0-.1-.1-.1h-1.2v-.4c0-.2.1-.3.3-.3h.9s.1 0 .1-.1v-.4c.1 0 .1 0 0 0zm3.1 0h-.5s-.1 0-.1.1v1.8l-1-1.8c0-.1-.1-.1-.2-.1h-.5c-.1 0-.2.1-.2.2v3s0 .1.1.1h.5s.1 0 .1-.1v-1.8l1 1.7c0 .1.1.1.2.1h.4c.1 0 .2-.1.2-.2v-3c.1 0 0 0 0 0zm2.6 0h-2.2s-.1 0-.1.1v.5s0 .1.1.1h.7v2.5s0 .1.1.1h.6s.1 0 .1-.1V33h.7s.1 0 .1-.1l-.1-.6c.1 0 0-.1 0 0zm1.5-.3s.1 0 0 0l.6-.6h-.6c-.1 0-.1 0-.1.1l-.4.5h.5zm.8.3c-.3 0-.6-.1-.8-.1-.6 0-1.1.1-1.1.9v1.4c0 .8.5.9 1.1.9.3 0 .6 0 .8-.1.1 0 .1 0 .1-.1V35s0-.1-.1-.1h-.9c-.2 0-.3-.1-.3-.3v-.5H36s.1 0 .1-.1v-.4s0-.1-.1-.1h-1.1v-.4c0-.2.1-.3.3-.3h.9s.1 0 .1-.1v-.4h-.1zM18.8 21.1h2c.1 0 .3-.1.3-.3l.5-2.4h3l.5 2.4c0 .1.1.3.3.3h2c.1 0 .2-.1.2-.2v-.1l-2.2-9c-.2-1.1-1.3-1.8-2.4-1.6-1-.2-2 .5-2.3 1.6l-2.2 9v.1c.1.1.2.2.3.2zm4.1-8.7c0-.1.1-.2.2-.2s.2.1.2.2l.9 4h-2.1l.8-4z"/><path class="st0" d="M39.1 49.4c-.2 0-.4-.1-.4-.3v-5.9c0-.2.3-.4.5-.3.1 0 .3.2.3.3v5.9c0 .2-.2.3-.4.3zm-23.4-7h.4v1.8c0 .1 0 .2.1.2 0 .1.1.1.2.2.2.1.5.1.7 0 .1 0 .1-.1.2-.2 0-.1.1-.2.1-.2v-1.8h.5V44c0 .1 0 .3-.1.4 0 .1-.1.2-.2.3-.1.1-.2.1-.3.2-.3.1-.6.1-.9 0-.1 0-.2-.1-.3-.2-.1-.1-.2-.2-.2-.3-.1-.1-.1-.3-.1-.4l-.1-1.6zm2.7.7h.4v.3c.1-.1.1-.2.2-.2.1-.1.2-.1.3-.1.2 0 .3 0 .5.2.1.1.2.3.2.5V45h-.4v-1.2c0-.1 0-.2-.1-.3-.1-.1-.2-.1-.3-.1H19c-.1 0-.1.1-.1.1s-.1.1-.1.2V45h-.4v-1.9zm2.5 1.1v.2c0 .1 0 .1.1.2 0 .1.1.1.1.1h.2c.1 0 .2 0 .3-.1.1 0 .2-.1.3-.2h.4c0 .2-.1.4-.3.5-.1.1-.2.1-.3.1h-.3c-.1 0-.3 0-.4-.1-.1 0-.2-.1-.3-.2-.1-.1-.1-.2-.2-.3 0-.1-.1-.3-.1-.4 0-.1 0-.3.1-.4 0-.1.1-.2.2-.3.2-.2.4-.3.6-.3.1 0 .3 0 .4.1.1.1.2.1.3.2.1.1.1.2.2.3v.4l-1.3.2zm1-.3v-.2c0-.1-.1-.1-.1-.2l-.1-.1h-.4c-.1 0-.1.1-.1.1s-.1.1-.1.2v.2h.8zm2-.8h.4v.3l.1-.1.1-.1.1-.1h.2c.1 0 .2 0 .3.1.1 0 .2.1.2.2.1-.1.1-.2.2-.2.1-.1.2-.1.3-.1.2 0 .3 0 .5.1.1.1.2.3.2.5V45h-.4v-1.5l-.1-.1h-.2c-.1 0-.2 0-.3.1-.1.1-.1.2-.1.4V45H25v-1.2c0-.1 0-.2-.1-.3-.1-.1-.2-.1-.3-.1h-.1l-.1.1s-.1.1-.1.2V45h-.5v-1.9zm4.9 1.5v.1h.2v.3h-.4c-.1 0-.1-.1-.1-.2-.1.1-.2.1-.3.2-.1 0-.2.1-.3 0h-.2c-.1 0-.1-.1-.2-.1s-.1-.1-.1-.2-.1-.2 0-.2c0-.1 0-.2.1-.3 0-.1.1-.1.2-.2.1 0 .1-.1.2-.1h.7s.1 0 .1-.1v-.2l-.1-.1h-.3c-.1 0-.2 0-.3.1-.1 0-.1.1-.1.2h-.5c0-.1 0-.2.1-.3 0-.1.1-.1.2-.2.1 0 .2-.1.3-.1h.6c.1 0 .2 0 .2.1.1 0 .1.1.2.2 0 .1.1.2.1.3v.8zm-.4-.5c-.1 0-.1.1-.2.1h-.5l-.1.1v.2l.1.1h.4l.2-.1.1-.1v-.3zm1-1h.4v.4c0-.1 0-.1.1-.2l.1-.1s.1-.1.2-.1h.4v.4h-.4c-.1 0-.1.1-.2.1 0 .1-.1.1-.1.2V45h-.4l-.1-1.9zm3.1 2.6h-.4v-.9l-.1.1-.2.1h-.4c-.2 0-.5-.1-.6-.3-.1-.1-.1-.2-.2-.3v-.8c0-.1.1-.2.2-.3.1-.1.2-.2.3-.2.1-.1.2-.1.4-.1.1 0 .2 0 .3.1.1 0 .2.1.2.2V43h.4l.1 2.7zm-1.4-1.6v.2c0 .1 0 .1.1.2 0 .1.1.1.2.2.1 0 .2.1.2.1.2 0 .3-.1.4-.2.1-.1.1-.3.1-.5s0-.3-.1-.5c-.1-.1-.2-.2-.4-.2-.1 0-.2 0-.2.1-.1 0-.1.1-.2.2 0 .1-.1.1-.1.2v.2zm3.7.9h-.4v-.3c-.1.1-.1.2-.2.2-.1.1-.2.1-.3.1-.2 0-.4 0-.5-.2-.1-.2-.2-.3-.2-.5v-1.2h.4v1.1c0 .1 0 .2.1.3.1.1.2.1.3.1h.2c.1 0 .1-.1.1-.1s.1-.1.1-.2V43h.4v2zm.9-.8v.2c0 .1 0 .1.1.2 0 .1.1.1.2.1h.2c.1 0 .2 0 .3-.1l.2-.2h.3c0 .2-.1.4-.3.5-.1.1-.2.1-.3.1h-.3c-.1 0-.3 0-.4-.1-.1 0-.2-.1-.3-.2-.1-.1-.1-.2-.2-.3 0-.1-.1-.3-.1-.4 0-.1 0-.3.1-.4 0-.1.1-.2.2-.3.2-.2.4-.3.7-.3.1 0 .3 0 .4.1.1.1.2.1.3.2.1.1.1.2.2.3v.4l-1.3.2zm1-.3v-.2c0-.1-.1-.1-.1-.2l-.1-.1h-.4c-.1 0-.1.1-.2.1 0 0-.1.1-.1.2v.2h.9zM7.9 49.2h-.4v-.3c-.1.1-.1.2-.2.2s-.2.1-.3.1c-.1 0-.3 0-.4-.1-.1 0-.2-.1-.3-.2-.1-.1-.1-.2-.2-.3 0-.1-.1-.3-.1-.4 0-.1 0-.3.1-.4 0-.1.1-.2.2-.3.1-.1.2-.1.3-.2.1 0 .2-.1.3 0h.4l.1.1.1.1v-.9h.4v2.6zm-1.4-.9v.2c0 .1 0 .1.1.2 0 .1.1.1.2.1s.2.1.2 0c.1 0 .2 0 .2-.1.1 0 .1-.1.2-.2 0-.1.1-.1.1-.2v-.2c0-.2 0-.3-.1-.5-.1-.1-.2-.2-.4-.2-.1 0-.2 0-.2.1-.1 0-.1.1-.2.2 0 .1-.1.1-.1.2v.4zm3.7.9h-.4v-.3c-.1.1-.1.2-.2.2-.1.1-.2.1-.3.1-.2 0-.4 0-.5-.2-.1-.2-.2-.3-.2-.5v-1.2H9v1.1c0 .1 0 .2.1.3.1.1.2.1.3.1h.2c.1 0 .1-.1.1-.1s.1-.1.1-.2v-1.3h.4v2zm3.5-.1c0 .2-.1.5-.2.6-.2.1-.4.2-.7.2h-.3c-.1 0-.2-.1-.3-.1-.1 0-.1-.1-.2-.2v-.2h.4c0 .1 0 .1.1.1l.1.1h.3c.1 0 .3 0 .4-.1.1-.1.1-.2.1-.3v-.3c-.1.1-.1.2-.2.2-.1.1-.2.1-.3.1-.1 0-.3 0-.4-.1-.1 0-.2-.1-.3-.2-.1-.1-.1-.2-.2-.3v-.4c0-.1 0-.2.1-.3 0-.1.1-.2.2-.3.1-.1.2-.2.3-.2.1 0 .2-.1.4-.1.1 0 .2 0 .3.1.1 0 .2.1.2.2v-.3h.4l-.2 1.8zm-.9-.2c.2 0 .3-.1.4-.2 0-.1.1-.1.1-.2v-.4c0-.1 0-.1-.1-.2 0-.1-.1-.1-.1-.1-.1 0-.2-.1-.2 0-.1 0-.2 0-.2.1-.1 0-.1.1-.1.2s-.1.1-.1.2v.4c0 .1 0 .1.1.2 0 .1.1.1.1.1-.1-.2 0-.1.1-.1zm1.5-1.6h.4v.4c0-.1 0-.1.1-.2l.1-.1s.1-.1.2-.1h.3v.4H15c-.1 0-.1.1-.2.1 0 .1-.1.1-.1.2v1.2h-.4v-1.9zm2.2 1.9c-.1 0-.3 0-.4-.1-.1 0-.2-.1-.3-.2-.1-.1-.1-.2-.2-.3 0-.1-.1-.3-.1-.4 0-.1 0-.3.1-.4 0-.1.1-.2.2-.3.1-.1.2-.2.3-.2.3-.1.5-.1.8 0 .1 0 .2.1.3.2.1.1.1.2.2.3 0 .1.1.3.1.4 0 .1 0 .3-.1.4 0 .1-.1.2-.2.3-.1.1-.2.2-.3.2-.1.1-.3.1-.4.1zm0-.3c.1 0 .2 0 .2-.1.1 0 .1-.1.2-.2 0-.1.1-.1.1-.2v-.5c0-.1 0-.1-.1-.2 0-.1-.1-.1-.2-.2s-.3-.1-.5 0c-.1 0-.1.1-.2.2 0 .1-.1.1-.1.2v.5c0 .1 0 .1.1.2 0 .1.1.1.2.2s.2.1.3.1zm3.1.3h-.4v-.3c-.1.1-.1.2-.2.2-.1.1-.2.1-.3.1-.2 0-.4 0-.5-.2-.1-.2-.2-.3-.2-.5v-1.2h.4v1.1c0 .1 0 .2.1.3.1.1.2.1.3.1h.2c.1 0 .1-.1.1-.1s.1-.1.1-.2v-1.3h.4v2zm.6-1.9h.4v.3c.1-.1.1-.2.2-.2s.2-.1.3-.1c.1 0 .3 0 .4.1.1 0 .2.1.3.2.1.1.1.2.2.3 0 .1.1.3 0 .4v.4c0 .1-.1.2-.1.3-.1.2-.4.3-.6.3h-.4l-.1-.1-.1-.1v.9h-.4l-.1-2.7zm1.4 1v-.2c0-.1-.1-.1-.1-.2s-.1-.1-.2-.2c-.1 0-.1-.1-.2-.1-.2 0-.3.1-.4.2-.1.1-.1.3-.1.5v.3c0 .1.1.1.1.2s.1.1.2.1h.2c.1 0 .2 0 .2-.1.1 0 .1-.1.2-.2 0-.1.1-.1.1-.2v-.1zm1.2.1v.2c0 .1 0 .1.1.2 0 .1.1.1.1.1h.2c.1 0 .2 0 .3-.1l.2-.2h.4c0 .2-.1.4-.3.5-.1.1-.2.1-.3.1h-.3c-.1 0-.3 0-.4-.1-.1 0-.2-.1-.3-.2-.1-.1-.1-.2-.2-.3 0-.1-.1-.3-.1-.4 0-.1 0-.3.1-.4 0-.1.1-.2.2-.3.2-.2.4-.3.6-.3.1 0 .3 0 .4.1.1.1.2.1.3.2.1.1.1.2.2.3v.4l-1.2.2zm1-.3v-.2c0-.1-.1-.1-.1-.2l-.1-.1h-.4c-.1 0-.1.1-.1.1s-.1.1-.1.2v.2h.8zm2.1-1.5h1.8v.4h-1.4v.7h1.3v.3h-1.3v.8h1.4v.4h-1.9v-2.6zm2.4 0h.5l1.2 1.9v-1.9h.4v2.5h-.5l-1.2-1.9v1.9h-.4v-2.5zm5 2.6H33v-.3c-.1.1-.2.2-.4.3-.1.1-.3.1-.4.1-.2 0-.4 0-.5-.1-.1-.1-.3-.2-.4-.3-.1-.1-.2-.3-.2-.4-.1-.3-.1-.7 0-1 .1-.2.1-.3.2-.4.1-.1.2-.2.4-.3.2-.1.3-.1.5-.1.1 0 .3 0 .4.1.1 0 .2.1.3.2.1.1.2.2.2.3.1.1.1.2.1.4h-.4c0-.2-.1-.3-.2-.4-.1 0-.1-.1-.2-.1h-.2c-.1 0-.2 0-.4.1-.1.1-.2.1-.2.2-.1.1-.1.2-.1.3-.1.2-.1.5 0 .7 0 .1.1.2.1.3.1.1.1.2.2.2.1.1.2.1.4.1h.3c.1 0 .2-.1.2-.1.1-.1.1-.1.1-.2v-.3h-.7v-.3h1.1l.1 1zm.7-2.6h.5v2.5H34v-2.5zm1.2 0H37v.4h-1.4v.7h1.3v.3h-1.3v.8H37v.4h-1.8v-2.6z"/></svg>