<svg id="Calque_1" xmlns="http://www.w3.org/2000/svg" viewBox="0 0 1110 150"><style>.st0{fill:#f99090;fill-opacity:.815}.st1{fill:#ff697b}.st2{fill:#dc5868}.st3{fill:#faba51;fill-opacity:.754}.st4{fill:#f6a623}.st5{fill:#b07617}.st6{fill:#d8911d}.st7{fill:#059ce7}.st8{fill:#0078b4}.st9{fill:#00cbd2}.st10{fill:url(#SVGID_1_)}.st11{fill:#48bfc5}.st12{fill:#fff}.st13{fill:#d8d8d8}.st14{fill:#e64f65}.st15{fill:#ecebea}.st16{fill:#606060}.st17{fill:#5ad9e0}.st18{fill:url(#SVGID_2_)}.st19{fill:#e62d87}.st20{fill:#980044}.st21{fill:#b90857}</style><path class="st0" d="M1018.2 74.6c.8 0 1.4-.7 1.4-1.5s-.6-1.5-1.4-1.5-1.4.7-1.4 1.5.7 1.5 1.4 1.5zm-1.1 5.6c.8 0 1.4-.7 1.4-1.5 0-.9-.6-1.5-1.4-1.5-.8 0-1.4.7-1.4 1.5s.6 1.5 1.4 1.5zm.6 5.5c.8 0 1.4-.7 1.4-1.5 0-.9-.6-1.5-1.4-1.5-.8 0-1.4.7-1.4 1.5s.6 1.5 1.4 1.5zm2.2 5c.8 0 1.4-.7 1.4-1.5s-.6-1.5-1.4-1.5-1.4.7-1.4 1.5.7 1.5 1.4 1.5zm2.9 4.9c.8 0 1.4-.7 1.4-1.5 0-.9-.6-1.5-1.4-1.5-.8 0-1.4.7-1.4 1.5s.6 1.5 1.4 1.5zm1.1 4.9c.8 0 1.4-.7 1.4-1.5s-.6-1.5-1.4-1.5c-.8 0-1.4.7-1.4 1.5s.6 1.5 1.4 1.5zm0 5c.8 0 1.4-.7 1.4-1.5s-.6-1.5-1.4-1.5c-.8 0-1.4.7-1.4 1.5s.6 1.5 1.4 1.5zm-1.1 4.9c.8 0 1.4-.7 1.4-1.5 0-.9-.6-1.5-1.4-1.5-.8 0-1.4.7-1.4 1.5s.6 1.5 1.4 1.5zm-2.9 4.9c.8 0 1.4-.7 1.4-1.5s-.6-1.5-1.4-1.5-1.4.7-1.4 1.5.7 1.5 1.4 1.5zm-3.4 3.1c.8 0 1.4-.7 1.4-1.5s-.6-1.5-1.4-1.5c-.8 0-1.4.7-1.4 1.5s.7 1.5 1.4 1.5zm-4.5 1.9c.8 0 1.4-.7 1.4-1.5s-.6-1.5-1.4-1.5-1.4.7-1.4 1.5.6 1.5 1.4 1.5zm-5.1.6c.8 0 1.4-.7 1.4-1.5s-.6-1.5-1.4-1.5-1.4.7-1.4 1.5.7 1.5 1.4 1.5zm-4.5-.6c.8 0 1.4-.7 1.4-1.5s-.6-1.5-1.4-1.5c-.8 0-1.4.7-1.4 1.5s.6 1.5 1.4 1.5zm-3.9-1.9c.8 0 1.4-.7 1.4-1.5s-.6-1.5-1.4-1.5-1.4.7-1.4 1.5c-.1.8.6 1.5 1.4 1.5zm-4-3.1c.8 0 1.4-.7 1.4-1.5s-.6-1.5-1.4-1.5c-.8 0-1.4.7-1.4 1.5s.6 1.5 1.4 1.5zm-2.8-4.3c.8 0 1.4-.7 1.4-1.5s-.6-1.5-1.4-1.5-1.4.7-1.4 1.5.6 1.5 1.4 1.5zm38.4-21c.8 0 1.4-.7 1.4-1.5s-.6-1.5-1.4-1.5-1.4.7-1.4 1.5.6 1.5 1.4 1.5zm34.5-24c.8 0 1.4-.7 1.4-1.5 0-.9-.6-1.5-1.4-1.5-.8 0-1.4.7-1.4 1.5s.6 1.5 1.4 1.5zm-1.1 4.9c.8 0 1.4-.7 1.4-1.5 0-.9-.6-1.5-1.4-1.5-.8 0-1.4.7-1.4 1.5s.6 1.5 1.4 1.5zm-3.4 3.1c.8 0 1.4-.7 1.4-1.5 0-.9-.6-1.5-1.4-1.5-.8 0-1.4.7-1.4 1.5s.6 1.5 1.4 1.5zm-4.5 1.8c.8 0 1.4-.7 1.4-1.5 0-.9-.6-1.5-1.4-1.5s-1.4.7-1.4 1.5c-.1.9.6 1.6 1.4 1.5zm-5.1 0c.8 0 1.4-.7 1.4-1.5 0-.9-.6-1.5-1.4-1.5s-1.4.7-1.4 1.5c0 .9.6 1.6 1.4 1.5zm-4.6 0c.8 0 1.4-.7 1.4-1.5 0-.9-.6-1.5-1.4-1.5-.8 0-1.4.7-1.4 1.5 0 .9.7 1.6 1.4 1.5zm-10.1 0c.8 0 1.4-.7 1.4-1.5 0-.9-.6-1.5-1.4-1.5-.8 0-1.4.7-1.4 1.5 0 .9.6 1.6 1.4 1.5zm-5.1 2.5c.8 0 1.4-.7 1.4-1.5s-.6-1.5-1.4-1.5c-.8 0-1.4.7-1.4 1.5s.6 1.5 1.4 1.5zm-2.8 5.6c.8 0 1.4-.7 1.4-1.5s-.6-1.5-1.4-1.5c-.8 0-1.4.7-1.4 1.5s.6 1.5 1.4 1.5zm6.7 8c.8 0 1.4-.7 1.4-1.5 0-.9-.6-1.5-1.4-1.5-.8 0-1.4.7-1.4 1.5s.7 1.5 1.4 1.5zm4.6-1.9c.8 0 1.4-.7 1.4-1.5s-.6-1.5-1.4-1.5c-.8 0-1.4.7-1.4 1.5s.6 1.5 1.4 1.5zm2.2-4.3c.8 0 1.4-.7 1.4-1.5 0-.9-.6-1.5-1.4-1.5-.8 0-1.4.7-1.4 1.5s.6 1.5 1.4 1.5zm.6-4.9c.8 0 1.4-.7 1.4-1.5s-.6-1.5-1.4-1.5-1.4.7-1.4 1.5.6 1.5 1.4 1.5zm-.6-4.9c.8 0 1.4-.7 1.4-1.5s-.6-1.5-1.4-1.5c-.8 0-1.4.7-1.4 1.5s.6 1.5 1.4 1.5zm-2.8-4.4c.8 0 1.4-.7 1.4-1.5s-.6-1.5-1.4-1.5-1.4.7-1.4 1.5.6 1.5 1.4 1.5zm-3.4-3.1c.8 0 1.4-.7 1.4-1.5 0-.9-.6-1.5-1.4-1.5s-1.4.7-1.4 1.5.6 1.5 1.4 1.5zm-5.1-1.2c.8 0 1.4-.7 1.4-1.5s-.6-1.5-1.4-1.5-1.4.7-1.4 1.5.6 1.5 1.4 1.5zm-4.5.6c.8 0 1.4-.7 1.4-1.5 0-.9-.6-1.5-1.4-1.5-.8 0-1.4.7-1.4 1.5s.6 1.5 1.4 1.5zm-4.5 2.5c.8 0 1.4-.7 1.4-1.5s-.6-1.5-1.4-1.5c-.8 0-1.4.7-1.4 1.5s.6 1.5 1.4 1.5zm-58.8 71.5c.8 0 1.4-.7 1.4-1.5s-.6-1.5-1.4-1.5c-.8 0-1.4.7-1.4 1.5 0 .9.6 1.5 1.4 1.5zm1.1-5.5c.8 0 1.4-.7 1.4-1.5s-.6-1.5-1.4-1.5c-.8 0-1.4.7-1.4 1.5s.6 1.5 1.4 1.5zm-.6-5.6c.8 0 1.4-.7 1.4-1.5s-.6-1.5-1.4-1.5-1.4.7-1.4 1.5c0 .9.7 1.5 1.4 1.5zm-2.2-4.9c.8 0 1.4-.7 1.4-1.5 0-.9-.6-1.5-1.4-1.5-.8 0-1.4.7-1.4 1.5s.6 1.5 1.4 1.5zm-2.8-4.9c.8 0 1.4-.7 1.4-1.5s-.6-1.5-1.4-1.5-1.4.7-1.4 1.5c-.1.8.6 1.5 1.4 1.5zm-1.2-5c.8 0 1.4-.7 1.4-1.5 0-.9-.6-1.5-1.4-1.5-.8 0-1.4.7-1.4 1.5s.6 1.5 1.4 1.5zm0-4.9c.8 0 1.4-.7 1.4-1.5s-.6-1.5-1.4-1.5c-.8 0-1.4.7-1.4 1.5s.6 1.5 1.4 1.5zm1.2-4.9c.8 0 1.4-.7 1.4-1.5s-.6-1.5-1.4-1.5-1.4.7-1.4 1.5c-.1.8.6 1.5 1.4 1.5zm2.8-5c.8 0 1.4-.7 1.4-1.5 0-.9-.6-1.5-1.4-1.5-.8 0-1.4.7-1.4 1.5s.6 1.5 1.4 1.5zm3.4-3c.8 0 1.4-.7 1.4-1.5 0-.9-.6-1.5-1.4-1.5-.8 0-1.4.7-1.4 1.5s.6 1.5 1.4 1.5zm4.5-1.9c.8 0 1.4-.7 1.4-1.5s-.6-1.5-1.4-1.5c-.8 0-1.4.7-1.4 1.5s.6 1.5 1.4 1.5zm5.1-.6c.8 0 1.4-.7 1.4-1.5 0-.9-.6-1.5-1.4-1.5-.8 0-1.4.7-1.4 1.5s.6 1.5 1.4 1.5zm4.5.6c.8 0 1.4-.7 1.4-1.5s-.6-1.5-1.4-1.5-1.4.7-1.4 1.5.6 1.5 1.4 1.5zm4 1.9c.8 0 1.4-.7 1.4-1.5 0-.9-.6-1.5-1.4-1.5-.8 0-1.4.7-1.4 1.5s.6 1.5 1.4 1.5zm3.9 3c.8 0 1.4-.7 1.4-1.5 0-.9-.6-1.5-1.4-1.5-.8 0-1.4.7-1.4 1.5s.6 1.5 1.4 1.5zm2.8 4.4c.8 0 1.4-.7 1.4-1.5s-.6-1.5-1.4-1.5c-.8 0-1.4.7-1.4 1.5s.7 1.5 1.4 1.5zm-72.3 44.4c.8 0 1.4-.7 1.4-1.5 0-.9-.6-1.5-1.4-1.5-.8 0-1.4.7-1.4 1.5s.6 1.5 1.4 1.5zm2.8-4.4c.8 0 1.4-.7 1.4-1.5s-.6-1.5-1.4-1.5-1.4.7-1.4 1.5c0 .9.6 1.5 1.4 1.5zm3.4-3c.8 0 1.4-.7 1.4-1.5s-.6-1.5-1.4-1.5-1.4.7-1.4 1.5.6 1.5 1.4 1.5zm4.5-1.9c.8 0 1.4-.7 1.4-1.5 0-.9-.6-1.5-1.4-1.5-.8 0-1.4.7-1.4 1.5s.6 1.5 1.4 1.5zm5.1 0c.8 0 1.4-.7 1.4-1.5 0-.9-.6-1.5-1.4-1.5-.8 0-1.4.7-1.4 1.5s.6 1.5 1.4 1.5zm5.1 1.9c.8 0 1.4-.7 1.4-1.5s-.6-1.5-1.4-1.5c-.8 0-1.4.7-1.4 1.5s.6 1.5 1.4 1.5zm4 3c.8 0 1.4-.7 1.4-1.5s-.6-1.5-1.4-1.5-1.4.7-1.4 1.5c-.1.9.6 1.5 1.4 1.5zm3.9 2.5c.8 0 1.4-.7 1.4-1.5s-.6-1.5-1.4-1.5c-.8 0-1.4.7-1.4 1.5s.6 1.5 1.4 1.5zm5.1 1.2c.8 0 1.4-.7 1.4-1.5 0-.9-.6-1.5-1.4-1.5-.8 0-1.4.7-1.4 1.5s.6 1.5 1.4 1.5zm4.5-.6c.8 0 1.4-.7 1.4-1.5s-.6-1.5-1.4-1.5c-.8 0-1.4.7-1.4 1.5s.6 1.5 1.4 1.5zm4.5-2.4c.8 0 1.4-.7 1.4-1.5 0-.9-.6-1.5-1.4-1.5s-1.4.7-1.4 1.5.7 1.5 1.4 1.5z"/><path class="st1" d="M1109.6 34.4l-58.3 8.4 7.2 6.4 4.7 11 4.2-2.5 5.8 5.4 36.4-28.7z"/><path class="st2" d="M1109.6 34.7l-51.1 14.8 4.7 11 2.1-4.5 44.3-21.3z"/><path class="st3" d="M197.6 52.4c.8 0 1.4-.7 1.4-1.5s-.6-1.5-1.4-1.5-1.4.7-1.4 1.5c0 .9.6 1.5 1.4 1.5zm-1.4 6.7c.8 0 1.4-.7 1.4-1.5s-.6-1.5-1.4-1.5-1.4.7-1.4 1.5.6 1.5 1.4 1.5zm.7 6.7c.8 0 1.4-.7 1.4-1.5s-.6-1.5-1.4-1.5-1.4.7-1.4 1.5c0 .9.6 1.5 1.4 1.5zm2.7 6c.8 0 1.4-.7 1.4-1.5s-.6-1.5-1.4-1.5-1.4.7-1.4 1.5.7 1.5 1.4 1.5zm3.5 6c.8 0 1.4-.7 1.4-1.5s-.6-1.5-1.4-1.5-1.4.7-1.4 1.5.6 1.5 1.4 1.5zm1.4 5.9c.8 0 1.4-.7 1.4-1.5s-.6-1.5-1.4-1.5-1.4.7-1.4 1.5c0 .9.6 1.5 1.4 1.5zm0 6c.8 0 1.4-.7 1.4-1.5s-.6-1.5-1.4-1.5-1.4.7-1.4 1.5.6 1.5 1.4 1.5zm-1.4 5.9c.8 0 1.4-.7 1.4-1.5s-.6-1.5-1.4-1.5-1.4.7-1.4 1.5c0 .9.6 1.5 1.4 1.5zm-3.5 6c.8 0 1.4-.7 1.4-1.5s-.6-1.5-1.4-1.5-1.4.7-1.4 1.5.7 1.5 1.4 1.5zm-4.1 3.7c.8 0 1.4-.7 1.4-1.5s-.6-1.5-1.4-1.5-1.4.7-1.4 1.5c0 .9.6 1.5 1.4 1.5zm-5.6 2.3c.8 0 1.4-.7 1.4-1.5s-.6-1.5-1.4-1.5-1.4.7-1.4 1.5.6 1.5 1.4 1.5zm-6.2.7c.8 0 1.4-.7 1.4-1.5s-.6-1.5-1.4-1.5c-.8 0-1.4.7-1.4 1.5s.6 1.5 1.4 1.5zm-5.6-.7c.8 0 1.4-.7 1.4-1.5s-.6-1.5-1.4-1.5c-.8 0-1.4.7-1.4 1.5s.6 1.5 1.4 1.5zm-4.8-2.3c.8 0 1.4-.7 1.4-1.5s-.6-1.5-1.4-1.5-1.4.7-1.4 1.5c0 .9.6 1.5 1.4 1.5zm-4.9-3.7c.8 0 1.4-.7 1.4-1.5s-.6-1.5-1.4-1.5c-.8 0-1.4.7-1.4 1.5s.6 1.5 1.4 1.5zm-3.5-5.2c.8 0 1.4-.7 1.4-1.5s-.6-1.5-1.4-1.5-1.4.7-1.4 1.5.6 1.5 1.4 1.5zm47.2-25.3c.8 0 1.4-.7 1.4-1.5s-.6-1.5-1.4-1.5-1.4.7-1.4 1.5.7 1.5 1.4 1.5zM254.5 42c.8 0 1.4-.7 1.4-1.5s-.6-1.5-1.4-1.5c-.8 0-1.4.7-1.4 1.5s.6 1.5 1.4 1.5zm-1.4 6c.8 0 1.4-.7 1.4-1.5s-.6-1.5-1.4-1.5-1.4.7-1.4 1.5.6 1.5 1.4 1.5zm-4.2 3.7c.8 0 1.4-.7 1.4-1.5s-.6-1.5-1.4-1.5-1.4.7-1.4 1.5.7 1.5 1.4 1.5zm-5.5 2.2c.8 0 1.4-.7 1.4-1.5s-.6-1.5-1.4-1.5-1.4.7-1.4 1.5.6 1.5 1.4 1.5zm-6.3 0c.8 0 1.4-.7 1.4-1.5s-.6-1.5-1.4-1.5c-.8 0-1.4.7-1.4 1.5s.7 1.5 1.4 1.5zm-5.5 0c.8 0 1.4-.7 1.4-1.5s-.6-1.5-1.4-1.5c-.8 0-1.4.7-1.4 1.5s.6 1.5 1.4 1.5zm-12.5 0c.8 0 1.4-.7 1.4-1.5s-.6-1.5-1.4-1.5-1.4.7-1.4 1.5.6 1.5 1.4 1.5zm-6.3 3c.8 0 1.4-.7 1.4-1.5s-.6-1.5-1.4-1.5-1.4.7-1.4 1.5.7 1.5 1.4 1.5zm-3.4 6.7c.8 0 1.4-.7 1.4-1.5s-.6-1.5-1.4-1.5-1.4.7-1.4 1.5.6 1.5 1.4 1.5zm8.3 9.7c.8 0 1.4-.7 1.4-1.5s-.6-1.5-1.4-1.5-1.4.7-1.4 1.5.6 1.5 1.4 1.5zm5.5-2.2c.8 0 1.4-.7 1.4-1.5s-.6-1.5-1.4-1.5-1.4.7-1.4 1.5.7 1.5 1.4 1.5zm2.8-5.3c.8 0 1.4-.7 1.4-1.5s-.6-1.5-1.4-1.5-1.4.7-1.4 1.5c0 .9.7 1.5 1.4 1.5zm.7-5.9c.8 0 1.4-.7 1.4-1.5s-.6-1.5-1.4-1.5-1.4.7-1.4 1.5.6 1.5 1.4 1.5zm-.7-6c.8 0 1.4-.7 1.4-1.5s-.6-1.5-1.4-1.5-1.4.7-1.4 1.5.7 1.5 1.4 1.5zm-3.5-5.2c.8 0 1.4-.7 1.4-1.5s-.6-1.5-1.4-1.5-1.4.7-1.4 1.5.7 1.5 1.4 1.5zm-4.1-3.7c.8 0 1.4-.7 1.4-1.5s-.6-1.5-1.4-1.5-1.4.7-1.4 1.5.6 1.5 1.4 1.5zm-6.3-1.5c.8 0 1.4-.7 1.4-1.5s-.6-1.5-1.4-1.5c-.8 0-1.4.7-1.4 1.5s.7 1.5 1.4 1.5zm-5.5.7c.8 0 1.4-.7 1.4-1.5s-.6-1.5-1.4-1.5c-.8 0-1.4.7-1.4 1.5s.6 1.5 1.4 1.5zm-5.6 3c.8 0 1.4-.7 1.4-1.5s-.6-1.5-1.4-1.5c-.8 0-1.4.7-1.4 1.5 0 .9.7 1.5 1.4 1.5zm-59.7 58.1c.8 0 1.4-.7 1.4-1.5s-.6-1.5-1.4-1.5-1.4.7-1.4 1.5c0 .9.6 1.5 1.4 1.5zm1.4-5.9c.8 0 1.4-.7 1.4-1.5s-.6-1.5-1.4-1.5-1.4.7-1.4 1.5.6 1.5 1.4 1.5zm4.2-3.8c.8 0 1.4-.7 1.4-1.5s-.6-1.5-1.4-1.5-1.4.7-1.4 1.5c0 .9.6 1.5 1.4 1.5zm5.5-2.2c.8 0 1.4-.7 1.4-1.5s-.6-1.5-1.4-1.5-1.4.7-1.4 1.5.7 1.5 1.4 1.5zm6.3 0c.8 0 1.4-.7 1.4-1.5s-.6-1.5-1.4-1.5-1.4.7-1.4 1.5.6 1.5 1.4 1.5z"/><path class="st4" d="M283.1 21.2L247.8 26l4.4 4 2.9 6.7 2.6-1.5 3.6 3.3 21.8-17.3z"/><path class="st5" d="M253 30l2.9 6.7 2.6-1.5L253 30z"/><path class="st6" d="M283.1 21.3l-30.9 8.8 2.9 6.7 1.3-2.8 26.7-12.7z"/><path class="st7" d="M932.8 53c.6-.2 1.3.1 1.5.8.2.6-.1 1.3-.7 1.6s-1.3-.1-1.5-.8c-.2-.7.1-1.4.7-1.6zm72.1-11.6c.6-.2 1.3.1 1.5.8.2.7-.1 1.3-.7 1.6s-1.3-.1-1.5-.8c-.2-.7.1-1.4.7-1.6zm-.9 8.1c.6-.2 1.3.1 1.5.8.2.6-.1 1.3-.7 1.6-.6.2-1.3-.1-1.5-.8-.2-.7.1-1.3.7-1.6zm-4.5 8.2c.6-.2 1.3.1 1.5.8.2.7-.1 1.3-.7 1.6-.6.2-1.3-.1-1.5-.8-.3-.7 0-1.4.7-1.6zm-8 5.4c.6-.2 1.3.1 1.5.8.2.6-.1 1.3-.7 1.6-.6.2-1.3-.1-1.5-.8-.2-.7.1-1.4.7-1.6zm-9.9 3.4c.6-.2 1.3.2 1.5.8.2.7-.1 1.3-.7 1.6s-1.3-.1-1.5-.8c-.2-.7.1-1.4.7-1.6zm-8.8 3c.6-.2 1.3.1 1.5.8.2.6-.1 1.3-.7 1.6s-1.3-.1-1.5-.8c-.2-.7.1-1.4.7-1.6zm-19.7 6.8c.6-.2 1.3.2 1.5.8.2.7-.1 1.3-.7 1.6-.6.2-1.3-.1-1.5-.8-.2-.7.1-1.4.7-1.6zM941.6 75c.6-.2 1.3.2 1.5.8.2.7-.1 1.3-.7 1.6-.6.2-1.3-.1-1.5-.8-.2-.7.1-1.4.7-1.6zm-9.1-8.7c.6-.2 1.3.1 1.5.8.2.6-.1 1.3-.7 1.6s-1.3-.1-1.5-.8c-.3-.7 0-1.4.7-1.6zm7.9-19.8c.6-.2 1.3.1 1.5.8.2.6-.1 1.3-.7 1.6-.6.2-1.3-.1-1.5-.8-.3-.7.1-1.4.7-1.6zm10 .5c.6-.2 1.3.1 1.5.8.2.7-.1 1.3-.7 1.6-.6.2-1.3-.1-1.5-.8-.3-.7 0-1.4.7-1.6zm7.2 6.7c.6-.2 1.3.1 1.5.8.2.7-.1 1.3-.7 1.6-.6.2-1.3-.1-1.5-.8-.2-.7.1-1.4.7-1.6zm4.3 9c.6-.2 1.3.1 1.5.8.2.6-.1 1.3-.7 1.6-.6.2-1.3-.1-1.5-.8-.2-.7.1-1.4.7-1.6zm2.2 9.8c.6-.2 1.3.1 1.5.8.2.6-.1 1.3-.7 1.6-.6.2-1.3-.1-1.5-.8-.3-.7 0-1.4.7-1.6zm-2.7 10.1c.6-.2 1.3.1 1.5.8.2.7-.1 1.3-.7 1.6s-1.3-.1-1.5-.8c-.2-.7.1-1.4.7-1.6zm-4.6 8.2c.6-.2 1.3.1 1.5.8.2.6-.1 1.3-.7 1.6s-1.3-.1-1.5-.8c-.2-.7.1-1.4.7-1.6zm-9 5.7c.6-.2 1.3.1 1.5.8.2.6-.1 1.3-.7 1.6s-1.3-.1-1.5-.8c-.2-.7.1-1.4.7-1.6zm-9.2 1.9c.6-.2 1.3.1 1.5.8.2.6-.1 1.3-.7 1.6-.6.2-1.3-.1-1.5-.8-.2-.7.1-1.4.7-1.6zm-10.4-1.7c.6-.2 1.3.1 1.5.8.2.6-.1 1.3-.7 1.6-.6.2-1.3-.1-1.5-.8-.2-.7.1-1.4.7-1.6zm95.1-80.7l-26.6 13.4 4.6 1.9 4.1 4.5 1.6-1.9 3.7 1.6 12.6-19.5z"/><path class="st7" d="M1001.9 31.2l4.1 4.5 1.6-1.9-5.7-2.6z"/><path class="st8" d="M1023.3 16.1l-22 15.3 4.1 4.5.2-2.5 17.7-17.3z"/><path class="st9" d="M100.2 89.5l-.6 50.9c0 5.2-4.4 7.6-9.7 5.5l-79.5-31.7C5 112.1.7 106.1.7 101V49.6c0-5.2 4.4-7.6 9.7-5.5l79.5 31.7c1.7.7 5.8 1.1 7.2 2.4 2.9 2.8 3.1 7.8 3.1 11.3z"/><linearGradient id="SVGID_1_" gradientUnits="userSpaceOnUse" x1="257.777" y1="488.986" x2="258.684" y2="488.787" gradientTransform="matrix(63.9701 68.5995 48.2408 -44.9853 -40051.555 4328.536)"><stop offset="0" stop-color="#0ba6ad"/><stop offset="1" stop-color="#029ba1"/></linearGradient><path class="st10" d="M56.5.3l1.2.7 1.6 1.8 1.2 1.8s29.2 48 40.8 68c.5.9.8 1.3 1.4 2.4.2.5.4 1.6.4 1.6v2.6l-50.6 13L5.9 41.6S33 18.2 49.2 4.1C49.4 3.9 53 2 53 2l1.9-1 1.6-.7z"/><path class="st11" d="M45.6 7.2L49.4 4s3.5 5.9 4 6.6c15.4 23.3 42.4 72 42.4 72L49.3 94.1 2.5 44.7 45.6 7.2z"/><path class="st12" d="M88.9 122S63.4 98.7 49.4 93.8c-12.4-4.4-39.5 0-39.5 0V25.2l79 28.2V122z"/><path class="st13" d="M87.1 53.3h1.8v5.3s-.2.1-.3 0c-.5-.4-1.5-1.4-1.5-1.4v-3.9z"/><path class="st14" d="M82.3 68.3L16.9 44.7v-5.5l65.3 23.6v5.5z"/><path class="st15" d="M10.1 30.3c-4.2-1.8 0-5.3 0-5.3l78.8 28.3s-1.4 2.2-1.4 3.2c0 .8 1.4 2.2 1.4 2.2S14.3 32.1 10.1 30.3z"/><path class="st16" d="M16.9 56v-1.2l65.3 23.5v1.2L16.9 56zm0 6.2V61l65.3 23.5v1.2L16.9 62.2zm0 6.7v-1.2l65.3 23.5v1.2L16.9 68.9zm0 6.2v-1.2l65.3 23.5v1.2L16.9 75.1z"/><path class="st17" d="M49.3 94.2L96 82.8s1 2.1 1 3.1c0 15.7-.2 43.7-.4 53.6 0 2.2-.6 3.4-.6 3.4L49.3 94.2z"/><path class="st17" d="M49.7 94.3L1.6 105.4s-1-1.3-1-3.1C.4 93.1.4 65.4.6 49.2c0-.5.3-2.2 1-3.2.3-.5.7-.9 1.2-1.2l46.9 49.5z"/><linearGradient id="SVGID_2_" gradientUnits="userSpaceOnUse" x1="230.72" y1="490.836" x2="230.72" y2="489.884" gradientTransform="matrix(9.5967 0 0 -68.6701 -2115.662 33784.867)"><stop offset="0" stop-color="#039ba1"/><stop offset="1" stop-color="#01696d"/></linearGradient><path class="st18" d="M94.6 80.5l6.2-1.6 2.1-.8s-.1-.3.1.4v6.6c.1 10.8.4 37.4 0 52.9 0 .4-.7 3.3-2.3 5.1-1.6 1.9-4.1 2.8-4.1 2.8l-3.1.7s1.2-1.3 2-3.1 1.1-4.1 1.1-4.3c.2-16.3.2-44.1 0-53.4 0-.7-.4-2.2-.8-3-.1-.3-.3-.5-.4-.8-.1-.2-.3-.4-.4-.6l-.4-.9z"/><path class="st19" d="M158.3 33.9l-.2 20.1c0 2-1.7 3-3.8 2.1L123 43.6c-2.1-.8-3.8-3.2-3.8-5.2V18.2c0-2 1.7-3 3.8-2.1l31.3 12.5c.7.3 2.3.4 2.8.9 1.1 1.1 1.2 3.1 1.2 4.4z"/><path class="st20" d="M138.4 35.6L157.6 56s-.4.3-1.1.5c-.5.1-1.1.2-1.7 0-6.3-2.1-23.8-9.3-33.5-13.3-.7-.3-1.9-2.8-1.9-2.8l19-4.8z"/><path class="st21" d="M138.3 35.8l18.4-4.5s.4.8.4 1.2c0 6.2-.1 17.2-.2 21.1 0 .9-.2 1.3-.2 1.3l-18.4-19.1z"/><path class="st21" d="M138.4 35.8l-19 4.7s-.1-.1-.2-.3c-.1-.4-.2-.8-.2-1.2-.1-3.6-.1-14.5 0-20.9 0-.2.1-.8.4-1.3.2-.3.5-.5.5-.5l18.5 19.5z"/><path class="st19" d="M136.6 40.4c6.6-1 20.3-9.2 20.3-9.2L120 16.3c-.1 0 10.6 19 16.6 24.1z"/></svg>