<?xml version="1.0" encoding="utf-8"?>
<svg version="1.1" id="Calque_1" xmlns="http://www.w3.org/2000/svg" xmlns:xlink="http://www.w3.org/1999/xlink" x="0px" y="0px"
	 viewBox="0 0 56 58" style="enable-background:new 0 0 56 58;" xml:space="preserve">
<path class="st1" d="M44.5,26.3l-6.9-8.4V9.3c0-0.5-0.4-0.9-0.9-0.9h-3.5c-0.5,0-0.9,0.4-0.9,0.9v3.1l-3.5-3.8
	c-0.3-0.3-0.9-0.3-1.2,0l-16,18.1c-0.2,0.2-0.3,0.6-0.2,0.9c0.1,0.3,0.5,0.5,0.8,0.5h28.1v19.8h-7.8V36.8c0-0.5-0.4-0.9-0.9-0.9h-8
	c-0.5,0-0.9,0.4-0.9,0.9v11.1H15V30c0-0.5-0.4-0.9-0.9-0.9s-0.9,0.4-0.9,0.9v18.8c0,0.5,0.4,0.9,0.9,0.9h9.5c0.5,0,0.9-0.4,0.9-0.9
	V37.7h6.2v11.1c0,0.5,0.4,0.9,0.9,0.9h9.5c0.5,0,0.9-0.4,0.9-0.9V27.3c0-0.5-0.4-0.9-0.9-0.9H14.2l14-15.9l4.4,4.7
	c0.2,0.2,0.6,0.3,1,0.2c0.3-0.2,0.5-0.5,0.5-0.8v-4.4h1.8v8c0,0.3,0.1,0.5,0.2,0.6l7.2,8.7c0.4,0.4,0.9,0.4,1.2,0.1
	c0.2-0.2,0.3-0.4,0.3-0.7C44.7,26.6,44.6,26.4,44.5,26.3z"/>
</svg>
