<?xml version="1.0" encoding="utf-8"?>
<!-- Generator: Adobe Illustrator 21.1.0, SVG Export Plug-In . SVG Version: 6.00 Build 0)  -->
<svg version="1.1" id="Calque_1" xmlns="http://www.w3.org/2000/svg" xmlns:xlink="http://www.w3.org/1999/xlink" x="0px" y="0px"
	 viewBox="0 0 56 58" style="enable-background:new 0 0 56 58;" xml:space="preserve">
<style type="text/css">
	.st0{fill:none;stroke:#000000;stroke-width:2;stroke-linecap:round;stroke-miterlimit:10;}
	.st1{stroke:#000000;stroke-width:0.25;stroke-miterlimit:10;}
</style>
<g>
	<path d="M39.5,31.5c-0.6,0-1,0.5-1,1v8.6c0,1.3-1.1,2.4-2.4,2.4h-7.6V17.2c0-1.5-0.9-2.9-2.3-3.5l-5.8-2.5h15.8
		c1.3,0,2.4,1.1,2.4,2.4v8.6c0,0.6,0.5,1,1,1s1-0.5,1-1v-8.6c0-2.5-2-4.4-4.4-4.4H15.4c-0.1,0-0.1,0-0.2,0l0,0l-0.1,0
		c-0.1,0-0.2,0-0.3,0c-2.1,0-3.9,1.7-3.9,3.9v29.7c0,1.5,0.9,2.9,2.3,3.5l9.8,4.2c0.5,0.2,1,0.3,1.5,0.3c2.1,0,3.9-1.7,3.9-3.9v-1.3
		h7.6c2.5,0,4.4-2,4.4-4.4v-8.6C40.5,31.9,40.1,31.5,39.5,31.5z M13,13c0-1,0.8-1.9,1.8-1.9c0.3,0,0.5,0.1,0.7,0.2l9.8,4.2
		c0.7,0.3,1.1,1,1.1,1.7v29.7c0,1-0.8,1.9-1.9,1.9c-0.3,0-0.5-0.1-0.7-0.1l-9.8-4.2c-0.7-0.3-1.1-1-1.1-1.7V13z"/>
	<path d="M24,33.5c0.6,0,1-0.5,1-1v-3.4c0-0.6-0.5-1-1-1s-1,0.5-1,1v3.4C23,33.1,23.5,33.5,24,33.5z"/>
	<path d="M49.1,27.1L49.1,27.1c0-0.1,0-0.1,0-0.1c-0.1-0.1-0.1-0.2-0.2-0.3l-5.2-5.2c-0.2-0.2-0.4-0.3-0.7-0.3c0,0,0,0,0,0
		c-0.3,0-0.5,0.1-0.7,0.3c-0.4,0.4-0.4,1,0,1.4l3.4,3.4H30.9c-0.6,0-1,0.5-1,1s0.5,1,1,1h14.8l-3.4,3.4c-0.4,0.4-0.4,1,0,1.4
		c0.2,0.2,0.4,0.3,0.7,0.3c0.3,0,0.5-0.1,0.7-0.3l5.2-5.2c0,0,0-0.1,0.1-0.1c0.1-0.1,0.1-0.1,0.2-0.2c0-0.1,0-0.2,0.1-0.3
		c0,0,0-0.1,0-0.1C49.1,27.2,49.1,27.2,49.1,27.1z"/>
</g>
</svg>
