<?xml version="1.0" encoding="utf-8"?>
<svg version="1.1" id="Calque_1" xmlns="http://www.w3.org/2000/svg" xmlns:xlink="http://www.w3.org/1999/xlink" x="0px" y="0px"
	 viewBox="0 0 56 58" style="enable-background:new 0 0 56 58;" xml:space="preserve">
<g>
	<path class="st1" d="M36.8,16.4v-3.1c0-3.6-2.8-7.9-7.7-8.2c-1.3-0.1-7.1-0.3-9.6,0.7c-3.8,1.5-4.7,5.2-4.7,7.5v3.4
		c-0.8,0.5-2,1.4-2,2.6v4c0,1.4,1.2,2.5,2.5,2.9c0.3,3.6,2.3,7.4,5.2,9.8l-2.2,3.3h-2.5c-6.4,0-11,4.2-11,10v2c0,0.6,0.4,1,1,1
		c0.6,0,1-0.4,1-1v-2c0-4.7,3.7-8,9-8h3c0.3,0,0.6-0.2,0.8-0.4l2.5-3.8c1.3,0.8,2.8,1.2,4.4,1.2c1.7,0,3.4-0.6,4.8-1.5l2.8,4.1
		c0.2,0.3,0.5,0.4,0.8,0.4h1.5l0.9,0c0.5,0,1-0.4,1-1c0-0.5-0.5-1-1-1c0,0-0.4,0-0.8,0h-1l-2.6-3.8c2.4-2.4,4-5.9,4.3-9.4
		c1-0.4,1.7-1.4,1.7-2.8v-4C38.8,18.4,38.8,16.8,36.8,16.4z M36.8,23.3c0,0.7-0.2,1-0.6,1c-0.6,0-1,0.4-1,1c0,5.1-3.8,11-8.6,11
		c-5,0-9.2-6-9.2-11c0-0.6-0.4-1-1-1c-0.7,0-1.5-0.6-1.5-1v-4c0-0.2,0.7-0.8,1.4-1.1c0.4-0.2,0.6-0.5,0.6-0.9v-4
		c0-2.8,2.3-5.9,5-6.2C22.9,7,25.7,6.7,29,7c3.8,0.3,5.8,3.6,5.8,6.3v4c0,0.6,0.4,1,1,1c1,0,1,0,1,1V23.3z"/>
	<path class="st1" d="M49.5,42.9h-0.3v-1.6c0-1.6-1.3-2.8-2.8-2.8H44c-1.6,0-2.8,1.3-2.8,2.8v1.6h-0.5c-0.9,0-1.7,0.8-1.7,1.7v6.7
		c0,0.9,0.8,1.7,1.7,1.7h8.9c0.9,0,1.7-0.8,1.7-1.7v-6.7C51.2,43.7,50.4,42.9,49.5,42.9z M47.4,41.3v1.6h-4.5v-1.6c0-0.6,0.5-1,1-1
		h2.4C46.9,40.3,47.4,40.7,47.4,41.3z M49.4,44.7v6.4h-8.7v-6.4H49.4z"/>
	<path class="st1" d="M44.2,48.6v0.8c0,0.5,0.4,0.8,0.8,0.8c0.5,0,0.8-0.4,0.8-0.8v-0.8c0.4-0.3,0.6-0.7,0.6-1.2
		c0-0.8-0.7-1.4-1.5-1.4c-0.8,0-1.4,0.6-1.4,1.4C43.6,47.9,43.8,48.3,44.2,48.6z"/>
</g>
</svg>
