<?xml version="1.0" encoding="utf-8"?>
<svg version="1.1" id="Calque_1" xmlns="http://www.w3.org/2000/svg" xmlns:xlink="http://www.w3.org/1999/xlink" x="0px" y="0px"
	 viewBox="0 0 56 58" style="enable-background:new 0 0 56 58;" xml:space="preserve">
<g>
	<path class="st1" d="M44.9,41.5h-0.2v-1.2c0-1.3-1.1-2.4-2.4-2.4h-2c-1.3,0-2.4,1.1-2.4,2.4v1.2h-0.3c-0.8,0-1.5,0.7-1.5,1.5v5.5
		c0,0.8,0.7,1.5,1.5,1.5h7.4c0.8,0,1.5-0.7,1.5-1.5V43C46.4,42.1,45.7,41.5,44.9,41.5z M43.1,40.3v1.2h-3.5v-1.2
		c0-0.4,0.4-0.8,0.8-0.8h2C42.7,39.5,43.1,39.8,43.1,40.3z M44.7,43.2v5.1h-7v-5.1H44.7z"/>
	<path class="st1" d="M40.4,46.9c0,0.4,0.3,0.8,0.8,0.8c0.4,0,0.8-0.3,0.8-0.8v-0.6c0.3-0.2,0.5-0.6,0.5-1c0-0.7-0.6-1.3-1.3-1.3
		c-0.7,0-1.3,0.6-1.3,1.3c0,0.4,0.2,0.8,0.5,1V46.9z"/>
	<path class="st1" d="M32.3,47.6h-1.5V36.5c0-0.5-0.4-0.9-0.9-0.9h-8c-0.5,0-0.9,0.4-0.9,0.9v11.1h-7.8V29.8c0-0.5-0.4-0.9-0.9-0.9
		s-0.9,0.4-0.9,0.9v18.8c0,0.5,0.4,0.9,0.9,0.9H22c0.5,0,0.9-0.4,0.9-0.9V37.4h6.2v11.1c0,0.5,0.4,0.9,0.9,0.9h2.3
		c0.5,0,0.9-0.4,0.9-0.9C33.2,48.1,32.8,47.7,32.3,47.6z"/>
	<path class="st1" d="M38.6,35c0,0.5,0.4,0.9,0.9,0.9c0.5,0,0.9-0.4,0.9-0.9v-8c0-0.5-0.4-0.9-0.9-0.9H12.6l14-15.9l4.4,4.7
		c0.2,0.2,0.6,0.3,1,0.2c0.3-0.2,0.5-0.5,0.5-0.8V9.9h1.8v8c0,0.3,0.1,0.5,0.2,0.6l7.2,8.7c0.4,0.4,0.9,0.4,1.2,0.1
		c0.3-0.3,0.3-0.9,0-1.3l-6.9-8.4V9c0-0.5-0.4-0.9-0.9-0.9h-3.5c-0.5,0-0.9,0.4-0.9,0.9v3.1l-3.5-3.8c-0.3-0.3-0.9-0.3-1.2,0
		l-16,18.1c-0.2,0.2-0.3,0.6-0.2,0.9c0.1,0.3,0.5,0.5,0.8,0.5h28.1V35z"/>
</g>
</svg>
