<?xml version="1.0" encoding="utf-8"?>
<!-- Generator: Adobe Illustrator 21.1.0, SVG Export Plug-In . SVG Version: 6.00 Build 0)  -->
<svg version="1.1" id="Calque_1" xmlns="http://www.w3.org/2000/svg" xmlns:xlink="http://www.w3.org/1999/xlink" x="0px" y="0px"
	 viewBox="0 0 56 58" style="enable-background:new 0 0 56 58;" xml:space="preserve">
<style type="text/css">
	.st0{stroke:#000000;stroke-width:0.25;stroke-miterlimit:10;}
</style>
<path d="M39.9,27.7c-1.5-7.8-5.8-13.6-12.8-17.2c-1.3-0.6-2.6-1.2-4.1-1.6c-0.4-0.1-0.9,0-1.1,0.4c-0.2,0.4-0.2,0.9,0.1,1.2l0.2,0.2
	c0.1,0.1,0.2,0.2,0.3,0.4c1.6,1.8,2.1,3.9,1.4,6.5c-0.4,1.8-1.4,3.4-2.3,4.7c-1,1.6-2.1,3.3-3.1,5c-1.6,2.9-2.5,5.6-2.8,8.3
	C15.4,39,16.2,42,18,44.6c1.6,2.2,3.5,3.6,5.8,4.2c0.3,0.1,0.7,0.2,1,0.2l0.4,0.1c0.1,0,0.1,0,0.2,0c0.4,0,0.7-0.2,0.9-0.5
	c0.2-0.4,0.1-0.9-0.2-1.2c-0.3-0.2-0.5-0.3-0.8-0.4c-1.6-0.7-2.5-1.8-2.8-3.4c-0.2-1-0.1-2.2,0.4-3.6c0.5-1.6,1.4-3.1,2.3-4.5
	c0.8-1.3,1.7-2.7,2.4-4.2c0.4-0.7,0.7-1.4,0.9-2.2c0.4,1.7,0.4,3.6,0.1,5.5c-0.1,0.6-0.3,1.2-0.5,1.8c-0.1,0.4-0.2,0.7-0.3,1.1
	c-0.2,0.9-0.1,1.7,0.3,2.4c0.4,0.6,1,1.1,1.8,1.2c0.8,0.2,1.6,0,2.1-0.5c0.1-0.1,0.3-0.2,0.4-0.4c0.1,0.4,0.2,0.7,0.3,1.1
	c0.3,1.1,0.3,2,0.1,2.8c-0.1,0.3-0.2,0.7-0.3,1c-0.1,0.2-0.1,0.3-0.2,0.5c-0.1,0.4,0,0.9,0.4,1.1s0.8,0.3,1.2,0l0.4-0.3
	c1.3-1,2.3-2.3,3.2-4C40.1,37.8,40.9,32.8,39.9,27.7z M31.1,36.2c-0.4,0.2-0.6,0.7-0.5,1.1l0,0.1c0,0.1,0,0.2,0.1,0.2
	c0,0.1,0.1,0.3,0.1,0.4c0.1,0.3,0.1,0.5,0.1,0.7c0,0.1,0,0.3-0.1,0.4c-0.1,0.1-0.3,0.1-0.4,0.1c-0.2-0.1-0.4-0.2-0.5-0.3
	c-0.1-0.2-0.2-0.5-0.1-0.9c0.1-0.3,0.2-0.7,0.3-1c0.2-0.6,0.4-1.3,0.5-2c0.7-3.8,0.1-7.2-1.7-10.4c-0.1-0.2-0.3-0.5-0.6-0.7
	c-0.3-0.3-0.8-0.3-1.1-0.1c-0.4,0.2-0.6,0.6-0.5,1l0.1,0.3c0,0.1,0.1,0.3,0.1,0.4c0.2,1.6-0.1,3.2-0.9,4.8c-0.7,1.4-1.6,2.8-2.4,4.1
	c-1,1.5-2,3.1-2.5,5c-0.5,1.7-0.7,3.2-0.4,4.5c0.1,0.3,0.1,0.6,0.2,0.8c-0.4-0.4-0.8-0.9-1.2-1.4c-1.6-2.2-2.2-4.6-1.9-7.5
	c0.3-2.4,1.1-4.9,2.6-7.6c0.9-1.7,2-3.4,3-4.9c1-1.5,2-3.3,2.6-5.3c0.6-2.3,0.4-4.3-0.4-6.2c0.2,0.1,0.5,0.2,0.7,0.3
	c6.4,3.3,10.4,8.6,11.8,15.8c0.9,4.7,0.2,9.2-2.1,13.5c-0.2,0.4-0.5,0.9-0.7,1.2c0-0.6-0.1-1.3-0.3-2c-0.4-1.5-1-2.8-1.8-4
	c-0.1-0.2-0.2-0.3-0.4-0.4l-0.1-0.1C32.1,35.9,31.5,35.9,31.1,36.2z"/>
</svg>
