<?xml version="1.0" encoding="utf-8"?>
<svg version="1.1" id="Calque_1" xmlns="http://www.w3.org/2000/svg" xmlns:xlink="http://www.w3.org/1999/xlink" x="0px" y="0px"
	 viewBox="0 0 56 58" style="enable-background:new 0 0 56 58;" xml:space="preserve">
<g>
	<path class="st1" d="M29,39.8c-5.9,0-10.8-6.4-11.2-12.1c-1.3-0.4-2.5-1.5-2.5-2.9v-4c0-1.2,1.2-2.2,2-2.6v-3.4c0-3.8,3-6.9,6.8-7
		c0.8-0.3,4-1.5,7.2-1.5c5.2,0,8,3,8,8.5v3.1c2,0.4,2,2,2,2.9v4c0,1.4-0.6,2.4-1.7,2.8C39.2,33.5,34.8,39.8,29,39.8z M31.2,8.2
		c-3.2,0-6.6,1.4-6.6,1.4c-0.1,0.1-0.3,0.1-0.4,0.1c-2.8,0-5,2.2-5,5v4c0,0.4-0.2,0.8-0.6,0.9c-0.7,0.3-1.4,0.9-1.4,1.1v4
		c0,0.4,0.8,1,1.5,1c0.6,0,1,0.4,1,1c0,5,4.3,11,9.2,11c4.9,0,8.6-5.9,8.6-11c0-0.6,0.4-1,1-1c0.4,0,0.6-0.3,0.6-1v-4c0-1,0-1-1-1
		c-0.5,0-1-0.4-1-1v-4C37.2,10.4,35.3,8.2,31.2,8.2z"/>
	<path class="st1" d="M8.2,51.8c-0.6,0-1-0.4-1-1c0-5.8,4.6-10,11-10h2.5l2.7-4c0.3-0.5,0.9-0.6,1.4-0.3c0.5,0.3,0.6,0.9,0.3,1.4
		l-3,4.4c-0.2,0.3-0.5,0.4-0.8,0.4h-3c-5.3,0-9,3.3-9,8C9.2,51.3,8.8,51.8,8.2,51.8z"/>
	<g>
		<path class="st1" d="M41.8,51.2c-0.5,0-1-0.4-1-1v-12c0-0.6,0.5-1,1-1s1,0.4,1,1v12C42.8,50.8,42.3,51.2,41.8,51.2z"/>
		<path class="st1" d="M47.8,45.2h-12c-0.5,0-1-0.4-1-1s0.5-1,1-1h12c0.5,0,1,0.4,1,1S48.3,45.2,47.8,45.2z"/>
	</g>
</g>
</svg>
