<?xml version="1.0" encoding="utf-8"?>
<!-- Generator: Adobe Illustrator 21.1.0, SVG Export Plug-In . SVG Version: 6.00 Build 0)  -->
<svg version="1.1" id="Calque_1" xmlns="http://www.w3.org/2000/svg" xmlns:xlink="http://www.w3.org/1999/xlink" x="0px" y="0px"
	 viewBox="0 0 56 58" style="enable-background:new 0 0 56 58;" xml:space="preserve">
<style type="text/css">
	.st0{stroke:#000000;stroke-width:0.25;stroke-miterlimit:10;}
</style>
<g>
	<path d="M39.7,17.4L39.7,17.4c-0.9-2.9-2.7-5.3-5-6.7c-1.6-0.9-3.7-1.6-5.8-1.8c-3-0.2-6.1,0.6-8.4,2.3c-2,1.5-3.6,3.8-4.4,6.5
		c-0.6,2.2-1,5.5,0.7,9.1c0.4,0.9,1,1.8,1.6,2.7c0.8,1.2,1.7,2.5,2,3.9c0.1,0.5,0.1,0.9,0.1,1.3c0,0.5,0,1,0.2,1.6
		c0.5,1.2,1.8,2.5,3.2,3c0.9,0.3,2,0.4,3.1,0.4l0.9,0c0.7,0,1.5,0,1.6,0c0.7,0,1.6,0,2.3-0.3c1.6-0.5,2.8-1.9,3.3-3
		c0.2-0.6,0.3-1.3,0.3-2c0-0.4,0.1-0.8,0.1-1.1c0.3-1.6,1.1-2.7,1.9-4c0.6-0.9,1.2-1.8,1.7-3C40.5,23.6,40.7,20.4,39.7,17.4z
		 M30.8,28.4c0.1-0.4-0.1-0.8-0.5-1c-0.1,0-0.2-0.1-0.3-0.1c-0.3,0-0.5,0.1-0.7,0.3l-1.4,1.9l-1.4-1.9c-0.2-0.3-0.7-0.4-1.1-0.3
		s-0.6,0.6-0.5,1c0.5,2.1,1.4,8.1,1.6,9.3c-0.7,0-1.4-0.1-1.9-0.2c-0.8-0.3-1.7-1.1-2-1.8c-0.1-0.2-0.1-0.5-0.1-0.9
		c0-0.4,0-1-0.2-1.7c-0.4-1.8-1.3-3.2-2.2-4.6c-0.5-0.8-1-1.6-1.4-2.4c-1.4-3.1-1.1-5.9-0.6-7.7c0.7-2.3,2-4.3,3.6-5.5
		c1.7-1.3,3.9-1.9,6.2-1.9c0.3,0,0.6,0,0.9,0c1.8,0.1,3.6,0.7,4.9,1.5c1.9,1.2,3.4,3.2,4.2,5.6c0.8,2.6,0.7,5.3-0.4,7.7
		c-0.4,1-1,1.8-1.5,2.6C35,29.7,34.1,31,33.7,33c-0.1,0.4-0.1,0.9-0.1,1.3c0,0.5-0.1,1-0.2,1.3c-0.3,0.6-1.1,1.5-2.1,1.8
		c-0.5,0.2-1.1,0.2-1.7,0.2C29.6,35.6,30.7,29.1,30.8,28.4z M28.5,31.5c-0.2,1.3-0.4,2.9-0.6,4.2c-0.2-1.1-0.4-2.6-0.7-4.1
		c0.2,0.1,0.4,0.2,0.6,0.2C28.1,31.9,28.4,31.8,28.5,31.5L28.5,31.5z"/>
	<path d="M31.9,43.1l-7.5-1.1c-0.4-0.1-0.7,0.2-0.7,0.6L23.6,43c0,0.2,0,0.3,0.1,0.5s0.3,0.2,0.4,0.3l7.5,1.1c0,0,0.1,0,0.1,0
		c0.3,0,0.6-0.2,0.6-0.6l0.1-0.5C32.5,43.5,32.2,43.1,31.9,43.1z"/>
	<path d="M31.9,41.1l-7.5-1.1c-0.4-0.1-0.7,0.2-0.7,0.6L23.6,41c0,0.2,0,0.3,0.1,0.5c0.1,0.1,0.3,0.2,0.4,0.3l7.5,1.1
		c0,0,0.1,0,0.1,0c0.3,0,0.6-0.2,0.6-0.6l0.1-0.5c0-0.2,0-0.3-0.1-0.5C32.2,41.2,32,41.1,31.9,41.1z"/>
	<g>
		<path d="M26.9,46.3l2,0.3c-0.2,0.3-0.6,0.5-0.9,0.5C27.5,47.2,27,46.8,26.9,46.3 M24.5,44c-0.5,0-0.9,0.3-0.9,0.8
			c0,0.2,0,0.5,0.2,0.7c0.1,0.2,0.4,0.3,0.6,0.4l0.4,0.1c0,0,0,0.1,0,0.1c0,1.7,1.4,3.1,3.1,3.1c1.4,0,2.7-1,3-2.3l0.3,0
			c0,0,0.1,0,0.1,0c0.5,0,0.9-0.3,0.9-0.8c0.1-0.5-0.3-1-0.8-1.1l-6.9-1C24.6,44,24.6,44,24.5,44L24.5,44z"/>
	</g>
	<path d="M34.1,19.2l0-0.1l-0.1,0c-2.2-0.1-4,0.5-5.2,1.8c-0.9,1-1.4,2.3-1.2,3.7l0.1,0.4l0.2-0.4c0.7-1.4,1.5-2.3,2.6-2.8
		c-1.1,1.1-1.9,2.4-2.3,4l0,0.1l0.2,0c0.1,0,0.2,0,0.4,0c1.7,0,3.1-0.6,4.1-1.7C33.8,23,34.3,21.1,34.1,19.2z"/>
	<path d="M23.1,21.2L23.1,21.2L23,21.3c0,1.3,0.4,2.5,1.2,3.2c0.5,0.4,1,0.6,1.6,0.6c0.1,0,0.3,0,0.4,0l0.4-0.1l-0.3-0.2
		c-0.7-0.4-1.1-0.8-1.4-1.2l2.3,1.5l0-0.2c0-1.3-0.5-2.4-1.3-3.1C25.1,21.2,24.1,21,23.1,21.2z"/>
</g>
</svg>
