<?xml version="1.0" encoding="utf-8"?>
<svg version="1.1" id="Calque_1" xmlns="http://www.w3.org/2000/svg" xmlns:xlink="http://www.w3.org/1999/xlink" x="0px" y="0px"
	 viewBox="0 0 56 58" style="enable-background:new 0 0 56 58;" xml:space="preserve">
<g>
	<path class="st1" d="M42.9,7.3H18.4c-0.1,0-0.1,0-0.2,0c0,0,0,0,0,0c-0.1,0-0.2,0-0.2,0.1c0,0,0,0-0.1,0c-0.1,0-0.2,0.1-0.2,0.2
		l-7.5,7.2c-0.1,0.1-0.1,0.1-0.2,0.2c0,0,0,0,0,0.1c0,0.1-0.1,0.2-0.1,0.2c0,0,0,0,0,0c0,0.1,0,0.1,0,0.2V48c0,1.1,0.7,2.8,2.7,2.8
		h30.1c2.8,0,3.4-1.9,3.4-2.7V10.3C46.1,9.1,45.2,7.3,42.9,7.3z M17.4,10.7l-0.1,3.7l-3.9,0L17.4,10.7z M44.1,48
		c0,0.2-0.2,0.7-1.4,0.7H12.6c-0.2,0-0.7,0-0.7-0.8V16.5l6.4-0.1c0.5,0,1-0.4,1-1l0.1-6.2h23.5c1,0,1.2,0.6,1.2,1V48z"/>
	<path class="st1" d="M20.8,23.2h15.9c0.5,0,0.9-0.4,0.9-0.9s-0.4-0.9-0.9-0.9H20.8c-0.5,0-0.9,0.4-0.9,0.9S20.3,23.2,20.8,23.2z"/>
	<path class="st1" d="M20.8,27h15.9c0.5,0,0.9-0.4,0.9-0.9s-0.4-0.9-0.9-0.9H20.8c-0.5,0-0.9,0.4-0.9,0.9S20.3,27,20.8,27z"/>
	<path class="st1" d="M37.5,30c0-0.5-0.4-0.9-0.9-0.9H20.8c-0.5,0-0.9,0.4-0.9,0.9s0.4,0.9,0.9,0.9h15.9
		C37.1,30.9,37.5,30.5,37.5,30z"/>
	<path class="st1" d="M36.3,35.8c-0.4,0.7-0.8,1.4-1.3,2c-0.1,0.1-0.5,0.7-0.6,0.7c0,0.2-0.1,0.2-0.2,0c-0.1-0.2-0.3-0.4-0.4-0.6
		c-0.4-0.6-1.2-0.4-1.4,0.2c-0.2,0.5-0.4,1.7-0.8,2.5c-0.4-0.9-0.7-1.9-1-2.8c-0.2-0.5-1.1-0.8-1.4-0.2c-0.6,1.2-0.8,2.4-0.8,3.8
		c0,1,1.5,1,1.5,0c0-0.3,0-0.6,0-0.9c0.2,0.6,0.5,1.2,0.9,1.7c0.2,0.3,0.7,0.5,1,0.3c0.8-0.5,1.2-1.6,1.6-2.6
		c0.3,0.3,0.8,0.4,1.3,0.2c1.2-0.6,2.3-2.3,2.9-3.4C38,35.7,36.7,34.9,36.3,35.8z"/>
</g>
</svg>
