<?xml version="1.0" encoding="utf-8"?>
<svg version="1.1" id="Calque_1" xmlns="http://www.w3.org/2000/svg" xmlns:xlink="http://www.w3.org/1999/xlink" x="0px" y="0px"
	 viewBox="0 0 56 58" style="enable-background:new 0 0 56 58;" xml:space="preserve">
<g>
	<path class="st1" d="M46.2,46.2c-0.2-0.1-0.5-0.1-0.7,0c-0.2,0.1-0.4,0.3-0.5,0.5l0,0c-0.7,1.7-2.4,2.8-4.2,2.8
		c-1.6,0-3-0.8-3.9-2.1c0.1,0,0.1,0,0.2-0.1c0,0,0.1,0,0.1-0.1c0.2-0.1,0.3-0.3,0.4-0.5c0,0,0-0.1,0-0.1c0-0.1,0-0.1,0-0.1
		c0,0,0-0.1,0-0.1c0-0.2-0.1-0.4-0.3-0.6l-1.2-1.2c0,0,0-0.1-0.1-0.1c-0.2-0.2-0.5-0.3-0.7-0.3c-0.1,0-0.1,0-0.1,0l-0.1,0
		c-0.1,0-0.1,0.1-0.1,0.1l-1.5,1.5c-0.2,0.2-0.3,0.4-0.3,0.7c0,0.3,0.1,0.5,0.3,0.7c0.2,0.2,0.4,0.3,0.7,0.3c0.2,0,0.4-0.1,0.6-0.2
		c0.9,2.5,3.3,4.2,6.1,4.2c2.6,0,5-1.6,6-4c0.1-0.2,0.1-0.5,0-0.7C46.6,46.5,46.5,46.3,46.2,46.2z"/>
	<path class="st1" d="M48.1,42.8c-0.2-0.2-0.4-0.3-0.7-0.3c-0.2,0-0.4,0.1-0.6,0.2c-0.9-2.5-3.3-4.2-6.1-4.2c-2.6,0-5,1.6-6,4
		c-0.2,0.5,0,1,0.5,1.3c0.2,0.1,0.5,0.1,0.7,0c0.2-0.1,0.4-0.3,0.5-0.5l0,0c0.7-1.7,2.4-2.8,4.2-2.8c1.6,0,3,0.8,3.9,2.1
		c-0.1,0-0.1,0-0.2,0.1c-0.1,0.1-0.2,0.1-0.3,0.2c0,0-0.1,0.1-0.1,0.1c-0.1,0.1-0.1,0.2-0.2,0.4c0,0,0,0.1,0,0.1c0,0,0,0.1,0,0.1
		c0,0.2,0.1,0.4,0.3,0.6l1.2,1.2c0,0,0,0.1,0.1,0.1c0.2,0.2,0.5,0.4,0.7,0.4c0,0,0.1,0,0.1,0l0.1,0c0,0,0.1,0,0.1,0l0.1-0.1l0,0
		l0.1-0.1l0.1,0l0,0l1.3-1.3c0.2-0.2,0.3-0.4,0.3-0.7C48.3,43.3,48.2,43,48.1,42.8z M46.2,45.4L46.2,45.4L46.2,45.4L46.2,45.4z"/>
	<path class="st1" d="M21.7,23.4l3.4,0c0,0,0,0,0.1,0h2.5c0,0,0,0,0.1,0H31c0.5,0,0.9-0.4,0.9-0.9V18l0.3,0.3c0.4,0.3,1,0.3,1.3,0
		c0.2-0.2,0.3-0.4,0.3-0.7s-0.1-0.5-0.3-0.7L27,10.7l0,0c-0.4-0.3-0.9-0.3-1.3,0l-6.5,6.2c-0.4,0.4-0.4,1,0,1.3
		c0.2,0.2,0.4,0.3,0.7,0.3c0,0,0,0,0,0c0.2,0,0.5-0.1,0.6-0.3l0.3-0.3v4.4C20.8,22.9,21.2,23.4,21.7,23.4z M26.6,19.4v2.1h-0.6v-2.1
		H26.6z M27.6,17.5h-2.5c-0.5,0-0.9,0.4-0.9,0.9v3h-1.6v-5.2l3.7-3.6l3.7,3.6v5.1h-1.6v-3C28.5,18,28.1,17.5,27.6,17.5z"/>
	<path class="st1" d="M28.5,48H10.4c-0.5,0-0.7-0.3-0.7-0.8V15.7l6.4-0.1c0.5,0,1-0.4,1-1l0.1-6.2h23.5c1,0,1.2,0.6,1.2,1v25.8
		c0,0.6,0.4,1,1,1s1-0.4,1-1V9.6c0-1.2-0.8-3-3.2-3H16.2c-0.1,0-0.1,0-0.1,0l0,0.1v0l0-0.1c-0.1,0-0.2,0-0.2,0.1l-0.1,0
		c-0.1,0-0.2,0.1-0.2,0.2L8,14c-0.1,0.1-0.1,0.1-0.2,0.2c0,0,0,0,0,0.1c0,0.1-0.1,0.2-0.1,0.2c0,0.1,0,0.1,0,0.2v32.5
		c0,1.1,0.7,2.8,2.7,2.8h18.1c0.6,0,1-0.4,1-1S29.1,48,28.5,48z M11.2,13.7l3.9-3.8l-0.1,3.7L11.2,13.7z"/>
	<path class="st1" d="M34.4,25.5H18.5c-0.6,0-1,0.4-1,1s0.4,1,1,1h15.9c0.6,0,1-0.4,1-1S35,25.5,34.4,25.5z"/>
	<path class="st1" d="M34.4,29.4H18.5c-0.6,0-1,0.4-1,1s0.4,1,1,1h15.9c0.6,0,1-0.4,1-1S35,29.4,34.4,29.4z"/>
	<path class="st1" d="M34.4,33.3H18.5c-0.6,0-1,0.4-1,1s0.4,1,1,1h15.9c0.6,0,1-0.4,1-1S35,33.3,34.4,33.3z"/>
	<path class="st1" d="M28.8,37.4C28.8,37.4,28.8,37.4,28.8,37.4c-0.6-0.2-1.2-0.3-1.9-0.3c-0.9,0-1.8,0.3-2.5,0.8
		c-0.6,0.5-1.1,1.1-1.3,1.9l-0.6,0c0,0-0.4,0-0.7,0.2c-0.1,0.1-0.2,0.3-0.2,0.5c0,0.5,0.4,0.7,0.7,0.7h0.6c0,0,0,0,0,0.1l-0.4,0
		c-0.1,0-0.5,0-0.7,0.2c-0.1,0.1-0.2,0.3-0.2,0.5c0,0.3,0.1,0.4,0.2,0.5c0.2,0.1,0.4,0.2,0.5,0.2l0.8,0c0.2,0.8,0.7,1.5,1.3,2
		c0.7,0.5,1.5,0.8,2.5,0.8c0.7,0,1.2-0.1,1.6-0.2c0.4-0.1,1-0.5,0.9-1.2c0-0.3-0.2-0.5-0.3-0.6c-0.4-0.2-0.9-0.1-0.9,0
		c-0.3,0.1-0.7,0.2-1.1,0.2c-0.4,0-0.8-0.1-1.1-0.4c-0.2-0.1-0.3-0.3-0.4-0.5l2,0c0.1,0,0.5,0,0.8-0.2c0.1-0.1,0.2-0.3,0.2-0.5
		c0-0.2-0.1-0.4-0.2-0.5c-0.2-0.2-0.4-0.2-0.6-0.2l-2.6,0c0,0,0,0,0-0.1l2.7,0c0.4,0,1-0.1,1-0.6c0-0.2,0-0.4-0.2-0.5
		c-0.2-0.2-0.6-0.3-0.7-0.3h-2.5c0.1-0.2,0.3-0.4,0.5-0.5c0.3-0.2,0.7-0.4,1.1-0.4c0.4,0,0.8,0.1,1.1,0.2c0.1,0.1,0.7,0.2,1,0
		c0.2-0.1,0.3-0.3,0.3-0.5C29.8,37.9,28.9,37.4,28.8,37.4z"/>
</g>
</svg>
