<?xml version="1.0" encoding="utf-8"?>
<svg version="1.1" id="Calque_1" xmlns="http://www.w3.org/2000/svg" xmlns:xlink="http://www.w3.org/1999/xlink" x="0px" y="0px"
	 viewBox="0 0 56 58" style="enable-background:new 0 0 56 58;" xml:space="preserve">
<g>
	<path class="st0" d="M11.1,49.6c-0.6,0-1-0.4-1-1V19.2l1.3-7.6c0.1-0.5,0.5-0.8,0.9-0.8h12.6l2.3-2.2c0.2-0.2,0.4-0.3,0.7-0.3
		c0.2,0,0.5,0.1,0.7,0.3l2.2,2.2h12.7c0.5,0,0.9,0.3,0.9,0.8l1.3,7.6v29.4c0,0.6-0.4,1-1,1H11.1z M22.7,31.2c0.6,0,1,0.5,1,1.1v15.5
		H44V21.9H12.1v25.8H14V32.2c0-0.6,0.4-1,1-1H22.7L22.7,31.2z M15.9,47.7h6V33.2h-6V47.7z M23.9,20.2H32V18h-8.1V20.2z M33.7,13.6
		c0.2,0.2,0.3,0.4,0.3,0.7v5.8h9.9v-0.6l-1.2-6.7h-10L33.7,13.6z M12.1,19.5v0.6H22v-5.8c0-0.3,0.1-0.5,0.3-0.7l0.9-0.9h-10
		L12.1,19.5z M24,14.7V16h8.1v-1.2l-4-4.1L24,14.7z"/>
	<path class="st0" d="M32.4,31.7c-0.2-0.2-0.5-0.4-0.8-0.4h-5.1c-0.6,0-1,0.4-1,1v9.6c0,0.5,0.4,1,1,1h5.1c0.6,0,1-0.4,1-1v-9.5
		C32.6,32.1,32.6,31.9,32.4,31.7z M30.7,40.9h-3.2V38h3.2V40.9z M30.7,36.1h-3.2v-2.9h3.2V36.1z"/>
	<path class="st0" d="M40.3,31.3h-5.1c-0.6,0-1,0.4-1,1v9.6c0,0.5,0.4,1,1,1h5.1c0.6,0,1-0.4,1-1v-9.6
		C41.3,31.8,40.9,31.3,40.3,31.3z M39.4,40.9h-3.2V38h3.2V40.9z M39.4,36.1h-3.2v-2.9h3.2V36.1z"/>
	<circle class="st0" cx="17.3" cy="41.8" r="0.9"/>
</g>
</svg>
