<?xml version="1.0" encoding="utf-8"?>
<svg version="1.1" id="Calque_1" xmlns="http://www.w3.org/2000/svg" xmlns:xlink="http://www.w3.org/1999/xlink" x="0px" y="0px"
	 viewBox="0 0 56 58" style="enable-background:new 0 0 56 58;" xml:space="preserve">
<g>
	<path class="st1" d="M49,15.1h-8.3v-7c0-0.6-0.4-1-1-1H16.3c-0.6,0-1,0.4-1,1l0,7H7c-0.3,0-0.5,0.1-0.7,0.3C6.1,15.5,6,15.8,6,16.1
		l0.1,33.9c0,0.5,0.5,1,1,1H49c0.6,0,1-0.4,1-1V16.1C50,15.5,49.6,15.1,49,15.1z M48,17.1v31.9h-7.2l-0.1-31.9H48z M31.6,42.4v6.5
		h-7.2l-0.1-6.5H31.6z M32.6,40.4h-9.3c-0.3,0-0.5,0.1-0.7,0.3c-0.2,0.2-0.3,0.5-0.3,0.7l0.1,7.5h-5.2l0-39.9h21.4v39.9h-5.1v-7.5
		C33.6,40.8,33.2,40.4,32.6,40.4z M15.3,17.1v31.9H8.1L8,17.1H15.3z"/>
	<path class="st1" d="M35.7,16.9c0.6,0,1-0.4,1-1v-3.5c0-0.6-0.4-1-1-1s-1,0.4-1,1v3.5C34.7,16.5,35.1,16.9,35.7,16.9z"/>
	<path class="st1" d="M20.3,11.4c-0.6,0-1,0.4-1,1v3.5c0,0.6,0.4,1,1,1c0.6,0,1-0.4,1-1v-3.5C21.3,11.9,20.9,11.4,20.3,11.4z"/>
	<path class="st1" d="M25.5,11.4c-0.6,0-1,0.4-1,1v3.5c0,0.6,0.4,1,1,1c0.6,0,1-0.4,1-1v-3.5C26.5,11.9,26,11.4,25.5,11.4z"/>
	<path class="st1" d="M30.6,11.4c-0.6,0-1,0.4-1,1v3.5c0,0.6,0.4,1,1,1s1-0.4,1-1v-3.5C31.6,11.9,31.1,11.4,30.6,11.4z"/>
	<path class="st1" d="M35.7,23.6c0.6,0,1-0.4,1-1v-3.5c0-0.6-0.4-1-1-1s-1,0.4-1,1v3.5C34.7,23.1,35.1,23.6,35.7,23.6z"/>
	<path class="st1" d="M20.3,18c-0.6,0-1,0.4-1,1v3.5c0,0.6,0.4,1,1,1c0.6,0,1-0.4,1-1V19C21.3,18.5,20.9,18,20.3,18z"/>
	<path class="st1" d="M25.5,18c-0.6,0-1,0.4-1,1v3.5c0,0.6,0.4,1,1,1c0.6,0,1-0.4,1-1V19C26.5,18.5,26,18,25.5,18z"/>
	<path class="st1" d="M30.6,18c-0.6,0-1,0.4-1,1v3.5c0,0.6,0.4,1,1,1s1-0.4,1-1V19C31.6,18.5,31.1,18,30.6,18z"/>
	<path class="st1" d="M35.7,30.2c0.6,0,1-0.4,1-1v-3.5c0-0.6-0.4-1-1-1s-1,0.4-1,1v3.5C34.7,29.8,35.1,30.2,35.7,30.2z"/>
	<path class="st1" d="M20.3,24.7c-0.6,0-1,0.4-1,1v3.5c0,0.6,0.4,1,1,1c0.6,0,1-0.4,1-1v-3.5C21.3,25.2,20.9,24.7,20.3,24.7z"/>
	<path class="st1" d="M25.5,24.7c-0.6,0-1,0.4-1,1v3.5c0,0.6,0.4,1,1,1c0.6,0,1-0.4,1-1v-3.5C26.5,25.2,26,24.7,25.5,24.7z"/>
	<path class="st1" d="M30.6,24.7c-0.6,0-1,0.4-1,1v3.5c0,0.6,0.4,1,1,1s1-0.4,1-1v-3.5C31.6,25.2,31.1,24.7,30.6,24.7z"/>
	<path class="st1" d="M35.7,37c0.6,0,1-0.4,1-1v-3.5c0-0.6-0.4-1-1-1s-1,0.4-1,1V36C34.7,36.6,35.1,37,35.7,37z"/>
	<path class="st1" d="M20.3,31.5c-0.6,0-1,0.4-1,1V36c0,0.6,0.4,1,1,1c0.6,0,1-0.4,1-1v-3.5C21.3,31.9,20.9,31.5,20.3,31.5z"/>
	<path class="st1" d="M25.5,31.5c-0.6,0-1,0.4-1,1V36c0,0.6,0.4,1,1,1c0.6,0,1-0.4,1-1v-3.5C26.5,31.9,26,31.5,25.5,31.5z"/>
	<path class="st1" d="M30.6,31.5c-0.6,0-1,0.4-1,1V36c0,0.6,0.4,1,1,1s1-0.4,1-1v-3.5C31.6,31.9,31.1,31.5,30.6,31.5z"/>
</g>
</svg>
