<?xml version="1.0" encoding="utf-8"?>
<svg version="1.1" id="Calque_1" xmlns="http://www.w3.org/2000/svg" xmlns:xlink="http://www.w3.org/1999/xlink" x="0px" y="0px"
	 viewBox="0 0 56 58" style="enable-background:new 0 0 56 58;" xml:space="preserve">
<g>
	<path class="st1" d="M28.8,39.8c-6,0-10.9-6.4-11.4-12.1c-1.4-0.4-2.6-1.5-2.6-2.9v-4c0-1.2,1.2-2.2,2-2.6v-3.4
		c0-3.8,3.1-6.9,6.9-7c0.8-0.3,4-1.5,7.3-1.5c5.2,0,8.1,3,8.1,8.5v3.1c2,0.4,2,2,2,2.9v4c0,1.4-0.6,2.4-1.7,2.8
		C39.2,33.5,34.7,39.8,28.8,39.8z M31.1,8.2c-3.3,0-6.7,1.4-6.7,1.4c-0.1,0.1-0.3,0.1-0.4,0.1c-2.8,0-5.1,2.2-5.1,5v4
		c0,0.4-0.2,0.8-0.6,0.9c-0.7,0.3-1.4,0.9-1.4,1.1v4c0,0.4,0.9,1,1.5,1c0.6,0,1,0.4,1,1c0,5,4.3,11,9.4,11c4.9,0,8.8-5.9,8.8-11
		c0-0.6,0.5-1,1-1c0.4,0,0.6-0.3,0.6-1v-4c0-1,0-1-1-1c-0.6,0-1-0.4-1-1v-4C37.2,10.4,35.2,8.2,31.1,8.2z"/>
	<g>
		<path class="st1" d="M40,50c-0.4,0.4-1.1,0.3-1.6-0.2l-4.2-4.2c-0.5-0.5-0.6-1.2-0.2-1.6c0.4-0.4,1.1-0.3,1.6,0.2l4.2,4.2
			C40.3,48.9,40.4,49.6,40,50z"/>
		<path class="st1" d="M48.9,38l-8.5,11.5c-0.5,0.6-1.2,0.9-1.7,0.6c-0.5-0.3-0.4-1.1,0-1.7l8.5-11.5c0.5-0.6,1.2-0.9,1.7-0.6
			C49.4,36.6,49.4,37.4,48.9,38z"/>
	</g>
	<path class="st1" d="M7.8,51.8c-0.6,0-1-0.4-1-1c0-5.8,4.7-10,11.2-10h2.5l2.7-4c0.3-0.5,0.9-0.6,1.4-0.3c0.5,0.3,0.6,0.9,0.3,1.4
		l-3,4.4c-0.2,0.3-0.5,0.4-0.8,0.4h-3c-5.4,0-9.1,3.3-9.1,8C8.8,51.3,8.3,51.8,7.8,51.8z"/>
</g>
</svg>
