<?xml version="1.0" encoding="utf-8"?>
<!-- Generator: Adobe Illustrator 21.1.0, SVG Export Plug-In . SVG Version: 6.00 Build 0)  -->
<svg version="1.1" id="Calque_1" xmlns="http://www.w3.org/2000/svg" xmlns:xlink="http://www.w3.org/1999/xlink" x="0px" y="0px"
	 viewBox="0 0 56 58" style="enable-background:new 0 0 56 58;" xml:space="preserve">
<style type="text/css">
	.st0{stroke:#000000;stroke-width:0.25;stroke-miterlimit:10;}
</style>
<g>
	<path d="M51.2,27.8c-1.5-7.8-5.8-13.6-12.8-17.2C37.2,10,35.8,9.4,34.3,9c-0.4-0.1-0.9,0-1.1,0.4c-0.2,0.4-0.2,0.9,0.1,1.2l0.2,0.2
		c0.1,0.1,0.2,0.2,0.3,0.3c1.6,1.8,2.1,3.9,1.4,6.5c-0.4,1.8-1.4,3.4-2.3,4.7c-1,1.6-2.1,3.3-3.1,5c-1.6,2.9-2.5,5.6-2.8,8.3
		c-0.4,3.3,0.4,6.3,2.2,8.9c1.6,2.2,3.5,3.6,5.8,4.2c0.3,0.1,0.7,0.2,1,0.2l0.4,0.1c0.1,0,0.1,0,0.2,0c0.4,0,0.7-0.2,0.9-0.6
		c0.2-0.4,0.1-0.9-0.2-1.2c-0.3-0.2-0.5-0.3-0.8-0.4c-1.6-0.7-2.5-1.8-2.8-3.4c-0.2-1-0.1-2.2,0.4-3.6c0.5-1.6,1.4-3.1,2.3-4.5
		c0.8-1.3,1.7-2.7,2.4-4.2c0.4-0.7,0.7-1.4,0.9-2.2c0.4,1.7,0.4,3.6,0.1,5.5c-0.1,0.6-0.3,1.2-0.5,1.8l0.1,0h0l-0.1,0
		c-0.1,0.3-0.2,0.7-0.3,1c-0.2,0.9-0.1,1.7,0.3,2.4c0.4,0.6,1,1.1,1.8,1.2c0.8,0.2,1.6,0,2.1-0.5c0.1-0.1,0.3-0.2,0.4-0.4
		c0.1,0.4,0.2,0.7,0.3,1.1c0.3,1.1,0.3,2,0.1,2.8c-0.1,0.3-0.2,0.7-0.3,1l0,0.1c-0.1,0.2-0.1,0.3-0.2,0.5c-0.1,0.4,0,0.9,0.4,1.1
		c0.4,0.3,0.8,0.3,1.2,0l0.4-0.3c1.3-1,2.3-2.3,3.2-4C51.5,37.9,52.2,32.9,51.2,27.8z M42,37.4l0,0.2c0,0.1,0,0.1,0.1,0.2
		c0,0.1,0.1,0.2,0.1,0.4l0,0c0.1,0.3,0.1,0.5,0.1,0.7c0,0.1,0,0.3-0.1,0.4c-0.1,0.1-0.3,0.1-0.4,0.1c-0.2-0.1-0.4-0.2-0.5-0.3
		c-0.1-0.2-0.2-0.5-0.1-0.9c0.1-0.3,0.2-0.7,0.3-1c0.2-0.6,0.4-1.3,0.5-2c0.7-3.8,0.1-7.2-1.7-10.4c-0.1-0.2-0.3-0.5-0.6-0.7
		c-0.3-0.3-0.8-0.3-1.1-0.1c-0.4,0.2-0.6,0.6-0.5,1l0.1,0.3c0,0.1,0.1,0.3,0.1,0.4c0.2,1.6-0.1,3.2-0.9,4.8
		c-0.7,1.4-1.6,2.8-2.4,4.1c-1,1.5-1.9,3.1-2.5,5c-0.5,1.7-0.7,3.2-0.4,4.5c0.1,0.3,0.1,0.6,0.2,0.8c-0.4-0.4-0.8-0.9-1.2-1.4
		c-1.6-2.2-2.2-4.6-1.9-7.5c0.3-2.4,1.1-4.9,2.6-7.6c0.9-1.7,2-3.4,3-4.9c1-1.5,2-3.3,2.6-5.3c0.6-2.3,0.4-4.3-0.4-6.2
		c0.2,0.1,0.5,0.2,0.7,0.3C44,15.7,47.9,21,49.3,28.2c0.9,4.7,0.2,9.2-2.1,13.5c-0.2,0.4-0.5,0.9-0.7,1.2c0-0.6-0.1-1.3-0.3-2
		c-0.4-1.5-1-2.8-1.8-4c-0.1-0.2-0.3-0.3-0.4-0.4l-0.1-0.1c-0.3-0.4-0.9-0.4-1.3-0.2C42.1,36.5,41.9,36.9,42,37.4z"/>
	<g>
		<path d="M28.4,17.4L28.4,17.4c-0.9-2.9-2.7-5.3-5-6.7c-1.6-0.9-3.7-1.6-5.8-1.8c-3-0.2-6.1,0.6-8.4,2.3c-2,1.5-3.6,3.8-4.4,6.5
			c-0.6,2.2-1,5.5,0.7,9.1c0.4,0.9,1,1.8,1.6,2.7c0.8,1.2,1.7,2.5,2,3.9c0.1,0.5,0.1,0.9,0.1,1.3c0,0.5,0,1,0.2,1.6
			c0.5,1.2,1.8,2.5,3.2,3c0.9,0.3,2,0.4,3.1,0.4l0.9,0c0.7,0,1.5,0,1.6,0c0.7,0,1.6,0,2.3-0.3c1.6-0.5,2.8-1.9,3.3-3
			c0.2-0.6,0.3-1.3,0.3-2c0-0.4,0.1-0.8,0.1-1.1c0.3-1.6,1.1-2.7,1.9-4c0.6-0.9,1.2-1.8,1.7-3C29.2,23.6,29.4,20.4,28.4,17.4z
			 M19.5,28.4c0.1-0.4-0.1-0.8-0.5-1c-0.1,0-0.2-0.1-0.3-0.1c-0.3,0-0.5,0.1-0.7,0.3l-1.4,1.9l-1.4-1.9c-0.2-0.3-0.7-0.4-1.1-0.3
			s-0.6,0.6-0.5,1c0.5,2.1,1.4,8.1,1.6,9.3c-0.7,0-1.4-0.1-1.9-0.2c-0.8-0.3-1.7-1.1-2-1.8c-0.1-0.2-0.1-0.5-0.1-0.9
			c0-0.4,0-1-0.2-1.7c-0.4-1.8-1.3-3.2-2.2-4.6c-0.5-0.8-1-1.6-1.4-2.4c-1.4-3.1-1.1-5.9-0.6-7.7c0.7-2.3,2-4.3,3.6-5.5
			c1.7-1.3,3.9-1.9,6.2-1.9c0.3,0,0.6,0,0.9,0c1.8,0.1,3.6,0.7,4.9,1.5c1.9,1.2,3.4,3.2,4.2,5.6c0.8,2.6,0.7,5.3-0.4,7.7
			c-0.4,1-1,1.8-1.5,2.6c-0.9,1.4-1.8,2.7-2.2,4.7c-0.1,0.4-0.1,0.9-0.1,1.3c0,0.5-0.1,1-0.2,1.3c-0.3,0.6-1.1,1.5-2.1,1.8
			c-0.5,0.2-1.1,0.2-1.7,0.2C18.3,35.6,19.4,29.1,19.5,28.4z M17.2,31.5c-0.2,1.3-0.4,2.9-0.6,4.2c-0.2-1.1-0.4-2.6-0.7-4.1
			c0.2,0.1,0.4,0.2,0.6,0.2C16.8,31.9,17,31.8,17.2,31.5L17.2,31.5z"/>
		<path d="M20.6,43.1l-7.5-1.1c-0.4-0.1-0.7,0.2-0.7,0.6L12.3,43c0,0.2,0,0.3,0.1,0.5s0.3,0.2,0.4,0.3l7.5,1.1c0,0,0.1,0,0.1,0
			c0.3,0,0.6-0.2,0.6-0.6l0.1-0.5C21.2,43.5,20.9,43.1,20.6,43.1z"/>
		<path d="M20.6,41.1l-7.5-1.1c-0.4-0.1-0.7,0.2-0.7,0.6L12.3,41c0,0.2,0,0.3,0.1,0.5c0.1,0.1,0.3,0.2,0.4,0.3l7.5,1.1
			c0,0,0.1,0,0.1,0c0.3,0,0.6-0.2,0.6-0.6l0.1-0.5c0-0.2,0-0.3-0.1-0.5C20.9,41.2,20.7,41.1,20.6,41.1z"/>
		<g>
			<path d="M15.6,46.3l2,0.3c-0.2,0.3-0.6,0.5-0.9,0.5C16.1,47.2,15.7,46.8,15.6,46.3 M13.2,44c-0.5,0-0.9,0.3-0.9,0.8
				c0,0.2,0,0.5,0.2,0.7c0.1,0.2,0.4,0.3,0.6,0.4l0.4,0.1c0,0,0,0.1,0,0.1c0,1.7,1.4,3.1,3.1,3.1c1.4,0,2.7-1,3-2.3l0.3,0
				c0,0,0.1,0,0.1,0c0.5,0,0.9-0.3,0.9-0.8c0.1-0.5-0.3-1-0.8-1.1l-6.9-1C13.3,44,13.3,44,13.2,44L13.2,44z"/>
		</g>
		<path d="M22.8,19.2l0-0.1l-0.1,0c-2.2-0.1-4,0.5-5.2,1.8c-0.9,1-1.4,2.3-1.2,3.7l0.1,0.4l0.2-0.4c0.7-1.4,1.5-2.3,2.6-2.8
			c-1.1,1.1-1.9,2.4-2.3,4l0,0.1l0.2,0c0.1,0,0.2,0,0.4,0c1.7,0,3.1-0.6,4.1-1.7C22.5,23,23,21.1,22.8,19.2z"/>
		<path d="M11.8,21.2L11.8,21.2l-0.1,0.1c0,1.3,0.4,2.5,1.2,3.2c0.5,0.4,1,0.6,1.6,0.6c0.1,0,0.3,0,0.4,0l0.4-0.1L15,24.9
			c-0.7-0.4-1.1-0.8-1.4-1.2l2.3,1.5l0-0.2c0-1.3-0.5-2.4-1.3-3.1C13.8,21.2,12.8,21,11.8,21.2z"/>
	</g>
</g>
</svg>
