<?xml version="1.0" encoding="utf-8"?>
<svg version="1.1" id="Calque_1" xmlns="http://www.w3.org/2000/svg" xmlns:xlink="http://www.w3.org/1999/xlink" x="0px" y="0px"
	 viewBox="0 0 56 58" style="enable-background:new 0 0 56 58;" xml:space="preserve">
<path class="st3" d="M53.3,49.7H41.5v-1.3h11.8v0c0.5,0,0.9-0.4,0.9-0.9c0-0.5-0.4-0.9-0.9-0.9v0H41.5V7.4c0-0.5-0.4-0.9-0.9-0.9
	H15.4c-0.5,0-0.9,0.4-0.9,0.9v39.3H2.7c-0.5,0-0.9,0.4-0.9,0.9c0,0.5,0.4,0.9,0.9,0.9h11.8v1.3H2.7c-0.5,0-0.9,0.4-0.9,0.9
	c0,0.5,0.4,0.9,0.9,0.9h12.7c0.1,0,0.2,0,0.3,0l16.8-5c0.3-0.1,0.6-0.4,0.6-0.8V8.3h6.6v42.3c0,0.5,0.4,0.9,0.9,0.9h12.8
	c0.5,0,0.9-0.4,0.9-0.9C54.2,50.1,53.8,49.7,53.3,49.7z M31.4,23.8h-2.1c0,0,0,0,0,0c-0.5,0-0.9,0.4-0.9,0.9c0,0.5,0.4,0.9,0.9,0.9
	c0,0,0,0,0,0v0h2.1v19.3l-15.1,4.5V8.3h15.1V23.8z"/>
</svg>
