<?xml version="1.0" encoding="utf-8"?>
<svg version="1.1" id="Calque_1" xmlns="http://www.w3.org/2000/svg" xmlns:xlink="http://www.w3.org/1999/xlink" x="0px" y="0px"
	 viewBox="0 0 56 58" style="enable-background:new 0 0 56 58;" xml:space="preserve">
<path class="st1" d="M39.2,40.2h-2.5l-2.5-3.6c2.7-2.4,4.4-6,4.7-9.5c2.1-0.3,3-1.6,3-2.9v-4c0-1.2-1.2-2.2-2-2.6v-3
	c1.4-1.9,1.7-3.9,0.9-5.7c-1.2-2.5-4.2-4.1-7.8-4.1c-1.8,0-4.6,0.4-7.4,2.5c-8.5,0.1-9.7,3.4-9.7,7v3.4c-0.8,0.5-2,1.4-2,2.6v4
	c0,1.3,0.9,2.6,3,2.9c0.3,3.5,2.1,7.2,4.8,9.6l-2.4,3.5H17c-6.4,0-11,4.2-11,10v2c0,0.6,0.4,1,1,1c0.6,0,1-0.4,1-1v-2
	c0-4.7,3.7-8,9-8h3c0.3,0,0.6-0.2,0.8-0.4l2.6-3.9c1.4,0.8,2.9,1.3,4.6,1.3c1.7,0,3.2-0.5,4.6-1.4l2.7,3.9c0.2,0.3,0.5,0.4,0.8,0.4
	h3c5.2,0,8.8,3.3,8.8,8v2c0,0.6,0.4,1,1,1c0.5,0,1-0.4,1-1v-2C50,44.4,45.5,40.2,39.2,40.2z M28,37.2c-1.5,0-2.9-0.5-4.1-1.4
	c-0.1-0.1-0.1-0.1-0.2-0.1c0,0-0.1,0-0.1-0.1c-2.8-2.1-4.6-6-4.6-9.4c0-0.5-0.4-1-1-1c-0.9,0-2-0.3-2-1v-4c0-0.2,0.7-0.8,1.4-1.1
	c0.4-0.2,0.6-0.5,0.6-0.9v-4c0-2.2,0-5,8-5c0.2,0,0.4-0.1,0.6-0.2c2.5-1.9,4.9-2.3,6.5-2.3c2.7,0,5.1,1.2,5.9,2.9
	c0.6,1.2,0.3,2.6-0.8,3.9C38.1,13.8,38,14,38,14.2v4c0,0.4,0.2,0.8,0.6,0.9c0.6,0.3,1.4,0.9,1.4,1.1v4c0,0.7-1.1,1-2,1
	c-0.6,0-1,0.5-1,1C37,31.2,33,37.2,28,37.2z"/>
</svg>
