<?xml version="1.0" encoding="utf-8"?>
<!-- Generator: Adobe Illustrator 21.1.0, SVG Export Plug-In . SVG Version: 6.00 Build 0)  -->
<svg version="1.1" xmlns="http://www.w3.org/2000/svg" xmlns:xlink="http://www.w3.org/1999/xlink" x="0px" y="0px"
	 viewBox="0 0 56 58" style="enable-background:new 0 0 56 58;" xml:space="preserve">
<style type="text/css">
	.st0{fill:#E6E7E8;}
	.st1{filter:url(#Adobe_OpacityMaskFilter);}
	.st2{fill:#FFFFFF;}
	.st3{mask:url(#mask-2_1_);fill:#343434;}
	.st4{fill:#343434;}
	.st5{filter:url(#Adobe_OpacityMaskFilter_1_);}
	.st6{mask:url(#mask-4_1_);fill:#4A4A4A;}
	.st7{filter:url(#Adobe_OpacityMaskFilter_2_);}
	.st8{mask:url(#mask-6_1_);fill:#343434;}
	.st9{fill:#231F20;}
	.st10{fill:none;}
	.st11{fill-rule:evenodd;clip-rule:evenodd;}
	.st12{stroke:#000000;stroke-width:0.2847;stroke-miterlimit:10;}
	.st13{stroke:#000000;stroke-width:0.4098;stroke-miterlimit:10;}
	.st14{clip-path:url(#SVGID_3_);}
	.st15{clip-path:url(#SVGID_4_);}
	.st16{display:none;}
</style>
<g id="FILAIRES_x5F_2">
</g>
<g id="FILAIRES_x5F_3">
</g>
<g id="FILAIRES_x5F_1">
</g>
<g id="PLEINS">
</g>
<g id="GABARIT_SVG">
	<g>
		<path d="M46.6,32.9c-0.5-4.5-2.5-8.6-5.8-11.7l1.8-2.4c0.7-1,0.2-2.7-1.2-3.7C40,14,38.3,14,37.5,15l-1.9,2.7
			c-1.7-0.7-3.4-1.2-5.2-1.4v-2.4c1.1-0.6,2-1.5,2.4-2.7c0.5-1.2,0.4-2.6-0.2-3.8C32,6.1,31,5.2,29.8,4.7c-1.2-0.5-2.6-0.4-3.8,0.2
			c-1.2,0.6-2.1,1.6-2.6,2.8C23,9,23,10.3,23.6,11.5c0.5,1,1.3,1.8,2.3,2.3v2.3C15.7,17.4,8.3,26.5,9.4,36.7
			c1,9.6,9.2,16.8,18.6,16.8c0.6,0,1.3,0,1.9-0.1c5-0.5,9.5-2.9,12.6-6.8C45.7,42.8,47.2,37.9,46.6,32.9z M41.5,45.5
			c-3.1,3.9-7.7,6.3-12.7,6.5V17.6c2.8,0.1,5.5,0.9,7.9,2.3c0.6,0.6,1.3,1,2,1.4C46.1,27.2,47.3,38,41.5,45.5z M26,12.2
			c-0.9-0.6-1.4-1.7-1.4-2.8v0c0-1.9,1.5-3.5,3.5-3.5c0,0,0,0,0,0c1.9,0,3.5,1.6,3.5,3.5c0,1.1-0.5,2.2-1.4,2.8
			c-0.4-1-1.6-1.5-2.7-1.2C26.8,11.1,26.3,11.6,26,12.2z M27.3,17.6v34.3C18,51.5,10.8,44,10.8,34.8v0C10.9,25.5,18.1,18,27.3,17.6z
			"/>
		<g>
			<path d="M15.6,35.9c-0.1-0.4-0.6-0.6-1-0.5l0,0l-0.7,0.2c-0.4,0.1-0.7,0.5-0.6,0.9c0.1,0.4,0.4,0.6,0.7,0.6c0,0,0,0,0.1,0h0.2
				l0.9-0.3C15.5,36.7,15.8,36.3,15.6,35.9z"/>
			<path d="M19.1,31c0.4,0,0.8-0.3,0.8-0.8v-0.8c0-0.4-0.3-0.8-0.8-0.8s-0.8,0.3-0.8,0.8v0.8C18.4,30.7,18.7,31,19.1,31z"/>
			<path d="M21.7,31.9c0.2,0,0.5-0.1,0.6-0.3l0.5-0.7c0.2-0.3,0.2-0.8-0.2-1c-0.2-0.1-0.4-0.2-0.6-0.1c-0.2,0-0.4,0.1-0.5,0.3
				l-0.5,0.7c-0.2,0.3-0.2,0.8,0.2,1C21.4,31.9,21.6,31.9,21.7,31.9z"/>
			<path d="M15.9,31.6L15.9,31.6c0.1,0.2,0.4,0.3,0.6,0.3c0.2,0,0.3,0,0.4-0.1c0.2-0.1,0.3-0.3,0.3-0.5s0-0.4-0.1-0.6L16.7,30
				c-0.2-0.3-0.7-0.4-1-0.2c-0.3,0.2-0.4,0.7-0.2,1L15.9,31.6z"/>
			<path d="M13.9,33.8l0.8,0.3l0.1,0c0.3,0.1,0.6-0.1,0.8-0.3c-0.1,0.3-0.1,0.6-0.1,0.9c0,2,1.6,3.6,3.6,3.6s3.6-1.6,3.6-3.6
				c0-0.4-0.1-0.7-0.2-1.1c0.1,0.3,0.5,0.5,0.8,0.5h0.2l0.9-0.3c0.2-0.1,0.4-0.2,0.5-0.4c0.1-0.2,0.1-0.4,0.1-0.6
				c-0.1-0.2-0.2-0.4-0.4-0.5c-0.2-0.1-0.4-0.1-0.6-0.1l-0.8,0.2c-0.4,0.1-0.7,0.5-0.6,0.9c0,0,0,0,0,0c-0.5-1.4-1.8-2.4-3.4-2.4
				c-1.5,0-2.8,1-3.4,2.3c0-0.2,0-0.3-0.1-0.5c-0.1-0.2-0.3-0.3-0.5-0.3l-0.8-0.3c-0.4-0.1-0.8,0.1-1,0.5
				C13.3,33.3,13.5,33.7,13.9,33.8z M17,34.7c0-1.2,0.9-2.1,2.1-2.1c0,0,0,0,0,0c1.1,0,1.9,0.8,2.1,1.9l0,0.3c0,1.2-0.9,2.1-2.1,2.1
				S17,35.8,17,34.7z"/>
			<path d="M40.7,37.4c-0.1-0.1-0.3-0.2-0.4-0.2c-2.3-0.5-3.7-2.8-3.1-5c0.1-0.6,0.4-1.2,0.8-1.6c0.2-0.3,0.3-0.7,0.1-1
				c-0.2-0.3-0.5-0.4-0.9-0.4c-1.4,0-2.8,0.6-3.8,1.7c-1,1.1-1.5,2.4-1.5,3.9c0,1.4,0.6,2.8,1.7,3.8c1,1,2.3,1.5,3.7,1.5
				c0.1,0,0.1,0,0.2,0c1.1,0,2.2-0.4,3.1-1.1c0.1-0.1,0.2-0.2,0.3-0.3C41.1,38.1,41,37.7,40.7,37.4z M37.3,38.4
				c-2.2,0-3.9-1.8-3.9-4c0-1.6,1.1-3.1,2.6-3.7c-0.2,0.5-0.4,1-0.4,1.6c-0.3,1.7,0.3,3.5,1.5,4.7c0.4,0.5,1,0.9,1.6,1.1
				c-0.3,0.1-0.6,0.2-0.9,0.2l0,0L37.3,38.4z"/>
			<path d="M24.3,35.6l-0.8-0.3c-0.2-0.1-0.4,0-0.6,0.1c-0.2,0.1-0.3,0.3-0.4,0.5c-0.1,0.4,0.1,0.8,0.5,1l0.8,0.3l0.2,0
				c0,0,0.1,0,0.1,0c0.4,0,0.7-0.3,0.8-0.7C24.9,36,24.7,35.7,24.3,35.6z"/>
			<path d="M19.1,38.4c-0.4,0-0.8,0.3-0.8,0.8v0.8c0,0.4,0.3,0.8,0.8,0.8s0.8-0.3,0.8-0.8v-0.8C19.9,38.7,19.5,38.4,19.1,38.4z"/>
			<path d="M22.3,37.8L22.3,37.8c-0.1-0.2-0.3-0.3-0.5-0.3c-0.2,0-0.4,0-0.6,0.1C21.1,37.8,21,38,21,38.1s0,0.4,0.1,0.6l0.5,0.7
				c0.1,0.2,0.4,0.3,0.6,0.3c0.2,0,0.3,0,0.4-0.1c0.3-0.2,0.4-0.7,0.2-1L22.3,37.8z"/>
			<path d="M16.4,37.5c-0.2,0-0.4,0.1-0.5,0.3l-0.5,0.7c-0.2,0.3-0.2,0.8,0.2,1c0.1,0.1,0.3,0.1,0.4,0.1c0.2,0,0.5-0.1,0.6-0.3
				l0.5-0.7c0.1-0.2,0.2-0.4,0.1-0.6s-0.1-0.4-0.3-0.5C16.8,37.5,16.6,37.5,16.4,37.5z"/>
		</g>
	</g>
</g>
</svg>
