<?xml version="1.0" encoding="utf-8"?>
<!-- Generator: Adobe Illustrator 21.1.0, SVG Export Plug-In . SVG Version: 6.00 Build 0)  -->
<svg version="1.1" xmlns="http://www.w3.org/2000/svg" xmlns:xlink="http://www.w3.org/1999/xlink" x="0px" y="0px"
	 viewBox="0 0 56 58" style="enable-background:new 0 0 56 58;" xml:space="preserve">
<style type="text/css">
	.st0{fill:#E6E7E8;}
	.st1{filter:url(#Adobe_OpacityMaskFilter);}
	.st2{fill:#FFFFFF;}
	.st3{mask:url(#mask-2_1_);fill:#343434;}
	.st4{fill:#343434;}
	.st5{filter:url(#Adobe_OpacityMaskFilter_1_);}
	.st6{mask:url(#mask-4_1_);fill:#4A4A4A;}
	.st7{filter:url(#Adobe_OpacityMaskFilter_2_);}
	.st8{mask:url(#mask-6_1_);fill:#343434;}
	.st9{fill:#231F20;}
	.st10{fill:none;}
	.st11{fill-rule:evenodd;clip-rule:evenodd;}
	.st12{stroke:#000000;stroke-width:0.2847;stroke-miterlimit:10;}
	.st13{stroke:#000000;stroke-width:0.4098;stroke-miterlimit:10;}
	.st14{clip-path:url(#SVGID_3_);}
	.st15{clip-path:url(#SVGID_4_);}
	.st16{display:none;}
</style>
<g id="FILAIRES_x5F_2">
</g>
<g id="FILAIRES_x5F_3">
</g>
<g id="FILAIRES_x5F_1">
</g>
<g id="PLEINS">
</g>
<g id="GABARIT_SVG">
	<g>
		<path d="M34.6,27.5c0.4,0,0.7-0.3,0.7-0.7c0,0,0,0,0,0v-5.9c0-0.4-0.3-0.7-0.7-0.7c0,0,0,0,0,0h-4.4c-0.4,0-0.7,0.3-0.7,0.7
			c0,0,0,0,0,0v5.9c0,0.4,0.3,0.7,0.7,0.7C30.2,27.5,34.6,27.5,34.6,27.5z M30.9,21.7h2.9v4.4h-2.9L30.9,21.7L30.9,21.7z"/>
		<path d="M15.3,20.9c0.3,0.1,0.6,0,0.8-0.2L28,8.8l11.9,11.9c0.2,0.2,0.5,0.3,0.8,0.2c0.3-0.1,0.5-0.4,0.5-0.7v-11
			c0-0.4-0.3-0.7-0.7-0.7l0,0h-7.3c-0.4,0-0.7,0.3-0.7,0.7c0,0.4,0.3,0.7,0.7,0.7h6.6v8.5L28.5,7.2c-0.3-0.3-0.7-0.3-1,0L16.3,18.4
			V9.9H20c0.4,0,0.7-0.3,0.7-0.7c0,0,0,0,0,0V8.5h1.5v0.7c0,0.4,0.3,0.7,0.7,0.7s0.7-0.3,0.7-0.7V7.7c0-0.4-0.3-0.7-0.7-0.7
			c0,0,0,0,0,0h-2.9c-0.4,0-0.7,0.3-0.7,0.7c0,0,0,0,0,0v0.7h-3.7c-0.4,0-0.7,0.3-0.7,0.7c0,0,0,0,0,0v11
			C14.8,20.5,15,20.8,15.3,20.9z"/>
		<path d="M17,21.3c-0.4,0-0.7,0.3-0.7,0.7c0,0,0,0,0,0v9.2c0,0.4,0.3,0.7,0.7,0.7h22c0.4,0,0.7-0.3,0.7-0.7c0,0,0,0,0,0V22
			c0-0.4-0.3-0.7-0.7-0.7c-0.4,0-0.7,0.3-0.7,0.7v8.4H28v-9.5c0-0.4-0.3-0.7-0.7-0.7c0,0,0,0,0,0h-5.9c-0.4,0-0.7,0.3-0.7,0.7
			c0,0,0,0,0,0v9.5h-2.9V22C17.8,21.6,17.4,21.3,17,21.3z M22.1,21.7h4.4v3.7h-0.7c-0.4,0-0.7,0.3-0.7,0.7s0.3,0.7,0.7,0.7h0.7v3.7
			h-4.4C22.1,30.5,22.1,21.7,22.1,21.7z M47,20.2c-1.6,0-2.9,1.3-2.9,2.9v5.8c0,0.4,0.3,0.7,0.7,0.7s0.7-0.3,0.7-0.7v-5.8
			c0-0.8,0.7-1.5,1.5-1.5c0.8,0,1.5,0.7,1.5,1.5v11c0,2-1.2,3.1-1.2,3.1l-6.6,6.6c-0.3,0.3-0.3,0.8,0,1c0.3,0.3,0.7,0.3,1,0l6.5-6.6
			c0.1-0.1,1.7-1.5,1.7-4.2v-11C50,21.5,48.6,20.2,47,20.2z"/>
		<path d="M44.8,46.6h-9.5v-5.9c0-2,1.2-3.1,1.3-3.1l5.1-5.1c0.3-0.3,0.7-0.5,1-0.5c0.4,0,0.7,0.1,1,0.4c0.3,0.3,0.4,0.6,0.4,0.9
			c0,0.4-0.2,0.8-0.5,1.1L39.9,38c-0.3,0.3-0.3,0.8,0,1c0.3,0.3,0.7,0.3,1,0l3.7-3.7c0.6-0.6,0.9-1.3,0.9-2.1c0-0.7-0.3-1.4-0.8-1.9
			c-0.5-0.5-1.3-0.8-2.1-0.8c-0.8,0-1.5,0.4-2,0.9l-5.1,5.1c-0.1,0.1-1.7,1.5-1.7,4.2v5.9h-0.7c-0.4,0-0.7,0.3-0.7,0.7v0v2.9
			c0,0.4,0.3,0.7,0.7,0.8c0.4,0,0.7-0.3,0.8-0.7c0,0,0,0,0-0.1v-2.2h10.2v2.2c0,0.4,0.3,0.7,0.7,0.7c0.4,0,0.7-0.3,0.7-0.7v-2.9
			C45.6,46.9,45.2,46.6,44.8,46.6C44.8,46.6,44.8,46.6,44.8,46.6L44.8,46.6z M22.9,46.6h-0.7v-5.9c0-2.7-1.6-4.2-1.7-4.2l-5.1-5.1
			c-0.5-0.5-1.2-0.9-2-0.9c-0.8,0-1.5,0.3-2.1,0.8c-0.5,0.5-0.8,1.3-0.8,2.1c0,0.7,0.3,1.4,0.9,2L15,39c0.3,0.3,0.8,0.2,1-0.1
			c0.2-0.3,0.2-0.7,0-1l-3.7-3.7c-0.3-0.3-0.5-0.7-0.5-1c0-0.4,0.1-0.7,0.4-1c0.3-0.3,0.6-0.4,1-0.4c0.4,0,0.7,0.2,1,0.5l5.2,5.2
			c0.1,0,1.2,1.1,1.2,3.1v5.9h-9.5c-0.4,0-0.7,0.3-0.7,0.7c0,0,0,0,0,0v2.9c0,0.4,0.3,0.7,0.7,0.7c0.4,0,0.7-0.3,0.7-0.7v-2.2h10.2
			v2.2c0,0.4,0.3,0.7,0.7,0.7s0.7-0.3,0.7-0.7v-2.9C23.6,46.9,23.3,46.6,22.9,46.6C22.9,46.6,22.9,46.6,22.9,46.6z"/>
		<path d="M14.8,45.1c0.4,0,0.7-0.3,0.7-0.7c0-0.2-0.1-0.4-0.2-0.5l-6.6-6.6c0,0-1.2-1.1-1.2-3.1v-11c0-0.8,0.7-1.5,1.5-1.5
			c0.8,0,1.5,0.7,1.5,1.5v5.8c0,0.4,0.3,0.7,0.7,0.8c0.4,0,0.7-0.3,0.8-0.7c0,0,0,0,0-0.1v-5.8c0-1.6-1.3-2.9-2.9-2.9
			c-1.6,0-2.9,1.3-2.9,2.9v11c0,2.7,1.7,4.2,1.7,4.2l6.6,6.6C14.4,45,14.6,45.1,14.8,45.1z"/>
	</g>
</g>
</svg>
