<?xml version="1.0" encoding="utf-8"?>
<!-- Generator: Adobe Illustrator 21.1.0, SVG Export Plug-In . SVG Version: 6.00 Build 0)  -->
<svg version="1.1" xmlns="http://www.w3.org/2000/svg" xmlns:xlink="http://www.w3.org/1999/xlink" x="0px" y="0px"
	 viewBox="0 0 56 58" style="enable-background:new 0 0 56 58;" xml:space="preserve">
<style type="text/css">
	.st0{fill:#E6E7E8;}
	.st1{filter:url(#Adobe_OpacityMaskFilter);}
	.st2{fill:#FFFFFF;}
	.st3{mask:url(#mask-2_1_);fill:#343434;}
	.st4{fill:#343434;}
	.st5{filter:url(#Adobe_OpacityMaskFilter_1_);}
	.st6{mask:url(#mask-4_1_);fill:#4A4A4A;}
	.st7{filter:url(#Adobe_OpacityMaskFilter_2_);}
	.st8{mask:url(#mask-6_1_);fill:#343434;}
	.st9{fill:#231F20;}
	.st10{fill:none;}
	.st11{fill-rule:evenodd;clip-rule:evenodd;}
	.st12{stroke:#000000;stroke-width:0.2847;stroke-miterlimit:10;}
	.st13{stroke:#000000;stroke-width:0.4098;stroke-miterlimit:10;}
	.st14{clip-path:url(#SVGID_3_);}
	.st15{clip-path:url(#SVGID_4_);}
	.st16{display:none;}
</style>
<g id="FILAIRES_x5F_2">
</g>
<g id="FILAIRES_x5F_3">
</g>
<g id="FILAIRES_x5F_1">
</g>
<g id="PLEINS">
</g>
<g id="GABARIT_SVG">
	<g>
		<path d="M42.4,18.5c0.7-0.9,0.1-2.4-1.2-3.4c-1.3-1-2.9-1-3.5-0.1l-2,2.8c-1.8-0.7-3.7-1.2-5.6-1.5v-2.8c2-1,3.1-3.2,2.6-5.3
			c-0.5-2.2-2.4-3.7-4.6-3.7c-2.2,0-4.1,1.6-4.6,3.7c-0.5,2.2,0.6,4.4,2.6,5.3v2.8c-8.7,0.9-15.5,7.8-16.5,16.5
			c-0.9,8.7,4.3,16.9,12.6,19.7c3.8,1.3,8,1.3,11.8-0.1c4.2-1.4,7.7-4.4,10-8.2c4.4-7.6,3-17.2-3.4-23.2L42.4,18.5L42.4,18.5z
			 M25.1,9.1c0-1.5,1-2.7,2.5-3C29,5.9,30.4,6.7,30.9,8c0.5,1.4,0,2.9-1.2,3.7c-0.2-0.7-0.8-1.2-1.6-1.2c-0.7,0-1.4,0.5-1.6,1.2
			C25.7,11.2,25.1,10.2,25.1,9.1L25.1,9.1L25.1,9.1z M28,51.5c-9.1,0-16.5-7.5-16.5-16.7S18.9,18.2,28,18.2
			c9.1,0,16.5,7.5,16.5,16.7S37.2,51.5,28,51.5z"/>
		<path d="M37.9,33.2h-8.4v-5.2c0-0.5-0.4-0.8-0.8-0.8s-0.8,0.4-0.8,0.8V34c0,0.5,0.4,0.8,0.8,0.8h9.2c0.5,0,0.8-0.4,0.8-0.8
			S38.4,33.2,37.9,33.2z"/>
		<circle cx="28.8" cy="21.8" r="1.1"/>
		<circle cx="28.7" cy="46.1" r="1.1"/>
		<circle cx="16.5" cy="33.3" r="1.1"/>
		<circle cx="40.9" cy="34" r="1.1"/>
	</g>
</g>
</svg>
