<?xml version="1.0" encoding="utf-8"?>
<!-- Generator: Adobe Illustrator 21.1.0, SVG Export Plug-In . SVG Version: 6.00 Build 0)  -->
<svg version="1.1" xmlns="http://www.w3.org/2000/svg" xmlns:xlink="http://www.w3.org/1999/xlink" x="0px" y="0px"
	 viewBox="0 0 56 58" style="enable-background:new 0 0 56 58;" xml:space="preserve">
<style type="text/css">
	.st0{fill:#E6E7E8;}
	.st1{filter:url(#Adobe_OpacityMaskFilter);}
	.st2{fill:#FFFFFF;}
	.st3{mask:url(#mask-2_1_);fill:#343434;}
	.st4{fill:#343434;}
	.st5{filter:url(#Adobe_OpacityMaskFilter_1_);}
	.st6{mask:url(#mask-4_1_);fill:#4A4A4A;}
	.st7{filter:url(#Adobe_OpacityMaskFilter_2_);}
	.st8{mask:url(#mask-6_1_);fill:#343434;}
	.st9{fill:#231F20;}
	.st10{fill:none;}
	.st11{fill-rule:evenodd;clip-rule:evenodd;}
	.st12{stroke:#000000;stroke-width:0.2847;stroke-miterlimit:10;}
	.st13{stroke:#000000;stroke-width:0.4098;stroke-miterlimit:10;}
	.st14{clip-path:url(#SVGID_3_);}
	.st15{clip-path:url(#SVGID_4_);}
	.st16{display:none;}
	.st17{stroke:#5C6BC0;stroke-width:0.8;}
</style>
<g id="FILAIRES_x5F_2">
</g>
<g id="FILAIRES_x5F_3">
</g>
<g id="FILAIRES_x5F_1">
</g>
<g id="PLEINS">
</g>
<g id="GABARIT_SVG">
	<path class="st9" d="M44.4,45.6c-1,1.8-2.7,2.9-4.5,2.9c-1.5,0-2.9-0.8-3.9-2.1c-1,1.3-2.4,2.1-4,2.1c-1.5,0-2.9-0.8-3.9-2.1
		c-1,1.3-2.4,2.1-3.9,2.1c-1.5,0-2.9-0.8-3.9-2.1c-1,1.3-2.4,2.1-3.9,2.1c-1.8,0-3.5-1.1-4.5-2.9c-0.2-0.4-0.1-0.9,0.2-1.1
		c0.3-0.2,0.7-0.1,0.9,0.2c0.7,1.4,2,2.2,3.4,2.2c1.4,0,2.6-0.8,3.4-2.2c0.1-0.2,0.3-0.4,0.6-0.4h0c0.2,0,0.5,0.1,0.6,0.4
		c0.7,1.4,2,2.2,3.4,2.2c1.4,0,2.6-0.8,3.4-2.2c0.1-0.2,0.3-0.4,0.6-0.4h0c0.2,0,0.5,0.1,0.6,0.4c0.7,1.4,2,2.2,3.4,2.2
		c1.4,0,2.6-0.8,3.4-2.2c0.1-0.2,0.3-0.4,0.6-0.4h0c0.2,0,0.5,0.1,0.6,0.4c0.7,1.4,2,2.2,3.4,2.2c1.4,0,2.6-0.8,3.4-2.2
		c0.2-0.4,0.6-0.5,0.9-0.2S44.6,45.2,44.4,45.6z M21.1,27.4v-4.9c0-0.4,0.3-0.8,0.7-0.8h12.4c0.4,0,0.7,0.4,0.7,0.8v4.9
		c0,0.4-0.3,0.8-0.7,0.8H21.8C21.4,28.2,21.1,27.8,21.1,27.4z M22.5,26.6h11v-3.3h-11C22.5,23.3,22.5,26.6,22.5,26.6z M44.5,37.9
		c0,0.5-0.3,0.8-0.7,0.8H41v4.9c0,0.4-0.3,0.8-0.7,0.8c-0.4,0-0.7-0.4-0.7-0.8v-4.9H16.3v4.9c0,0.4-0.3,0.8-0.7,0.8
		c-0.4,0-0.7-0.4-0.7-0.8v-4.9h-2.7c-0.4,0-0.7-0.4-0.7-0.8c0-0.4,0.3-0.8,0.7-0.8H15V19.3l-2.3,2.2c-0.3,0.3-0.7,0.2-1-0.1
		c-0.2-0.3-0.2-0.9,0.1-1.1l1.9-1.8h-1.1c-0.5,0-0.9-0.4-1-1c-0.1-0.6,0.2-1.1,0.6-1.4l0,0l12.9-5.9C26,9.7,27,9.5,28,9.5
		c1,0,2,0.2,2.9,0.6l12.9,5.9l0,0c0.5,0.2,0.7,0.8,0.6,1.4s-0.5,1-1,1h-1.1l1.9,1.8c0.3,0.3,0.3,0.8,0.1,1.1c-0.2,0.4-0.7,0.4-1,0.1
		L41,19.3v17.8h2.7C44.2,37.1,44.5,37.5,44.5,37.9L44.5,37.9z M21.1,34.7h-4.8v2.4h4.8V34.7z M27.3,34.7h-4.8v2.4h4.8
		C27.3,37.1,27.3,34.7,27.3,34.7z M33.5,34.7h-4.8v2.4h4.8V34.7z M39.7,34.7h-4.8v2.4h4.8V34.7z M39.7,18.4H16.3v14.6h4.8v-0.8
		c0-0.4,0.3-0.8,0.7-0.8s0.7,0.4,0.7,0.8v0.8h4.8v-0.8c0-0.4,0.3-0.8,0.7-0.8c0.4,0,0.7,0.4,0.7,0.8v0.8h4.8v-0.8
		c0-0.4,0.3-0.8,0.7-0.8c0.4,0,0.7,0.4,0.7,0.8v0.8h4.8L39.7,18.4L39.7,18.4z M41.6,16.8l-11.2-5.2c-0.8-0.3-1.6-0.5-2.4-0.5
		c-0.8,0-1.6,0.2-2.4,0.5l-11.2,5.2h1.3c0,0,0,0,0,0h24.7c0,0,0,0,0,0L41.6,16.8L41.6,16.8z"/>
</g>
</svg>
