<?xml version="1.0" encoding="utf-8"?>
<svg version="1.1" id="Calque_1" xmlns="http://www.w3.org/2000/svg" xmlns:xlink="http://www.w3.org/1999/xlink" x="0px" y="0px"
	 viewBox="0 0 56 58" style="enable-background:new 0 0 56 58;" xml:space="preserve">
<path class="st1" d="M17,48.8c-2.4,0-4.6-0.9-6.3-2.6c-3.5-3.5-3.5-9.1,0-12.6l7.4-7.4c1.7-1.7,3.9-2.6,6.3-2.6
	c2.4,0,4.6,0.9,6.3,2.6c0.1,0,0.1,0.1,0.1,0.1c0.1,0.2,0.2,0.4,0.2,0.6c0,0.2-0.1,0.4-0.3,0.6c-0.2,0.1-0.3,0.2-0.6,0.2l0,0
	c-0.3,0-0.5-0.1-0.7-0.3c-1.4-1.4-3.2-2.1-5-2.1s-3.7,0.7-5,2.1L12,34.9c-1.4,1.4-2.1,3.1-2.1,5c0,1.9,0.7,3.7,2.1,5s3.1,2.1,5,2.1
	s3.7-0.7,5-2.1l6.7-6.7c0.2-0.2,0.4-0.3,0.6-0.3s0.5,0.1,0.6,0.3c0.2,0.2,0.3,0.4,0.3,0.6s-0.1,0.5-0.3,0.6l-6.7,6.7
	C21.6,47.9,19.4,48.8,17,48.8z M35,47.9c-0.5,0-0.9-0.4-0.9-0.9v-7c0-0.5,0.4-0.9,0.9-0.9s0.9,0.4,0.9,0.9v7
	C35.9,47.5,35.5,47.9,35,47.9z M39,36.9c-0.5,0-0.9-0.4-0.9-0.9s0.4-0.9,0.9-0.9h7c0.5,0,0.9,0.4,0.9,0.9s-0.4,0.9-0.9,0.9H39z
	 M31.5,34.3c-2.4,0-4.6-0.9-6.3-2.6c-0.1,0-0.1-0.1-0.1-0.1c-0.3-0.4-0.2-0.9,0.1-1.2c0.2-0.1,0.3-0.2,0.6-0.2
	c0.3,0,0.5,0.1,0.7,0.3c1.4,1.4,3.2,2.1,5,2.1s3.7-0.7,5-2.1l7.4-7.4c2.8-2.8,2.8-7.2,0-10.1c-1.4-1.4-3.1-2.1-5-2.1s-3.7,0.7-5,2.1
	l-6.7,6.7C27,19.9,26.8,20,26.6,20c-0.2,0-0.4-0.1-0.6-0.2c-0.4-0.3-0.4-0.9,0-1.3l6.8-6.8c1.7-1.7,3.9-2.6,6.3-2.6
	c2.4,0,4.6,0.9,6.3,2.6c3.5,3.5,3.5,9.1,0,12.6l-7.4,7.4C36.1,33.4,33.9,34.3,31.5,34.3z M10,22.9c-0.5,0-0.9-0.4-0.9-0.9
	s0.4-0.9,0.9-0.9h7c0.5,0,0.9,0.4,0.9,0.9s-0.4,0.9-0.9,0.9H10z M21,18.9c-0.5,0-0.9-0.4-0.9-0.9v-7c0-0.5,0.4-0.9,0.9-0.9
	s0.9,0.4,0.9,0.9v7C21.9,18.5,21.5,18.9,21,18.9z"/>
</svg>
