<?xml version="1.0" encoding="utf-8"?>
<svg version="1.1" id="Calque_1" xmlns="http://www.w3.org/2000/svg" xmlns:xlink="http://www.w3.org/1999/xlink" x="0px" y="0px"
	 viewBox="0 0 56 58" style="enable-background:new 0 0 56 58;" xml:space="preserve">
<g>
	<path class="st1" d="M36.4,34.7c-0.4,0.7-0.8,1.4-1.3,2c-0.1,0.1-0.5,0.7-0.6,0.7c0,0.2-0.1,0.2-0.2,0c-0.1-0.2-0.3-0.4-0.4-0.6
		c-0.4-0.6-1.2-0.4-1.4,0.2c-0.2,0.5-0.4,1.7-0.8,2.5c-0.4-0.9-0.7-1.9-1-2.8c-0.2-0.5-1.1-0.8-1.4-0.2c-0.6,1.2-0.8,2.4-0.8,3.8
		c0,1,1.5,1,1.5,0c0-0.3,0-0.6,0-0.9c0.2,0.6,0.5,1.2,0.9,1.7c0.2,0.3,0.7,0.5,1,0.3c0.8-0.5,1.2-1.6,1.6-2.6
		c0.3,0.3,0.8,0.4,1.3,0.2c1.2-0.6,2.3-2.3,2.9-3.4C38.2,34.6,36.9,33.9,36.4,34.7z"/>
	<path class="st1" d="M50.5,6.5c-0.4-0.4-1-0.4-1.4,0l-2.8,2.8V9.3c0-1.2-0.8-3-3.2-3H18.6c-0.1,0-0.1,0-0.2,0c0,0,0,0,0,0
		c-0.1,0-0.2,0-0.2,0.1c0,0,0,0-0.1,0c-0.1,0-0.2,0.1-0.2,0.2l-7.5,7.2c-0.1,0.1-0.1,0.1-0.2,0.2c0,0,0,0,0,0.1
		c0,0.1-0.1,0.2-0.1,0.2c0,0,0,0,0,0c0,0.1,0,0.1,0,0.2v31.1l-4.6,4.6c-0.4,0.4-0.4,1,0,1.4c0.2,0.2,0.5,0.3,0.7,0.3
		s0.5-0.1,0.7-0.3l3.4-3.4c0.4,0.8,1.1,1.6,2.5,1.6h30.1c2.8,0,3.4-1.9,3.4-2.6V12.1l4.2-4.2C50.9,7.5,50.9,6.9,50.5,6.5z M17.5,9.6
		l-0.1,3.7l-3.9,0L17.5,9.6z M12.1,15.4l6.4-0.1c0.5,0,1-0.4,1-1l0.1-6.2h23.5c1,0,1.2,0.6,1.2,1v2.1l-9.1,9.1H20.9
		c-0.5,0-0.9,0.4-0.9,0.9s0.4,0.9,0.9,0.9h12.5l-2.1,2.1H20.9c-0.5,0-0.9,0.4-0.9,0.9s0.4,0.9,0.9,0.9h8.7l-2.1,2.1h-6.5
		c-0.5,0-0.9,0.4-0.9,0.9s0.4,0.9,0.9,0.9h4.8L12.1,43.5V15.4z M44.3,47c0,0,0,0.6-1.4,0.6H12.8c-0.2,0-0.7,0-0.7-0.8v-0.6
		l16.5-16.5h8.3c0.5,0,0.9-0.4,0.9-0.9s-0.4-0.9-0.9-0.9h-6.5l2.1-2.1h4.4c0.5,0,0.9-0.4,0.9-0.9s-0.4-0.9-0.9-0.9h-2.7l2.1-2.1h0.5
		c0.5,0,0.9-0.4,0.9-0.9c0-0.2,0-0.3-0.1-0.4l6.7-6.7V47z"/>
</g>
</svg>
