<?xml version="1.0" encoding="utf-8"?>
<svg version="1.1" id="Calque_1" xmlns="http://www.w3.org/2000/svg" xmlns:xlink="http://www.w3.org/1999/xlink" x="0px" y="0px"
	 viewBox="0 0 56 58" style="enable-background:new 0 0 56 58;" xml:space="preserve">
<g>
	<path class="st1" d="M51.6,25.7l-3.7-0.4l-3.7-7.1c-0.2-0.3-0.5-0.5-0.9-0.5h-10V13c0-0.5-0.4-1-1-1H3.3c-0.5,0-1,0.4-1,1v24.2
		c0,0.5,0.4,1,1,1h3.9c0.5,0,1-0.4,1-1c0-0.5-0.4-1-1-1H4.3V14h27.1v22.2H21c-0.5,0-1,0.4-1,1c0,0.5,0.4,1,1,1h11.4
		c0.4,0,0.8-0.2,0.9-0.6c0.2-0.2,0.3-0.4,0.3-0.7V19.6h9.1l3.6,7.1c0.2,0.3,0.4,0.5,0.8,0.5l4.2,0.5c0.2,0,0.4,0.2,0.4,0.4L50,40.8
		c-0.1,0.5,0.3,1,0.9,1.1c0,0,0.1,0,0.1,0c0.5,0,0.9-0.4,1-0.9l1.8-12.8C53.8,27,52.9,25.9,51.6,25.7z"/>
	<path class="st1" d="M43.5,27.2c0.2-0.3,0.2-0.7,0-1l-2.1-4.1c-0.2-0.3-0.5-0.6-0.9-0.6H37c-0.5,0-1,0.4-1,1v4.1c0,0.5,0.4,1,1,1
		h5.7C43,27.7,43.3,27.5,43.5,27.2z M37.9,25.7v-2.1h2l1.1,2.1H37.9z"/>
	<path class="st1" d="M35.2,40H22.5c-0.5,0-1,0.4-1,1c0,0.5,0.4,1,1,1h12.7c0.5,0,1-0.4,1-1C36.2,40.4,35.8,40,35.2,40z"/>
	<path class="st1" d="M43.1,34.8c-3.1,0-5.6,2.5-5.6,5.6c0,3.1,2.5,5.6,5.6,5.6c3.1,0,5.6-2.5,5.6-5.6
		C48.7,37.3,46.2,34.8,43.1,34.8z M46.7,40.4c0,2-1.6,3.6-3.6,3.6c-2,0-3.6-1.6-3.6-3.6c0-2,1.6-3.6,3.6-3.6
		C45.1,36.8,46.7,38.4,46.7,40.4z"/>
	<path class="st1" d="M14.3,34.8c-3.1,0-5.6,2.5-5.6,5.6c0,3.1,2.5,5.6,5.6,5.6s5.6-2.5,5.6-5.6C19.9,37.3,17.4,34.8,14.3,34.8z
		 M17.9,40.4c0,2-1.6,3.6-3.6,3.6s-3.6-1.6-3.6-3.6c0-2,1.6-3.6,3.6-3.6S17.9,38.4,17.9,40.4z"/>
</g>
</svg>
