<?xml version="1.0" encoding="utf-8"?>
<!-- Generator: Adobe Illustrator 21.1.0, SVG Export Plug-In . SVG Version: 6.00 Build 0)  -->
<svg version="1.1" xmlns="http://www.w3.org/2000/svg" xmlns:xlink="http://www.w3.org/1999/xlink" x="0px" y="0px"
	 viewBox="0 0 56 58" style="enable-background:new 0 0 56 58;" xml:space="preserve">
<style type="text/css">
	.st0{fill:#E6E7E8;}
	.st1{filter:url(#Adobe_OpacityMaskFilter);}
	.st2{fill:#FFFFFF;}
	.st3{mask:url(#mask-2_1_);fill:#343434;}
	.st4{fill:#343434;}
	.st5{filter:url(#Adobe_OpacityMaskFilter_1_);}
	.st6{mask:url(#mask-4_1_);fill:#4A4A4A;}
	.st7{filter:url(#Adobe_OpacityMaskFilter_2_);}
	.st8{mask:url(#mask-6_1_);fill:#343434;}
	.st9{fill:#231F20;}
	.st10{fill:none;}
	.st11{fill-rule:evenodd;clip-rule:evenodd;}
	.st12{stroke:#000000;stroke-width:0.2847;stroke-miterlimit:10;}
	.st13{stroke:#000000;stroke-width:0.4098;stroke-miterlimit:10;}
	.st14{clip-path:url(#SVGID_3_);}
	.st15{clip-path:url(#SVGID_4_);}
	.st16{display:none;}
	.st17{stroke:#5C6BC0;stroke-width:0.8;}
</style>
<g id="FILAIRES_x5F_2">
</g>
<g id="FILAIRES_x5F_3">
</g>
<g id="FILAIRES_x5F_1">
</g>
<g id="PLEINS">
</g>
<g id="GABARIT_SVG">
	<g>
		<path d="M39.4,36.2c-0.3,0.3-0.3,0.8,0,1.1l1.6,1.6c0.3,0.3,0.8,0.3,1.1,0c0,0,0,0,0,0c0.3-0.3,0.3-0.8,0-1.1l-1.6-1.6
			C40.2,35.9,39.7,35.9,39.4,36.2z M47.5,23.3v7.2h-3v-3.8c0-0.4-0.3-0.8-0.7-0.8c-0.4,0-0.8,0.3-0.8,0.7c0,0,0,0,0,0.1v4.5
			c0,0.4,0.3,0.7,0.7,0.7h4.5c0.4,0,0.7-0.3,0.8-0.7c0,0,0,0,0,0v-6.4l0.2,0.2c0.3,0.3,0.8,0.3,1.1,0c0,0,0,0,0,0
			c0.3-0.3,0.3-0.8,0-1.1c0,0,0,0,0,0l-1.5-1.5h0L42,15.7c-0.3-0.3-0.8-0.2-1.1,0.1c-0.3,0.3-0.3,0.7,0,1L47.5,23.3L47.5,23.3z
			 M30.8,22.5L30.8,22.5L24,15.7c-0.3-0.3-0.8-0.3-1.1,0c0,0,0,0,0,0l-6.7,6.8h0L14.7,24c-0.3,0.3-0.3,0.8,0.1,1.1
			c0.3,0.3,0.7,0.3,1,0l0.2-0.2v6.4c0,0.4,0.3,0.7,0.7,0.7H22c0.4,0,0.7-0.3,0.7-0.7l0,0v-3.8h1.5v3.8c0,0.4,0.3,0.7,0.7,0.7h5.2
			c0.4,0,0.7-0.3,0.7-0.7l0,0v-6.4l0.2,0.2c0.3,0.3,0.8,0.3,1.1,0c0,0,0,0,0,0c0.3-0.3,0.3-0.8,0-1.1L30.8,22.5L30.8,22.5z
			 M29.5,30.5h-3.7v-3.8c0-0.4-0.3-0.7-0.7-0.8c0,0,0,0,0,0h-3c-0.4,0-0.7,0.3-0.7,0.7c0,0,0,0,0,0v3.8h-3.7v-7.2l6-6l6,6
			C29.5,23.3,29.5,30.5,29.5,30.5z"/>
		<path d="M23.5,9.5c-8.3,0-15,6.7-15,15c0,8.3,6.7,15,15,15s15-6.7,15-15C38.5,16.2,31.8,9.5,23.5,9.5z M23.5,38
			C16.1,38,10,31.9,10,24.5c0-7.4,6-13.5,13.5-13.5C30.9,11,37,17.1,37,24.5C37,31.9,30.9,38,23.5,38z M44.1,39.8
			c-0.1-0.1-0.3-0.2-0.5-0.2c-0.2,0-0.4,0.1-0.5,0.2L40.9,42c-0.3,0.3-0.2,0.8,0.1,1.1c0.3,0.3,0.7,0.3,1,0l1.6-1.6l4.7,4.7
			c0.4,0.4,0.7,1,0.7,1.6c0,1.2-1,2.2-2.2,2.2c-0.6,0-1.2-0.2-1.6-0.7l-8.9-8.9c-0.3-0.3-0.8-0.3-1.1,0c-0.3,0.3-0.3,0.8,0,1.1
			l8.9,8.9c0.7,0.7,1.7,1.1,2.6,1.1c1,0,1.9-0.4,2.6-1.1c0.7-0.7,1.1-1.7,1.1-2.7c0-1-0.4-1.9-1.1-2.7L44.1,39.8L44.1,39.8z"/>
		<path d="M41.5,24.5c0-9.9-8.1-18-18-18c-9.9,0-18,8.1-18,18s8.1,18,18,18S41.5,34.4,41.5,24.5z M23.5,41C14.4,41,7,33.6,7,24.5
			S14.4,8,23.5,8C32.6,8,40,15.4,40,24.5S32.6,41,23.5,41z"/>
	</g>
</g>
</svg>
