<?xml version="1.0" encoding="utf-8"?>
<svg version="1.1" id="Calque_1" xmlns="http://www.w3.org/2000/svg" xmlns:xlink="http://www.w3.org/1999/xlink" x="0px" y="0px"
	 viewBox="0 0 56 58" style="enable-background:new 0 0 56 58;" xml:space="preserve">
<g>
	<path class="st1" d="M51.7,25.7l-3.7-0.4l-3.7-7.2c-0.2-0.3-0.5-0.5-0.9-0.5h-10V13c0-0.5-0.4-1-1-1H3.2c-0.5,0-1,0.4-1,1v24.2
		c0,0.5,0.4,1,1,1h3.9c0.5,0,1-0.4,1-1c0-0.5-0.4-1-1-1H4.2V14h27.2v22.2H20.9c-0.5,0-1,0.4-1,1c0,0.5,0.4,1,1,1h11.5
		c0.4,0,0.8-0.2,0.9-0.6c0.2-0.2,0.3-0.4,0.3-0.7V19.6h9.1l3.7,7.1c0.2,0.3,0.4,0.5,0.8,0.5l4.2,0.5c0.2,0,0.4,0.2,0.4,0.4
		l-1.7,12.8c-0.1,0.5,0.3,1,0.8,1.1c0,0,0.1,0,0.1,0c0.5,0,0.9-0.4,1-0.9l1.8-12.9C53.9,27,52.9,25.9,51.7,25.7z"/>
	<path class="st1" d="M43.5,27.2c0.2-0.3,0.2-0.7,0-1l-2.1-4.1c-0.2-0.3-0.5-0.6-0.9-0.6H37c-0.5,0-1,0.4-1,1v4.1c0,0.5,0.4,1,1,1
		h5.7C43,27.7,43.4,27.5,43.5,27.2z M41.1,25.7H38v-2.2H40L41.1,25.7z"/>
	<path class="st1" d="M35.3,40H22.5c-0.5,0-1,0.4-1,1s0.4,1,1,1h12.7c0.5,0,1-0.4,1-1S35.8,40,35.3,40z"/>
	<path class="st1" d="M43.1,34.8c-3.1,0-5.6,2.5-5.6,5.6c0,3.1,2.5,5.6,5.6,5.6c3.1,0,5.6-2.5,5.6-5.6
		C48.8,37.3,46.2,34.8,43.1,34.8z M43.1,44c-2,0-3.6-1.6-3.6-3.6c0-2,1.6-3.6,3.6-3.6c2,0,3.6,1.6,3.6,3.6
		C46.8,42.4,45.1,44,43.1,44z"/>
	<path class="st1" d="M14.3,34.8c-3.1,0-5.6,2.5-5.6,5.6c0,3.1,2.5,5.6,5.6,5.6s5.6-2.5,5.6-5.6C19.9,37.3,17.4,34.8,14.3,34.8z
		 M17.9,40.4c0,2-1.6,3.6-3.6,3.6s-3.6-1.6-3.6-3.6c0-2,1.6-3.6,3.6-3.6S17.9,38.4,17.9,40.4z"/>
	<path class="st1" d="M20.9,22.3c0,0-0.1,0.1-0.1,0.1c-0.1,0.1-0.1,0.2-0.1,0.4c0,0,0,0.1,0,0.1l0,0.1l0,0c0,0.2,0.1,0.4,0.3,0.5
		l1.2,1.2l0.1,0.1c0.2,0.2,0.4,0.3,0.7,0.3c0.1,0,0.1,0,0.2,0l0.1,0c0,0,0.1,0,0.1,0l1.6-1.5c0.2-0.2,0.3-0.4,0.3-0.6
		c0-0.2-0.1-0.5-0.2-0.7c-0.2-0.2-0.4-0.3-0.6-0.2c-0.2,0-0.5,0.1-0.6,0.3l0,0c-0.9-2.7-3.4-4.5-6.3-4.5c-2.7,0-5.1,1.6-6.1,4.1
		c-0.2,0.4,0,1,0.4,1.2c0.4,0.2,1,0,1.2-0.5c0.8-1.9,2.5-3,4.5-3c1.8,0,3.4,1,4.2,2.5c-0.1,0-0.3,0-0.4,0.1
		C21.1,22.2,21,22.2,20.9,22.3z"/>
	<path class="st1" d="M9.6,26c0,0.2,0.1,0.5,0.2,0.6c0.2,0.2,0.4,0.2,0.7,0.2c0.2,0,0.5-0.1,0.6-0.3l0,0c0.9,2.7,3.4,4.5,6.3,4.5
		c2.7,0,5.1-1.6,6.1-4.1c0.1-0.2,0.1-0.5,0-0.7c-0.1-0.2-0.2-0.4-0.5-0.5c-0.2-0.1-0.5-0.1-0.7,0c-0.2,0.1-0.4,0.2-0.5,0.5
		c-0.8,1.9-2.5,3-4.5,3c-1.8,0-3.4-1-4.2-2.5c0,0,0.1,0,0.1,0c0.1,0,0.2,0,0.3-0.1c0,0,0.1,0,0.1-0.1c0.2-0.1,0.3-0.3,0.4-0.5
		c0,0,0-0.1,0-0.1c0,0,0-0.1,0-0.1l0-0.1l0,0c0-0.2-0.1-0.4-0.3-0.5l-1.2-1.2l-0.1-0.1c-0.2-0.2-0.4-0.3-0.7-0.3c0,0-0.1,0-0.1,0
		l-0.1,0c0,0-0.1,0-0.1,0l-0.1,0.1l0.2,0.2c0,0,0,0,0,0l-0.2-0.2l-1.4,1.4C9.7,25.5,9.6,25.7,9.6,26z"/>
</g>
</svg>
