<?xml version="1.0" encoding="utf-8"?>
<svg version="1.1" id="Calque_1" xmlns="http://www.w3.org/2000/svg" xmlns:xlink="http://www.w3.org/1999/xlink" x="0px" y="0px"
	 viewBox="0 0 56 58" style="enable-background:new 0 0 56 58;" xml:space="preserve">
<path class="st1" d="M42.4,39.7H40L37.4,36l0.1-0.1c2.5-2.2,4.1-5.7,4.3-9.5c0.7-0.3,1.5-1,1.5-2.6v-4c0-0.9,0-2.5-2-2.9v-3.1
	c0-3-0.8-5.3-2.3-6.7c-1.4-1.3-3.4-1.9-6.1-1.7c-0.6,0-1,0.5-0.9,1.1c0,0.6,0.5,1,1.1,0.9c2.1-0.1,3.6,0.3,4.6,1.2
	c1.1,1,1.6,2.8,1.6,5.3v4c0,0.5,0.4,1,1,1c1,0,1,0,1,1v4c0,0.8-0.2,0.8-0.5,0.8c-0.6,0-1,0.4-1,1c0,3.5-1.4,6.9-3.8,8.9
	c-0.1,0.1-0.2,0.2-0.2,0.3l-0.5,0.8c-0.2,0.3-0.2,0.8,0,1.1l2.2,3.3c-0.5-0.1-1.1-0.1-1.7-0.1h-2.5L30.9,36c2.4-2.4,4-5.9,4.3-9.4
	c1-0.4,1.7-1.4,1.7-2.8v-4c0-0.9,0-2.5-2-2.9v-3.1c0-3.6-2.8-7.9-7.7-8.2c-1.3-0.1-7.1-0.3-9.6,0.7c-3.8,1.5-4.7,5.2-4.7,7.5v3.4
	c-0.8,0.5-2,1.4-2,2.6v4c0,1.4,1.2,2.5,2.5,2.9c0.3,3.6,2.3,7.4,5.2,9.8l-2.2,3.3h-2.5c-6.4,0-11,4.2-11,10v2c0,0.6,0.4,1,1,1
	c0.6,0,1-0.4,1-1v-2c0-4.7,3.7-8,9-8h3c0.3,0,0.6-0.2,0.8-0.4l2.5-3.8c1.3,0.8,2.8,1.2,4.4,1.2c1.7,0,3.4-0.6,4.8-1.5l2.8,4.1
	c0.2,0.3,0.5,0.4,0.8,0.4h3c5.2,0,8.8,3.3,8.8,8v2c0,0.6,0.4,1,1,1c0.6,0,1-0.4,1-1v-2c0-3.4-1.5-6.2-4-8c5,0.1,8.5,3.4,8.5,8v2
	c0,0.6,0.4,1,1,1v0c0.6,0,1-0.5,1-1v-2C53.3,43.9,48.8,39.7,42.4,39.7z M24.5,36.7c-5,0-9.2-6-9.2-11c0-0.6-0.4-1-1-1
	c-0.7,0-1.5-0.6-1.5-1v-4c0-0.2,0.7-0.8,1.4-1.1c0.4-0.2,0.6-0.5,0.6-0.9v-4c0-2.8,2.3-5.9,5-6.2c1.1-0.1,3.9-0.4,7.2-0.1
	c3.8,0.3,5.8,3.6,5.8,6.3v4c0,0.6,0.4,1,1,1c1,0,1,0,1,1v4c0,0.7-0.2,1-0.6,1c-0.6,0-1,0.4-1,1C33.2,30.8,29.4,36.7,24.5,36.7z"/>
</svg>
