<svg id="Calque_1" xmlns="http://www.w3.org/2000/svg" viewBox="0 0 55.2 51.7"><style>.st0{fill:#b90857}</style><path class="st0" d="M27.6 7.9C17.7 7.9 9.7 16 9.7 25.8c0 9.9 8.1 17.9 17.9 17.9s17.9-8.1 17.9-17.9c0-9.9-8-17.9-17.9-17.9m0 34.9c-9.3 0-16.9-7.6-16.9-16.9s7.5-17 16.9-17c9.3 0 16.9 7.6 16.9 16.9 0 9.4-7.6 17-16.9 17"/><path class="st0" d="M27.6 38.2c-6 0-10.9-4.9-10.9-10.9h-1c0 6.6 5.3 11.9 11.9 11.9s11.9-5.3 11.9-11.9h-1c0 6-4.9 10.9-10.9 10.9m-6.8-17.9c1.4 0 2.5 1.1 2.5 2.5h1c0-2-1.6-3.5-3.5-3.5s-3.5 1.6-3.5 3.5h1c-.1-1.4 1.1-2.5 2.5-2.5m13.6 0c1.4 0 2.5 1.1 2.5 2.5h1c0-2-1.6-3.5-3.5-3.5s-3.5 1.6-3.5 3.5h1c0-1.4 1.1-2.5 2.5-2.5"/></svg>