<svg id="Calque_1" xmlns="http://www.w3.org/2000/svg" viewBox="0 0 55.2 51.7"><style>.st0{fill:#b90857}</style><path class="st0" d="M32.8 10.6V7.3c0-1.3-1.1-2.4-2.4-2.4h-5.6c-1.3 0-2.4 1.1-2.4 2.4v3.4C15.2 12.8 9.1 19 9.1 28.2c0 9.4 6.2 14.3 9.9 16.4h.1l-4.9.4c-.3 0-.5.3-.5.5 0 .3.2.5.5.5l5.9-.5c.3 0 .5-.3.5-.5l-.5-5.9c0-.3-.3-.5-.5-.5-.3 0-.5.3-.5.5l.4 4.6h-.1c-3.5-2-9.4-6.7-9.4-15.5 0-10.7 8.8-17.2 17.3-17.3h.9c1 0 2 .1 2.9.3C40.7 13 45 21.8 45 28.3c0 8.4-6.7 17.5-17.4 17.5-.3 0-.5.2-.5.5s.2.5.5.5C39 46.8 46 37.2 46 28.3c0-6.5-4.1-15.2-13.2-17.7m-9.4-.2V7.3c0-.8.6-1.4 1.4-1.4h5.6c.8 0 1.4.6 1.4 1.4v3c-.2 0-.3-.1-.5-.1-1-.2-2-.3-3.1-.3h-.8c-1.2.1-2.6.2-4 .5"/><path class="st0" d="M29.9 28.7c0-1.3-1-2.3-2.3-2.3s-2.3 1-2.3 2.3c0 1.3 1 2.3 2.3 2.3s2.3-1 2.3-2.3m-3.6 0c0-.7.6-1.3 1.3-1.3s1.3.6 1.3 1.3c0 .7-.6 1.3-1.3 1.3s-1.3-.6-1.3-1.3m1.8-4.4V14.1c0-.3-.2-.5-.5-.5s-.5.2-.5.5v10.2c0 .3.2.5.5.5s.5-.3.5-.5m9.1 4.9c.3 0 .5-.2.5-.5s-.2-.5-.5-.5h-5.4c-.3 0-.5.2-.5.5s.2.5.5.5h5.4z"/></svg>