<svg width="0" height="0" style="position:absolute"><defs><svg viewBox="-1 -1 657.1 6.25" preserveAspectRatio="xMinYMin meet" id="barre" xmlns="http://www.w3.org/2000/svg"><path fill="#E62D87" d="M652.98 0H464.2v4.252h188.78a2.124 2.124 0 0 0 2.125-2.127A2.123 2.123 0 0 0 652.98 0z"/><path fill="#FFC300" d="M353.796 0h50.125v4.252h-50.125V0z"/><path fill="#E10019" d="M403.921 0h60.277c1.176 0 2.125.951 2.125 2.125a2.124 2.124 0 0 1-2.125 2.127h-60.277a2.126 2.126 0 0 1 0-4.252z"/><path fill="#0AF" d="M233.313 0h71.084v4.252h-71.084V0z"/><path fill="#BECD00" d="M80.298 0h99.619v4.252H80.298V0z"/><path fill="#69AF23" d="M2.125 0h41.706v4.252H2.125A2.125 2.125 0 0 1 0 2.125C0 .951.951 0 2.125 0z"/><path fill="#008737" d="M304.398 0h49.398c1.176 0 2.125.951 2.125 2.125a2.124 2.124 0 0 1-2.125 2.127h-49.398a2.125 2.125 0 0 1-2.125-2.127c0-1.174.951-2.125 2.125-2.125z"/><path fill="#005FAA" d="M179.917 0h53.396c1.176 0 2.126.951 2.126 2.125 0 1.176-.95 2.127-2.126 2.127h-53.396a2.126 2.126 0 0 1 0-4.252z"/><path fill="#008737" d="M43.831 0h36.467c1.177 0 2.127.951 2.127 2.125 0 1.176-.95 2.127-2.127 2.127H43.831a2.125 2.125 0 0 1-2.125-2.127C41.706.951 42.657 0 43.831 0z"/><path fill="#552382" d="M509.101 0h48.146c1.174 0 2.125.951 2.125 2.125a2.125 2.125 0 0 1-2.125 2.127h-48.146a2.124 2.124 0 0 1-2.123-2.127c0-1.174.951-2.125 2.123-2.125z"/></svg><svg viewBox="-1 -1 101.44 35.57" id="engie" xmlns="http://www.w3.org/2000/svg"><title>Engie</title><defs><linearGradient id="ba" gradientUnits="userSpaceOnUse" x1="49.722" y1="15.256" x2="49.722"><stop offset="0" stop-color="#fff" stop-opacity="0"/><stop offset="1"/></linearGradient></defs><path fill-rule="evenodd" clip-rule="evenodd" fill="url(#ba)" d="M99.444 15.256C86.483 5.8 68.981 0 49.721 0 30.46 0 12.961 5.8 0 15.256h99.444z"/><path d="M42.477 17.957c-.928 0-1.404.752-1.528 1.674-.136 1.016-.67 4.542-.789 5.438-.071.536-.111 1.096-.631 1.328-.52.23-1.153-.123-1.692-.583l-8.538-7.27a2.419 2.419 0 0 0-1.587-.588c-1.206 0-2.367.749-2.367 2.581v11.354c0 .885.624 1.45 1.369 1.45.822 0 1.356-.546 1.474-1.345 0 0 .879-5.412.987-6.014.125-.701.236-1.252.912-1.461.614-.19 1.192.166 2.056.92.851.743 8.052 7.246 8.052 7.246.551.466.953.653 1.732.653.708 0 1.993-.289 1.993-2.451V19.58c-.002-1.05-.65-1.623-1.443-1.623zM93.99 30.055c-6.275 1.352-13.456-.093-13.456-4.53 0-3.356 3.112-4.722 5.563-4.919 2.571-.206 4.582.335 5.617 1.409.646.671.467 1.585-.803 1.661-1.169.07-3.361.138-5.186.208-1.035.038-1.589.592-1.589 1.338 0 .591.446 1.268 1.637 1.274 1.708.007 6.045.035 8.198.04 1.423.003 2.123-.792 2.123-2.429 0-2.59-2.348-6.521-9.219-6.521-6.225 0-10.729 3.101-10.729 8.169 0 7.188 10.578 9.382 18.328 6.71.735-.252 1.4-.78 1.188-1.6-.187-.726-.781-1.004-1.672-.81zM21.192 30.055c-6.274 1.352-13.454-.093-13.454-4.53 0-3.356 3.11-4.722 5.563-4.919 2.57-.206 4.58.335 5.615 1.409.647.671.467 1.585-.801 1.661-1.17.07-3.362.138-5.187.208-1.037.038-1.59.592-1.59 1.338 0 .591.445 1.268 1.636 1.274 1.709.007 6.048.035 8.2.04 1.421.003 2.122-.792 2.122-2.429 0-2.59-2.349-6.521-9.219-6.521-6.225 0-10.73 3.101-10.73 8.169 0 7.188 10.58 9.382 18.33 6.71.733-.252 1.399-.78 1.186-1.6-.185-.726-.779-1.004-1.671-.81zM69.793 23.145c.138 3.918.507 7.17.61 8.308.134 1.47.894 1.888 1.657 1.888.732 0 1.508-.382 1.643-1.875.113-1.256.485-5.133.666-8.969.01-.2-.129-.285-.288-.256l-4.085.662a.244.244 0 0 0-.203.242zM72.072 17.587c-1.874 0-2.42 1.469-2.398 2.369.004.167.022.63.048 1.207.005.13.123.253.28.234l4.262-.692a.247.247 0 0 0 .207-.235c.011-.201.017-.406.019-.502.025-.87-.534-2.381-2.418-2.381zM65.807 23.837c-1.422 0-5.806.034-8.613.041-1.362.005-1.701.734-1.701 1.34 0 .527.365 1.208 1.635 1.274 1.936.103 4.397.217 5.534.274 1.53.079 1.551.866 1.034 1.54-1.039 1.352-3.567 2.237-6.188 2.237-3.427 0-7.199-1.95-7.199-5.041 0-2.899 3.228-6.093 12.818-4.745.843.118 1.673-.033 1.88-.813.22-.829-.319-1.362-1.408-1.649-2.172-.572-4.154-.707-6.047-.707-6.455 0-11.629 3.083-11.629 8.061 0 5.316 5.156 7.916 11.584 7.916 7.179 0 10.675-3.907 10.675-7.323-.002-1.741-.886-2.405-2.375-2.405z"/></svg><svg viewBox="-1 -1 73 27" id="engie-light" xmlns="http://www.w3.org/2000/svg"><title>Engie</title><path d="M30 13.4c-.7 0-1.1.6-1.1 1.2-.1.7-.5 3.3-.6 4-.1.4-.1.8-.5 1-.4.2-.9-.1-1.3-.4l-6.4-5.3c-.3-.3-.8-.4-1.2-.4-.9 0-1.8.6-1.8 1.9v8.3c0 .6.5 1.1 1 1.1.6 0 1-.4 1.1-1 0 0 .7-4 .7-4.4.1-.5.2-.9.7-1.1.5-.1.9.1 1.5.7.6.5 6 5.3 6 5.3.4.3.7.5 1.3.5.5 0 1.5-.2 1.5-1.8v-8.3c.2-.9-.3-1.3-.9-1.3m38.6 8.9c-4.7 1-10.1-.1-10.1-3.3 0-2.5 2.3-3.5 4.2-3.6 1.9-.1 3.4.2 4.2 1 .5.5.3 1.2-.6 1.2-.9.1-2.5.1-3.9.2-.8 0-1.2.4-1.2 1 0 .4.3.9 1.2.9h6.1c1.1 0 1.6-.6 1.6-1.8 0-1.9-1.8-4.8-6.9-4.8-4.7 0-8 2.3-8 6 0 5.3 7.9 6.9 13.7 4.9.6-.2 1.1-.6.9-1.2-.1-.5-.5-.7-1.2-.5m-54.6 0c-4.7 1-10.1-.1-10.1-3.3 0-2.5 2.3-3.5 4.2-3.6 1.9-.1 3.4.2 4.2 1 .5.5.3 1.2-.6 1.2-.9.1-2.5.1-3.9.2-.8 0-1.2.4-1.2 1 0 .4.3.9 1.2.9h6.1c1.1 0 1.6-.6 1.6-1.8 0-1.9-1.8-4.8-6.9-4.8-4.7 0-8 2.3-8 6 0 5.3 7.9 6.9 13.7 4.9.6-.2 1-.6.9-1.2-.1-.5-.5-.7-1.2-.5m36.4-5.1c.1 2.9.4 5.3.5 6.1.1 1.1.7 1.4 1.2 1.4s1.1-.3 1.2-1.4c.1-.9.4-3.8.5-6.6 0-.1-.1-.2-.2-.2l-3 .5c-.1.1-.2.1-.2.2m1.8-4.1c-1.4 0-1.8 1.1-1.8 1.7v.9c0 .1.1.2.2.2l3.2-.5c.1 0 .2-.1.2-.2v-.4c0-.6-.4-1.7-1.8-1.7m-4.7 4.6H41c-1 0-1.3.5-1.3 1 0 .4.3.9 1.2.9 1.5.1 3.3.2 4.1.2 1.1.1 1.2.6.8 1.1-.8 1-2.7 1.6-4.6 1.6-2.6 0-5.4-1.4-5.4-3.7 0-2.1 2.4-4.5 9.6-3.5.6.1 1.3 0 1.4-.6.2-.6-.2-1-1.1-1.2-1.6-.4-3.1-.5-4.5-.5-4.8 0-8.7 2.3-8.7 5.9 0 3.9 3.9 5.8 8.7 5.8 5.4 0 8-2.9 8-5.4 0-1.1-.6-1.6-1.7-1.6"/><path class="cst2" d="M70.8 10.2C61.3 4 48.9.2 35.4.2S9.5 4 0 10.2c9.4-3.1 20.5-5 35.4-5s26 1.9 35.4 5"/></svg></defs></svg>