<svg xmlns="http://www.w3.org/2000/svg" width="53" height="42" viewBox="0 0 53 42"><g fill="none"><path fill="#B1C3D0" d="M13.431 1.07L12.053.14a.82.82 0 0 0-.919 0l-1.378.93a3.362 3.362 0 0 0-1.475 2.79v34.176c0 1.12.554 2.167 1.475 2.789l1.378.93a.819.819 0 0 0 .92 0l1.377-.93a3.362 3.362 0 0 0 1.475-2.789V3.86c0-1.12-.553-2.167-1.475-2.789zm9.938 0L21.99.14a.82.82 0 0 0-.92 0l-1.377.93a3.362 3.362 0 0 0-1.475 2.79v34.176c0 1.12.553 2.167 1.475 2.789l1.378.93a.819.819 0 0 0 .919 0l1.378-.93a3.362 3.362 0 0 0 1.475-2.789V3.86c0-1.12-.554-2.167-1.475-2.789zm9.937 0L31.928.14a.82.82 0 0 0-.919 0l-1.378.93a3.362 3.362 0 0 0-1.475 2.79v34.176c0 1.12.554 2.167 1.475 2.789l1.378.93a.819.819 0 0 0 .92 0l1.377-.93a3.362 3.362 0 0 0 1.475-2.789V3.86c0-1.12-.553-2.167-1.475-2.789zm9.938 0L41.866.14a.82.82 0 0 0-.92 0l-1.377.93a3.362 3.362 0 0 0-1.475 2.79v34.176c0 1.12.553 2.167 1.475 2.789l1.378.93a.819.819 0 0 0 .919 0l1.378-.93a3.362 3.362 0 0 0 1.475-2.789V3.86c0-1.12-.554-2.167-1.475-2.789z"/><path fill="#8EADBE" d="M43.063 5.865v30.913c0 .845-.211 1.69-.683 2.386a2.373 2.373 0 0 1-.156.207 1.4 1.4 0 0 1-1.77.293l-.885-.515a3.362 3.362 0 0 1-1.475-2.789v1.676c0 1.12.553 2.167 1.475 2.789l1.378.93a.819.819 0 0 0 .919 0l1.378-.93a3.362 3.362 0 0 0 1.475-2.789V4.19c-.915 0-1.657.75-1.657 1.675zm-9.938 0v30.913c0 .845-.21 1.69-.683 2.386a2.373 2.373 0 0 1-.156.207 1.4 1.4 0 0 1-1.77.293l-.885-.515a3.362 3.362 0 0 1-1.475-2.789v1.676c0 1.12.554 2.167 1.475 2.789l1.378.93a.819.819 0 0 0 .92 0l1.377-.93a3.362 3.362 0 0 0 1.475-2.789V4.19c-.914 0-1.656.75-1.656 1.675zm-9.937 0v30.913c0 .845-.211 1.69-.683 2.386a2.373 2.373 0 0 1-.156.207 1.4 1.4 0 0 1-1.77.293l-.885-.515a3.362 3.362 0 0 1-1.475-2.789v1.676c0 1.12.553 2.167 1.475 2.789l1.378.93a.819.819 0 0 0 .919 0l1.378-.93a3.362 3.362 0 0 0 1.475-2.789V4.19c-.915 0-1.657.75-1.657 1.675zm-9.938 0v30.913c0 .845-.21 1.69-.683 2.386a2.373 2.373 0 0 1-.156.207 1.4 1.4 0 0 1-1.77.293l-.885-.515a3.362 3.362 0 0 1-1.475-2.789v1.676c0 1.12.554 2.167 1.475 2.789l1.378.93a.819.819 0 0 0 .92 0l1.377-.93a3.362 3.362 0 0 0 1.475-2.789V4.19c-.914 0-1.656.75-1.656 1.675z"/><path fill="#7B9BB1" d="M14.906 28.489v6.703c0-.463.371-.838.828-.838v-5.027a.833.833 0 0 1-.828-.838zm0-21.786v6.703c0-.462.371-.837.828-.837V7.54a.833.833 0 0 1-.828-.838zm9.938 21.786v6.703c0-.463.37-.838.828-.838v-5.027a.833.833 0 0 1-.828-.838zm0-21.786v6.703c0-.462.37-.837.828-.837V7.54a.833.833 0 0 1-.828-.838zm9.937 21.786v6.703c0-.463.371-.838.828-.838v-5.027a.833.833 0 0 1-.828-.838zm0-21.786v6.703c0-.462.371-.837.828-.837V7.54a.833.833 0 0 1-.828-.838z"/><ellipse cx="49.688" cy="10.055" fill="#E2E4E6" rx="3.313" ry="3.352"/><path fill="#8EADBE" d="M46.375 10.055c0-.614.175-1.181.46-1.676h-1.288v3.352h1.287a3.347 3.347 0 0 1-.459-1.676z"/><path fill="#D0D7DA" d="M51.576 7.306c.374.543.596 1.2.596 1.911 0 1.851-1.483 3.352-3.313 3.352a3.266 3.266 0 0 1-1.888-.603 3.293 3.293 0 0 0 2.717 1.44c1.829 0 3.312-1.5 3.312-3.351 0-1.14-.565-2.143-1.424-2.749z"/><ellipse cx="49.688" cy="10.055" fill="#7B9BB1" rx="1.656" ry="1.676"/><path fill="#7B9BB1" d="M8.281 11.73H5.797C2.6 11.73 0 9.1 0 5.866V0h3.313v5.865c0 1.386 1.114 2.514 2.484 2.514H8.28v3.352z"/><path fill="#8EADBE" d="M3.313 41.895H0V36.03c0-3.234 2.6-5.865 5.797-5.865H8.28v3.351H5.797c-1.37 0-2.484 1.128-2.484 2.514v5.865z"/><path fill="#7B9BB1" d="M44.719 8.379h1v3.352h-1zM1.656 36.03v5.865h1.657V36.03c0-1.386 1.114-2.514 2.484-2.514H8.28V31.84H5.797c-2.287 0-4.14 1.876-4.14 4.19z"/><path fill="#8EADBE" d="M1.656 5.865V0h1.657v5.865c0 1.386 1.114 2.514 2.484 2.514H8.28v1.676H5.797c-2.287 0-4.14-1.876-4.14-4.19zm35.61 1.676h-1.657v5.028h1.657c.457 0 .828.375.828.837V6.703a.833.833 0 0 1-.828.838zm0 21.786h-1.657v5.027h1.657c.457 0 .828.375.828.838v-6.703a.833.833 0 0 1-.828.838zM27.328 7.541h-1.656v5.028h1.656c.457 0 .828.375.828.837V6.703c0 .463-.37.838-.828.838zm0 21.786h-1.656v5.027h1.656c.457 0 .828.375.828.838v-6.703c0 .463-.37.838-.828.838zM17.39 7.541h-1.656v5.028h1.657c.457 0 .828.375.828.837V6.703a.833.833 0 0 1-.828.838zm0 21.786h-1.656v5.027h1.657c.457 0 .828.375.828.838v-6.703a.833.833 0 0 1-.828.838z"/></g></svg>