<svg xmlns="http://www.w3.org/2000/svg" width="30" height="30" viewBox="0 0 30 30"><path fill="#FFF" stroke="#0067AA" stroke-miterlimit="10" d="M10.449 9.182V5.459c1.87-.658 3.634-.987 5.292-.987 1.976 0 3.528.458 4.661 1.375 1.132.916 1.697 2.22 1.697 3.912 0 1.063-.23 1.925-.69 2.587-.461.663-1.185 1.36-2.173 2.094l-1.551 1.185a7.524 7.524 0 0 0-.959.923c-.358.4-.588.783-.684 1.149-.07.271-.105.572-.105.902 0 .121.006.243.016.365h-2.426a11.723 11.723 0 0 1-.126-1.438c0-.536.061-1.021.183-1.452.216-.771.804-1.654 1.763-2.651l.274-.296.355-.366.33-.409c.147-.188.266-.345.352-.472.085-.127.188-.291.311-.494.121-.202.215-.39.277-.564.063-.174.117-.366.162-.578s.066-.421.066-.627c0-.694-.164-1.244-.492-1.648-.328-.405-.789-.607-1.383-.607-1.115 0-1.996.606-2.643 1.819h-2.507zm2.891 15.241c-.449-.442-.673-.989-.673-1.643s.23-1.206.691-1.657 1.017-.678 1.668-.678c.652 0 1.192.227 1.623.678.429.451.644 1.004.644 1.657s-.222 1.2-.662 1.643c-.44.441-.978.662-1.607.662-.674 0-1.235-.221-1.684-.662z"/></svg>