<svg xmlns="http://www.w3.org/2000/svg" width="20" height="19.999" viewBox="0 0 20 19.999"><path d="M.213 19.781L.665 16.6l.454-3.182 2.73 2.729 2.728 2.728-3.181.455zM15.66 7.941l-8.184 8.188-.908-.909 8.184-8.187-1.821-1.819-8.186 8.184-.91-.909 8.187-8.185-.909-.908-9.094 9.093 5.457 5.458 9.092-9.096zm3.768-1.798c.481-.477.465-1.279-.036-1.781L15.756.724c-.5-.5-1.304-.514-1.781-.036-.039.039-.057.089-.09.13l-.021-.021-1.747 1.747L17.574 8l1.746-1.746-.023-.023c.044-.033.092-.047.131-.088z" fill="#FFF" stroke="#444142" stroke-width=".25" stroke-miterlimit="10"/></svg>