<svg id="Isolation_Mode" data-name="Isolation Mode" xmlns="http://www.w3.org/2000/svg" viewBox="0 0 30.67 39.69"><title>corbeille</title><style>.st7{fill:#b90857}</style><path class="st7" d="M555.59 1648.37a2.27 2.27 0 0 0-2.26 2.26v1.37h-8.12a.94.94 0 0 0-.9.9v5.41a.94.94 0 0 0 .9.9h1l2.62 26.24a2.71 2.71 0 0 0 2.69 2.62h16.24a2.82 2.82 0 0 0 2.71-2.62.94.94 0 0 0-.82-1 .93.93 0 0 0-1 .8c-.06.62-.39 1-.9 1h-16.22a.88.88 0 0 1-.9-.9.9.9 0 0 0 0-.1l-2.63-26.06h23.26l-2.26 22.46a1 1 0 0 0 .8 1.06.93.93 0 0 0 1-.87l2.27-22.64h1a.94.94 0 0 0 .9-.9v-5.41a.93.93 0 0 0-.82-.9H566v-1.35a2.27 2.27 0 0 0-2.26-2.26zm0 1.8h8.12a.43.43 0 0 1 .45.45v1.38h-9v-1.35a.43.43 0 0 1 .43-.48zm-9.47 3.61h27.06v3.61h-27.07zm13.43 10.36a.93.93 0 0 0-.8.92v15.33a.9.9 0 1 0 1.8 0v-15.33a.94.94 0 0 0-1-.92zm-5.86 2.26a.93.93 0 0 0-.8.92v10.82a.9.9 0 1 0 1.8 0v-10.82a.94.94 0 0 0-1.01-.92zm11.73 0a.93.93 0 0 0-.8.92v10.82a.9.9 0 1 0 1.8 0v-10.82a.94.94 0 0 0-1.01-.92z" transform="translate(-544.31 -1648.37)"/></svg>