<svg xmlns="http://www.w3.org/2000/svg" width="70" height="70" viewBox="0 0 70 70"><g fill="none" fill-rule="evenodd"><path fill="#FFB500" d="M2.726 21.476V67.41h23.245l.185-11.396h18.052V67.41H67.41V21.476L35.068 3.124 2.726 21.476zM.068 19.928l35-19.86 35 19.86v50.14H41.55V58.673H28.772l-.185 11.395H.068v-50.14z"/><path fill="#FFB500" d="M34.908 47.102c3.512 0 8.53-3.143 8.53-10.286s-8.53-13.714-8.53-13.714-8.53 6.571-8.53 13.714c0 7.143 5.018 10.286 8.53 10.286z"/><path fill="#FFF" d="M34.908 45.324c1.054 0 2.559-.931 2.559-3.047 0-2.117-2.559-4.064-2.559-4.064s-2.559 1.947-2.559 4.064c0 2.116 1.506 3.047 2.56 3.047z"/></g></svg>