<svg id="Calque_1" xmlns="http://www.w3.org/2000/svg" viewBox="0 0 502.1 367"><style>.st0{fill:#ebebec}</style><path class="st0" d="M2.8 259.4h25.5c1.6 0 2.8 1.3 2.8 2.8V367H0V262.2c0-1.5 1.3-2.8 2.8-2.8zm67-105.9h25.5c1.6 0 2.8 1.3 2.8 2.8V367H67V156.4c0-1.6 1.2-2.9 2.8-2.9zM137.9 0h25.5c1.6 0 2.8 1.3 2.8 2.8V367H135V2.8c.1-1.5 1.3-2.8 2.9-2.8zm66.7 109.4h25.5c1.6 0 2.8 1.3 2.8 2.8V367h-31.2V112.3c.1-1.6 1.3-2.9 2.9-2.9zm67 70.9h25.5c1.6 0 2.8 1.3 2.8 2.8V367h-31.2V183.2c0-1.6 1.3-2.9 2.9-2.9zm67 46.1h25.5c1.6 0 2.8 1.3 2.8 2.8V367h-31.2V229.2c0-1.6 1.3-2.8 2.9-2.8zm68.6-72.6h25.5c1.6 0 2.8 1.3 2.8 2.8V367h-31.2V156.7c.1-1.6 1.3-2.9 2.9-2.9zm66.5 132h25.5c1.6 0 2.8 1.3 2.8 2.8V367h-31.2v-78.3c.1-1.6 1.3-2.9 2.9-2.9z"/></svg>