<svg id="Calque_1" xmlns="http://www.w3.org/2000/svg" viewBox="0 0 186 160.5"><style>.st0{fill:#bfe6f9}.st1{fill:none}.st2{fill:#ffeb9d}.st3{fill:#cfb13c}.st4{fill:#ea5e3f}.st5{fill:#df3738}.st6{fill:#4e346b}.st7{fill:#eb3c3d}.st8{fill:#ff5e5f}.st9{fill:#a62d4d}.st10{fill:#221c54}.st11{fill:#f76866}.st12{fill:#262763}.st13{fill:#eb5b59}.st14{opacity:.4;fill:#fff;enable-background:new}.st15{fill:#ffb18f}.st16{fill:#ff9280}.st17{fill:#9c2d40}.st18{fill:#b5364a}.st19{opacity:.18;enable-background:new}.st20{fill:none;stroke:#fff;stroke-width:4}.st21{fill:#fff}</style><g transform="translate(2)"><circle class="st0" cx="91.2" cy="88.3" r="66"/><circle class="st0" cx="91.2" cy="88.3" r="66"/><path class="st1" d="M98.2 146.8L96 126.4l2.2 20.4zm31.6-51.4l.1.1c11.7-14.8 11.8-35.3.9-50.1-.2.5-.4.9-.6 1.3 10.4 14.4 10.4 34.1-.4 48.7zM94.1 114c.3.3.6.7.7 1.1l3.9.4c5.8.6 11.2 2.9 15.7 6.5l12.3 9.8c1.3 1.1 3.1 1.5 4.9 1.1 1.7-.4 3.1-1.4 4-3l6.4-12.6-1.6.5c-.2.1-.4.1-.6.1-.8 0-1.6-.5-1.9-1.4-.3-1 .2-2.2 1.3-2.5l-6.2-5.6 2-2.2-7.9-7.1-.3.3c-9.1 9.4-21.7 13.7-33.9 12.5l.2 1.5c.1.1.6.3 1 .6zm5.7-7c8.3-.7 16.4-4.4 22.7-10.8-6.1 5.8-13.8 9.1-21.7 9.8l-1 1zm-34 25.9c-1.2.8-2.3 1.7-3.4 2.7l-7.8 7.5c4.1 2.7 8.4 5 13 6.7l-1.8-16.9zm53-56.2c1.8 1 2.9 2.9 3 5.1 2.2-4.6 3.6-9.5 4.1-14.4l-6.4-.4-.7 9.7zm-10.3-45.6c1.6.5 3.1 1 4.7 1.7l1.1-.8c-13.3-5.9-28.9-4.4-40.9 4.2h.4c10.2-6.8 23-8.6 34.7-5.1zm7 56.6c-1.4-.1-2.6-.6-3.7-1.5l-.6 8.9c1.4-1.2 2.8-2.6 4.2-4.1 1.1-1.3 2.2-2.6 3.1-4.1-.7.6-1.8.8-3 .8zM126 60.5c-.2-2.3-.5-4.6-1-6.9-.8.6-1.6 1.2-2.4 1.7 1.3 1.6 2.5 3.3 3.4 5.2zm.7 38.8l-.3.3.3-.3zm-19.3 31.4c-.6-.5-1.3-.9-1.9-1.3l2.5 22.8c6.8-1.7 13.2-4.6 19-8.3-2.6-.5-5.1-1.6-7.2-3.4l-12.4-9.8zM62.7 84.2c.6 1.5 1.3 2.9 2.1 4.4l.3-5.4c-.8.5-1.6.9-2.4 1z"/><path class="st1" d="M108.1 36.3c-8-2.7-16.9-2.4-24.8.6l7.5.5 14.4.9 2.9-2zM65.9 70.6l1.4-21.4-1.4 21.4z"/><path class="st2" d="M87.9 124.8l-1.4-1.4-3.4 2.9-1.4 1.2 8.3 9.6.1-10.3-2.2-2z"/><path class="st2" d="M96 126.4l-1.2-11.1v-.2c-.1-.4-.3-.8-.7-1.1-.4-.3-.9-.5-1.4-.4l-3.6 3.6-2.2-.8-3.9-1.5-6.2-2.4-3.5 5.5 7.1 8.2L85 122l2.8-2.5.3-.3c.1-.1.3-.2.5-.3 0 0 .1 0 .1-.1.1-.1.3-.1.4-.2h.1c.2-.1.3-.1.5-.1h.7c.2 0 .4 0 .5.1h.1c.2 0 .3.1.5.2h.1c.2.1.3.2.5.3.1.1.3.2.4.4l.1.1.4.4 2.5 2.8.5 3.6-2.4-2.6.3 2.5v.3l3.2 10.9 1 9.4-2.1-20.5z"/><path class="st3" d="M90.3 118.4h.2-.2c.1 0 0 0 0 0zm5.3 4.3l-2.5-2.8-.4-.4-.1-.1c.2.2.3.4.4.6.2.4.3.7.4 1.2l.3 2.4 2.3 2.5-.4-3.4zM80.4 126l.6.6.2.3.5.6 1.4-1.2 3.4-2.9L85 122l-4.6 4z"/><path class="st4" d="M89.1 118.6c-.1.1-.3.1-.4.2.2-.1.3-.2.4-.2zm-.5.2c-.2.1-.3.2-.5.3.2-.1.3-.2.5-.3zm5.4 7.7l-3.9.4-.1 10.3 8.2 9.6-1-9.4-3.2-10.9v-.3.3zm-3-8c-.2 0-.3-.1-.5-.1.1 0 .3 0 .5.1zm1.6.9c-.1-.1-.2-.2-.4-.3.2 0 .3.2.4.3zm-2.8-1c-.2 0-.3.1-.5.1.1 0 .3-.1.5-.1zm1.8.3c-.1-.1-.3-.1-.5-.2.1 0 .3.1.5.2zm-1.3-.3h-.4.4zm1.8.6c-.2-.1-.3-.2-.5-.3.2.1.4.2.5.3zm1.9 7.2l-.3-2.6.3 2.6zm-5.3-7.5s-.1 0 0 0c-.1.1 0 .1 0 0zm1.8-.3h-.2.2zm1.7.6s-.1 0 0 0c-.1 0-.1 0 0 0-.1 0 0 0 0 0zm-2.3-.6zm3.2 1.6c-.1-.2-.3-.4-.4-.6.1.2.2.3.4.6zm-3.9-1.5zm1.9 0s-.1 0 0 0c-.1 0-.1 0 0 0-.1 0 0 0 0 0zm2 1.5c.2.4.3.7.4 1.2l.3 2.4-.3-2.4c-.1-.5-.2-.9-.4-1.2z"/><path class="st5" d="M94 126.5v-.3l-.3-2.5-.3-2.4c0-.4-.2-.8-.4-1.2-.1-.2-.3-.4-.4-.6-.1-.1-.2-.2-.4-.3-.2-.1-.3-.2-.5-.3h-.1c-.1-.1-.3-.1-.5-.2H91c-.2 0-.3-.1-.5-.1h-.7c-.2 0-.4.1-.5.1h-.1c-.1.1-.3.1-.4.2 0 0-.1 0-.1.1-.2.1-.3.2-.5.3l-.3.3-2.8 2.5 1.4 1.4 1.5 1.4 2.2 2.1 3.8-.5z"/><path class="st6" d="M147.9 122.2l-5.6-5-.6.2-6.4 12.6c-.8 1.5-2.2 2.6-4 3-1.7.4-3.5 0-4.9-1.1l-12.3-9.8c-4.6-3.7-9.9-5.9-15.7-6.5l-3.9-.4v.2l1.2 11.1 2.2 20.4-8.2-9.6-8.3-9.6-.4-.7-.2-.2-.6-.6-7.1-8.2H73l-3.7 1.1c-5.6 1.7-10.8 4.8-14.9 8.8l-8.8 8.5c2.7 2.5 5.6 4.9 8.7 7l7.8-7.5c1-1 2.2-1.9 3.4-2.7l1.8 17.1c7.3 2.8 15.3 4.4 23.6 4.4 5.8 0 11.4-.7 16.6-2.1l-2.5-22.8c.7.4 1.3.8 1.9 1.3l12.3 9.8c2.1 1.7 4.7 2.8 7.2 3.4 1 .2 2.1.3 3.2.3 1.2 0 2.4-.1 3.6-.4 5-1.1 9.1-4.3 11.5-8.8l5.3-10.5-2.1-2.7z"/><path class="st7" d="M162.1 120.1l13.9 12.4-20.3-18.2c-.3.8-.7 1.6-1.3 2.2l-.5.5c-1.1 1-2.5 1.5-4 1.5-.5 0-1 0-1.5-.1l1.1.9 2.4 2.2 18.8 16.8-2 2.2 5.4-6-13.9-12.4 1.9-2zm-24.2-17.5l-3.4 3.8 7.5 6.7.4.3.2.2c0-.1-.1-.2-.1-.3 0-.1-.1-.2-.1-.3-.4-1.7 0-3.7 1.2-5.2.1-.1.2-.2.3-.4.6-.7 1.3-1.2 2.1-1.5l-6.1-5.5-2 2.2z"/><path class="st8" d="M174 134.7l1.9-2.2-1.9 2.2zm-14-12.3l2-2.3 13.9 12.4-2 2.3-13.9-12.4z"/><path class="st9" d="M151.8 121.7l-2.4-2.2-1.1-.9c-1-.2-2-.7-2.9-1.4l-.7-.7-.1-.1c-.6-.5-1-1.1-1.3-1.7-.2-.3-.3-.7-.4-1l-.2-.2-.4-.3-7.5-6.7-2 2.2 6.2 5.6 3.1 2.7.3.3 5.6 5 2.6 2.3 18.2 16.1 2-2.2-19-16.8z"/><path class="st10" d="M77.3 75.3c-1.7-.1-3.4.7-4.2 2.1-.4.7-.7 1.4-.8 2.3l9.4.6c.1-.8-.1-1.7-.5-2.4-.7-1.4-2.1-2.5-3.9-2.6zm27.4 4.1c-.7-1.4-2.1-2.5-4-2.6-1.7-.1-3.4.7-4.2 2.1-.4.7-.7 1.4-.8 2.3l9.4.6c.1-.9-.1-1.7-.4-2.4z"/><path class="st11" d="M80.8 84.9l-3.6-.2-5.3-.3c-.9-.1-1.6-.3-2.3-.8-.4.4-.6.9-.7 1.5-.1 1.3.9 2.5 2.3 2.6l5.9.4 2.2.1c1.3.1 2.5-.9 2.6-2.3 0-.4 0-.7-.2-1-.3 0-.6.1-.9 0zm26.7 1c0-.1-.1-.1 0 0-.1-.1-.2 0-.2 0-.7.4-1.6.6-2.5.6l-5-.3-4-.2c-.2 0-.4-.1-.6-.1-.1.3-.2.6-.3 1-.1 1.3.9 2.5 2.3 2.6l2.2.1 5.9.4c1.3.1 2.5-.9 2.6-2.3.2-.8-.1-1.4-.4-1.8z"/><path class="st12" d="M112.8 73.5l-5.2-.3-11.7-.7-13.1-.8-11.7-.7-5.3-.4-4.1-.3-.1 2.1h.4c1.4.2 2.6.8 3.6 1.8.7.7 1.1 1.6 1.4 2.6 0 .2.1.4.1.6l.2 2.1v.5c.2 1.3.9 2.5 1.9 3.4l.1.1c.7.5 1.5.7 2.3.8l5.3.3 3.6.2h.9c1.9-.3 3.6-1.7 4-3.7l.6-2.9.4-2 4.3.3.2 2 .2 3c.2 2.1 1.8 3.9 3.9 4.3.2 0 .4.1.6.1l4 .2 5 .3c.9.1 1.8-.2 2.5-.6l.1-.1c1.1-.6 1.9-1.6 2.2-2.9l.5-1.9.1-.5c.1-.2.1-.4.2-.6.4-1.1 1.1-2.1 2.1-2.7.2-.2.5-.3.7-.4h.1c.3-.1.6-.2.8-.3h.1c.3-.1.6-.1.9-.2h1l.1-2.1-3.2-.6zm-29.3 7.2c-.3 1.2-1.4 2.1-2.6 2l-8.9-.6c-1.2-.1-2.2-1-2.3-2.2l-.3-2.7-.5-4.3 16.1 1-.8 4.2-.7 2.6zm24 1.6c-.3 1.2-1.4 2-2.6 1.9l-8.9-.6c-1.2-.1-2.2-1.1-2.3-2.3l-.2-2.7-.3-4.3 16.1 1-1 4.2-.8 2.8z"/><path class="st13" d="M92.5 112l-.1-1c-5.7-.7-11.2-2.5-16.2-5.6l.2 1.5.6 5.4 6.2 2.4 3.9 1.5 2.2.8 3.6-3.6-.4-1.4z"/><path class="st14" d="M127.3 51.4c-.6.7-1.2 1.3-1.8 1.9-.2.2-.4.3-.6.4.5 2.2.9 4.6 1 6.9.9 2 1.3 4.4 1.1 6.8l-1.2-.1c-.4 5-1.8 9.8-4.1 14.4v.4c-.1 2.1-1.3 3.9-3 4.9-.9 1.4-2 2.7-3.1 4.1-1.3 1.5-2.7 2.8-4.2 4.1l-.1 1.7-10.5 9.3c7.9-.7 15.6-4.1 21.7-9.8.4-.4.8-.8 1.2-1.3 11.1-12.4 12.1-30.4 3.6-43.7zm-35.8 52.9l.2 1.5c2.2.3 4.5.5 6.8.4l.2-3.9c-2.3 1-4.7 1.6-7.2 2z"/><path class="st14" d="M87.1 104.8c1.5.4 3 .8 4.7 1l-.2-1.5c-1.5.3-3 .5-4.5.5z"/><path class="st15" d="M154.2 108l-.4-.4-.9-.8c-1.9-1.7-4.7-2-6.8-1-.8.3-1.5.9-2.1 1.5-.1.1-.2.2-.3.4-1.2 1.5-1.5 3.5-1.2 5.2 0 .1 0 .2.1.3 0 .1.1.2.1.3.1.3.3.7.4 1 .3.6.8 1.2 1.3 1.7l.1.1.7.7c.9.8 1.9 1.2 2.9 1.4.5.1 1 .1 1.5.1 1.4-.1 2.8-.6 4-1.5.2-.2.4-.3.5-.5.6-.7 1-1.4 1.3-2.2.9-2.1.4-4.5-1.2-6.3zM84.9 73.9l-16.1-1 16.1 1zm8.1.5l16.1 1-16.1-1zm-23.7 2.8l.3 2.7c.1 1.2 1.1 2.1 2.3 2.2l8.9.6c1.2.1 2.4-.8 2.6-2l.5-2.6-2.8-.2c.4.7.6 1.5.5 2.4l-9.4-.6c.1-.8.3-1.6.8-2.3l-3.7-.2z"/><path class="st15" d="M95 86.7c0-.3.1-.7.3-1-2-.4-3.7-2.1-3.9-4.3l-.2-3-5-.2-.6 3c-.4 1.9-2 3.5-4 3.7.1.3.2.7.2 1-.1 1.3-1.2 2.3-2.6 2.3l-2.2-.1-.8 12.4v.5l-.2 3.6v.7l.1.1c5.1 3 10.7 5 16.2 5.6.6.1 1.1.1 1.7.2 1.2-.5 2.3-1.2 3.4-2.1.1-.1.2-.2.4-.3l.6-.5.1-1.1.1-.9.2-3.9.8-12.9-2.2-.1c-1.5-.2-2.5-1.3-2.4-2.7zM82 98.1l-2.5-5.9 17 1.1-3.2 5.5c-.5.8-1.2 1.4-2.1 1.8-.5.2-1.1.3-1.8.3l-3.8-.2c-.9-.1-1.7-.4-2.4-.9-.5-.5-.9-1.1-1.2-1.7zm20.3-39.7c-5.8-.8-10.7-4.1-13.8-8.6 3.1 4.5 8.1 7.8 13.8 8.6zM71.1 69.7l11.8-.4-.1 2.3 13.1.8.1-2.3 11.7 1.9-.1 1.2 5.2.3.4-7h-.7c-5.7-.3-10.7-2.5-14.6-6.1l-.3 4.7c-8.1-2-14.6-8.1-17.3-15.8l-12.5-.8h-.5v.7l-1.4 21.4 5.2.3v-1.2z"/><path class="st15" d="M108.2 79.6l-3.5-.2c.4.7.6 1.5.5 2.4l-9.4-.6c.1-.8.3-1.6.8-2.3l-3.2-.2.2 2.7c.1 1.2 1.1 2.2 2.3 2.3l8.9.6c1.2.1 2.3-.7 2.6-1.9l.8-2.8zm10.6-2.9c-.7-.4-1.6-.7-2.5-.7h-1c-.3 0-.6.1-.9.2h-.1c-.3.1-.6.2-.8.3h-.1c-.3.1-.5.3-.7.4-.9.7-1.7 1.6-2.1 2.7-.1.2-.2.4-.2.6l-.1.5-.5 1.9c-.3 1.3-1.1 2.3-2.2 2.9 0 0 0 .1.1.1l4.3.4-.6 8.9-.1 1.7.1-1.7.6-8.9c.9.9 2.2 1.4 3.7 1.5 1.1.1 2.2-.2 3.1-.7 1.7-.9 2.9-2.7 3-4.9v-.4c0-1.9-1.2-3.8-3-4.8zM64.7 88.6l.3-5.4 4.3.3c-1-.7-1.8-1.9-1.9-3.4v-.4l-.2-2.1c0-.2-.1-.4-.1-.6-.2-1-.7-1.9-1.4-2.6-.9-1-2.1-1.7-3.6-1.8h-.2c-.6 0-1.1.1-1.6.2-.2.1-.5.1-.7.2-1.3.5-2.4 1.5-3 2.8.3 2.5.9 5 1.7 7.4.9.7 1.9 1.1 3.1 1.2.5 0 .9 0 1.3-.1.9-.1 1.7-.5 2.4-1l-.4 5.3-.3 5.3 7.9 9-7.9-9 .3-5.3z"/><path class="st14" d="M121.8 82.1v-.4c-.9 1.8-1.9 3.6-3 5.3 1.7-1 2.9-2.7 3-4.9z"/><path class="st16" d="M141.9 117l-3.1-2.7c-1 .3-1.6 1.5-1.3 2.5.3.8 1 1.4 1.9 1.4.2 0 .4 0 .6-.1l1.6-.5.6-.2-.3-.4zM69.3 77.2l3.8.2c.9-1.3 2.4-2.2 4.2-2.1 1.7.1 3.1 1.1 4 2.6l2.8.2.9-4.2-16.1-1 .4 4.3zm17.4-.9l-.4 1.9 4.9.3-.1-2-4.4-.2zm18 3.1l3.5.2 1-4.2-16.1-1 .3 4.3 3.2.2c.9-1.3 2.4-2.2 4.2-2.1 1.7.1 3.1 1.1 3.9 2.6zm-35.9 5.7c0-.6.3-1.1.7-1.5l-.1-.1-4.4-.2-.3 5.4-.3 5.3 7.9 9c1.1.9 2.3 1.7 3.6 2.4v-.7l.2-3.6v-.5l.8-12.4-5.9-.4c-1.3-.2-2.3-1.3-2.2-2.7zm39.2 2.4c-.1 1.3-1.2 2.3-2.6 2.3l-5.9-.4-.8 12.9-.2 3.9-.1.9-.1 1.1 1.3-1.2 1-.9 10.5-9.3.1-1.7.6-8.9-4.5-.3c.5.4.8 1 .7 1.6z"/><path class="st14" d="M111.2 96.8l.1-1.7c-3.9 3.2-8.1 5.7-12.6 7.3l-.2 3.9c.7 0 1.5-.1 2.2-.1l10.5-9.4zm12.5-1.8c-.4.4-.8.9-1.2 1.3.7-.7 1.4-1.4 2.1-2.2 11.1-12.5 12.1-30.4 3.6-43.8-.3.3-.5.7-.8 1 8.4 13.4 7.4 31.4-3.7 43.7z"/><path class="st17" d="M125.6 39.6c0 .5-.1 1-.2 1.5-.2 1.5-.6 2.9-1.1 4.3-.2.4-.4.8-.6 1.3s-.4.9-.7 1.4c-.8 1.4-1.7 2.6-2.7 3.8-1.8 2-4.1 3.7-6.6 4.9-2.9 1.4-6.3 2-9.7 1.8-.6 0-1.1-.1-1.6-.2-5.8-.8-10.7-4.1-13.8-8.6-.5-.7-1-1.5-1.4-2.3-.7-1.3-1.2-2.6-1.5-4.1l-12-.7-6.9-.4-.2.2c-1.5 1.6-2.8 3.5-4 5.2-.6.9-1.1 1.8-1.6 2.8L59.5 73c.2-.1.5-.2.7-.2.5-.1 1.1-.2 1.6-.2h-.1l.1-2.1 4.1.3 1.3-21.4v-.7h.5l12.5.8c2.6 7.7 9.1 13.8 17.3 15.8l.3-4.7c4 3.5 9 5.7 14.6 6.1h.7l-.4 7 3.7.2-.1 2.1c.9.1 1.8.3 2.5.7l.6-9.7 6.4.4 1.2.1c.1-2.4-.3-4.7-1.1-6.8-.8-1.9-2-3.7-3.6-5.1.9-.5 1.7-1.1 2.4-1.7.2-.1.4-.3.6-.4.7-.6 1.3-1.2 1.8-1.9.3-.3.6-.6.8-1 .8-1.1 1.5-2.3 2.1-3.7.2-.4.4-.9.6-1.3-1.3-2.2-3-4.3-5-6z"/><path class="st17" d="M95.9 72.4l11.7.7.1-1.1L96 70.1l-.1 2.3zM71 70.9l11.7.7.2-2.3-11.8.4-.1 1.2z"/><path class="st18" d="M125.6 39.6c-.2-.2-.4-.4-.7-.6-3.2-2.9-6.9-5.3-10.8-6.9l-1.1.8-5 3.5-2.8 1.9-14.4-.9-7.5-.5-9.6-.6h-.4c-1.9 1.4-3.8 2.9-5.5 4.8l-1.1 1.1 6.9.4 12 .7c.4 1.4.9 2.8 1.5 4.1.4.8.9 1.6 1.4 2.3 3.1 4.6 8.1 7.8 13.8 8.6.5.1 1.1.1 1.6.2 3.5.2 6.8-.5 9.7-1.8 2.5-1.1 4.8-2.8 6.6-4.9 1-1.1 1.9-2.4 2.7-3.8.2-.4.5-.9.7-1.4.2-.4.4-.8.6-1.3.5-1.3.9-2.7 1.1-4.3.2-.4.3-.9.3-1.4z"/><path class="st19" d="M128.6 45.8c-1.3-1.8-2.8-3.7-4.6-5.3-.4-.4-.9-.8-1.3-1.2-3.1-2.8-6.7-5.1-10.5-6.6-1.4-.6-2.9-1.2-4.5-1.6-11.1-3.2-23.2-1.6-33 4.9-1.9 1.3-3.9 2.7-5.6 4.5L67 42.6c-14.5 16.1-13 40.9 3.2 55.2.9.8 1.8 1.5 2.7 2.2 1.3 1 2.7 1.9 4.2 2.6 4.9 2.7 10.1 4.4 15.4 4.9 11.7 1.1 23.7-2.8 32.3-11.8.1-.1.2-.2.2-.3.3-.3.5-.6.8-.8.8-.9 1.5-1.8 2.2-2.7 10.4-13.9 10.3-32.5.6-46.1zm-44.7-9.3s.1-.1 0 0c7.5-2.9 15.9-3.1 23.6-.5 1.8.6 3.7 1.4 5.5 2.3.3.2.6.4 1 .5 1.1.7 2.3 1.4 3.5 2.2.7.5 1.4 1.1 2.1 1.7l.1.1.3.3 2.4 2.4c1.2 1.4 2.3 2.8 3.4 4.4 8 12.7 7.1 29.5-3.5 41.2l-1.2 1.2c-6 6-13.7 9.4-21.6 10.2-.4 0-.8.1-1.2.1-2.1.1-4.2 0-6.3-.2-1.8-.2-3.7-.6-5.4-1.1-3.4-1-6.6-2.4-9.5-4.5-.2-.1-.4-.3-.6-.4-1-.7-2-1.5-3-2.4-2.9-2.6-5.4-5.6-7.2-8.8-.7-1.3-1.4-2.7-2-4.2-.7-1.8-1.3-3.7-1.7-5.6-.4-1.7-.6-3.6-.7-5.4-.4-7.7 1.8-15.6 6.7-22.2.2-.2.3-.4.5-.6.5-.6.9-1.2 1.5-1.8l.3-.3c1.2-1.3 2.4-2.4 3.8-3.6 2.8-2 6-3.8 9.2-5z"/><circle class="st20" cx="96.3" cy="69" r="40.6"/><path class="st21" d="M130 95.5l-.2-.1-1.7-1.5-3.4 3.8 1.8 1.6h.1l7.9 7.1 3.4-3.8-7.9-7.1zm-48 2.6c.3.6.7 1.1 1.2 1.6.7.5 1.5.9 2.4.9l3.8.2c.6 0 1.2-.1 1.8-.3.9-.3 1.6-.9 2.1-1.8l3.2-5.5-17-1.1 2.5 6z"/><path class="st14" d="M111.2 96.8l.1-1.6-.1 1.6zm15.9-29.5c.1-2.4-.3-4.7-1.1-6.8.2 2.2.1 4.5-.1 6.7l1.2.1zm-1.7-14.1c.7-.6 1.3-1.2 1.8-1.9.3-.3.6-.6.8-1-1.1-1.7-2.3-3.4-3.8-5-.8-.9-1.7-1.8-2.7-2.7-.2-.2-.4-.4-.6-.5-.5-.5-1.1-.9-1.6-1.3.5.8 1.1 1.7 1.5 2.6l.3.6c.7 1.3 1.3 2.6 1.8 4 .7 1.8 1.3 3.8 1.8 5.6.3-.1.5-.2.7-.4zm-24.6 52.9l10.5-9.3-10.5 9.3z"/></g></svg>