<svg width="255" height="25" viewBox="0 0 255 25" xmlns="http://www.w3.org/2000/svg"><title>Artboard</title><g fill="none" fill-rule="evenodd"><path d="M-.352 0h254.239v26H-.352z"/><text fill-rule="nonzero" font-family="OpenSans-Bold, Open Sans" font-size="14" font-weight="bold" fill="#0C5CAF"><tspan x="25.888" y="19">Paiement en ligne 100% sécurisé</tspan></text><path d="M18.523 8.002h-8.294v18h8.294c1.432 0 1.765-.652 1.765-2.127V9.713c0-1.36-.423-1.711-1.765-1.711z" fill="#FFDB65" fill-rule="nonzero"/><path d="M1.505 8.002h8.724v18H1.505c-1.507 0-1.857-.652-1.857-2.127V9.713c0-1.36.445-1.711 1.857-1.711z" fill="#E3B85C" fill-rule="nonzero"/><path d="M8.54 18.761l-2.302-2.193c-.518-.42-1.196-.348-1.65.129-.453.477-.362 1.246.06 1.635l3.297 3.007c.403.32 1.035.375 1.387 0l6.611-7.307c.375-.4.537-1.109 0-1.67-.537-.56-1.313-.399-1.688 0l-5.716 6.4zM3.171 8V4.759C3.171 1.349 5.831 0 10.23 0v2.976c-4.058 0-4.058 1.783-4.058 2.524V8h-3z" fill="#0C5CAF" fill-rule="nonzero"/><path d="M17.288 8V4.759c0-3.41-2.66-4.759-7.059-4.759v2.976c4.059 0 4.059 1.783 4.059 2.524V8h3z" fill="#009DE9" fill-rule="nonzero"/></g></svg>