<svg id="Calque_1" xmlns="http://www.w3.org/2000/svg" viewBox="0 0 55.2 51.7"><style>.st0{fill:#b90857}</style><path class="st0" d="M40.1 18.1l1.9-2.6c.7-.9.1-2.4-1.2-3.3-1.3-1-2.9-1-3.5-.1l-2 2.8v.1c-1.7-.8-3.6-1.3-5.6-1.6v-2.7c1.6-.8 2.7-2.4 2.7-4.3 0-2.6-2.1-4.7-4.7-4.7S23 3.8 23 6.4c0 1.9 1.1 3.5 2.7 4.3v2.7c-9.2 1-16.4 8.8-16.4 18.3 0 10.2 8.3 18.4 18.4 18.4S46 41.8 46 31.6c0-5.3-2.3-10.1-5.9-13.5M23.9 6.3c0-2.1 1.7-3.7 3.7-3.7s3.7 1.7 3.7 3.7c0 1.3-.7 2.5-1.8 3.2-.2-.9-1-1.5-1.9-1.5s-1.7.6-1.9 1.5c-1.1-.7-1.8-1.8-1.8-3.2M10.1 31.6c0-9.4 7.5-17.1 16.9-17.4h.1V49c-9.4-.2-17-7.9-17-17.4m18 17.4V14.2h.1c3 .1 5.8 1 8.3 2.4.6.5 1.4 1.1 2 1.4 4 3.2 6.6 8.1 6.6 13.6-.1 9.5-7.6 17.2-17 17.4"/><path class="st0" d="M40 34.5c-.1 0-.2-.1-.3-.2-.9-.2-1.6-.6-2.2-1.2-1-1.1-1.4-2.3-1.2-3.7.1-.8.4-1.5.9-2.1.1-.1.2-.5.1-.7-.1-.2-.4-.3-.6-.3-.2 0-.4 0-.6.1-2.8.4-4.8 3-4.4 5.8.3 2.5 2.5 4.5 5.1 4.5 1.1 0 2.2-.4 3.1-1 .1-.1.2-.2.2-.3.2-.4.1-.7-.1-.9m-3.2 1.1c-2.1 0-3.9-1.5-4.1-3.6-.3-2.2 1.1-4.2 3.3-4.7-.4.6-.6 1.3-.7 2-.2 1.7.3 3.3 1.5 4.5.5.6 1.2 1 2 1.3-.6.3-1.3.5-2 .5m-18.1-8c.3 0 .5-.2.5-.5v-.8c0-.3-.2-.5-.5-.5s-.5.2-.5.5v.8c0 .3.2.5.5.5m-3 .7c.1.1.3.2.4.2.1 0 .2 0 .3-.1.2-.2.3-.5.1-.7L16 27c-.2-.2-.5-.3-.7-.1-.2.2-.3.5-.1.7l.5.7zm-1.1 1.4l-.8-.3c-.3-.1-.5.1-.6.3-.1.3.1.5.3.6l.8.3h.2c.2 0 .4-.1.5-.3 0-.2-.1-.5-.4-.6m-.3 2.8l-.8.3c-.3.1-.4.4-.3.6.1.2.3.3.5.3h.2l.8-.3c.3-.1.4-.4.3-.6-.1-.3-.4-.4-.7-.3m1.4 2.3l-.5.7c-.2.2-.1.5.1.7.1.1.2.1.3.1.2 0 .3-.1.4-.2l.5-.7c.2-.2.1-.5-.1-.7-.2-.1-.6-.1-.7.1m3 .7c-.3 0-.5.2-.5.5v.8c0 .3.2.5.5.5s.5-.2.5-.5V36c0-.3-.2-.5-.5-.5m3-.7c-.2-.2-.5-.3-.7-.1-.2.2-.3.5-.1.7l.5.7c.1.1.3.2.4.2.1 0 .2 0 .3-.1.2-.2.3-.5.1-.7l-.5-.7zm2.1-2.1l-.8-.2c-.3-.1-.5.1-.6.3s.1.5.3.6l.8.3h.2c.2 0 .4-.1.5-.3 0-.3-.1-.6-.4-.7m-.9-2h.2l.8-.3c.3-.1.4-.4.3-.6-.1-.3-.4-.4-.6-.3l-.8.3c-.3.1-.4.4-.3.6 0 .2.2.3.4.3M21.4 27l-.5.7c-.2.2-.1.5.1.7.1.1.2.1.3.1.2 0 .3-.1.4-.2l.5-.7c.2-.2.1-.5-.1-.7-.3-.1-.6-.1-.7.1m-6.1 4.6c0 1.8 1.5 3.3 3.3 3.3s3.3-1.5 3.3-3.3c0-1.8-1.5-3.3-3.3-3.3s-3.3 1.4-3.3 3.3m5.7 0c0 1.3-1.1 2.3-2.3 2.3s-2.3-1.1-2.3-2.3 1.1-2.3 2.3-2.3 2.3 1 2.3 2.3"/></svg>