<svg id="Calque_2" data-name="Calque 2" xmlns="http://www.w3.org/2000/svg" viewBox="0 0 131 126.47"><defs><style>.cls-1{fill:#c9edff}.cls-2{fill:#706f6f}.cls-3{fill:#9d9d9c}.cls-4{fill:#ececec}</style></defs><title>Plan de travail 2</title><circle class="cls-1" cx="65.5" cy="72.32" r="53.76"/><circle class="cls-2" cx="65.32" cy="72.32" r="31.15"/><circle class="cls-3" cx="65.32" cy="72.32" r="19.33"/><circle class="cls-4" cx="65.32" cy="72.32" r="9.88"/><path class="cls-2" d="M27.6 66.75h9.12v11.14H27.6z"/><path class="cls-2" transform="rotate(-45 41.865 95.76)" d="M37.31 90.2h9.12v11.14h-9.12z"/><path class="cls-2" d="M59.75 100.92h11.14v9.12H59.75z"/><path class="cls-2" transform="rotate(-45 88.77 95.77)" d="M83.19 91.21h11.14v9.12H83.19z"/><path class="cls-2" d="M93.92 66.75h9.12v11.14h-9.12z"/><path class="cls-2" transform="rotate(-45 88.764 48.873)" d="M84.21 43.3h9.12v11.14h-9.12z"/><path class="cls-2" d="M59.75 34.6h11.14v9.12H59.75z"/><path class="cls-2" transform="rotate(-45 41.866 48.878)" d="M36.3 44.32h11.14v9.12H36.3z"/><circle class="cls-2" cx="95.49" cy="22.42" r="15.02" transform="rotate(-8.83 95.53 22.424)"/><circle class="cls-3" cx="95.49" cy="22.42" r="9.62" transform="rotate(-8.84 95.485 22.412)"/><circle class="cls-4" cx="95.49" cy="22.42" r="4.19" transform="rotate(-8.83 95.466 22.42)"/><path class="cls-2" transform="rotate(-8.84 78.491 25.068)" d="M74.09 20.87h8.78v8.38h-8.78z"/><path class="cls-2" transform="rotate(-53.85 85.325 36.313)" d="M80.94 32.12h8.78v8.38h-8.78z"/><path class="cls-2" transform="rotate(-8.83 98.19 39.437)" d="M93.95 35.03h8.38v8.78h-8.38z"/><path class="cls-2" transform="rotate(-53.84 109.375 32.574)" d="M105.2 28.18h8.38v8.78h-8.38z"/><path class="cls-2" transform="rotate(-8.83 112.543 19.764)" d="M108.11 15.58h8.78v8.38h-8.78z"/><path class="cls-2" transform="rotate(-53.82 105.64 8.521)" d="M101.26 4.33h8.78v8.38h-8.78z"/><path class="cls-2" transform="rotate(-8.84 92.894 5.423)" d="M88.66 1.02h8.38V9.8h-8.38z"/><path class="cls-2" transform="rotate(-53.83 81.605 12.255)" d="M77.41 7.87h8.38v8.78h-8.38z"/></svg>