<svg id="Layer_1" xmlns="http://www.w3.org/2000/svg" viewBox="0 0 175.7 118.3"><style>.st0{fill:#005596}.st1{fill:#fff}.st1,.st2,.st3{fill-rule:evenodd;clip-rule:evenodd}.st2{fill:#005596}.st3{fill:#f7aa0f}</style><path class="st0" d="M172.8 118.8H0V.5h175.7v118.3h-2.9z"/><path class="st1" d="M172.8 115.8H3V3.5h169.8v112.3z"/><path class="st2" d="M64.3 77.9l11.1-36.4h9.8l-11 36.4h-9.9zm-4.4-36.4l-8.8 15.4c-2.3 4-3.6 6.1-4.2 8.6h-.1c.2-3.2-.3-7.2-.3-9.4l-1-14.6H28.9l-.2 1c4.3 0 6.8 2.1 7.5 6.5l3.2 28.9h10.2l20.6-36.3H59.9v-.1zm76.6 36.4l-.3-5.4h-12.3l-2.5 5.4h-10.7l19.4-36.3h13.1l3.3 36.3h-10zm-1.2-21.5c-.1-2.7-.2-6.3 0-8.5h-.1c-.6 1.8-3.2 7.2-4.3 9.9l-3.7 8h8.6l-.5-9.4zM95.5 78.9c-6.9 0-11.6-2.2-14.8-4.2l4.7-7.2c3 1.7 5.3 3.6 10.6 3.6 1.7 0 3.4-.4 4.3-2.1 1.4-2.4-.3-3.6-4.2-5.8L94.2 62c-5.7-3.9-8.2-7.6-5.5-14 1.7-4.1 6.2-7.3 13.7-7.3 5.1 0 10 2.2 12.8 4.4l-5.4 6.3c-2.7-2.2-5-3.3-7.6-3.3-2.1 0-3.7.8-4.2 1.9-1 2 .3 3.4 3.3 5.3l2.3 1.4c6.9 4.4 8.6 8.9 6.8 13.2-2.9 7.4-8.8 9-14.9 9zm53.9-32.5h-.4v-2.6h1c.6 0 .9.2.9.7 0 .5-.3.7-.7.7l.7 1.1h-.5l-.7-1.1h-.4v1.2h.1zm.5-1.4c.3 0 .6 0 .6-.4 0-.3-.3-.4-.6-.4h-.5v.8h.5zm0 2.4c-1.3 0-2.3-1-2.3-2.3 0-1.4 1.1-2.3 2.3-2.3 1.2 0 2.3.9 2.3 2.3-.1 1.4-1.1 2.3-2.3 2.3zm0-4.2c-1 0-1.8.8-1.8 1.9 0 1.1.7 1.9 1.8 1.9 1 0 1.8-.8 1.8-1.9-.1-1.1-.8-1.9-1.8-1.9z"/><path class="st3" d="M168.6 89.2H7.5v21.5h161.1V89.2z"/><path class="st2" d="M168.3 8.8H7.2v21.6h161.1V8.8zm-3.7 100.4h-.4v-2.6h1c.6 0 .9.2.9.7 0 .5-.3.7-.7.7l.7 1.1h-.5l-.7-1.1h-.4v1.2h.1zm.5-1.5c.3 0 .6 0 .6-.4 0-.3-.3-.3-.6-.3h-.5v.8h.5v-.1zm0 2.5c-1.3 0-2.3-1-2.3-2.3 0-1.4 1.1-2.3 2.3-2.3 1.2 0 2.3.9 2.3 2.3 0 1.3-1.1 2.3-2.3 2.3zm0-4.3c-1 0-1.8.8-1.8 1.9 0 1.1.7 1.9 1.8 1.9 1 0 1.8-.8 1.8-1.9 0-1.1-.8-1.9-1.8-1.9z"/></svg>