<svg id="Calque_1" xmlns="http://www.w3.org/2000/svg" viewBox="0 0 55.2 51.7"><style>.st0{fill:#b90857}</style><path class="st0" d="M45.2 28.3c-.1-.8-.7-1.6-2.2-1.6-1.2-2.8-3.2-5.1-5.9-6.8-2.9-1.8-6.1-2.5-10-2.3-3.2.2-6.1 1.2-8.6 2.9-.1.1-.1.1-.3 0-1.9-.8-3.6-.5-5 .8-.2.2-.2.5-.1.7l1.6 2.2L13 28h-.2c-1.8 0-2.9 1.2-2.9 2.9V37c0 1.6 1.2 2.8 2.8 2.8h2.6c.1 0 .2.1.3.2.4.3.8.7 1.1 1 .5.5 1.1 1 1.6 1.4.2.2.2.2.2.4v2.8c.1 1.1.9 1.9 2.1 1.9h2.5c1.1 0 2-.8 2.1-1.9v-.3c1.8.3 3.6.3 5.4.1 0 1.4.9 2.2 2.2 2.2h2.1c1.5 0 2.3-.8 2.3-2.4v-2.1c0-.1 0-.2.2-.3.5-.4 1.1-.8 1.7-1.3 3.3-3 4.9-6.6 4.7-10.8v-.6c1.1-.3 1.6-1 1.4-1.8m-1.9 1.1c-.2.1-.4.3-.4.5v.3c0 .2 0 .4.1.6.2 4-1.2 7.3-4.4 10-.5.5-1.1.9-1.6 1.2-.4.3-.6.7-.6 1.2v2.1c0 1-.4 1.4-1.4 1.4h-2.1c-.8 0-1.2-.4-1.2-1.2v-.6c0-.1-.1-.3-.2-.4-.1-.1-.2-.1-.3-.1h-.1c-2.1.4-4.2.3-6.2-.1-.1 0-.3 0-.4.1-.1.1-.2.2-.2.4v.8c-.1.6-.5 1-1.1 1h-2.5c-.4 0-1-.1-1.1-1-.1-.8 0-1.7 0-2.5v-.2c0-.6-.3-.9-.6-1.2-.5-.5-1.1-.9-1.6-1.4-.4-.4-.8-.7-1.2-1.1-.2-.2-.6-.4-.9-.4h-2.7c-1.1 0-1.8-.7-1.8-1.8v-6.1c0-1.2.7-1.9 1.9-1.9h.5c.2 0 .4-.1.5-.3l2.1-4.4c.1-.2.1-.4-.1-.5l-1.5-2c1-.8 2.2-.9 3.6-.3.5.2.8.2 1.2-.1 2.4-1.7 5-2.6 8.1-2.7 3.6-.2 6.7.5 9.4 2.2 2.6 1.6 4.5 3.8 5.6 6.5l.1.2c.1.2.3.3.5.3 1.2-.2 1.4.5 1.4.7.2.4-.3.6-.8.8"/><path class="st0" d="M19.2 28c-.7 0-1.2.5-1.2 1.2s.5 1.2 1.2 1.2 1.2-.5 1.2-1.2-.6-1.2-1.2-1.2m1.8-5.7c-.2.1-.3.4-.2.7.1.2.3.3.4.3.1 0 .2 0 .2-.1 7.5-4.1 13-.2 13.2 0 .2.2.5.1.7-.1.2-.2.1-.5-.1-.7 0-.2-6.2-4.6-14.2-.1m7.4-5.9c3.4 0 6.2-2.8 6.2-6.2 0-3.4-2.8-6.2-6.2-6.2s-6.2 2.8-6.2 6.2c0 3.4 2.8 6.2 6.2 6.2m0-11.4c2.9 0 5.2 2.3 5.2 5.2 0 2.9-2.3 5.2-5.2 5.2s-5.2-2.3-5.2-5.2c0-2.9 2.3-5.2 5.2-5.2"/><path class="st0" d="M25.5 11.1h.4c.2.6.5 1.2 1 1.6.5.4 1.1.6 1.8.6h.9s.1 0 .1-.1v-.1l-.1-.7s0-.1-.1-.1h-.8c-.4 0-.7-.1-1-.3-.3-.2-.5-.5-.6-.8l1.7.1h.1v-.1l.1-.5v-.1l-.1-.1-2-.1v-.5l2.1.1c.1 0 .1 0 .1-.1l.1-.5v-.1l-.1-.1-2-.1c.2-.3.4-.6.7-.7.3-.2.6-.3 1-.2h.6s.1 0 .1-.1l.2-.7v-.1l-.1-.1c-.3-.1-.5-.1-.8-.1-.6 0-1.2.1-1.8.5-.4.4-.8.9-1 1.5h-.5v.7h.4v.5h-.4v.6c-.2.1-.1.1 0 .2-.1-.1-.1 0 0 0"/></svg>