<svg xmlns="http://www.w3.org/2000/svg" viewBox="0 0 56 58"><style>.st0{fill:#e6e7e8}.st1{fill:#1d1e1b}.st2{stroke-linecap:round;stroke-linejoin:round}.st2,.st3,.st4{fill:none;stroke:#000;stroke-miterlimit:10}.st4{stroke-linecap:round;stroke-linejoin:round}.st4,.st5{fill-rule:evenodd;clip-rule:evenodd}.st6{fill:#1d1d1b}.st7{fill:#1d1d1d}.st8{stroke:#000;stroke-width:.2847;stroke-miterlimit:10}.st9{clip-path:url(#SVGID_3_)}.st10{clip-path:url(#SVGID_4_)}.st11{display:none}</style><path d="M17 48.5c-2.3 0-4.4-.9-6-2.5-1.6-1.6-2.5-3.7-2.5-6s.9-4.4 2.5-6l7.4-7.4c1.6-1.6 3.7-2.5 6-2.5s4.4.9 6 2.5l.1.1c.1.1.1.2.1.4 0 .1-.1.3-.2.3-.1.1-.2.1-.3.1-.2 0-.3-.1-.4-.2-1.5-1.5-3.3-2.3-5.3-2.3s-3.9.8-5.3 2.2l-7.4 7.4C10.3 36.1 9.5 38 9.5 40c0 2 .8 3.9 2.2 5.3 1.4 1.4 3.3 2.2 5.3 2.2s3.9-.8 5.3-2.2l6.7-6.7c.1-.1.2-.1.4-.1s.3.1.4.1c.1.1.1.2.1.4s-.1.3-.1.4L23.1 46c-1.7 1.6-3.8 2.5-6.1 2.5zm18-1c-.3 0-.5-.2-.5-.5v-7c0-.3.2-.5.5-.5s.5.2.5.5v7c0 .3-.2.5-.5.5zm4-11c-.3 0-.5-.2-.5-.5s.2-.5.5-.5h7c.3 0 .5.2.5.5s-.2.5-.5.5h-7zM31.5 34c-2.3 0-4.4-.9-6-2.5l-.1-.1c-.2-.2-.1-.5.1-.7.1-.1.2-.1.3-.1.2 0 .3.1.4.2 1.5 1.5 3.3 2.3 5.3 2.3s3.9-.8 5.3-2.2l7.4-7.4c3-3 3-7.6 0-10.6-1.4-1.4-3.3-2.2-5.3-2.2s-3.9.8-5.3 2.2l-6.7 6.7c-.1.1-.2.2-.4.2-.1 0-.3 0-.3-.1-.2-.2-.2-.5 0-.7l6.8-6.8c1.6-1.6 3.7-2.5 6-2.5s4.4.9 6 2.5c3.3 3.3 3.3 8.7 0 12l-7.4 7.4c-1.7 1.5-3.8 2.4-6.1 2.4zM10 22.5c-.3 0-.5-.2-.5-.5s.2-.5.5-.5h7c.3 0 .5.2.5.5s-.2.5-.5.5h-7zm11-4c-.3 0-.5-.2-.5-.5v-7c0-.3.2-.5.5-.5s.5.2.5.5v7c0 .3-.2.5-.5.5z" id="FILAIRES_1_"/></svg>