<svg id="Calque_1" xmlns="http://www.w3.org/2000/svg" viewBox="0 0 36 3"><style>.st0{fill-rule:evenodd;clip-rule:evenodd;fill:#d2b7d5}</style><path id="Rectangle" class="st0" d="M30.1 0h4.4c.8 0 1.5.7 1.5 1.5S35.3 3 34.5 3h-4.4c-.8 0-1.5-.7-1.5-1.5S29.3 0 30.1 0z"/><path id="Rectangle-Copy-3" class="st0" d="M20.6 0H25c.8 0 1.5.7 1.5 1.5S25.8 3 25 3h-4.4c-.8 0-1.5-.7-1.5-1.5S19.7 0 20.6 0z"/><path id="Rectangle-Copy-20" class="st0" d="M11 0h4.4c.8 0 1.5.7 1.5 1.5S16.2 3 15.4 3H11c-.8 0-1.5-.7-1.5-1.5S10.2 0 11 0z"/><path id="Rectangle-Copy-21" class="st0" d="M1.5 0h4.4c.8 0 1.5.7 1.5 1.5S6.7 3 5.9 3H1.5C.7 3 0 2.3 0 1.5S.7 0 1.5 0z"/></svg>