<svg data-name="Calque 1" xmlns="http://www.w3.org/2000/svg" viewBox="0 0 58 58"><title>Plan de travail 1</title><path d="M36 27h-6a1 1 0 0 1-1-1v-6h-6a1 1 0 0 0-1 1v16a1 1 0 0 0 1 1h4l2 2 2-2h4a1 1 0 0 0 1-1zm-1.41-2L31 21.41V25zM30 18a1 1 0 0 1 .71.29l7 7A1 1 0 0 1 38 26v11a3 3 0 0 1-3 3H23a3 3 0 0 1-3-3V21a3 3 0 0 1 3-3zm-4 18h1.8v-3h2.4v3H32l-3 3zm-.55-5.87l-1.15-1.7h.91l.7 1.14.72-1.14h.86l-1.14 1.71L27.59 32h-.93l-.78-1.23-.8 1.23h-.88zm2.46-1.7h.78v2.91h1.74V32h-2.52zm3.5 2.38a.68.68 0 0 0 .06.31.58.58 0 0 0 .18.2.83.83 0 0 0 .25.12 1.36 1.36 0 0 0 .3 0h.22a.88.88 0 0 0 .23-.07.39.39 0 0 0 .17-.14.32.32 0 0 0 .07-.22.3.3 0 0 0-.09-.23.58.58 0 0 0-.24-.15 1.69 1.69 0 0 0-.34-.11l-.39-.1a2.91 2.91 0 0 1-.39-.12 1.41 1.41 0 0 1-.34-.19.85.85 0 0 1-.33-.7.9.9 0 0 1 .12-.48 1 1 0 0 1 .3-.34 1.3 1.3 0 0 1 .43-.2 2 2 0 0 1 .48-.06 2.35 2.35 0 0 1 .54.06 1.46 1.46 0 0 1 .46.2.9.9 0 0 1 .31.36 1.05 1.05 0 0 1 .12.52h-.76a.53.53 0 0 0-.07-.26.4.4 0 0 0-.15-.17.66.66 0 0 0-.21-.08 1.24 1.24 0 0 0-.27 0 .58.58 0 0 0-.19 0 .4.4 0 0 0-.18.07.34.34 0 0 0-.12.12.38.38 0 0 0 0 .36.37.37 0 0 0 .16.12 1.65 1.65 0 0 0 .32.11l.54.14.28.07a1.26 1.26 0 0 1 .35.17 1 1 0 0 1 .3.31.83.83 0 0 1 .13.49 1.22 1.22 0 0 1-.09.46 1 1 0 0 1-.29.36 1.17 1.17 0 0 1-.46.23 2.34 2.34 0 0 1-1.21 0 1.64 1.64 0 0 1-.5-.23 1 1 0 0 1-.33-.39 1.08 1.08 0 0 1-.12-.58z"/></svg>